<?xml version="1.0" encoding="utf-8"?>
<!-- Generator: Adobe Illustrator 18.0.0, SVG Export Plug-In . SVG Version: 6.00 Build 0)  -->
<!DOCTYPE svg PUBLIC "-//W3C//DTD SVG 1.1//EN" "http://www.w3.org/Graphics/SVG/1.1/DTD/svg11.dtd">
<svg version="1.1" id="Layer_1" xmlns="http://www.w3.org/2000/svg" xmlns:xlink="http://www.w3.org/1999/xlink" x="0px" y="0px"
	 viewBox="0 0 1920 1080" enable-background="new 0 0 1920 1080" xml:space="preserve">
<rect display="none" width="1920" height="1080"/>
<g>
	<path fill="#FEFEFE" d="M418.7,740.2c2.6,1.3,4.7,2.3,6.3,3.2c2.9,1.4,4.4,2.6,4.4,3.5c0,0.5-0.7,0.9-2.1,1c-1.3,0-2.1,0.2-2.3,0.7
		c-2.8,5.8-5.7,10.4-8.8,13.7c8.7,5.7,17.4,9.2,26.3,10.5l0.3,1.5c-2.1,1.1-3.4,2.6-3.6,4.3c-0.3,1.6-0.9,2.4-1.7,2.4
		c-3.3,0-8.3-1.8-15-5.3c-4.3-2.1-8.3-4.9-11.8-8.4c-3.4,2.8-7.6,5.2-12.5,7.2c-6.5,3.1-13.5,5.4-21.1,7l-0.7-1.2
		c8.2-3.5,14.6-6.6,19.3-9.3c3.4-2,6.9-4.9,10.4-8.7c-0.4-0.6-0.9-1.2-1.3-1.8c-2.5-3.6-4.5-8.1-6-13.5c0-0.7-0.3-1.1-0.8-1.1
		c-0.1,0-0.4,0.7-0.8,2c-0.6,2.3-1.4,4.2-2.3,5.7c-0.7,1.3-1,2-1,2.3c0.1,0.4,0.2,0.9,0.2,1.2c0,0.4,0.1,0.8,0.1,1
		c0,0.8-0.2,1.2-0.6,1.2c-0.7,0-1.9-1.1-3.6-3.2c-1.3-1.5-2.7-3-4.3-4.4c3.4-1.6,6.9-4.6,10.4-9.2c0.5-0.9,1.2-1.3,1.9-1.3
		c1.3,0,2.1,0.5,2.6,1.4c0.7,0.8,1.3,1.8,1.8,3.1c1.7,4.4,4.3,8.3,7.9,11.7C413.4,753.3,416.2,747.5,418.7,740.2z M404.3,713.3
		c3.4,0.3,6.7,0.8,9.9,1.4c2,0,3,0.6,3,1.6c0,0.3-0.6,0.7-1.8,1.2c-1.4,0.5-2,1.2-2,2v6.1h13.8c0.2-0.1,1.1-1.2,2.8-3.3
		c2-2.5,3.3-3.7,3.6-3.7c1,0,2.6,1.2,4.8,3.5c2.2,2.4,3.3,3.8,3.3,4.3c0,0.8-0.5,1.2-1.4,1.2h-52.8c-4.3,0-7.3,0.1-9.1,0.3l-1.1-2.9
		c2.3,0.4,5.7,0.6,10.2,0.6H405V720C405,717.8,404.8,715.6,404.3,713.3z M393.3,729.3c2.5,0.8,4.8,1.4,6.7,2
		c2.5,0.6,3.7,1.2,3.7,1.8c0,0.7-0.8,1.1-2.3,1.2c-1.1,0.2-1.8,0.5-2,0.8c-2.4,3.3-4.9,5.9-7.7,8c-3,2.5-6.9,4.9-11.9,7.3l-0.7-1.2
		c2.5-2.1,5.1-5,8-8.6C389.5,737.6,391.5,733.8,393.3,729.3z M416.6,729.6c6.1,1.6,11,3.3,14.7,5.3c5.3,2.6,7.9,5.3,7.9,8.2
		c0,1.6-0.4,2.8-1.3,3.6c-1.1,1.2-2.3,1.8-3.4,1.8c-1.2,0-2.4-0.9-3.6-2.8c-1.6-2.4-3.8-5.2-6.6-8.2c-1.5-1.6-4.3-3.8-8.4-6.7
		L416.6,729.6z"/>
	<path fill="#FEFEFE" d="M513.2,733.1c4.5,0.6,8.6,0.9,12.3,0.9h15.5c0.3-3.3,0.5-6.7,0.6-10.3c0-4.1-0.1-7.5-0.3-10.2
		c2.6,0.3,5.1,0.8,7.6,1.3c3.5,0.6,5.3,1.3,5.3,1.9c0,0.7-0.5,1.3-1.6,1.9c-1.3,0.5-1.9,1.1-1.9,1.6c-0.4,5.1-0.9,9.7-1.4,13.8h16.3
		c0.2-0.1,1.2-1.2,2.9-3.4c2.1-2.6,3.4-3.9,3.7-3.9c1.1,0,2.8,1.2,5,3.7c2.3,2.5,3.5,4,3.5,4.5c0,0.7-0.5,1.1-1.5,1.1h-27.4
		c1.2,4.9,2.8,9.4,4.8,13.6c2.2,4.7,5.2,8.8,9,12.3c4.6,4.1,9.7,7.3,15.4,9.8l-0.3,1.7c-2.7,1.1-4.4,2.4-5.3,4
		c-0.9,2-1.7,3.1-2.4,3.1c-0.8,0-2.3-1.1-4.6-3.2c-2.6-2.1-5.3-5.2-8.2-9.3c-2.2-3-4.2-7-6.1-11.9c-1.8-4.7-3.4-11.4-4.5-20.1h-0.7
		c-1.2,7.7-2.7,13.6-4.7,17.5c-2.9,6.4-7,11.8-12.2,16.3c-4.4,4-10.5,7.7-18.2,11.2l-0.6-1.5c6-3.9,11.2-8.6,15.6-13.9
		c4-4.5,7.2-10.6,9.6-18.2c1-3.5,1.8-7.3,2.3-11.5h-16.3c-4,0-7.3,0.2-9.9,0.7L513.2,733.1z"/>
	<path fill="#FEFEFE" d="M658.5,716.8c2.3,0.4,5.7,0.6,10.1,0.6h32.4c0.1,0,0.8-0.8,1.9-2.3c1.5-1.8,2.3-2.6,2.6-2.6
		c0.7,0,1.9,0.9,3.6,2.6c1.7,1.7,2.6,2.8,2.6,3.2c0,0.8-0.4,1.2-1.2,1.2h-22.2v5.3h18.4c0.9-0.9,1.7-1.6,2.3-2.1
		c0.9-0.9,1.6-1.4,2.1-1.4c0.6,0,2.1,1,4.4,3c2.1,1.7,3.1,2.9,3.1,3.7c0,0.6-0.6,0.9-1.8,1.1c-1.3,0-2.1,0.1-2.3,0.3
		c-2.2,1.2-4.9,2.4-8.1,3.4c0.1,0.2,0.1,0.3,0.1,0.4c0,0.8-0.4,1.2-1.1,1.2h-9c-2.6,0-4.5,0.1-5.6,0.3l-1.1-2.9
		c1.5,0.3,3.7,0.5,6.7,0.5c0.1,0,0.7-0.8,1.9-2.2c1.4-1.6,2.2-2.4,2.4-2.4c0.8,0,1.9,0.8,3.5,2.4c0.4,0.4,0.7,0.7,0.9,1
		c0.9-1.5,1.6-2.9,2.3-4.4h-19.3v17.6c0,0.9-1.3,1.6-3.9,2.1c-1.2,0.1-2,0.2-2.6,0.2c-1.3,0-2-0.8-2-2.3c0.4-2.7,0.6-6.6,0.6-11.7
		v-5.8h-22c0,2.8-0.2,4.8-0.4,6.1c-0.3,2-0.9,3.5-1.7,4.4c-0.4,0.5-0.9,0.7-1.4,0.7c-1.6,0-3-0.5-4.2-1.5c-0.9-0.8-1.4-2-1.4-3.5
		c0-0.7,0.6-1.5,1.9-2.6c1.5-1,2.6-2.1,3.4-3.3c0.8-1.1,1.4-2.8,1.9-5.2l1.8,0.3v2.6h21.9v-5.3h-11.7c-4.2,0-7.2,0.1-9,0.2
		L658.5,716.8z M656.2,739.5c2.7,0.4,6.7,0.7,12,0.7c0.1-0.1,0.8-0.8,1.8-2.2c1.4-1.7,2.2-2.6,2.5-2.6c0.8,0,1.9,0.9,3.5,2.6
		c1.6,1.7,2.3,2.7,2.3,3.1c0,0.7-0.4,1.1-1.1,1.1h-9c-5.1,0-8.7,0.1-10.9,0.3L656.2,739.5z M657.6,744.5c3.1,0.9,6.2,2,9.4,3.5h30.9
		c1.2-1.2,2.2-2.2,3.2-3.1c0.8-0.8,1.5-1.2,2-1.2c0.6,0,2.1,0.7,4.4,2c2.8,1.8,4.2,3.1,4.2,3.8c0,0.6-0.5,1.3-1.6,2
		c-0.7,0.6-1,1.3-1,2.1v5c0,2.3,0.1,5.4,0.2,9.3c0,0.9-1.2,1.6-3.6,2c-1.1,0.1-1.9,0.2-2.5,0.2c-1.4,0-2-0.8-2-2.3v-0.7h-13.9v1.5
		c0,2,0.5,3.3,1.6,3.9c1.2,0.3,4.5,0.4,10,0.4c3.8-0.1,6.4-0.3,7.8-0.6c2.2-0.1,3.6-1.2,4.2-3.4l2.3-7.3l1.8,0.3
		c0.2,5.3,0.4,7.9,0.6,7.9c0.2,1,0.7,1.8,1.4,2.3c1.4,0.7,2,1.4,2,2.1c0,1.7-0.7,2.9-2.1,3.8c-1.9,0.9-4.6,1.5-7.9,1.7
		c-2.4,0.4-5.8,0.7-10.1,0.7c-6.1,0-10.5-0.1-13.2-0.4c-2.3-0.4-3.7-1-4.2-1.7c-1.6-1.2-2.4-3.4-2.4-6.6v-4.4H666v2.9
		c0,1-1.2,1.7-3.5,2.2c-1,0.1-1.8,0.1-2.3,0.1c-1.5,0-2.3-0.8-2.3-2.3c0.2-2.5,0.3-5,0.3-7.5V755C658.2,751.4,658,747.9,657.6,744.5
		z M658.8,731.7c2.1,0.3,5.1,0.5,9,0.5c0.1,0,0.8-0.8,1.8-2.2c1.4-1.6,2.2-2.4,2.5-2.4c0.7,0,1.9,0.8,3.5,2.4
		c1.6,1.7,2.3,2.7,2.3,3.1c0,0.8-0.4,1.2-1.1,1.2h-9c-3.7,0-6.3,0.1-8,0.3L658.8,731.7z M666,756.2h12.8v-6.1H666V756.2z M666,765.3
		h12.8v-7.1H666V765.3z M687.1,750.1v6.1h13.9v-6.1H687.1z M687.1,758.2v7.1h13.9v-7.1H687.1z M689.5,738.9c3,0.4,7.4,0.6,13.1,0.6
		c0.1,0,0.7-0.7,1.8-2c1.3-1.6,2-2.4,2.3-2.4c0.7,0,1.8,0.8,3.3,2.4c1.6,1.6,2.3,2.5,2.3,2.9c0,0.7-0.3,1.1-0.9,1.1h-8.8
		c-5.6,0-9.7,0.1-12,0.3L689.5,738.9z"/>
	<path fill="#FEFEFE" d="M805.6,724.7c0.5,0,1.4,1,2.8,2.9c1.4,1.7,2,2.9,2,3.5c0,0.7-0.3,1.1-0.9,1.1h-6.9v3.9
		c2.1,1.5,3.7,2.8,4.7,4c1.3,1.5,2,2.9,2,4.2c0,1.3-0.4,2.4-1.1,3.3c-0.7,0.9-1.5,1.3-2.3,1.3c-0.5,0-0.9-0.2-1.3-0.5
		c-0.3-0.4-0.7-1.7-1.2-4c-0.1-0.8-0.4-1.7-0.7-2.6v25.5c0,4.1,0.1,8.2,0.3,12.3c0,0.9-1.2,1.5-3.6,1.9c-1.1,0.1-1.8,0.2-2.3,0.2
		c-1.4,0-2-0.7-2-2.1c0.2-4.5,0.4-8.6,0.4-12.3v-15.8c-0.9,2.3-1.8,4.2-2.5,5.7c-1.2,2.5-2.6,4.7-4,6.6l-1.2-0.6
		c3.2-10.7,5.4-21,6.6-30.9c-1.5,0-3.4,0.1-5.7,0.3l-1.2-2.9c3.1,0.4,5.4,0.6,7,0.6h0.9v-4.9c0-4.6-0.3-8.6-0.9-12
		c2.1,0.2,4.8,0.5,8.1,1c2.2,0.3,3.4,0.8,3.4,1.4c0,0.7-0.7,1.3-2,1.8c-0.8,0.3-1.2,0.9-1.2,1.8v10.5c0.3-0.6,0.8-1.5,1.2-2.5
		C804.7,725.5,805.3,724.7,805.6,724.7z M815.4,713.9c2.3,0.8,4.5,1.6,6.6,2.4c2,0.8,3.1,1.7,3.1,2.6c0,0.4-0.5,0.6-1.5,0.7
		c-1,0.1-1.6,0.3-1.8,0.4c-1.9,2.3-4.2,4.5-6.9,6.5c0.7,0.3,1.2,0.7,1.7,1c1.2,0.9,1.8,2,1.9,3.3c0.8-2.2,1.6-4.4,2.2-6.7
		c2.2,0.8,4.3,1.5,6.3,2.3c0.4,0.1,0.7,0.3,0.9,0.4c-0.2-6.6-0.5-11.1-0.8-13.6c2.3,0.3,4.6,0.7,6.9,1.1c2.6,0.3,3.9,0.8,3.9,1.5
		c0,0.6-0.5,1.1-1.5,1.5c-1.2,0.5-1.9,0.9-2,1.2c0,11.9,0.5,21.4,1.6,28.6c0.2,1.7,0.4,3.2,0.7,4.6h9.4c0.1,0,0.8-0.8,1.8-2.1
		c1.4-1.7,2.2-2.5,2.5-2.5c0.8,0,1.9,0.8,3.5,2.5c1.6,1.7,2.3,2.7,2.3,3.1c0,0.8-0.4,1.2-1.1,1.2h-17.9c0.8,3.4,1.8,6.2,3.2,8.4
		c1.5-2.2,2.6-4.4,3.6-6.6c2.3,1.2,4,2.1,4.9,2.7c2.4,1.5,3.6,2.5,3.6,3.1c0,0.6-0.6,0.9-1.7,0.9c-1.1,0.2-1.7,0.5-1.8,0.9
		c-1.6,1.8-3.1,3.4-4.5,4.8c1.6,1.6,3.1,2.4,4.5,2.4c0.6,0,1.4-0.9,2.2-2.6c0.9-1.7,1.9-3.5,3-5.5l1.5,0.6c-0.6,2.3-1,4.1-1.2,5.4
		c-0.4,2.1-0.6,3.5-0.6,3.9c0,0.3,0.3,1.2,0.9,2.6c0.9,1.2,1.4,2.1,1.4,2.7c0,2.1-1.1,3.2-3.2,3.2c-4.6,0-9.1-2.7-13.7-8.2
		c-3,1.9-5.9,3.4-8.8,4.4c-3.7,1.4-7.6,2.6-11.7,3.4l-0.5-0.9c5.2-2.4,9.3-4.7,12.5-7c1.8-1.3,3.4-2.7,5-4.4
		c-2.4-3.7-4.2-7.9-5.2-12.6c-0.1-0.5-0.2-1-0.3-1.5H824c-0.4,2.1-0.9,4-1.4,5.6c2.9,0.8,5,1.7,6.3,2.6c1.5,1.1,2.2,2.5,2.2,4
		c0,1.1-0.5,2.2-1.5,3.3c-0.6,0.7-1.5,1-2.6,1c-1.1,0-2-0.9-2.7-2.8c-0.6-1.7-1.6-3.4-2.8-5c-0.8,2.4-1.9,4.6-3.1,6.6
		c-1.3,2.1-2.9,4.2-5,6.1c-2.2,2.1-4.9,4.1-7.9,5.8l-0.9-0.9c2-2.2,3.9-4.9,5.7-7.9c1.4-2.3,2.6-5,3.6-8c0.9-2.8,1.7-6.3,2.3-10.6
		c-3.6,0-6.3,0.1-7.9,0.2l-1.2-2.9c2.4,0.4,5.8,0.6,10.3,0.6h12.5c-0.3-1.8-0.7-3.6-0.9-5.3c-0.1,0.2-0.3,0.4-0.4,0.6
		c-0.8,0.8-1.8,1.2-2.8,1.2c-0.5,0-0.9-0.2-1.2-0.5c-0.2-0.2-0.5-1.2-0.7-3.1c0-0.4-0.1-0.8-0.1-1.1c-2.7,2-5.5,3.5-8.3,4.4
		c-0.4,0-0.6,0.2-0.6,0.5c-0.1,0.2-0.2,0.6-0.2,0.9c-0.1,0.6-0.4,0.9-0.7,0.9c-0.9,0-1.9-1.5-3.1-4.5c-0.3-0.8-0.9-2.1-1.7-4
		c1.5,0,2.9-0.1,4.2-0.1c1.4-2.3,2.6-4.7,3.6-7.1c-0.6,0.6-1.3,0.9-2.3,0.9c-0.9,0-1.7-0.9-2.3-2.6c-0.8-2.5-2.3-4.9-4.4-7.2
		l0.6-0.9c1.6,0.4,2.9,0.8,3.9,1.2C813.9,721.9,814.8,718,815.4,713.9z M828.6,740.8c-0.2-2.6-0.4-5.3-0.4-8.1
		c0-1.1-0.1-2.2-0.1-3.2c-0.7,0.1-1.1,0.3-1.2,0.4c-2.9,4.1-6.3,7.9-10.1,11.4c2.3,0,4.5-0.1,6.6-0.3c-0.3-1.3-0.7-2.4-1.2-3.4
		l0.6-0.6c2.6,1.2,4.3,2.2,5.2,3.1C828.2,740.4,828.4,740.6,828.6,740.8z M840.5,713.9c2.2,0.8,4.4,1.6,6.4,2.3
		c1.9,0.7,2.9,1.5,2.9,2.4c0,0.4-0.5,0.6-1.5,0.7c-1,0.1-1.6,0.2-1.8,0.4c-1.8,2.4-4,4.6-6.5,6.6c0.6,0.3,1.1,0.7,1.5,0.9
		c1,0.9,1.5,1.9,1.5,3c0,1-0.4,2-1.3,2.8c-0.6,0.7-1.3,1-2.2,1c-0.7,0-1.2-0.8-1.7-2.3c-0.5-2.1-1.6-4.2-3.1-6.2l0.6-0.9
		c0.9,0.2,1.7,0.5,2.4,0.7C839.1,721.7,840,717.9,840.5,713.9z M846.6,722.9c2.2,0.8,4.4,1.6,6.4,2.3c1.9,0.7,2.9,1.5,2.9,2.4
		c0,0.4-0.5,0.6-1.5,0.7c-1,0.1-1.6,0.2-1.8,0.4c-2.7,3.7-5.8,7.1-9.3,10.3c2.1-0.1,4.2-0.3,6.1-0.5c-0.3-0.9-0.6-1.9-1-2.8l0.9-0.6
		c2.2,1,3.9,2,5.1,3.1c1.4,1.4,2.1,2.6,2.1,3.6c0,1.6-0.5,2.9-1.6,3.8c-0.6,0.6-1.4,0.9-2.4,0.9c-0.4,0-0.8-0.2-1.1-0.7
		c-0.3-0.3-0.6-1.2-0.8-2.6c-0.1-0.8-0.3-1.7-0.5-2.6c-1.8,1.4-3.7,2.5-5.5,3.4c0.7,0.1,1.2,0.3,1.7,0.5c1,0.5,1.5,1.2,1.5,2
		c0,1-0.4,1.9-1.2,2.8c-0.5,0.6-1.3,0.9-2.3,0.9c-0.7,0-1.3-0.6-1.8-1.8c-0.4-1-1-1.9-1.8-2.8v0.2c0,0.1-0.1,0.4-0.2,0.7
		c-0.1,0.5-0.3,0.7-0.6,0.7c-0.9,0-1.8-1.4-2.8-4.2c-0.3-0.8-0.9-2-1.6-3.8c1.5,0,2.9-0.1,4.2-0.2
		C842.8,734.2,845,728.7,846.6,722.9z"/>
	<path fill="#FEFEFE" d="M949.1,725.8l0.6,0.9c-4.2,4.3-8.3,7.8-12.5,10.4c-2.8,1.5-4.2,2.4-4.2,2.8v2c-0.1,1.2-0.4,1.8-0.9,1.8
		c-0.6,0-1.8-1.4-3.4-4.2c-0.9-1.4-2-3.2-3.3-5.5C931.8,732.6,939.7,729.9,949.1,725.8z M927,719.7c2.4,0.4,5.9,0.6,10.4,0.6
		c0.2,0,1-0.9,2.3-2.6c1.7-2,2.7-3,3-3c0.8,0,2.1,1,3.9,2.9c1.8,1.9,2.8,3.1,2.8,3.6c0,0.8-0.4,1.2-1.2,1.2h-10.9
		c-4.3,0-7.4,0.1-9.3,0.2L927,719.7z M947.6,769.1c2,1.1,3.8,2.1,5.4,3c2,1.1,3.1,1.9,3.1,2.6c0,0.6-0.5,0.9-1.5,1
		c-1.2,0-1.8,0.2-2,0.7c-2.7,1-5.5,1.8-8.6,2.6c-3.4,0.8-8.8,1.8-16.2,2.8l-0.6-1.2c4.6-1.6,8.6-3.3,12-5.2
		C943.3,773.1,946.1,771,947.6,769.1z M936.3,739.2c3.6,0.9,7,2,10.1,3.5h25.7c0.9-0.7,1.6-1.4,2.3-2c0.7-0.7,1.2-1.1,1.6-1.4
		c-1.1-0.8-2.2-1.7-3.2-2.6c-1.5-1.7-2.9-3.4-4.2-5.1c-1,1.6-2.1,2.8-3.3,3.7c-1.9,1.5-4.2,2.7-6.9,3.6c-2.9,1.2-7,2-12.2,2.5
		l-0.3-1.1c3.3-1,6.3-2.2,9-3.7c2.1-1.2,3.8-2.6,5.2-4.4c1.5-1.6,2.7-4.4,3.9-8.6c2.4,0.5,4.3,0.9,5.6,1.2c2.5,0.4,3.7,1,3.7,1.7
		c0,0.7-0.4,1.1-1.3,1.4c-1.1,0.2-1.8,0.5-1.9,0.9c0,0.1-0.1,0.3-0.3,0.4c2.8,2.2,5.9,3.9,9.1,5.1c4.1,1.4,8.1,2.4,12.1,3.1v1.4
		c-1.8,0.6-3.1,1.8-3.9,3.5c-0.4,1.4-0.8,2-1.2,2c-0.5,0-1.2-0.2-2.3-0.7c0.5,0.5,0.7,0.9,0.7,1.2c0,0.7-0.5,1.4-1.4,2.3
		c-0.8,0.8-1.2,1.7-1.2,2.5v3.5l0.6,14.9c0,0.9-1.4,1.6-4.1,2c-1.2,0.1-2,0.2-2.6,0.2c-1.3,0-2-0.8-2-2.3v-0.3H945v0.9
		c0,0.9-1.2,1.6-3.7,2.1c-1.1,0.1-1.8,0.2-2.3,0.2c-1.8,0-2.6-0.8-2.6-2.3c0.4-5.7,0.6-10.7,0.6-15v-1.1
		C936.9,749,936.7,744.5,936.3,739.2z M945,750.4h28.7v-5.6H945V750.4z M945,757.9h28.7v-5.5H945V757.9z M945,765.9h28.7V760H945
		V765.9z M956.1,713.1c2.2,0.6,4.4,1.2,6.4,1.8c1.9,0.6,2.9,1.2,2.9,1.9c0,0.6-0.5,0.9-1.6,1.1c-1.1,0.2-1.7,0.4-1.8,0.7
		c-0.4,0.9-0.9,1.8-1.5,2.6h18.1c1-0.9,1.8-1.6,2.5-2c1-1,1.8-1.5,2.3-1.5c0.6,0,2.2,1,4.7,3.1c2.3,1.8,3.4,3.1,3.4,3.9
		c0,0.6-0.6,0.9-1.7,1.1c-1.4,0-2.2,0.1-2.4,0.3c-2.3,1.8-5.2,3.6-8.8,5.3l-1.1-0.6c0.9-2.5,1.7-5,2.3-7.7h-20.6
		c-0.8,1.2-1.7,2.3-2.7,3.2c-2,2.1-4.6,4.2-7.9,6.4l-0.9-0.9c2.3-3.2,4.1-6.1,5.3-8.8C954.2,720.4,955.2,717,956.1,713.1z
		 M963.4,770.5c5.8,0.1,10.5,0.5,14,1.2c3,0.5,5.3,1.4,7.1,2.6c1.4,0.9,2,2.1,2,3.6c0,1.2-0.3,2.2-1,2.9c-0.8,0.6-1.7,0.9-2.8,0.9
		c-1.2,0-3.3-1.1-6.3-3.4c-3-2.2-7.5-4.3-13.6-6.3L963.4,770.5z"/>
	<path fill="#FEFEFE" d="M1062,728.5c2.3,0.3,5.7,0.5,10.1,0.5h7c0.2-0.1,1.1-1.1,2.5-3c1.8-2.3,2.8-3.4,3.1-3.4
		c1,0,2.5,1.1,4.5,3.3c2.1,2.2,3.1,3.5,3.1,4c0,0.8-0.5,1.2-1.5,1.2h-18.7c-4.2,0-7.2,0.1-9,0.3L1062,728.5z M1065.5,718.3
		c2.4,0.4,5.8,0.6,10.2,0.6h1.8c0.1-0.1,0.9-1,2.2-2.6c1.5-2,2.4-3,2.7-3c0.8,0,2.1,1,3.9,2.9c1.8,1.9,2.6,3.1,2.6,3.5
		c0,0.8-0.4,1.2-1.2,1.2h-12c-4.2,0-7.2,0.1-9,0.4L1065.5,718.3z M1065.5,748c2.4,0.4,5.8,0.6,10.2,0.6h1.8c0.1,0,0.9-0.9,2.3-2.6
		c1.7-1.9,2.6-2.9,3-2.9c0.8,0,2.1,0.9,3.9,2.8c1.8,1.9,2.8,3.2,2.8,3.6c0,0.7-0.4,1.1-1.2,1.1h-12.5c-4.2,0-7.2,0.1-9,0.3
		L1065.5,748z M1065.5,755.4c3.2,0.8,6.4,2,9.6,3.5h3.2c1.1-1.3,2.1-2.3,3-3.2c0.7-0.8,1.4-1.2,2-1.2c0.5,0,1.9,0.7,4.1,2
		c2.5,1.7,3.7,2.9,3.7,3.5c0,0.7-0.5,1.4-1.5,2c-0.8,0.6-1.2,1.3-1.2,2v5c0,2.2,0.1,5.3,0.4,9.3c0,0.9-1.3,1.6-3.8,2.1
		c-1.1,0.1-1.8,0.2-2.3,0.2c-1.4,0-2-0.8-2-2.3v-3.2h-6.7v3.7c0,1-1.2,1.7-3.6,2.2c-1.1,0.1-1.8,0.2-2.3,0.2c-1.6,0-2.4-0.8-2.4-2.4
		c0.2-2.5,0.3-5,0.3-7.5v-5.5C1066.1,762.2,1065.9,758.7,1065.5,755.4z M1065.8,738.1c2.4,0.3,5.8,0.5,10.2,0.5h1.8
		c0.1-0.1,0.9-1,2.3-2.7c1.7-2.1,2.7-3.1,3-3.1c0.8,0,2.2,1,4.1,3.1c1.9,2,2.9,3.2,2.9,3.6c0,0.8-0.4,1.2-1.2,1.2H1076
		c-4.2,0-7.2,0.1-9,0.3L1065.8,738.1z M1074,773.1h6.7v-12.3h-6.7V773.1z M1089.5,717.6c2.9,0.4,6,0.7,9.3,0.7h14.2
		c0.8-1.3,1.6-2.3,2.3-3.2c0.9-1,1.6-1.5,2.1-1.5c0.8,0,2.6,1.1,5.4,3.3c2.2,1.7,3.4,2.9,3.4,3.7c0,0.6-0.7,1.2-2,1.9
		c-1.4,0.6-2.1,1.5-2.1,2.6c0,18,0.4,29.8,1.3,35.3c1,4.6,2,6.9,2.8,6.9c0.3,0,0.9-1.4,1.6-4.2c0.3-1.6,0.9-3.8,1.6-6.5l1.4,0.5
		l-0.2,12c0,1.3,0.1,2.7,0.4,4.3c0.2,1.4,0.4,2.3,0.4,2.6c0,2.1-1.1,3.3-3.2,3.5c-1.4,0-3-0.5-4.9-1.6c-2.2-1.7-4-4.2-5.4-7.4
		c-1.5-3.5-2.5-8.1-3-13.9c-0.6-7.9-0.9-20-0.9-36.3h-9v26h0.9c0.4-0.7,0.9-1.7,1.6-3c0.8-1.7,1.3-2.6,1.5-2.6c0.5,0,1.5,1,2.9,2.9
		c1.4,1.8,2.1,2.9,2.1,3.5c0,0.7-0.3,1.1-0.9,1.1h-8.1v30.9c0,1-1.3,1.7-3.9,2.2c-1.1,0.1-1.9,0.2-2.5,0.2c-1.4,0-2-0.8-2-2.4
		c0.3-2.7,0.5-6.6,0.5-11.7v-19.3h-0.3c-1.5,0-3.4,0.1-5.8,0.3l-1.1-2.9c3,0.4,5.3,0.7,6.9,0.7h0.3v-26c-2.5,0-4.7,0.1-6.4,0.3
		L1089.5,717.6z"/>
	<path fill="#FEFEFE" d="M1220.8,713.6c1.8,1.1,3.4,2,4.7,2.7c1.8,1,2.8,1.8,2.8,2.3c0,0.4-0.5,0.6-1.5,0.7c-1.2,0-1.8,0.1-2,0.4
		c-1.3,0.2-2.6,0.5-3.9,0.7c-1.2,0.2-2.9,0.4-5.1,0.5l0.1,5.8h1.1c0,0,0.5-0.5,1.5-1.5c1.4-1.5,2.2-2.3,2.6-2.3
		c0.3,0,1.5,0.9,3.4,2.7c1.2,1,1.8,1.7,1.8,2c0,0.8-0.3,1.2-0.9,1.2h-9.4l0.1,7.5h1.2c0,0,0.5-0.5,1.5-1.5c1.4-1.5,2.2-2.3,2.6-2.3
		c0.3,0,1.5,0.9,3.4,2.6c1.2,1.1,1.8,1.8,1.8,2.1c0,0.7-0.3,1.1-0.9,1.1h-9.5l0.1,6.1h35.7l0.4-6.3c-3.2,0-5.8,0.1-7.8,0.2l-1.2-2.9
		c2.5,0.4,5.6,0.6,9.1,0.6l0.4-7c-3.5,0-6.2,0.1-8.3,0.3l-1.2-2.9c2.7,0.4,5.9,0.6,9.6,0.6l0.4-6.1c-3.3,0-6.1,0.1-8.4,0.4l-1.2-2.9
		c3.5,0.4,6.5,0.6,8.8,0.6c0.8-0.9,1.7-1.7,2.5-2.5c1.1-1.1,1.9-1.7,2.5-1.7c0.8,0,2.1,0.8,4,2.3c2.2,1.7,3.3,2.8,3.3,3.2
		c0,0.8-0.8,1.5-2.3,2.1c-1.3,0.7-2,1.5-2.1,2.3l-0.8,17.3c0.8-0.6,1.3-0.9,1.7-0.9c0.6,0,2,1,4.4,3c2.1,1.7,3.1,2.9,3.1,3.6
		c0,0.6-0.6,1-1.7,1.2c-1.4,0-2.1,0.1-2.3,0.4c-2.4,1.5-5.5,3-9.1,4.6l-1.1-0.5c1.2-2.2,2.3-4.4,3.2-6.7h-50
		c-0.1,1.7-0.2,2.9-0.4,3.6c-0.3,1.7-0.9,2.9-1.6,3.6c-0.5,0.4-1,0.6-1.5,0.6c-1.5,0-2.7-0.4-3.7-1.2c-0.8-0.7-1.2-1.8-1.2-3.1
		c0-0.6,0.6-1.3,1.9-2.1c1.3-0.8,2.4-1.7,3.2-2.7c0.7-0.9,1.3-2.3,1.8-4.2l1.5,0.2v3.2h1.7l-0.6-17.1c0-3.5-0.4-7.1-1.1-10.9
		l7.1,2.6c0.9-0.6,1.7-1.2,2.5-1.8C1219,715.9,1220.1,714.7,1220.8,713.6z M1212.5,751.5c3.1,0.6,6.5,0.9,10.2,0.9h17.8
		c0.7-0.7,1.4-1.3,1.9-1.8c1.4-1.2,2.4-1.8,3.1-1.8c0.8,0,2.4,1,4.6,3c2.3,1.9,3.5,3.3,3.5,4.1c0,0.6-1,0.9-2.9,1
		c-1.6,0.1-2.7,0.3-3.2,0.7c-2.6,1.2-4.9,2.2-6.9,3c0.3,0.3,0.5,0.6,0.5,0.8c0,0.7-0.6,1.3-1.8,1.8c-1,0.2-1.6,0.6-1.8,1.1h16.2
		c0.2-0.1,1-1.1,2.5-3c1.8-2.3,2.8-3.4,3.1-3.4c1,0,2.5,1.1,4.5,3.3c2.1,2.2,3.1,3.5,3.1,4.1c0,0.7-0.5,1.1-1.5,1.1h-28v7.3
		c0,3.1-0.9,5.2-2.8,6.3c-2.1,1.4-4.3,2.1-6.5,2.1c-0.7,0-1.1-0.7-1.3-2c-0.4-2.2-3.1-4.5-8-6.7l0.3-1.4c4,0.7,6.9,1.1,8.8,1.1
		c1.2,0,1.8-0.4,1.8-1.1v-5.6h-19c-4.2,0-7.2,0.1-9,0.3l-1.2-2.9c2.4,0.4,5.8,0.6,10.2,0.6h19c0-1.5-0.3-3.6-0.7-6.4
		c3.9,0.6,6.5,1.1,7.7,1.5h0.1c1.4-1.5,2.8-3.1,4.2-5h-18.1c-3.2,0-6.2,0.2-9,0.6L1212.5,751.5z M1236.2,728.2
		c1.7,0.9,3.1,1.7,4.4,2.3c1.8,0.9,2.6,1.5,2.6,2c0,0.5-0.5,0.8-1.4,0.9c-1.1,0-1.7,0.2-1.8,0.7c-0.4,0.4-0.9,0.8-1.3,1.1
		c1.1,0.7,2,1.4,2.6,2.1c0.9,0.9,1.4,1.8,1.4,2.9c0,0.9-0.4,1.8-1.1,2.5c-0.6,0.9-1.3,1.3-2.1,1.3c-0.7,0-2.2-1.5-4.4-4.4
		c-0.3-0.4-0.6-0.7-0.9-1c-2.2,1.5-5.5,3-9.9,4.5l-0.3-0.9c2.7-1.9,5.1-4.1,7.1-6.3l0.1-0.1c-1.5-1.1-3-2.2-4.6-3.2l0.6-1.1
		c2.4,0.4,4.5,0.9,6.3,1.5C1234.7,731.3,1235.6,729.7,1236.2,728.2z M1236.5,713.3c1.7,0.9,3.1,1.7,4.4,2.4c1.7,0.8,2.6,1.5,2.6,2
		c0,0.5-0.4,0.9-1.3,0.9c-1.1,0-1.8,0.2-1.9,0.6c-0.2,0.2-0.4,0.5-0.7,0.7c0.8,0.6,1.4,1.2,1.8,1.8c0.9,0.9,1.3,1.9,1.3,3.1
		c0,0.9-0.4,1.8-1.1,2.5c-0.6,0.9-1.3,1.3-2.1,1.3c-0.7,0-2-1.5-3.9-4.5c-1.9,1.6-4.7,3.2-8.3,4.8l-0.3-0.9c2.1-2,4-4.3,5.6-6.6
		c0.1-0.1,0.2-0.3,0.2-0.4c-1.5-1.5-3.2-2.8-5-4.1l0.6-1.1c2.5,0.5,4.7,1.1,6.5,1.8C1235.6,716,1236.1,714.6,1236.5,713.3z"/>
	<path fill="#FEFEFE" d="M1338,738.1c4.5,0.5,8.6,0.8,12.3,0.8h16v-17.4c0-2.3-0.2-4.6-0.6-7.1c3.5,0.4,6.9,0.9,10.1,1.4
		c2,0.1,3,0.6,3,1.5c0,0.3-0.6,0.8-1.8,1.5c-1.4,0.5-2,1.2-2,2v18.1h15.5c0.2-0.1,1.2-1.2,2.8-3.3c2-2.5,3.2-3.7,3.6-3.7
		c1.1,0,2.7,1.2,4.9,3.6c2.2,2.3,3.4,3.8,3.4,4.4c0,0.8-0.5,1.2-1.5,1.2H1375v33.3h10.6c0.2-0.1,1.2-1.2,2.9-3.4
		c2.1-2.6,3.4-3.9,3.8-3.9c1,0,2.7,1.2,5,3.7c2.3,2.5,3.4,4,3.4,4.5c0,0.7-0.5,1.1-1.4,1.1h-46.2c-4,0-7.3,0.2-9.8,0.6l-1.2-3.5
		c4.4,0.6,8.5,0.9,12.3,0.9h11.9v-33.3h-17.1c-4,0-7.3,0.2-9.9,0.5L1338,738.1z"/>
	<path fill="#FEFEFE" d="M1474.5,720.3c2.4,0.4,5.8,0.6,10.2,0.6h6.4c0.2,0,0.9-0.8,2.2-2.4c1.6-1.8,2.6-2.8,2.8-2.8
		c0.7,0,1.9,0.9,3.6,2.8c1.7,1.8,2.6,2.9,2.6,3.4c0,0.7-0.4,1.1-1.2,1.1h-10.9v19.3h2.1c0.4-0.6,0.9-1.4,1.4-2.6
		c0.8-1.4,1.3-2,1.5-2c0.5,0,1.3,0.8,2.5,2.5c0.9,1.1,1.5,1.9,1.7,2.4c0.8-0.8,1.4-1.6,2-2.6c0.9-1.5,1.7-3.7,2.3-6.8l1.8,0.3
		c0,6.2-0.2,10.5-0.6,12.9c-0.4,2.5-1.2,4.2-2.2,5.3c-0.6,0.6-1.2,0.9-2,0.9c-1.6,0-2.9-0.5-4.1-1.5c-0.9-0.8-1.4-1.9-1.4-3.4
		c0-0.9,0.7-2,2.2-3.2h-7.2v21.6c4-0.7,7.8-1.6,11.5-2.7l0.3,0.9c-6.3,5-12.9,8.6-19.9,10.9c-0.8,0.1-1.2,0.4-1.2,0.8
		c-0.1,0.3-0.2,0.7-0.2,1.1c-0.2,0.7-0.5,1-0.9,1c-1,0-2.1-1.7-3.4-5.1c-0.4-0.9-1-2.4-1.9-4.5c2.7-0.2,5.3-0.6,7.9-1v-22.9
		c-1.5,0-3.4,0.1-5.5,0.2l-1.2-2.9c3,0.4,5.2,0.6,6.8,0.6v-19.3c-3.1,0-5.3,0.1-6.8,0.3L1474.5,720.3z M1507.3,713.1
		c2.4,0.3,4.8,0.8,7.2,1.2c3.1,0.6,4.7,1.3,4.7,2c0,0.5-0.7,1-2.1,1.5c-1.2,0.4-1.9,0.9-2,1.5c0,15.6-0.2,25.5-0.6,29.9
		c-0.5,5.4-1.5,10-2.9,13.6c-1.4,3.3-3.2,6.4-5.4,9.4c-2.2,2.9-5.3,5.9-9.2,9l-0.8-1.2c3-3.6,5.4-7.8,7.2-12.5
		c1.5-3.2,2.6-7.8,3.4-13.8c0.5-4.9,0.8-14.9,0.8-30C1507.6,720.8,1507.5,717.3,1507.3,713.1z M1516,719.5c2.4,0.3,5.8,0.5,10.3,0.5
		h5.2c0.2,0,0.9-0.8,2.2-2.4c1.6-1.9,2.6-2.8,2.8-2.8c0.7,0,1.9,0.9,3.6,2.8c1.7,1.8,2.6,3,2.6,3.4c0,0.8-0.4,1.2-1.2,1.2h-10.2
		v22.7h1.2c0.1,0,0.6-0.6,1.6-1.8c1.2-1.3,1.9-2,2.2-2c0.6,0,1.6,0.7,2.9,2.1c1.3,1.4,2,2.2,2,2.5c0,0.8-0.3,1.2-0.9,1.2h-9v27.7
		h2.1c0.1-0.1,0.8-0.9,1.8-2.3c1.4-1.7,2.2-2.5,2.5-2.5c0.8,0,1.9,0.8,3.5,2.5c1.6,1.7,2.3,2.7,2.3,3.1c0,0.7-0.4,1.1-1.1,1.1H1521
		c-4.3,0-7.3,0.1-9.1,0.3l-1.1-2.8c2.3,0.4,5.7,0.6,10.2,0.6h2.3v-27.7c-2.5,0-4.4,0.1-5.5,0.3l-1.2-2.9c1.7,0.2,3.9,0.4,6.7,0.4
		v-22.6c-2.8,0-4.9,0.1-6.1,0.3L1516,719.5z"/>
</g>
<g>
	<path fill="#FEFEFE" d="M424.4,632.4V351h166.8v33.2H454.9v86h127.6v33.2H454.9v95.8h141.7v33.2H424.4z"/>
	<path fill="#FEFEFE" d="M718,632.4V351h166.8v33.2H748.5v86h127.6v33.2H748.5v95.8h141.7v33.2H718z"/>
	<path fill="#FEFEFE" d="M1174.7,533.7l30.7,9.4c-6.8,31.6-18.7,55.2-35.6,70.7c-17,15.5-37.6,23.3-61.9,23.3
		c-21.4,0-39.6-5.2-54.8-15.7c-15.2-10.4-27.6-27.2-37.2-50.2c-9.7-23-14.5-50.3-14.5-81.6c0-31,4.8-57.2,14.5-78.7
		c9.7-21.4,22.8-37.6,39.3-48.6c16.5-10.9,35-16.4,55.3-16.4c22.3,0,41.4,6.9,57.4,20.8c16,13.8,27.2,34.2,33.6,61l-29.9,8.6
		c-10.3-39-30.8-58.5-61.7-58.5c-15.4,0-28.7,3.9-40,11.8c-11.3,7.9-20.3,20.1-27,36.8c-6.7,16.7-10.1,37.7-10.1,63.2
		c0,38.5,6.8,67.5,20.3,86.7c13.6,19.3,31.6,28.9,54.1,28.9c16.6,0,31-5.9,43.1-17.8C1162.6,575.7,1170.6,557.8,1174.7,533.7z"/>
	<path fill="#FEFEFE" d="M1311.9,541.8l28.8-3.1c1.5,15.5,5,27.5,10.5,36.2c5.4,8.6,13.2,15.6,23.3,20.8c10.1,5.2,21.5,7.9,34.2,7.9
		c18.2,0,32.3-4.4,42.3-13.3c10-8.9,15.1-20.4,15.1-34.6c0-8.3-1.8-15.5-5.5-21.7c-3.6-6.2-9.2-11.3-16.5-15.2
		c-7.4-4-23.3-9.6-47.7-16.8c-21.8-6.5-37.2-12.9-46.4-19.5c-9.2-6.5-16.4-14.8-21.5-24.9c-5.1-10-7.7-21.4-7.7-34.1
		c0-22.8,7.4-41.4,22.1-55.9c14.7-14.5,34.5-21.7,59.5-21.7c17.1,0,32.1,3.4,45,10.2c12.9,6.8,22.8,16.5,29.9,29.2
		s10.9,27.6,11.4,44.7l-29.4,2.7c-1.5-18.3-7-31.9-16.4-40.7c-9.4-8.8-22.6-13.2-39.6-13.2c-17.3,0-30.5,3.9-39.5,11.6
		c-9.1,7.7-13.6,17.8-13.6,30c0,11.4,3.3,20.2,10,26.5c6.7,6.3,21.6,12.6,44.9,19c22.8,6.3,38.8,11.8,48,16.4
		c14.1,7.2,24.7,16.6,31.9,28.3s10.8,25.7,10.8,41.9c0,16.1-3.8,30.8-11.3,44c-7.6,13.2-17.8,23.3-30.8,30.2
		c-13,6.9-28.6,10.4-46.9,10.4c-28.5,0-51.3-8.6-68.2-25.7C1321.3,594.3,1312.5,571.1,1311.9,541.8z"/>
</g>
</svg>
