<?xml version="1.0" encoding="utf-8"?>
<!-- Generator: Adobe Illustrator 18.0.0, SVG Export Plug-In . SVG Version: 6.00 Build 0)  -->
<!DOCTYPE svg PUBLIC "-//W3C//DTD SVG 1.1//EN" "http://www.w3.org/Graphics/SVG/1.1/DTD/svg11.dtd">
<svg version="1.1" id="Layer_1" xmlns="http://www.w3.org/2000/svg" xmlns:xlink="http://www.w3.org/1999/xlink" x="0px" y="0px"
	 viewBox="0 0 1920 918" enable-background="new 0 0 1920 918" xml:space="preserve">
<g id="head_x5F_1_2_">
	<g>
		<path fill="#2D3039" d="M1652.6,666.4H267.4C153.3,666.4,60,573,60,459v0c0-114,93.3-207.4,207.4-207.4h1385.3
			c114,0,207.4,93.3,207.4,207.4v0C1860,573,1766.7,666.4,1652.6,666.4z"/>
	</g>
	<g>
		<path fill="#FFFFFF" d="M305,377.4c5.5,0,8.2,2.9,8.2,8.7v50.2c0,5.8,3,8.7,9.1,8.7h57v-71.2c0-5.8,2.9-8.7,8.7-8.7
			c5.8,0,8.7,2.9,8.7,8.7v71.2h55.2c6.1,0,9.1-2.9,9.1-8.7V386c0-5.8,2.7-8.7,8.2-8.7s8.2,2.9,8.2,8.7v57.5
			c0,12.5-6.1,18.7-18.2,18.7h-62.5v87.6h63.2c5.9,0,8.9-2.9,8.9-8.7V490c0-5.5,2.9-8.2,8.7-8.2c5.8,0,8.7,2.7,8.7,8.2v59.3
			c0,11.9-5.9,17.8-17.8,17.8H306.8c-11.9,0-17.8-5.9-17.8-17.8V490c0-5.5,2.9-8.2,8.7-8.2c5.8,0,8.7,2.7,8.7,8.2v51.1
			c0,5.8,2.9,8.7,8.7,8.7h64.3v-87.6H315c-12.2,0-18.2-6.2-18.2-18.7V386C296.8,380.2,299.5,377.4,305,377.4z"/>
		<path fill="#FFFFFF" d="M678.7,370.1h165.2c10.3,0,15.5,5,15.5,15.1v171.5c0,10-5.2,15.1-15.5,15.1H678.7
			c-10.3,0-15.5-5-15.5-15.1V385.1C663.2,375.1,668.4,370.1,678.7,370.1z M836.6,556.2c4.3,0,6.4-2.3,6.4-6.8V392.4
			c0-4.6-2.1-6.8-6.4-6.8H686c-4.3,0-6.4,2.3-6.4,6.8v156.9c0,4.6,2.1,6.8,6.4,6.8H836.6z M828.4,410.7c4.9,0,7.3,2.4,7.3,7.3
			c0,4.9-2.4,7.3-7.3,7.3H783c0.6,16.1,2,30.2,4.1,42.2c1.7,9.9,3.7,18.8,6.2,26.7c0.9-1.7,1.7-3.3,2.5-5c5-13.8,7.5-28.7,7.5-44.5
			c0-5,2.6-7.5,7.8-7.5c5.2,0,7.8,2.6,7.8,7.8c0,17.5-2.7,33.9-8,49.3c-2.6,6.7-6,13.1-10.3,19.2c2.4,5.2,5.2,10,8.2,14.4
			c2.3,4,4.1,5.9,5.5,5.9c1.1,0,1.8-1.8,2.3-5.5c1.1-7.9,1.6-15.9,1.6-24c0.5-5.2,3-7.8,7.5-7.8c4.9,1.2,7.3,4.6,7.3,10.3
			c0,11.7-1.5,23.1-4.6,34.2c-2.7,8.1-6.7,12.1-11.9,12.1c-5.2,0-10.6-3.2-16.2-9.6c-3.8-4.7-7.2-10.2-10.3-16.4
			c-6.1,6.8-13.2,13.3-21.4,19.4c-1.8,2.6-4.1,3.9-6.8,3.9c-6.1,0-9.1-3-9.1-9.1c0-0.6,0.7-2.2,2.1-4.8c11.6-8.1,21-16.7,28.3-26
			c-5.3-14-9.5-30.9-12.5-50.6c-1.4-10.8-2.4-22.3-3-34.4h-73.2c-4.9,0-7.3-2.4-7.3-7.3c0-4.9,2.4-7.3,7.3-7.3H767
			c-0.2-4.3-0.2-8.4-0.2-12.5c0-5.3,2.6-8,7.8-8c5.2,0,7.8,2.7,7.8,8c0,4.3,0.1,8.4,0.2,12.5h24c-2.7-3.6-5.4-7.1-8-10.3
			c-1.4-1.8-2.1-3.2-2.1-4.1c0-5,2.8-7.5,8.4-7.5c1.4,0,2.7,0.8,4.1,2.5c3.5,4.9,7,10.3,10.5,16.2c0.8,1.4,1.2,2.4,1.4,3.2H828.4z
			 M759.9,509.4c4.6,0.3,7,2.7,7.3,7.1c0,3.3-1.6,5.9-4.8,7.8c-7.8,4.1-17.9,7.9-30.6,11.4c-9.7,2.7-21.5,5.3-35.4,7.8
			c-5.5-0.3-8.3-3.2-8.4-8.7c0-5.2,2.3-8.1,6.8-8.9c12.6-1.7,22.4-3.5,29.2-5.5c12.5-2.9,23-6.2,31.7-10
			C757.3,509.7,758.7,509.4,759.9,509.4z M707,439.9h42.9c7.9,0,11.9,4,11.9,11.9V491c0,7.9-4,11.9-11.9,11.9H707
			c-7.9,0-11.9-4-11.9-11.9v-39.2C695.1,443.8,699.1,439.9,707,439.9z M741.7,488.2c3.6,0,5.5-1.8,5.5-5.5v-22.8
			c0-3.6-1.8-5.5-5.5-5.5h-26.5c-3.6,0-5.5,1.8-5.5,5.5v22.8c0,3.6,1.8,5.5,5.5,5.5H741.7z"/>
		<path fill="#FFFFFF" d="M1178.6,461.8c5.9,0,8.9,2.6,8.9,7.8c0,2-0.6,4-1.8,5.9c-10.3,15.2-22.3,28.9-35.8,41.1
			c5.2,3.8,10.2,7.1,15.1,10c15.1,9.9,38.3,20.5,69.8,31.7c3.8,1.5,5.7,4,5.7,7.5c0,5.9-3.4,8.9-10.3,8.9c-2.3,0-6.8-1.1-13.7-3.4
			c-33.2-13.8-59.5-28.7-79.2-44.5c-2.4,1.8-4.8,3.6-7.1,5.2c-20.5,15.2-47.6,29.2-81.2,42c-3.8,1.2-7.1,1.8-9.8,1.8
			c-5.8,0-8.7-3-8.7-9.1c0-2.6,1.7-4.9,5.2-7.1c39.4-14,68.7-28.7,88.1-44c-15.2-12.8-27.9-26-38.1-39.7c-2.9-3.6-4.3-6.8-4.3-9.6
			c0-4.4,2.6-6.6,7.8-6.6c2.4,0.3,4.6,1.8,6.4,4.3c14.6,16.7,28.2,30.6,40.8,41.5c12.2-10.8,24.3-24.2,36.5-40.1
			C1174.6,463,1176.5,461.8,1178.6,461.8z M1133.7,365c6.4,0,9.6,3.2,9.6,9.6v16h87.1c5.5,0,8.2,2.7,8.2,8.2s-2.7,8.2-8.2,8.2
			h-190.7c-5.5,0-8.2-2.7-8.2-8.2s2.7-8.2,8.2-8.2h84.4v-16C1124.1,368.2,1127.3,365,1133.7,365z M1092.4,413.4c6.2,0,9.4,3,9.4,8.9
			c0,3-1.4,6.5-4.3,10.3c-15.2,25.2-30,45.1-44.3,59.5c-2,1.7-4,2.5-6.2,2.5c-6.1,0-9.1-2.8-9.1-8.4c0-2,0.8-4,2.3-5.9
			c17.9-18.9,33.2-39.5,45.6-62C1087.4,415,1089.6,413.4,1092.4,413.4z M1173.8,412.5c4.6,0,7.4,2.2,8.7,6.6
			c8.2,22.1,23.1,41.1,44.7,57.3c2.7,2.1,4.1,4.4,4.1,6.8c0,3.2-0.5,5.2-1.6,5.9c-1.5,2.4-3.9,3.7-7.1,3.7c-3,0-6-1.4-8.9-4.3
			c-12.5-8.4-25-23-37.6-43.8c-6.7-12.8-10-21-10-24.6C1166,415.3,1168.6,412.8,1173.8,412.5z"/>
		<path fill="#FFFFFF" d="M1458.1,412.5c5.5,0,8.2,2.7,8.2,8.2c0,5.5-2.7,8.2-8.2,8.2h-12.8v39.2c3-2,6.2-4,9.6-6.2l3-1.1
			c5.6,0,8.4,3,8.4,9.1c0,1.7-1,3.4-3,5.2c-4.6,3.8-10.6,7.8-18,11.9v70.3c0,12.9-7,19.4-21,19.4c-3.2,0-7.5-0.9-12.8-2.7
			c-4.4-1.4-6.6-4.2-6.6-8.4c0.3-5.5,2.8-8.4,7.5-8.7c0.5,0,1.1,0.2,1.8,0.5c4.7,1.7,7.8,2.5,9.1,2.5c3.7,0,5.5-2.3,5.5-6.8v-58.2
			c-4.7,2.1-9.1,3.9-13.2,5.2c-1.5,0.6-2.8,0.9-3.9,0.9c-5.6,0-8.4-3-8.4-8.9c0-4.6,2.1-7.4,6.4-8.4c7.8-2.4,14.1-4.7,19.2-6.8
			v-47.9h-14.6c-5.6,0-8.4-2.7-8.4-8.2c0-5.5,2.8-8.2,8.4-8.2h14.6v-39.2c0-5.8,2.7-8.7,8.2-8.7s8.2,2.9,8.2,8.7v39.2H1458.1z
			 M1603.2,501.5c5.2,0,7.8,2.6,7.8,7.8c0,5.2-2.6,7.8-7.8,7.8h-57.9c0.8,2.1,1.7,4.3,3,6.6c4.7,8.4,11.5,15.3,20.3,20.8
			c7.6,5.6,20.5,10.2,38.6,13.7c5.9,0.6,8.9,3.5,8.9,8.7c-0.3,5.5-3.2,8.4-8.7,8.7c-20.5-3.5-35.1-8.2-43.6-14.1
			c-10-5.6-17.7-12.5-23-20.8c-4.6-7.8-6.8-14.5-6.8-20.3c0,5.8-2,12.5-5.9,20.3c-4.1,8.2-10.1,15.1-18,20.8
			c-7.9,5.9-21.8,10.6-41.7,14.1c-5.8-0.3-8.8-3.2-9.1-8.7c0-4.7,3-7.6,8.9-8.7c17.6-3.5,29.9-8.1,36.7-13.7
			c7-5.8,12.2-12.7,15.7-20.8c1.2-2.4,2.1-4.6,2.7-6.6h-50.4c-5.2,0-7.8-2.6-7.8-7.8c0-5.2,2.6-7.8,7.8-7.8h52.9v-16.2
			c0-5.3,2.7-8,8.2-8s8.2,2.7,8.2,8v16.2H1603.2z M1528.6,429.4h-28.5c-3,0-4.6,1.7-4.6,5V491c0,4.6-2.7,6.8-8.2,6.8
			c-5.5,0-8.2-2.3-8.2-6.8v-63c0-9.4,4.9-14.1,14.8-14.1h64.1c0.2-0.3,0.3-0.6,0.5-0.9c3.5-4.1,6.2-7.9,8-11.4
			c0.8-1.4,1.1-2.5,1.1-3.4c0-3.5-1.6-5.2-4.8-5.2h-51.3c-0.9,0-1.7-0.1-2.3-0.2c-3.7,4.3-7.7,8.1-12.1,11.6
			c-5.3,4-11,7.6-17.1,10.9c-1.8,1.2-3.7,1.8-5.5,1.8c-2,0-3.7-0.8-5.2-2.5c-1.4-1.8-2.1-3.9-2.1-6.2c0-2.4,1.7-4.6,5-6.4
			c5.9-3.3,11.1-6.8,15.5-10.3c4.1-3,7.8-6.6,10.9-10.7c3-3.3,6.5-8.1,10.5-14.4c1.2-2.3,3-3.4,5.2-3.4s4.3,0.8,5.9,2.5
			c1.5,1.5,2.3,3.3,2.3,5.5c0,2.4-0.7,4.4-2.1,5.9c-0.6,1.1-1,1.8-1.1,2.1h49.3c10.2,0,15.3,4.9,15.3,14.8c0,2.1-0.6,4.8-1.8,8
			c-1.5,3.6-3.4,7.6-5.7,11.9h10.3c9.7,0,14.6,4.7,14.6,14.1v63.9c0,4.6-2.7,6.8-8.2,6.8s-8.2-2.3-8.2-6.8v-57.5c0-3.3-1.5-5-4.6-5
			h-37c0,1.2-0.1,2.3-0.2,3.2c-0.3,3.5-1,6.9-2.1,10.3c0.5,0.2,0.9,0.3,1.4,0.5c4.7,3.5,9,6.9,13,10.3c5.9,4.7,11.6,10.2,16.9,16.4
			c1.7,2,2.5,3.4,2.5,4.3c0,5-2.4,7.5-7.1,7.5c-2.6,0-4.9-0.8-6.8-2.5c-6.2-6.5-11.6-11.7-16-15.5c-2.9-2.4-6-4.9-9.4-7.3
			c-2.3,4.3-5.1,8.4-8.4,12.5c-4.3,5-9.5,9.8-15.7,14.4c-1.2,1.2-2.8,1.8-4.8,1.8c-2,0-3.7-0.7-5.2-2.1c-1.5-1.5-2.3-3.3-2.3-5.5
			c0-2.4,0.8-4.3,2.5-5.7c5.8-4.3,10.3-8.1,13.5-11.6c3.5-4,6.3-8.3,8.4-13C1525.9,442.2,1527.5,436.2,1528.6,429.4z"/>
	</g>
</g>
</svg>
