<?xml version="1.0" encoding="utf-8"?>
<!-- Generator: Adobe Illustrator 18.0.0, SVG Export Plug-In . SVG Version: 6.00 Build 0)  -->
<!DOCTYPE svg PUBLIC "-//W3C//DTD SVG 1.1//EN" "http://www.w3.org/Graphics/SVG/1.1/DTD/svg11.dtd">
<svg version="1.1" id="Layer_1" xmlns="http://www.w3.org/2000/svg" xmlns:xlink="http://www.w3.org/1999/xlink" x="0px" y="0px"
	 viewBox="0 0 1920 918" enable-background="new 0 0 1920 918" xml:space="preserve">
<g id="head_x5F_1_3_">
	<g>
		<path fill="#2D3039" d="M1652.6,666.4H267.4C153.3,666.4,60,573,60,459v0c0-114,93.3-207.4,207.4-207.4h1385.3
			c114,0,207.4,93.3,207.4,207.4v0C1860,573,1766.7,666.4,1652.6,666.4z"/>
	</g>
	<g>
		<path fill="#FFFFFF" d="M593.7,512.4c5.2,0,7.8,2.6,7.8,7.8c0,5.2-2.6,7.8-7.8,7.8h-86.9c1.4,1.5,2.7,3,4.1,4.3
			c6.2,6.2,15.4,11.4,27.4,15.5c10.3,4.3,27.7,7.7,52,10.3c5.9,0.6,8.9,3.5,8.9,8.7c-0.3,5.5-3.2,8.4-8.7,8.7
			c-26.8-2.9-45.9-6.6-57.3-11.2c-12.9-4.6-22.9-10.2-29.9-16.9c-6.1-6.1-9.1-11.5-9.1-16.2c0,4.7-3,10.1-8.9,16.2
			c-6.2,6.7-15.2,12.3-26.9,16.9c-11.9,4.6-32.8,8.3-62.7,11.2c-5.8-0.3-8.8-3.2-9.1-8.7c0-4.7,3-7.6,8.9-8.7
			c27.5-2.6,46.7-6,57.5-10.3c11.1-4.3,19.5-9.4,25.1-15.5c1.7-1.5,3-3,3.9-4.3h-87.1c-5.2,0-7.8-2.6-7.8-7.8c0-5.2,2.6-7.8,7.8-7.8
			h91.2v-20.5c0-5.5,2.7-8.2,8.2-8.2c5.5,0,8.2,2.7,8.2,8.2v20.5h47.4c-4.1-4.1-8.2-8.1-12.3-11.9c-1.5-2-2.3-3.4-2.3-4.3
			c0-5.3,3-8,8.9-8c1.4,0,2.8,0.9,4.3,2.7c5.9,5.2,11.6,11,16.9,17.6c1.1,1.7,1.6,3,1.6,3.9H593.7z M401.2,448.1h-0.9
			c-4.9,0-7.3-2.4-7.3-7.3c0-4.9,2.4-7.3,7.3-7.3h35.6V417h-21c-12.2,0-18.2-5.8-18.2-17.3v-24.6c0-5.2,2.7-7.8,8.2-7.8
			c5.5,0,8.2,2.6,8.2,7.8v21c0,4.3,1.8,6.4,5.5,6.4h17.3v-30.1c0-5.5,2.7-8.2,8.2-8.2c5.5,0,8.2,2.7,8.2,8.2v111.3
			c0,5.5-2.7,8.2-8.2,8.2c-5.5,0-8.2-2.7-8.2-8.2v-35.6h-20.1v5.5c0,7.1-1.1,13.9-3.2,20.3c-1.7,5.5-4.1,10.3-7.3,14.4
			c-2,3-4,4.6-6.2,4.6c-5.6-0.3-8.6-3-8.9-8c0.1-1.2,0.9-2.6,2.3-4.1c3.5-4.9,5.9-9.9,7.3-15.1c0.9-4.1,1.4-8.1,1.4-12.1V448.1z
			 M593.7,434.4c4.9,0,7.3,2.4,7.3,7.3c0,4.9-2.4,7.3-7.3,7.3h-14.1v20.3c0,12-6.2,18-18.7,18c-6.4,0-14.9-1.2-25.5-3.6
			c-4.3-1.4-6.4-4-6.4-7.8c0.3-5.3,2.7-8.1,7.3-8.4c0.9,0,2.2,0.2,3.9,0.5c9.7,2.3,16,3.4,18.9,3.4c3.3,0,5-2.3,5-6.8V449h-95.4
			c-4.9,0-7.3-2.4-7.3-7.3c0-4.9,2.4-7.3,7.3-7.3h95.4v-13.7c0-5.5,2.6-8.2,7.8-8.2c5.2,0,7.8,2.7,7.8,8.2v13.7H593.7z M512.8,361.4
			c2.1,0,4,0.8,5.7,2.3c1.5,1.5,2.3,3.3,2.3,5.2c0,0.6-0.1,1.1-0.2,1.6h61.4c7,0,10.5,3,10.5,9.1c0,3.5-3.3,8.1-10,13.7
			c-8.7,7.8-19.9,14.6-33.8,20.5c-12.6,5.9-27.8,10.6-45.4,13.9c-11.7,2.6-21.4,3.9-29,3.9c-5.5,0-8.2-2.7-8.2-8.2
			c0-4.3,2.3-6.7,6.8-7.3c12.3-0.6,21.5-1.4,27.6-2.5c0.6-0.1,1.1-0.2,1.4-0.2c-5-4.1-10.3-8-16-11.6c-1.2-0.9-2.2-1.7-3-2.5
			c-1.7,0.8-3.4,1.4-5.2,2.1c-2,1.4-3.9,2.1-5.7,2.1c-2.1,0-4-0.9-5.5-2.7c-1.5-1.7-2.3-3.8-2.3-6.4c0-2.6,1.7-4.9,5.2-6.8
			c6.4-2.1,11.8-4.3,16.2-6.6c4.1-2,7.8-4.3,11.2-6.8c3.2-2.3,6.8-5.4,10.9-9.4C509,362.5,510.6,361.4,512.8,361.4z M494.3,451.7
			c1.5,0,3.3,0.5,5.5,1.6c3.2,2.1,6,4.3,8.4,6.4c4,2.9,7.6,6.3,10.9,10.3c1.7,2,2.5,3.4,2.5,4.3c0,5-2.4,7.5-7.1,7.5
			c-2.6,0-4.9-0.8-6.8-2.5c-4-3.8-7.3-6.8-10-8.9c-2.4-1.8-5.1-3.7-8-5.7c-1.8-1.8-2.7-3.6-2.7-5.5
			C487,454.2,489.4,451.7,494.3,451.7z M496.1,392.9c7,4.6,13.2,9.1,18.5,13.7c1.5,1.2,2.4,2.4,2.7,3.6c7-1.8,13.2-3.7,18.7-5.7
			c-5.9-3.3-12.3-6.7-19.2-10c-2.9-2-4.3-3.9-4.3-5.7c0-2.7,0.8-4.6,2.5-5.5h-2.5c-1.1,0-1.8-0.1-2.1-0.2c-1.4,1.1-2.5,1.9-3.4,2.5
			C503.7,388.2,500.1,390.6,496.1,392.9z M523.7,383.3c0.5,0.2,0.8,0.3,0.9,0.5c9.3,4.3,17.5,8.5,24.6,12.8c0.9,0.6,1.4,1,1.6,1.1
			c3.5-1.7,6.8-3.5,10-5.5c5.8-3.3,8.7-5.5,8.7-6.4c0-1.7-1.1-2.5-3.4-2.5H523.7z"/>
		<path fill="#FFFFFF" d="M1058.2,520.6c5.2,0,7.8,2.6,7.8,7.8c0,5.2-2.6,7.8-7.8,7.8h-70.9c0.8,3.5,1.1,7,1.1,10.5
			c0,5.8-2,11.5-5.9,17.1c-3.2,4.9-7.5,8.4-13,10.7c-5,2.1-11,3.2-18,3.2c-10,0-21.7-2.1-34.9-6.4c-4.9-1.8-7.4-4.9-7.5-9.1
			c0.3-6.2,3-9.5,8.2-9.8c17.3,5.3,28.2,8,32.6,8c3.3,0,6.5-0.5,9.4-1.4c3.5-1.1,6.3-2.7,8.4-5c2.3-2.1,3.4-4.6,3.4-7.3
			c0-4.1-0.4-7.6-1.1-10.5h-107c-5.2,0-7.8-2.6-7.8-7.8c0-5.2,2.6-7.8,7.8-7.8h96.9c-3.3-2.7-7-5-10.9-6.8c-1.4-0.6-2.1-1.2-2.1-1.8
			c0.3-5.8,3.5-8.8,9.6-9.1c1.4,0,3.2,0.5,5.5,1.6c2.1,1.4,4.2,2.7,6.2,3.9c5.2-1.4,9-2.7,11.4-3.9c4.4-1.8,8.2-3.7,11.4-5.7
			c2.6-1.5,3.9-2.5,3.9-3c0-1.4-1.1-2.1-3.4-2.1h-86.5c-4.9,0-7.3-2.4-7.3-7.3c0-4.9,2.4-7.3,7.3-7.3h103.8c9.6,0,14.4,3.3,14.4,10
			c0,1.8-1.4,4-4.1,6.4c-4.3,3.8-10.4,8-18.5,12.5c-7.1,3.6-14.5,6.8-22.1,9.6c0.9,0.9,1.7,1.9,2.3,3H1058.2z M888.7,412l1.1,14.6
			h26.5c4.6,0,6.8,2.3,6.8,6.8c0,4.6-2.3,6.8-6.8,6.8H891l1.1,12.3h135.5c0.6-4.9,1.1-9.3,1.6-13.2h-24.4c-4.6,0-6.8-2.3-6.8-6.8
			c0-4.6,2.3-6.8,6.8-6.8h26c0.8-5.5,1.4-10.3,1.8-14.6H1003c-4.6,0-6.8-2.3-6.8-6.8c0-4.6,2.3-6.8,6.8-6.8h31.5
			c0.9-7.6,1.4-11.6,1.4-12.1c0-2.3-1.5-3.4-4.6-3.4h-28.7c-4.6,0-6.8-2.3-6.8-6.8c0-4.6,2.3-6.8,6.8-6.8h37.2
			c9,0,13.5,3.8,13.5,11.4c0,2.1-3.3,26.5-10,73h6.2c6.5,0,11.5,2.2,14.8,6.6c2.6,3.5,3.9,8.7,3.9,15.7c0,4.7-0.5,10.1-1.6,16.2
			c-1.4,4.7-4.7,7.1-10,7.1c-5.8,0-8.7-2.9-8.7-8.7c1.7-7.3,2.5-11.9,2.5-13.7c0-5.8-2.1-8.7-6.4-8.7H878.4c-3.6,0-5.5,1.8-5.5,5.5
			v19.2c0,5.5-2.7,8.2-8.2,8.2s-8.2-2.7-8.2-8.2v-27.4c0-7.9,4-11.9,11.9-11.9h8.9l-5.2-68.4c0-5.8,1.3-10,3.9-12.8
			c2.1-2.3,6.1-3.5,11.9-3.6c9.9-0.3,20-1.4,30.3-3.4c5.2,0,7.8,2.7,7.8,8c0,4.9-2.7,7.7-8.2,8.4c-9.6,1.1-18.2,1.6-25.8,1.6
			c-3.5,0-5.2,2-5.2,5.9l0.7,10h26.2c4.6,0,6.8,2.3,6.8,6.8c0,4.6-2.3,6.8-6.8,6.8H888.7z M978.3,365c5.2,0,7.8,2.6,7.8,7.8
			c0,2.4-1.2,4.5-3.6,6.2c-2.9,2.6-6.1,5.1-9.6,7.5c3.8,2.3,7.4,4.6,10.7,6.8c1.7,2,2.5,3.4,2.5,4.3c0,5-2.4,7.5-7.1,7.5
			c-2.7,0-5-0.8-6.8-2.5c-4.4-2.7-8.5-5.2-12.3-7.5c-7,4.3-14.8,8.2-23.3,11.9c-2.3,0.8-3.8,1.1-4.6,1.1c-4.7,0-7.1-2.5-7.1-7.5
			c0-2.3,1.2-4,3.6-5.2c5.9-2.4,11.4-5.2,16.4-8.2c-3.5-1.7-7.2-3.3-11.2-5c-1.7-1.7-2.5-3.3-2.5-5c0-4.4,2.2-6.6,6.6-6.6
			c1.2,0,2.7,0.5,4.6,1.4c5.9,2.6,11.3,5,16,7.3c5.6-3.8,10.6-7.8,15.1-12.1C975.8,365.7,977.4,365,978.3,365z M983.8,407.9
			c5.2,0,7.8,2.6,7.8,7.8c0,2.4-1.2,4.5-3.6,6.2c-2.9,2.4-6,4.8-9.4,7.1c3.6,2.1,7.1,4.3,10.5,6.4c1.7,2,2.5,3.4,2.5,4.3
			c0,5-2.4,7.5-7.1,7.5c-2.6,0-4.9-0.8-6.8-2.5c-4.7-2.7-9-5.2-13-7.3c-7.1,3.8-15,7.4-23.5,10.7c-2.3,0.8-3.8,1.1-4.6,1.1
			c-4.7,0-7.1-2.5-7.1-7.5c0-2.3,1.2-4,3.6-5.2c5.6-2.1,11-4.5,16.2-7.1c-4-1.8-7.9-3.6-11.9-5.2c-1.7-1.7-2.5-3.3-2.5-5
			c0-4.4,2.2-6.6,6.6-6.6c1.2,0,2.7,0.5,4.6,1.4c6.2,2.7,11.9,5.2,17.1,7.5c5.8-3.6,11-7.4,15.7-11.4
			C981.3,408.6,982.9,407.9,983.8,407.9z"/>
		<path fill="#FFFFFF" d="M1428.6,363.2c5.3,0,11.9,3.7,19.6,11.2c9.9,9.6,21.3,18.5,34.2,26.7c12,7.1,28.1,14.1,48.1,20.8
			c3.2,2,4.8,4.3,4.8,7.1c-0.3,7-3.6,10.6-10,10.9c-2.1,0-4.4-0.5-6.8-1.4c-9.3-4.1-17.3-7.8-24-10.9c0.5,1.2,0.7,2.6,0.7,4.1
			c0,5.5-2.7,8.2-8.2,8.2h-49.7v31.9h78c5.5,0,8.2,2.7,8.2,8.2c0,5.5-2.7,8.2-8.2,8.2h-78v67.5h88.1c5.5,0,8.2,2.7,8.2,8.2
			c0,5.5-2.7,8.2-8.2,8.2h-193.4c-5.5,0-8.2-2.7-8.2-8.2c0-5.5,2.7-8.2,8.2-8.2h88.1v-67.5h-79.8c-5.5,0-8.2-2.7-8.2-8.2
			c0-5.5,2.7-8.2,8.2-8.2h79.8v-31.9h-52.5c-5.5,0-8.2-2.7-8.2-8.2c0-1.2,0.2-2.2,0.5-3c-7.8,3.6-15.8,7-24.2,10
			c-1.8,0.8-3.7,1.1-5.7,1.1c-5.6-0.3-8.6-3.6-8.9-10c0.1-3.3,1.9-6,5.2-8c19.8-6.5,36.3-13.7,49.7-21.4c14.1-7.8,27.1-17.9,39-30.3
			C1419.4,365.5,1423.9,363.2,1428.6,363.2z M1357.5,498.3c2.1,0,4,1.4,5.7,4.3c8.7,9.4,16,20,21.9,31.7c0.8,2.1,1.1,4.1,1.1,5.9
			c0,4.9-3.2,7.3-9.6,7.3c-2.9,0-5.1-2.1-6.6-6.2c-6.1-13.1-12.6-23.5-19.6-31.3c-1.2-2-1.8-3.5-1.8-4.6
			C1348.6,500.7,1351.5,498.3,1357.5,498.3z M1369.8,423.4h116.8c-5.2-2.6-9.3-4.9-12.3-7.1c-13.2-9-26.1-19.6-38.6-31.9
			c-2-2.6-4.1-3.9-6.4-3.9c-1.5,0-3,0.7-4.3,2.1c-13.8,14.3-29,26.1-45.4,35.4C1376.4,419.9,1373.1,421.8,1369.8,423.4z
			 M1501.2,498.3c5.8,0,8.7,2.9,8.7,8.7c0,2.7-1.4,5-4.1,6.8c-7.3,12-17.5,23-30.6,32.8c-1.5,0.9-2.5,1.4-3,1.4
			c-5.9,0-8.9-3.2-8.9-9.6c0-2.7,1.5-4.9,4.6-6.6c11.1-8.5,20.5-18.9,28.1-31.3C1498.4,499,1500.1,498.3,1501.2,498.3z"/>
	</g>
</g>
</svg>
