<?xml version="1.0" encoding="utf-8"?>
<!-- Generator: Adobe Illustrator 18.0.0, SVG Export Plug-In . SVG Version: 6.00 Build 0)  -->
<!DOCTYPE svg PUBLIC "-//W3C//DTD SVG 1.1//EN" "http://www.w3.org/Graphics/SVG/1.1/DTD/svg11.dtd">
<svg version="1.1" id="Layer_1" xmlns="http://www.w3.org/2000/svg" xmlns:xlink="http://www.w3.org/1999/xlink" x="0px" y="0px"
	 viewBox="60 192.4 1800 415.2" enable-background="new 60 192.4 1800 415.2" xml:space="preserve">
<g id="head_x5F_1_1_">
	<g>
		<path fill="#2D3039" d="M1652.4,607.6H267.2C153.2,607.6,60,514,60,400l0,0c0-114,93.2-207.6,207.2-207.6h1385.2
			c114,0,207.6,93.2,207.6,207.6l0,0C1860,514,1766.8,607.6,1652.4,607.6z"/>
	</g>
	<g>
		<path fill="#FFFFF8" d="M471.6,331.6c5.6,0,8.4,2.8,8.4,8.4s-2.8,8-8.4,8h-88v2c12.8,19.6,26.8,36.4,41.2,50.4
			c21.2,20,39.2,35.2,55.2,45.6c4,2,6.4,5.2,6.4,9.2c0,2-0.8,4-2,6c-1.6,2.4-4,3.2-6.8,3.2c-3.6,0-6.8-1.2-9.6-3.6
			c-15.2-12-30-24.8-44-38.4c-13.6-13.2-26.8-28.8-40-46.4v80.8h55.2c5.6,0,8.4,2.8,8.4,8s-2.8,8.4-8.4,8.4h-55.6v35.6
			c0,6-2.8,8.8-8.8,8.8c-5.6,0-8.8-2.8-8.8-8.8v-35.6h-51.2c-5.6,0-8.4-2.8-8.4-8s2.8-8.4,8.4-8.4h51.6v-80
			C346,404,319.6,432,286.8,460c-5.6,4.4-10,6.4-13.2,6.4c-6.8,0-10.4-2.8-10.4-8.4c0-1.6,0.8-3.2,2.8-5.2
			c28.4-23.2,50.4-43.2,65.6-60c12.8-14,24.4-29.2,34.4-44.8h-88c-5.6,0-8.4-2.8-8.4-8.4s2.8-8,8.4-8h88v-17.2
			c0-5.6,2.8-8.8,8.8-8.8c5.6,0,8.8,2.8,8.8,8.8v17.2H471.6L471.6,331.6z"/>
		<path fill="#FFFFF8" d="M707.6,314.8c5.2,0,7.6,2.8,7.6,8s-2.4,8-7.6,8h-21.2v60.8H702c5.6,0,8.4,2.8,8.4,8s-2.8,8.4-8.4,8.4
			h-15.6v65.6c6.8-2.4,14.8-5.6,24-9.6l3.2-1.2c5.6,0,8.4,3.2,8.4,9.2c0,1.6-1.2,3.2-4,4.8c-6.4,3.6-14.8,7.6-25.2,12
			c-13.2,5.2-25.6,8.8-37.2,11.6c-1.6,0.4-3.2,0.8-4.8,0.8c-5.6,0-8.4-3.2-8.4-8.8c0-4.8,2-7.6,6.4-8.4c8-1.6,15.2-3.2,21.2-5.2V408
			h-15.6c-5.6,0-8.4-2.8-8.4-8s2.8-8.4,8.4-8.4H670v-60.8h-18.4c-5.2,0-7.6-2.4-7.6-7.6s2.4-7.6,7.6-7.6L707.6,314.8L707.6,314.8z
			 M733.2,343.6c5.2,0,7.6,2,7.6,6.4c0,1.6-0.4,3.2-0.4,5.2C736,384.8,730,412,722,436.8c-1.6,3.6-4,5.2-7.2,5.2
			c-5.6,0-8.8-2.8-8.8-8c0-1.6,0.4-3.2,1.6-4.8c8-25.2,14-52.4,18-81.2C727.2,345.2,729.6,343.6,733.2,343.6z M758,307.2
			c5.2,0,7.6,2.4,7.6,8v99.2c0,20.4-3.2,39.6-9.6,57.6c-5.6,15.6-13.6,29.2-23.6,40.8c-2.4,3.6-4.8,5.6-7.2,5.6
			c-6.8-0.4-10.4-3.6-10.8-9.6c0-1.6,1.2-3.2,2.8-5.2c13.6-16,22.8-32.4,27.6-49.6c3.6-13.2,5.6-26.4,5.6-39.6v-99.2
			C750.4,309.6,752.8,307.2,758,307.2z M844.4,314c5.2,0,7.6,2.4,7.6,7.6s-2.4,7.6-7.6,7.6h-23.2V400h19.6c5.6,0,8.4,2.8,8.4,8
			s-2.8,8.4-8.4,8.4h-19.6v76.4h25.6c5.6,0,8.4,2.8,8.4,8s-2.8,8.4-8.4,8.4h-69.2c-5.6,0-8.4-2.8-8.4-8.4s2.8-8,8.4-8h27.6v-76.4
			h-20c-5.6,0-8.4-2.8-8.4-8.4s2.8-8,8.4-8h20v-70.8h-20c-5.2,0-7.6-2.8-7.6-8s2.4-8,7.6-8L844.4,314L844.4,314z"/>
		<path fill="#FFFFF8" d="M1034,316c5.6,0,8,2.8,8,8.8c0,8-0.4,16-0.8,23.6h16.8v-35.2c0-5.2,2.4-7.6,8-7.6c5.2,0,8,2.4,8,7.6v35.2
			h16.4c5.2,0,8,2.8,8,8s-2.4,7.6-8,7.6H1074v52c4.4-2.8,8.8-6,13.6-9.6l3.2-1.2c4.4,0,7.2,2,8,6.4c0.8-0.4,2-0.4,3.2-0.4h82.4
			v-12.4c0-5.6,2.8-8.8,8.8-8.8s8.8,2.8,8.8,8.8v12.4h21.6c5.2,0,8,2.4,8,8c0,5.2-2.4,7.6-8,7.6H1202v66.4
			c0,15.6-8.4,23.6-25.2,23.6c-10.8,0-25.6-2-44-6.4c-4.8-1.6-7.2-4.4-7.2-8.8c0.4-6,3.2-8.8,8-9.2c1.6,0,4,0.4,7.2,0.8
			c18,4,30,5.6,35.6,5.6c5.2,0,8-3.2,8-9.6v-62.4H1102c-4,0-6.4-1.6-7.2-4.8c-5.6,4.8-12.4,9.6-20.4,14.4V510c0,5.2-2.4,7.6-8,7.6
			c-5.2,0-8-2.4-8-7.6v-65.6c-10,5.2-19.2,9.2-28.4,12.4c-1.6,0.8-3.2,1.2-4.8,1.2c-5.6,0-8.4-3.2-8.4-8.8c0-4.4,2-7.2,6.4-8.4
			c12.4-4.4,22.8-8.8,30.8-13.2c1.6-0.8,3.2-1.6,4.4-2.4V364H1040c-1.6,14-4,27.6-7.6,40.4c-0.8,5.2-4,7.6-9.6,7.6
			c-4.4,0-6.4-2.4-6.4-6.4c0-2,0.4-4,1.6-5.6c5.6-20.4,8.4-46,9.6-76.4C1027.6,318.4,1029.6,316,1034,316z M1220,330
			c5.2,0,8,2.8,8,8s-2.4,8-8,8h-50.4v24.4h40.4c5.2,0,8,2.4,8,7.6s-2.4,8-8,8h-96.8c-5.2,0-8-2.8-8-8s2.4-7.6,8-7.6h38.8V346h-48
			c-5.2,0-8-2.8-8-8s2.4-8,8-8h48v-16.4c0-6,2.8-8.8,8.8-8.8s8.8,2.8,8.8,8.8V330H1220z M1121.2,434.8c1.6,0,2.8,1.2,4.4,3.2
			c8,7.6,16,16,23.2,25.2c1.6,2,2,4,2,5.6c0,5.6-3.2,8-9.2,8c-1.6,0-3.2-0.8-4.8-2c-7.2-9.2-14.8-18.4-22.8-26.8
			c-1.6-2-2.4-3.6-2.4-4.4C1111.6,437.6,1114.8,434.8,1121.2,434.8z"/>
		<path fill="#FFFFF8" d="M1408.8,450v-69.2c0-3.2,0.4-6,1.6-8c-2,1.2-3.6,2-5.6,3.2s-4,2-5.6,2c-2,0-4-0.8-5.6-2.8
			c-1.6-1.6-2.4-4-2.4-6.4c0-2.8,1.6-4.8,5.2-6.8c8.8-5.2,16.4-10.4,23.2-15.6c6-4.8,11.6-10.4,16.4-16.4c4.4-5.2,9.6-12.4,15.6-22
			c1.6-2.4,3.2-3.6,5.6-3.6s4.4,0.8,6.4,2.4c1.6,1.6,2.4,3.6,2.4,6s-0.8,4.8-2.4,6.4c-1.6,2.4-3.2,4.8-4.4,6.4h75.6
			c10.4,0,15.6,4.4,15.6,13.2c0,0.8-4,10-12,27.6h40c8.4,0,12.8,4.4,12.8,12.8V436c0,8.4-4.4,12.8-12.8,12.8h-154v34.4
			c0,6.4,4.8,10.4,14.4,12.4c14,2,38.8,2.8,74.4,2.8c26,0,44-0.4,55.2-1.6c6.8-0.4,11.2-1.6,13.2-4c3.2-2,4.4-9.2,4.4-21.2
			c0.4-5.2,3.2-8,8-8.4c5.2,0.4,8,4,8,10.8c0,6-0.8,12.4-2.4,18.4c-2,8.4-7.6,14-16.8,17.6c-8,3.2-29.2,4.8-63.6,4.8
			c-45.6,0-75.6-1.6-89.2-4.8c-14.8-4.4-22-12-22-23.6L1408.8,450L1408.8,450z M1521.6,366.4c6.4-13.6,9.6-20.8,9.6-21.2
			c0-2.4-2-4-5.6-4H1448c-0.4,0.4-0.4,0.8-0.8,1.2c-5.2,6.4-11.2,12-17.6,17.2c-3.2,2.4-6.4,4.8-9.6,6.8c1.2,0,2,0,3.6,0H1521.6
			L1521.6,366.4z M1488,382.8h-56.4c-4.4,0-6.4,2-6.4,6.4V432h62.8V382.8z M1558.4,382.8h-54V432h67.6c2.4,0,3.6-1.2,3.6-3.6v-42
			c0-2.4-1.2-3.6-3.6-3.6H1558.4L1558.4,382.8z"/>
	</g>
</g>
</svg>
