<?xml version="1.0" encoding="utf-8"?>
<!-- Generator: Adobe Illustrator 18.0.0, SVG Export Plug-In . SVG Version: 6.00 Build 0)  -->
<!DOCTYPE svg PUBLIC "-//W3C//DTD SVG 1.1//EN" "http://www.w3.org/Graphics/SVG/1.1/DTD/svg11.dtd">
<svg version="1.1" id="Layer_1" xmlns="http://www.w3.org/2000/svg" xmlns:xlink="http://www.w3.org/1999/xlink" x="0px" y="0px"
	 viewBox="0 0 1920 918" enable-background="new 0 0 1920 918" xml:space="preserve">
<g>
	<path fill="#FFFFFF" d="M1652.6,666.4H267.4C153.3,666.4,60,573,60,459v0c0-114,93.3-207.4,207.4-207.4h1385.3
		c114,0,207.4,93.3,207.4,207.4v0C1860,573,1766.7,666.4,1652.6,666.4z"/>
</g>
<g>
	<path fill="#2D3039" d="M726.4,531.3c0,5.6-3.3,8.4-9.8,8.4h-42.9c-6.2,2.3-12.8,3.4-19.6,3.4c-22.5,0-39.6-7.6-51.3-22.8
		c-10.6-13.5-16-31.3-16-53.4c0-22.7,5.2-40.8,15.7-54.5c11.7-15.2,28.9-22.8,51.6-22.8c22.4,0,39.5,7.7,51.3,23
		c10.8,13.7,16.2,31.9,16.2,54.5c0,22.5-7.1,41.2-21.4,56.1h16.4C723.1,523.3,726.4,526,726.4,531.3z M703.4,467.2
		c0-17.2-3.9-31.3-11.6-42.4c-8.8-12.5-21.4-18.7-37.6-18.7c-16.4,0-29,6.2-37.6,18.5c-7.8,10.9-11.6,25-11.6,42.2
		c0,16.7,3.9,30.5,11.6,41.3c8.8,12.3,21.4,18.5,37.6,18.5c16.3,0,28.9-6.1,37.9-18.2C699.6,497.6,703.4,483.9,703.4,467.2z"/>
	<path fill="#2D3039" d="M1011.6,530.9c0,5.6-2.5,8.4-7.5,8.4c-2.1,0-4.9-1.5-8.2-4.6l-13.5-12.1c-13.8,13.8-30.5,20.8-50,20.8
		c-13.8,0-25.6-3.4-35.4-10.3c-10.9-7.8-16.4-18.1-16.4-31c0-18.1,9.6-31.8,28.7-41.1l4.8-2.3c-6.7-6.1-11.3-11-13.9-14.8
		c-4.3-5.8-6.4-12-6.4-18.7c0-11.3,4-20.1,12.1-26.7c7.3-6.1,16.7-9.1,28.1-9.1c11.1,0,20.4,2.8,27.8,8.4
		c8.4,6.2,12.5,14.8,12.5,25.5c0,9.9-3.3,18-10,24.4c-4.7,4.6-12.4,9.1-23,13.7l38.3,36.7c3.5-7.3,6.8-19.3,10-36
		c0.9-5.5,3-8.2,6.4-8.2c6.2,0,9.4,3.3,9.4,10c0,5.3-1.6,13.1-4.8,23.3c-2.7,9.3-5.7,16.7-8.9,22.4
		C1005,521.7,1011.6,528.7,1011.6,530.9z M971,511.7l-45.2-43.1c-9,4.4-15.4,8.5-19.4,12.3c-6.1,5.9-9.1,13-9.1,21.2
		s4,14.7,11.9,19.4c6.8,4.1,14.6,6.2,23.3,6.2C949.7,527.7,962.5,522.3,971,511.7z M957.8,423.4c0-6.2-2.5-10.9-7.5-14.1
		c-4.3-3-9.7-4.6-16.2-4.6c-6.8,0-12.3,1.8-16.4,5.2c-4.9,3.6-7.3,8.7-7.3,15.3c0,4.1,2.4,8.9,7.3,14.4c1.8,2,5.9,5.9,12.3,11.9
		c10.9-5.5,17.2-8.7,18.7-9.8C954.8,437.1,957.8,431,957.8,423.4z"/>
	<path fill="#2D3039" d="M1308.7,535.9c0,1.8-0.7,3.4-2.1,4.8c-1.4,1.7-3,2.5-5,2.5c-4.3,0-7.2-1.9-8.9-5.7l-18.5-39.2H1199
		l-18.2,39.5c-1.7,3.6-4.6,5.5-8.9,5.5c-4.9,0-7.3-2.4-7.3-7.3c0-3.2,0.6-6,1.8-8.4l63-131.8c1.8-4,4.3-5.9,7.3-5.9
		c3,0,5.5,2,7.5,5.9l62.7,131.8C1308.1,529.9,1308.7,532.7,1308.7,535.9z M1266.5,481.4l-29.9-64.3l-29.7,64.3H1266.5z"/>
</g>
</svg>
