<?xml version="1.0" encoding="utf-8"?>
<!-- Generator: Adobe Illustrator 18.0.0, SVG Export Plug-In . SVG Version: 6.00 Build 0)  -->
<!DOCTYPE svg PUBLIC "-//W3C//DTD SVG 1.1//EN" "http://www.w3.org/Graphics/SVG/1.1/DTD/svg11.dtd">
<svg version="1.1" id="Layer_1" xmlns="http://www.w3.org/2000/svg" xmlns:xlink="http://www.w3.org/1999/xlink" x="0px" y="0px"
	 viewBox="0 0 1920 918" enable-background="new 0 0 1920 918" xml:space="preserve">
<g id="head_x5F_1">
	<g>
		<path fill="#FFFFFF" d="M1652.6,666.4H267.4C153.3,666.4,60,573,60,459v0c0-114,93.3-207.4,207.4-207.4h1385.3
			c114,0,207.4,93.3,207.4,207.4v0C1860,573,1766.7,666.4,1652.6,666.4z"/>
	</g>
	<g>
		<path fill="#2D3039" d="M365.2,402.9c5.2,0,7.8,2.6,7.8,7.8c0,5.2-2.6,7.8-7.8,7.8h-64.8c-5.2,0-7.8-2.6-7.8-7.8
			c0-5.2,2.6-7.8,7.8-7.8H365.2z M314.1,499.2h38.3c9.4,0,14.1,4.6,14.1,13.7v45.6c0,9.1-4.7,13.7-14.1,13.7h-38.3
			c-9.4,0-14.1-4.6-14.1-13.7v-45.6C300,503.7,304.7,499.2,314.1,499.2z M358.9,434.4c4.9,0,7.3,2.4,7.3,7.3c0,4.9-2.4,7.3-7.3,7.3
			h-51.1c-4.9,0-7.3-2.4-7.3-7.3c0-4.9,2.4-7.3,7.3-7.3H358.9z M358.9,468.1c4.9,0,7.3,2.4,7.3,7.3c0,4.9-2.4,7.3-7.3,7.3h-51.1
			c-4.9,0-7.3-2.4-7.3-7.3c0-4.9,2.4-7.3,7.3-7.3H358.9z M357,371.4c4.9,0,7.3,2.4,7.3,7.3c0,4.9-2.4,7.3-7.3,7.3h-48.4
			c-4.9,0-7.3-2.4-7.3-7.3c0-4.9,2.4-7.3,7.3-7.3H357z M346.1,557.6c3.3,0,5-1.8,5-5.5v-32.8c0-3.7-1.7-5.5-5-5.5h-25.5
			c-3.3,0-5,1.8-5,5.5v32.8c0,3.7,1.7,5.5,5,5.5H346.1z M397.2,371h83.9c10.3,0,15.5,5,15.5,15.1v55.7c0,10-5.2,15.1-15.5,15.1
			h-34.2v16.9h52.5c5.5,0,8.2,2.7,8.2,8.2s-2.7,8.2-8.2,8.2h-49.5c9.4,14.3,18.5,26.2,27.1,35.8c6.7,7.8,15.7,15.7,27.1,23.7
			c2.9,2,4.3,4.6,4.3,7.8c-0.3,5.9-3.4,9-9.4,9.4c-1.8,0-3.9-0.8-6.2-2.3c-7.6-5.9-15-12.9-22.1-20.8c-7.6-8.5-15.6-19.1-24-31.7
			v56.1c0,5.2-2.6,7.8-7.8,7.8c-5.2,0-7.8-2.6-7.8-7.8v-55c-11.7,19.5-25.8,36.8-42.2,52c-2.3,1.7-4.7,2.5-7.3,2.5
			c-5.9-0.3-9-3.7-9.4-10.3c0-1.8,1.3-3.9,3.9-6.2c11.1-9,19.8-17.1,26.2-24.4c7.6-8.7,16-20.9,25.3-36.7h-50
			c-5.5,0-8.2-2.7-8.2-8.2s2.7-8.2,8.2-8.2h53.4v-16.9h-34.2c-10.3,0-15.5-5-15.5-15.1V386C381.7,376,386.8,371,397.2,371z
			 M398.1,406.1h33.3v-19.6h-28.7c-3,0-4.6,1.7-4.6,5V406.1z M431.4,441.2v-20.5h-33.3v15.5c0,3.3,1.5,5,4.6,5H431.4z M446.9,386.5
			v19.6h33.3v-14.6c0-3.3-1.5-5-4.6-5H446.9z M475.7,441.2c3,0,4.6-1.7,4.6-5v-15.5h-33.3v20.5H475.7z"/>
		<path fill="#2D3039" d="M732.6,365.5c5.5,0,8.2,3.2,8.2,9.6c0,4.4-3.5,7.1-10.5,8c-4.3,1.5-9.6,2.8-16,3.9v37.4h18.2
			c5.5,0,8.2,2.7,8.2,8.2c0,5.5-2.7,8.2-8.2,8.2h-18.2v3.6l24.4,40.8c1.4,2.6,2.1,4.9,2.1,6.8c0,5.3-2.8,8-8.4,8
			c-2.4,0-4.3-1.5-5.5-4.6l-12.5-26.5v100.4c0,5.5-2.7,8.2-8.2,8.2s-8.2-2.7-8.2-8.2v-93.1c-3.5,11.3-6.8,20.2-9.8,26.7
			c-4,9.7-7.4,16.7-10.3,21c-1.8,3.5-4.3,5.2-7.3,5.2c-5.5,0-8.2-2.7-8.2-8c0-2,0.8-4.1,2.3-6.4c10.2-18.6,17.4-33.9,21.7-46.1
			c3.2-8.1,5.9-17.4,8.2-28.1H676c-5.5,0-8.2-2.7-8.2-8.2c0-5.5,2.7-8.2,8.2-8.2h21.9v-34.4c-8.2,1.2-14.1,1.8-17.6,1.8
			c-6.5,0-9.8-3.1-9.8-9.4c0-5.2,2.7-7.8,8.2-7.8c9.4-0.3,18.1-1,26-2.1C714.8,371.2,724.1,368.8,732.6,365.5z M854.4,445.1
			c5.8,0,8.7,3.4,8.7,10.3c0,4.6-3.6,7.4-10.9,8.4c-10.3,2.7-23.9,5.1-40.6,7.1v33.3h48.8c5.2,0,7.8,2.6,7.8,7.8
			c0,5.2-2.6,7.8-7.8,7.8h-48.8v34.2h57.9c5.5,0,8.2,2.7,8.2,8.2s-2.7,8.2-8.2,8.2H743.5c-5.5,0-8.2-2.7-8.2-8.2s2.7-8.2,8.2-8.2
			h50.6v-34.2h-42.4c-5.2,0-7.8-2.6-7.8-7.8c0-5.2,2.6-7.8,7.8-7.8h42.4v-31.3c-18.6,2.1-31.6,3.2-39.2,3.2c-7,0-10.5-3.3-10.5-9.8
			c0-5.5,2.9-8.2,8.7-8.2c17.6-0.3,34-1.3,49-3C820.9,453.2,838.3,449.8,854.4,445.1z M762.7,371.9h87.6c8.5,0,12.8,4.1,12.8,12.3
			v36.5c0,8.2-4.3,12.3-12.8,12.3h-87.6c-8.5,0-12.8-4.1-12.8-12.3v-36.5C749.9,376,754.2,371.9,762.7,371.9z M841.2,417.5
			c3.6,0,5.5-2,5.5-5.9v-18.2c0-4-1.8-5.9-5.5-5.9h-69.3c-3.6,0-5.5,2-5.5,5.9v18.2c0,4,1.8,5.9,5.5,5.9H841.2z"/>
		<path fill="#2D3039" d="M1145.6,366.9c5.3,0,11.8,4.3,19.4,13c9.9,11.1,21.2,21.4,34,30.8c11.9,8.2,27.7,16.2,47.4,24
			c3.3,2.1,5,4.6,5,7.5c-0.3,7.3-3.9,11.1-10.7,11.4c-2,0-4.3-0.5-6.8-1.4c-20.4-10.3-34.8-18.6-43.3-24.6
			c-13.1-10-25.7-21.8-37.9-35.4c-2.3-2.9-4.4-4.3-6.4-4.3c-1.5,0-2.9,0.8-4.1,2.5c-13.5,16.4-28.2,30-44,40.6
			c-12,8.7-26.2,16.7-42.4,24c-1.8,1.1-3.7,1.6-5.7,1.6c-5.9-0.5-9-4.1-9.4-10.9c0.1-3.5,2-6.2,5.5-8.2
			c19.2-7.9,35.3-16.5,48.4-25.8c13.7-9.3,26.3-21.4,37.9-36.5C1136.6,369.6,1141,366.9,1145.6,366.9z M1102.7,440.8
			c5.5,0,8.2,2.9,8.2,8.7v35.8c0,17.9-3.3,34.8-9.8,50.4c-5.5,13.4-13.2,25.2-23.3,35.6c-2.3,3.7-4.7,5.5-7.3,5.5
			c-6.8-0.3-10.4-3.5-10.7-9.6c0.1-1.5,1.1-3.2,2.7-5c12.9-13.7,21.7-27.8,26.5-42.4c3.6-11.4,5.5-22.9,5.5-34.4v-35.8
			C1094.5,443.7,1097.2,440.8,1102.7,440.8z M1187.5,439.4c5.8,0,8.7,2.9,8.7,8.7v120.4c0,5.8-2.9,8.7-8.7,8.7
			c-5.8,0-8.7-2.9-8.7-8.7V448.1C1178.9,442.3,1181.8,439.4,1187.5,439.4z"/>
		<path fill="#2D3039" d="M1454.5,363.2c2.7,0,5.1,0.8,7.1,2.3c2.1,1.5,3.2,3.3,3.2,5.5c0,1.4-0.3,3-0.9,4.8
			c-7.3,14.9-15.6,27.8-24.9,38.8c0.3,0.3,0.5,0.5,0.7,0.7c5.6,4.1,10.6,8.8,15.1,14.1c7.6-11.4,14.4-23.1,20.5-35.1
			c1.8-2.4,4.2-3.6,7.1-3.6c1.8,0,3.7,0.8,5.5,2.3c1.5,1.7,2.3,3.5,2.3,5.5c0,1.8-0.6,3.6-1.8,5.2c-7.9,14.4-16.6,28.3-26,41.5
			c-5,7-10.6,13.8-16.9,20.3c11.3-0.5,21.7-1.4,31.3-2.7c-1.4-3.3-2.6-6.2-3.7-8.7c-1.2-1.7-1.8-3-1.8-4.1c0-4.3,2.7-6.4,8-6.4
			c1.8,0,3.6,1.3,5.2,3.9c5,9,9.3,19,12.8,30.1c0.8,2,1.1,3.9,1.1,5.7c0,4.6-3,6.8-9.1,6.8c-2.7,0-4.8-1.9-6.2-5.7
			c-0.6-2.7-1.2-5.2-1.8-7.3h-0.5c-5.6,0.9-11,1.7-16.2,2.3v91c0,5.5-2.7,8.2-8.2,8.2c-5.5,0-8.2-2.7-8.2-8.2v-89
			c-10,1.1-19.8,2-29.4,2.7c-5.3,0-8-3.2-8-9.6c0-5,2.6-7.6,7.8-7.8c2.6,0,4.9-0.1,7.1-0.2c7.9-8.4,14.7-16.6,20.3-24.6
			c-0.6-0.5-1.1-0.8-1.4-1.1c-6.2-6.1-11.5-10.9-15.7-14.4c-3.6-2.9-7.8-5.9-12.3-8.9c-2-2.1-3-4.2-3-6.2c0-5.3,2.6-8,7.8-8
			c1.5,0,3.3,0.6,5.5,1.8l0.7,0.2c6.7-9.9,13.3-22.3,19.8-37.2C1448.3,364.9,1450.7,363.2,1454.5,363.2z M1430.8,494.6
			c5,0,7.5,2.2,7.5,6.6c0,1.5-0.2,3.3-0.5,5.2c-2.6,20.7-6.3,39.7-11.2,57c-1.4,3.3-3.6,5-6.8,5c-5.8,0-8.7-2.6-8.7-7.8
			c0-1.7,0.6-3.3,1.8-4.8c4.7-17.5,8.3-36.2,10.7-56.1C1424.5,496.4,1426.8,494.6,1430.8,494.6z M1481,495.5c3.2,0,5.5,1.4,7.1,4.3
			c2,8.2,4.1,21.6,6.4,40.1c0.5,3.5,0.7,6,0.7,7.5c0,4.9-2.6,7.3-7.8,7.3c-4.6,0-7-2.3-7.3-6.8c-1.4-16.9-3.2-31.1-5.5-42.7
			l-0.5-3.7C1474.1,497.6,1476.4,495.5,1481,495.5z M1511.1,373.7h91.7c10.9,0,16.4,6.3,16.4,18.9c0,17.2-0.6,32.8-1.8,46.8
			c-1.1,12.5-3.4,20.6-7.1,24.4c-4,4.1-9.7,6.2-17.1,6.2c-8.8,0-18.6-0.9-29.2-2.7c-4.3-2.1-6.4-4.9-6.4-8.4c0-6.5,3.1-9.8,9.4-9.8
			c10.8,2.1,19,3.2,24.6,3.2c3.2,0,5.5-1.4,6.8-4.3c1.4-2.9,2.3-8.4,2.7-16.4c0.5-9,0.7-19.8,0.7-32.4c0-6.5-2.8-9.8-8.4-9.8h-35.4
			v1.4c-2.3,22.5-7.2,39.2-14.8,50c-8.2,11.9-18.2,21.7-30.1,29.4c-1.8,1.8-4,2.7-6.4,2.7c-5.6,0-8.4-3-8.4-8.9c0-1.5,1.1-3.2,3.2-5
			c12-9,21.1-17.9,27.1-26.7c6.4-9,10.6-23.3,12.5-42.9h-30.1c-5.8,0-8.7-2.6-8.7-7.8C1502.4,376.3,1505.3,373.7,1511.1,373.7z
			 M1527.5,479.5h73c10.6,0,16,5,16,15.1v61.1c0,10-5.3,15.1-16,15.1h-73c-10.6,0-16-5-16-15.1v-61.1
			C1511.6,484.6,1516.9,479.5,1527.5,479.5z M1593.2,555.3c4,0,5.9-2.3,5.9-6.8v-46.5c0-4.6-2-6.8-5.9-6.8h-58.4
			c-4,0-5.9,2.3-5.9,6.8v46.5c0,4.6,2,6.8,5.9,6.8H1593.2z"/>
	</g>
</g>
</svg>
