<?xml version="1.0" encoding="utf-8"?>
<!-- Generator: Adobe Illustrator 18.0.0, SVG Export Plug-In . SVG Version: 6.00 Build 0)  -->
<!DOCTYPE svg PUBLIC "-//W3C//DTD SVG 1.1//EN" "http://www.w3.org/Graphics/SVG/1.1/DTD/svg11.dtd">
<svg version="1.1" id="Layer_1" xmlns="http://www.w3.org/2000/svg" xmlns:xlink="http://www.w3.org/1999/xlink" x="0px" y="0px"
	 viewBox="0 0 1920 918" enable-background="new 0 0 1920 918" xml:space="preserve">
<g id="head_x5F_1_1_">
	<g>
		<path fill="#FFFFFF" d="M1652.6,666.4H267.4C153.3,666.4,60,573,60,459v0c0-114,93.3-207.4,207.4-207.4h1385.3
			c114,0,207.4,93.3,207.4,207.4v0C1860,573,1766.7,666.4,1652.6,666.4z"/>
	</g>
	<g>
		<path fill="#2D3039" d="M471.8,390.6c5.5,0,8.2,2.7,8.2,8.2s-2.7,8.2-8.2,8.2h-88.1v1.8c12.9,19.8,26.7,36.6,41.3,50.4
			c21,19.9,39.4,35.1,55.2,45.4c4.1,2,6.2,5,6.2,9.1c0,2.1-0.7,4.1-2.1,5.9c-1.8,2.3-4.1,3.4-6.8,3.4c-3.5,0-6.8-1.2-9.8-3.6
			c-15.4-12-30-24.8-44-38.3c-13.5-13.2-26.8-28.7-39.9-46.3v80.8H439c5.5,0,8.2,2.7,8.2,8.2s-2.7,8.2-8.2,8.2h-55.2v35.6
			c0,5.8-2.9,8.7-8.7,8.7c-5.8,0-8.7-2.9-8.7-8.7V532h-51.6c-5.5,0-8.2-2.7-8.2-8.2s2.7-8.2,8.2-8.2h51.6v-80.1
			c-20.2,27.5-46.7,55.4-79.4,83.5c-5.6,4.4-10,6.6-13,6.6c-6.8,0-10.3-2.8-10.3-8.4c0-1.5,0.9-3.2,2.7-5c28.4-23,50.3-43,65.5-60.2
			c12.8-14,24.2-29,34.2-44.9h-87.8c-5.5,0-8.2-2.7-8.2-8.2s2.7-8.2,8.2-8.2h88.1v-17.3c0-5.8,2.9-8.7,8.7-8.7
			c5.8,0,8.7,2.9,8.7,8.7v17.3H471.8z"/>
		<path fill="#2D3039" d="M707.8,373.7c5.2,0,7.8,2.6,7.8,7.8c0,5.2-2.6,7.8-7.8,7.8h-21v60.7h15.5c5.5,0,8.2,2.7,8.2,8.2
			s-2.7,8.2-8.2,8.2h-15.5v65.5c6.7-2.3,14.7-5.5,24-9.6l3.2-1.1c5.6,0,8.4,3,8.4,9.1c0,1.5-1.3,3.1-3.9,4.8
			c-6.4,3.8-14.8,7.8-25.3,11.9c-13.1,5-25.4,8.9-37,11.6c-1.7,0.6-3.3,0.9-4.8,0.9c-5.6,0-8.4-3-8.4-8.9c0-4.6,2.1-7.4,6.4-8.4
			c8.1-1.7,15.1-3.3,21-5v-70.7h-15.5c-5.6,0-8.4-2.7-8.4-8.2s2.8-8.2,8.4-8.2h15.5v-60.7h-18.2c-5.2,0-7.8-2.6-7.8-7.8
			c0-5.2,2.6-7.8,7.8-7.8H707.8z M733.3,402.4c5,0,7.5,2.2,7.5,6.6c0,1.5-0.2,3.3-0.5,5.2c-4.4,29.7-10.5,56.8-18.2,81.4
			c-1.5,3.5-3.9,5.2-7.1,5.2c-5.8,0-8.7-2.6-8.7-7.8c0-1.7,0.6-3.3,1.8-4.8c7.9-25.2,13.9-52.2,18-81
			C727,404.1,729.4,402.4,733.3,402.4z M758,366c5.2,0,7.8,2.6,7.8,7.8v99c0,20.5-3.3,39.8-9.8,57.7c-5.8,15.4-13.7,29-23.7,40.8
			c-2.3,3.7-4.7,5.5-7.3,5.5c-6.8-0.3-10.4-3.5-10.7-9.6c0.1-1.5,1.1-3.2,2.7-5c13.5-16,22.7-32.5,27.6-49.7
			c3.8-13.2,5.7-26.5,5.7-39.7v-99C750.2,368.5,752.8,366,758,366z M844.6,372.8c5.2,0,7.8,2.6,7.8,7.8c0,5.2-2.6,7.8-7.8,7.8h-23
			V459H841c5.5,0,8.2,2.7,8.2,8.2s-2.7,8.2-8.2,8.2h-19.4v76.6h25.8c5.5,0,8.2,2.7,8.2,8.2s-2.7,8.2-8.2,8.2H778
			c-5.5,0-8.2-2.7-8.2-8.2s2.7-8.2,8.2-8.2h27.4v-76.6h-20.1c-5.5,0-8.2-2.7-8.2-8.2s2.7-8.2,8.2-8.2h20.1v-70.7h-20.1
			c-5.2,0-7.8-2.6-7.8-7.8c0-5.2,2.6-7.8,7.8-7.8H844.6z"/>
		<path fill="#2D3039" d="M1034.1,375.1c5.5,0,8.2,2.9,8.2,8.7c0,8.2-0.3,16.1-0.9,23.7h16.9v-35.1c0-5.2,2.6-7.8,7.8-7.8
			c5.2,0,7.8,2.6,7.8,7.8v35.1h16.4c5.2,0,7.8,2.6,7.8,7.8c0,5.2-2.6,7.8-7.8,7.8h-16.4v52c4.4-2.7,8.9-5.9,13.5-9.4l3.2-1.1
			c4.6,0,7.3,2.1,8.2,6.4c0.9-0.3,1.9-0.5,3-0.5h82.6v-12.3c0-5.8,2.9-8.7,8.7-8.7c5.8,0,8.7,2.9,8.7,8.7v12.3h21.4
			c5.2,0,7.8,2.6,7.8,7.8c0,5.2-2.6,7.8-7.8,7.8h-21.4v66.4c0,15.7-8.4,23.5-25.1,23.5c-10.9,0-25.5-2.1-43.8-6.4
			c-4.7-1.5-7.1-4.5-7.1-8.9c0.3-5.8,3-8.8,8-9.1c1.7,0,4.1,0.3,7.3,0.9c18.2,3.8,30.1,5.7,35.6,5.7c5.2,0,7.8-3.2,7.8-9.6v-62.5
			h-82.6c-4.1,0-6.5-1.5-7.3-4.6c-5.5,4.6-12.3,9.4-20.5,14.4v73.7c0,5.2-2.6,7.8-7.8,7.8c-5.2,0-7.8-2.6-7.8-7.8V504
			c-9.9,5-19.3,9.1-28.3,12.3c-1.7,0.8-3.3,1.1-4.8,1.1c-5.6,0-8.4-3-8.4-8.9c0-4.4,2.1-7.2,6.4-8.4c12.6-4.4,22.9-8.7,30.8-13
			c1.5-0.8,3-1.6,4.3-2.5V423H1040c-1.7,14-4.2,27.5-7.5,40.4c-0.9,5-4,7.5-9.4,7.5c-4.4,0-6.6-2.2-6.6-6.6c0-2.1,0.5-4,1.4-5.7
			c5.5-20.4,8.6-45.9,9.4-76.6C1027.4,377.4,1029.6,375.1,1034.1,375.1z M1220.2,389.2c5.2,0,7.8,2.6,7.8,7.8c0,5.2-2.6,7.8-7.8,7.8
			h-50.6v24.6h40.6c5.2,0,7.8,2.6,7.8,7.8c0,5.2-2.6,7.8-7.8,7.8h-96.7c-5.2,0-7.8-2.6-7.8-7.8c0-5.2,2.6-7.8,7.8-7.8h38.8v-24.6
			h-47.9c-5.2,0-7.8-2.6-7.8-7.8c0-5.2,2.6-7.8,7.8-7.8h47.9v-16.4c0-5.8,2.9-8.7,8.7-8.7c5.8,0,8.7,2.9,8.7,8.7v16.4H1220.2z
			 M1121,493.7c1.4,0,2.9,1,4.6,3c8.2,7.5,16,15.9,23.3,25.3c1.4,2.1,2.1,4,2.1,5.5c0,5.5-3,8.2-9.1,8.2c-1.5,0-3.1-0.7-4.8-2.1
			c-7.1-9.3-14.8-18.2-22.8-26.9c-1.7-2.1-2.5-3.6-2.5-4.6C1111.6,496.5,1114.7,493.7,1121,493.7z"/>
		<path fill="#2D3039" d="M1408.7,509.2v-69.3c0-3.3,0.5-6,1.6-8c-1.8,1.1-3.6,2.1-5.5,3.2c-2,1.4-3.9,2.1-5.7,2.1
			c-2.1,0-4-0.9-5.5-2.7c-1.5-1.8-2.3-4-2.3-6.4c0-2.6,1.7-4.9,5.2-6.8c8.8-5.2,16.5-10.4,23-15.7c6.1-4.7,11.6-10.2,16.4-16.4
			c4.6-5.2,9.7-12.5,15.5-22.1c1.4-2.4,3.3-3.6,5.7-3.6c2.4,0,4.6,0.8,6.4,2.5c1.7,1.7,2.5,3.6,2.5,5.9c0,2.6-0.8,4.7-2.3,6.4
			c-1.5,2.6-3,4.8-4.3,6.6h75.7c10.5,0,15.7,4.3,15.7,13c0,0.9-4,10.1-11.9,27.6h40.1c8.5,0,12.8,4.3,12.8,12.8v56.6
			c0,8.5-4.3,12.8-12.8,12.8h-154.2v34.2c0,6.5,4.8,10.6,14.4,12.3c14,1.8,38.8,2.7,74.4,2.7c25.9,0,44.2-0.5,55-1.6
			c6.7-0.3,11.1-1.6,13.2-3.9c3-2,4.6-9,4.6-21c0.3-5.2,3-7.9,8.2-8.2c5.2,0.5,7.9,4,8.2,10.7c0,6.1-0.8,12.2-2.5,18.2
			c-2,8.4-7.6,14.2-16.9,17.6c-8.1,3.2-29.3,4.8-63.6,4.8c-45.6,0-75.4-1.6-89.2-4.8c-14.8-4.3-22.1-12.1-22.1-23.5V509.2z
			 M1521.4,425.3c6.4-13.7,9.6-20.8,9.6-21.2c0-2.6-1.8-3.9-5.5-3.9h-77.3c-0.3,0.5-0.6,0.8-0.9,1.1c-5.3,6.4-11.2,12.2-17.6,17.3
			c-3.2,2.4-6.4,4.7-9.6,6.8c1.1-0.1,2.2-0.2,3.4-0.2H1521.4z M1488.1,441.7h-56.6c-4.3,0-6.4,2.1-6.4,6.4V491h63V441.7z
			 M1558.4,441.7h-53.8V491h67.5c2.4,0,3.7-1.2,3.7-3.6v-42c0-2.4-1.2-3.6-3.7-3.6H1558.4z"/>
	</g>
</g>
</svg>
