<?xml version="1.0" encoding="utf-8"?>
<!-- Generator: Adobe Illustrator 18.0.0, SVG Export Plug-In . SVG Version: 6.00 Build 0)  -->
<!DOCTYPE svg PUBLIC "-//W3C//DTD SVG 1.1//EN" "http://www.w3.org/Graphics/SVG/1.1/DTD/svg11.dtd">
<svg version="1.1" id="Layer_1" xmlns="http://www.w3.org/2000/svg" xmlns:xlink="http://www.w3.org/1999/xlink" x="0px" y="0px"
	 viewBox="0 320 480 480" enable-background="new 0 320 480 480" xml:space="preserve">
<rect x="112.5" y="393.2" display="none" fill="#FFB229" width="254.9" height="267.7"/>
<g id="國際觀">
	<g>
		<path fill="#3A3634" d="M20,747.7c1.8,0,3,0.9,3,2.7s-0.9,2.7-3,2.7h-5.7v27.3c1.6-0.9,3.4-2.3,5.5-3.6l1.1-0.5
			c2,0,3.2,1.1,3.2,3.4c0,0.7-0.5,1.4-1.1,2c-2,1.6-4.3,3.4-7.5,5.2c-3.9,2.3-7.5,3.9-10.9,5.2c-0.7,0.2-0.9,0.5-1.4,0.5
			c-2,0-3.2-1.1-3.2-3.2c0-1.6,0.9-2.5,2.5-3.2c2.5-0.9,4.8-1.8,6.6-2.7v-30.2H3.2c-1.8,0-2.7-0.9-2.7-2.7s0.9-2.7,2.7-2.7h5.9V732
			c0-1.8,0.9-2.7,2.7-2.7s2.7,0.9,2.7,2.7v15.9L20,747.7L20,747.7z M60,742c0.9,0,1.4,0.2,2,0.9c0.7,0.7,0.9,1.4,0.9,2
			s-0.2,1.4-0.9,2c-1.4,2.7-2.5,5.5-4.1,8c-0.7,1.4-1.6,2.5-2.5,3.4h12.1c1.8,0,2.5,0.9,2.5,2.7s-0.9,2.5-2.5,2.5H23.6
			c-1.8,0-2.5-0.9-2.5-2.5c0-1.8,0.9-2.7,2.5-2.7h25.2c1.4-1.8,2.5-3.2,3.2-4.8c1.8-3.2,3.6-6.4,5-9.8C58.2,742.5,59.1,742,60,742z
			 M45.5,727.9c2,0,3.2,0.9,3.2,3v4.5h17.3c1.8,0,2.5,0.9,2.5,2.5s-0.9,2.5-2.5,2.5H26.6c-1.8,0-2.5-0.9-2.5-2.5s0.9-2.5,2.5-2.5
			h15.9v-4.5C42.5,728.8,43.4,727.9,45.5,727.9z M31.8,770.4h28.9c3.2,0,5,1.6,5,4.8v18.9c0,3.2-1.6,4.8-5,4.8H31.8
			c-3.2,0-5-1.6-5-4.8v-18.9C27.1,772,28.6,770.4,31.8,770.4z M32.3,742c0.9,0,1.4,0.5,2,1.6c1.4,2.7,2.7,5.9,3.6,9.3
			c0.2,0.7,0.5,1.4,0.5,1.8c0,1.6-0.9,2.3-3.2,2.3c-0.9,0-1.6-0.7-2-2c-1.1-3.9-2.3-6.8-3.4-8.9c-0.5-0.7-0.9-1.1-0.9-1.6
			C29.1,742.7,30.2,742,32.3,742z M58,793.4c1.4,0,2-0.9,2-2.3v-13.2c0-1.6-0.7-2.3-2-2.3H34.6c-1.4,0-2,0.9-2,2.3v13.2
			c0,1.6,0.7,2.3,2,2.3H58z"/>
		<path fill="#3A3634" d="M123.2,727.2c0.5,0,0.9,0.2,1.6,1.1c1.4,0.9,2.5,2,3.6,3.2c0.5,0.7,0.7,1.1,0.7,1.8v0.5h15.7
			c0.2-0.2,0.5-0.7,0.9-0.9c1.1-1.4,2-3,3-4.3c0.7-0.9,1.4-1.4,2.5-1.4c0.7,0,1.4,0.2,2,0.9c0.7,0.7,0.9,1.1,0.9,1.8s-0.2,1.4-0.7,2
			c-0.5,0.7-0.9,1.4-1.6,2h15.7c1.6,0,2.3,0.7,2.3,2.3s-0.9,2.3-2.3,2.3h-27.3v3.4h24.1c1.4,0,2,0.7,2,2.3s-0.7,2-2,2h-24.1v3.9
			h30.9c1.6,0,2.3,0.9,2.3,2.3c0,1.4-0.9,2.3-2.3,2.3h-16.6c2,2,4.1,3.6,5.9,5c3.2,2.3,7.3,4.1,11.8,6.1c0.9,0.5,1.6,1.1,1.6,2
			c0,2-0.9,3.2-2.7,3.2c-0.9,0-1.8-0.2-3-0.9c-5.9-2.7-10.5-5.7-13.6-8.6c-2.3-2.3-4.3-4.5-5.7-6.6h-23.4c0,0.2-0.2,0.2-0.2,0.5
			c-2.3,3.4-5,6.4-8.2,8.6c-3,2.3-6.8,4.5-11.8,6.6c-0.7,0.2-0.9,0.2-1.4,0.2c-1.6,0-2.5-0.9-2.5-2.5c0-0.7,0.5-1.4,1.4-2
			c5.5-2,9.8-4.1,12.3-6.4c1.8-1.4,3.4-3,5-5h-16.8c-1.6,0-2.3-0.9-2.3-2.3c0-1.4,0.9-2.3,2.3-2.3h30.9v-3.9h-24.1
			c-1.4,0-2-0.7-2-2.3s0.7-2.3,2-2.3h24.1v-3.4h-27.7c-1.6,0-2.3-0.9-2.3-2.3s0.9-2.3,2.3-2.3h17.1c-0.9-0.7-1.6-1.4-2.3-2
			c-0.7-0.7-0.9-1.4-0.9-1.6C120.1,728.1,121.2,727.2,123.2,727.2z M118.7,785.2v7c5-0.5,9.1-0.9,12.3-1.6c0.5-0.2,0.9-0.2,1.4-0.2
			c1.4,0,2.3,0.9,2.3,2.3c0,1.1-0.5,2-1.6,2.7c-3.2,0.7-7.5,1.4-12.7,2c-4.1,0.5-8.9,1.1-14.6,1.4c-1.8-0.2-2.7-0.9-2.7-2.7
			c0-1.6,0.7-2.5,2.3-3c3.4-0.2,6.1-0.2,8.6-0.5v-22.5c0-3,1.6-4.5,5-4.5h36.6c3.2,0,5,1.6,5,4.5v10.5c0,3-1.6,4.5-5,4.5H141
			c3.4,2.3,7,4.1,10.5,5.2c0.2,0,0.2,0,0.5,0.2c0.2-0.2,0.5-0.5,0.9-0.7c4.8-1.8,8.9-4.3,12.3-7.3c0.9-0.5,1.4-0.7,1.6-0.7
			c1.8,0,2.5,0.9,2.5,2.5c0,0.9-0.5,1.6-1.4,2c-2.3,2-5.2,4.1-8.9,5.7c3.2,0.7,7,1.1,11.6,1.6c0.7,0,1.1,0.2,1.8,0.7
			c0.9,0.5,1.4,1.1,1.4,2c0,1.1-0.2,1.8-0.9,2.3c-0.5,0.5-1.4,0.7-2.3,0.9c-3.9,0-8.2-0.7-13-2c-4.8-1.4-8.6-2.7-11.8-4.3
			c-3.6-2-7.5-4.8-11.6-8.4L118.7,785.2L118.7,785.2z M151.9,770h-32.3c-0.7,0-0.9,0.5-0.9,1.4v2.5h36.8v-2c0-0.9-0.5-1.6-1.4-1.6
			h-2.3V770z M118.7,777.3v3.6h35.7c0.9,0,1.4-0.5,1.4-1.6v-2H118.7z M146.7,757.7c1.4,0,2,0.7,2,2.3c0,1.6-0.7,2-2,2h-19.3
			c-1.4,0-2-0.7-2-2c0-1.4,0.7-2.3,2-2.3H146.7z"/>
		<path fill="#3A3634" d="M211.7,730.2h55.7c3.4,0,5.2,1.8,5.2,5V793c0,3.4-1.8,5-5.2,5h-55.7c-3.4,0-5.2-1.8-5.2-5v-57.8
			C206.5,731.8,208.1,730.2,211.7,730.2z M264.9,793c1.4,0,2-0.9,2-2.3v-53c0-1.6-0.7-2.3-2-2.3h-50.7c-1.4,0-2,0.9-2,2.3v53
			c0,1.6,0.7,2.3,2,2.3H264.9z M262.2,743.8c1.6,0,2.5,0.9,2.5,2.5c0,1.6-0.9,2.5-2.5,2.5h-15.2c0.2,5.5,0.7,10.2,1.4,14.3
			c0.7,3.4,1.4,6.4,2,8.9c0.2-0.7,0.7-1.1,0.9-1.8c1.8-4.8,2.5-9.8,2.5-15c0-1.8,0.9-2.5,2.5-2.5c1.6,0,2.5,0.9,2.5,2.5
			c0,5.9-0.9,11.4-2.7,16.6c-0.9,2.3-2,4.3-3.4,6.4c0.9,1.8,1.8,3.4,2.7,4.8s1.4,2,1.8,2c0.2,0,0.7-0.7,0.9-1.8
			c0.2-2.7,0.5-5.5,0.5-8c0.2-1.8,0.9-2.7,2.5-2.7c1.6,0.5,2.5,1.6,2.5,3.4c0,3.9-0.5,7.7-1.6,11.6c-0.9,2.7-2.3,4.1-4.1,4.1
			c-1.8,0-3.6-1.1-5.5-3.2c-1.4-1.6-2.5-3.4-3.4-5.5c-2,2.3-4.3,4.5-7.3,6.6c-0.7,0.9-1.4,1.4-2.3,1.4c-2,0-3.2-1.1-3.2-3.2
			c0-0.2,0.2-0.7,0.7-1.6c3.9-2.7,7-5.7,9.5-8.9c-1.8-4.8-3.2-10.5-4.3-17.1c-0.5-3.6-0.9-7.5-0.9-11.6h-24.3
			c-1.6,0-2.5-0.9-2.5-2.5c0-1.6,0.9-2.5,2.5-2.5h24.6c0-1.4,0-3,0-4.1c0-1.8,0.9-2.7,2.5-2.7s2.5,0.9,2.5,2.7c0,1.4,0,3,0,4.1h8.2
			c-0.9-1.1-1.8-2.3-2.7-3.4c-0.5-0.7-0.7-1.1-0.7-1.4c0-1.8,0.9-2.5,3-2.5c0.5,0,0.9,0.2,1.4,0.9c1.1,1.6,2.3,3.4,3.6,5.5
			c0.2,0.5,0.5,0.7,0.5,1.1L262.2,743.8L262.2,743.8z M239,777c1.6,0.2,2.3,0.9,2.5,2.5c0,1.1-0.5,2-1.6,2.5
			c-2.5,1.4-5.9,2.7-10.2,3.9c-3.2,0.9-7.3,1.8-12.1,2.5c-1.8,0-2.7-1.1-3-3c0-1.8,0.9-2.7,2.3-3c4.3-0.7,7.5-1.1,9.8-1.8
			c4.3-0.9,7.7-2,10.7-3.4C238.3,777.3,238.7,777,239,777z M221.2,753.6h14.6c2.7,0,4.1,1.4,4.1,4.1v13.2c0,2.7-1.4,4.1-4.1,4.1
			h-14.6c-2.7,0-4.1-1.4-4.1-4.1v-13.2C217.1,755,218.5,753.6,221.2,753.6z M232.8,770c1.4,0,1.8-0.7,1.8-1.8v-7.7
			c0-1.1-0.7-1.8-1.8-1.8H224c-1.4,0-1.8,0.7-1.8,1.8v7.7c0,1.1,0.7,1.8,1.8,1.8H232.8z"/>
		<path fill="#3A3634" d="M314.2,730.2h9.1c2.7,0,4.1,1.4,4.1,4.1c0,0.7-0.2,1.6-0.7,3l-5,14.6c-0.2,0.7-0.5,1.4-0.5,2.3
			c0,0.9,0.2,1.8,0.9,3c2.3,3.6,3.6,6.8,4.3,9.1c0.7,2.3,0.9,4.8,0.9,7c0,3.2-0.9,5.7-2.5,8c-1.8,2.5-4.5,3.9-8.2,3.9
			c-1.1,0-2.3-0.2-3.6-0.5v12.7c0,1.8-0.9,2.7-2.7,2.7c-1.8,0-3-0.9-3-2.7v-61.8c0-3.4,1.8-5,5.2-5L314.2,730.2L314.2,730.2z
			 M312.6,778.4c1.6,0.5,2.5,0.7,3,0.7c1.8,0,3.4-0.7,4.3-2c1.1-1.4,1.6-3,1.6-4.5c0-1.6-0.2-3.2-0.7-5.2c-0.5-2.3-2-5.5-4.5-9.8
			c-0.5-0.9-0.7-1.8-0.7-2.7c0-1.1,0-2,0.2-3l5-15.5c0-0.9-0.5-1.1-1.1-1.1H314c-1.1,0-1.6,0.7-1.6,1.8L312.6,778.4L312.6,778.4z
			 M337.4,728.1c0.7,0,1.1,0.2,1.6,0.5c0.5,0.5,0.7,0.9,0.7,1.6h9.3c2.3,0,3.4,1.1,3.4,3.6c0,1.6-0.5,3.6-1.6,6.4
			c-1.8,4.3-4.1,8.2-6.6,11.8c-3.4,4.8-8,8.9-13.4,12.1c-0.9,0.7-1.6,0.9-2,0.9c-1.8,0-2.7-1.1-2.7-3c0-1.1,0.7-1.8,2.3-2.5
			c3.2-2,5.7-3.9,8-5.9c-1.4-1.6-2.5-3-3.4-3.6c-0.7-0.7-1.4-1.4-2.3-2c-0.7,0.5-1.1,0.9-1.6,1.4c-0.5,0.5-1.1,0.7-1.6,0.7
			c-0.7,0-1.1-0.2-1.8-0.9c-0.7-0.7-0.9-1.1-0.9-1.8s0.2-1.4,0.9-1.8c1.4-1.1,2.7-2.3,3.6-3.6c1.1-1.6,2.3-3.4,3.2-5.2
			c0.9-1.8,1.8-4.1,2.3-6.6C335.2,728.6,336.1,728.1,337.4,728.1z M338.1,778.9c2,0,3,0.9,3,2.7c0,0.9-0.5,2-1.4,3.2
			c-3.4,5-6.6,8.9-9.8,11.8c-0.7,0.7-1.4,0.9-2,0.9c-2,0-3-0.9-3-2.7c0-0.7,0.2-1.4,0.9-1.8c4.1-3.9,7.5-8.2,10.2-12.7
			C336.5,779.3,337.2,778.9,338.1,778.9z M349.5,775.2h-17.7c-1.8,0-2.5-0.9-2.5-2.7c0-1.8,0.9-2.5,2.5-2.5h42.1
			c1.8,0,2.5,0.9,2.5,2.5c0,1.8-0.9,2.7-2.5,2.7h-18.2v18.6c0,3.6-1.8,5.5-5.5,5.5c-3,0-6.1-0.7-9.8-1.8c-1.4-0.5-2.3-1.1-2.3-2.5
			c0-1.8,0.9-2.7,2.5-2.7c4.5,1.1,7.5,1.8,8.2,1.8c0.5,0,0.9-0.5,0.9-1.6L349.5,775.2L349.5,775.2z M333.8,744.1
			c0.9,0.9,1.6,1.6,2.3,2.3c1.1,0.9,2.3,2.3,3.2,3.6c1.1-1.4,2.3-3,3.4-4.5c-1.8-1.4-3.2-2.7-4.5-3.4c-0.7-0.5-1.4-0.9-2-1.4
			C335.2,741.8,334.5,742.9,333.8,744.1z M338.1,736.3c1.4,0.9,2.3,1.6,3.4,2.3c1.1,0.9,2.3,1.8,3.4,2.7c0.5-0.9,0.9-1.8,1.4-2.7
			c0.5-1.1,0.7-2,0.7-2.5c0-0.5-0.2-0.7-0.7-0.7h-7c-0.2,0-0.7,0-0.9,0C338.3,735.4,338.1,735.9,338.1,736.3z M364,758.2
			c1.8,0,2.5,0.9,2.5,2.5c0,1.8-0.9,2.7-2.5,2.7H342c-1.8,0-2.5-0.9-2.5-2.7c0-1.8,0.9-2.5,2.5-2.5H364z M362.2,730.9h10.7
			c2.7,0,4.1,1.4,4.1,4.3c0,1.8-0.7,3.6-1.8,5.5c-1.6,2.5-4.3,5.5-8,8.9l0.2,0.2c2.5,3,6.4,5.7,11.1,8.9c0.5,0.5,0.7,0.9,0.7,1.6
			c0,1.8-0.9,3-3,3c-0.7,0-1.1-0.2-1.8-1.1c-3.2-1.8-6.4-4.3-9.1-7c-3-3-5.2-5.7-7-8.9c-1.8-3-3.2-5.9-3.9-8.9
			c-0.7-2-1.1-4.1-1.1-5.9c0-1.8,0.9-2.7,2.3-2.7s2.3,0.7,2.3,2.3c0.7,3.6,1.6,7,3,10c0.9,1.4,1.6,2.7,2.5,4.1h0.2
			c3.2-3.2,5.5-5.5,6.8-7.3c0.2-0.5,0.5-0.9,0.5-1.4c0-0.7-0.2-0.9-0.7-0.9h-8.4c-1.6,0-2.5-0.9-2.5-2.5
			C359.9,731.8,360.6,730.9,362.2,730.9z M365.4,778.6c0.9,0,1.4,0.5,2.3,1.6c3,3.4,5.7,7,7.7,11.1c0.2,0.7,0.5,1.4,0.5,2
			c0,1.8-1.1,2.5-3.4,2.5c-1.1,0-1.8-0.7-2.3-2.3c-2.3-4.5-4.5-8.2-7-10.9c-0.5-0.7-0.7-1.4-0.7-1.8
			C362,779.5,363.1,778.6,365.4,778.6z"/>
		<path fill="#3A3634" d="M444.3,732.5c1.6,0,2.5,0.9,2.5,2.5c0,1.6-0.9,2.5-2.5,2.5h-6.6v0.7c0,1.8-0.9,2.7-2.5,2.7
			s-2.5-0.9-2.5-2.7v-0.9h-10.5v0.9c0,1.8-0.9,2.7-2.5,2.7c-1.8,0-2.7-0.9-2.7-2.7v-0.9h-6.8c-1.6,0-2.5-0.9-2.5-2.5
			s0.9-2.5,2.5-2.5h6.8v-1.6c0-1.8,0.9-2.5,2.7-2.5c1.8,0,2.5,0.9,2.5,2.5v1.6h10.5v-1.6c0-1.8,0.9-2.5,2.5-2.5s2.5,0.9,2.5,2.5v1.6
			h6.6V732.5z M417.5,758.2c0.9,0,1.6,0.2,2,0.7c0.7,0.7,1.1,1.4,1.1,2c0,0.5,0,0.9-0.2,1.6c-0.2,0.7-0.5,1.4-0.5,1.8h9.8
			c0-0.2,0.2-0.2,0.2-0.5c0.7-1.4,1.4-2.5,2-3.6c0.5-0.9,1.4-1.1,2.3-1.1c0.7,0,1.4,0.2,1.8,0.7c0.5,0.7,0.9,1.1,0.9,1.8
			c0,0.7-0.2,1.1-0.7,1.8c-0.2,0.2-0.5,0.7-0.7,1.1h7.7c1.6,0,2.3,0.7,2.3,2.3s-0.9,2.3-2.3,2.3h-9.3v5.2h9.1c1.6,0,2.3,0.9,2.3,2.3
			c0,1.6-0.9,2.3-2.3,2.3h-9.1v5h9.1c1.6,0,2.3,0.9,2.3,2.3s-0.9,2.3-2.3,2.3h-9.1v5.2h9.1c1.6,0,2.3,0.7,2.5,2
			c0-0.2,0.2-0.7,0.5-0.9c3.9-3.2,6.6-6.8,8-10.9c1.1-3.2,1.6-6.6,1.6-10.2h-1.8c-3,0-4.5-1.6-4.5-4.5v-34.3c0-3,1.4-4.3,4.5-4.3h18
			c3,0,4.5,1.4,4.5,4.3v34.3c0,3-1.4,4.5-4.5,4.5h-3v18.9c0,1.4,1.1,2.3,3.6,2.3c1.6,0,2.3-0.9,2.3-2.3l0.2-4.5
			c0-1.4,0.9-2.3,2.5-2.3c1.6,0,2.3,0.9,2.5,2.7c0,5.7-0.7,8.9-1.8,9.6c-0.9,0.9-3,1.6-5.7,1.6c-3.4,0-5.7-0.5-6.8-1.4
			c-1.1-0.9-1.8-2-1.8-3.6v-20.9h-3.2c0,4.3-0.5,8.2-1.6,12.1c-1.6,4.8-4.3,8.9-8.6,12.7c-0.7,0.9-1.4,1.4-2.3,1.4
			c-1.8,0-3-0.9-3.2-2.5c-0.2,0.9-1.1,1.1-2.3,1.1H417c-3.4,0-5-1.6-5-4.8v-16.4c-0.5,0.5-0.9,0.7-1.1,0.7c-2,0-3.2-0.9-3.2-2.7
			c0-0.7,0.2-1.1,0.9-1.6c1.4-1.8,2.7-3.6,3.9-5.7s2.3-4.8,3.2-7.7C415.9,758.8,416.6,758.2,417.5,758.2z M413.4,742.9h8.9
			c2.3,0,3.4,1.1,3.4,3.2v7.7c0,2.3-1.1,3.2-3.4,3.2h-8.9c-2.3,0-3.4-1.1-3.4-3.2v-7.5C409.7,744.1,410.9,742.9,413.4,742.9z
			 M420,753.2c0.7,0,1.1-0.5,1.1-1.4v-3.4c0-0.9-0.2-1.4-1.1-1.4h-4.5c-0.7,0-1.1,0.5-1.1,1.4v3.4c0,0.9,0.2,1.4,1.1,1.4H420z
			 M428.6,774.1v-5.2h-10.9c-0.2,0.7-0.5,1.1-0.9,1.6c0,0,0,0,0,0.2v3.4L428.6,774.1L428.6,774.1z M428.6,783.6v-5H417v5H428.6z
			 M428.6,793.4v-5.2H417v3c0,1.6,0.7,2.3,2.3,2.3H428.6L428.6,793.4z M432.9,743.6h9.1c2.3,0,3.4,1.1,3.4,3.2v7.5
			c0,2-1.1,3.2-3.4,3.2h-9.1c-2.3,0-3.4-1.1-3.4-3.2v-7.5C429.5,744.7,430.7,743.6,432.9,743.6z M440,753.4c0.7,0,1.1-0.5,1.1-1.4
			v-3.2c0-0.9-0.2-1.4-1.1-1.4h-5c-0.7,0-1.1,0.5-1.1,1.4v3.2c0,0.9,0.2,1.4,1.1,1.4H440z M454.3,743.6h16.4v-6.4
			c0-1.1-0.7-1.8-1.8-1.8h-13c-1.1,0-1.8,0.7-1.8,1.8v6.4H454.3z M454.3,755.9h16.4v-7.5h-16.4V755.9z M468.9,768.2
			c1.1,0,1.8-0.7,1.8-1.8v-5.9h-16.4v5.9c0,1.1,0.7,1.8,1.8,1.8H468.9z"/>
	</g>
	<g>
		<path fill="#43A84C" d="M250.4,638c-60.4,0-109.8-49.3-109.8-109.8s49.3-109.8,109.8-109.8s109.8,49.3,109.8,109.8
			S310.8,638,250.4,638z M250.4,420.8c-59.3,0-107.4,48.3-107.4,107.6c0,59.3,48.3,107.4,107.4,107.4s107.4-48.3,107.4-107.4
			C357.8,469.2,309.6,420.8,250.4,420.8z"/>
	</g>
	<g>
		<path fill="#43A84C" d="M250.4,419.9c-60,0-108.6,48.7-108.6,108.6S190.3,637,250.4,637s108.6-48.7,108.6-108.6
			S310.2,419.9,250.4,419.9z M254.6,632.2c-56.1,0-101.6-45.4-101.6-101.6S198.5,429,254.6,429s101.6,45.4,101.6,101.6
			S310.8,632.2,254.6,632.2z"/>
	</g>
	<g>
		<g>
			<path fill="#43A84C" d="M327.6,590.8c-26.3,0-62-8.2-99.2-24.2c-32.6-13.8-61.2-31.6-80.5-49.9c-19.9-18.7-27.9-35.9-22.4-48.3
				c5.1-12.1,22.2-18.3,48-17.3l-0.2,3.3c-24.2-0.8-40.2,4.7-44.6,15.4c-4.7,10.9,3.1,27.3,21.6,44.6c19.1,18.1,47.4,35.5,79.7,49.3
				c65.9,28.3,127.9,32,138,8.4c3.9-9-0.2-20.9-11.9-34.5l2.5-2.1c12.5,14.6,16.6,27.7,12.5,37.8C365.6,585.2,350,590.8,327.6,590.8
				z"/>
		</g>
	</g>
	<g>
		<g>
			<path fill="#43A84C" d="M118.8,579.1c-8.6,0-15.4-1.8-17.3-6.4C96.7,562,120.5,544.2,141,531l1.8,2.7
				c-31.6,20.1-40.5,32.6-38.4,37.6c2.5,5.8,19.7,5.8,46,0c27.9-6.2,63.2-18.3,99.8-33.9c36.5-15.8,69.6-32.9,93.4-48.9
				c22.4-15,34.3-27.5,31.8-33.1c-2.5-5.8-19.7-5.8-46,0l-0.8-3.1c20.5-4.7,45.6-8,49.7,1.8c4.1,9.7-15.6,25.7-32.9,37.2
				c-24,16-57.3,33.5-94,49.1c-36.6,15.8-72.3,27.9-100.4,34.1C140.4,577.2,128.3,579.1,118.8,579.1z"/>
		</g>
	</g>
</g>
</svg>
