<?xml version="1.0" encoding="utf-8"?>
<!-- Generator: Adobe Illustrator 18.0.0, SVG Export Plug-In . SVG Version: 6.00 Build 0)  -->
<!DOCTYPE svg PUBLIC "-//W3C//DTD SVG 1.1//EN" "http://www.w3.org/Graphics/SVG/1.1/DTD/svg11.dtd">
<svg version="1.1" id="Layer_1" xmlns="http://www.w3.org/2000/svg" xmlns:xlink="http://www.w3.org/1999/xlink" x="0px" y="0px"
	 viewBox="0 0 1920 918" enable-background="new 0 0 1920 918" xml:space="preserve">
<g id="人文素養">
	<g>
		<path fill="#FFFFFF" d="M597.2,716.4c4.5,0,6.8,2.4,6.8,7.1v23c0,7.4,1.3,16.3,3.9,26.7c2.9,10.9,7.6,21.7,14,32.5
			c5.7,10,13.5,20.1,23.3,30.1c6.3,7.2,15.2,15.4,26.7,24.5c2,1.9,3,3.8,3,5.6c-0.2,4.5-2.5,6.9-6.9,7.1c-1.8,0-3.9-1-6.4-2.9
			c-12.4-9.7-23-19.7-31.9-29.9c-8.5-10-15-19.3-19.8-27.9c-5.4-9.8-9.6-19.5-12.7-29.2c-3,9.8-7.3,19.3-12.7,28.4
			c-5,9.1-11.7,18.6-20.1,28.4c-9.6,11.4-20.1,21.6-31.6,30.8c-2,1.6-3.8,2.4-5.2,2.4c-4.7-0.2-7.2-2.9-7.4-8.1
			c0-1.5,1.4-3.2,4.1-5.2c10.4-8.2,19.9-17.4,28.6-27.4c9.6-10.7,17.2-21.3,23-31.8c5.3-10,9.1-19.6,11.5-28.7
			c2.1-9.5,3.2-17.9,3.2-25.2v-23C590.5,718.8,592.7,716.4,597.2,716.4z"/>
		<path fill="#FFFFFF" d="M820.9,714.1c4.5,0,6.8,2.3,6.8,6.8v15.9h66.9c4.3,0,6.4,2.1,6.4,6.4c0,4.3-2.1,6.4-6.4,6.4h-19.6
			c-0.1,1-0.3,2.1-0.7,3.2c-6.1,18.4-12.9,33.4-20.5,45c-7,10.6-14.5,19.7-22.5,27.4c8,5.9,17.6,11.6,28.9,17.1
			c9.1,5.3,21.4,10.5,36.7,15.5c3.4,1.4,5.1,3.5,5.1,6.6c0,4.8-2.3,7.3-6.8,7.3c-1,0-2.6-0.3-4.9-1c-18.5-7.2-33.2-14-44.3-20.5
			c-9.5-5-17.7-10.3-24.8-16.1c-6.8,5.4-14.1,10.5-22.1,15.4c-12.2,7.3-27.7,14.2-46.6,20.6c-2.4,1-3.9,1.5-4.7,1.5
			c-1.7,0-3.3-0.6-4.7-1.7c-1.2-1.4-1.9-2.8-1.9-4.4c0-2.9,1.2-4.8,3.7-5.7c18.5-6.1,33.6-12.7,45.5-19.8
			c7.4-4.6,14.4-9.4,20.8-14.4c-9-7.8-17.2-18-24.7-30.8c-8.3-14-14.9-29.1-19.6-45.3h-18.3c-4.3,0-6.4-2.1-6.4-6.4
			c0-4.3,2.1-6.4,6.4-6.4h65.6v-15.9C814.1,716.3,816.4,714.1,820.9,714.1z M780.1,749.6c6.3,17.2,13,31.4,19.9,42.4
			c5.9,9.1,13,17.4,21.3,24.7c8.1-7.8,15.4-16.6,22-26.5c7-10.6,13.4-24.1,19.1-40.6H780.1z"/>
		<path fill="#FFFFFF" d="M1110.8,724.6c3.4,0,5.1,1.7,5.1,5.1c0,3.4-1.7,5.1-5.1,5.1h-57.1v9.1h50.4c3.2,0,4.7,1.6,4.7,4.7
			c0,3.2-1.6,4.7-4.7,4.7h-50.4v9.8h65.2c3.8,0,5.7,1.9,5.7,5.7c0,3.8-1.9,5.7-5.7,5.7h-70.5c-0.2,1.6-1.1,2.9-2.5,3.9
			c-6.1,4.8-14.4,9.3-25,13.4c6.6,3.6,12.8,7.3,18.4,11c8.3-6.1,15.9-12.3,22.8-18.8c1.5-2,3.4-3,5.7-3c1.7,0,3.2,0.7,4.4,2
			c1.4,1.2,2,2.7,2,4.4c0,1.6-0.6,3-1.7,4.2c-5.9,5.2-12.3,10.2-19.3,15c-1.7,1.1-3.4,2.2-5.2,3.2c16-1.1,31-2.8,45-4.9
			c-1.2-1.5-2.5-2.9-3.7-4.2c-1.5-1.5-2.2-2.9-2.2-4.4c0-3.9,1.9-5.9,5.7-5.9c1.1,0,2.5,0.5,4.2,1.4c3.3,3.6,6.3,7.1,9,10.5
			c4.1,4.7,7.9,10.3,11.5,16.7c1.4,1.6,2,2.7,2,3.4c0,3.9-1.9,5.9-5.6,5.9c-2,0-3.8-0.7-5.2-2c-2.9-4.6-5.5-8.4-7.8-11.3
			c-0.7,0.2-1.3,0.3-1.9,0.3c-15.5,1.8-30.7,3.4-45.5,4.9v46.3c0,4.3-2.1,6.4-6.4,6.4c-4.3,0-6.4-2.1-6.4-6.4v-45.1
			c-21.5,1.9-42.5,3.4-62.9,4.6c-3.8,0-5.7-2.4-5.7-7.1c0-3.7,1.9-5.6,5.7-5.7c16.8-0.2,32.7-0.8,47.7-1.7c1.4-0.8,2.6-1.5,3.9-2.2
			c-10.6-6.6-22.3-13.2-35-19.8c-2.3-1.5-3.4-2.9-3.4-4.4c0-3.5,1.9-5.2,5.6-5.2c1.1,0,2.4,0.4,3.9,1.2c2.8,1.4,5.6,2.8,8.3,4.2
			c0.4-0.4,0.9-0.8,1.4-1c8.1-2.8,15.2-6,21.3-9.6h-57.3c-3.8,0-5.7-1.9-5.7-5.7c0-3.8,1.9-5.7,5.7-5.7h66.6v-9.8h-53.1
			c-3.2,0-4.7-1.6-4.7-4.7c0-3.2,1.6-4.7,4.7-4.7h53.1v-9.1h-59.2c-3.4,0-5.1-1.7-5.1-5.1c0-3.4,1.7-5.1,5.1-5.1h59.2v-4.7
			c0-4.3,2.1-6.4,6.4-6.4c4.3,0,6.4,2.1,6.4,6.4v4.7H1110.8z M1023.2,831c4.3,0,6.4,2.1,6.4,6.4c0,2-1,3.7-3,5.1
			c-10.4,9.4-24.9,17.9-43.6,25.5c-2.1,0.8-3.5,1.2-4.2,1.2c-4.4,0-6.6-2.4-6.6-7.1c0-2.1,1.1-3.8,3.4-4.9
			c17.4-6.7,31.9-14.8,43.8-24.5C1021.1,831.6,1022.4,831,1023.2,831z M1072.2,831c1.2,0,2.7,0.5,4.4,1.4
			c6.8,3.5,12.8,6.9,18.3,10.1c8.5,4.5,16.3,9.9,23.7,16.1c1.6,1.9,2.4,3.3,2.4,4.2c0,4.5-2.1,6.8-6.4,6.8c-2.4,0-4.5-0.8-6.3-2.4
			c-8.8-6.5-16.2-11.7-22.3-15.5c-5.2-3.2-11-6.4-17.4-9.8c-1.6-1.5-2.4-3-2.4-4.6C1066.1,833.1,1068.2,831,1072.2,831z"/>
		<path fill="#FFFFFF" d="M1241.3,713.4c1,0,2.1,0.7,3.4,2.2c2.8,2,5.5,4.3,7.9,6.9c0.9,1.5,1.4,2.7,1.4,3.7v1h34.3
			c0.6-0.7,1.1-1.4,1.7-2c2.4-3,4.6-6.3,6.6-9.6c1.4-1.9,3.2-2.9,5.4-2.9c1.6,0,3,0.6,4.2,1.9c1.2,1.2,1.9,2.6,1.9,4.1
			c0,1.6-0.5,3-1.5,4.2c-1,1.6-2.1,3-3.4,4.4h34.6c3.4,0,5.1,1.7,5.1,5.1c0,3.4-1.7,5.1-5.1,5.1H1278v7.8h53.1
			c3.2,0,4.7,1.6,4.7,4.7c0,3.2-1.6,4.7-4.7,4.7H1278v8.5h67.9c3.4,0,5.1,1.7,5.1,5.1c0,3.4-1.7,5.1-5.1,5.1h-36.3
			c4.4,4.3,8.8,8,13.2,11.2c7.2,4.8,15.8,9.3,25.9,13.4c2.3,1.1,3.4,2.5,3.4,4.2c0,4.5-2,6.8-6.1,6.8c-2,0-4.1-0.7-6.3-2
			c-13-6.1-22.9-12.4-29.9-18.9c-5.2-4.8-9.4-9.7-12.7-14.5h-51.6c-0.1,0.5-0.2,0.7-0.3,0.8c-5,7.6-10.9,13.9-17.9,19.1
			c-6.4,5.2-15.1,9.9-26,14.2c-1.2,0.5-2.3,0.7-3.2,0.7c-3.5,0-5.2-1.9-5.2-5.6c0-1.6,1.1-3,3.2-4.2c12.2-4.5,21.2-9.2,27.2-14
			c3.7-2.8,7.4-6.5,11.2-11h-37.2c-3.4,0-5.1-1.7-5.1-5.1c0-3.4,1.7-5.1,5.1-5.1h67.9v-8.5H1212c-3.2,0-4.7-1.6-4.7-4.7
			c0-3.2,1.6-4.7,4.7-4.7h53.1v-7.8h-61.2c-3.4,0-5.1-1.7-5.1-5.1c0-3.4,1.7-5.1,5.1-5.1h37.4c-1.7-1.6-3.4-3-5.1-4.2
			c-1.2-1.6-1.9-2.7-1.9-3.4C1234.4,715.5,1236.7,713.4,1241.3,713.4z M1231,841.2v15.2c10.8-1,19.9-2.1,27.2-3.4
			c1-0.3,2-0.5,2.9-0.5c3.2,0.2,4.8,1.9,5.1,4.9c0,2.4-1.1,4.3-3.4,5.7c-7,1.6-16.3,3.1-27.9,4.6c-8.9,1.1-19.7,2.2-32.3,3.2
			c-3.8-0.2-5.9-2.3-6.1-6.1c0-3.6,1.6-5.7,4.9-6.3c7.3-0.3,13.6-0.7,18.8-1.2v-49.4c0-6.8,3.6-10.1,10.8-10.1h81.1
			c7.2,0,10.8,3.4,10.8,10.1v23c0,6.8-3.6,10.1-10.8,10.1h-31.9c7.5,4.8,15.3,8.7,23.2,11.7c0.3,0.1,0.7,0.2,1.2,0.3
			c0.4-0.6,1-1,1.7-1.4c10.7-4.3,19.7-9.6,27-15.9c1.7-1,2.9-1.5,3.5-1.5c3.8,0,5.7,1.9,5.7,5.7c0,1.8-0.9,3.3-2.7,4.6
			c-5,4.5-11.4,8.7-19.3,12.7c7.1,1.4,15.6,2.5,25.5,3.5c1.4,0,2.6,0.4,3.9,1.4c1.8,1,2.7,2.5,2.7,4.6c0,2.4-0.7,4.1-2,5.1
			c-1.1,1-2.8,1.6-5.1,1.7c-8.3,0-17.9-1.5-28.6-4.4c-10.3-2.7-18.9-6-26-9.8c-8.2-4.4-16.7-10.5-25.4-18.3H1231z M1304.2,807.4
			H1233c-1.4,0-2,0.9-2,2.7v5.4h81.1v-4.7c0-2.3-0.9-3.4-2.7-3.4H1304.2z M1231,823.6v8.1h78.4c1.8,0,2.7-1.1,2.7-3.4v-4.7H1231z
			 M1292.5,780.3c3.2,0,4.7,1.6,4.7,4.7c0,3.2-1.6,4.7-4.7,4.7h-42.6c-3.2,0-4.7-1.6-4.7-4.7c0-3.2,1.6-4.7,4.7-4.7H1292.5z"/>
	</g>
	<g>
		<g>
			<path fill="#6EE4FF" d="M927.6,354.4c-154.8,0-339.2-118.3-347-123.3c-1.6-1-2.6-2.7-2.8-4.5c-0.2-1.8,0.4-3.7,1.7-5
				c7.5-7.7,190.6-192.7,355.8-184.4c164.6,8.2,347.3,177,355,184.2c1.4,1.3,2.1,3.2,1.9,5.1c-0.2,1.9-1.3,3.6-2.9,4.6
				c-2,1.2-198.3,119-354.2,123.1C932.7,354.3,930.1,354.4,927.6,354.4z M593.8,224.8c35.1,21.6,204.3,120.7,341.1,117.2
				c136-3.6,304.4-96.1,340.9-117.1c-33.6-29.7-197.4-168.1-341.1-175.3C790.6,42.5,625.8,194,593.8,224.8z"/>
		</g>
	</g>
	<g>
		<g>
			<path fill="#6EE4FF" d="M919.7,349.4c-85.2,0-154.6-69.3-154.6-154.6S834.4,40.3,919.7,40.3s154.6,69.3,154.6,154.6
				S1004.9,349.4,919.7,349.4z M919.7,46.4c-81.8,0-148.4,66.6-148.4,148.4c0,81.8,66.6,148.4,148.4,148.4s148.4-66.6,148.4-148.4
				C1068.1,113,1001.5,46.4,919.7,46.4z"/>
		</g>
	</g>
	<g>
		<path fill="#6EE4FF" d="M978.3,116.4c3.3,8.9,2.6,19.6-2.9,29c-9.2,15.6-28,21.5-42,13.3c-14-8.2-17.9-27.6-8.7-43.1
			c4.6-7.8,11.5-13.1,19.1-15.5c-7.7-2-15.8-3.1-24.1-3.1c-54.1,0-98,43.9-98,98s43.9,98,98,98c54.1,0,98-43.9,98-98
			C1017.7,162.7,1002.1,134.3,978.3,116.4z"/>
	</g>
</g>
</svg>
