<?xml version="1.0" encoding="utf-8"?>
<!-- Generator: Adobe Illustrator 18.0.0, SVG Export Plug-In . SVG Version: 6.00 Build 0)  -->
<!DOCTYPE svg PUBLIC "-//W3C//DTD SVG 1.1//EN" "http://www.w3.org/Graphics/SVG/1.1/DTD/svg11.dtd">
<svg version="1.1" id="Layer_1" xmlns="http://www.w3.org/2000/svg" xmlns:xlink="http://www.w3.org/1999/xlink" x="0px" y="0px"
	 viewBox="0 0 1920 918" enable-background="new 0 0 1920 918" xml:space="preserve">
<g id="跨領域能力">
	<g>
		<path fill="#FFFFFF" d="M551.7,733.9h25.4c5,0,7.6,2.4,7.6,7.3v34.1c0,4.9-2.5,7.3-7.6,7.3h-4.1v20h9.7c3.1,0,4.6,1.5,4.6,4.6
			c0,3.1-1.5,4.6-4.6,4.6h-9.7v23.8c4-1.4,8.3-3.2,13.1-5.4l1.9-0.8c3.5,0,5.3,1.9,5.3,5.7c0,1.1-0.9,2.2-2.7,3.4
			c-4.4,2.6-10.4,5.4-17.8,8.2c-9.2,3.4-17.8,6.1-25.8,8.1c-1.4,0.4-2.5,0.5-3.5,0.5c-3.5,0-5.3-1.8-5.3-5.5c0-2.7,1.4-4.5,4.1-5.3
			c1.3-0.3,2.3-0.5,3.2-0.7V801c0-3.1,1.5-4.6,4.6-4.6c3.1,0,4.6,1.5,4.6,4.6v40.6c3.2-0.8,6.1-1.6,8.7-2.4c0.3-0.1,0.4-0.1,0.5-0.1
			v-56.4h-12.2c-5,0-7.6-2.4-7.6-7.3v-34.1C544.2,736.4,546.7,733.9,551.7,733.9z M572.3,773.4c1.8,0,2.7-1,2.7-3v-24.3
			c0-2-0.9-3-2.7-3h-15.7c-1.8,0-2.7,1-2.7,3v24.3c0,2,0.9,3,2.7,3H572.3z M658.8,742.6c3.1,0,4.6,1.5,4.6,4.6
			c0,3.1-1.5,4.6-4.6,4.6h-17.4c2.3,3.5,4.6,6.5,6.9,8.9c4.1,4.2,9.1,8.2,14.7,11.8c1.9,1,2.8,2.2,2.8,3.7c0,3.8-1.7,5.7-5.1,5.7
			c-1.7,0-3.5-0.5-5.3-1.6c-7.5-5.3-13.3-10.8-17.4-16.5c-2.9-4-5.2-7.9-7-11.9h-8.8c-0.9,1.7-1.8,3.2-2.6,4.6
			c-3.3,5.7-7.2,10.9-11.5,15.7c-3.8,4.1-8.1,7.6-13,10.7c-1.1,0.8-2.2,1.2-3.4,1.2c-1.3,0-2.4-0.5-3.4-1.6c-1-1.2-1.5-2.5-1.5-3.9
			c0-1.4,0.6-2.5,1.8-3.4c4.6-3.1,8.6-6.4,12-9.9c3.8-4.2,7.2-8.7,10.1-13.4h-14.2c-3.1,0-4.6-1.5-4.6-4.6c0-3.1,1.5-4.6,4.6-4.6
			h18.9c1.2-2.7,2.3-5.6,3.2-8.8c0.7-2.3,2.3-3.4,4.9-3.4c1.2,0,2.3,0.4,3.2,1.1c0.9,0.6,1.4,1.7,1.4,3.1c0,0.8-0.2,1.8-0.5,3
			c-0.5,1.8-1.1,3.5-1.6,5H658.8z M659.9,793.1c3.2,0,4.9,1.6,4.9,4.9c0,3.2-1.6,4.9-4.9,4.9h-41.6l-3.7,11.1c0,1.1,0.6,1.6,1.8,1.6
			h35.3c5.9,0,8.8,3.3,8.8,9.9c0,5.9-0.6,11.4-1.9,16.5c-1.1,4.9-3.3,8.3-6.8,10.4c-3.3,2-9.5,3-18.4,3c-5.6,0-13-0.7-22.2-2.2
			c-3.4-0.6-5.1-2.3-5.1-5.1c0-3.4,1.6-5.1,4.9-5.1c0.3,0,0.6,0.1,0.9,0.3c8.3,1.9,15.2,2.8,20.8,2.8c9,0,14-1.4,14.9-4.1
			c1.6-3,2.4-7.7,2.4-14.1c0-2.1-1.1-3.1-3.2-3.1H611c-5.3,0-8-2.2-8-6.6c0-0.7,0.3-2.1,0.9-4.2l3.9-11.1h-12.3
			c-3.2,0-4.9-1.6-4.9-4.9c0-3.2,1.6-4.9,4.9-4.9H659.9z M644.8,774.5c3.1,0,4.6,1.5,4.6,4.6c0,3.1-1.5,4.6-4.6,4.6h-34.1
			c-3.1,0-4.6-1.5-4.6-4.6c0-3.1,1.5-4.6,4.6-4.6H644.8z"/>
		<path fill="#FFFFFF" d="M753.4,729.3c1.9,0,4,1.2,6.2,3.5l19.3,18.8c1.4,1.4,2,2.8,2,4.2c-0.2,3.1-1.8,4.7-4.9,4.9
			c-0.8,0-1.8-0.4-3.1-1.1l-16.5-18.4c-0.8-1-1.6-1.5-2.3-1.5c-0.6,0-1.3,0.5-1.9,1.6c-6.9,9.5-14.6,18.3-23.3,26.4
			c-1.5,1.4-2.9,2.2-4.2,2.2c-3.2-0.2-4.8-1.9-5-5.3c0-1.4,0.8-2.8,2.4-4.1c10.6-9.1,18.8-17.7,24.5-25.8
			C749,731.1,751.2,729.3,753.4,729.3z M730.6,791.8H767c6,0,9.1,3.2,9.1,9.6c0,2.9-0.9,6.4-2.8,10.7c-3.3,7.1-8.2,14.9-14.6,23.4
			c-0.5,0.7-1.1,1.3-1.8,1.6c2.9,2.5,5.6,5.2,8.2,8.1c1.2,1.4,1.8,2.5,1.8,3.1c0,3.2-1.6,4.9-4.7,4.9c-1.7,0-3.2-0.6-4.6-1.8
			c-5.7-5.9-10.5-10.4-14.5-13.7c-3.4-2.9-7.2-5.8-11.4-8.8c-1.1-1.1-1.6-2.2-1.6-3.2c0-3,1.4-4.5,4.3-4.5c0.9,0,2,0.3,3.2,0.9
			c4.4,3.1,8.3,5.9,11.8,8.7c6.4-7.5,11.3-14.5,14.6-21c1.5-2.6,2.3-4.7,2.3-6.2c0-1.8-1-2.7-3-2.7h-32.7c-3.2,0-4.9-1.5-4.9-4.6
			C725.8,793.3,727.4,791.8,730.6,791.8z M767.4,767.5c3.1,0,4.6,1.5,4.6,4.6c0,3.1-1.5,4.6-4.6,4.6H735c-3.1,0-4.6-1.5-4.6-4.6
			c0-3.1,1.5-4.6,4.6-4.6H767.4z M840.4,734.2c2.9,0,4.3,1.4,4.3,4.3c0,2.9-1.4,4.3-4.3,4.3H818l-2.8,11.4h17.2
			c5.6,0,8.4,2.7,8.4,8.1v60c0,5.4-2.8,8.1-8.4,8.1h-2.8c0.1,0.2,0.1,0.3,0.1,0.4c2.4,6.3,6.9,11.8,13.5,16.4
			c1.4,1.1,2.2,2.3,2.2,3.5c0,1.7-0.3,2.8-0.9,3.2c-0.7,1.3-1.9,1.9-3.7,1.9c-1.6,0-3.2-0.8-4.7-2.3c-4.1-2.7-8.2-7.4-12.3-14.2
			c-2.2-4.1-3.2-6.8-3.2-8c0-0.3,0-0.6,0.1-0.9h-14.2c0.4,0.7,0.5,1.6,0.5,2.6c0,1.7-0.8,3.6-2.3,5.5c-5.7,6.3-11.2,11.3-16.6,14.9
			c-1.1,0.9-2.2,1.4-3.2,1.4c-3.2,0-4.9-1.5-4.9-4.5c0-1.1,0.4-2.2,1.2-3.2c6.8-5,12.7-10.4,17.4-16.2c0.1-0.1,0.1-0.2,0.1-0.4h-4.7
			c-5.6,0-8.4-2.7-8.4-8.1v-60c0-5.4,2.8-8.1,8.4-8.1h12l2.7-11.4h-21.8c-2.9,0-4.3-1.4-4.3-4.3c0-2.9,1.4-4.3,4.3-4.3H840.4z
			 M794.7,776.4h36.8v-9.7c0-2.5-1.2-3.8-3.5-3.8h-29.7c-2.3,0-3.5,1.3-3.5,3.8V776.4z M794.7,798.6h36.8V785h-36.8V798.6z
			 M828,821.8c2.3,0,3.5-1.3,3.5-3.8v-10.8h-36.8V818c0,2.5,1.2,3.8,3.5,3.8H828z"/>
		<path fill="#FFFFFF" d="M936.1,760.7c3.2,0,4.9,1.6,4.9,4.9s-1.6,4.9-4.9,4.9h-8.7v49.2c2.3-1.8,5-3.9,8-6.2l1.9-0.8
			c3.5,0,5.3,1.9,5.3,5.7c0,1.3-0.6,2.6-1.9,3.9c-3.2,3-7.3,6.1-12.6,9.5c-6.5,4.1-12.6,7.2-18.4,9.5c-0.9,0.5-1.7,0.7-2.4,0.7
			c-3.5,0-5.3-1.8-5.3-5.5c0-2.7,1.4-4.5,4.1-5.3c4.6-1.8,8.5-3.5,11.6-5.1v-55.4h-10.3c-3.2,0-4.9-1.6-4.9-4.9s1.6-4.9,4.9-4.9
			h10.3v-24.9c0-3.2,1.6-4.9,4.9-4.9s4.9,1.6,4.9,4.9v24.9H936.1z M1021.5,746.6c3.2,0,4.9,1.6,4.9,4.9s-1.6,4.9-4.9,4.9h-24.6
			c1,22.7,2.2,38.3,3.7,46.7c0.1,0.8,0.2,1.6,0.4,2.4c1.3-2.5,2.4-5.1,3.5-7.8c3.1-7.7,5.8-17.5,8.1-29.6c0.9-2,2.4-3,4.6-3
			c1.4,0,2.5,0.4,3.5,1.2c1,0.9,1.5,1.9,1.5,3s-0.2,2.3-0.7,3.5c-2.5,12.6-5.4,22.9-8.7,31c-2.6,6.6-5.5,12.4-8.5,17.3
			c1.3,5.1,2.8,10.2,4.6,15.3c1.4,2.8,2.6,4.2,3.7,4.2c0.9,0,1.6-0.8,2-2.4c0.9-2.6,1.8-9.9,2.7-21.9c0.4-3.4,1.9-5.1,4.7-5.1
			c3.2,0,4.7,1.6,4.7,4.9c-0.8,13.6-2.4,23.6-4.7,30c-2.1,6.3-5.1,9.5-9.2,9.5c-3.4,0-6.4-2.1-8.9-6.2c-2.8-4.5-5.2-10.2-7.3-17.2
			c-2.3,2.5-4.6,5-6.9,7.4c-5.1,5-11.7,9.8-19.7,14.2c-1.9,0.8-3.2,1.2-3.8,1.2c-1.4,0-2.6-0.5-3.8-1.4c-1-1.1-1.5-2.3-1.5-3.5
			c0-2.3,1-3.9,3-4.6c7.6-4.2,13.8-8.7,18.7-13.5c4.1-4.1,7.7-8.2,10.8-12.6c-2.3-11.2-3.9-23.6-4.9-37.2
			c-0.8-8.8-1.4-17.4-1.8-25.7h-42.6c-3.2,0-4.9-1.6-4.9-4.9s1.6-4.9,4.9-4.9h42.3c-0.1-4.2-0.1-8.4-0.1-12.4c0-3.2,1.6-4.9,4.9-4.9
			c3.2,0,4.8,1.6,4.9,4.9c0.2,4.3,0.3,8.5,0.4,12.4H1021.5z M980.4,816.7c3.1,0.2,4.7,1.7,4.9,4.6c0,2.3-1.1,4-3.2,5.3
			c-4.2,2.8-9.9,5.4-16.9,7.7c-5.4,1.9-11.9,3.7-19.6,5.3c-3.6-0.2-5.5-2.1-5.7-5.8c0-3.3,1.5-5.3,4.6-5.8c6.8-1.2,12.2-2.4,16-3.8
			c6.8-2,12.6-4.3,17.3-6.9C978.7,816.9,979.6,816.7,980.4,816.7z M952.8,764.5h19.3c5.3,0,8,2.5,8,7.6v33.5c0,5-2.7,7.6-8,7.6
			h-19.3c-5.2,0-7.8-2.5-7.8-7.6v-33.5C945,767,947.6,764.5,952.8,764.5z M966.9,804.5c2.7,0,4.1-1.4,4.1-4.3v-22.7
			c0-2.9-1.4-4.3-4.1-4.3h-8.7c-2.7,0-4.1,1.4-4.1,4.3v22.7c0,2.9,1.4,4.3,4.1,4.3H966.9z M1003.8,730.5c1.1,0,2.3,0.4,3.7,1.2
			c3.8,1.6,7.2,3.2,10.1,4.9c1.5,1.1,2.3,2.4,2.3,4.1c0,3-1.4,4.5-4.3,4.5c-1.4,0-2.5-0.4-3.4-1.2c-3.1-1.5-6.5-3.1-10.4-4.6
			c-2-1.4-3-2.7-3-4.1C998.8,732.1,1000.5,730.5,1003.8,730.5z"/>
		<path fill="#FFFFFF" d="M1106.9,728.8c1.4,0,2.7,0.5,3.8,1.6c1.1,1.1,1.6,2.3,1.6,3.8c0,1.4-0.5,2.6-1.4,3.7
			c-2.4,5.2-5.1,10.3-8.1,15.1c-1.1,2-2.3,3.8-3.7,5.4c11.2-0.6,21.3-1.9,30.3-3.9c-1.8-3.8-3.6-7.1-5.4-9.9
			c-0.7-1.1-1.1-1.9-1.1-2.6c0-2.7,1.7-4.1,5-4.1c1.2,0,2.3,0.8,3.2,2.4c5.2,7.4,9.6,15.7,13.1,24.9c0.4,1.2,0.7,2.3,0.7,3.5
			c0,2.9-1.9,4.3-5.7,4.3c-1.7,0-3-1.2-3.9-3.7c-0.8-2.3-1.6-4.3-2.3-6.2c-0.6,0.2-1.2,0.3-1.8,0.3c-16.6,2.9-32.5,5-47.6,6.4
			c-3.3,0-5-2-5-5.9c0-3.2,1.6-4.8,4.9-4.9c1.3,0,2.4,0,3.5-0.1c2.2-2.9,4.1-5.8,5.8-8.7c3.3-6,6.4-12.3,9.1-18.9
			C1103.3,729.6,1104.9,728.8,1106.9,728.8z M1094.3,776.1h36.5c5.7,0,8.5,2.3,8.5,7v62.5c0,6.5-4.1,9.7-12.4,9.7
			c-4,0-8.7-0.7-14.1-2.2c-2.2-0.8-3.2-2.2-3.2-4.2c0-3.4,1.4-5.1,4.1-5.1c0.8,0,1.8,0.2,3,0.5c4,1.2,7,1.8,9.2,1.8
			c2.5,0,3.8-1.8,3.8-5.5v-12.8H1095v23.8c0,3.2-1.6,4.9-4.9,4.9c-3.2,0-4.9-1.6-4.9-4.9v-68.4
			C1085.2,778.5,1088.3,776.1,1094.3,776.1z M1095,797.5h34.6v-8.9c0-2.2-0.5-3.2-1.6-3.2h-31.4c-1.1,0-1.6,1.1-1.6,3.2V797.5z
			 M1095,819.2h34.6v-13.1H1095V819.2z M1153.9,732c3.2,0,4.9,1.6,4.9,4.9v12c7.9-1.4,14.2-2.9,18.9-4.6c6-2.4,11.9-5.6,17.4-9.6
			c3.9,0,5.8,1.9,5.8,5.8c0,2.4-1.4,4.2-4.2,5.3c-3.9,2.5-8.6,4.8-14.1,6.9c-4.1,1.6-8.7,3-13.7,4.2c-5.9,1.1-9.3,1.6-10.3,1.6v15.3
			c0,3.7,0.8,6,2.3,6.9c2.2,1.1,6,1.6,11.6,1.6c8.3,0,14.2-0.3,17.7-0.8c2.2-0.2,3.6-0.8,4.2-1.9c1-0.9,1.5-4.3,1.5-10.3
			c0.2-3.1,1.8-4.7,4.9-4.9c3.1,0.3,4.7,2.4,4.9,6.4c0,3.2-0.3,6.3-0.9,9.3c-0.7,4.2-2.8,7.3-6.1,9.1c-2.8,1.5-10.4,2.3-22.7,2.3
			c-11.1,0-18.3-0.9-21.6-2.6c-3.6-2.4-5.4-6.8-5.4-13.1v-38.9C1149.1,733.6,1150.7,732,1153.9,732z M1153.9,796.4
			c3.2,0,4.9,1.6,4.9,4.9v13.1c8.1-1.4,14.5-3,19.2-4.9c6.2-2.5,12.1-5.8,17.6-9.9c4,0,6,2,6,5.9c0,2.7-1.4,4.6-4.3,5.7
			c-3.9,2.5-8.6,4.8-14.2,6.9c-4.2,1.6-8.9,3-13.9,4.2c-5.9,1.1-9.3,1.6-10.3,1.6v13.7c0,3.7,0.7,6,2,6.9c1.9,1.1,5.3,1.6,10.3,1.6
			c8.8,0,15.1-0.3,18.9-0.8c2.3-0.2,3.8-0.9,4.5-2c1.1-1,1.6-4.6,1.6-10.7c0.2-3.1,1.8-4.7,4.9-4.9c3.1,0.3,4.7,2.4,4.9,6.4
			c0,3.2-0.3,6.4-0.9,9.6c-0.8,4.3-2.9,7.4-6.4,9.2c-3.1,1.6-11.1,2.4-24.1,2.4c-10.4,0-17.2-0.9-20.4-2.6c-3.3-2.4-5-6.8-5-13.1
			v-38.4C1149.1,798,1150.7,796.4,1153.9,796.4z"/>
		<path fill="#FFFFFF" d="M1267.4,752.3h47.1c0.7-6,1.2-12.2,1.5-18.8c0.3-2.8,1.9-4.2,5-4.2c3.8,0,5.7,1.7,5.7,5
			c0,4.9-0.5,10.9-1.4,18h45.8c7.1,0,10.7,4.1,10.7,12.4c0,19.9-0.7,38.1-2,54.5c-1.2,14.5-3.8,24-8,28.5c-4.5,4.7-11,7-19.5,7
			c-8.7,0-18.2-1.4-28.7-4.3c-2.9-1.4-4.3-3.2-4.3-5.5c0-4.3,2.1-6.5,6.2-6.5c11.3,3.2,19.8,4.7,25.7,4.7c6,0,10.2-2,12.6-6.1
			c2.6-4.1,4.4-11.7,5.3-23c0.9-12.5,1.4-27.6,1.4-45.2c0-4.2-1.8-6.4-5.5-6.4h-40.8c-1.5,12.4-4.1,24-7.6,35
			c-5.1,13.9-11.2,24.9-18.1,33.1c-8,9.5-17.1,17.2-27.3,23.1c-1.7,1-3.1,1.5-4.1,1.5c-4.4,0-6.6-2.1-6.6-6.2c0-1.9,0.9-3.3,2.8-4.3
			c11.8-7.5,21.1-15.5,28-24.2c6.7-8.2,12-18.4,16.1-30.6c2.6-7.7,4.6-16.8,6.1-27.4h-46c-3.8,0-5.7-1.7-5.7-5.1
			C1261.7,754,1263.6,752.3,1267.4,752.3z"/>
	</g>
	<g>
		<g>
			<circle fill="#FFB229" cx="1109.9" cy="240.7" r="50.9"/>
		</g>
	</g>
	<g>
		<g>
			<circle fill="#FFB229" cx="942" cy="448.7" r="83.2"/>
		</g>
	</g>
	<g>
		<g>
			<polygon fill="#FFB229" points="914.2,435.3 1103.3,240.7 1109.9,247.9 952.9,467.4 			"/>
		</g>
	</g>
	<g>
		<g>
			<path fill="#FFB229" d="M779.3,94.7"/>
		</g>
	</g>
	<g>
		<g>
			<polyline fill="#FFB229" points="1077.2,224.7 801.4,111.5 780.1,141.2 1075.4,238.5 			"/>
		</g>
	</g>
	<g>
		<g>
			<circle fill="#FFB229" cx="779.3" cy="127.9" r="66.3"/>
		</g>
	</g>
</g>
</svg>
