<?xml version="1.0" encoding="utf-8"?>
<!-- Generator: Adobe Illustrator 18.0.0, SVG Export Plug-In . SVG Version: 6.00 Build 0)  -->
<!DOCTYPE svg PUBLIC "-//W3C//DTD SVG 1.1//EN" "http://www.w3.org/Graphics/SVG/1.1/DTD/svg11.dtd">
<svg version="1.1" id="Layer_1" xmlns="http://www.w3.org/2000/svg" xmlns:xlink="http://www.w3.org/1999/xlink" x="0px" y="0px"
	 viewBox="0 319.9 480 480.1" enable-background="new 0 319.9 480 480.1" xml:space="preserve">
<g id="跨領域能力">
	<rect x="112.5" y="393.2" display="none" fill="#FFB229" width="254.9" height="267.7"/>
	<g>
		<path fill="#3A3634" d="M7.3,730.1h14.6c3,0,4.3,1.4,4.3,4.1v19.3c0,2.7-1.4,4.1-4.3,4.1h-2.3V769H25c1.8,0,2.5,0.9,2.5,2.5
			S26.6,774,25,774h-5.5v13.4c2.3-0.9,4.8-1.8,7.5-3.2l1.1-0.5c2,0,3,1.1,3,3.2c0,0.7-0.5,1.4-1.6,2c-2.5,1.4-5.9,3.2-10,4.8
			c-5.2,2-10,3.4-14.6,4.6c-0.9,0.2-1.4,0.2-2,0.2c-2,0-3-1.1-3-3.2c0-1.6,0.9-2.5,2.3-3c0.7-0.2,1.4-0.2,1.8-0.5v-24.4
			c0-1.8,0.9-2.5,2.5-2.5s2.5,0.9,2.5,2.5v23c1.8-0.5,3.4-0.9,5-1.4c0.2,0,0.2,0,0.2,0v-32.1H7.3c-3,0-4.3-1.4-4.3-4.1v-19.3
			C3.2,731.7,4.6,730.1,7.3,730.1z M19.1,752.7c0.9,0,1.6-0.7,1.6-1.8V737c0-1.1-0.5-1.8-1.6-1.8h-8.9c-0.9,0-1.6,0.7-1.6,1.8v13.9
			c0,1.1,0.5,1.8,1.6,1.8H19.1z M68.3,735.1c1.8,0,2.5,0.9,2.5,2.5s-0.9,2.5-2.5,2.5h-10c1.4,2,2.5,3.6,3.9,5
			c2.3,2.3,5.2,4.6,8.4,6.6c1.1,0.7,1.6,1.4,1.6,2c0,2-0.9,3.2-3,3.2c-0.9,0-2-0.2-3-0.9c-4.3-3-7.5-6.1-10-9.3
			c-1.6-2.3-3-4.6-4.1-6.8h-5c-0.5,0.9-0.9,1.8-1.4,2.5c-1.8,3.2-4.1,6.1-6.6,8.9c-2,2.3-4.6,4.3-7.5,6.1c-0.7,0.5-1.4,0.7-2,0.7
			c-0.7,0-1.4-0.2-2-0.9c-0.7-0.7-0.9-1.4-0.9-2.3c0-0.9,0.2-1.4,0.9-2c2.5-1.8,4.8-3.6,6.8-5.7c2-2.5,4.1-5,5.7-7.7h-8.2
			c-1.8,0-2.5-0.9-2.5-2.5s0.9-2.5,2.5-2.5h10.7c0.7-1.6,1.4-3.2,1.8-5c0.5-1.4,1.4-2,2.7-2c0.7,0,1.4,0.2,1.8,0.7
			c0.5,0.2,0.9,0.9,0.9,1.8c0,0.5-0.2,1.1-0.2,1.8c-0.2,1.1-0.7,2-0.9,3L68.3,735.1L68.3,735.1z M69,763.8c1.8,0,2.7,0.9,2.7,2.7
			s-0.9,2.7-2.7,2.7H45.3l-2,6.4c0,0.7,0.2,0.9,0.9,0.9h20c3.4,0,5,1.8,5,5.7c0,3.4-0.2,6.6-1.1,9.3c-0.7,2.7-1.8,4.8-3.9,5.9
			c-1.8,1.1-5.5,1.8-10.5,1.8c-3.2,0-7.5-0.5-12.7-1.4c-2-0.2-3-1.4-3-3c0-2,0.9-3,2.7-3c0.2,0,0.2,0,0.5,0.2
			c4.8,1.1,8.6,1.6,11.8,1.6c5.2,0,8-0.9,8.4-2.3c0.9-1.8,1.4-4.3,1.4-8c0-1.1-0.7-1.8-1.8-1.8H40.5c-3,0-4.6-1.1-4.6-3.6
			c0-0.5,0.2-1.1,0.5-2.3l2.3-6.4h-7.1c-1.8,0-2.7-0.9-2.7-2.7s0.9-2.7,2.7-2.7L69,763.8L69,763.8z M60.3,753.3
			c1.8,0,2.5,0.9,2.5,2.5s-0.9,2.5-2.5,2.5H41c-1.8,0-2.5-0.9-2.5-2.5s0.9-2.5,2.5-2.5H60.3z"/>
		<path fill="#3A3634" d="M122.2,727.6c1.1,0,2.3,0.7,3.6,2l10.9,10.7c0.9,0.9,1.1,1.6,1.1,2.3c-0.2,1.8-0.9,2.7-2.7,2.7
			c-0.5,0-0.9-0.2-1.8-0.7l-9.3-10.5c-0.5-0.7-0.9-0.9-1.4-0.9c-0.2,0-0.7,0.2-1.1,0.9c-3.9,5.5-8.2,10.5-13.2,15
			c-0.9,0.9-1.6,1.4-2.5,1.4c-1.8-0.2-2.7-1.1-3-3c0-0.9,0.5-1.6,1.4-2.3c5.9-5.2,10.7-10,13.9-14.6
			C119.7,728.5,120.9,727.6,122.2,727.6z M109,763.1h20.7c3.4,0,5.2,1.8,5.2,5.5c0,1.6-0.5,3.6-1.6,6.1c-1.8,4.1-4.8,8.4-8.2,13.4
			c-0.2,0.5-0.7,0.7-0.9,0.9c1.6,1.4,3.2,3,4.8,4.6c0.7,0.9,0.9,1.4,0.9,1.8c0,1.8-0.9,2.7-2.7,2.7c-0.9,0-1.8-0.2-2.5-1.1
			c-3.2-3.4-5.9-5.9-8.2-7.7c-2-1.6-4.1-3.4-6.6-5c-0.7-0.7-0.9-1.1-0.9-1.8c0-1.8,0.9-2.5,2.5-2.5c0.5,0,1.1,0.2,1.8,0.5
			c2.5,1.8,4.8,3.4,6.6,5c3.6-4.3,6.4-8.2,8.2-12.1c0.9-1.4,1.4-2.7,1.4-3.4c0-1.1-0.7-1.6-1.8-1.6H109c-1.8,0-2.7-0.9-2.7-2.5
			C106.3,764,107.4,763.1,109,763.1z M130.2,749.2c1.8,0,2.5,0.9,2.5,2.5s-0.9,2.5-2.5,2.5h-18.4c-1.8,0-2.5-0.9-2.5-2.5
			s0.9-2.5,2.5-2.5H130.2z M171.6,730.4c1.6,0,2.5,0.9,2.5,2.5s-0.9,2.5-2.5,2.5h-12.7l-1.6,6.6h9.8c3.2,0,4.8,1.6,4.8,4.6v34.1
			c0,3.2-1.6,4.6-4.8,4.6h-1.6c0,0.2,0,0.2,0,0.2c1.4,3.6,3.9,6.8,7.7,9.3c0.9,0.7,1.4,1.4,1.4,2c0,0.9-0.2,1.6-0.5,1.8
			c-0.5,0.7-1.1,1.1-2,1.1s-1.8-0.5-2.7-1.4c-2.3-1.6-4.8-4.3-7.1-8c-1.4-2.3-1.8-3.9-1.8-4.6c0-0.2,0-0.2,0-0.5h-8.2
			c0.2,0.5,0.2,0.9,0.2,1.4c0,0.9-0.5,2-1.4,3.2c-3.2,3.6-6.4,6.4-9.3,8.4c-0.7,0.5-1.4,0.9-1.8,0.9c-1.8,0-2.7-0.9-2.7-2.5
			c0-0.7,0.2-1.4,0.7-1.8c3.9-3,7.3-5.9,10-9.1v-0.2h-2.7c-3.2,0-4.8-1.6-4.8-4.6V747c0-3.2,1.6-4.6,4.8-4.6h6.8l1.6-6.6h-12.3
			c-1.6,0-2.5-0.9-2.5-2.5s0.9-2.5,2.5-2.5L171.6,730.4L171.6,730.4z M145.7,754.5h20.9V749c0-1.4-0.7-2-2-2h-16.8c-1.4,0-2,0.7-2,2
			L145.7,754.5L145.7,754.5z M145.7,767h20.9v-7.7h-20.9V767z M164.6,780.2c1.4,0,2-0.7,2-2v-6.4h-20.9v6.1c0,1.4,0.7,2,2,2h16.8
			L164.6,780.2L164.6,780.2z"/>
		<path fill="#3A3634" d="M226,745.4c1.8,0,2.7,0.9,2.7,2.7s-0.9,2.7-2.7,2.7h-5v28c1.4-1.1,3-2.3,4.6-3.6l1.1-0.5c2,0,3,1.1,3,3.2
			c0,0.7-0.2,1.4-1.1,2.3c-1.8,1.8-4.1,3.4-7.1,5.5c-3.6,2.3-7.1,4.1-10.5,5.5c-0.5,0.2-0.9,0.5-1.4,0.5c-2,0-3-1.1-3-3.2
			c0-1.6,0.9-2.5,2.3-3c2.5-0.9,4.8-2,6.6-3v-31.6h-5.9c-1.8,0-2.7-0.9-2.7-2.7s0.9-2.7,2.7-2.7h5.9v-14.1c0-1.8,0.9-2.7,2.7-2.7
			s2.7,0.9,2.7,2.7v14.1h5.1V745.4z M274.7,737.4c1.8,0,2.7,0.9,2.7,2.7s-0.9,2.7-2.7,2.7h-13.9c0.7,13,1.4,21.8,2,26.6
			c0,0.5,0.2,0.9,0.2,1.4c0.7-1.4,1.4-3,2-4.3c1.8-4.3,3.2-10,4.6-16.8c0.5-1.1,1.4-1.8,2.5-1.8c0.9,0,1.4,0.2,2,0.7
			c0.7,0.5,0.9,1.1,0.9,1.8s-0.2,1.4-0.5,2c-1.4,7.1-3.2,13-5,17.8c-1.4,3.6-3.2,7.1-4.8,9.8c0.7,3,1.6,5.7,2.5,8.6
			c0.9,1.6,1.4,2.5,2,2.5c0.5,0,0.9-0.5,1.1-1.4c0.5-1.4,0.9-5.7,1.6-12.5c0.2-2,1.1-3,2.7-3c1.8,0,2.7,0.9,2.7,2.7
			c-0.5,7.7-1.4,13.4-2.7,17.1c-1.1,3.6-3,5.5-5.2,5.5c-2,0-3.6-1.1-5-3.6c-1.6-2.5-3-5.7-4.1-9.8c-1.4,1.4-2.5,3-3.9,4.3
			c-3,3-6.6,5.5-11.2,8c-1.1,0.5-1.8,0.7-2,0.7c-0.9,0-1.4-0.2-2-0.9c-0.7-0.7-0.9-1.4-0.9-2c0-1.4,0.7-2.3,1.8-2.5
			c4.3-2.5,7.7-5,10.7-7.7c2.3-2.3,4.3-4.8,6.1-7.1c-1.4-6.4-2.3-13.4-2.7-21.2c-0.5-5-0.9-10-0.9-14.6h-25c-1.8,0-2.7-0.9-2.7-2.7
			s0.9-2.7,2.7-2.7h24.1c0-2.5,0-4.8,0-7.1c0-1.8,0.9-2.7,2.7-2.7c1.8,0,2.7,0.9,2.7,2.7c0.2,2.5,0.2,4.8,0.2,7.1L274.7,737.4
			L274.7,737.4z M251.3,777.2c1.8,0.2,2.7,0.9,2.7,2.5c0,1.4-0.7,2.3-1.8,3c-2.5,1.6-5.7,3.2-9.6,4.3c-3.2,1.1-6.8,2-11.2,3
			c-2-0.2-3.2-1.1-3.2-3.4c0-1.8,0.9-3,2.5-3.2c3.9-0.7,7.1-1.4,9.1-2.3c3.9-1.1,7.1-2.5,9.8-3.9
			C250.4,777.5,250.8,777.2,251.3,777.2z M235.6,747.7h10.9c3,0,4.6,1.4,4.6,4.3v19.1c0,3-1.6,4.3-4.6,4.3h-10.9
			c-3,0-4.3-1.4-4.3-4.3V752C231.2,749,232.6,747.7,235.6,747.7z M243.5,770.4c1.6,0,2.3-0.9,2.3-2.5v-13c0-1.6-0.9-2.5-2.3-2.5h-5
			c-1.6,0-2.3,0.9-2.3,2.5v13c0,1.6,0.9,2.5,2.3,2.5H243.5z M264.5,728.3c0.7,0,1.4,0.2,2,0.7c2,0.9,4.1,1.8,5.7,2.7
			c0.9,0.7,1.4,1.4,1.4,2.3c0,1.8-0.9,2.5-2.5,2.5c-0.9,0-1.4-0.2-2-0.7c-1.8-0.9-3.6-1.8-5.9-2.5c-1.1-0.9-1.8-1.6-1.8-2.3
			C261.7,729.2,262.6,728.3,264.5,728.3z"/>
		<path fill="#3A3634" d="M323.2,727.2c0.9,0,1.6,0.2,2.3,0.9c0.7,0.7,0.9,1.4,0.9,2.3c0,0.9-0.2,1.4-0.9,2c-1.4,3-3,5.9-4.6,8.6
			c-0.7,1.1-1.4,2.3-2,3.2c6.4-0.2,12.1-1.1,17.3-2.3c-1.1-2-2-4.1-3.2-5.7c-0.5-0.7-0.7-1.1-0.7-1.4c0-1.6,0.9-2.3,3-2.3
			c0.7,0,1.4,0.5,1.8,1.4c3,4.3,5.5,8.9,7.5,14.1c0.2,0.7,0.5,1.4,0.5,2c0,1.6-1.1,2.5-3.2,2.5c-0.9,0-1.8-0.7-2.3-2
			s-0.9-2.5-1.4-3.4c-0.2,0-0.7,0.2-1.1,0.2c-9.3,1.6-18.4,3-27.1,3.6c-1.8,0-3-1.1-3-3.4c0-1.8,0.9-2.7,2.7-2.7c0.7,0,1.4,0,2,0
			c1.1-1.6,2.3-3.2,3.4-5c1.8-3.4,3.6-7.1,5.2-10.7C321.1,727.6,322,727.2,323.2,727.2z M316.1,754.3h20.7c3.2,0,4.8,1.4,4.8,4.1
			v35.5c0,3.6-2.3,5.5-7.1,5.5c-2.3,0-5-0.5-8-1.1c-1.1-0.5-1.8-1.4-1.8-2.5c0-2,0.9-3,2.3-3c0.5,0,1.1,0.2,1.8,0.2
			c2.3,0.7,4.1,1.1,5.2,1.1c1.4,0,2.3-1.1,2.3-3.2v-7.3h-19.8v13.7c0,1.8-0.9,2.7-2.7,2.7c-1.8,0-2.7-0.9-2.7-2.7v-39.1
			C310.9,755.6,312.7,754.3,316.1,754.3z M316.6,766.3h19.6v-5c0-1.4-0.2-1.8-0.9-1.8h-18c-0.7,0-0.9,0.7-0.9,1.8v5H316.6z
			 M316.6,778.6h19.6v-7.5h-19.6V778.6z M350,729.2c1.8,0,2.7,0.9,2.7,2.7v6.8c4.6-0.9,8-1.6,10.7-2.5c3.4-1.4,6.8-3.2,10-5.5
			c2.3,0,3.4,1.1,3.4,3.2c0,1.4-0.9,2.5-2.3,3c-2.3,1.4-4.8,2.7-8,3.9c-2.3,0.9-5,1.8-7.7,2.3c-3.4,0.7-5.2,0.9-5.9,0.9v8.6
			c0,2,0.5,3.4,1.4,3.9c1.1,0.7,3.4,0.9,6.6,0.9c4.8,0,8-0.2,10-0.5c1.1,0,2-0.5,2.3-1.1c0.7-0.5,0.9-2.5,0.9-5.9
			c0-1.8,1.1-2.7,2.7-2.7c1.8,0.2,2.7,1.4,2.7,3.6c0,1.8-0.2,3.6-0.5,5.2c-0.5,2.5-1.6,4.1-3.4,5.2c-1.6,0.9-5.9,1.4-13,1.4
			c-6.4,0-10.5-0.5-12.3-1.4c-2-1.4-3.2-3.9-3.2-7.5v-22.1C347.3,729.9,348.2,729.2,350,729.2z M350,765.9c1.8,0,2.7,0.9,2.7,2.7
			v7.5c4.6-0.9,8.2-1.8,10.9-2.7c3.4-1.4,6.8-3.4,10-5.7c2.3,0,3.4,1.1,3.4,3.4c0,1.6-0.9,2.5-2.5,3.2c-2.3,1.4-4.8,2.7-8,3.9
			c-2.3,0.9-5,1.8-8,2.5c-3.4,0.7-5.2,0.9-5.9,0.9v7.7c0,2,0.5,3.4,1.1,3.9c1.1,0.7,3,0.9,5.9,0.9c5,0,8.6-0.2,10.7-0.5
			c1.4-0.2,2.3-0.5,2.5-1.1c0.7-0.7,0.9-2.5,0.9-6.1c0-1.8,1.1-2.7,2.7-2.7c1.8,0.2,2.7,1.4,2.7,3.6c0,1.8-0.2,3.6-0.5,5.5
			c-0.5,2.5-1.6,4.3-3.6,5.2c-1.8,0.9-6.4,1.4-13.7,1.4c-5.9,0-9.8-0.5-11.6-1.4c-1.8-1.4-3-3.9-3-7.5v-21.8
			C347.3,766.8,348.2,765.9,350,765.9z"/>
		<path fill="#3A3634" d="M414.7,740.6h26.9c0.5-3.4,0.7-6.8,0.9-10.7c0.2-1.6,1.1-2.5,3-2.5c2.3,0,3.2,0.9,3.2,3
			c0,2.7-0.2,6.1-0.9,10.2H474c4.1,0,6.1,2.3,6.1,7.1c0,11.4-0.5,21.6-1.1,31c-0.7,8.2-2.3,13.7-4.6,16.2c-2.5,2.7-6.4,4.1-11.2,4.1
			c-5,0-10.2-0.9-16.4-2.5c-1.6-0.9-2.5-1.8-2.5-3.2c0-2.5,1.1-3.6,3.4-3.6c6.4,1.8,11.4,2.7,14.6,2.7c3.4,0,5.7-1.1,7.1-3.4
			c1.4-2.3,2.5-6.6,3-13.2c0.5-7.1,0.9-15.7,0.9-25.7c0-2.5-1.1-3.6-3.2-3.6h-23.2c-0.9,7.1-2.3,13.7-4.3,20
			c-3,8-6.4,14.1-10.2,18.9c-4.6,5.5-9.8,9.8-15.5,13.2c-0.9,0.7-1.8,0.9-2.3,0.9c-2.5,0-3.6-1.1-3.6-3.6c0-1.1,0.5-1.8,1.6-2.5
			c6.8-4.3,12.1-8.9,15.9-13.9c3.9-4.6,6.8-10.5,9.1-17.3c1.4-4.3,2.5-9.6,3.4-15.7h-26.2c-2.3,0-3.2-0.9-3.2-3
			C411.3,741.7,412.4,740.6,414.7,740.6z"/>
	</g>
	<g>
		<g>
			<g>
				<circle fill="#FFB229" cx="324.8" cy="499.5" r="24.9"/>
			</g>
		</g>
		<g>
			<g>
				<circle fill="#FFB229" cx="242.6" cy="601.5" r="40.7"/>
			</g>
		</g>
		<g>
			<g>
				<polygon fill="#FFB229" points="229.1,595 321.5,499.5 324.8,503.1 247.8,610.7 				"/>
			</g>
		</g>
		<g>
			<g>
				<path fill="#FFB229" d="M162.8,428.1"/>
			</g>
		</g>
		<g>
			<g>
				<polyline fill="#FFB229" points="308.8,491.7 173.8,436.3 163.2,450.8 308,498.6 				"/>
			</g>
		</g>
		<g>
			<g>
				<circle fill="#FFB229" cx="162.8" cy="444.4" r="32.5"/>
			</g>
		</g>
	</g>
</g>
</svg>
