<?xml version="1.0" encoding="utf-8"?>
<!-- Generator: Adobe Illustrator 18.0.0, SVG Export Plug-In . SVG Version: 6.00 Build 0)  -->
<!DOCTYPE svg PUBLIC "-//W3C//DTD SVG 1.1//EN" "http://www.w3.org/Graphics/SVG/1.1/DTD/svg11.dtd">
<svg version="1.1" id="Layer_1" xmlns="http://www.w3.org/2000/svg" xmlns:xlink="http://www.w3.org/1999/xlink" x="0px" y="0px"
	 viewBox="0 0 1920 918" enable-background="new 0 0 1920 918" xml:space="preserve">
<g id="國際觀">
	<g>
		<path fill="#FFFFFF" d="M573.4,769.5c3.3,0,5,1.6,5,4.9s-1.7,4.9-5,4.9h-10.1v48c2.8-1.7,6-3.9,9.7-6.6l2-0.8c3.7,0,5.5,2,5.5,5.9
			c0,1.2-0.7,2.4-2,3.8c-3.4,2.9-7.8,5.9-13.3,9.2c-6.9,3.9-13.3,6.9-19.3,9.1c-1,0.5-1.8,0.7-2.6,0.7c-3.7,0-5.5-1.9-5.5-5.8
			c0-2.8,1.4-4.6,4.2-5.4c4.4-1.6,8.2-3.2,11.5-4.7v-53.3h-10.3c-3.2,0-4.9-1.6-4.9-4.9s1.6-4.9,4.9-4.9h10.3v-28.1
			c0-3.2,1.6-4.9,4.9-4.9s4.9,1.6,4.9,4.9v28.1H573.4z M644.1,759.3c1.4,0,2.5,0.5,3.5,1.6c1.1,1,1.6,2.2,1.6,3.5
			c0,1.3-0.5,2.4-1.4,3.4c-2.2,4.9-4.5,9.5-7,13.8c-1.3,2.3-2.7,4.3-4.2,6.1h21.2c3.1,0,4.6,1.5,4.6,4.6c0,3.1-1.5,4.6-4.6,4.6
			h-77.3c-3.1,0-4.6-1.5-4.6-4.6c0-3.1,1.5-4.6,4.6-4.6h44.4c2.3-3,4.2-5.8,5.8-8.5c3.2-5.6,6.2-11.4,8.8-17.4
			C640.7,760.1,642.2,759.3,644.1,759.3z M618.4,734.4c3.6,0,5.4,1.8,5.4,5.4v7.8h30.3c3.1,0,4.6,1.5,4.6,4.6c0,3.1-1.5,4.6-4.6,4.6
			h-69.2c-3.1,0-4.6-1.5-4.6-4.6c0-3.1,1.5-4.6,4.6-4.6H613v-7.8C613,736.2,614.8,734.4,618.4,734.4z M594.6,809.3h50.8
			c5.8,0,8.7,2.8,8.7,8.4v33c0,5.6-2.9,8.4-8.7,8.4h-50.8c-5.8,0-8.7-2.8-8.7-8.4v-33C585.9,812.1,588.8,809.3,594.6,809.3z
			 M595.1,759.3c1.4,0,2.6,0.9,3.7,2.7c2.6,4.9,4.8,10.3,6.5,16.4c0.5,1.2,0.7,2.3,0.7,3.4c0,2.7-1.8,4.1-5.4,4.1
			c-1.6,0-2.8-1.1-3.7-3.4c-1.9-6.7-3.9-11.9-5.9-15.8c-0.9-1.2-1.4-2.1-1.4-2.8C589.6,760.7,591.4,759.3,595.1,759.3z M640.6,849.8
			c2.5,0,3.8-1.4,3.8-4.1v-23.3c0-2.7-1.3-4.1-3.8-4.1h-41.1c-2.5,0-3.8,1.4-3.8,4.1v23.3c0,2.7,1.3,4.1,3.8,4.1H640.6z"/>
		<path fill="#FFFFFF" d="M755.3,733.3c0.8,0,1.7,0.6,2.7,1.8c2.3,1.6,4.4,3.5,6.4,5.5c0.7,1.2,1.1,2.2,1.1,3v0.8h27.4
			c0.5-0.5,0.9-1.1,1.4-1.6c1.9-2.4,3.7-5,5.3-7.7c1.1-1.5,2.5-2.3,4.3-2.3c1.3,0,2.4,0.5,3.4,1.5c1,1,1.5,2.1,1.5,3.2
			c0,1.3-0.4,2.4-1.2,3.4c-0.8,1.3-1.7,2.4-2.7,3.5h27.7c2.7,0,4.1,1.4,4.1,4.1s-1.4,4.1-4.1,4.1h-47.9v6.2h42.5
			c2.5,0,3.8,1.3,3.8,3.8c0,2.5-1.3,3.8-3.8,3.8h-42.5v6.8H839c2.7,0,4.1,1.4,4.1,4.1s-1.4,4.1-4.1,4.1h-29.1
			c3.5,3.4,7,6.4,10.5,8.9c5.8,3.9,12.7,7.4,20.7,10.7c1.8,0.9,2.7,2,2.7,3.4c0,3.6-1.6,5.4-4.9,5.4c-1.6,0-3.3-0.5-5-1.6
			c-10.4-4.9-18.3-9.9-23.9-15.1c-4.1-3.9-7.5-7.8-10.1-11.6h-41.2c-0.1,0.4-0.2,0.6-0.3,0.7c-4,6-8.7,11.1-14.3,15.3
			c-5.1,4.1-12.1,7.9-20.8,11.4c-1,0.4-1.8,0.5-2.6,0.5c-2.8,0-4.2-1.5-4.2-4.5c0-1.3,0.9-2.4,2.6-3.4c9.7-3.6,17-7.3,21.8-11.2
			c3-2.3,5.9-5.2,8.9-8.8H720c-2.7,0-4.1-1.4-4.1-4.1s1.4-4.1,4.1-4.1h54.4v-6.8h-42.5c-2.5,0-3.8-1.3-3.8-3.8
			c0-2.5,1.3-3.8,3.8-3.8h42.5v-6.2h-48.9c-2.7,0-4.1-1.4-4.1-4.1s1.4-4.1,4.1-4.1h29.9c-1.4-1.3-2.7-2.4-4.1-3.4
			c-1-1.3-1.5-2.2-1.5-2.7C749.7,735,751.6,733.3,755.3,733.3z M747,835.5v12.2c8.7-0.8,15.9-1.7,21.8-2.7c0.8-0.3,1.6-0.4,2.3-0.4
			c2.5,0.2,3.9,1.5,4.1,3.9c0,1.9-0.9,3.4-2.7,4.6c-5.6,1.3-13,2.5-22.3,3.7c-7.1,0.9-15.7,1.8-25.8,2.6c-3.1-0.2-4.7-1.8-4.9-4.9
			c0-2.9,1.3-4.6,3.9-5c5.9-0.3,10.9-0.6,15-0.9V809c0-5.4,2.9-8.1,8.7-8.1h64.9c5.8,0,8.7,2.7,8.7,8.1v18.4c0,5.4-2.9,8.1-8.7,8.1
			h-25.6c6,3.9,12.2,7,18.5,9.3c0.3,0.1,0.6,0.2,0.9,0.3c0.4-0.5,0.8-0.8,1.4-1.1c8.6-3.4,15.8-7.7,21.6-12.7
			c1.4-0.8,2.3-1.2,2.8-1.2c3.1,0,4.6,1.5,4.6,4.6c0,1.4-0.7,2.7-2.2,3.7c-4,3.6-9.1,7-15.4,10.1c5.7,1.1,12.5,2,20.4,2.8
			c1.1,0,2.1,0.4,3.1,1.1c1.4,0.8,2.2,2,2.2,3.7c0,1.9-0.5,3.2-1.6,4.1c-0.9,0.8-2.3,1.3-4.1,1.4c-6.7,0-14.3-1.2-22.9-3.5
			c-8.2-2.2-15.1-4.8-20.8-7.8c-6.6-3.5-13.3-8.4-20.3-14.6H747z M805.6,808.5h-56.9c-1.1,0-1.6,0.7-1.6,2.2v4.3h64.9v-3.8
			c0-1.8-0.7-2.7-2.2-2.7H805.6z M747,821.4v6.5h62.7c1.4,0,2.2-0.9,2.2-2.7v-3.8H747z M796.2,786.8c2.5,0,3.8,1.3,3.8,3.8
			c0,2.5-1.3,3.8-3.8,3.8h-34.1c-2.5,0-3.8-1.3-3.8-3.8c0-2.5,1.3-3.8,3.8-3.8H796.2z"/>
		<path fill="#FFFFFF" d="M910.8,738.4h97.9c6.1,0,9.2,3,9.2,8.9V849c0,6-3.1,8.9-9.2,8.9h-97.9c-6.1,0-9.2-3-9.2-8.9V747.4
			C901.6,741.4,904.6,738.4,910.8,738.4z M1004.4,848.8c2.5,0,3.8-1.4,3.8-4.1v-93c0-2.7-1.3-4.1-3.8-4.1h-89.2
			c-2.5,0-3.8,1.4-3.8,4.1v93c0,2.7,1.3,4.1,3.8,4.1H1004.4z M999.5,762.5c2.9,0,4.3,1.4,4.3,4.3c0,2.9-1.4,4.3-4.3,4.3h-26.9
			c0.4,9.6,1.2,17.9,2.4,25c1,5.9,2.2,11.1,3.7,15.8c0.5-1,1-2,1.5-3c3-8.2,4.5-17,4.5-26.4c0-3,1.5-4.5,4.6-4.5
			c3.1,0,4.6,1.5,4.6,4.6c0,10.4-1.6,20.1-4.7,29.2c-1.5,4-3.6,7.8-6.1,11.4c1.4,3.1,3.1,5.9,4.9,8.5c1.4,2.3,2.4,3.5,3.2,3.5
			c0.6,0,1.1-1.1,1.4-3.2c0.6-4.7,0.9-9.4,0.9-14.2c0.3-3.1,1.8-4.6,4.5-4.6c2.9,0.7,4.3,2.8,4.3,6.1c0,6.9-0.9,13.7-2.7,20.3
			c-1.6,4.8-4,7.2-7,7.2c-3.1,0-6.3-1.9-9.6-5.7c-2.3-2.8-4.3-6-6.1-9.7c-3.6,4.1-7.8,7.9-12.7,11.5c-1.1,1.5-2.4,2.3-4.1,2.3
			c-3.6,0-5.4-1.8-5.4-5.4c0-0.4,0.4-1.3,1.2-2.8c6.8-4.8,12.4-9.9,16.8-15.4c-3.2-8.3-5.6-18.3-7.4-30c-0.8-6.4-1.4-13.2-1.8-20.4
			H920c-2.9,0-4.3-1.4-4.3-4.3c0-2.9,1.4-4.3,4.3-4.3h43.1c-0.1-2.5-0.1-5-0.1-7.4c0-3.2,1.5-4.7,4.6-4.7c3.1,0,4.6,1.6,4.6,4.7
			c0,2.5,0,5,0.1,7.4h14.2c-1.6-2.2-3.2-4.2-4.7-6.1c-0.8-1.1-1.2-1.9-1.2-2.4c0-3,1.7-4.5,5-4.5c0.8,0,1.6,0.5,2.4,1.5
			c2.1,2.9,4.1,6.1,6.2,9.6c0.5,0.8,0.7,1.4,0.8,1.9H999.5z M958.9,821c2.7,0.2,4.1,1.6,4.3,4.2c0,2-0.9,3.5-2.8,4.6
			c-4.6,2.4-10.6,4.7-18.1,6.8c-5.8,1.6-12.8,3.2-21,4.6c-3.2-0.2-4.9-1.9-5-5.1c0-3.1,1.4-4.8,4.1-5.3c7.5-1,13.3-2.1,17.3-3.2
			c7.4-1.7,13.7-3.7,18.8-5.9C957.4,821.2,958.2,821,958.9,821z M927.5,779.8H953c4.7,0,7,2.3,7,7v23.3c0,4.7-2.3,7-7,7h-25.4
			c-4.7,0-7-2.3-7-7v-23.3C920.5,782.1,922.9,779.8,927.5,779.8z M948.1,808.5c2.2,0,3.2-1.1,3.2-3.2v-13.5c0-2.2-1.1-3.2-3.2-3.2
			h-15.7c-2.2,0-3.2,1.1-3.2,3.2v13.5c0,2.2,1.1,3.2,3.2,3.2H948.1z"/>
		<path fill="#FFFFFF" d="M1091.3,738.4h15.8c4.9,0,7.3,2.4,7.3,7.2c0,1.3-0.4,2.9-1.2,5l-8.8,25.6c-0.5,1.2-0.7,2.5-0.7,3.9
			c0,1.5,0.5,3.2,1.4,5c3.8,6.6,6.3,11.9,7.4,16.1c1,4.1,1.5,8.3,1.5,12.4c0,5.5-1.5,10.2-4.5,14.1c-3.3,4.5-8.2,6.8-14.5,6.8
			c-1.9,0-4.1-0.3-6.5-0.8v22.4c0,3.2-1.6,4.9-4.9,4.9c-3.3,0-5-1.6-5-4.9V747.4c0-5.9,3.1-8.9,9.3-8.9H1091.3z M1088.6,823.5
			c2.7,0.8,4.5,1.2,5.3,1.2c3.2,0,5.8-1.3,7.6-3.8c1.9-2.3,2.8-5,2.8-8.1c0-2.8-0.4-5.8-1.2-9.1c-0.9-4.1-3.5-9.7-7.8-17
			c-0.8-1.5-1.2-3.1-1.2-4.7c0-1.9,0.2-3.6,0.5-5l8.9-27.3c0-1.4-0.7-2-2.2-2h-10c-1.8,0-2.7,1-2.7,3V823.5z M1131.9,734.9
			c1.1,0,2,0.3,2.8,0.9c0.8,0.6,1.2,1.6,1.2,2.8h16.5c3.9,0,5.8,2.2,5.8,6.6c0,2.8-0.9,6.5-2.8,11.1c-3.2,7.7-7,14.6-11.6,20.7
			c-6.1,8.5-13.9,15.5-23.4,21.1c-1.7,1-2.9,1.5-3.7,1.5c-3.2,0-4.9-1.8-4.9-5.3c0-1.8,1.3-3.3,3.8-4.5c5.5-3.4,10.1-6.9,13.9-10.5
			c-2.4-2.8-4.5-5-6.1-6.5c-1.3-1.2-2.5-2.3-3.8-3.5c-1,0.9-1.9,1.7-2.8,2.3c-0.9,0.7-1.8,1.1-2.8,1.1c-1.1,0-2.1-0.5-3-1.5
			c-0.9-1-1.4-2.1-1.4-3.4c0-1.3,0.5-2.3,1.6-3.1c2.5-2,4.7-4.1,6.5-6.5c2.2-2.9,4.1-5.9,5.7-9.1c1.6-3.2,3-7,4.1-11.4
			C1128.2,735.9,1129.6,734.9,1131.9,734.9z M1133.1,824.3c3.5,0,5.3,1.6,5.3,4.9c0,1.8-0.8,3.7-2.4,5.8
			c-5.9,8.7-11.6,15.6-17.2,20.7c-1.2,1-2.3,1.5-3.4,1.5c-3.4,0-5.1-1.6-5.1-4.7c0-1.2,0.4-2.3,1.4-3.4c7-6.8,13-14.2,17.8-22.2
			C1130.4,825.1,1131.7,824.3,1133.1,824.3z M1153.3,817.9h-31.1c-3.1,0-4.6-1.5-4.6-4.6c0-3.1,1.5-4.6,4.6-4.6h73.6
			c3.1,0,4.6,1.5,4.6,4.6c0,3.1-1.5,4.6-4.6,4.6h-32.2v32.7c0,6.5-3.2,9.7-9.5,9.7c-5,0-10.7-1.1-17.3-3.2c-2.6-0.7-3.9-2.2-3.9-4.3
			c0.2-3.1,1.7-4.7,4.6-4.9c8.2,2.2,13,3.2,14.5,3.2c0.9,0,1.4-0.9,1.4-2.7V817.9z M1125.4,763c1.4,1.4,2.8,2.7,4.1,3.9
			c2,1.8,3.8,3.9,5.5,6.4c2.1-2.4,4-5.1,5.8-8.1c-3.1-2.5-5.7-4.6-7.8-6.1c-1.1-0.8-2.3-1.6-3.7-2.4
			C1128.1,759,1126.8,761.1,1125.4,763z M1133,749.2c2.3,1.4,4.2,2.7,5.9,3.9c2.1,1.4,4.1,3.1,6.1,4.9c0.8-1.6,1.6-3.2,2.3-4.9
			c0.8-1.9,1.2-3.4,1.2-4.6c0-0.8-0.4-1.2-1.1-1.2h-12.3c-0.6,0-1.1,0-1.4-0.1C1133.5,747.9,1133.2,748.6,1133,749.2z M1178.9,787.6
			c3.1,0,4.6,1.5,4.6,4.6c0,3.1-1.5,4.6-4.6,4.6H1140c-3.1,0-4.6-1.5-4.6-4.6c0-3.1,1.5-4.6,4.6-4.6H1178.9z M1175.7,739.8h18.9
			c4.9,0,7.3,2.6,7.3,7.7c0,3.2-1,6.4-3.1,9.7c-2.7,4.3-7.4,9.6-14.1,15.7c0.2,0.2,0.4,0.4,0.5,0.5c4.5,5,11,10.2,19.6,15.8
			c0.7,0.9,1.1,1.8,1.1,2.7c0,3.4-1.7,5.1-5,5.1c-1,0-2-0.6-3.1-1.9c-5.6-3.3-11-7.4-16.1-12.3c-5-5-9.1-10.2-12.3-15.4
			c-3.2-5.3-5.5-10.5-6.8-15.5c-1.3-3.6-1.9-7.1-1.9-10.5c0-3.2,1.4-4.9,4.1-4.9c2.4,0,3.8,1.3,4.1,3.8c1,6.4,2.7,12.3,5.3,17.6
			c1.4,2.5,2.8,4.9,4.5,7.2l0.3-0.1c5.6-5.4,9.5-9.6,11.8-12.7c0.6-0.9,0.9-1.7,0.9-2.3c0-1-0.4-1.5-1.1-1.5h-14.9
			c-2.9,0-4.3-1.4-4.3-4.3C1171.4,741.2,1172.8,739.8,1175.7,739.8z M1181.1,823.6c1.4,0,2.6,0.9,3.8,2.8
			c5.3,5.9,9.8,12.4,13.4,19.7c0.5,1.4,0.7,2.6,0.7,3.7c0,3.1-2,4.6-5.9,4.6c-1.8,0-3.2-1.3-4.2-3.9c-3.8-8-7.9-14.4-12.3-19.2
			c-0.8-1.3-1.2-2.3-1.2-3C1175.3,825.2,1177.2,823.6,1181.1,823.6z"/>
		<path fill="#FFFFFF" d="M1320,742.5c2.9,0,4.3,1.4,4.3,4.3c0,2.9-1.4,4.3-4.3,4.3h-11.6v1.1c0,3.1-1.5,4.6-4.6,4.6
			c-3.1,0-4.6-1.5-4.6-4.6v-1.1h-18.4v1.6c0,3.1-1.5,4.6-4.5,4.6c-3.2,0-4.7-1.5-4.7-4.6v-1.6h-12.2c-2.9,0-4.3-1.4-4.3-4.3
			c0-2.9,1.4-4.3,4.3-4.3h12.2v-2.7c0-3.1,1.6-4.6,4.7-4.6c3,0,4.5,1.5,4.5,4.6v2.7h18.4v-2.7c0-3.1,1.5-4.6,4.6-4.6
			c3.1,0,4.6,1.5,4.6,4.6v2.7H1320z M1272.9,787.9c1.4,0,2.7,0.4,3.7,1.1c1.2,1,1.8,2.2,1.8,3.5c0,0.8-0.2,1.7-0.5,2.7
			c-0.4,1.3-0.7,2.3-0.9,3.2h17c0.2-0.3,0.3-0.5,0.4-0.7c1.3-2.2,2.4-4.4,3.5-6.6c0.9-1.4,2.3-2.2,4.1-2.2c1.2,0,2.3,0.5,3.2,1.4
			c0.9,1,1.4,2.1,1.4,3.2c0,1.1-0.4,2.1-1.1,3.1c-0.5,0.6-0.9,1.2-1.2,1.8h13.4c2.7,0,4.1,1.4,4.1,4.1c0,2.7-1.4,4.1-4.1,4.1h-16.5
			v9.2h16c2.7,0,4.1,1.4,4.1,4.1c0,2.7-1.4,4.1-4.1,4.1h-16v8.7h16c2.7,0,4.1,1.4,4.1,4.1s-1.4,4.1-4.1,4.1h-16v9.2h16.2
			c2.8,0,4.2,1.3,4.3,3.8c0.2-0.5,0.5-1,0.8-1.5c6.8-5.7,11.5-12.1,14.1-19.3c1.8-5.7,2.7-11.7,2.7-18.1h-3c-5.2,0-7.8-2.7-7.8-8
			v-60.4c0-5.2,2.6-7.8,7.8-7.8h31.4c5.2,0,7.8,2.6,7.8,7.8v60.4c0,5.3-2.6,8-7.8,8h-5v33.1c0,2.6,2.2,3.9,6.5,3.9
			c2.7,0,4.1-1.4,4.2-4.2l0.3-7.8c0.2-2.6,1.6-4,4.3-4.2c2.7,0.2,4.1,1.8,4.3,4.7c0,9.9-1,15.5-3.1,16.9c-1.7,1.8-5,2.7-9.9,2.7
			c-6,0-10.1-0.8-12.2-2.3c-2-1.4-3-3.7-3-6.6v-36.2h-5.7c0,7.5-0.9,14.5-2.8,21.1c-2.7,8.3-7.7,15.7-15,22.3
			c-1.2,1.5-2.5,2.3-4.1,2.3c-3.2,0-5-1.5-5.4-4.5c-0.5,1.4-1.8,2-3.8,2h-45.4c-5.8,0-8.7-2.8-8.7-8.4v-28.7
			c-0.9,0.7-1.6,1.1-2.2,1.1c-3.6,0-5.4-1.6-5.4-4.7c0-1,0.5-1.9,1.4-2.8c2.6-3,4.9-6.3,6.9-9.9c2.2-3.8,4-8.2,5.4-13.4
			C1269.8,789,1271.1,787.9,1272.9,787.9z M1265.4,761.1h15.7c4.1,0,6.2,1.9,6.2,5.7v13.5c0,3.8-2.1,5.7-6.2,5.7h-15.7
			c-4.1,0-6.2-1.9-6.2-5.7v-13.5C1259.2,763,1261.2,761.1,1265.4,761.1z M1277.3,779c1.3,0,1.9-0.8,1.9-2.4v-5.9
			c0-1.6-0.6-2.4-1.9-2.4h-8.1c-1.3,0-1.9,0.8-1.9,2.4v5.9c0,1.6,0.6,2.4,1.9,2.4H1277.3z M1292.4,815.8v-9.2h-19.1
			c-0.5,1.1-0.9,2-1.4,2.7c-0.1,0.1-0.1,0.2-0.1,0.3v6.2H1292.4z M1292.4,832.5v-8.7h-20.6v8.7H1292.4z M1292.4,849.8v-9.2h-20.6
			v5.1c0,2.7,1.3,4.1,3.8,4.1H1292.4z M1300,762.2h16.2c4.1,0,6.2,1.9,6.2,5.7v13c0,3.8-2.1,5.7-6.2,5.7H1300
			c-4.1,0-6.2-1.9-6.2-5.7v-13C1293.8,764.1,1295.8,762.2,1300,762.2z M1312.4,779.5c1.3,0,1.9-0.8,1.9-2.4v-5.4
			c0-1.6-0.6-2.4-1.9-2.4h-8.7c-1.3,0-1.9,0.8-1.9,2.4v5.4c0,1.6,0.6,2.4,1.9,2.4H1312.4z M1337.6,762h28.7v-11.4c0-2-1-3-3-3h-22.7
			c-2,0-3,1-3,3V762z M1337.6,783.6h28.7v-13h-28.7V783.6z M1363.3,805.5c2,0,3-1,3-3v-10.3h-28.7v10.3c0,2,1,3,3,3H1363.3z"/>
	</g>
	<g>
		<path fill="#7DF99A" d="M969.5,506.7c-124.1,0-225.1-101-225.1-225.1s101-225.1,225.1-225.1c124.1,0,225.1,101,225.1,225.1
			S1093.7,506.7,969.5,506.7z M969.5,61c-121.6,0-220.6,99-220.6,220.6s99,220.6,220.6,220.6c121.6,0,220.6-99,220.6-220.6
			S1091.2,61,969.5,61z"/>
	</g>
	<g>
		<path fill="#7DF99A" d="M969.5,58.8c-123.1,0-222.9,99.8-222.9,222.9s99.8,222.9,222.9,222.9c123.1,0,222.9-99.8,222.9-222.9
			S1092.6,58.8,969.5,58.8z M978.4,494.5c-115.1,0-208.4-93.3-208.4-208.4S863.3,77.8,978.4,77.8s208.4,93.3,208.4,208.4
			S1093.5,494.5,978.4,494.5z"/>
	</g>
	<g>
		<g>
			<path fill="#7DF99A" d="M1128.2,409.8c-54.2,0-127-16.7-203.6-49.5c-66.7-28.5-125.5-64.9-165.3-102.4
				c-40.7-38.3-57.1-73.6-46.1-99.3c10.6-24.8,45.4-37.4,98.2-35.5l-0.2,6.8c-49.7-1.8-82.3,9.4-91.7,31.4
				c-9.7,22.6,6.6,56,44.5,91.7c39.3,37,97.3,72.9,163.4,101.1c135.3,57.9,262.3,65.5,283,17c7.8-18.2-0.6-42.6-24.3-70.6l5.2-4.4
				c25.4,30.1,34.2,56.9,25.4,77.6C1206.2,398,1173.8,409.8,1128.2,409.8z"/>
		</g>
	</g>
	<g>
		<g>
			<path fill="#7DF99A" d="M699.5,385.9c-17.8,0-31.5-3.4-35.6-13c-9.4-22,39-58.6,81.3-85.4l3.6,5.7
				c-64.8,41.1-83.1,66.8-78.7,77.1c5.1,12,40.4,11.9,94.4-0.2c57.1-12.8,129.8-37.5,204.7-69.7s142.9-67.7,191.6-100.3
				c46-30.7,70.3-56.3,65.2-68.2c-5.1-12-40.4-11.9-94.4,0.2l-1.5-6.6c41.8-9.4,93.4-16.3,102.1,3.8c8.6,20.1-32,52.7-67.6,76.5
				c-49,32.8-117.4,68.6-192.7,100.9c-75.2,32.3-148.4,57.1-205.9,70C744,381.6,719.2,385.9,699.5,385.9z"/>
		</g>
	</g>
</g>
</svg>
