<?xml version="1.0" encoding="utf-8"?>
<!-- Generator: Adobe Illustrator 18.0.0, SVG Export Plug-In . SVG Version: 6.00 Build 0)  -->
<!DOCTYPE svg PUBLIC "-//W3C//DTD SVG 1.1//EN" "http://www.w3.org/Graphics/SVG/1.1/DTD/svg11.dtd">
<svg version="1.1" id="Layer_1" xmlns="http://www.w3.org/2000/svg" xmlns:xlink="http://www.w3.org/1999/xlink" x="0px" y="0px"
	 viewBox="0 319.7 480 480.3" enable-background="new 0 319.7 480 480.3" xml:space="preserve">
<rect y="319.7" display="none" fill="#3A3634" width="480" height="480"/>
<rect x="112.5" y="410.7" display="none" fill="#FFB229" width="254.9" height="267.7"/>
<g id="人文素養">
	<g>
		<g>
			<path fill="#54AEB2" d="M237.4,583.2c-54.8,0-120.1-41.9-122.9-43.6c-0.6-0.4-0.8-1-1-1.6c-0.1-0.6,0.1-1.3,0.6-1.8
				c2.7-2.7,67.4-68.2,125.9-65.3c58.3,3,122.9,62.7,125.7,65.3c0.6,0.4,0.7,1.1,0.7,1.8s-0.4,1.3-1,1.6
				c-0.7,0.4-70.2,42.2-125.5,43.6C239.2,583,238.3,583.2,237.4,583.2z M119.2,537.3c12.5,7.6,72.4,42.8,120.8,41.5
				c48.1-1.3,107.8-34,120.6-41.5c-11.9-10.5-69.9-59.5-120.8-62C188.8,472.7,130.5,526.4,119.2,537.3z"/>
		</g>
	</g>
	<g>
		<g>
			<path fill="#54AEB2" d="M234.6,581.3c-30.2,0-54.8-24.5-54.8-54.7s24.5-54.7,54.8-54.7s54.8,24.5,54.8,54.7
				S264.7,581.3,234.6,581.3z M234.6,474.2c-28.9,0-52.5,23.5-52.5,52.5c0,28.9,23.5,52.5,52.5,52.5s52.5-23.6,52.5-52.5
				C287.1,497.7,263.6,474.2,234.6,474.2z"/>
		</g>
	</g>
	<g>
		<path fill="#54AEB2" d="M255.4,498.9c1.1,3.1,0.8,6.9-1,10.3c-3.3,5.5-9.9,7.6-14.9,4.7c-5-2.8-6.4-9.8-3.1-15.3
			c1.6-2.7,4.1-4.7,6.8-5.5c-2.7-0.7-5.5-1.1-8.5-1.1c-19.1,0-34.7,15.6-34.7,34.7s15.6,34.7,34.7,34.7s34.7-15.6,34.7-34.7
			C269.3,515.2,263.7,505.2,255.4,498.9z"/>
	</g>
</g>
<g>
	<path fill="#3A3634" d="M79.7,731c2,0,3,1,3,3.1v10.1c0,3.3,0.6,7.2,1.7,11.7c1.3,4.8,3.3,9.5,6.2,14.3c2.5,4.4,5.9,8.8,10.2,13.2
		c2.8,3.2,6.7,6.8,11.7,10.8c0.9,0.8,1.3,1.7,1.3,2.4c-0.1,2-1.1,3-3,3.1c-0.8,0-1.7-0.4-2.8-1.3c-5.4-4.3-10.1-8.6-14-13.1
		c-3.7-4.4-6.6-8.5-8.7-12.2c-2.4-4.3-4.2-8.6-5.6-12.8c-1.3,4.3-3.2,8.5-5.6,12.5c-2.2,4-5.1,8.2-8.8,12.5
		c-4.2,5-8.8,9.5-13.9,13.5c-0.9,0.7-1.7,1-2.3,1c-2.1-0.1-3.2-1.3-3.3-3.6c0-0.6,0.6-1.4,1.8-2.3c4.6-3.6,8.7-7.6,12.5-12
		c4.2-4.7,7.6-9.4,10.1-14c2.3-4.4,4-8.6,5-12.6c0.9-4.2,1.4-7.8,1.4-11.1v-10.1C76.7,732,77.7,731,79.7,731z"/>
	<path fill="#3A3634" d="M185.5,729.9c2,0,3,1,3,3v7h29.4c1.9,0,2.8,0.9,2.8,2.8c0,1.9-0.9,2.8-2.8,2.8h-8.6
		c-0.1,0.4-0.1,0.9-0.3,1.4c-2.7,8.1-5.7,14.6-9,19.7c-3.1,4.7-6.4,8.7-9.9,12c3.5,2.6,7.7,5.1,12.7,7.5c4,2.3,9.4,4.6,16.1,6.8
		c1.5,0.6,2.2,1.6,2.2,2.9c0,2.1-1,3.2-3,3.2c-0.4,0-1.2-0.1-2.2-0.4c-8.1-3.2-14.6-6.2-19.4-9c-4.2-2.2-7.8-4.5-10.9-7.1
		c-3,2.4-6.2,4.6-9.7,6.8c-5.3,3.2-12.2,6.2-20.5,9.1c-1,0.4-1.7,0.7-2.1,0.7c-0.7,0-1.4-0.2-2.1-0.7c-0.5-0.6-0.8-1.2-0.8-1.9
		c0-1.3,0.5-2.1,1.6-2.5c8.1-2.7,14.8-5.6,20-8.7c3.3-2,6.3-4.1,9.1-6.3c-4-3.4-7.6-7.9-10.8-13.5c-3.7-6.1-6.5-12.8-8.6-19.9h-8
		c-1.9,0-2.8-0.9-2.8-2.8c0-1.9,0.9-2.8,2.8-2.8h28.8v-7C182.5,730.9,183.5,729.9,185.5,729.9z M167.6,745.5
		c2.8,7.6,5.7,13.8,8.8,18.6c2.6,4,5.7,7.6,9.4,10.8c3.6-3.4,6.8-7.3,9.6-11.7c3.1-4.7,5.9-10.6,8.4-17.8H167.6z"/>
	<path fill="#3A3634" d="M320.4,734.5c1.5,0,2.2,0.7,2.2,2.2s-0.7,2.2-2.2,2.2h-25.1v4h22.1c1.4,0,2.1,0.7,2.1,2.1
		c0,1.4-0.7,2.1-2.1,2.1h-22.1v4.3h28.6c1.7,0,2.5,0.8,2.5,2.5c0,1.7-0.8,2.5-2.5,2.5H293c-0.1,0.7-0.5,1.3-1.1,1.7
		c-2.7,2.1-6.3,4.1-11,5.9c2.9,1.6,5.6,3.2,8.1,4.8c3.7-2.7,7-5.4,10-8.2c0.6-0.9,1.5-1.3,2.5-1.3c0.7,0,1.4,0.3,1.9,0.9
		c0.6,0.5,0.9,1.2,0.9,1.9c0,0.7-0.2,1.3-0.7,1.9c-2.6,2.3-5.4,4.5-8.5,6.6c-0.7,0.5-1.5,1-2.3,1.4c7-0.5,13.6-1.2,19.7-2.2
		c-0.5-0.6-1.1-1.3-1.6-1.9c-0.6-0.6-1-1.3-1-1.9c0-1.7,0.8-2.6,2.5-2.6c0.5,0,1.1,0.2,1.9,0.6c1.4,1.6,2.7,3.1,3.9,4.6
		c1.8,2.1,3.5,4.5,5,7.3c0.6,0.7,0.9,1.2,0.9,1.5c0,1.7-0.8,2.6-2.4,2.6c-0.9,0-1.7-0.3-2.3-0.9c-1.3-2-2.4-3.7-3.4-5
		c-0.3,0.1-0.6,0.1-0.8,0.1c-6.8,0.8-13.5,1.5-20,2.2v20.3c0,1.9-0.9,2.8-2.8,2.8c-1.9,0-2.8-0.9-2.8-2.8v-19.8
		c-9.5,0.8-18.7,1.5-27.6,2c-1.7,0-2.5-1-2.5-3.1c0-1.6,0.8-2.5,2.5-2.5c7.4-0.1,14.3-0.3,20.9-0.7c0.6-0.3,1.2-0.7,1.7-1
		c-4.7-2.9-9.8-5.8-15.4-8.7c-1-0.6-1.5-1.3-1.5-1.9c0-1.5,0.8-2.3,2.4-2.3c0.5,0,1.1,0.2,1.7,0.5c1.2,0.6,2.4,1.2,3.6,1.9
		c0.2-0.2,0.4-0.3,0.6-0.4c3.6-1.2,6.7-2.6,9.4-4.2h-25.2c-1.7,0-2.5-0.8-2.5-2.5c0-1.7,0.8-2.5,2.5-2.5h29.2v-4.3h-23.3
		c-1.4,0-2.1-0.7-2.1-2.1c0-1.4,0.7-2.1,2.1-2.1h23.3v-4h-26c-1.5,0-2.2-0.7-2.2-2.2s0.7-2.2,2.2-2.2h26v-2.1c0-1.9,0.9-2.8,2.8-2.8
		c1.9,0,2.8,0.9,2.8,2.8v2.1H320.4z M281.9,781.3c1.9,0,2.8,0.9,2.8,2.8c0,0.9-0.4,1.6-1.3,2.2c-4.6,4.1-10.9,7.8-19.1,11.2
		c-0.9,0.3-1.6,0.5-1.9,0.5c-1.9,0-2.9-1-2.9-3.1c0-0.9,0.5-1.7,1.5-2.2c7.6-2.9,14-6.5,19.2-10.8
		C281,781.5,281.6,781.3,281.9,781.3z M303.4,781.3c0.5,0,1.2,0.2,1.9,0.6c3,1.5,5.6,3,8,4.5c3.7,2,7.2,4.3,10.4,7.1
		c0.7,0.8,1,1.5,1,1.9c0,2-0.9,3-2.8,3c-1,0-2-0.3-2.7-1c-3.9-2.9-7.1-5.1-9.8-6.8c-2.3-1.4-4.8-2.8-7.6-4.3c-0.7-0.6-1-1.3-1-2
		C300.8,782.2,301.7,781.3,303.4,781.3z"/>
	<path fill="#3A3634" d="M385.3,729.6c0.4,0,0.9,0.3,1.5,1c1.2,0.9,2.4,1.9,3.5,3c0.4,0.6,0.6,1.2,0.6,1.6v0.4h15.1
		c0.2-0.3,0.5-0.6,0.7-0.9c1-1.3,2-2.7,2.9-4.2c0.6-0.8,1.4-1.3,2.4-1.3c0.7,0,1.3,0.3,1.9,0.8c0.5,0.5,0.8,1.1,0.8,1.8
		c0,0.7-0.2,1.3-0.7,1.9c-0.4,0.7-0.9,1.3-1.5,1.9h15.2c1.5,0,2.2,0.7,2.2,2.2s-0.7,2.2-2.2,2.2h-26.3v3.4h23.3
		c1.4,0,2.1,0.7,2.1,2.1c0,1.4-0.7,2.1-2.1,2.1h-23.3v3.7h29.8c1.5,0,2.2,0.7,2.2,2.2s-0.7,2.2-2.2,2.2h-16c1.9,1.9,3.9,3.5,5.8,4.9
		c3.2,2.1,7,4.1,11.4,5.9c1,0.5,1.5,1.1,1.5,1.9c0,2-0.9,3-2.7,3c-0.9,0-1.8-0.3-2.7-0.9c-5.7-2.7-10.1-5.4-13.1-8.3
		c-2.3-2.1-4.1-4.3-5.6-6.4h-22.6c0,0.2-0.1,0.3-0.1,0.4c-2.2,3.3-4.8,6.1-7.9,8.4c-2.8,2.3-6.6,4.4-11.4,6.2
		c-0.5,0.2-1,0.3-1.4,0.3c-1.5,0-2.3-0.8-2.3-2.4c0-0.7,0.5-1.3,1.4-1.9c5.3-2,9.3-4,11.9-6.2c1.6-1.2,3.3-2.8,4.9-4.8h-16.3
		c-1.5,0-2.2-0.7-2.2-2.2s0.7-2.2,2.2-2.2h29.8v-3.7h-23.3c-1.4,0-2.1-0.7-2.1-2.1c0-1.4,0.7-2.1,2.1-2.1h23.3v-3.4h-26.9
		c-1.5,0-2.2-0.7-2.2-2.2s0.7-2.2,2.2-2.2h16.4c-0.7-0.7-1.5-1.3-2.2-1.9c-0.5-0.7-0.8-1.2-0.8-1.5
		C382.2,730.6,383.2,729.6,385.3,729.6z M380.7,785.8v6.7c4.8-0.4,8.7-0.9,11.9-1.5c0.4-0.1,0.9-0.2,1.3-0.2
		c1.4,0.1,2.1,0.8,2.2,2.2c0,1-0.5,1.9-1.5,2.5c-3.1,0.7-7.2,1.4-12.2,2c-3.9,0.5-8.6,1-14.2,1.4c-1.7-0.1-2.6-1-2.7-2.7
		c0-1.6,0.7-2.5,2.2-2.7c3.2-0.1,6-0.3,8.2-0.5v-21.7c0-3,1.6-4.5,4.8-4.5h35.6c3.2,0,4.8,1.5,4.8,4.5v10.1c0,3-1.6,4.5-4.8,4.5h-14
		c3.3,2.1,6.7,3.8,10.2,5.1c0.1,0,0.3,0.1,0.5,0.1c0.2-0.2,0.4-0.4,0.7-0.6c4.7-1.9,8.7-4.2,11.9-7c0.7-0.4,1.3-0.7,1.6-0.7
		c1.7,0,2.5,0.8,2.5,2.5c0,0.8-0.4,1.5-1.2,2c-2.2,2-5,3.8-8.5,5.6c3.1,0.6,6.9,1.1,11.2,1.6c0.6,0,1.2,0.2,1.7,0.6
		c0.8,0.4,1.2,1.1,1.2,2c0,1-0.3,1.8-0.9,2.2c-0.5,0.4-1.2,0.7-2.2,0.7c-3.7,0-7.8-0.6-12.5-1.9c-4.5-1.2-8.3-2.6-11.4-4.3
		c-3.6-1.9-7.3-4.6-11.1-8H380.7z M412.9,770.9h-31.2c-0.6,0-0.9,0.4-0.9,1.2v2.4h35.6v-2.1c0-1-0.4-1.5-1.2-1.5H412.9z M380.7,778
		v3.6h34.4c0.8,0,1.2-0.5,1.2-1.5V778H380.7z M407.8,759c1.4,0,2.1,0.7,2.1,2.1c0,1.4-0.7,2.1-2.1,2.1h-18.7c-1.4,0-2.1-0.7-2.1-2.1
		c0-1.4,0.7-2.1,2.1-2.1H407.8z"/>
</g>
</svg>
