<?xml version="1.0" encoding="utf-8"?>
<!-- Generator: Adobe Illustrator 18.0.0, SVG Export Plug-In . SVG Version: 6.00 Build 0)  -->
<!DOCTYPE svg PUBLIC "-//W3C//DTD SVG 1.1//EN" "http://www.w3.org/Graphics/SVG/1.1/DTD/svg11.dtd">
<svg version="1.1" id="Layer_1" xmlns="http://www.w3.org/2000/svg" xmlns:xlink="http://www.w3.org/1999/xlink" x="0px" y="0px"
	 viewBox="0 0 800 600" enable-background="new 0 0 800 600" xml:space="preserve">
<g id="fig_1-1">
	<g>
		<circle fill="#F4F4F4" cx="553" cy="151.9" r="5.1"/>
	</g>
	<g>
		<circle fill="#F4F4F4" cx="598.1" cy="342.9" r="5.1"/>
	</g>
	<g>
		<path fill="#F4F4F4" d="M587.2,139c0.6,0,0.8,0.3,0.8,1c0,0.5-0.4,0.7-1.1,0.8c-0.4,0.2-1,0.3-1.6,0.4v3.8h1.9
			c0.6,0,0.8,0.3,0.8,0.8s-0.3,0.8-0.8,0.8h-1.9v0.4l2.5,4.2c0.1,0.3,0.2,0.5,0.2,0.7c0,0.5-0.3,0.8-0.9,0.8c-0.3,0-0.4-0.2-0.6-0.5
			l-1.3-2.7v10.3c0,0.6-0.3,0.8-0.8,0.8s-0.8-0.3-0.8-0.8v-9.6c-0.4,1.2-0.7,2.1-1,2.7c-0.4,1-0.8,1.7-1.1,2.2
			c-0.2,0.4-0.4,0.5-0.8,0.5c-0.6,0-0.8-0.3-0.8-0.8c0-0.2,0.1-0.4,0.2-0.7c1-1.9,1.8-3.5,2.2-4.7c0.3-0.8,0.6-1.8,0.8-2.9h-1.9
			c-0.6,0-0.8-0.3-0.8-0.8s0.3-0.8,0.8-0.8h2.3v-3.5c-0.8,0.1-1.4,0.2-1.8,0.2c-0.7,0-1-0.3-1-1c0-0.5,0.3-0.8,0.8-0.8
			c1,0,1.9-0.1,2.7-0.2C585.4,139.5,586.3,139.3,587.2,139z M599.7,147.1c0.6,0,0.9,0.4,0.9,1.1c0,0.5-0.4,0.8-1.1,0.9
			c-1.1,0.3-2.5,0.5-4.2,0.7v3.4h5c0.5,0,0.8,0.3,0.8,0.8s-0.3,0.8-0.8,0.8h-5v3.5h6c0.6,0,0.8,0.3,0.8,0.8s-0.3,0.8-0.8,0.8h-12.9
			c-0.6,0-0.8-0.3-0.8-0.8s0.3-0.8,0.8-0.8h5.2v-3.5h-4.4c-0.5,0-0.8-0.3-0.8-0.8s0.3-0.8,0.8-0.8h4.4V150c-1.9,0.2-3.3,0.3-4,0.3
			c-0.7,0-1.1-0.3-1.1-1c0-0.6,0.3-0.8,0.9-0.8c1.8,0,3.5-0.1,5-0.3C596.3,148,598.1,147.6,599.7,147.1z M590.3,139.6h9
			c0.9,0,1.3,0.4,1.3,1.3v3.8c0,0.8-0.4,1.3-1.3,1.3h-9c-0.9,0-1.3-0.4-1.3-1.3v-3.8C589,140,589.4,139.6,590.3,139.6z M598.4,144.3
			c0.4,0,0.6-0.2,0.6-0.6v-1.9c0-0.4-0.2-0.6-0.6-0.6h-7.1c-0.4,0-0.6,0.2-0.6,0.6v1.9c0,0.4,0.2,0.6,0.6,0.6H598.4z"/>
		<path fill="#F4F4F4" d="M617.6,147.5c0.6,0,0.8,0.3,0.8,0.8s-0.3,0.8-0.8,0.8h-4.1v7.5c2.1-0.6,3.8-1.3,5.3-2.1
			c0.2-0.1,0.3-0.1,0.5-0.1c0.5,0,0.8,0.3,0.8,0.8c0,0.4-0.2,0.7-0.6,0.9c-1.4,0.8-3.3,1.6-5.6,2.3c-1.8,0.6-3.9,1.1-6.5,1.6
			c-0.6,0-1-0.4-1-1c0-0.6,0.3-0.9,0.8-1c1.8-0.3,3.2-0.6,4.4-0.9v-7.9h-3.6c-0.6,0-0.8-0.3-0.8-0.8s0.3-0.8,0.8-0.8H617.6z
			 M627.3,142.2c0.6,0,0.9,0.3,0.9,0.8s-0.3,0.8-0.9,0.8h-6.5c0.1,2,0.3,3.8,0.6,5.3c0.4,2,0.9,3.8,1.6,5.3c0.5,1.2,1.1,2.2,1.9,3.1
			c0.4,0.5,0.7,0.8,0.9,0.8c0.1,0,0.3-0.3,0.3-0.9c0.2-1.2,0.3-2.5,0.3-3.7c0-0.6,0.3-0.9,0.9-0.9c0.6,0.1,0.9,0.5,0.9,1.2
			c0,1.6-0.2,3.3-0.6,4.8c-0.3,1.1-0.8,1.7-1.5,1.7c-0.8,0-1.5-0.4-2.3-1.3c-0.9-1.1-1.7-2.5-2.4-4.3c-0.8-1.9-1.4-4.3-1.9-7.2
			c-0.2-1.3-0.3-2.6-0.4-4h-11.4c-0.6,0-0.8-0.3-0.8-0.8s0.3-0.8,0.8-0.8h11.3c0-0.9,0-1.8,0-2.8c0-0.6,0.3-0.8,0.9-0.8
			s0.9,0.3,0.9,0.8c0,1,0,1.9,0,2.8H627.3z M622.7,139.1c0.1,0,0.3,0,0.5,0.1c0.8,0.3,1.7,0.6,2.8,1.1c0.4,0.2,0.6,0.4,0.6,0.7
			c0,0.6-0.3,1-0.8,1c0,0-0.1,0-0.3-0.1c-1-0.5-2-1-2.9-1.3c-0.4-0.1-0.5-0.3-0.5-0.7C621.9,139.4,622.2,139.1,622.7,139.1z"/>
		<path fill="#F4F4F4" d="M641.4,142.7c0.6,0,0.8,0.3,0.8,0.8s-0.3,0.8-0.8,0.8H634c-0.6,0-0.8-0.3-0.8-0.8s0.3-0.8,0.8-0.8H641.4z
			 M635.6,152.6h4.3c1.1,0,1.6,0.5,1.6,1.5v4.5c0,1-0.5,1.5-1.6,1.5h-4.3c-1.1,0-1.6-0.5-1.6-1.5v-4.5
			C634,153.1,634.5,152.6,635.6,152.6z M640.7,146c0.5,0,0.8,0.3,0.8,0.8s-0.3,0.8-0.8,0.8h-5.8c-0.5,0-0.8-0.3-0.8-0.8
			s0.3-0.8,0.8-0.8H640.7z M640.7,149.4c0.5,0,0.8,0.3,0.8,0.8s-0.3,0.8-0.8,0.8h-5.8c-0.5,0-0.8-0.3-0.8-0.8s0.3-0.8,0.8-0.8H640.7
			z M640.5,139.5c0.5,0,0.8,0.3,0.8,0.8s-0.3,0.8-0.8,0.8h-5.5c-0.5,0-0.8-0.3-0.8-0.8s0.3-0.8,0.8-0.8H640.5z M639.2,158.6
			c0.4,0,0.7-0.2,0.7-0.7v-3c0-0.5-0.2-0.7-0.7-0.7h-2.8c-0.4,0-0.7,0.2-0.7,0.7v3c0,0.5,0.2,0.7,0.7,0.7H639.2z M643.6,148.5h9.2
			c0.9,0,1.4,0.4,1.4,1.2c0,0.4-0.2,0.9-0.5,1.6c-0.8,1.5-1.6,2.8-2.6,3.9c-0.3,0.4-0.7,0.7-1,1.1c0.3,0.2,0.5,0.4,0.8,0.5
			c0.9,0.7,2.2,1.3,3.8,1.9c0.3,0.2,0.5,0.4,0.5,0.7c0,0.7-0.3,1-1,1c-0.2,0-0.5-0.1-0.9-0.2c-1.4-0.6-2.6-1.3-3.6-2
			c-0.4-0.2-0.7-0.5-1.1-0.7c-0.2,0.1-0.3,0.3-0.5,0.4c-1.5,1-2.9,1.8-4.2,2.3c-0.5,0.2-0.9,0.3-1.1,0.3c-0.7,0-1.1-0.3-1.1-1
			c0-0.5,0.3-0.8,0.8-0.9c1.4-0.5,2.5-1,3.3-1.5c0.5-0.3,1-0.6,1.5-0.9c-0.3-0.4-0.7-0.7-1-1.1c-0.8-1.1-1.6-2.8-2.3-5v-0.1h-0.3
			c-0.5,0-0.8-0.3-0.8-0.8S643.1,148.5,643.6,148.5z M645.6,139.3h4.6c1.1,0,1.7,0.6,1.7,1.7v4.5c0,0.2,0,0.3,0.1,0.4
			c0.1,0,0.3,0.1,0.6,0.1c0.3,0,0.4-0.1,0.5-0.2c0.1-0.1,0.1-0.3,0.2-0.7l0-1.5c0-0.4,0.3-0.6,0.8-0.6c0.5,0,0.8,0.3,0.8,0.9
			c0,1.1-0.1,1.8-0.2,2.3c-0.1,0.4-0.3,0.7-0.6,0.9c-0.3,0.2-0.6,0.4-1.1,0.4H652c-1.2,0-1.7-0.6-1.7-1.7v-4.5
			c0-0.2-0.2-0.4-0.7-0.4h-3c-0.4,0-0.6,0.1-0.6,0.4v2.1c0,1-0.1,1.8-0.4,2.4c-0.4,0.7-0.8,1.3-1.4,1.9c-0.4,0.3-0.7,0.4-0.9,0.4
			c-0.6,0-0.9-0.3-0.9-0.9c0-0.3,0.1-0.5,0.3-0.7c0.7-0.6,1.1-1.1,1.3-1.5c0.2-0.5,0.4-1.2,0.4-2v-2
			C644.3,139.8,644.8,139.3,645.6,139.3z M645.7,150.1c0.6,1.6,1.2,3,2,4c0.3,0.4,0.6,0.7,0.9,1.1c0.2-0.1,0.3-0.3,0.4-0.4
			c1-1,1.9-2.2,2.7-3.7c0.2-0.5,0.3-0.7,0.3-0.8c0-0.1-0.1-0.1-0.3-0.1H645.7z"/>
		<path fill="#F4F4F4" d="M669,142.7c0.6,0,0.8,0.3,0.8,0.8s-0.3,0.8-0.8,0.8h-8.6c-0.6,0-0.8-0.3-0.8-0.8s0.3-0.8,0.8-0.8H669z
			 M662.1,152.6h5.3c1.1,0,1.6,0.5,1.6,1.5v4.5c0,1-0.5,1.5-1.6,1.5h-5.3c-1.1,0-1.6-0.5-1.6-1.5v-4.5
			C660.5,153.1,661,152.6,662.1,152.6z M668.2,146c0.5,0,0.8,0.3,0.8,0.8s-0.3,0.8-0.8,0.8h-6.8c-0.5,0-0.8-0.3-0.8-0.8
			s0.3-0.8,0.8-0.8H668.2z M668.2,149.4c0.5,0,0.8,0.3,0.8,0.8s-0.3,0.8-0.8,0.8h-6.8c-0.5,0-0.8-0.3-0.8-0.8s0.3-0.8,0.8-0.8H668.2
			z M667.8,139.5c0.5,0,0.8,0.3,0.8,0.8s-0.3,0.8-0.8,0.8h-6.3c-0.5,0-0.8-0.3-0.8-0.8s0.3-0.8,0.8-0.8H667.8z M666.7,158.6
			c0.4,0,0.7-0.2,0.7-0.7v-3c0-0.5-0.2-0.7-0.7-0.7h-3.8c-0.4,0-0.7,0.2-0.7,0.7v3c0,0.5,0.2,0.7,0.7,0.7H666.7z M681,145.8
			c0.6,0,0.9,0.3,0.9,0.9s-0.3,0.9-0.9,0.9h-4.2v12.1c0,0.6-0.3,0.9-0.9,0.9s-0.9-0.3-0.9-0.9v-12.1h-4.5c-0.6,0-0.9-0.3-0.9-0.9
			s0.3-0.9,0.9-0.9h4.5v-6c0-0.6,0.3-0.9,0.9-0.9s0.9,0.3,0.9,0.9v6H681z"/>
	</g>
	<g>
		<path fill="#F4F4F4" d="M129.1,205.6c0.5,0,0.8,0.3,0.8,0.8s-0.3,0.8-0.8,0.8h-7.3v1.1h8c0.6,0,1.1,0.2,1.4,0.6
			c0.3,0.3,0.4,0.8,0.4,1.5c0,0.5-0.1,1-0.2,1.6c-0.1,0.5-0.4,0.7-1,0.7c-0.6,0-0.8-0.3-0.8-0.8c0.2-0.7,0.3-1.2,0.3-1.4
			c0-0.6-0.2-0.8-0.6-0.8h-7.5v4.5c0,0.6-0.3,0.8-0.8,0.8s-0.8-0.3-0.8-0.8v-4.5h-7.3c-0.5,0-0.8,0.3-0.8,0.8v1.6
			c0,0.5-0.3,0.8-0.8,0.8s-0.8-0.3-0.8-0.8v-1.9c0-1.3,0.6-1.9,1.9-1.9h7.7v-1.1h-7.2c-0.5,0-0.8-0.3-0.8-0.8s0.3-0.8,0.8-0.8H129.1
			z M113.7,215.8h14.2c1.1,0,1.6,0.5,1.6,1.5v4.6c0,1-0.5,1.5-1.6,1.5h-6.4v0.3c0,0.5,0.2,0.8,0.5,1c0.4,0.2,1.3,0.3,2.6,0.3
			c2.5,0,4-0.1,4.5-0.2c0.6-0.1,0.9-0.3,0.9-0.5v-1.2c0-0.7,0.3-1,0.9-1.1c0.6,0,0.9,0.5,0.9,1.3c0,1.4-0.2,2.2-0.5,2.5
			c-0.2,0.3-0.8,0.5-1.6,0.7c-0.8,0.2-2.5,0.2-5,0.2c-2.1,0-3.4-0.2-4-0.6c-0.6-0.3-0.9-1-0.9-2v-0.7h-6c-1.1,0-1.6-0.5-1.6-1.5
			v-4.6C112.1,216.3,112.6,215.8,113.7,215.8z M118,210.8c0.4,0,0.6,0.2,0.6,0.6s-0.2,0.6-0.6,0.6h-3.9c-0.4,0-0.6-0.2-0.6-0.6
			s0.2-0.6,0.6-0.6H118z M117.9,213.2c0.4,0,0.6,0.2,0.6,0.6s-0.2,0.6-0.6,0.6h-3.8c-0.4,0-0.6-0.2-0.6-0.6s0.2-0.6,0.6-0.6H117.9z
			 M119.7,217.3h-5.5c-0.3,0-0.5,0.2-0.5,0.6v1.1h6V217.3z M119.7,220.3h-6v1c0,0.4,0.2,0.6,0.5,0.6h5.5V220.3z M121.5,218.9h6.3
			v-1.1c0-0.4-0.2-0.6-0.5-0.6h-5.9V218.9z M127.4,221.8c0.3,0,0.5-0.2,0.5-0.6v-1h-6.3v1.5H127.4z M127.9,210.7
			c0.4,0,0.6,0.2,0.6,0.6c0,0.4-0.2,0.6-0.6,0.6h-4.1c-0.4,0-0.6-0.2-0.6-0.6c0-0.4,0.2-0.6,0.6-0.6H127.9z M127.9,213.2
			c0.4,0,0.6,0.2,0.6,0.6s-0.2,0.6-0.6,0.6h-4.1c-0.4,0-0.6-0.2-0.6-0.6s0.2-0.6,0.6-0.6H127.9z"/>
		<path fill="#F4F4F4" d="M186.4,221c0.5,0,0.8,0.3,0.8,0.8s-0.3,0.8-0.8,0.8h-7.3c0.1,0.4,0.1,0.7,0.1,1.1c0,0.6-0.2,1.2-0.6,1.8
			c-0.3,0.5-0.8,0.9-1.3,1.1c-0.5,0.2-1.1,0.3-1.9,0.3c-1,0-2.2-0.2-3.6-0.7c-0.5-0.2-0.8-0.5-0.8-0.9c0-0.6,0.3-1,0.8-1
			c1.8,0.5,2.9,0.8,3.4,0.8c0.3,0,0.7,0,1-0.1c0.4-0.1,0.6-0.3,0.9-0.5c0.2-0.2,0.4-0.5,0.4-0.8c0-0.4,0-0.8-0.1-1.1h-11
			c-0.5,0-0.8-0.3-0.8-0.8s0.3-0.8,0.8-0.8h10c-0.3-0.3-0.7-0.5-1.1-0.7c-0.1-0.1-0.2-0.1-0.2-0.2c0-0.6,0.4-0.9,1-0.9
			c0.1,0,0.3,0.1,0.6,0.2c0.2,0.1,0.4,0.3,0.6,0.4c0.5-0.1,0.9-0.3,1.2-0.4c0.5-0.2,0.8-0.4,1.2-0.6c0.3-0.2,0.4-0.3,0.4-0.3
			c0-0.1-0.1-0.2-0.4-0.2h-8.9c-0.5,0-0.8-0.3-0.8-0.8s0.3-0.8,0.8-0.8h10.7c1,0,1.5,0.3,1.5,1c0,0.2-0.1,0.4-0.4,0.7
			c-0.4,0.4-1.1,0.8-1.9,1.3c-0.7,0.4-1.5,0.7-2.3,1c0.1,0.1,0.2,0.2,0.2,0.3H186.4z M169,209.8l0.1,1.5h2.7c0.5,0,0.7,0.2,0.7,0.7
			s-0.2,0.7-0.7,0.7h-2.6l0.1,1.3h13.9c0.1-0.5,0.1-1,0.2-1.4h-2.5c-0.5,0-0.7-0.2-0.7-0.7s0.2-0.7,0.7-0.7h2.7
			c0.1-0.6,0.1-1.1,0.2-1.5h-3c-0.5,0-0.7-0.2-0.7-0.7s0.2-0.7,0.7-0.7h3.2c0.1-0.8,0.1-1.2,0.1-1.2c0-0.2-0.2-0.4-0.5-0.4h-3
			c-0.5,0-0.7-0.2-0.7-0.7s0.2-0.7,0.7-0.7h3.8c0.9,0,1.4,0.4,1.4,1.2c0,0.2-0.3,2.7-1,7.5h0.6c0.7,0,1.2,0.2,1.5,0.7
			c0.3,0.4,0.4,0.9,0.4,1.6c0,0.5-0.1,1-0.2,1.7c-0.1,0.5-0.5,0.7-1,0.7c-0.6,0-0.9-0.3-0.9-0.9c0.2-0.8,0.3-1.2,0.3-1.4
			c0-0.6-0.2-0.9-0.7-0.9h-17c-0.4,0-0.6,0.2-0.6,0.6v2c0,0.6-0.3,0.8-0.8,0.8s-0.8-0.3-0.8-0.8v-2.8c0-0.8,0.4-1.2,1.2-1.2h0.9
			l-0.5-7c0-0.6,0.1-1,0.4-1.3c0.2-0.2,0.6-0.4,1.2-0.4c1,0,2.1-0.1,3.1-0.4c0.5,0,0.8,0.3,0.8,0.8c0,0.5-0.3,0.8-0.8,0.9
			c-1,0.1-1.9,0.2-2.6,0.2c-0.4,0-0.5,0.2-0.5,0.6l0.1,1h2.7c0.5,0,0.7,0.2,0.7,0.7s-0.2,0.7-0.7,0.7H169z M178.2,205
			c0.5,0,0.8,0.3,0.8,0.8c0,0.3-0.1,0.5-0.4,0.6c-0.3,0.3-0.6,0.5-1,0.8c0.4,0.2,0.8,0.5,1.1,0.7c0.2,0.2,0.3,0.4,0.3,0.4
			c0,0.5-0.2,0.8-0.7,0.8c-0.3,0-0.5-0.1-0.7-0.3c-0.5-0.3-0.9-0.5-1.3-0.8c-0.7,0.4-1.5,0.8-2.4,1.2c-0.2,0.1-0.4,0.1-0.5,0.1
			c-0.5,0-0.7-0.3-0.7-0.8c0-0.2,0.1-0.4,0.4-0.5c0.6-0.3,1.2-0.5,1.7-0.8c-0.4-0.2-0.7-0.3-1.1-0.5c-0.2-0.2-0.3-0.3-0.3-0.5
			c0-0.5,0.2-0.7,0.7-0.7c0.1,0,0.3,0,0.5,0.1c0.6,0.3,1.2,0.5,1.6,0.8c0.6-0.4,1.1-0.8,1.5-1.2C178,205,178.1,205,178.2,205z
			 M178.8,209.4c0.5,0,0.8,0.3,0.8,0.8c0,0.3-0.1,0.5-0.4,0.6c-0.3,0.3-0.6,0.5-1,0.7c0.4,0.2,0.7,0.4,1.1,0.7
			c0.2,0.2,0.3,0.4,0.3,0.4c0,0.5-0.2,0.8-0.7,0.8c-0.3,0-0.5-0.1-0.7-0.3c-0.5-0.3-0.9-0.5-1.3-0.8c-0.7,0.4-1.5,0.8-2.4,1.1
			c-0.2,0.1-0.4,0.1-0.5,0.1c-0.5,0-0.7-0.3-0.7-0.8c0-0.2,0.1-0.4,0.4-0.5c0.6-0.2,1.1-0.5,1.7-0.7c-0.4-0.2-0.8-0.4-1.2-0.5
			c-0.2-0.2-0.3-0.3-0.3-0.5c0-0.5,0.2-0.7,0.7-0.7c0.1,0,0.3,0,0.5,0.1c0.6,0.3,1.2,0.5,1.8,0.8c0.6-0.4,1.1-0.8,1.6-1.2
			C178.5,209.4,178.7,209.4,178.8,209.4z"/>
	</g>
	<g>
		<circle fill="#F4F4F4" cx="216.9" cy="410.9" r="5.1"/>
	</g>
	<g>
		<circle fill="#F4F4F4" cx="528.8" cy="446" r="5.1"/>
	</g>
	<g>
		<path fill="#F4F4F4" d="M632.5,332c0.6,0,0.9,0.3,0.9,0.9v0.8h8c0.7,0,1.2,0.2,1.5,0.7c0.3,0.4,0.4,0.9,0.4,1.6c0,0.3,0,0.6,0,1
			c-0.1,0.5-0.5,0.7-1,0.7c-0.6,0-0.9-0.3-0.9-0.9c0-0.4,0.1-0.7,0.1-0.8c0-0.6-0.2-0.9-0.7-0.9H624c-0.4,0-0.6,0.2-0.6,0.6v1
			c0,0.6-0.3,0.8-0.8,0.8s-0.8-0.3-0.8-0.8v-1.7c0-0.9,0.5-1.4,1.4-1.4h8.4v-0.8C631.6,332.3,631.9,332,632.5,332z M626.7,336.2
			h11.8c1,0,1.5,0.5,1.5,1.4v1h2.7c0.4,0,0.6,0.2,0.6,0.6s-0.2,0.6-0.6,0.6h-2.7v0.9c0,0.9-0.5,1.4-1.5,1.4h-11.8
			c-1,0-1.5-0.5-1.5-1.4v-0.9h-2.8c-0.4,0-0.6-0.2-0.6-0.6s0.2-0.6,0.6-0.6h2.8v-1C625.2,336.6,625.7,336.2,626.7,336.2z M625.7,343
			h13.9c0.9,0,1.4,0.4,1.4,1.3v5.5c0,0.8-0.5,1.3-1.4,1.3H637c0.4,0.3,0.9,0.5,1.4,0.6c0.5,0.2,1.2,0.4,1.9,0.5
			c0.4,0.1,1,0.2,1.7,0.3c0.4,0.1,0.7,0.3,0.7,0.8c0,0.6-0.3,0.9-1,0.9c-0.7-0.1-1.2-0.2-1.7-0.3c-0.9-0.2-1.6-0.4-2.1-0.6
			c-0.8-0.3-1.4-0.6-1.9-1c-0.3-0.3-0.4-0.5-0.4-0.7c0-0.2,0-0.4,0.1-0.5h-5.7c0.1,0.1,0.1,0.3,0.1,0.5c0,0.3-0.1,0.5-0.4,0.6
			c-1.4,0.7-3.3,1.3-5.7,1.9c-0.3,0.1-0.5,0.1-0.6,0.1c-0.6,0-0.9-0.3-0.9-0.9c0-0.3,0.1-0.5,0.4-0.7c2.1-0.4,4-0.9,5.5-1.5h-2.7
			c-0.9,0-1.4-0.4-1.4-1.3v-5.5C624.3,343.4,624.8,343,625.7,343z M626,345.4h13.3V345c0-0.4-0.2-0.6-0.5-0.6h-12.4
			c-0.3,0-0.5,0.2-0.5,0.6V345.4z M626,347.5h13.3v-0.9H626V347.5z M638.8,349.7c0.3,0,0.5-0.2,0.5-0.6v-0.3H626v0.3
			c0,0.4,0.2,0.6,0.5,0.6H638.8z M626.8,338.6h5v-1.2H627c-0.2,0-0.2,0.1-0.2,0.4V338.6z M631.8,340.8v-1.1h-5v0.7
			c0,0.3,0.1,0.4,0.2,0.4H631.8z M633.3,337.4v1.2h5.2v-0.8c0-0.3-0.1-0.4-0.2-0.4H633.3z M638.3,340.8c0.2,0,0.2-0.1,0.2-0.4v-0.7
			h-5.2v1.1H638.3z"/>
		<path fill="#F4F4F4" d="M678.2,345.5c0.5,0,0.7,0.3,0.7,0.8c0,2.1-0.2,4.1-0.7,5.9c-0.1,0.5-0.4,0.7-0.9,0.7
			c-0.4,0-0.6-0.2-0.6-0.6c0-0.2,0-0.4,0.1-0.5c0.4-1.5,0.6-3.4,0.7-5.6C677.6,345.7,677.8,345.5,678.2,345.5z M685.8,332.8
			c0.6,0,0.8,0.3,0.8,0.8s-0.3,0.8-0.8,0.8h-2.4v1.9h2.1c0.5,0,0.7,0.2,0.7,0.7s-0.2,0.7-0.7,0.7h-2.1v1.9h2.3
			c0.5,0,0.7,0.2,0.7,0.7s-0.2,0.7-0.7,0.7h-2.3v2h1.9c1.1,0,1.6,0.5,1.6,1.5c0,2.9-0.1,5.2-0.3,6.8c-0.2,1.1-0.4,1.8-0.8,2.2
			c-0.4,0.4-1,0.6-1.8,0.6c-0.5,0-1.1-0.1-1.9-0.4c-0.4-0.2-0.6-0.4-0.6-0.9c0-0.6,0.3-0.9,0.8-0.9c0.8,0.3,1.4,0.4,1.6,0.4
			c0.4,0,0.6-0.1,0.8-0.4c0.2-0.3,0.3-0.8,0.4-1.5c0-0.2,0-0.3,0-0.5c-0.1,0.1-0.3,0.1-0.5,0.1c-0.2,0-0.4-0.2-0.5-0.5
			c-0.3-1.4-0.5-2.6-0.8-3.4c-0.1-0.2-0.2-0.3-0.2-0.4c0-0.4,0.2-0.6,0.7-0.6c0.2,0,0.3,0.1,0.5,0.4c0.3,0.9,0.6,1.9,0.8,3
			c0-1,0.1-2.1,0.1-3.5c0-0.4-0.2-0.6-0.6-0.6h-6c-0.9,0-1.4-0.4-1.4-1.3v-9c0-0.9,0.5-1.3,1.4-1.3H685.8z M681.8,336.3v-1.9h-2.3
			c-0.3,0-0.5,0.2-0.5,0.6v1.4H681.8z M681.8,339.5v-1.9H679v1.9H681.8z M681.8,343v-2H679v1.5c0,0.4,0.2,0.6,0.5,0.6H681.8z
			 M679.9,345.6c0.3,0,0.6,0.2,0.7,0.6c0.3,1.7,0.5,3.4,0.5,5.2c0,0.5-0.2,0.8-0.7,0.8c-0.5,0-0.7-0.2-0.7-0.7
			c0-2.2-0.1-3.6-0.3-4.3c-0.1-0.5-0.1-0.9-0.1-1.1C679.3,345.8,679.5,345.6,679.9,345.6z M681.9,345.4c0.2,0,0.3,0.1,0.5,0.3
			c0.4,1.3,0.7,2.8,0.9,4.4c0.1,0.2,0.1,0.4,0.1,0.5c0,0.4-0.3,0.6-0.8,0.6c-0.3,0-0.4-0.2-0.6-0.5c-0.2-1.8-0.4-3.3-0.7-4.3
			c-0.1-0.2-0.2-0.3-0.2-0.4C681.2,345.6,681.4,345.4,681.9,345.4z M692.7,332.2c0.3,0,0.7,0.2,1.1,0.7c0.6,0.6,1.3,1.1,2,1.7
			c0.7,0.5,1.6,0.9,2.8,1.3c0.3,0.2,0.4,0.4,0.4,0.7c0,0.6-0.3,1-0.9,1c-0.1,0-0.2,0-0.4-0.1c-1.2-0.6-2-1-2.5-1.4
			c-0.7-0.6-1.5-1.2-2.2-2c-0.1-0.2-0.2-0.2-0.4-0.2c-0.1,0-0.2,0-0.2,0.1c-0.8,0.9-1.6,1.6-2.5,2.2c-0.7,0.5-1.5,0.9-2.4,1.3
			c-0.1,0-0.2,0.1-0.4,0.1c-0.5,0-0.8-0.3-0.8-0.9c0-0.3,0.2-0.6,0.5-0.7c1.1-0.4,2-0.9,2.8-1.4c0.8-0.5,1.5-1.1,2.2-1.9
			C692.2,332.3,692.4,332.2,692.7,332.2z M690,346.8c0.2,0,0.4,0.1,0.5,0.2c0.2,0.1,0.2,0.3,0.2,0.5c0,0.1,0,0.3-0.1,0.5
			c-0.1,0.3-0.1,0.6-0.2,0.9c0.3,0.3,0.6,0.6,0.9,0.8c0.4,0.4,0.8,0.8,1.2,1.3c0.2,0.2,0.3,0.3,0.3,0.4c0,0.5-0.2,0.7-0.7,0.7
			c-0.3,0-0.5-0.1-0.7-0.3c-0.4-0.5-0.8-0.9-1.1-1.2c-0.1-0.1-0.3-0.3-0.4-0.4c0,0,0,0.1,0,0.1c-0.3,0.7-0.6,1.4-1,2
			c-0.3,0.5-0.7,1-1.1,1.4c-0.2,0.1-0.4,0.2-0.5,0.2c-0.2,0-0.4-0.1-0.6-0.3c-0.2-0.2-0.2-0.4-0.2-0.7c0-0.2,0.1-0.4,0.3-0.5
			c0.4-0.4,0.7-0.8,1-1.2c0.3-0.6,0.6-1.2,0.9-1.8c0.2-0.6,0.4-1.3,0.6-2.2C689.3,347,689.6,346.8,690,346.8z M688.7,339.7h2.3
			c0.8,0,1.3,0.4,1.3,1.2v3.8c0,0.8-0.4,1.2-1.3,1.2h-2.3c-0.8,0-1.3-0.4-1.3-1.2v-3.8C687.4,340.1,687.8,339.7,688.7,339.7z
			 M690.3,344.7c0.4,0,0.6-0.2,0.6-0.7v-2.3c0-0.4-0.2-0.7-0.6-0.7h-0.8c-0.4,0-0.6,0.2-0.6,0.7v2.3c0,0.4,0.2,0.7,0.6,0.7H690.3z
			 M695.3,337c0.5,0,0.7,0.2,0.7,0.7s-0.2,0.7-0.7,0.7H690c-0.5,0-0.7-0.2-0.7-0.7s0.2-0.7,0.7-0.7H695.3z M696,346.8
			c0.2,0,0.4,0.1,0.5,0.2c0.2,0.1,0.2,0.3,0.2,0.5c0,0.1,0,0.3-0.1,0.5c-0.1,0.6-0.3,1.1-0.4,1.6c0.4,0.8,0.8,1.3,1,1.7
			c0.3,0.4,0.6,0.8,1,1.2c0.3,0.1,0.4,0.4,0.4,0.6c0,0.5-0.3,0.8-0.7,0.8c-0.2,0-0.4-0.1-0.7-0.2c-0.3-0.3-0.6-0.6-0.9-1
			c-0.3-0.4-0.6-0.8-0.9-1.4c-0.2,0.4-0.4,0.7-0.6,1.1c-0.3,0.5-0.7,1-1.1,1.4c-0.2,0.1-0.4,0.2-0.5,0.2c-0.2,0-0.4-0.1-0.6-0.3
			c-0.2-0.2-0.2-0.4-0.2-0.7c0-0.2,0.1-0.4,0.3-0.5c0.4-0.4,0.7-0.8,1-1.2c0.3-0.6,0.6-1.2,0.9-1.8c0.2-0.6,0.4-1.3,0.6-2.2
			C695.3,347,695.6,346.8,696,346.8z M694.7,339.7h2.3c0.8,0,1.3,0.4,1.3,1.2v3.8c0,0.8-0.4,1.2-1.3,1.2h-2.3
			c-0.8,0-1.3-0.4-1.3-1.2v-3.8C693.4,340.1,693.8,339.7,694.7,339.7z M696.3,344.7c0.4,0,0.6-0.2,0.6-0.7v-2.3
			c0-0.4-0.2-0.7-0.6-0.7h-0.8c-0.4,0-0.6,0.2-0.6,0.7v2.3c0,0.4,0.2,0.7,0.6,0.7H696.3z"/>
	</g>
	<g>
		<path fill="#F4F4F4" d="M103.9,402.4c0.6,0,0.8,0.3,0.8,0.8s-0.3,0.8-0.8,0.8h-8v15.4h9.1c0.6,0,0.8,0.3,0.8,0.8s-0.3,0.8-0.8,0.8
			H85c-0.6,0-0.8-0.3-0.8-0.8s0.3-0.8,0.8-0.8h9.1v-15.4h-7.9c-0.6,0-0.8-0.3-0.8-0.8s0.3-0.8,0.8-0.8H103.9z"/>
		<path fill="#F4F4F4" d="M117.4,400.5c0.6,0,0.8,0.3,0.8,1c0,0.5-0.4,0.7-1.1,0.8c-0.4,0.2-1,0.3-1.6,0.4v3.8h1.9
			c0.6,0,0.8,0.3,0.8,0.8s-0.3,0.8-0.8,0.8h-1.9v0.4l2.5,4.2c0.1,0.3,0.2,0.5,0.2,0.7c0,0.5-0.3,0.8-0.9,0.8c-0.3,0-0.4-0.2-0.6-0.5
			l-1.3-2.7v10.3c0,0.6-0.3,0.8-0.8,0.8s-0.8-0.3-0.8-0.8v-9.6c-0.4,1.2-0.7,2.1-1,2.7c-0.4,1-0.8,1.7-1.1,2.2
			c-0.2,0.4-0.4,0.5-0.8,0.5c-0.6,0-0.8-0.3-0.8-0.8c0-0.2,0.1-0.4,0.2-0.7c1-1.9,1.8-3.5,2.2-4.7c0.3-0.8,0.6-1.8,0.8-2.9h-1.9
			c-0.6,0-0.8-0.3-0.8-0.8s0.3-0.8,0.8-0.8h2.3v-3.5c-0.8,0.1-1.4,0.2-1.8,0.2c-0.7,0-1-0.3-1-1c0-0.5,0.3-0.8,0.8-0.8
			c1,0,1.9-0.1,2.7-0.2C115.5,401.1,116.5,400.9,117.4,400.5z M129.9,408.7c0.6,0,0.9,0.4,0.9,1.1c0,0.5-0.4,0.8-1.1,0.9
			c-1.1,0.3-2.5,0.5-4.2,0.7v3.4h5c0.5,0,0.8,0.3,0.8,0.8s-0.3,0.8-0.8,0.8h-5v3.5h6c0.6,0,0.8,0.3,0.8,0.8s-0.3,0.8-0.8,0.8h-12.9
			c-0.6,0-0.8-0.3-0.8-0.8s0.3-0.8,0.8-0.8h5.2v-3.5h-4.4c-0.5,0-0.8-0.3-0.8-0.8s0.3-0.8,0.8-0.8h4.4v-3.2c-1.9,0.2-3.3,0.3-4,0.3
			c-0.7,0-1.1-0.3-1.1-1c0-0.6,0.3-0.8,0.9-0.8c1.8,0,3.5-0.1,5-0.3C126.4,409.6,128.2,409.2,129.9,408.7z M120.5,401.2h9
			c0.9,0,1.3,0.4,1.3,1.3v3.8c0,0.8-0.4,1.3-1.3,1.3h-9c-0.9,0-1.3-0.4-1.3-1.3v-3.8C119.1,401.6,119.6,401.2,120.5,401.2z
			 M128.5,405.9c0.4,0,0.6-0.2,0.6-0.6v-1.9c0-0.4-0.2-0.6-0.6-0.6h-7.1c-0.4,0-0.6,0.2-0.6,0.6v1.9c0,0.4,0.2,0.6,0.6,0.6H128.5z"
			/>
		<path fill="#F4F4F4" d="M139.5,401.9h3.2v-0.7c0-0.5,0.3-0.8,0.8-0.8s0.8,0.3,0.8,0.8v0.7h3.3c0.9,0,1.4,0.4,1.4,1.2v1.3h0.9
			c0.4,0,0.7,0.2,0.7,0.7s-0.2,0.7-0.7,0.7h-0.9v1.3c0,0.8-0.5,1.2-1.4,1.2h-3.3v0.9h3.4c1,0,1.5,0.5,1.5,1.4v1.6
			c0,0.9-0.5,1.4-1.5,1.4h-3.4v0c0,0.1-0.1,0.3-0.2,0.5s-0.2,0.4-0.4,0.6h6.2c0.5,0,0.8,0.3,0.8,0.8s-0.3,0.8-0.8,0.8h-2
			c0,0.2-0.1,0.3-0.2,0.6c-0.4,0.8-0.9,1.5-1.5,2.1c-0.2,0.2-0.4,0.4-0.6,0.6c0.7,0.2,1.4,0.5,2.2,0.8c0.4,0.1,0.6,0.4,0.7,0.7
			c0,0.6-0.3,0.9-0.8,0.9c-0.1,0-0.2,0-0.3-0.1c-1.1-0.5-2.2-1-3.3-1.4c-0.2,0.1-0.5,0.3-0.7,0.4c-0.9,0.4-1.8,0.6-2.9,0.8
			c-1,0.2-1.8,0.3-2.4,0.3c-0.7,0-1-0.3-1-0.9c0-0.5,0.2-0.7,0.7-0.8c1.7-0.1,3.1-0.4,4.2-0.7c-0.8-0.3-1.5-0.6-2.3-0.9
			c-0.5-0.2-0.8-0.5-0.8-1c0-0.3,0.2-0.5,0.5-0.8c0.4-0.3,0.7-0.5,1-0.8h-2.9c-0.5,0-0.8-0.3-0.8-0.8s0.3-0.8,0.8-0.8h4.3
			c0.3-0.3,0.6-0.7,0.8-1.1h-3.4c-1,0-1.5-0.5-1.5-1.4v-1.6c0-0.9,0.5-1.4,1.5-1.4h3.4v-0.9h-3.2c-0.9,0-1.4-0.4-1.4-1.2v-1.3h-0.7
			c-0.4,0-0.7-0.2-0.7-0.7s0.2-0.7,0.7-0.7h0.7v-1.3C138.2,402.3,138.6,401.9,139.5,401.9z M142.8,412.3v-1.8h-2.9
			c-0.4,0-0.6,0.2-0.6,0.7v0.5c0,0.4,0.2,0.7,0.6,0.7H142.8z M139.8,404.4h3v-1.2h-2.5c-0.4,0-0.5,0.2-0.5,0.7V404.4z M142.8,407
			v-1.2h-3v0.6c0,0.4,0.2,0.7,0.5,0.7H142.8z M146.5,416.3h-3.9c-0.4,0.4-0.9,0.8-1.5,1.2c-0.1,0.1-0.2,0.1-0.2,0.2s0.1,0.1,0.2,0.2
			c0.5,0.2,1.5,0.5,2.9,1c0.4-0.2,0.7-0.4,1-0.7C145.6,417.6,146,417,146.5,416.3z M144.4,403.2v1.2h3.1v-0.5c0-0.5-0.2-0.7-0.5-0.7
			H144.4z M147,407c0.3,0,0.5-0.2,0.5-0.7v-0.6h-3.1v1.2H147z M147.2,412.3c0.4,0,0.6-0.2,0.6-0.7v-0.5c0-0.4-0.2-0.7-0.6-0.7h-2.9
			v1.8H147.2z M152.3,400.5c0.5,0,0.8,0.3,0.8,0.8c0,0.8,0,1.7-0.1,2.4h5c0.5,0,0.8,0.3,0.8,0.8s-0.3,0.8-0.8,0.8h-0.7
			c0,1-0.1,2.3-0.3,3.8c-0.2,1.8-0.5,3.4-0.9,5c-0.3,0.9-0.6,1.7-0.9,2.4c0.3,0.5,0.5,0.9,0.8,1.3c0.6,0.8,1.3,1.7,2.3,2.6
			c0.3,0.2,0.5,0.4,0.5,0.7c0,0.7-0.3,1-1,1c-0.1,0-0.3-0.1-0.6-0.3c-0.9-0.8-1.7-1.6-2.4-2.5c-0.2-0.3-0.5-0.6-0.7-0.9
			c-0.1,0.1-0.2,0.2-0.2,0.4c-1,1.3-2.1,2.4-3.3,3.2c-0.2,0.1-0.4,0.2-0.5,0.2c-0.7,0-1-0.3-1-1c0-0.3,0.1-0.5,0.4-0.7
			c1.3-1,2.4-2.1,3.2-3.3c0.1-0.2,0.3-0.4,0.4-0.7c-0.2-0.4-0.4-0.8-0.5-1.2c-0.4-1.2-0.8-2.8-1.2-4.8c-0.1,0.2-0.2,0.3-0.3,0.5
			c-0.2,0.3-0.4,0.4-0.7,0.4c-0.6,0-0.9-0.3-0.9-0.9c0-0.1,0.1-0.2,0.2-0.5c0.7-1.3,1.2-2.8,1.5-4.5c0.2-1.3,0.3-2.7,0.3-4.2
			C151.5,400.8,151.8,400.5,152.3,400.5z M152.3,408c0.2,0.1,0.4,0.3,0.5,0.6c0.4,2.3,0.8,4.1,1.3,5.6l0,0.1
			c0.2-0.4,0.3-0.8,0.4-1.3c0.5-1.8,0.8-4.4,1-7.6h-2.6c0,0.2,0,0.4-0.1,0.7C152.7,406.7,152.5,407.4,152.3,408z"/>
		<path fill="#F4F4F4" d="M184.2,416.5c0.5,0,0.8,0.3,0.8,0.8s-0.3,0.8-0.8,0.8h-7.3c0.1,0.4,0.1,0.7,0.1,1.1c0,0.6-0.2,1.2-0.6,1.8
			c-0.3,0.5-0.8,0.9-1.3,1.1c-0.5,0.2-1.1,0.3-1.9,0.3c-1,0-2.2-0.2-3.6-0.7c-0.5-0.2-0.8-0.5-0.8-0.9c0-0.6,0.3-1,0.8-1
			c1.8,0.5,2.9,0.8,3.4,0.8c0.3,0,0.7,0,1-0.1c0.4-0.1,0.6-0.3,0.9-0.5c0.2-0.2,0.4-0.5,0.4-0.8c0-0.4,0-0.8-0.1-1.1h-11
			c-0.5,0-0.8-0.3-0.8-0.8s0.3-0.8,0.8-0.8h10c-0.3-0.3-0.7-0.5-1.1-0.7c-0.1-0.1-0.2-0.1-0.2-0.2c0-0.6,0.4-0.9,1-0.9
			c0.1,0,0.3,0.1,0.6,0.2c0.2,0.1,0.4,0.3,0.6,0.4c0.5-0.1,0.9-0.3,1.2-0.4c0.5-0.2,0.8-0.4,1.2-0.6c0.3-0.2,0.4-0.3,0.4-0.3
			c0-0.1-0.1-0.2-0.4-0.2h-8.9c-0.5,0-0.8-0.3-0.8-0.8s0.3-0.8,0.8-0.8h10.7c1,0,1.5,0.3,1.5,1c0,0.2-0.1,0.4-0.4,0.7
			c-0.4,0.4-1.1,0.8-1.9,1.3c-0.7,0.4-1.5,0.7-2.3,1c0.1,0.1,0.2,0.2,0.2,0.3H184.2z M166.8,405.3l0.1,1.5h2.7
			c0.5,0,0.7,0.2,0.7,0.7s-0.2,0.7-0.7,0.7H167l0.1,1.3h13.9c0.1-0.5,0.1-1,0.2-1.4h-2.5c-0.5,0-0.7-0.2-0.7-0.7s0.2-0.7,0.7-0.7
			h2.7c0.1-0.6,0.1-1.1,0.2-1.5h-3c-0.5,0-0.7-0.2-0.7-0.7s0.2-0.7,0.7-0.7h3.2c0.1-0.8,0.1-1.2,0.1-1.2c0-0.2-0.2-0.4-0.5-0.4h-3
			c-0.5,0-0.7-0.2-0.7-0.7s0.2-0.7,0.7-0.7h3.8c0.9,0,1.4,0.4,1.4,1.2c0,0.2-0.3,2.7-1,7.5h0.6c0.7,0,1.2,0.2,1.5,0.7
			c0.3,0.4,0.4,0.9,0.4,1.6c0,0.5-0.1,1-0.2,1.7c-0.1,0.5-0.5,0.7-1,0.7c-0.6,0-0.9-0.3-0.9-0.9c0.2-0.8,0.3-1.2,0.3-1.4
			c0-0.6-0.2-0.9-0.7-0.9h-17c-0.4,0-0.6,0.2-0.6,0.6v2c0,0.6-0.3,0.8-0.8,0.8s-0.8-0.3-0.8-0.8v-2.8c0-0.8,0.4-1.2,1.2-1.2h0.9
			l-0.5-7c0-0.6,0.1-1,0.4-1.3c0.2-0.2,0.6-0.4,1.2-0.4c1,0,2.1-0.1,3.1-0.4c0.5,0,0.8,0.3,0.8,0.8c0,0.5-0.3,0.8-0.8,0.9
			c-1,0.1-1.9,0.2-2.6,0.2c-0.4,0-0.5,0.2-0.5,0.6l0.1,1h2.7c0.5,0,0.7,0.2,0.7,0.7s-0.2,0.7-0.7,0.7H166.8z M176,400.5
			c0.5,0,0.8,0.3,0.8,0.8c0,0.3-0.1,0.5-0.4,0.6c-0.3,0.3-0.6,0.5-1,0.8c0.4,0.2,0.8,0.5,1.1,0.7c0.2,0.2,0.3,0.4,0.3,0.4
			c0,0.5-0.2,0.8-0.7,0.8c-0.3,0-0.5-0.1-0.7-0.3c-0.5-0.3-0.9-0.5-1.3-0.8c-0.7,0.4-1.5,0.8-2.4,1.2c-0.2,0.1-0.4,0.1-0.5,0.1
			c-0.5,0-0.7-0.3-0.7-0.8c0-0.2,0.1-0.4,0.4-0.5c0.6-0.3,1.2-0.5,1.7-0.8c-0.4-0.2-0.7-0.3-1.1-0.5c-0.2-0.2-0.3-0.3-0.3-0.5
			c0-0.5,0.2-0.7,0.7-0.7c0.1,0,0.3,0,0.5,0.1c0.6,0.3,1.2,0.5,1.6,0.8c0.6-0.4,1.1-0.8,1.5-1.2C175.8,400.6,175.9,400.5,176,400.5z
			 M176.6,404.9c0.5,0,0.8,0.3,0.8,0.8c0,0.3-0.1,0.5-0.4,0.6c-0.3,0.3-0.6,0.5-1,0.7c0.4,0.2,0.7,0.4,1.1,0.7
			c0.2,0.2,0.3,0.4,0.3,0.4c0,0.5-0.2,0.8-0.7,0.8c-0.3,0-0.5-0.1-0.7-0.3c-0.5-0.3-0.9-0.5-1.3-0.8c-0.7,0.4-1.5,0.8-2.4,1.1
			c-0.2,0.1-0.4,0.1-0.5,0.1c-0.5,0-0.7-0.3-0.7-0.8c0-0.2,0.1-0.4,0.4-0.5c0.6-0.2,1.1-0.5,1.7-0.7c-0.4-0.2-0.8-0.4-1.2-0.5
			c-0.2-0.2-0.3-0.3-0.3-0.5c0-0.5,0.2-0.7,0.7-0.7c0.1,0,0.3,0,0.5,0.1c0.6,0.3,1.2,0.5,1.8,0.8c0.6-0.4,1.1-0.8,1.6-1.2
			C176.3,405,176.5,404.9,176.6,404.9z"/>
	</g>
	<g>
		<circle fill="#F4F4F4" cx="220.2" cy="216" r="5.1"/>
	</g>
	<g>
		<path fill="#F4F4F4" d="M568.5,438.2c0.5,0,0.8,0.3,0.8,0.8s-0.3,0.8-0.8,0.8h-2.7v7.8h3.3c0.5,0,0.8,0.3,0.8,0.8
			s-0.3,0.8-0.8,0.8H565c0.8,0.7,1.5,1.2,2.2,1.5c0.5,0.3,1.3,0.6,2.4,0.9c0.4,0.2,0.6,0.4,0.6,0.8c0,0.6-0.4,1-1.1,1
			c-0.1,0-0.3,0-0.5-0.1c-1.3-0.5-2.3-0.9-3.1-1.5c-0.8-0.5-1.4-1-1.9-1.6c-0.3-0.4-0.5-0.7-0.5-1h-7.7c-0.2,0.6-0.5,1-0.8,1.4
			c-0.4,0.5-0.9,1-1.6,1.5c-1,0.6-2.1,1.1-3,1.4c-0.2,0-0.4,0.1-0.6,0.1c-0.2,0-0.4-0.1-0.5-0.2c-0.1-0.2-0.2-0.4-0.2-0.6
			c0-0.4,0.2-0.7,0.6-0.8c1-0.3,1.9-0.7,2.8-1.2c0.5-0.3,1-0.7,1.4-1.2c0.1-0.1,0.2-0.2,0.3-0.4h-3.7c-0.5,0-0.8-0.3-0.8-0.8
			s0.3-0.8,0.8-0.8h3.4v-7.8h-2.8c-0.5,0-0.8-0.3-0.8-0.8s0.3-0.8,0.8-0.8h2.8v-0.9c0-0.6,0.3-0.8,0.8-0.8s0.8,0.3,0.8,0.8v0.9h9
			v-0.9c0-0.6,0.3-0.8,0.8-0.8s0.8,0.3,0.8,0.8v0.9H568.5z M564.1,452.5c0.5,0,0.8,0.3,0.8,0.8s-0.3,0.8-0.8,0.8h-3.7v2.3h8
			c0.5,0,0.8,0.3,0.8,0.8s-0.3,0.8-0.8,0.8h-17.7c-0.5,0-0.8-0.3-0.8-0.8s0.3-0.8,0.8-0.8h7.9v-2.3h-4c-0.5,0-0.8-0.3-0.8-0.8
			s0.3-0.8,0.8-0.8h4V451c0-0.6,0.3-0.9,0.9-0.9s0.9,0.3,0.9,0.9v1.5H564.1z M555.1,441.4h9v-1.6h-9V441.4z M555.1,444.5h9v-1.6h-9
			V444.5z M555.1,447.6h9v-1.5h-9V447.6z"/>
		<path fill="#F4F4F4" d="M581.3,437.6c0.5,0,0.8,0.3,0.8,0.8s-0.3,0.8-0.8,0.8h-2c0,0.1,0,0.3-0.1,0.5c-0.3,1.7-0.6,3.2-1,4.5h2.2
			c0.9,0,1.4,0.4,1.4,1.3V456c0,0.9-0.5,1.3-1.4,1.3h-2.3c-0.9,0-1.4-0.4-1.4-1.3v-7.7c-0.1,0.3-0.3,0.5-0.4,0.8
			c-0.3,0.3-0.4,0.4-0.6,0.4c-0.6,0-0.9-0.3-0.9-0.8c0-0.2,0.1-0.3,0.2-0.5c0.6-1.2,1.1-2.5,1.5-3.9c0.5-1.4,0.8-3.1,1.1-5h-1.7
			c-0.5,0-0.8-0.3-0.8-0.8s0.3-0.8,0.8-0.8H581.3z M579.7,455.8c0.3,0,0.5-0.2,0.5-0.6v-8.9c0-0.4-0.2-0.6-0.5-0.6h-0.8
			c-0.3,0-0.5,0.2-0.5,0.6v8.9c0,0.4,0.2,0.6,0.5,0.6H579.7z M583.4,446.9h11.1c1,0,1.6,0.5,1.6,1.6c0,0.2,0,0.4-0.1,0.7
			c-0.1,0.5-0.4,0.9-0.7,1.5c-0.2,0.3-0.5,0.4-0.7,0.4c-0.6,0-0.9-0.3-0.9-0.8c0-0.1,0-0.2,0.1-0.3c0.3-0.3,0.4-0.6,0.6-0.9
			c0.1-0.1,0.1-0.2,0.1-0.2c0-0.3-0.2-0.4-0.5-0.4h-3.4v3h3.8c0.5,0,0.8,0.3,0.8,0.8s-0.3,0.8-0.8,0.8h-3.8v3.3
			c1.2,0.1,3.1,0.2,5.6,0.2c0.5,0.1,0.8,0.4,0.8,0.9c0,0.6-0.3,0.9-0.9,0.9c-3.8,0-6.3-0.3-7.4-0.7c-0.9-0.4-1.6-0.8-2.3-1.5
			c-0.3-0.3-0.6-0.7-0.9-1.2c-0.4,1.1-1,2.2-1.9,3.1c-0.2,0.3-0.4,0.4-0.7,0.4c-0.6,0-0.9-0.3-0.9-0.9c0-0.1,0.1-0.2,0.2-0.5
			c1-1,1.6-2.1,2-3.3c0.3-1,0.4-2,0.4-3.1c0-0.5,0.3-0.8,0.8-0.8s0.8,0.3,0.8,0.8c0,0.9-0.1,1.8-0.2,2.6c0.4,0.7,0.7,1.2,1.1,1.5
			c0.5,0.5,1.1,0.9,1.9,1.1v-7.4h-5.4c-0.5,0-0.8-0.3-0.8-0.8S582.9,446.9,583.4,446.9z M588.4,438.5c0.5,0,0.7,0.2,0.7,0.7
			s-0.2,0.7-0.7,0.7h-1.5v0.5l2.1,2c0.1,0.1,0.2,0.2,0.2,0.3c0,0.5-0.3,0.8-0.9,0.8c-0.2,0-0.4-0.1-0.4-0.2l-0.9-1.1v3
			c0,0.5-0.3,0.8-0.8,0.8s-0.8-0.3-0.8-0.8v-3.1c-0.3,0.6-0.5,1.1-0.8,1.4c-0.3,0.5-0.6,0.9-0.8,1.1c-0.2,0.2-0.4,0.3-0.7,0.3
			c-0.5,0-0.8-0.2-0.8-0.7c0-0.2,0.1-0.4,0.3-0.6c0.9-1,1.5-1.8,1.9-2.5c0.3-0.4,0.5-0.9,0.7-1.5h-1.8c-0.5,0-0.7-0.2-0.7-0.7
			s0.2-0.7,0.7-0.7h2.1v-1.1c0-0.5,0.3-0.8,0.8-0.8s0.8,0.3,0.8,0.8v1.1H588.4z M595.7,438.5c0.5,0,0.7,0.2,0.7,0.7
			s-0.2,0.7-0.7,0.7h-2c0.5,0.8,0.9,1.3,1.2,1.7c0.4,0.6,1.1,1.3,2,2.2c0.2,0.2,0.2,0.4,0.2,0.8c-0.1,0.5-0.4,0.7-0.8,0.8
			c-0.2,0-0.4-0.1-0.6-0.3c-0.4-0.4-0.8-1-1.2-1.7c-0.3-0.4-0.6-0.9-0.9-1.5v3.5c0,0.5-0.3,0.8-0.8,0.8s-0.8-0.3-0.8-0.8v-3.7
			c0,0.1-0.1,0.2-0.1,0.3c-0.3,0.7-0.6,1.2-0.9,1.7c-0.3,0.6-0.6,1-0.9,1.2c-0.2,0.2-0.4,0.3-0.7,0.3c-0.5,0-0.8-0.2-0.8-0.7
			c0-0.2,0.1-0.4,0.3-0.6c1-1,1.6-1.9,2-2.6c0.3-0.4,0.5-0.9,0.8-1.5h-1.5c-0.5,0-0.7-0.2-0.7-0.7s0.2-0.7,0.7-0.7h2v-1.1
			c0-0.5,0.3-0.8,0.8-0.8s0.8,0.3,0.8,0.8v1.1H595.7z"/>
		<path fill="#F4F4F4" d="M609,436.7c0.6,0,0.8,0.3,0.8,1c0,0.5-0.4,0.7-1.1,0.8c-0.5,0.2-1,0.4-1.7,0.5v3.6h3
			c0.6,0,0.8,0.3,0.8,0.8s-0.3,0.8-0.8,0.8h-3v0.5l3.6,4.3c0.2,0.3,0.3,0.5,0.3,0.7c0,0.6-0.3,0.9-0.9,0.9c-0.4,0-0.6-0.1-0.8-0.4
			l-2.2-3.1v10.6c0,0.6-0.3,0.9-0.9,0.9s-0.9-0.3-0.9-0.9V448c-0.5,1.2-0.9,2.2-1.3,2.9c-0.5,1-0.9,1.7-1.3,2.2
			c-0.2,0.4-0.5,0.6-0.8,0.6c-0.6,0-0.9-0.3-0.9-0.9c0-0.2,0.1-0.5,0.2-0.7c1.3-1.9,2.2-3.5,2.7-4.7c0.4-0.8,0.8-1.8,1.1-3H602
			c-0.6,0-0.8-0.3-0.8-0.8s0.3-0.8,0.8-0.8h3.3v-3.3c-1.4,0.3-2.3,0.4-2.9,0.4c-0.7,0-1-0.3-1-1c0-0.5,0.3-0.8,0.8-0.8
			c1.2,0,2.3-0.1,3.3-0.3C606.8,437.5,608,437.2,609,436.7z M622.9,450.2c0.6,0,0.9,0.3,0.9,0.9s-0.3,0.9-0.9,0.9l-1.8,0.3v5.4
			c0,0.6-0.3,0.9-0.9,0.9s-0.9-0.3-0.9-0.9v-5.1l-9,1.4c-0.6,0-0.9-0.3-0.9-0.9s0.3-0.9,0.9-0.9l9-1.4v-13.1c0-0.6,0.3-0.9,0.9-0.9
			s0.9,0.3,0.9,0.9v12.9L622.9,450.2z M612.5,443.3c0.2,0,0.4,0.1,0.6,0.2c0.6,0.5,1.1,1.1,1.6,1.6c0.7,0.7,1.4,1.6,2,2.6
			c0.2,0.3,0.3,0.4,0.3,0.5c0,0.5-0.3,0.8-0.8,0.8c-0.3,0-0.6-0.1-0.8-0.3c-0.8-1-1.4-1.8-1.9-2.4c-0.4-0.5-0.9-1-1.5-1.5
			c-0.2-0.2-0.3-0.4-0.3-0.6C611.7,443.6,612,443.3,612.5,443.3z M613.5,437.8c0.2,0,0.4,0.1,0.6,0.2c0.6,0.6,1.2,1.1,1.7,1.7
			c0.8,0.8,1.5,1.7,2.2,2.7c0.2,0.3,0.3,0.4,0.3,0.5c0,0.6-0.3,0.8-0.8,0.8c-0.3,0-0.6-0.1-0.8-0.3c-0.8-1.1-1.5-1.9-2.1-2.5
			c-0.5-0.5-1-1-1.6-1.6c-0.2-0.2-0.3-0.4-0.3-0.6C612.6,438.1,612.9,437.8,613.5,437.8z"/>
		<path fill="#F4F4F4" d="M648.8,452.6c0.5,0,0.8,0.3,0.8,0.8s-0.3,0.8-0.8,0.8h-7.3c0.1,0.4,0.1,0.7,0.1,1.1c0,0.6-0.2,1.2-0.6,1.8
			c-0.3,0.5-0.8,0.9-1.3,1.1c-0.5,0.2-1.1,0.3-1.9,0.3c-1,0-2.2-0.2-3.6-0.7c-0.5-0.2-0.8-0.5-0.8-0.9c0-0.6,0.3-1,0.8-1
			c1.8,0.5,2.9,0.8,3.4,0.8c0.3,0,0.7,0,1-0.1c0.4-0.1,0.6-0.3,0.9-0.5c0.2-0.2,0.4-0.5,0.4-0.8c0-0.4,0-0.8-0.1-1.1h-11
			c-0.5,0-0.8-0.3-0.8-0.8s0.3-0.8,0.8-0.8h10c-0.3-0.3-0.7-0.5-1.1-0.7c-0.1-0.1-0.2-0.1-0.2-0.2c0-0.6,0.4-0.9,1-0.9
			c0.1,0,0.3,0.1,0.6,0.2c0.2,0.1,0.4,0.3,0.6,0.4c0.5-0.1,0.9-0.3,1.2-0.4c0.5-0.2,0.8-0.4,1.2-0.6c0.3-0.2,0.4-0.3,0.4-0.3
			c0-0.1-0.1-0.2-0.4-0.2H633c-0.5,0-0.8-0.3-0.8-0.8s0.3-0.8,0.8-0.8h10.7c1,0,1.5,0.3,1.5,1c0,0.2-0.1,0.4-0.4,0.7
			c-0.4,0.4-1.1,0.8-1.9,1.3c-0.7,0.4-1.5,0.7-2.3,1c0.1,0.1,0.2,0.2,0.2,0.3H648.8z M631.3,441.5l0.1,1.5h2.7
			c0.5,0,0.7,0.2,0.7,0.7s-0.2,0.7-0.7,0.7h-2.6l0.1,1.3h13.9c0.1-0.5,0.1-1,0.2-1.4h-2.5c-0.5,0-0.7-0.2-0.7-0.7s0.2-0.7,0.7-0.7
			h2.7c0.1-0.6,0.1-1.1,0.2-1.5h-3c-0.5,0-0.7-0.2-0.7-0.7s0.2-0.7,0.7-0.7h3.2c0.1-0.8,0.1-1.2,0.1-1.2c0-0.2-0.2-0.4-0.5-0.4h-3
			c-0.5,0-0.7-0.2-0.7-0.7s0.2-0.7,0.7-0.7h3.8c0.9,0,1.4,0.4,1.4,1.2c0,0.2-0.3,2.7-1,7.5h0.6c0.7,0,1.2,0.2,1.5,0.7
			c0.3,0.4,0.4,0.9,0.4,1.6c0,0.5-0.1,1-0.2,1.7c-0.1,0.5-0.5,0.7-1,0.7c-0.6,0-0.9-0.3-0.9-0.9c0.2-0.8,0.3-1.2,0.3-1.4
			c0-0.6-0.2-0.9-0.7-0.9h-17c-0.4,0-0.6,0.2-0.6,0.6v2c0,0.6-0.3,0.8-0.8,0.8s-0.8-0.3-0.8-0.8v-2.8c0-0.8,0.4-1.2,1.2-1.2h0.9
			l-0.5-7c0-0.6,0.1-1,0.4-1.3c0.2-0.2,0.6-0.4,1.2-0.4c1,0,2.1-0.1,3.1-0.4c0.5,0,0.8,0.3,0.8,0.8c0,0.5-0.3,0.8-0.8,0.9
			c-1,0.1-1.9,0.2-2.6,0.2c-0.4,0-0.5,0.2-0.5,0.6l0.1,1h2.7c0.5,0,0.7,0.2,0.7,0.7s-0.2,0.7-0.7,0.7H631.3z M640.6,436.7
			c0.5,0,0.8,0.3,0.8,0.8c0,0.3-0.1,0.5-0.4,0.6c-0.3,0.3-0.6,0.5-1,0.8c0.4,0.2,0.8,0.5,1.1,0.7c0.2,0.2,0.3,0.4,0.3,0.4
			c0,0.5-0.2,0.8-0.7,0.8c-0.3,0-0.5-0.1-0.7-0.3c-0.5-0.3-0.9-0.5-1.3-0.8c-0.7,0.4-1.5,0.8-2.4,1.2c-0.2,0.1-0.4,0.1-0.5,0.1
			c-0.5,0-0.7-0.3-0.7-0.8c0-0.2,0.1-0.4,0.4-0.5c0.6-0.3,1.2-0.5,1.7-0.8c-0.4-0.2-0.7-0.3-1.1-0.5c-0.2-0.2-0.3-0.3-0.3-0.5
			c0-0.5,0.2-0.7,0.7-0.7c0.1,0,0.3,0,0.5,0.1c0.6,0.3,1.2,0.5,1.6,0.8c0.6-0.4,1.1-0.8,1.5-1.2
			C640.3,436.7,640.5,436.7,640.6,436.7z M641.1,441.1c0.5,0,0.8,0.3,0.8,0.8c0,0.3-0.1,0.5-0.4,0.6c-0.3,0.3-0.6,0.5-1,0.7
			c0.4,0.2,0.7,0.4,1.1,0.7c0.2,0.2,0.3,0.4,0.3,0.4c0,0.5-0.2,0.8-0.7,0.8c-0.3,0-0.5-0.1-0.7-0.3c-0.5-0.3-0.9-0.5-1.3-0.8
			c-0.7,0.4-1.5,0.8-2.4,1.1c-0.2,0.1-0.4,0.1-0.5,0.1c-0.5,0-0.7-0.3-0.7-0.8c0-0.2,0.1-0.4,0.4-0.5c0.6-0.2,1.1-0.5,1.7-0.7
			c-0.4-0.2-0.8-0.4-1.2-0.5c-0.2-0.2-0.3-0.3-0.3-0.5c0-0.5,0.2-0.7,0.7-0.7c0.1,0,0.3,0,0.5,0.1c0.6,0.3,1.2,0.5,1.8,0.8
			c0.6-0.4,1.1-0.8,1.6-1.2C640.9,441.1,641,441.1,641.1,441.1z"/>
	</g>
	<g>
		<path fill="#F4F4F4" d="M292.4,411.4c-0.1,0-0.2,0-0.3-0.1c-0.2-0.2-0.2-0.5-0.1-0.7l40.2-49c0.2-0.2,0.5-0.2,0.7-0.1
			c0.2,0.2,0.2,0.5,0.1,0.7l-40.2,49C292.7,411.4,292.6,411.4,292.4,411.4z"/>
	</g>
	<g>
		<path fill="#F4F4F4" d="M302.1,242.5c-0.1,0-0.2,0-0.3-0.1l-43.8-26c-0.2-0.1-0.3-0.4-0.2-0.7s0.4-0.3,0.7-0.2l43.8,26
			c0.2,0.1,0.3,0.4,0.2,0.7C302.4,242.4,302.2,242.5,302.1,242.5z"/>
	</g>
	<g>
		<linearGradient id="SVGID_1_" gradientUnits="userSpaceOnUse" x1="271.0632" y1="227.8849" x2="444.5972" y2="328.0748">
			<stop  offset="0" style="stop-color:#C9C7C9"/>
			<stop  offset="0.5035" style="stop-color:#CECED7"/>
			<stop  offset="1" style="stop-color:#D4D7EA"/>
		</linearGradient>
		<path fill="url(#SVGID_1_)" d="M391.2,420.5c-73.8,0-133.6-59.8-133.6-133.6s59.8-133.6,133.6-133.6"/>
	</g>
	<g>
		<g>
			<path fill="#FFFFFF" d="M496.3,287.9h-219c-0.6,0-1-0.4-1-1s0.4-1,1-1h219c0.6,0,1,0.4,1,1S496.9,287.9,496.3,287.9z"/>
		</g>
		<g>
			<path fill="#FFFFFF" d="M288.1,306.1c-0.5,0-0.9-0.3-1-0.8c-0.1-0.5,0.3-1.1,0.8-1.2l206.6-36.4c0.5-0.1,1.1,0.3,1.2,0.8
				c0.1,0.5-0.3,1.1-0.8,1.2l-206.6,36.4C288.2,306.1,288.1,306.1,288.1,306.1z"/>
		</g>
		<g>
			<path fill="#FFFFFF" d="M292.8,323.8c-0.4,0-0.8-0.3-0.9-0.7c-0.2-0.5,0.1-1.1,0.6-1.3l197.2-71.8c0.5-0.2,1.1,0.1,1.3,0.6
				c0.2,0.5-0.1,1.1-0.6,1.3l-197.2,71.8C293,323.8,292.9,323.8,292.8,323.8z"/>
		</g>
		<g>
			<path fill="#FFFFFF" d="M300.5,340.4c-0.3,0-0.7-0.2-0.9-0.5c-0.3-0.5-0.1-1.1,0.4-1.4l181.7-104.9c0.5-0.3,1.1-0.1,1.4,0.4
				c0.3,0.5,0.1,1.1-0.4,1.4L301,340.2C300.9,340.3,300.7,340.4,300.5,340.4z"/>
		</g>
		<g>
			<path fill="#FFFFFF" d="M302.9,362.2c-0.3,0-0.6-0.1-0.8-0.4c-0.4-0.4-0.3-1.1,0.1-1.4l168.8-141.7c0.4-0.4,1.1-0.3,1.4,0.1
				c0.4,0.4,0.3,1.1-0.1,1.4L303.6,361.9C303.4,362.1,303.1,362.2,302.9,362.2z"/>
		</g>
		<g>
			<path fill="#FFFFFF" d="M324,368.3c-0.2,0-0.5-0.1-0.6-0.2c-0.4-0.4-0.5-1-0.1-1.4l134.9-160.7c0.4-0.4,1-0.5,1.4-0.1
				c0.4,0.4,0.5,1,0.1,1.4L324.7,367.9C324.5,368.2,324.2,368.3,324,368.3z"/>
		</g>
		<g>
			<path fill="#FFFFFF" d="M338.9,378.8c-0.2,0-0.3,0-0.5-0.1c-0.5-0.3-0.6-0.9-0.4-1.4L443,195.6c0.3-0.5,0.9-0.6,1.4-0.4
				c0.5,0.3,0.6,0.9,0.4,1.4L339.8,378.3C339.6,378.6,339.3,378.8,338.9,378.8z"/>
		</g>
		<g>
			<path fill="#FFFFFF" d="M355.5,386.5c-0.1,0-0.2,0-0.3-0.1c-0.5-0.2-0.8-0.8-0.6-1.3L426.3,188c0.2-0.5,0.8-0.8,1.3-0.6
				c0.5,0.2,0.8,0.8,0.6,1.3l-71.8,197.2C356.3,386.3,355.9,386.5,355.5,386.5z"/>
		</g>
		<g>
			<path fill="#FFFFFF" d="M373.2,391.2c-0.1,0-0.1,0-0.2,0c-0.5-0.1-0.9-0.6-0.8-1.2l36.4-206.6c0.1-0.5,0.6-0.9,1.2-0.8
				c0.5,0.1,0.9,0.6,0.8,1.2l-36.4,206.6C374.1,390.9,373.7,391.2,373.2,391.2z"/>
		</g>
		<g>
			<path fill="#FFFFFF" d="M391.4,392.8c-0.6,0-1-0.4-1-1V182c0-0.6,0.4-1,1-1s1,0.4,1,1v209.8C392.4,392.4,391.9,392.8,391.4,392.8
				z"/>
		</g>
		<g>
			<path fill="#FFFFFF" d="M409.6,391.2c-0.5,0-0.9-0.3-1-0.8l-36.4-206.6c-0.1-0.5,0.3-1.1,0.8-1.2c0.5-0.1,1.1,0.3,1.2,0.8
				l36.4,206.6c0.1,0.5-0.3,1.1-0.8,1.2C409.7,391.2,409.7,391.2,409.6,391.2z"/>
		</g>
		<g>
			<path fill="#FFFFFF" d="M427.3,386.5c-0.4,0-0.8-0.3-0.9-0.7l-71.8-197.2c-0.2-0.5,0.1-1.1,0.6-1.3c0.5-0.2,1.1,0.1,1.3,0.6
				l71.8,197.2c0.2,0.5-0.1,1.1-0.6,1.3C427.5,386.5,427.4,386.5,427.3,386.5z"/>
		</g>
		<g>
			<path fill="#FFFFFF" d="M443.9,378.8c-0.3,0-0.7-0.2-0.9-0.5L338.1,196.6c-0.3-0.5-0.1-1.1,0.4-1.4c0.5-0.3,1.1-0.1,1.4,0.4
				l104.9,181.7c0.3,0.5,0.1,1.1-0.4,1.4C444.2,378.7,444,378.8,443.9,378.8z"/>
		</g>
		<g>
			<path fill="#FFFFFF" d="M458.8,368.3c-0.3,0-0.6-0.1-0.8-0.4L323.2,207.2c-0.4-0.4-0.3-1.1,0.1-1.4c0.4-0.4,1.1-0.3,1.4,0.1
				l134.9,160.7c0.4,0.4,0.3,1.1-0.1,1.4C459.3,368.2,459.1,368.3,458.8,368.3z"/>
		</g>
		<g>
			<path fill="#FFFFFF" d="M471.8,355.4c-0.2,0-0.5-0.1-0.6-0.2L304.1,214.9c-0.4-0.4-0.5-1-0.1-1.4c0.4-0.4,1-0.5,1.4-0.1
				l167.1,140.2c0.4,0.4,0.5,1,0.1,1.4C472.3,355.2,472,355.4,471.8,355.4z"/>
		</g>
		<g>
			<path fill="#FFFFFF" d="M482.3,340.4c-0.2,0-0.3,0-0.5-0.1L300,235.3c-0.5-0.3-0.6-0.9-0.4-1.4c0.3-0.5,0.9-0.6,1.4-0.4
				l181.7,104.9c0.5,0.3,0.6,0.9,0.4,1.4C482.9,340.2,482.6,340.4,482.3,340.4z"/>
		</g>
		<g>
			<path fill="#FFFFFF" d="M490,323.8c-0.1,0-0.2,0-0.3-0.1L292.5,252c-0.5-0.2-0.8-0.8-0.6-1.3c0.2-0.5,0.8-0.8,1.3-0.6l197.2,71.8
				c0.5,0.2,0.8,0.8,0.6,1.3C490.8,323.6,490.4,323.8,490,323.8z"/>
		</g>
		<g>
			<path fill="#FFFFFF" d="M494.7,306.1c-0.1,0-0.1,0-0.2,0l-206.6-36.4c-0.5-0.1-0.9-0.6-0.8-1.2c0.1-0.5,0.6-0.9,1.2-0.8
				l206.6,36.4c0.5,0.1,0.9,0.6,0.8,1.2C495.6,305.8,495.2,306.1,494.7,306.1z"/>
		</g>
	</g>
	<g>
		<path fill="#2D3039" d="M390.1,153.4c73.8,0,133.6,59.8,133.6,133.6s-59.8,133.6-133.6,133.6"/>
	</g>
	<g id="line">
		<g>
			<path fill="#F4F4F4" d="M451,218.8c-0.1,0-0.2,0-0.3-0.1c-0.2-0.2-0.2-0.5-0.1-0.7l55.5-66.4c0.2-0.2,0.5-0.2,0.7-0.1
				s0.2,0.5,0.1,0.7l-55.5,66.4C451.3,218.7,451.1,218.8,451,218.8z"/>
		</g>
		<g>
			<path fill="#F4F4F4" d="M549.9,152.4h-43.4c-0.3,0-0.5-0.2-0.5-0.5s0.2-0.5,0.5-0.5h43.4c0.3,0,0.5,0.2,0.5,0.5
				S550.2,152.4,549.9,152.4z"/>
		</g>
		<g>
			<path fill="#F4F4F4" d="M512.2,343.4c-0.1,0-0.2,0-0.3-0.1l-40.2-25.4c-0.2-0.1-0.3-0.5-0.2-0.7c0.1-0.2,0.5-0.3,0.7-0.2
				l40.2,25.4c0.2,0.1,0.3,0.5,0.2,0.7C512.5,343.3,512.3,343.4,512.2,343.4z"/>
		</g>
		<g>
			<path fill="#F4F4F4" d="M593,343.4h-80.8c-0.3,0-0.5-0.2-0.5-0.5s0.2-0.5,0.5-0.5H593c0.3,0,0.5,0.2,0.5,0.5
				S593.3,343.4,593,343.4z"/>
		</g>
		<g>
			<path fill="#F4F4F4" d="M292.4,411.4h-75.6c-0.3,0-0.5-0.2-0.5-0.5s0.2-0.5,0.5-0.5h75.6c0.3,0,0.5,0.2,0.5,0.5
				S292.7,411.4,292.4,411.4z"/>
		</g>
		<g>
			<path fill="#F4F4F4" d="M475.3,446.5c-0.2,0-0.4-0.1-0.4-0.3l-40.2-75.5c-0.1-0.2,0-0.5,0.2-0.7c0.2-0.1,0.5,0,0.7,0.2l40.2,75.5
				c0.1,0.2,0,0.5-0.2,0.7C475.4,446.5,475.3,446.5,475.3,446.5z"/>
		</g>
		<g>
			<path fill="#F4F4F4" d="M525.9,446.5h-50.7c-0.3,0-0.5-0.2-0.5-0.5s0.2-0.5,0.5-0.5h50.7c0.3,0,0.5,0.2,0.5,0.5
				S526.2,446.5,525.9,446.5z"/>
		</g>
		<g>
			<path fill="#F4F4F4" d="M258.5,216.5h-32.3c-0.3,0-0.5-0.2-0.5-0.5s0.2-0.5,0.5-0.5h32.3c0.3,0,0.5,0.2,0.5,0.5
				S258.7,216.5,258.5,216.5z"/>
		</g>
	</g>
	<g>
		<path fill="#70D2ED" d="M414.9,411.4c-0.2,0-0.4-0.2-0.5-0.4c-0.1-0.3,0.1-0.5,0.4-0.6c59.1-11.3,102-63.2,102-123.5
			c0-66.6-52-121.7-118.5-125.5c-0.3,0-0.5-0.3-0.5-0.5c0-0.3,0.3-0.5,0.5-0.5c67,3.8,119.4,59.4,119.4,126.5
			C517.8,347.7,474.6,400.1,414.9,411.4C415,411.4,414.9,411.4,414.9,411.4z"/>
	</g>
	<g>
		<path fill="#70D2ED" d="M493.3,227.6c-0.2,0-0.3-0.1-0.4-0.2c-19.9-34.1-55.3-55.8-94.6-58.2c-0.3,0-0.5-0.3-0.5-0.5
			c0-0.3,0.3-0.5,0.5-0.5c39.6,2.4,75.3,24.3,95.4,58.7c0.1,0.2,0.1,0.5-0.2,0.7C493.5,227.6,493.4,227.6,493.3,227.6z"/>
	</g>
	<g>
		<circle fill="#70D2ED" cx="414.9" cy="410.9" r="3.1"/>
	</g>
	<g>
		<circle fill="#70D2ED" cx="493.3" cy="227.1" r="3.2"/>
	</g>
	<linearGradient id="SVGID_2_" gradientUnits="userSpaceOnUse" x1="341.7669" y1="201.6847" x2="440.192" y2="372.162">
		<stop  offset="0" style="stop-color:#29599E"/>
		<stop  offset="0.1907" style="stop-color:#1D7BAA"/>
		<stop  offset="0.4154" style="stop-color:#129CB6"/>
		<stop  offset="0.6309" style="stop-color:#0AB4BE"/>
		<stop  offset="0.8308" style="stop-color:#05C2C3"/>
		<stop  offset="1" style="stop-color:#03C7C5"/>
	</linearGradient>
	<circle fill="url(#SVGID_2_)" cx="391" cy="286.9" r="98.4"/>
	<g>
		<g>
			<path fill="#FFFFFF" d="M452.8,303.6c2.8-4.8,0.9-12.4,0.1-14.9c3.5-8.5-3.2-30.3-6.2-37.5c-2.3-5.6-6.9-10.7-10.3-14.4
				c-1.5-1.7-2.8-3.1-3.3-3.9c-2.1-3.5-4.7-5.2-8.5-5.5c-0.8-0.1-0.8-0.1-1.4-1.1c-0.4-0.8-1-2-2.2-3.1c-1.5-1.4-3-1.7-4.8-1.4
				c-0.6,0.1-1.1,0.5-2.6-0.4c-3.6-2.1-5.7-3-10.5-3c-5.6,0-7.4,10.5-7.8,13.6c-1.1,4.8-1.1,20.5-1.1,33.1c0,4.8,0,8.9-0.1,11.2
				c-0.2,5.5,1.4,9,2.7,10.9c-3.1,3.3-4,11.2-3.8,14c0.2,1.9,0.8,3,1.2,3.9c0.5,1,0.8,1.5-0.1,3.8c-2,5.5-0.9,22.7,0,25.5
				c0.4,1.2,1,1.9,1.5,2.5c0.7,0.8,1.4,1.6,1.5,5.9c0.2,8.9,14.3,12.9,17.9,12.9c3.6,0,9.5-2.9,10.1-3.2
				c12.7-5.3,17.3-16.3,20.1-22.9c0.8-1.8,1.7-3.9,2.2-4.4c3.2-2.7,3.1-7.2,2.9-8.9C453.1,310.9,453,305.6,452.8,303.6z
				 M443.2,252.6c3.3,8,7.8,24.3,6.8,32.2c-0.3-0.4-0.5-0.9-0.8-1.3c-1.6-2.6-3.3-5.3-4-9.8c-1.4-8.9-6.8-11.1-7.1-11.2
				c-0.7-0.3-1.5,0.1-1.8,0.8c-0.3,0.7,0.1,1.5,0.8,1.8c0.2,0.1,4.2,1.8,5.3,9c0.8,5.1,2.7,8.2,4.4,10.9c1.1,1.8,2.1,3.4,2.6,5.4
				c0.9,3,2,8.9-0.1,11.8c-2.3,1.6-8,3.9-16.7-3.7c-5.5-4.9-7.6-8.4-7.6-8.5c-0.4-0.7-1.2-0.9-1.9-0.5c-0.7,0.4-0.9,1.2-0.5,1.9
				c0.1,0.2,2.2,4,8.2,9.2c5.2,4.6,9.6,6,13.1,6c2.1,0,3.8-0.5,5.2-1.1c0,2.2-0.3,5.9-2.4,9.5c-4.7,1.1-23.3,3.2-38.1-29.5
				c0,0,0,0,0,0c0,0,0,0,0,0c0-0.1-0.1-0.2-0.2-0.2c0-0.1-0.1-0.1-0.1-0.2c0,0,0,0-0.1,0c0,0,0,0,0-0.1c-0.1,0-0.1-0.1-0.2-0.1
				c-0.1,0-0.1-0.1-0.2-0.1c0,0,0,0-0.1,0c-0.1,0-0.2,0-0.3,0c-0.1,0-0.1,0-0.2,0c0,0,0,0-0.1,0c-0.1,0-0.2,0-0.3,0.1
				c-0.1,0-0.1-0.2-0.2-0.1c0,0,0-0.2,0-0.2s0,0,0,0c0,0,0,0.2,0,0.2c-0.1,0-0.2,0.2-0.2,0.3c-0.1,0-0.1,0.1-0.2,0.2
				c0,0,0,0.1,0,0.1c0,0,0,0-0.1,0.1c-1.5,2-3.5,2-4.8,1.7l-0.8-0.7c-0.1-0.1-3.2-2.8-3-9.8c0.1-2.4,0.1-6.5,0.1-11.3
				c0-4,0-8.7,0.1-13.3c2.3-1,7.6-2.7,10.8,1.7c1.8,2.4,2.4,4.6,1.9,6.7c-0.5,2.2-2.1,3.6-3.3,4.3c-0.7,0.4-1,1.2-0.6,1.9
				c0.2,0.5,0.7,0.8,1.2,0.8c0.2,0,0.4-0.1,0.6-0.2c1.7-0.9,3.8-2.8,4.6-5.6c1.1,0,4.4,0.5,6.5,4.5c0.2,0.5,0.7,0.8,1.2,0.8
				c0.1,0,0.2,0,0.3,0c0.6-0.1,1.1-0.7,1.1-1.3c0-0.2,0.3-4.6,5.7-5c4.6-0.3,7.7-1.8,8.4-4.2c0.3-1,0.5-2.9-2.1-5
				c-1.4-1.1-1.5-2-1.5-3.2c0-1.2-0.1-2.8-1.5-4.4c1-1.6,1.5-3.3,1.7-4.8c0.2,0.2,0.4,0.4,0.6,0.6
				C436.8,242.8,441.2,247.6,443.2,252.6z M403,222c4,0,5.3,0.6,8.6,2.5c1.7,1,3.6,1.1,5.1,0.9c0.3,0,0.5-0.1,0.7-0.1
				c0.2,0,0.4,0,0.9,0.5c0.8,0.7,1.1,1.4,1.5,2.1c0.2,0.4,0.5,0.9,0.8,1.3c0.3,1.4,0.4,3.3-0.5,4.8c-0.8,1.4-2.3,2.3-4.6,2.6
				c-0.8,0.1-1.3,0.8-1.2,1.6c0.1,0.7,0.7,1.2,1.4,1.2c0.1,0,0.1,0,0.2,0c3.1-0.5,5.3-1.9,6.6-4c0.8-1.4,1-3,1-4.4
				c0.2,0,0.4,0.1,0.6,0.1c2.6,0.2,4.1,1.2,5.6,3.6c0.1,0.2,0.3,0.4,0.4,0.6c0.2,1.7,0.1,4.7-1.6,7c-1.5,2-4.2,3.1-7.9,3.2
				c-0.8,0-1.4,0.4-1.4,1.1c0,0.8,0.6,1,1.4,1c0,0,0,0,0,0c3.6,0,6.5-0.7,8.5-2.5c0.5,0.7,0.6,1.6,0.6,2.5c0,1.4,0.1,3.5,2.5,5.4
				c0.4,0.3,1.4,1.3,1.2,2c-0.3,0.9-2.3,2.1-5.9,2.3c-4.1,0.3-6.3,2.4-7.4,4.5c-2.4-2.8-5.3-3.4-6.9-3.5c-0.1-1.8-0.7-4.1-2.6-6.7
				c-3.6-4.9-9.2-4.5-13-3.1c0-2.2,0.1-4.4,0.2-6.3c0.8-2,2.5-5.4,5.5-6c0.8-0.2,1.2-0.9,1.1-1.7c-0.2-0.8-0.9-1.3-1.7-1.1
				c-1.9,0.4-3.4,1.5-4.6,2.8c0.1-1.6,0.3-3,0.5-3.8C399.6,227.1,401.6,222,403,222z M423.6,349c-1.4,0.7-3.8,1.7-5.8,2.3
				c2.5-3,3.9-7.3,4.3-8.9c5.7-3.7,7.5-10.6,7.5-10.7c0.2-0.8-0.3-1.5-1-1.7c-0.8-0.2-1.5,0.5-1.7,1.3c0,0.1-2.7,11-12.5,11h0
				c-0.8,0-1.4,0.7-1.4,1.5c0,0.8,0.6,1.5,1.4,1.5h0c1.6,0,3-0.6,4.3-0.9c-1.1,2.8-3,6.3-5.3,7.3c-0.1,0-0.1,0-0.2,0
				c-4.2-0.9-12.1-4.2-12.2-9c-0.1-5.2-1.2-6.9-2.5-8.3c-0.4-0.4-0.6-0.7-0.7-1.1c-0.7-2.2-1.8-18.5,0-23.1c1.3-3.6,0.8-5.2-0.2-6.9
				c-0.4-0.7-0.7-1.3-0.8-2.4c-0.3-4.2,1.8-11.1,3.1-11.4l0.4-0.1c0.7,0.2,1.6,0.4,2.5,0.4c1.4,0,2.9-0.4,4.2-1.4
				c2.4,5.5,6.6,16.1,5.9,20c-0.4,2.5-2.5,4.2-4.5,5.9c-2.1,1.7-4.2,3.5-4.4,6.3c-0.2,2.3,1.1,4.8,4,7.9c2.4,2.6,2.1,4.6,1.1,5.6
				c-0.5,0.5-1.2,0.8-2,0.8c-1.5-0.5-2.6-1.2-2.6-1.2c-0.1,0-0.1,0-0.2-0.1c-0.1,0-0.2-0.1-0.3-0.1c-0.1,0-0.2,0-0.3,0
				c-0.1,0-0.2,0-0.3,0s-0.2,0-0.3,0.1c-0.1,0-0.2,0.1-0.2,0.1c-0.1,0-0.1,0.1-0.2,0.2c-0.1,0-0.1,0.1-0.2,0.1c0,0,0,0.1,0,0.1
				c0,0,0,0,0,0c0,0,0,0.1-0.1,0.2c-0.1,0.1-0.1,0.2-0.1,0.3c0,0.1,0,0.1,0,0.2c0,0.1,0,0.2,0,0.3c0,0.1,0,0.2,0.1,0.2
				c0,0.1,0.1,0.2,0.1,0.3c0,0.1,0.1,0.1,0.2,0.2c0,0.1,0.1,0.1,0.1,0.2c0,0,0.1,0.1,0.1,0.1c0,0,0,0,0,0c0,0,0,0,0.1,0
				c1.2,1,2.4,1.5,3.6,1.7c0.9,0.3,2,0.5,3.2,0.5c1.1,0,2.3-0.2,3.6-0.7c4.8-1.9,8.2-7.7,10-17.1c0.1-0.8-0.3-1.5-1.1-1.6
				c-0.7-0.2-1.5,0.4-1.6,1.1c-1.6,8.3-4.5,13.5-8.3,15c-0.1,0-0.2,0.1-0.3,0.1c1.2-2.1,1-5.2-1.9-8.4c-2.2-2.4-3.3-4.4-3.2-5.8
				c0.1-1.6,1.6-2.8,3.4-4.3c2.3-1.9,4.8-4,5.5-7.5c0.3-1.8-0.1-4.4-0.8-7.3c10.3,13.8,21.1,16.4,27.7,16.4c1.7,0,3-0.2,4.1-0.4
				c0,1.4-0.3,3.4-1.6,4.6c-0.2,0.1-0.3,0.3-0.4,0.4c-1.6,0.8-4.3,1.6-8.2,0.8c-0.8-0.2-1.5,0.3-1.6,1.1c-0.2,0.8,0.3,1.5,1.1,1.6
				c1.3,0.3,2.5,0.4,3.6,0.4c1.1,0,2.1-0.1,3.1-0.3c-0.2,0.5-0.5,1.1-0.7,1.8C439.1,334.5,435,344.2,423.6,349z"/>
		</g>
		<g>
			<path fill="#FFFFFF" d="M429.3,274.4c0.6-2.2-0.2-3.7-0.3-3.8c-0.4-0.7-1.2-0.9-1.9-0.5c-0.7,0.4-0.9,1.2-0.6,1.9
				c0,0.1,0.8,1.6-1.3,3.8c-0.9,1-1.6,1.8-2.1,2.4c-1.1,1.3-1.3,1.6-2.4,1.7c-1.4,0.1-3.7-1.5-7.2-4.6c-0.6-0.5-1.5-0.5-2,0.1
				c-0.5,0.6-0.5,1.5,0.1,2c2.9,2.7,6.3,5.4,9,5.4c0.1,0,0.2,0,0.3,0c2.3-0.2,3.2-1.3,4.4-2.7c0.5-0.6,1.1-1.3,2-2.3
				c0.2-0.3,0.5-0.5,0.7-0.7c1.7,0.4,5.7,1.9,7.1,8.1c0.1,0.7,0.7,1.1,1.4,1.1c0.1,0,0.2,0,0.3,0c0.8-0.2,1.2-0.9,1.1-1.7
				C436.4,278.1,432.3,275.3,429.3,274.4z"/>
		</g>
		<g>
			<path fill="#FFFFFF" d="M388,276.2c-0.1-2.4-0.1-6.4-0.1-11.2c0-12.6,0-28.3-1.1-33c-0.4-3.2-2.3-13.8-7.8-13.8
				c-4.8,0-6.9,0.9-10.5,3c-1.6,0.9-2,0.5-2.6,0.4c-1.8-0.3-3.3,0-4.8,1.4c-1.2,1.2-1.8,2.3-2.2,3.1c-0.6,1.1-0.6,1.1-1.4,1.1
				c-3.8,0.3-6.5,2-8.5,5.5c-0.5,0.8-1.8,2.3-3.3,3.9c-3.4,3.7-8,8.8-10.3,14.4c-3,7.2-9.7,29-6.2,37.5c-0.8,2.5-2.7,10.1,0.1,14.9
				c-0.2,1.9-0.3,7.2,2.5,12.6c-0.2,1.7-0.3,6.2,2.9,8.9c0.5,0.5,1.4,2.5,2.2,4.4c2.8,6.6,7.4,17.5,20,22.8
				c0.7,0.3,6.6,3.2,10.2,3.2c3.6,0,17.7-4,17.9-12.9c0.1-4.3,0.8-5.1,1.5-5.9c0.5-0.6,1.1-1.2,1.5-2.5c0.9-2.8,2-20,0-25.5
				c-0.9-2.3-0.6-2.8-0.1-3.8c0.4-0.8,1.1-2,1.2-3.9c0.2-2.8-0.6-10.7-3.8-14C386.6,285.2,388.1,281.7,388,276.2z M357.7,231.1
				c0.2,0,0.4-0.1,0.6-0.1c0,1.4,0.2,3,1,4.4c1.2,2.2,3.4,3.5,6.6,4c0.1,0,0.1,0,0.2,0c0.7,0,1.3-0.5,1.4-1.2
				c0.1-0.8-0.4-1.5-1.2-1.6c-2.2-0.4-3.8-1.2-4.6-2.6c-0.9-1.5-0.7-3.4-0.5-4.8c0.3-0.5,0.6-0.9,0.8-1.3c0.4-0.7,0.7-1.4,1.5-2.1
				c0.5-0.5,0.8-0.5,0.9-0.5c0.2,0,0.5,0,0.7,0.1c1.5,0.2,3.3,0.1,5.1-0.9c3.3-1.9,4.7-2.5,8.6-2.5c1.4,0,3.4,5.1,4.1,10.7
				c0.2,0.8,0.3,2.1,0.5,3.7c-1.2-1.3-2.7-2.4-4.6-2.8c-0.8-0.2-1.5,0.3-1.6,1.1c-0.2,0.8,0.3,1.5,1.1,1.7c3,0.6,4.7,4.1,5.5,6
				c0.1,2,0.1,4.1,0.1,6.3c-3.9-1.4-9.4-1.8-13,3.1c-1.9,2.6-2.5,4.9-2.6,6.7c-1.5,0.1-4.4,0.7-6.9,3.5c-1.1-2.1-3.3-4.2-7.4-4.5
				c-3.7-0.2-5.6-1.4-5.9-2.3c-0.2-0.7,0.7-1.6,1.2-1.9c2.4-2,2.5-3.9,2.5-5.3c0-0.9,0-1.9,0.6-2.6c2.1,1.7,4.9,2.5,8.5,2.5
				c0,0,0,0,0,0c0.8,0,1.4-0.3,1.4-1c0-0.8-0.6-1.3-1.4-1.3c-3.7-0.1-6.3-1.1-7.9-3.1c-1.8-2.3-1.8-5.3-1.6-7
				c0.2-0.2,0.3-0.4,0.4-0.6C353.5,232.3,355.1,231.3,357.7,231.1z M338.8,252.6c2-5,6.4-9.8,9.6-13.3c0.2-0.2,0.4-0.4,0.6-0.6
				c0.2,1.6,0.7,3.3,1.7,4.8c-1.4,1.6-1.5,3.1-1.5,4.4c0,1.3-0.1,2.1-1.5,3.2c-2.5,2-2.4,4-2.1,5c0.8,2.4,3.8,3.9,8.4,4.2
				c5.2,0.3,5.7,4.5,5.7,5c0,0.6,0.5,1.2,1.1,1.3c0.1,0,0.2,0,0.3,0c0.5,0,1-0.3,1.2-0.8c2.1-4,5.3-4.5,6.5-4.5
				c0.8,2.8,2.9,4.7,4.6,5.6c0.2,0.1,0.4,0.2,0.6,0.2c0.5,0,1-0.3,1.2-0.8c0.4-0.7,0.1-1.5-0.6-1.9c-1.2-0.6-2.8-2.1-3.3-4.3
				c-0.5-2.1,0.2-4.3,1.9-6.7c3.2-4.4,8.5-2.7,10.8-1.7c0,4.6,0,9.3,0,13.3c0,4.8,0,9,0.1,11.3c0.2,7.1-2.8,9.7-2.9,9.8l-0.9,0.7
				c-1.3,0.3-3.2,0.3-4.7-1.7c0,0,0,0,0,0c0,0,0,0,0-0.1c0-0.1-0.1-0.1-0.2-0.1c-0.1-0.1-0.1-0.3-0.2-0.3c0,0,0-0.2,0-0.2
				c0,0,0,0,0,0c0,0,0,0.2,0,0.2c-0.1,0-0.1,0.1-0.2,0.1c-0.1,0-0.2,0-0.3,0c0,0,0,0-0.1,0c-0.1,0-0.1,0-0.2,0c-0.1,0-0.2,0-0.3,0
				c0,0,0,0-0.1,0c-0.1,0-0.1,0.1-0.2,0.1c-0.1,0-0.1,0-0.2,0.1c0,0,0,0,0,0.1c0,0,0,0-0.1,0c-0.1,0-0.1,0.1-0.1,0.2
				c-0.1,0.1-0.1,0.1-0.2,0.2c0,0,0,0,0,0c0,0,0,0,0,0s0,0,0,0c-14.8,32.7-33.4,30.6-38.1,29.5c-2-3.6-2.4-7.3-2.4-9.5
				c1.4,0.6,3.1,1.1,5.2,1.1c3.5,0,7.9-1.4,13.1-6c6-5.2,8.1-9.1,8.2-9.2c0.4-0.7,0.1-1.5-0.5-1.9c-0.7-0.4-1.5-0.1-1.9,0.5
				c0,0-2,3.6-7.6,8.5c-8.6,7.6-14.4,5.3-16.7,3.7l0,0c-2.1-2.9-0.9-8.9-0.1-11.9c0.5-1.9,1.5-3.5,2.6-5.2c1.7-2.7,3.6-5.8,4.4-10.9
				c1.1-7.2,5.1-8.9,5.3-9c0.7-0.3,1.1-1.1,0.8-1.8c-0.3-0.7-1.1-1.1-1.8-0.8c-0.2,0.1-5.7,2.3-7.1,11.2c-0.7,4.5-2.4,7.2-4,9.8
				c-0.3,0.5-0.6,0.9-0.8,1.3C331,277,335.5,260.6,338.8,252.6z M385.3,300.9c-0.1,1.1-0.4,1.7-0.8,2.4c-0.9,1.7-1.5,3.3-0.1,6.9
				c1.7,4.6,0.7,20.9,0,23.1c-0.1,0.5-0.4,0.7-0.7,1.1c-1.3,1.4-2.4,3.1-2.5,8.3c-0.1,4.9-8,8.1-12.2,9c-0.1,0-0.1,0-0.2-0.1
				c-2.3-1-4.2-4.6-5.3-7.5c1.3,0.4,2.7,0.6,4.3,0.6c0.6,0,1.4-0.4,1.4-1.2c0-0.8-0.6-1.2-1.4-1.2c0,0,0,0,0,0
				c-2.3,0-4.3-0.8-5.9-1.7c0,0,0-0.1-0.1-0.1c-5-2.9-6.5-9-6.6-9.3c-0.2-0.8-0.9-1.2-1.7-1.1c-0.8,0.2-1.2,0.9-1,1.7
				c0,0.1,1.8,7.1,7.5,10.7c0.5,1.6,1.9,5.8,4.3,8.9c-2.2-0.7-4.8-1.8-5.9-2.4c-11.3-4.7-15.4-14.4-18.1-20.8
				c-0.3-0.6-0.5-1.2-0.8-1.8c0.9,0.2,1.9,0.3,3.1,0.3c1.1,0,2.3-0.1,3.6-0.4c0.8-0.1,1.3-0.9,1.1-1.6c-0.1-0.8-0.9-1.3-1.6-1.1
				c-3.9,0.8-6.6,0-8.2-0.8c-0.1-0.2-0.3-0.3-0.4-0.4c-1.4-1.2-1.7-3.2-1.6-4.6c1.1,0.2,2.4,0.3,4.1,0.3c6.6,0,17.4-2.6,27.7-16.4
				c-0.7,2.8-1.2,5.5-0.8,7.3c0.6,3.6,3.2,5.7,5.5,7.5c1.8,1.5,3.3,2.7,3.4,4.3c0.1,1.5-1,3.4-3.2,5.8c-2.9,3.1-3.1,6.2-1.9,8.4
				c-0.1,0-0.2-0.1-0.3-0.1c-3.8-1.5-6.7-6.7-8.3-15c-0.2-0.8-0.9-1.3-1.6-1.1c-0.8,0.2-1.3,0.9-1.1,1.6c1.8,9.4,5.2,15.2,10,17.1
				c1.2,0.5,2.4,0.7,3.6,0.7c1.2,0,2.2-0.2,3.2-0.5c1.2-0.1,2.4-0.7,3.6-1.7c0,0,0,0,0.1,0s0,0,0,0c0,0,0.1-0.1,0.1-0.1
				c0.1,0,0.1-0.1,0.1-0.2c0.1-0.1,0.1-0.1,0.2-0.2c0-0.1,0.1-0.2,0.1-0.3c0-0.1,0.1-0.2,0.1-0.2c0-0.1,0-0.2,0-0.3
				c0-0.1,0-0.2,0-0.3c0-0.1-0.1-0.2-0.1-0.3c0-0.1,0-0.1-0.1-0.2c0,0,0,0-0.1-0.1c0,0,0-0.1,0-0.1c0-0.1-0.1-0.1-0.2-0.1
				c-0.1-0.1-0.1-0.1-0.2-0.2c-0.1,0-0.2-0.1-0.3-0.1c-0.1,0-0.2,0-0.2-0.1c-0.1,0-0.2,0-0.3,0c-0.1,0-0.2,0-0.3,0
				c-0.1,0-0.2,0.1-0.3,0.1c-0.1,0-0.1,0-0.2,0.1c0,0-1.1,0.7-2.6,1.2c-0.8,0-1.5-0.3-2-0.8c-1-1-1.3-3.1,1.1-5.6
				c2.9-3.1,4.1-5.6,4-7.9c-0.2-2.8-2.3-4.5-4.4-6.3c-2-1.6-4-3.3-4.5-5.9c-0.7-4,3.5-14.5,5.9-20.1c1.4,1,2.9,1.4,4.2,1.4
				c0.9,0,1.8-0.2,2.5-0.4l0.4,0.1C383.5,289.7,385.6,296.7,385.3,300.9z"/>
		</g>
		<g>
			<path fill="#FFFFFF" d="M345.3,286.1c0.1,0,0.2,0,0.3,0c0.6,0,1.2-0.4,1.4-1.1c1.4-6.2,5.4-7.7,7.1-8.1c0.2,0.2,0.4,0.5,0.7,0.7
				c0.9,0.9,1.5,1.7,2,2.3c1.2,1.5,2,2.5,4.4,2.7c0.1,0,0.2,0,0.3,0c2.7,0,6.1-2.7,9-5.4c0.6-0.5,0.6-1.4,0.1-2
				c-0.5-0.6-1.4-0.6-2-0.1c-3.5,3.2-5.9,4.7-7.2,4.6c-1.1-0.1-1.4-0.4-2.4-1.7c-0.5-0.7-1.2-1.5-2.1-2.4c-2.1-2.1-1.4-3.7-1.3-3.8
				c0.4-0.7,0.1-1.5-0.5-1.9c-0.7-0.4-1.5-0.2-1.9,0.5c-0.1,0.1-0.9,1.6-0.3,3.8c-3,0.9-7,3.7-8.4,10
				C344,285.2,344.5,285.9,345.3,286.1z"/>
		</g>
	</g>
</g>
</svg>
