<?xml version="1.0" encoding="utf-8"?>
<!-- Generator: Adobe Illustrator 18.0.0, SVG Export Plug-In . SVG Version: 6.00 Build 0)  -->
<!DOCTYPE svg PUBLIC "-//W3C//DTD SVG 1.1//EN" "http://www.w3.org/Graphics/SVG/1.1/DTD/svg11.dtd">
<svg version="1.1" id="Layer_1" xmlns="http://www.w3.org/2000/svg" xmlns:xlink="http://www.w3.org/1999/xlink" x="0px" y="0px"
	 viewBox="0 0 1062.5 783.1" enable-background="new 0 0 1062.5 783.1" xml:space="preserve">
<g>
	<path fill="#3A3634" d="M231.8,457.9c0-21.6-13.9-39.7-33.2-46.4c-2.5-24.7-4.8-50.5-6.7-77.2l502.8,173.1l336.4-324.1L475.7,35.1
		L31.2,278.9l133.6,46c0.8,18.4,1.8,49.3,1.8,86.4c-19.5,6.6-33.6,24.9-33.6,46.6c0,20.9,13,38.6,31.3,45.9
		c-2.4,46.6-7.2,94.7-15.9,136.2c55.6,3.1,83.3,0,83.3,0s-11.4-55.9-22.8-140.6C222.7,490.6,231.8,475.3,231.8,457.9z"/>
	<path fill="#3A3634" d="M778.1,464.1l-81.1,76.3L336.8,408.5c0,0-30.9,30.9-34,80.2c-3.1,49.4,0,117.3,0,117.3s83.3-21.6,129.6,0
		c46.3,21.6,194.4,114.2,206.8,142c40.1-33.9,154.3-148.1,154.3-148.1s24.8-83.1,0-123.5C778.1,464.1,778.1,464.1,778.1,464.1z"/>
</g>
</svg>
