<?xml version="1.0" encoding="utf-8"?>
<!-- Generator: Adobe Illustrator 18.0.0, SVG Export Plug-In . SVG Version: 6.00 Build 0)  -->
<!DOCTYPE svg PUBLIC "-//W3C//DTD SVG 1.1//EN" "http://www.w3.org/Graphics/SVG/1.1/DTD/svg11.dtd">
<svg version="1.1" id="Layer_1" xmlns="http://www.w3.org/2000/svg" xmlns:xlink="http://www.w3.org/1999/xlink" x="0px" y="0px"
	 viewBox="0 0 1062.5 783.1" enable-background="new 0 0 1062.5 783.1" xml:space="preserve">
<g>
	<g>
		<path fill="#3A3634" d="M1024.5,676.5c-2.4-10.8-9.6-26.4-25.2-39.6c4.8-9.6,7.2-22.8,6-36c-2.4-26.4-15.6-50.4-34.8-64.9
			c-19.2-14.4-46.8-19.2-73.3-14.4l-7.2,30c21.6-8.4,48-6,63.7,6c15.6,12,22.8,31.2,24,45.6c1.2,12-1.2,22.8-7.2,27.6l-12,12
			l15.6,8.4c13.2,7.2,21.6,18,24,30c2.4,10.8,0,22.8-7.2,33.6c-7.2,10.8-20.4,19.2-36,20.4c-14.4,1.2-27.6-2.4-37.2-12l-10.8-9.6
			l-8.4,12c-20.4,24-88.9,34.8-118.9,12l-6-4.8l-7.2,2.4c-48,18-66.1,4.8-81.7-24c-7.2-13.2-4.8-31.2,3.6-45.6
			c3.6-6,15.6-20.4,36-19.2l16.8,1.2l-2.4-16.8c-4.8-31.2,15.6-49.2,37.2-56.4L743.5,560c-19.2,14.4-31.2,34.8-32.4,58.8
			c-18,3.6-33.6,14.4-44.4,31.2c-14.4,22.8-16.8,51.6-4.8,73.3c15.6,27.6,42,61.3,109.3,38.4c15.6,9.6,36,14.4,56.4,14.4
			c31.2,0,63.7-9.6,82.9-25.2c14.4,9.6,31.2,13.2,49.2,10.8c21.6-2.4,43.2-14.4,55.2-32.4C1024.5,714.9,1029.4,695.7,1024.5,676.5z"
			/>
		<path fill="#3A3634" d="M936.9,132.5l-218.6,33.6c-10.8-63.7-50.4-109.3-116.5-130.9c-72.1-24-139.3,0-176.5,36
			c-39.6-46.8-92.5-62.5-153.7-44.4c-62.5,18-102.1,66.1-102.1,121.3C83,152.9,28.9,198.5,26.5,269.4c-1.2,38.4,10.8,70.9,37.2,93.7
			c26.4,24,66.1,37.2,105.7,34.8c20.4,25.2,55.2,42,93.7,45.6c3.6,0,8.4,0,12,0c34.8,0,66.1-12,87.7-33.6l-20.4-20.4
			c-16.8,18-45.6,27.6-76.9,25.2c-32.4-2.4-62.5-18-78.1-39.6l-4.8-7.2l-8.4,1.2c-34.8,4.8-68.5-6-91.3-26.4
			c-19.2-18-28.8-43.2-27.6-72.1c2.4-58.8,50.4-93.7,129.7-93.7h16.8l-2.4-15.6c-8.4-55.2,34.8-92.5,80.5-105.7
			c55.2-15.6,100.9,0,133.3,46.8L424,118l12-14.4c24-28.8,86.5-63.7,158.5-39.6c55.2,18,87.7,55.2,97.3,108.1L197.1,249l240.2,124.9
			l-39.6,291.8l215-209l233,111.7L936.9,132.5z M504.5,400.3l-67.3,176.5l33.6-194.6l455.2-240.2L504.5,400.3z"/>
	</g>
</g>
</svg>
