<?xml version="1.0" encoding="utf-8"?>
<!-- Generator: Adobe Illustrator 18.0.0, SVG Export Plug-In . SVG Version: 6.00 Build 0)  -->
<!DOCTYPE svg PUBLIC "-//W3C//DTD SVG 1.1//EN" "http://www.w3.org/Graphics/SVG/1.1/DTD/svg11.dtd">
<svg version="1.1" id="Layer_1" xmlns="http://www.w3.org/2000/svg" xmlns:xlink="http://www.w3.org/1999/xlink" x="0px" y="0px"
	 viewBox="0 0 1051.1 1055.5" enable-background="new 0 0 1051.1 1055.5" xml:space="preserve">
<g>
	<g>
		<path fill="#DF5DED" d="M201.8,27.8h647.5c96.9,0,176.2,79.3,176.2,176.2v647.5c0,96.9-79.3,176.2-176.2,176.2H201.8
			c-96.9,0-176.2-79.3-176.2-176.2V204C25.5,107.1,104.8,27.8,201.8,27.8z"/>
	</g>
	<g>
		<defs>
			<path id="SVGID_1_" d="M198.5,27.8h654.1c95.1,0,173,77.8,173,173v654.1c0,95.1-77.8,173-173,173H198.5c-95.1,0-173-77.8-173-173
				V200.7C25.5,105.6,103.4,27.8,198.5,27.8z"/>
		</defs>
		<clipPath id="SVGID_2_">
			<use xlink:href="#SVGID_1_"  overflow="visible"/>
		</clipPath>
		<g opacity="0.3" clip-path="url(#SVGID_2_)">
			<polygon opacity="0" fill="#FFFFFF" points="1415.5,1017.5 1334.3,963.4 995.4,1031.5 941.3,1112.7 1009.3,1451.6 1090.6,1505.7 
				1429.5,1437.6 1483.6,1356.4 			"/>
			<polygon opacity="3.921569e-003" fill="#FEFEFE" points="1412.8,1014.7 1331.5,960.6 992.6,1028.7 938.5,1109.9 1006.6,1448.8 
				1087.8,1502.9 1426.7,1434.9 1480.8,1353.6 			"/>
			<polygon opacity="7.843138e-003" fill="#FDFDFD" points="1410,1011.9 1328.8,957.9 989.8,1025.9 935.8,1107.1 1003.8,1446.1 
				1085,1500.1 1424,1432.1 1478,1350.9 			"/>
			<polygon opacity="1.176471e-002" fill="#FCFCFC" points="1407.2,1009.2 1326,955.1 987.1,1023.1 933,1104.4 1001,1443.3 
				1082.3,1497.4 1421.2,1429.3 1475.3,1348.1 			"/>
			<polygon opacity="1.568628e-002" fill="#FBFBFB" points="1404.5,1006.4 1323.2,952.3 984.3,1020.4 930.2,1101.6 998.3,1440.5 
				1079.5,1494.6 1418.4,1426.6 1472.5,1345.3 			"/>
			<polygon opacity="1.960784e-002" fill="#FAFAFA" points="1401.7,1003.6 1320.4,949.6 981.5,1017.6 927.4,1098.8 995.5,1437.8 
				1076.7,1491.8 1415.7,1423.8 1469.7,1342.6 			"/>
			<polygon opacity="2.352941e-002" fill="#F9F9F9" points="1398.9,1000.9 1317.7,946.8 978.7,1014.8 924.7,1096.1 992.7,1435 
				1073.9,1489.1 1412.9,1421 1467,1339.8 			"/>
			<polygon opacity="2.745098e-002" fill="#F8F8F8" points="1396.1,998.1 1314.9,944 976,1012.1 921.9,1093.3 989.9,1432.2 
				1071.2,1486.3 1410.1,1418.3 1464.2,1337 			"/>
			<polygon opacity="3.137255e-002" fill="#F7F7F7" points="1393.4,995.3 1312.1,941.2 973.2,1009.3 919.1,1090.5 987.2,1429.5 
				1068.4,1483.5 1407.3,1415.5 1461.4,1334.2 			"/>
			<polygon opacity="3.529412e-002" fill="#F6F6F6" points="1390.6,992.5 1309.4,938.5 970.4,1006.5 916.4,1087.7 984.4,1426.7 
				1065.6,1480.8 1404.6,1412.7 1458.6,1331.5 			"/>
			<polygon opacity="3.921569e-002" fill="#F5F5F5" points="1387.8,989.8 1306.6,935.7 967.7,1003.7 913.6,1085 981.6,1423.9 
				1062.9,1478 1401.8,1409.9 1455.9,1328.7 			"/>
			<polygon opacity="4.313726e-002" fill="#F4F4F4" points="1385.1,987 1303.8,932.9 964.9,1001 910.8,1082.2 978.9,1421.1 
				1060.1,1475.2 1399,1407.2 1453.1,1325.9 			"/>
			<polygon opacity="4.705882e-002" fill="#F3F3F3" points="1382.3,984.2 1301.1,930.2 962.1,998.2 908.1,1079.4 976.1,1418.4 
				1057.3,1472.4 1396.3,1404.4 1450.3,1323.2 			"/>
			<polygon opacity="5.098039e-002" fill="#F2F2F2" points="1379.5,981.5 1298.3,927.4 959.3,995.4 905.3,1076.7 973.3,1415.6 
				1054.6,1469.7 1393.5,1401.6 1447.6,1320.4 			"/>
			<polygon opacity="5.490196e-002" fill="#F1F1F1" points="1376.7,978.7 1295.5,924.6 956.6,992.7 902.5,1073.9 970.6,1412.8 
				1051.8,1466.9 1390.7,1398.9 1444.8,1317.6 			"/>
			<polygon opacity="5.882353e-002" fill="#F0F0F0" points="1374,975.9 1292.7,921.9 953.8,989.9 899.7,1071.1 967.8,1410.1 
				1049,1464.1 1387.9,1396.1 1442,1314.9 			"/>
			<polygon opacity="6.274510e-002" fill="#EFEFEF" points="1371.2,973.2 1290,919.1 951,987.1 897,1068.4 965,1407.3 
				1046.2,1461.4 1385.2,1393.3 1439.2,1312.1 			"/>
			<polygon opacity="6.666667e-002" fill="#EEEEEE" points="1368.4,970.4 1287.2,916.3 948.3,984.4 894.2,1065.6 962.2,1404.5 
				1043.5,1458.6 1382.4,1390.5 1436.5,1309.3 			"/>
			<polygon opacity="7.058824e-002" fill="#EDEDED" points="1365.7,967.6 1284.4,913.5 945.5,981.6 891.4,1062.8 959.5,1401.7 
				1040.7,1455.8 1379.6,1387.8 1433.7,1306.5 			"/>
			<polygon opacity="7.450981e-002" fill="#ECECEC" points="1362.9,964.8 1281.7,910.8 942.7,978.8 888.7,1060 956.7,1399 
				1037.9,1453 1376.9,1385 1430.9,1303.8 			"/>
			<polygon opacity="7.843138e-002" fill="#EBEBEB" points="1360.1,962.1 1278.9,908 940,976 885.9,1057.3 953.9,1396.2 
				1035.2,1450.3 1374.1,1382.2 1428.2,1301 			"/>
			<polygon opacity="8.235294e-002" fill="#EAEAEA" points="1357.3,959.3 1276.1,905.2 937.2,973.3 883.1,1054.5 951.2,1393.4 
				1032.4,1447.5 1371.3,1379.5 1425.4,1298.2 			"/>
			<polygon opacity="8.627451e-002" fill="#E9E9E9" points="1354.6,956.5 1273.3,902.5 934.4,970.5 880.3,1051.7 948.4,1390.7 
				1029.6,1444.7 1368.5,1376.7 1422.6,1295.5 			"/>
			<polygon opacity="9.019608e-002" fill="#E8E8E8" points="1351.8,953.8 1270.6,899.7 931.6,967.7 877.6,1049 945.6,1387.9 
				1026.8,1442 1365.8,1373.9 1419.8,1292.7 			"/>
			<polygon opacity="9.411765e-002" fill="#E7E7E7" points="1349,951 1267.8,896.9 928.9,965 874.8,1046.2 942.8,1385.1 
				1024.1,1439.2 1363,1371.1 1417.1,1289.9 			"/>
			<polygon opacity="9.803922e-002" fill="#E6E6E6" points="1346.3,948.2 1265,894.1 926.1,962.2 872,1043.4 940.1,1382.3 
				1021.3,1436.4 1360.2,1368.4 1414.3,1287.1 			"/>
			<polygon opacity="0.102" fill="#E5E5E5" points="1343.5,945.4 1262.3,891.4 923.3,959.4 869.3,1040.6 937.3,1379.6 
				1018.5,1433.6 1357.5,1365.6 1411.5,1284.4 			"/>
			<polygon opacity="0.1059" fill="#E4E4E4" points="1340.7,942.7 1259.5,888.6 920.6,956.6 866.5,1037.9 934.5,1376.8 
				1015.8,1430.9 1354.7,1362.8 1408.8,1281.6 			"/>
			<polygon opacity="0.1098" fill="#E3E3E3" points="1338,939.9 1256.7,885.8 917.8,953.9 863.7,1035.1 931.8,1374 1013,1428.1 
				1351.9,1360.1 1406,1278.8 			"/>
			<polygon opacity="0.1137" fill="#E2E2E2" points="1335.2,937.1 1253.9,883.1 915,951.1 860.9,1032.3 929,1371.3 1010.2,1425.3 
				1349.2,1357.3 1403.2,1276.1 			"/>
			<polygon opacity="0.1176" fill="#E1E1E1" points="1332.4,934.4 1251.2,880.3 912.2,948.3 858.2,1029.6 926.2,1368.5 
				1007.4,1422.6 1346.4,1354.5 1400.4,1273.3 			"/>
			<polygon opacity="0.1216" fill="#E0E0E0" points="1329.6,931.6 1248.4,877.5 909.5,945.6 855.4,1026.8 923.4,1365.7 
				1004.7,1419.8 1343.6,1351.8 1397.7,1270.5 			"/>
			<polygon opacity="0.1255" fill="#DFDFDF" points="1326.9,928.8 1245.6,874.7 906.7,942.8 852.6,1024 920.7,1363 1001.9,1417 
				1340.8,1349 1394.9,1267.7 			"/>
			<polygon opacity="0.1294" fill="#DEDEDE" points="1324.1,926 1242.9,872 903.9,940 849.9,1021.2 917.9,1360.2 999.1,1414.3 
				1338.1,1346.2 1392.1,1265 			"/>
			<polygon opacity="0.1333" fill="#DDDDDD" points="1321.3,923.3 1240.1,869.2 901.2,937.2 847.1,1018.5 915.1,1357.4 
				996.4,1411.5 1335.3,1343.4 1389.4,1262.2 			"/>
			<polygon opacity="0.1373" fill="#DCDCDC" points="1318.6,920.5 1237.3,866.4 898.4,934.5 844.3,1015.7 912.4,1354.6 
				993.6,1408.7 1332.5,1340.7 1386.6,1259.4 			"/>
			<polygon opacity="0.1412" fill="#DBDBDB" points="1315.8,917.7 1234.6,863.7 895.6,931.7 841.5,1012.9 909.6,1351.9 
				990.8,1405.9 1329.8,1337.9 1383.8,1256.7 			"/>
			<polygon opacity="0.1451" fill="#DADADA" points="1313,915 1231.8,860.9 892.8,928.9 838.8,1010.2 906.8,1349.1 988.1,1403.2 
				1327,1335.1 1381.1,1253.9 			"/>
			<polygon opacity="0.149" fill="#D9D9D9" points="1310.2,912.2 1229,858.1 890.1,926.2 836,1007.4 904,1346.3 985.3,1400.4 
				1324.2,1332.4 1378.3,1251.1 			"/>
			<polygon opacity="0.1529" fill="#D8D8D8" points="1307.5,909.4 1226.2,855.3 887.3,923.4 833.2,1004.6 901.3,1343.6 
				982.5,1397.6 1321.4,1329.6 1375.5,1248.4 			"/>
			<polygon opacity="0.1569" fill="#D7D7D7" points="1304.7,906.6 1223.5,852.6 884.5,920.6 830.5,1001.9 898.5,1340.8 
				979.7,1394.9 1318.7,1326.8 1372.7,1245.6 			"/>
			<polygon opacity="0.1608" fill="#D6D6D6" points="1301.9,903.9 1220.7,849.8 881.8,917.8 827.7,999.1 895.7,1338 977,1392.1 
				1315.9,1324 1370,1242.8 			"/>
			<polygon opacity="0.1647" fill="#D5D5D5" points="1299.2,901.1 1217.9,847 879,915.1 824.9,996.3 893,1335.2 974.2,1389.3 
				1313.1,1321.3 1367.2,1240 			"/>
			<polygon opacity="0.1686" fill="#D4D4D4" points="1296.4,898.3 1215.2,844.3 876.2,912.3 822.2,993.5 890.2,1332.5 971.4,1386.5 
				1310.4,1318.5 1364.4,1237.3 			"/>
			<polygon opacity="0.1725" fill="#D3D3D3" points="1293.6,895.6 1212.4,841.5 873.5,909.5 819.4,990.8 887.4,1329.7 968.7,1383.8 
				1307.6,1315.7 1361.7,1234.5 			"/>
			<polygon opacity="0.1765" fill="#D2D2D2" points="1290.8,892.8 1209.6,838.7 870.7,906.8 816.6,988 884.7,1326.9 965.9,1381 
				1304.8,1313 1358.9,1231.7 			"/>
			<polygon opacity="0.1804" fill="#D1D1D1" points="1288.1,890 1206.8,836 867.9,904 813.8,985.2 881.9,1324.2 963.1,1378.2 
				1302,1310.2 1356.1,1229 			"/>
			<polygon opacity="0.1843" fill="#D0D0D0" points="1285.3,887.3 1204.1,833.2 865.1,901.2 811.1,982.5 879.1,1321.4 960.3,1375.5 
				1299.3,1307.4 1353.3,1226.2 			"/>
			<polygon opacity="0.1882" fill="#CFCFCF" points="1282.5,884.5 1201.3,830.4 862.4,898.5 808.3,979.7 876.3,1318.6 957.6,1372.7 
				1296.5,1304.6 1350.6,1223.4 			"/>
			<polygon opacity="0.1922" fill="#CECECE" points="1279.8,881.7 1198.5,827.6 859.6,895.7 805.5,976.9 873.6,1315.8 954.8,1369.9 
				1293.7,1301.9 1347.8,1220.6 			"/>
			<polygon opacity="0.1961" fill="#CDCDCD" points="1277,878.9 1195.8,824.9 856.8,892.9 802.8,974.1 870.8,1313.1 952,1367.1 
				1291,1299.1 1345,1217.9 			"/>
			<polygon opacity="0.2" fill="#CCCCCC" points="1274.2,876.2 1193,822.1 854.1,890.1 800,971.4 868,1310.3 949.3,1364.4 
				1288.2,1296.3 1342.3,1215.1 			"/>
			<polygon opacity="0.2039" fill="#CBCBCB" points="1271.4,873.4 1190.2,819.3 851.3,887.4 797.2,968.6 865.3,1307.5 946.5,1361.6 
				1285.4,1293.6 1339.5,1212.3 			"/>
			<polygon opacity="0.2078" fill="#CACACA" points="1268.7,870.6 1187.4,816.6 848.5,884.6 794.4,965.8 862.5,1304.8 943.7,1358.8 
				1282.6,1290.8 1336.7,1209.6 			"/>
			<polygon opacity="0.2118" fill="#C9C9C9" points="1265.9,867.9 1184.7,813.8 845.7,881.8 791.7,963.1 859.7,1302 940.9,1356.1 
				1279.9,1288 1333.9,1206.8 			"/>
			<polygon opacity="0.2157" fill="#C8C8C8" points="1263.1,865.1 1181.9,811 843,879.1 788.9,960.3 856.9,1299.2 938.2,1353.3 
				1277.1,1285.2 1331.2,1204 			"/>
			<polygon opacity="0.2196" fill="#C7C7C7" points="1260.4,862.3 1179.1,808.2 840.2,876.3 786.1,957.5 854.2,1296.4 935.4,1350.5 
				1274.3,1282.5 1328.4,1201.2 			"/>
			<polygon opacity="0.2235" fill="#C6C6C6" points="1257.6,859.5 1176.4,805.5 837.4,873.5 783.4,954.7 851.4,1293.7 932.6,1347.7 
				1271.6,1279.7 1325.6,1198.5 			"/>
			<polygon opacity="0.2275" fill="#C5C5C5" points="1254.8,856.8 1173.6,802.7 834.7,870.7 780.6,952 848.6,1290.9 929.9,1345 
				1268.8,1276.9 1322.9,1195.7 			"/>
			<polygon opacity="0.2314" fill="#C4C4C4" points="1252.1,854 1170.8,799.9 831.9,868 777.8,949.2 845.9,1288.1 927.1,1342.2 
				1266,1274.2 1320.1,1192.9 			"/>
			<polygon opacity="0.2353" fill="#C3C3C3" points="1249.3,851.2 1168.1,797.2 829.1,865.2 775,946.4 843.1,1285.4 924.3,1339.4 
				1263.3,1271.4 1317.3,1190.2 			"/>
			<polygon opacity="0.2392" fill="#C2C2C2" points="1246.5,848.5 1165.3,794.4 826.3,862.4 772.3,943.7 840.3,1282.6 921.6,1336.7 
				1260.5,1268.6 1314.6,1187.4 			"/>
			<polygon opacity="0.2431" fill="#C1C1C1" points="1243.7,845.7 1162.5,791.6 823.6,859.7 769.5,940.9 837.5,1279.8 918.8,1333.9 
				1257.7,1265.9 1311.8,1184.6 			"/>
			<polygon opacity="0.2471" fill="#C0C0C0" points="1241,842.9 1159.7,788.8 820.8,856.9 766.7,938.1 834.8,1277.1 916,1331.1 
				1254.9,1263.1 1309,1181.8 			"/>
			<polygon opacity="0.251" fill="#BFBFBF" points="1238.2,840.1 1157,786.1 818,854.1 764,935.4 832,1274.3 913.2,1328.4 
				1252.2,1260.3 1306.2,1179.1 			"/>
			<polygon opacity="0.2549" fill="#BEBEBE" points="1235.4,837.4 1154.2,783.3 815.3,851.3 761.2,932.6 829.2,1271.5 910.5,1325.6 
				1249.4,1257.5 1303.5,1176.3 			"/>
			<polygon opacity="0.2588" fill="#BDBDBD" points="1232.7,834.6 1151.4,780.5 812.5,848.6 758.4,929.8 826.5,1268.7 907.7,1322.8 
				1246.6,1254.8 1300.7,1173.5 			"/>
			<polygon opacity="0.2627" fill="#BCBCBC" points="1229.9,831.8 1148.7,777.8 809.7,845.8 755.7,927 823.7,1266 904.9,1320 
				1243.9,1252 1297.9,1170.8 			"/>
			<polygon opacity="0.2667" fill="#BBBBBB" points="1227.1,829.1 1145.9,775 807,843 752.9,924.3 820.9,1263.2 902.2,1317.3 
				1241.1,1249.2 1295.2,1168 			"/>
			<polygon opacity="0.2706" fill="#BABABA" points="1224.3,826.3 1143.1,772.2 804.2,840.3 750.1,921.5 818.2,1260.4 899.4,1314.5 
				1238.3,1246.5 1292.4,1165.2 			"/>
			<polygon opacity="0.2745" fill="#B9B9B9" points="1221.6,823.5 1140.3,769.5 801.4,837.5 747.3,918.7 815.4,1257.7 896.6,1311.7 
				1235.5,1243.7 1289.6,1162.5 			"/>
			<polygon opacity="0.2784" fill="#B8B8B8" points="1218.8,820.8 1137.6,766.7 798.6,834.7 744.6,916 812.6,1254.9 893.8,1309 
				1232.8,1240.9 1286.8,1159.7 			"/>
			<polygon opacity="0.2824" fill="#B7B7B7" points="1216,818 1134.8,763.9 795.9,832 741.8,913.2 809.8,1252.1 891.1,1306.2 
				1230,1238.1 1284.1,1156.9 			"/>
			<polygon opacity="0.2863" fill="#B6B6B6" points="1213.3,815.2 1132,761.1 793.1,829.2 739,910.4 807.1,1249.3 888.3,1303.4 
				1227.2,1235.4 1281.3,1154.1 			"/>
			<polygon opacity="0.2902" fill="#B5B5B5" points="1210.5,812.4 1129.3,758.4 790.3,826.4 736.3,907.6 804.3,1246.6 885.5,1300.6 
				1224.5,1232.6 1278.5,1151.4 			"/>
			<polygon opacity="0.2941" fill="#B4B4B4" points="1207.7,809.7 1126.5,755.6 787.6,823.6 733.5,904.9 801.5,1243.8 882.8,1297.9 
				1221.7,1229.8 1275.8,1148.6 			"/>
			<polygon opacity="0.298" fill="#B3B3B3" points="1204.9,806.9 1123.7,752.8 784.8,820.9 730.7,902.1 798.8,1241 880,1295.1 
				1218.9,1227.1 1273,1145.8 			"/>
			<polygon opacity="0.302" fill="#B2B2B2" points="1202.2,804.1 1120.9,750.1 782,818.1 727.9,899.3 796,1238.3 877.2,1292.3 
				1216.1,1224.3 1270.2,1143.1 			"/>
			<polygon opacity="0.3059" fill="#B1B1B1" points="1199.4,801.4 1118.2,747.3 779.2,815.3 725.2,896.6 793.2,1235.5 874.4,1289.6 
				1213.4,1221.5 1267.4,1140.3 			"/>
			<polygon opacity="0.3098" fill="#B0B0B0" points="1196.6,798.6 1115.4,744.5 776.5,812.6 722.4,893.8 790.4,1232.7 871.7,1286.8 
				1210.6,1218.7 1264.7,1137.5 			"/>
			<polygon opacity="0.3137" fill="#AFAFAF" points="1193.9,795.8 1112.6,741.7 773.7,809.8 719.6,891 787.7,1229.9 868.9,1284 
				1207.8,1216 1261.9,1134.7 			"/>
			<polygon opacity="0.3176" fill="#AEAEAE" points="1191.1,793 1109.9,739 770.9,807 716.9,888.2 784.9,1227.2 866.1,1281.2 
				1205.1,1213.2 1259.1,1132 			"/>
			<polygon opacity="0.3216" fill="#ADADAD" points="1188.3,790.3 1107.1,736.2 768.2,804.2 714.1,885.5 782.1,1224.4 863.4,1278.5 
				1202.3,1210.4 1256.4,1129.2 			"/>
			<polygon opacity="0.3255" fill="#ACACAC" points="1185.6,787.5 1104.3,733.4 765.4,801.5 711.3,882.7 779.4,1221.6 860.6,1275.7 
				1199.5,1207.7 1253.6,1126.4 			"/>
			<polygon opacity="0.3294" fill="#ABABAB" points="1182.8,784.7 1101.5,730.7 762.6,798.7 708.5,879.9 776.6,1218.9 857.8,1272.9 
				1196.8,1204.9 1250.8,1123.7 			"/>
			<polygon opacity="0.3333" fill="#AAAAAA" points="1180,782 1098.8,727.9 759.8,795.9 705.8,877.2 773.8,1216.1 855,1270.2 
				1194,1202.1 1248.1,1120.9 			"/>
			<polygon opacity="0.3373" fill="#A9A9A9" points="1177.2,779.2 1096,725.1 757.1,793.2 703,874.4 771,1213.3 852.3,1267.4 
				1191.2,1199.4 1245.3,1118.1 			"/>
			<polygon opacity="0.3412" fill="#A8A8A8" points="1174.5,776.4 1093.2,722.3 754.3,790.4 700.2,871.6 768.3,1210.6 849.5,1264.6 
				1188.4,1196.6 1242.5,1115.3 			"/>
			<polygon opacity="0.3451" fill="#A7A7A7" points="1171.7,773.6 1090.5,719.6 751.5,787.6 697.5,868.8 765.5,1207.8 846.7,1261.9 
				1185.7,1193.8 1239.7,1112.6 			"/>
			<polygon opacity="0.349" fill="#A6A6A6" points="1168.9,770.9 1087.7,716.8 748.8,784.8 694.7,866.1 762.7,1205 844,1259.1 
				1182.9,1191 1237,1109.8 			"/>
			<polygon opacity="0.3529" fill="#A5A5A5" points="1166.2,768.1 1084.9,714 746,782.1 691.9,863.3 760,1202.2 841.2,1256.3 
				1180.1,1188.3 1234.2,1107 			"/>
			<polygon opacity="0.3569" fill="#A4A4A4" points="1163.4,765.3 1082.2,711.3 743.2,779.3 689.2,860.5 757.2,1199.5 838.4,1253.5 
				1177.4,1185.5 1231.4,1104.3 			"/>
			<polygon opacity="0.3608" fill="#A3A3A3" points="1160.6,762.6 1079.4,708.5 740.4,776.5 686.4,857.8 754.4,1196.7 835.7,1250.8 
				1174.6,1182.7 1228.7,1101.5 			"/>
			<polygon opacity="0.3647" fill="#A2A2A2" points="1157.8,759.8 1076.6,705.7 737.7,773.8 683.6,855 751.6,1193.9 832.9,1248 
				1171.8,1180 1225.9,1098.7 			"/>
			<polygon opacity="0.3686" fill="#A1A1A1" points="1155.1,757 1073.8,702.9 734.9,771 680.8,852.2 748.9,1191.2 830.1,1245.2 
				1169,1177.2 1223.1,1096 			"/>
			<polygon opacity="0.3725" fill="#A0A0A0" points="1152.3,754.2 1071.1,700.2 732.1,768.2 678.1,849.5 746.1,1188.4 827.3,1242.5 
				1166.3,1174.4 1220.3,1093.2 			"/>
			<polygon opacity="0.3765" fill="#9F9F9F" points="1149.5,751.5 1068.3,697.4 729.4,765.4 675.3,846.7 743.3,1185.6 824.6,1239.7 
				1163.5,1171.6 1217.6,1090.4 			"/>
			<polygon opacity="0.3804" fill="#9E9E9E" points="1146.8,748.7 1065.5,694.6 726.6,762.7 672.5,843.9 740.6,1182.8 821.8,1236.9 
				1160.7,1168.9 1214.8,1087.6 			"/>
			<polygon opacity="0.3843" fill="#9D9D9D" points="1144,745.9 1062.8,691.9 723.8,759.9 669.8,841.1 737.8,1180.1 819,1234.1 
				1158,1166.1 1212,1084.9 			"/>
			<polygon opacity="0.3882" fill="#9C9C9C" points="1141.2,743.2 1060,689.1 721.1,757.1 667,838.4 735,1177.3 816.3,1231.4 
				1155.2,1163.3 1209.3,1082.1 			"/>
			<polygon opacity="0.3922" fill="#9B9B9B" points="1138.4,740.4 1057.2,686.3 718.3,754.4 664.2,835.6 732.3,1174.5 813.5,1228.6 
				1152.4,1160.6 1206.5,1079.3 			"/>
			<polygon opacity="0.3961" fill="#9A9A9A" points="1135.7,737.6 1054.4,683.6 715.5,751.6 661.4,832.8 729.5,1171.8 810.7,1225.8 
				1149.6,1157.8 1203.7,1076.6 			"/>
			<polygon opacity="0.4" fill="#999999" points="1132.9,734.9 1051.7,680.8 712.7,748.8 658.7,830.1 726.7,1169 807.9,1223.1 
				1146.9,1155 1200.9,1073.8 			"/>
			<polygon opacity="0.4039" fill="#989898" points="1130.1,732.1 1048.9,678 710,746.1 655.9,827.3 723.9,1166.2 805.2,1220.3 
				1144.1,1152.2 1198.2,1071 			"/>
			<polygon opacity="0.4078" fill="#979797" points="1127.4,729.3 1046.1,675.2 707.2,743.3 653.1,824.5 721.2,1163.4 802.4,1217.5 
				1141.3,1149.5 1195.4,1068.2 			"/>
			<polygon opacity="0.4118" fill="#969696" points="1124.6,726.5 1043.4,672.5 704.4,740.5 650.4,821.7 718.4,1160.7 799.6,1214.7 
				1138.6,1146.7 1192.6,1065.5 			"/>
			<polygon opacity="0.4157" fill="#959595" points="1121.8,723.8 1040.6,669.7 701.7,737.7 647.6,819 715.6,1157.9 796.9,1212 
				1135.8,1143.9 1189.9,1062.7 			"/>
			<polygon opacity="0.4196" fill="#949494" points="1119,721 1037.8,666.9 698.9,735 644.8,816.2 712.9,1155.1 794.1,1209.2 
				1133,1141.2 1187.1,1059.9 			"/>
			<polygon opacity="0.4235" fill="#939393" points="1116.3,718.2 1035,664.2 696.1,732.2 642,813.4 710.1,1152.4 791.3,1206.4 
				1130.2,1138.4 1184.3,1057.2 			"/>
			<polygon opacity="0.4275" fill="#929292" points="1113.5,715.5 1032.3,661.4 693.3,729.4 639.3,810.7 707.3,1149.6 788.5,1203.7 
				1127.5,1135.6 1181.5,1054.4 			"/>
			<polygon opacity="0.4314" fill="#919191" points="1110.7,712.7 1029.5,658.6 690.6,726.7 636.5,807.9 704.5,1146.8 785.8,1200.9 
				1124.7,1132.8 1178.8,1051.6 			"/>
			<polygon opacity="0.4353" fill="#909090" points="1108,709.9 1026.7,655.8 687.8,723.9 633.7,805.1 701.8,1144 783,1198.1 
				1121.9,1130.1 1176,1048.8 			"/>
			<polygon opacity="0.4392" fill="#8F8F8F" points="1105.2,707.1 1024,653.1 685,721.1 631,802.3 699,1141.3 780.2,1195.3 
				1119.2,1127.3 1173.2,1046.1 			"/>
			<polygon opacity="0.4431" fill="#8E8E8E" points="1102.4,704.4 1021.2,650.3 682.3,718.3 628.2,799.6 696.2,1138.5 777.5,1192.6 
				1116.4,1124.5 1170.5,1043.3 			"/>
			<polygon opacity="0.4471" fill="#8D8D8D" points="1099.7,701.6 1018.4,647.5 679.5,715.6 625.4,796.8 693.5,1135.7 774.7,1189.8 
				1113.6,1121.8 1167.7,1040.5 			"/>
			<polygon opacity="0.451" fill="#8C8C8C" points="1096.9,698.8 1015.7,644.8 676.7,712.8 622.6,794 690.7,1133 771.9,1187 
				1110.9,1119 1164.9,1037.8 			"/>
			<polygon opacity="0.4549" fill="#8B8B8B" points="1094.1,696.1 1012.9,642 673.9,710 619.9,791.3 687.9,1130.2 769.2,1184.3 
				1108.1,1116.2 1162.2,1035 			"/>
			<polygon opacity="0.4588" fill="#8A8A8A" points="1091.3,693.3 1010.1,639.2 671.2,707.3 617.1,788.5 685.1,1127.4 766.4,1181.5 
				1105.3,1113.5 1159.4,1032.2 			"/>
			<polygon opacity="0.4627" fill="#898989" points="1088.6,690.5 1007.3,636.4 668.4,704.5 614.3,785.7 682.4,1124.7 763.6,1178.7 
				1102.5,1110.7 1156.6,1029.5 			"/>
			<polygon opacity="0.4667" fill="#888888" points="1085.8,687.7 1004.6,633.7 665.6,701.7 611.6,783 679.6,1121.9 760.8,1176 
				1099.8,1107.9 1153.8,1026.7 			"/>
			<polygon opacity="0.4706" fill="#878787" points="1083,685 1001.8,630.9 662.9,698.9 608.8,780.2 676.8,1119.1 758.1,1173.2 
				1097,1105.1 1151.1,1023.9 			"/>
			<polygon opacity="0.4745" fill="#868686" points="1080.3,682.2 999,628.1 660.1,696.2 606,777.4 674.1,1116.3 755.3,1170.4 
				1094.2,1102.4 1148.3,1021.1 			"/>
			<polygon opacity="0.4784" fill="#858585" points="1077.5,679.4 996.3,625.4 657.3,693.4 603.3,774.6 671.3,1113.6 752.5,1167.6 
				1091.5,1099.6 1145.5,1018.4 			"/>
			<polygon opacity="0.4824" fill="#848484" points="1074.7,676.7 993.5,622.6 654.6,690.6 600.5,771.9 668.5,1110.8 749.8,1164.9 
				1088.7,1096.8 1142.8,1015.6 			"/>
			<polygon opacity="0.4863" fill="#838383" points="1071.9,673.9 990.7,619.8 651.8,687.9 597.7,769.1 665.8,1108 747,1162.1 
				1085.9,1094.1 1140,1012.8 			"/>
			<polygon opacity="0.4902" fill="#828282" points="1069.2,671.1 987.9,617.1 649,685.1 594.9,766.3 663,1105.3 744.2,1159.3 
				1083.1,1091.3 1137.2,1010.1 			"/>
			<polygon opacity="0.4941" fill="#818181" points="1066.4,668.4 985.2,614.3 646.2,682.3 592.2,763.6 660.2,1102.5 741.4,1156.6 
				1080.4,1088.5 1134.4,1007.3 			"/>
			<polygon opacity="0.498" fill="#808080" points="1063.6,665.6 982.4,611.5 643.5,679.6 589.4,760.8 657.4,1099.7 738.7,1153.8 
				1077.6,1085.7 1131.7,1004.5 			"/>
			<polygon opacity="0.502" fill="#7F7F7F" points="1060.9,662.8 979.6,608.7 640.7,676.8 586.6,758 654.7,1096.9 735.9,1151 
				1074.8,1083 1128.9,1001.7 			"/>
			<polygon opacity="0.5059" fill="#7E7E7E" points="1058.1,660 976.9,606 637.9,674 583.9,755.2 651.9,1094.2 733.1,1148.2 
				1072.1,1080.2 1126.1,999 			"/>
			<polygon opacity="0.5098" fill="#7D7D7D" points="1055.3,657.3 974.1,603.2 635.2,671.2 581.1,752.5 649.1,1091.4 730.4,1145.5 
				1069.3,1077.4 1123.4,996.2 			"/>
			<polygon opacity="0.5137" fill="#7C7C7C" points="1052.5,654.5 971.3,600.4 632.4,668.5 578.3,749.7 646.4,1088.6 727.6,1142.7 
				1066.5,1074.7 1120.6,993.4 			"/>
			<polygon opacity="0.5176" fill="#7B7B7B" points="1049.8,651.7 968.5,597.7 629.6,665.7 575.5,746.9 643.6,1085.9 724.8,1139.9 
				1063.7,1071.9 1117.8,990.7 			"/>
			<polygon opacity="0.5216" fill="#7A7A7A" points="1047,649 965.8,594.9 626.8,662.9 572.8,744.2 640.8,1083.1 722,1137.2 
				1061,1069.1 1115,987.9 			"/>
			<polygon opacity="0.5255" fill="#797979" points="1044.2,646.2 963,592.1 624.1,660.2 570,741.4 638,1080.3 719.3,1134.4 
				1058.2,1066.3 1112.3,985.1 			"/>
			<polygon opacity="0.5294" fill="#787878" points="1041.5,643.4 960.2,589.3 621.3,657.4 567.2,738.6 635.3,1077.5 716.5,1131.6 
				1055.4,1063.6 1109.5,982.3 			"/>
			<polygon opacity="0.5333" fill="#777777" points="1038.7,640.6 957.5,586.6 618.5,654.6 564.5,735.8 632.5,1074.8 713.7,1128.8 
				1052.7,1060.8 1106.7,979.6 			"/>
			<polygon opacity="0.5373" fill="#767676" points="1035.9,637.9 954.7,583.8 615.8,651.8 561.7,733.1 629.7,1072 711,1126.1 
				1049.9,1058 1104,976.8 			"/>
			<polygon opacity="0.5412" fill="#757575" points="1033.2,635.1 951.9,581 613,649.1 558.9,730.3 627,1069.2 708.2,1123.3 
				1047.1,1055.3 1101.2,974 			"/>
			<polygon opacity="0.5451" fill="#747474" points="1030.4,632.3 949.1,578.3 610.2,646.3 556.1,727.5 624.2,1066.5 705.4,1120.5 
				1044.4,1052.5 1098.4,971.3 			"/>
			<polygon opacity="0.549" fill="#737373" points="1027.6,629.6 946.4,575.5 607.4,643.5 553.4,724.8 621.4,1063.7 702.6,1117.8 
				1041.6,1049.7 1095.7,968.5 			"/>
			<polygon opacity="0.5529" fill="#727272" points="1024.8,626.8 943.6,572.7 604.7,640.8 550.6,722 618.6,1060.9 699.9,1115 
				1038.8,1047 1092.9,965.7 			"/>
			<polygon opacity="0.5569" fill="#717171" points="1022.1,624 940.8,569.9 601.9,638 547.8,719.2 615.9,1058.2 697.1,1112.2 
				1036,1044.2 1090.1,962.9 			"/>
			<polygon opacity="0.5608" fill="#707070" points="1019.3,621.2 938.1,567.2 599.1,635.2 545.1,716.4 613.1,1055.4 694.3,1109.5 
				1033.3,1041.4 1087.3,960.2 			"/>
			<polygon opacity="0.5647" fill="#6F6F6F" points="1016.5,618.5 935.3,564.4 596.4,632.4 542.3,713.7 610.3,1052.6 691.6,1106.7 
				1030.5,1038.6 1084.6,957.4 			"/>
			<polygon opacity="0.5686" fill="#6E6E6E" points="1013.8,615.7 932.5,561.6 593.6,629.7 539.5,710.9 607.6,1049.8 688.8,1103.9 
				1027.7,1035.9 1081.8,954.6 			"/>
			<polygon opacity="0.5725" fill="#6D6D6D" points="1011,612.9 929.8,558.9 590.8,626.9 536.8,708.1 604.8,1047.1 686,1101.1 
				1025,1033.1 1079,951.9 			"/>
			<polygon opacity="0.5765" fill="#6C6C6C" points="1008.2,610.2 927,556.1 588,624.1 534,705.4 602,1044.3 683.3,1098.4 
				1022.2,1030.3 1076.3,949.1 			"/>
			<polygon opacity="0.5804" fill="#6B6B6B" points="1005.4,607.4 924.2,553.3 585.3,621.4 531.2,702.6 599.2,1041.5 680.5,1095.6 
				1019.4,1027.6 1073.5,946.3 			"/>
			<polygon opacity="0.5843" fill="#6A6A6A" points="1002.7,604.6 921.4,550.6 582.5,618.6 528.4,699.8 596.5,1038.8 677.7,1092.8 
				1016.6,1024.8 1070.7,943.6 			"/>
			<polygon opacity="0.5882" fill="#696969" points="999.9,601.8 918.7,547.8 579.7,615.8 525.7,697.1 593.7,1036 674.9,1090.1 
				1013.9,1022 1067.9,940.8 			"/>
			<polygon opacity="0.5922" fill="#686868" points="997.1,599.1 915.9,545 577,613 522.9,694.3 590.9,1033.2 672.2,1087.3 
				1011.1,1019.2 1065.2,938 			"/>
			<polygon opacity="0.5961" fill="#676767" points="994.4,596.3 913.1,542.2 574.2,610.3 520.1,691.5 588.2,1030.4 669.4,1084.5 
				1008.3,1016.5 1062.4,935.2 			"/>
			<polygon opacity="0.6" fill="#666666" points="991.6,593.5 910.4,539.5 571.4,607.5 517.4,688.7 585.4,1027.7 666.6,1081.7 
				1005.6,1013.7 1059.6,932.5 			"/>
			<polygon opacity="0.6039" fill="#656565" points="988.8,590.8 907.6,536.7 568.7,604.7 514.6,686 582.6,1024.9 663.9,1079 
				1002.8,1010.9 1056.9,929.7 			"/>
			<polygon opacity="0.6078" fill="#646464" points="986,588 904.8,533.9 565.9,602 511.8,683.2 579.9,1022.1 661.1,1076.2 
				1000,1008.2 1054.1,926.9 			"/>
			<polygon opacity="0.6118" fill="#636363" points="983.3,585.2 902,531.2 563.1,599.2 509,680.4 577.1,1019.4 658.3,1073.4 
				997.2,1005.4 1051.3,924.2 			"/>
			<polygon opacity="0.6157" fill="#626262" points="980.5,582.5 899.3,528.4 560.3,596.4 506.3,677.7 574.3,1016.6 655.5,1070.7 
				994.5,1002.6 1048.5,921.4 			"/>
			<polygon opacity="0.6196" fill="#616161" points="977.7,579.7 896.5,525.6 557.6,593.7 503.5,674.9 571.5,1013.8 652.8,1067.9 
				991.7,999.8 1045.8,918.6 			"/>
			<polygon opacity="0.6235" fill="#606060" points="975,576.9 893.7,522.8 554.8,590.9 500.7,672.1 568.8,1011 650,1065.1 
				988.9,997.1 1043,915.8 			"/>
			<polygon opacity="0.6275" fill="#5F5F5F" points="972.2,574.1 891,520.1 552,588.1 498,669.3 566,1008.3 647.2,1062.3 
				986.2,994.3 1040.2,913.1 			"/>
			<polygon opacity="0.6314" fill="#5E5E5E" points="969.4,571.4 888.2,517.3 549.3,585.3 495.2,666.6 563.2,1005.5 644.5,1059.6 
				983.4,991.5 1037.5,910.3 			"/>
			<polygon opacity="0.6353" fill="#5D5D5D" points="966.6,568.6 885.4,514.5 546.5,582.6 492.4,663.8 560.5,1002.7 641.7,1056.8 
				980.6,988.8 1034.7,907.5 			"/>
			<polygon opacity="0.6392" fill="#5C5C5C" points="963.9,565.8 882.6,511.8 543.7,579.8 489.6,661 557.7,1000 638.9,1054 
				977.9,986 1031.9,904.8 			"/>
			<polygon opacity="0.6431" fill="#5B5B5B" points="961.1,563.1 879.9,509 540.9,577 486.9,658.3 554.9,997.2 636.1,1051.3 
				975.1,983.2 1029.1,902 			"/>
			<polygon opacity="0.6471" fill="#5A5A5A" points="958.3,560.3 877.1,506.2 538.2,574.3 484.1,655.5 552.1,994.4 633.4,1048.5 
				972.3,980.5 1026.4,899.2 			"/>
			<polygon opacity="0.651" fill="#595959" points="955.6,557.5 874.3,503.4 535.4,571.5 481.3,652.7 549.4,991.7 630.6,1045.7 
				969.5,977.7 1023.6,896.4 			"/>
			<polygon opacity="0.6549" fill="#585858" points="952.8,554.7 871.6,500.7 532.6,568.7 478.6,649.9 546.6,988.9 627.8,1042.9 
				966.8,974.9 1020.8,893.7 			"/>
			<polygon opacity="0.6588" fill="#575757" points="950,552 868.8,497.9 529.9,565.9 475.8,647.2 543.8,986.1 625.1,1040.2 
				964,972.1 1018.1,890.9 			"/>
			<polygon opacity="0.6627" fill="#565656" points="947.3,549.2 866,495.1 527.1,563.2 473,644.4 541.1,983.3 622.3,1037.4 
				961.2,969.4 1015.3,888.1 			"/>
			<polygon opacity="0.6667" fill="#555555" points="944.5,546.4 863.3,492.4 524.3,560.4 470.2,641.6 538.3,980.6 619.5,1034.6 
				958.5,966.6 1012.5,885.4 			"/>
			<polygon opacity="0.6706" fill="#545454" points="941.7,543.7 860.5,489.6 521.5,557.6 467.5,638.9 535.5,977.8 616.8,1031.9 
				955.7,963.8 1009.8,882.6 			"/>
			<polygon opacity="0.6745" fill="#535353" points="938.9,540.9 857.7,486.8 518.8,554.9 464.7,636.1 532.7,975 614,1029.1 
				952.9,961.1 1007,879.8 			"/>
			<polygon opacity="0.6784" fill="#525252" points="936.2,538.1 854.9,484 516,552.1 461.9,633.3 530,972.3 611.2,1026.3 
				950.1,958.3 1004.2,877.1 			"/>
			<polygon opacity="0.6824" fill="#515151" points="933.4,535.3 852.2,481.3 513.2,549.3 459.2,630.6 527.2,969.5 608.4,1023.6 
				947.4,955.5 1001.4,874.3 			"/>
			<polygon opacity="0.6863" fill="#505050" points="930.6,532.6 849.4,478.5 510.5,546.5 456.4,627.8 524.4,966.7 605.7,1020.8 
				944.6,952.7 998.7,871.5 			"/>
			<polygon opacity="0.6902" fill="#4F4F4F" points="927.9,529.8 846.6,475.7 507.7,543.8 453.6,625 521.7,963.9 602.9,1018 
				941.8,950 995.9,868.7 			"/>
			<polygon opacity="0.6941" fill="#4E4E4E" points="925.1,527 843.9,473 504.9,541 450.9,622.2 518.9,961.2 600.1,1015.2 
				939.1,947.2 993.1,866 			"/>
			<polygon opacity="0.698" fill="#4D4D4D" points="922.3,524.3 841.1,470.2 502.2,538.2 448.1,619.5 516.1,958.4 597.4,1012.5 
				936.3,944.4 990.4,863.2 			"/>
			<polygon opacity="0.702" fill="#4C4C4C" points="919.5,521.5 838.3,467.4 499.4,535.5 445.3,616.7 513.4,955.6 594.6,1009.7 
				933.5,941.7 987.6,860.4 			"/>
			<polygon opacity="0.7059" fill="#4B4B4B" points="916.8,518.7 835.5,464.7 496.6,532.7 442.5,613.9 510.6,952.9 591.8,1006.9 
				930.7,938.9 984.8,857.7 			"/>
			<polygon opacity="0.7098" fill="#4A4A4A" points="914,516 832.8,461.9 493.8,529.9 439.8,611.2 507.8,950.1 589,1004.2 
				928,936.1 982,854.9 			"/>
			<polygon opacity="0.7137" fill="#494949" points="911.2,513.2 830,459.1 491.1,527.2 437,608.4 505,947.3 586.3,1001.4 
				925.2,933.3 979.3,852.1 			"/>
			<polygon opacity="0.7176" fill="#484848" points="908.5,510.4 827.2,456.3 488.3,524.4 434.2,605.6 502.3,944.5 583.5,998.6 
				922.4,930.6 976.5,849.3 			"/>
			<polygon opacity="0.7216" fill="#474747" points="905.7,507.6 824.5,453.6 485.5,521.6 431.5,602.8 499.5,941.8 580.7,995.8 
				919.7,927.8 973.7,846.6 			"/>
			<polygon opacity="0.7255" fill="#464646" points="902.9,504.9 821.7,450.8 482.8,518.8 428.7,600.1 496.7,939 578,993.1 
				916.9,925 971,843.8 			"/>
			<polygon opacity="0.7294" fill="#454545" points="900.1,502.1 818.9,448 480,516.1 425.9,597.3 494,936.2 575.2,990.3 
				914.1,922.3 968.2,841 			"/>
			<polygon opacity="0.7333" fill="#444444" points="897.4,499.3 816.1,445.3 477.2,513.3 423.1,594.5 491.2,933.5 572.4,987.5 
				911.3,919.5 965.4,838.3 			"/>
			<polygon opacity="0.7373" fill="#434343" points="894.6,496.6 813.4,442.5 474.4,510.5 420.4,591.8 488.4,930.7 569.6,984.8 
				908.6,916.7 962.6,835.5 			"/>
			<polygon opacity="0.7412" fill="#424242" points="891.8,493.8 810.6,439.7 471.7,507.8 417.6,589 485.6,927.9 566.9,982 
				905.8,913.9 959.9,832.7 			"/>
			<polygon opacity="0.7451" fill="#414141" points="889.1,491 807.8,436.9 468.9,505 414.8,586.2 482.9,925.1 564.1,979.2 
				903,911.2 957.1,829.9 			"/>
			<polygon opacity="0.749" fill="#404040" points="886.3,488.2 805.1,434.2 466.1,502.2 412.1,583.4 480.1,922.4 561.3,976.4 
				900.3,908.4 954.3,827.2 			"/>
			<polygon opacity="0.7529" fill="#3F3F3F" points="883.5,485.5 802.3,431.4 463.4,499.4 409.3,580.7 477.3,919.6 558.6,973.7 
				897.5,905.6 951.6,824.4 			"/>
			<polygon opacity="0.7569" fill="#3E3E3E" points="880.8,482.7 799.5,428.6 460.6,496.7 406.5,577.9 474.6,916.8 555.8,970.9 
				894.7,902.9 948.8,821.6 			"/>
			<polygon opacity="0.7608" fill="#3D3D3D" points="878,479.9 796.7,425.9 457.8,493.9 403.7,575.1 471.8,914.1 553,968.1 
				892,900.1 946,818.9 			"/>
			<polygon opacity="0.7647" fill="#3C3C3C" points="875.2,477.2 794,423.1 455,491.1 401,572.4 469,911.3 550.2,965.4 889.2,897.3 
				943.3,816.1 			"/>
			<polygon opacity="0.7686" fill="#3B3B3B" points="872.4,474.4 791.2,420.3 452.3,488.4 398.2,569.6 466.2,908.5 547.5,962.6 
				886.4,894.6 940.5,813.3 			"/>
			<polygon opacity="0.7725" fill="#3A3A3A" points="869.7,471.6 788.4,417.5 449.5,485.6 395.4,566.8 463.5,905.8 544.7,959.8 
				883.6,891.8 937.7,810.5 			"/>
			<polygon opacity="0.7765" fill="#393939" points="866.9,468.8 785.7,414.8 446.7,482.8 392.7,564 460.7,903 541.9,957.1 
				880.9,889 934.9,807.8 			"/>
			<polygon opacity="0.7804" fill="#383838" points="864.1,466.1 782.9,412 444,480 389.9,561.3 457.9,900.2 539.2,954.3 
				878.1,886.2 932.2,805 			"/>
			<polygon opacity="0.7843" fill="#373737" points="861.4,463.3 780.1,409.2 441.2,477.3 387.1,558.5 455.2,897.4 536.4,951.5 
				875.3,883.5 929.4,802.2 			"/>
			<polygon opacity="0.7882" fill="#363636" points="858.6,460.5 777.4,406.5 438.4,474.5 384.4,555.7 452.4,894.7 533.6,948.7 
				872.6,880.7 926.6,799.5 			"/>
			<polygon opacity="0.7922" fill="#353535" points="855.8,457.8 774.6,403.7 435.6,471.7 381.6,553 449.6,891.9 530.9,946 
				869.8,877.9 923.9,796.7 			"/>
			<polygon opacity="0.7961" fill="#343434" points="853,455 771.8,400.9 432.9,469 378.8,550.2 446.9,889.1 528.1,943.2 867,875.2 
				921.1,793.9 			"/>
			<polygon opacity="0.8" fill="#333333" points="850.3,452.2 769,398.2 430.1,466.2 376,547.4 444.1,886.4 525.3,940.4 
				864.2,872.4 918.3,791.2 			"/>
			<polygon opacity="0.8039" fill="#323232" points="847.5,449.4 766.3,395.4 427.3,463.4 373.3,544.7 441.3,883.6 522.5,937.7 
				861.5,869.6 915.5,788.4 			"/>
			<polygon opacity="0.8078" fill="#313131" points="844.7,446.7 763.5,392.6 424.6,460.6 370.5,541.9 438.5,880.8 519.8,934.9 
				858.7,866.8 912.8,785.6 			"/>
			<polygon opacity="0.8118" fill="#303030" points="842,443.9 760.7,389.8 421.8,457.9 367.7,539.1 435.8,878 517,932.1 
				855.9,864.1 910,782.8 			"/>
			<polygon opacity="0.8157" fill="#2F2F2F" points="839.2,441.1 758,387.1 419,455.1 365,536.3 433,875.3 514.2,929.3 853.2,861.3 
				907.2,780.1 			"/>
			<polygon opacity="0.8196" fill="#2E2E2E" points="836.4,438.4 755.2,384.3 416.3,452.3 362.2,533.6 430.2,872.5 511.5,926.6 
				850.4,858.5 904.5,777.3 			"/>
			<polygon opacity="0.8235" fill="#2D2D2D" points="833.6,435.6 752.4,381.5 413.5,449.6 359.4,530.8 427.5,869.7 508.7,923.8 
				847.6,855.8 901.7,774.5 			"/>
			<polygon opacity="0.8275" fill="#2C2C2C" points="830.9,432.8 749.6,378.8 410.7,446.8 356.6,528 424.7,867 505.9,921 844.8,853 
				898.9,771.8 			"/>
			<polygon opacity="0.8314" fill="#2B2B2B" points="828.1,430.1 746.9,376 407.9,444 353.9,525.3 421.9,864.2 503.1,918.3 
				842.1,850.2 896.1,769 			"/>
			<polygon opacity="0.8353" fill="#2A2A2A" points="825.3,427.3 744.1,373.2 405.2,441.3 351.1,522.5 419.1,861.4 500.4,915.5 
				839.3,847.4 893.4,766.2 			"/>
			<polygon opacity="0.8392" fill="#292929" points="822.6,424.5 741.3,370.4 402.4,438.5 348.3,519.7 416.4,858.6 497.6,912.7 
				836.5,844.7 890.6,763.4 			"/>
			<polygon opacity="0.8431" fill="#282828" points="819.8,421.7 738.6,367.7 399.6,435.7 345.6,516.9 413.6,855.9 494.8,909.9 
				833.8,841.9 887.8,760.7 			"/>
			<polygon opacity="0.8471" fill="#272727" points="817,419 735.8,364.9 396.9,432.9 342.8,514.2 410.8,853.1 492.1,907.2 
				831,839.1 885.1,757.9 			"/>
			<polygon opacity="0.851" fill="#262626" points="814.3,416.2 733,362.1 394.1,430.2 340,511.4 408.1,850.3 489.3,904.4 
				828.2,836.4 882.3,755.1 			"/>
			<polygon opacity="0.8549" fill="#252525" points="811.5,413.4 730.2,359.4 391.3,427.4 337.2,508.6 405.3,847.6 486.5,901.6 
				825.5,833.6 879.5,752.4 			"/>
			<polygon opacity="0.8588" fill="#242424" points="808.7,410.7 727.5,356.6 388.5,424.6 334.5,505.9 402.5,844.8 483.7,898.9 
				822.7,830.8 876.7,749.6 			"/>
			<polygon opacity="0.8627" fill="#232323" points="805.9,407.9 724.7,353.8 385.8,421.9 331.7,503.1 399.7,842 481,896.1 
				819.9,828.1 874,746.8 			"/>
			<polygon opacity="0.8667" fill="#222222" points="803.2,405.1 721.9,351 383,419.1 328.9,500.3 397,839.3 478.2,893.3 
				817.1,825.3 871.2,744 			"/>
			<polygon opacity="0.8706" fill="#212121" points="800.4,402.3 719.2,348.3 380.2,416.3 326.2,497.5 394.2,836.5 475.4,890.5 
				814.4,822.5 868.4,741.3 			"/>
			<polygon opacity="0.8745" fill="#202020" points="797.6,399.6 716.4,345.5 377.5,413.5 323.4,494.8 391.4,833.7 472.7,887.8 
				811.6,819.7 865.7,738.5 			"/>
			<polygon opacity="0.8784" fill="#1F1F1F" points="794.9,396.8 713.6,342.7 374.7,410.8 320.6,492 388.7,830.9 469.9,885 
				808.8,817 862.9,735.7 			"/>
			<polygon opacity="0.8824" fill="#1E1E1E" points="792.1,394 710.9,340 371.9,408 317.8,489.2 385.9,828.2 467.1,882.2 
				806.1,814.2 860.1,733 			"/>
			<polygon opacity="0.8863" fill="#1D1D1D" points="789.3,391.3 708.1,337.2 369.1,405.2 315.1,486.5 383.1,825.4 464.4,879.5 
				803.3,811.4 857.4,730.2 			"/>
			<polygon opacity="0.8902" fill="#1C1C1C" points="786.5,388.5 705.3,334.4 366.4,402.5 312.3,483.7 380.3,822.6 461.6,876.7 
				800.5,808.7 854.6,727.4 			"/>
			<polygon opacity="0.8941" fill="#1B1B1B" points="783.8,385.7 702.5,331.6 363.6,399.7 309.5,480.9 377.6,819.9 458.8,873.9 
				797.7,805.9 851.8,724.7 			"/>
			<polygon opacity="0.898" fill="#1A1A1A" points="781,382.9 699.8,328.9 360.8,396.9 306.8,478.2 374.8,817.1 456,871.2 
				795,803.1 849,721.9 			"/>
			<polygon opacity="0.902" fill="#191919" points="778.2,380.2 697,326.1 358.1,394.1 304,475.4 372,814.3 453.3,868.4 
				792.2,800.3 846.3,719.1 			"/>
			<polygon opacity="0.9059" fill="#181818" points="775.5,377.4 694.2,323.3 355.3,391.4 301.2,472.6 369.3,811.5 450.5,865.6 
				789.4,797.6 843.5,716.3 			"/>
			<polygon opacity="0.9098" fill="#171717" points="772.7,374.6 691.5,320.6 352.5,388.6 298.5,469.8 366.5,808.8 447.7,862.8 
				786.7,794.8 840.7,713.6 			"/>
			<polygon opacity="0.9137" fill="#161616" points="769.9,371.9 688.7,317.8 349.8,385.8 295.7,467.1 363.7,806 445,860.1 
				783.9,792 838,710.8 			"/>
			<polygon opacity="0.9176" fill="#151515" points="767.1,369.1 685.9,315 347,383.1 292.9,464.3 361,803.2 442.2,857.3 
				781.1,789.3 835.2,708 			"/>
			<polygon opacity="0.9216" fill="#141414" points="764.4,366.3 683.1,312.3 344.2,380.3 290.1,461.5 358.2,800.5 439.4,854.5 
				778.3,786.5 832.4,705.3 			"/>
			<polygon opacity="0.9255" fill="#131313" points="761.6,363.6 680.4,309.5 341.4,377.5 287.4,458.8 355.4,797.7 436.6,851.8 
				775.6,783.7 829.6,702.5 			"/>
			<polygon opacity="0.9294" fill="#121212" points="758.8,360.8 677.6,306.7 338.7,374.8 284.6,456 352.6,794.9 433.9,849 
				772.8,780.9 826.9,699.7 			"/>
			<polygon opacity="0.9333" fill="#111111" points="756.1,358 674.8,303.9 335.9,372 281.8,453.2 349.9,792.1 431.1,846.2 
				770,778.2 824.1,696.9 			"/>
			<polygon opacity="0.9373" fill="#101010" points="753.3,355.2 672.1,301.2 333.1,369.2 279.1,450.4 347.1,789.4 428.3,843.4 
				767.3,775.4 821.3,694.2 			"/>
			<polygon opacity="0.9412" fill="#0F0F0F" points="750.5,352.5 669.3,298.4 330.4,366.4 276.3,447.7 344.3,786.6 425.6,840.7 
				764.5,772.6 818.6,691.4 			"/>
			<polygon opacity="0.9451" fill="#0E0E0E" points="747.7,349.7 666.5,295.6 327.6,363.7 273.5,444.9 341.6,783.8 422.8,837.9 
				761.7,769.9 815.8,688.6 			"/>
			<polygon opacity="0.949" fill="#0D0D0D" points="745,346.9 663.7,292.9 324.8,360.9 270.7,442.1 338.8,781.1 420,835.1 
				758.9,767.1 813,685.9 			"/>
			<polygon opacity="0.9529" fill="#0C0C0C" points="742.2,344.2 661,290.1 322,358.1 268,439.4 336,778.3 417.2,832.4 756.2,764.3 
				810.2,683.1 			"/>
			<polygon opacity="0.9569" fill="#0B0B0B" points="739.4,341.4 658.2,287.3 319.3,355.4 265.2,436.6 333.2,775.5 414.5,829.6 
				753.4,761.5 807.5,680.3 			"/>
			<polygon opacity="0.9608" fill="#0A0A0A" points="736.7,338.6 655.4,284.5 316.5,352.6 262.4,433.8 330.5,772.7 411.7,826.8 
				750.6,758.8 804.7,677.5 			"/>
			<polygon opacity="0.9647" fill="#090909" points="733.9,335.8 652.7,281.8 313.7,349.8 259.7,431 327.7,770 408.9,824 747.9,756 
				801.9,674.8 			"/>
			<polygon opacity="0.9686" fill="#080808" points="731.1,333.1 649.9,279 311,347 256.9,428.3 324.9,767.2 406.2,821.3 
				745.1,753.2 799.2,672 			"/>
			<polygon opacity="0.9725" fill="#070707" points="728.4,330.3 647.1,276.2 308.2,344.3 254.1,425.5 322.2,764.4 403.4,818.5 
				742.3,750.5 796.4,669.2 			"/>
			<polygon opacity="0.9765" fill="#060606" points="725.6,327.5 644.3,273.5 305.4,341.5 251.3,422.7 319.4,761.7 400.6,815.7 
				739.6,747.7 793.6,666.5 			"/>
			<polygon opacity="0.9804" fill="#050505" points="722.8,324.8 641.6,270.7 302.6,338.7 248.6,420 316.6,758.9 397.9,813 
				736.8,744.9 790.9,663.7 			"/>
			<polygon opacity="0.9843" fill="#040404" points="720,322 638.8,267.9 299.9,336 245.8,417.2 313.8,756.1 395.1,810.2 734,742.2 
				788.1,660.9 			"/>
			<polygon opacity="0.9882" fill="#030303" points="717.3,319.2 636,265.1 297.1,333.2 243,414.4 311.1,753.4 392.3,807.4 
				731.2,739.4 785.3,658.1 			"/>
			<polygon opacity="0.9922" fill="#020202" points="714.5,316.4 633.3,262.4 294.3,330.4 240.3,411.6 308.3,750.6 389.5,804.7 
				728.5,736.6 782.5,655.4 			"/>
			<polygon opacity="0.9961" fill="#010101" points="711.7,313.7 630.5,259.6 291.6,327.6 237.5,408.9 305.5,747.8 386.8,801.9 
				725.7,733.8 779.8,652.6 			"/>
			<polygon points="709,310.9 627.7,256.8 288.8,324.9 234.7,406.1 302.8,745 384,799.1 722.9,731.1 777,649.8 			"/>
		</g>
	</g>
	<g>
		<g>
			<g>
				<polygon fill="#FFFFFF" points="709,310.9 627.7,256.8 288.8,324.9 234.7,406.1 302.8,745 384,799.1 722.9,731.1 777,649.8 				
					"/>
			</g>
		</g>
		<g>
			<g>
				<path fill="#FFFFFF" d="M850.3,597.3l-60.8,16.1c-2,0.5-4-0.7-4.4-2.8l-2.5-12.4c-0.4-2,1-4,3-4.2l62.3-8.6c1.9-0.3,3.6,1,4,2.8
					l1,4.9C853.3,595,852.1,596.8,850.3,597.3z"/>
			</g>
		</g>
		<g>
			<g>
				<path fill="#FFFFFF" d="M844,565.9L783.2,582c-2,0.5-4-0.7-4.4-2.8l-2.5-12.4c-0.4-2,1-4,3-4.2l62.3-8.6c1.9-0.3,3.6,1,4,2.8
					l1,4.9C847,563.6,845.8,565.4,844,565.9z"/>
			</g>
		</g>
		<g>
			<g>
				<path fill="#FFFFFF" d="M837.7,534.4l-60.8,16.1c-2,0.5-4-0.7-4.4-2.8l-2.5-12.4c-0.4-2,1-4,3-4.2l62.3-8.6c1.9-0.3,3.6,1,4,2.8
					l1,4.9C840.6,532.1,839.5,534,837.7,534.4z"/>
			</g>
		</g>
		<g>
			<g>
				<path fill="#FFFFFF" d="M831.4,503l-60.8,16.1c-2,0.5-4-0.7-4.4-2.8l-2.5-12.4c-0.4-2,1-4,3-4.2l62.3-8.6c1.9-0.3,3.6,1,4,2.8
					l1,4.9C834.3,500.7,833.2,502.5,831.4,503z"/>
			</g>
		</g>
		<g>
			<g>
				<path fill="#FFFFFF" d="M825.1,471.5l-60.8,16.1c-2,0.5-4-0.7-4.4-2.8l-2.5-12.4c-0.4-2,1-4,3-4.2l62.3-8.6c1.9-0.3,3.6,1,4,2.8
					l1,4.9C828,469.2,826.9,471.1,825.1,471.5z"/>
			</g>
		</g>
		<g>
			<g>
				<path fill="#FFFFFF" d="M818.7,440.1L758,456.2c-2,0.5-4-0.7-4.4-2.8l-2.5-12.4c-0.4-2,1-4,3-4.2l62.3-8.6c1.9-0.3,3.6,1,4,2.8
					l1,4.9C821.7,437.8,820.6,439.6,818.7,440.1z"/>
			</g>
		</g>
		<g>
			<g>
				<path fill="#FFFFFF" d="M812.4,408.6l-60.8,16.1c-2,0.5-4-0.7-4.4-2.8l-2.5-12.4c-0.4-2,1-4,3-4.2l62.3-8.6c1.9-0.3,3.6,1,4,2.8
					l1,4.9C815.4,406.3,814.3,408.2,812.4,408.6z"/>
			</g>
		</g>
		<g>
			<g>
				<path fill="#FFFFFF" d="M806.2,377.4l-60.8,16.1c-2,0.5-4-0.7-4.4-2.8l-2.5-12.4c-0.4-2,1-4,3-4.2l62.3-8.6c1.9-0.3,3.6,1,4,2.8
					l1,4.9C809.1,375.1,808,377,806.2,377.4z"/>
			</g>
		</g>
		<g>
			<g>
				<path fill="#FFFFFF" d="M799.6,344.7l-60.8,16.1c-2,0.5-4-0.7-4.4-2.8l-2.5-12.4c-0.4-2,1-4,3-4.2l62.3-8.6c1.9-0.3,3.6,1,4,2.8
					l1,4.9C802.5,342.4,801.4,344.2,799.6,344.7z"/>
			</g>
		</g>
		<g>
			<g>
				<path fill="#FFFFFF" d="M158.6,454.6l60.8-16.1c2-0.5,4,0.7,4.4,2.8l2.5,12.4c0.4,2-1,4-3,4.2l-62.3,8.6c-1.9,0.3-3.6-1-4-2.8
					l-1-4.9C155.7,456.9,156.8,455,158.6,454.6z"/>
			</g>
		</g>
		<g>
			<g>
				<path fill="#FFFFFF" d="M164.9,486l60.8-16.1c2-0.5,4,0.7,4.4,2.8l2.5,12.4c0.4,2-1,4-3,4.2l-62.3,8.6c-1.9,0.3-3.6-1-4-2.8
					l-1-4.9C162,488.3,163.1,486.5,164.9,486z"/>
			</g>
		</g>
		<g>
			<g>
				<path fill="#FFFFFF" d="M171.2,517.5l60.8-16.1c2-0.5,4,0.7,4.4,2.8l2.5,12.4c0.4,2-1,4-3,4.2l-62.3,8.6c-1.9,0.3-3.6-1-4-2.8
					l-1-4.9C168.3,519.8,169.4,517.9,171.2,517.5z"/>
			</g>
		</g>
		<g>
			<g>
				<path fill="#FFFFFF" d="M177.6,548.9l60.8-16.1c2-0.5,4,0.7,4.4,2.8l2.5,12.4c0.4,2-1,4-3,4.2l-62.3,8.6c-1.9,0.3-3.6-1-4-2.8
					l-1-4.9C174.6,551.2,175.7,549.4,177.6,548.9z"/>
			</g>
		</g>
		<g>
			<g>
				<path fill="#FFFFFF" d="M183.9,580.4l60.8-16.1c2-0.5,4,0.7,4.4,2.8l2.5,12.4c0.4,2-1,4-3,4.2l-62.3,8.6c-1.9,0.3-3.6-1-4-2.8
					l-1-4.9C180.9,582.7,182,580.8,183.9,580.4z"/>
			</g>
		</g>
		<g>
			<g>
				<path fill="#FFFFFF" d="M190.2,611.8l60.8-16.1c2-0.5,4,0.7,4.4,2.8l2.5,12.4c0.4,2-1,4-3,4.2l-62.3,8.6c-1.9,0.3-3.6-1-4-2.8
					l-1-4.9C187.2,614.1,188.4,612.3,190.2,611.8z"/>
			</g>
		</g>
		<g>
			<g>
				<path fill="#FFFFFF" d="M196.5,643.3l60.8-16.1c2-0.5,4,0.7,4.4,2.8l2.5,12.4c0.4,2-1,4-3,4.2l-62.3,8.6c-1.9,0.3-3.6-1-4-2.8
					l-1-4.9C193.5,645.6,194.7,643.7,196.5,643.3z"/>
			</g>
		</g>
		<g>
			<g>
				<path fill="#FFFFFF" d="M202.8,674.5l60.8-16.1c2-0.5,4,0.7,4.4,2.8l2.5,12.4c0.4,2-1,4-3,4.2l-62.3,8.6c-1.9,0.3-3.6-1-4-2.8
					l-1-4.9C199.8,676.8,200.9,674.9,202.8,674.5z"/>
			</g>
		</g>
		<g>
			<g>
				<path fill="#FFFFFF" d="M209.3,707.2l60.8-16.1c2-0.5,4,0.7,4.4,2.8l2.5,12.4c0.4,2-1,4-3,4.2l-62.3,8.6c-1.9,0.3-3.6-1-4-2.8
					l-1-4.9C206.4,709.5,207.5,707.7,209.3,707.2z"/>
			</g>
		</g>
		<g>
			<g>
				<path fill="#FFFFFF" d="M433.7,872.2l-16.1-60.8c-0.5-2,0.7-4,2.8-4.4l12.4-2.5c2-0.4,4,1,4.2,3l8.6,62.3c0.3,1.9-1,3.6-2.8,4
					l-4.9,1C436,875.2,434.2,874.1,433.7,872.2z"/>
			</g>
		</g>
		<g>
			<g>
				<path fill="#FFFFFF" d="M465.1,865.9L449,805.1c-0.5-2,0.7-4,2.8-4.4l12.4-2.5c2-0.4,4,1,4.2,3l8.6,62.3c0.3,1.9-1,3.6-2.8,4
					l-4.9,1C467.4,868.9,465.6,867.7,465.1,865.9z"/>
			</g>
		</g>
		<g>
			<g>
				<path fill="#FFFFFF" d="M496.6,859.6l-16.1-60.8c-0.5-2,0.7-4,2.8-4.4l12.4-2.5c2-0.4,4,1,4.2,3l8.6,62.3c0.3,1.9-1,3.6-2.8,4
					l-4.9,1C498.9,862.6,497.1,861.4,496.6,859.6z"/>
			</g>
		</g>
		<g>
			<g>
				<path fill="#FFFFFF" d="M528,853.3l-16.1-60.8c-0.5-2,0.7-4,2.8-4.4l12.4-2.5c2-0.4,4,1,4.2,3l8.6,62.3c0.3,1.9-1,3.6-2.8,4
					l-4.9,1C530.3,856.3,528.5,855.1,528,853.3z"/>
			</g>
		</g>
		<g>
			<g>
				<path fill="#FFFFFF" d="M559.5,847l-16.1-60.8c-0.5-2,0.7-4,2.8-4.4l12.4-2.5c2-0.4,4,1,4.2,3l8.6,62.3c0.3,1.9-1,3.6-2.8,4
					l-4.9,1C561.8,849.9,560,848.8,559.5,847z"/>
			</g>
		</g>
		<g>
			<g>
				<path fill="#FFFFFF" d="M590.9,840.7l-16.1-60.8c-0.5-2,0.7-4,2.8-4.4L590,773c2-0.4,4,1,4.2,3l8.6,62.3c0.3,1.9-1,3.6-2.8,4
					l-4.9,1C593.2,843.6,591.4,842.5,590.9,840.7z"/>
			</g>
		</g>
		<g>
			<g>
				<path fill="#FFFFFF" d="M622.4,834.4l-16.1-60.8c-0.5-2,0.7-4,2.8-4.4l12.4-2.5c2-0.4,4,1,4.2,3l8.6,62.3c0.3,1.9-1,3.6-2.8,4
					l-4.9,1C624.7,837.3,622.9,836.2,622.4,834.4z"/>
			</g>
		</g>
		<g>
			<g>
				<path fill="#FFFFFF" d="M653.6,828.1l-16.1-60.8c-0.5-2,0.7-4,2.8-4.4l12.4-2.5c2-0.4,4,1,4.2,3l8.6,62.3c0.3,1.9-1,3.6-2.8,4
					l-4.9,1C655.9,831,654.1,829.9,653.6,828.1z"/>
			</g>
		</g>
		<g>
			<g>
				<path fill="#FFFFFF" d="M686.3,821.5l-16.1-60.8c-0.5-2,0.7-4,2.8-4.4l12.4-2.5c2-0.4,4,1,4.2,3l8.6,62.3c0.3,1.9-1,3.6-2.8,4
					l-4.9,1C688.7,824.5,686.8,823.3,686.3,821.5z"/>
			</g>
		</g>
		<g>
			<g>
				<path fill="#FFFFFF" d="M572.2,183.3l16.1,60.8c0.5,2-0.7,4-2.8,4.4l-12.4,2.5c-2,0.4-4-1-4.2-3l-8.6-62.3c-0.3-1.9,1-3.6,2.8-4
					l4.9-1C569.9,180.3,571.7,181.5,572.2,183.3z"/>
			</g>
		</g>
		<g>
			<g>
				<path fill="#FFFFFF" d="M540.8,189.6l16.1,60.8c0.5,2-0.7,4-2.8,4.4l-12.4,2.5c-2,0.4-4-1-4.2-3l-8.6-62.3c-0.3-1.9,1-3.6,2.8-4
					l4.9-1C538.5,186.6,540.3,187.8,540.8,189.6z"/>
			</g>
		</g>
		<g>
			<g>
				<path fill="#FFFFFF" d="M509.3,195.9l16.1,60.8c0.5,2-0.7,4-2.8,4.4l-12.4,2.5c-2,0.4-4-1-4.2-3l-8.6-62.3c-0.3-1.9,1-3.6,2.8-4
					l4.9-1C507,192.9,508.8,194.1,509.3,195.9z"/>
			</g>
		</g>
		<g>
			<g>
				<path fill="#FFFFFF" d="M477.9,202.2L494,263c0.5,2-0.7,4-2.8,4.4l-12.4,2.5c-2,0.4-4-1-4.2-3l-8.6-62.3c-0.3-1.9,1-3.6,2.8-4
					l4.9-1C475.6,199.3,477.4,200.4,477.9,202.2z"/>
			</g>
		</g>
		<g>
			<g>
				<path fill="#FFFFFF" d="M446.4,208.5l16.1,60.8c0.5,2-0.7,4-2.8,4.4l-12.4,2.5c-2,0.4-4-1-4.2-3l-8.6-62.3c-0.3-1.9,1-3.6,2.8-4
					l4.9-1C444.1,205.6,445.9,206.7,446.4,208.5z"/>
			</g>
		</g>
		<g>
			<g>
				<path fill="#FFFFFF" d="M415,214.9l16.1,60.8c0.5,2-0.7,4-2.8,4.4l-12.4,2.5c-2,0.4-4-1-4.2-3l-8.6-62.3c-0.3-1.9,1-3.6,2.8-4
					l4.9-1C412.7,211.9,414.5,213,415,214.9z"/>
			</g>
		</g>
		<g>
			<g>
				<path fill="#FFFFFF" d="M383.5,221.2l16.1,60.8c0.5,2-0.7,4-2.8,4.4l-12.4,2.5c-2,0.4-4-1-4.2-3l-8.6-62.3c-0.3-1.9,1-3.6,2.8-4
					l4.9-1C381.2,218.2,383,219.3,383.5,221.2z"/>
			</g>
		</g>
		<g>
			<g>
				<path fill="#FFFFFF" d="M352.3,227.4l16.1,60.8c0.5,2-0.7,4-2.8,4.4l-12.4,2.5c-2,0.4-4-1-4.2-3l-8.6-62.3c-0.3-1.9,1-3.6,2.8-4
					l4.9-1C350,224.5,351.8,225.6,352.3,227.4z"/>
			</g>
		</g>
		<g>
			<g>
				<path fill="#FFFFFF" d="M319.6,234l16.1,60.8c0.5,2-0.7,4-2.8,4.4l-12.4,2.5c-2,0.4-4-1-4.2-3l-8.6-62.3c-0.3-1.9,1-3.6,2.8-4
					l4.9-1C317.3,231,319.1,232.2,319.6,234z"/>
			</g>
		</g>
	</g>
	<g>
		<g>
			<path fill="#DF5DED" d="M304,405.2c-6.6,0-12.3-4.7-13.6-11.2c-0.7-3.6,0-7.3,2.1-10.4c2.1-3.1,5.2-5.2,8.8-5.9
				c7.6-1.6,14.9,3.5,16.3,10.9c1.5,7.5-3.4,14.8-10.9,16.3C305.8,405.2,304.9,405.2,304,405.2z M304,381.9c-0.6,0-1.2,0.1-1.9,0.2
				c-2.5,0.5-4.6,1.9-6,4c-1.4,2.1-1.9,4.6-1.4,7.1c1,5,6,8.4,11.1,7.4c5.1-1,8.4-6,7.4-11.1C312.4,385.1,308.5,381.9,304,381.9z"/>
		</g>
	</g>
	<g>
		<g>
			<path fill="#DF5DED" d="M639.5,337.9c-6.6,0-12.3-4.7-13.6-11.2c-0.7-3.6,0-7.3,2.1-10.4c2.1-3.1,5.2-5.2,8.8-5.9
				c7.6-1.5,14.9,3.5,16.3,10.9c1.5,7.5-3.4,14.8-10.9,16.3C641.3,337.8,640.4,337.9,639.5,337.9z M639.5,314.5
				c-0.6,0-1.2,0.1-1.9,0.2c-2.5,0.5-4.6,1.9-6,4c-1.4,2.1-1.9,4.6-1.4,7.1c1,5,6,8.4,11.1,7.4c5.1-1,8.4-6,7.4-11.1
				C647.9,317.7,644,314.5,639.5,314.5z"/>
		</g>
	</g>
	<g>
		<g>
			<path fill="#DF5DED" d="M372,744c-6.6,0-12.3-4.7-13.6-11.2c-0.7-3.6,0-7.3,2.1-10.4c2.1-3.1,5.2-5.2,8.8-5.9
				c7.6-1.5,14.9,3.5,16.3,10.9c1.5,7.5-3.4,14.8-10.9,16.3C373.8,743.9,372.9,744,372,744z M372,720.7c-0.6,0-1.2,0.1-1.9,0.2
				c-2.5,0.5-4.6,1.9-6,4c-1.4,2.1-1.9,4.6-1.4,7.1c1,5,6,8.5,11.1,7.4c5.1-1,8.4-6,7.4-11.1C380.4,723.9,376.5,720.7,372,720.7z"/>
		</g>
	</g>
	<g>
		<g>
			<path fill="#DF5DED" d="M707.5,676.7c-6.6,0-12.3-4.7-13.6-11.2c-1.5-7.5,3.4-14.8,10.9-16.3c7.6-1.5,14.9,3.5,16.3,10.9
				c0.7,3.6,0,7.3-2.1,10.4c-2.1,3.1-5.2,5.2-8.8,5.9C709.3,676.6,708.4,676.7,707.5,676.7z M707.5,653.3c-0.6,0-1.2,0.1-1.9,0.2
				c-5.1,1-8.4,6-7.4,11.1c1,5,6,8.4,11.1,7.4c2.5-0.5,4.6-1.9,6-4c1.4-2.1,1.9-4.6,1.4-7.1C715.9,656.5,712,653.3,707.5,653.3z"/>
		</g>
	</g>
</g>
</svg>
