<?xml version="1.0" encoding="utf-8"?>
<!-- Generator: Adobe Illustrator 18.0.0, SVG Export Plug-In . SVG Version: 6.00 Build 0)  -->
<!DOCTYPE svg PUBLIC "-//W3C//DTD SVG 1.1//EN" "http://www.w3.org/Graphics/SVG/1.1/DTD/svg11.dtd">
<svg version="1.1" id="Layer_1" xmlns="http://www.w3.org/2000/svg" xmlns:xlink="http://www.w3.org/1999/xlink" x="0px" y="0px"
	 viewBox="-308.1 26.4 2536.2 547.2" enable-background="new -308.1 26.4 2536.2 547.2" xml:space="preserve">
<rect x="-717.3" y="-213.5" display="none" fill="#333333" width="3755.2" height="1001.8"/>
<g>
	<path fill="#FFFFFF" d="M1937.8,495H-17.8c-107.2,0-195-87.7-195-195v0c0-107.2,87.7-195,195-195h1955.6c107.2,0,195,87.7,195,195
		v0C2132.8,407.2,2045,495,1937.8,495z"/>
</g>
<g id="title_x5F_2">
	<path fill="#3A3634" d="M245.5,228.5c3.5,0,5.3,1.8,5.3,5.3c0,3.5-1.8,5.3-5.3,5.3h-51.2v7.5h56.3c4.4,0,7.7,1.5,10,4.4
		c1.7,2.3,2.6,5.9,2.6,10.7c0,3.3-0.4,7.1-1.1,11.3c-0.9,3.2-3.1,4.8-6.7,4.8c-3.9,0-5.9-2-5.9-5.9c1.2-5,1.8-8.2,1.8-9.5
		c0-3.9-1.5-5.9-4.4-5.9h-52.5v31.8c0,3.9-2,5.9-5.9,5.9s-5.9-2-5.9-5.9v-31.8h-50.9c-3.5,0-5.2,1.8-5.2,5.3v11.2
		c0,3.7-1.9,5.6-5.6,5.6c-3.7,0-5.6-1.9-5.6-5.6v-13.1c0-8.7,4.4-13.1,13.1-13.1h54.1V239H132c-3.5,0-5.2-1.7-5.2-5.3
		c0-3.5,1.7-5.3,5.2-5.3H245.5z M138.1,299.3h99.6c7.4,0,11.2,3.5,11.2,10.5V342c0,6.9-3.7,10.3-11.2,10.3h-45v2
		c0,3.2,1.2,5.4,3.6,6.7c2.6,1.3,8.7,2,18.4,2c17.6,0,28.1-0.4,31.5-1.3c4.2-1,6.2-2.2,6.2-3.6v-8.7c0.2-4.7,2.3-7.2,6.2-7.4
		c3.9,0.2,6,3.2,6.2,9c0,9.8-1.3,15.6-3.8,17.2c-1.5,2.1-5.4,3.7-11.5,4.9c-5.7,1.1-17.3,1.6-34.9,1.6c-14.5,0-24-1.4-28.2-4.1
		c-4.2-2.4-6.2-7-6.2-13.8v-4.6h-42.2c-7.5,0-11.3-3.4-11.3-10.3v-32.2C126.7,302.8,130.5,299.3,138.1,299.3z M168.1,264.9
		c2.8,0,4.3,1.4,4.3,4.3c0,2.8-1.4,4.3-4.3,4.3h-27.6c-2.8,0-4.3-1.4-4.3-4.3c0-2.8,1.4-4.3,4.3-4.3H168.1z M167.4,281.3
		c2.8,0,4.3,1.4,4.3,4.3c0,2.8-1.4,4.3-4.3,4.3h-26.9c-2.8,0-4.3-1.4-4.3-4.3c0-2.8,1.4-4.3,4.3-4.3H167.4z M180.2,309.8h-38.4
		c-2.2,0-3.3,1.3-3.3,3.9v7.5h41.7V309.8z M180.2,331.2h-41.7v6.9c0,2.6,1.1,3.9,3.3,3.9h38.4V331.2z M192.7,321.3H237v-7.5
		c0-2.6-1.1-3.9-3.3-3.9h-41V321.3z M233.7,342c2.2,0,3.3-1.3,3.3-3.9v-6.9h-44.3V342H233.7z M237,264.2c2.8,0,4.3,1.4,4.3,4.1
		c0,3-1.4,4.4-4.3,4.4h-28.9c-2.8,0-4.3-1.5-4.3-4.4c0-2.7,1.4-4.1,4.3-4.1H237z M237.6,281.3c2.8,0,4.3,1.4,4.3,4.3
		c0,2.8-1.4,4.3-4.3,4.3h-28.9c-2.8,0-4.3-1.4-4.3-4.3c0-2.8,1.4-4.3,4.3-4.3H237.6z"/>
	<path fill="#3A3634" d="M374.7,258c3.5,0,5.3,1.8,5.3,5.3c0,3.4-1.8,5.1-5.3,5.1h-10.5v5.3l14.4,23.3c0.9,1.4,1.3,2.7,1.3,3.8
		c0,3.1-1.6,4.6-4.9,4.6c-1.5,0-2.7-0.8-3.4-2.5l-7.4-13.6v79.7c0,3.5-1.8,5.3-5.3,5.3c-3.5,0-5.3-1.8-5.3-5.3v-72.8
		c-0.1,0.7-0.2,1.2-0.3,1.6c-2.2,9.7-4.3,17.4-6.2,23.1c-2.2,7.8-4.2,13.3-5.9,16.7c-1.3,2.5-3.1,3.8-5.3,3.8
		c-3.9,0-5.9-1.9-5.9-5.7c0-1.4,0.5-3,1.6-4.6c6.1-14.8,10.4-27,13-36.6c2.1-7.2,3.9-15.9,5.6-26.1h-12.3c-3.5,0-5.3-1.7-5.3-5.1
		c0-3.5,1.7-5.3,5.3-5.3h15.8v-29.5c0-3.5,1.7-5.3,5.3-5.3c3.5,0,5.3,1.8,5.3,5.3V258H374.7z M456.7,225.8c1.5,0,2.9,0.4,4.1,1.3
		c1.2,0.9,1.8,1.9,1.8,3.1c0,0.9-0.2,1.8-0.5,2.8c-3.8,8-8.1,14.9-13,20.8c3,2.5,5.8,5.1,8.7,7.9c3.8-6.2,7.5-12.9,11.2-19.9
		c0.7-2,2-3,4.1-3c1.5,0,2.9,0.4,4.1,1.3c1.2,0.9,1.8,1.9,1.8,3.1c0,0.9-0.2,1.8-0.5,2.8c-7.4,14.3-15.6,27.1-24.6,38.2
		c6.5-0.9,12.4-2.2,17.7-3.9c-0.5-2.1-1.1-4-1.8-5.7l-0.3-1.8c0-3.1,1.6-4.6,4.9-4.6c2.3,0,4,1.1,5.1,3.3c1.5,4,3.2,10.6,4.9,19.7
		c0.3,1.8,0.5,3,0.5,3.8c0,3.3-1.8,4.9-5.3,4.9c-3.1,0-4.7-1.6-4.9-4.8c-0.3-2.4-0.7-4.6-1.1-6.7c-5.8,1.8-11.4,3.2-16.9,4.3
		c0.9,0.1,1.9,0.4,3,1c1.3,0.9,2.5,1.8,3.4,2.6c1.6,1.3,3.2,2.8,4.6,4.4c1,1.2,1.5,2.1,1.5,2.8c0,2-0.6,3.2-1.8,3.6H481
		c3.5,0,5.3,1.8,5.3,5.3c0,3.5-1.8,5.3-5.3,5.3h-38.7c0.9,2.7,1.8,5.4,2.8,7.9c2.7,6.3,5.6,12,8.5,16.9c3.8-4.4,7.6-10,11.3-16.7
		c1.1-1.4,2.2-2.1,3.3-2.1c3.7,0,5.6,1.5,5.6,4.6c0,1.2-0.3,2.4-1,3.6c-3.7,7.3-8,13.7-13,19c1.5,2,3.1,3.7,4.6,5.3
		c4.7,5,8,7.5,10,7.5c0.9,0,1.5-2,1.8-6.1l0.8-10.7c0.4-2.8,2-4.3,4.6-4.3c3.6,0,5.4,1.9,5.4,5.7c0,1.8-0.2,4.3-0.5,7.7
		c-0.7,5.9-1.8,11.1-3.3,15.6c-1.5,3-3.6,4.4-6.2,4.4c-3.8,0-8.1-1.7-12.8-5.1c-4.6-3.8-8.7-8-12.3-12.5
		c-5.8,5.1-12.9,9.8-21.3,14.1c-1.2,0.7-2.2,1-3.1,1c-3.7,0-5.6-2-5.6-6.1c0-1.6,1.1-3.2,3.4-4.6c8.5-4.2,15.4-8.4,20.5-12.8
		c-1-1.4-1.9-2.8-2.6-4.1c-5.1-9.1-9.1-18.5-12-28.4h-28.7c-0.7,10.2-1.8,18.7-3.4,25.6c-2,8.2-4.8,14.8-8.5,19.9
		c-3.7,5-9,9.2-15.8,12.6l-0.8,0.3c-4.4,0-6.6-2.4-6.6-7.2c0-2.4,1.3-4.1,3.9-5.1c5-2.6,9-6.3,11.8-11c2.3-3.6,4.2-8.6,5.6-14.9
		c1.1-4.9,2-11.6,2.6-20.2h-8.2c-3.5,0-5.3-1.7-5.3-5.3c0-3.5,1.7-5.3,5.3-5.3h45.3c-3-11.9-5.1-28.2-6.4-48.7
		c-0.5-12.8-0.8-22.8-0.8-30c0-3.5,1.7-5.3,5.3-5.3c3.5,0,5.3,1.8,5.3,5.3c0.1,7.3,0.3,14.1,0.7,20.3c0.9-1.7,2.7-2.6,5.4-2.6
		c1,0,2,0.6,3,1.8c0.4,0.2,0.8,0.5,1.1,0.8c3.5-5.4,7.1-12,10.7-20C453.3,226.8,454.6,225.8,456.7,225.8z M399.6,224.5
		c1.5,0,2.9,0.4,4.1,1.3c1.2,0.9,1.8,1.9,1.8,3.1c0,0.9-0.2,1.8-0.5,2.8c-2.8,8.6-6.1,16.3-9.8,23c2.3,1.8,4.3,3.5,6.1,5.3
		c2-4.5,4-9.2,6.1-14.1c0.7-2,2-3,4.1-3c1.5,0,2.9,0.4,4.1,1.3c1.2,0.9,1.8,1.9,1.8,3.1c0,0.9-0.2,1.8-0.5,2.8
		c-5.9,14.2-12.4,26.9-19.4,37.9c5-0.9,9.6-2.1,13.8-3.8c-0.9-2.1-1.8-3.9-2.8-5.4l-0.5-1.6c0-2.7,1.6-4.1,4.8-4.1
		c2.1,0,3.6,1,4.6,3c2.3,3.6,4.8,9.6,7.4,17.9c0.5,1.6,0.8,2.8,0.8,3.4c0,3.1-1.6,4.6-4.9,4.6c-2.8,0-4.4-1.5-4.6-4.4
		c-0.4-2.1-0.9-3.9-1.5-5.6c-0.3,0.1-0.7,0.2-1,0.2c-10.1,3.5-19.7,6.1-28.9,7.7c-3.2,0-4.8-1.9-4.8-5.7c0-3,1.5-4.4,4.6-4.4
		c0.5,0,1-0.1,1.3-0.3l0.3-0.3c3.7-5.9,7.4-12.7,11.2-20.3c-4.9-4.2-10.2-8.2-15.9-12.1c-1-1.4-1.5-2.4-1.5-3c0-3.6,2-5.4,6.1-5.4
		c0.8,0,1.4,0.3,2,0.8c2.5-5.8,5-13,7.5-21.5C396.2,225.5,397.5,224.5,399.6,224.5z M412.7,326.3c1.3,0,2.6,0.9,3.8,2.8
		c3.6,4.7,6.7,10,9.2,15.8c0.5,1.4,0.8,2.8,0.8,4.1c0,3.3-2.2,4.9-6.6,4.9c-2,0-3.4-1.4-4.4-4.1c-2.1-6.7-4.5-12-7.2-15.9
		c-0.9-1.2-1.3-2.2-1.3-3C407,327.8,408.9,326.3,412.7,326.3z M432.6,253.6c0.7,13.2,1.6,24.2,2.8,33c0.1,1,0.3,1.9,0.5,2.8
		c0.3-2.4,1.9-3.7,4.6-3.8h1.1l0.3-0.5c3.8-4.7,7.5-10,11.2-15.8c-6.2-5-12.8-10-19.7-14.9C433.1,254.1,432.8,253.8,432.6,253.6z
		 M462.3,307.2c-0.5-0.3-1-0.6-1.3-0.8c-1.6-1.5-3-2.7-4.1-3.6c-0.9-0.8-1.9-1.5-3.1-2.3c-1.1-1.1-1.6-2.2-1.6-3.3
		c0-2.1,0.6-3.3,1.8-3.8c-4.6,1-9.1,1.8-13.5,2.5c-1.9,0-3.1-0.6-3.8-1.8c0.8,4.6,1.6,9,2.6,13.1H462.3z"/>
	<path fill="#3A3634" d="M588.3,254.7c4,0,6.1,2.2,6.1,6.6c0,0.9-0.7,1.9-2.1,3c-3.4,2.3-8,4.7-13.8,7.2c-7,3.1-13.7,5.4-20,7.1
		c-1,0.3-1.9,0.5-2.6,0.5c-4,0-6.1-2.1-6.1-6.4c0-3.2,1.5-5.2,4.6-6.1c6.2-1.4,11.3-2.8,15.3-4.1c3.8-1.3,9.3-3.6,16.4-6.9
		L588.3,254.7z M590.4,232.4c3.4,0,5.1,1.8,5.1,5.3c0,3.5-1.7,5.3-5.1,5.3h-32.2c-3.5,0-5.3-1.7-5.3-5.3c0-3.5,1.7-5.3,5.3-5.3
		H590.4z M570.8,282.9h113.5c6.1,0,9.2,2.8,9.2,8.5v51.2c0,5.7-3.1,8.5-9.2,8.5h-29.2c15.4,6.2,30.7,11,45.8,14.3
		c3,1.2,4.4,3,4.4,5.4c0,4.6-2.4,6.9-7.2,6.9c-2.4,0-11.8-2.7-28.1-8c-8.9-3-17.3-6.5-25.4-10.5c-2-2.2-3-4-3-5.4
		c0-1.1,0.1-2,0.3-2.6h-27.9c0.4,1,0.7,2.2,0.7,3.6c0,2-1,3.6-3,4.9c-11.3,5.8-27.1,11.2-47.6,16.1c-2.4,0.4-4,0.7-4.8,0.7
		c-4.3,0-6.4-2.3-6.4-6.9c0-2,1.1-3.6,3.3-4.8c18.2-3.7,33.5-8.3,45.9-13.6h-31.5c-6.1,0-9.2-2.8-9.2-8.5v-51.2
		C561.6,285.8,564.6,282.9,570.8,282.9z M573.4,303h108.3v-5.6c0-2.6-1.1-3.9-3.3-3.9H576.7c-2.2,0-3.3,1.3-3.3,3.9V303z
		 M573.4,320.7h108.3v-7.9H573.4V320.7z M678.4,340.7c2.2,0,3.3-1.3,3.3-3.9v-6.2H573.4v6.2c0,2.6,1.1,3.9,3.3,3.9H678.4z
		 M645.2,239.6h-24.8c-0.1,0.3-0.2,0.7-0.3,1c-2.5,5.1-5.7,9.4-9.7,12.8c-2.2,2.2-4.2,3.3-6.1,3.3c-4.5,0-6.7-2.1-6.7-6.4
		c0-0.5,0.8-1.5,2.3-3c4.3-3.3,7.3-6.6,9.2-10c1.6-3.1,2.7-6.9,3.3-11.5c0-3.5,1.9-5.3,5.6-5.3c3.7,0,5.6,1.8,5.6,5.3
		c-0.2,1.8-0.4,3.3-0.7,4.6H691c7.3,0,11,3.6,11,10.7c0,1.3-0.2,2.9-0.7,4.8c-0.8,3.2-1.9,6.6-3.4,10.3c-1.8,2.1-3.6,3.1-5.6,3.1
		c-4.5,0-6.7-1.9-6.7-5.6c0-0.7,0.2-1.5,0.7-2.5c1.5-1.7,2.7-3.4,3.4-4.9c0.3-0.7,0.5-1.1,0.5-1.5c0-3.5-1.2-5.3-3.6-5.3h-30.2v8
		c0,2.6,0.8,5,2.5,7.1c1.5,2.1,4.4,4.2,8.7,6.4c4.2,2.1,9.7,3.8,16.6,5.1c4.5,1.2,9.7,2,15.6,2.5c2.4,1,3.6,2.7,3.6,5.1
		c-0.2,4.2-1.9,6.3-4.9,6.6c-1.1,0-2.4-0.3-3.9-1c-10.7-1.5-19.8-3.8-27.2-6.7c-5-2.2-8.9-4.5-11.6-7.1c-2.5-2.2-4.1-4.5-4.8-6.9
		c-0.8,2.4-2.2,4.7-4.4,6.9c-2.7,2.3-6.5,4.5-11.2,6.6c-5.7,2.5-14.1,4.9-25.3,7.2c-1.3,0.7-2.5,1-3.6,1c-3.8-0.2-5.9-2.5-6.1-6.7
		c0-2.3,1.4-3.9,4.1-4.9c5.7-0.7,10.6-1.5,14.6-2.5c6.5-1.3,11.6-3,15.4-5.1c4.2-2.2,6.9-4.3,8.4-6.4c1.6-2.1,2.5-4.4,2.5-7.1V239.6
		z"/>
	<path fill="#3A3634" d="M828.5,250.1c3.9,0,5.9,2,5.9,5.9s-2,5.9-5.9,5.9h-53.2c-3.9,0-5.9-2-5.9-5.9s2-5.9,5.9-5.9H828.5z
		 M786.5,319.4H818c7.4,0,11.2,3.6,11.2,10.8v31.5c0,7.2-3.7,10.8-11.2,10.8h-31.5c-7.4,0-11.2-3.6-11.2-10.8v-31.5
		C775.4,323,779.1,319.4,786.5,319.4z M823.3,273.4c3.7,0,5.6,1.9,5.6,5.6c0,3.7-1.9,5.6-5.6,5.6h-42c-3.7,0-5.6-1.9-5.6-5.6
		c0-3.7,1.9-5.6,5.6-5.6H823.3z M823.3,297c3.7,0,5.6,1.9,5.6,5.6c0,3.7-1.9,5.6-5.6,5.6h-42c-3.7,0-5.6-1.9-5.6-5.6
		c0-3.7,1.9-5.6,5.6-5.6H823.3z M821.3,228.1c3.7,0,5.6,1.9,5.6,5.6c0,3.7-1.9,5.6-5.6,5.6h-38.7c-3.7,0-5.6-1.9-5.6-5.6
		c0-3.7,1.9-5.6,5.6-5.6H821.3z M812.8,361.4c3.1,0,4.6-1.6,4.6-4.9v-21c0-3.3-1.5-4.9-4.6-4.9h-21c-3.1,0-4.6,1.6-4.6,4.9v21
		c0,3.3,1.5,4.9,4.6,4.9H812.8z M836.4,227.8h54.5c7.9,0,11.8,3.9,11.8,11.8v59.7c0,15.9,1,33,3,51.5c0.2,2.8,0.6,4.3,1.1,4.3
		c1.4,0,2.9-6.8,4.4-20.3c0.3-3.4,2.3-5.1,5.9-5.3c3.7,0.2,5.7,2.6,5.9,7.2c0,3.1-1,9-3,17.7c-1.9,8.6-4,14.4-6.4,17.4
		c-2.2,2.4-4.3,3.6-6.4,3.6c-2.5,0-4.7-1.6-6.4-4.9c-2.7-4.6-5-11.9-6.7-21.8c-2.2-13.1-3.3-29.6-3.3-49.4v-54.5
		c0-3.5-1.8-5.3-5.3-5.3h-19v48.2H881c3.7,0,5.6,1.9,5.6,5.6c0,3.7-1.9,5.6-5.6,5.6h-14.4v71.2c0,3.9-2,5.9-5.9,5.9s-5.9-2-5.9-5.9
		V299h-15.1c-3.7,0-5.6-1.9-5.6-5.6c0-3.7,1.9-5.6,5.6-5.6h15.1v-48.2h-18.4c-3.9,0-5.9-2-5.9-5.9S832.5,227.8,836.4,227.8z"/>
	<path fill="#3A3634" d="M1007.6,230.8h49.2v-4.4c0-3.8,2-5.7,5.9-5.7s5.9,1.9,5.9,5.7v4.4h43.3c7.2,0,10.8,3.4,10.8,10.2v8.9h12.8
		c3.3,0,4.9,1.6,4.9,4.9s-1.6,4.9-4.9,4.9h-12.8v9.5c0,6.8-3.6,10.2-10.8,10.2h-43.3v9.2h56.4c3.3,0,4.9,1.6,4.9,4.9
		s-1.6,4.9-4.9,4.9h-56.4v9.5h66.3c3.5,0,5.3,1.8,5.3,5.3c0,3.5-1.8,5.3-5.3,5.3H993.8c-3.5,0-5.3-1.7-5.3-5.3
		c0-3.5,1.7-5.3,5.3-5.3h63v-9.5H1001c-3.3,0-4.9-1.6-4.9-4.9s1.6-4.9,4.9-4.9h55.8v-9.2h-50.5c-3.3,0-4.9-1.6-4.9-4.9
		s1.6-4.9,4.9-4.9h50.5v-9.8h-64.3c-3.3,0-4.9-1.6-4.9-4.9s1.6-4.9,4.9-4.9h64.3v-9.2h-49.2c-3.3,0-4.9-1.6-4.9-4.9
		S1004.3,230.8,1007.6,230.8z M1012.8,325.3h103c6.6,0,9.8,3,9.8,8.9v30.2c0,5.9-3.3,8.9-9.8,8.9h-103c-6.6,0-9.8-3-9.8-8.9v-30.2
		C1003,328.2,1006.2,325.3,1012.8,325.3z M1014.8,344.6h99.1v-5.3c0-2.8-1.1-4.3-3.3-4.3h-92.5c-2.2,0-3.3,1.4-3.3,4.3V344.6z
		 M1110.6,363.3c2.2,0,3.3-1.4,3.3-4.3v-5.3h-99.1v5.3c0,2.8,1.1,4.3,3.3,4.3H1110.6z M1068.6,240.6v9.2h43v-4.3
		c0-3.3-1.4-4.9-4.3-4.9H1068.6z M1068.6,259.6v9.8h38.7c2.8,0,4.3-1.6,4.3-4.9v-4.9H1068.6z"/>
	<path fill="#3A3634" d="M1273.2,234.4c3.9,0,5.9,2,5.9,5.9s-2,5.9-5.9,5.9h-22.5v15.1h24.4c3.9,0,5.9,2,5.9,5.9s-2,5.9-5.9,5.9
		h-61.7c-3.9,0-5.9-2-5.9-5.9s2-5.9,5.9-5.9h25.6v-15.1h-22.3c-3.9,0-5.9-2-5.9-5.9s2-5.9,5.9-5.9h22.3v-6.6c0-3.9,2-5.9,5.9-5.9
		c3.8,0,5.7,2,5.7,5.9v6.6H1273.2z M1271.2,303.9c3.9,0,5.9,2,5.9,5.9s-2,5.9-5.9,5.9h-21v19.7h26.3c3.9,0,5.9,2,5.9,5.9
		s-2,5.9-5.9,5.9h-26.3v22.3c0,3.9-2,5.9-5.9,5.9s-5.9-2-5.9-5.9v-22.3h-24.9c-3.9,0-5.9-2-5.9-5.9s2-5.9,5.9-5.9h24.9v-19.7h-22.3
		c-3.9,0-5.9-2-5.9-5.9s2-5.9,5.9-5.9h28.4c1.9-2.5,3.5-5,4.9-7.5c3.2-5.5,6.1-11.2,8.7-17.2c1.3-1.9,3.1-2.8,5.3-2.8
		c1.5,0,2.9,0.6,4.1,1.8c1.2,1.2,1.8,2.6,1.8,4.1c0,1.4-0.5,2.7-1.5,3.9c-2.1,4.6-4.4,9-6.9,13.3c-0.9,1.5-1.9,3-3.1,4.4H1271.2z
		 M1225.5,276.4c1,0,2.1,0.7,3.3,2.1c3,3.4,5.7,7.2,8.4,11.5c0.9,1.5,1.3,2.8,1.3,3.8c0,3.7-2.1,5.6-6.2,5.6c-1,0-2.1-0.4-3.3-1.3
		c-2.6-4.3-5.4-8.4-8.4-12.3c-1.2-1.5-1.8-2.6-1.8-3.1C1218.7,278.5,1221,276.4,1225.5,276.4z M1312.9,228.8h29.2
		c8.7,0,13.1,4.2,13.1,12.5c0,3.4-0.3,7.7-0.8,12.8c-1.2,7.8-3,12.6-5.3,14.6c-2.3,2.1-5.3,3.1-9,3.1c-8,0-15.2-1.1-21.7-3.4
		c-2.6-1.5-3.9-3.4-3.9-5.6c0-4.3,1.9-6.4,5.6-6.4c9.7,2.3,15.9,3.4,18.5,3.4c1.1,0,1.8-0.3,2.1-0.8c0.5-0.4,1-1.7,1.5-3.8
		c0.8-3.3,1.1-6.8,1.1-10.7c0-3.1-1.4-4.6-4.1-4.6h-36.6c-4.2,0-6.2,2.1-6.2,6.2V279h47.3c6.6,0,9.8,3.8,9.8,11.5
		c0,9.6-1.1,18.6-3.3,26.9c-2.4,10.6-6.2,20.2-11.5,28.9c-0.5,0.8-1.1,1.5-1.6,2.3c4,5.3,9.4,10.4,15.9,15.6c2.3,1.4,3.4,3,3.4,4.6
		c0,4.5-2.2,6.7-6.6,6.7c-0.7,0-2-0.6-4.1-1.8c-6.5-4.7-11.9-9.9-16.4-15.6c-5.5,6.1-11.9,11.6-19.2,16.6c-1.4,1-2.7,1.5-3.8,1.5
		c-4.3,0-6.4-2.1-6.4-6.4c0-1,0.7-2,2-3.1c8.5-6,15.4-12,20.5-17.9c-3.3-4.8-6.3-10.3-9-16.4c-3.8-9.2-7.3-22.6-10.3-40.4v-1.1h-6.7
		v78.8c0,3.9-1.9,5.9-5.6,5.9c-3.7,0-5.6-2-5.6-5.9V242.3c0-9,4.5-13.5,13.5-13.5H1312.9z M1314.7,290.8c2.5,13.9,5.5,25.2,8.9,34
		c1.9,4.9,4,9.4,6.6,13.3c3.8-6.6,6.6-14,8.4-22.3c1.7-7.7,2.6-14.5,2.6-20.5c0-3-1.1-4.4-3.3-4.4H1314.7z"/>
	<path fill="#3A3634" d="M1569,232.1c3.7,0,5.6,1.9,5.6,5.6c0,3.7-1.9,5.6-5.6,5.6h-61v8.5h43.3c6.3,0,9.5,3,9.5,8.9v31.5
		c0,5.9-3.1,8.9-9.2,8.9c0.4,0.4,0.8,0.8,1.1,1.1c4.8,4.9,9.4,10.5,13.6,16.7c0.9,1.5,1.3,2.8,1.3,3.8c0,3.7-2.1,5.6-6.2,5.6
		c-1,0-2.1-0.4-3.3-1.3c-2.2-3.3-4.5-6.3-6.9-9.2c-0.2,0.1-0.4,0.2-0.5,0.2c-1.8,0.1-3.6,0.2-5.4,0.3v13h27.6c3.7,0,5.6,1.9,5.6,5.6
		c0,3.7-1.9,5.6-5.6,5.6h-27.6v19.2c0,9.7-5.3,14.6-15.8,14.6c-6.6,0-15.3-1.5-26.3-4.6c-3.2-1-4.8-3-4.8-6.1c0.2-4,2-6.1,5.4-6.2
		c1,0,2.3,0.2,3.9,0.7c10.1,2.7,16.6,4.1,19.7,4.1c3.9,0,5.9-2.3,5.9-6.9v-14.8h-105c-3.7,0-5.6-1.9-5.6-5.6c0-3.7,1.9-5.6,5.6-5.6
		h105v-12.5c-32.9,1.6-64.6,2.8-95,3.6c-3.6,0-5.4-2.2-5.4-6.6c0-3.4,1.7-5.2,5.3-5.4c20.5,0,39.7-0.2,57.8-0.7V301h-45.3
		c-6.3,0-9.5-3-9.5-8.9v-31.5c0-5.9,3.2-8.9,9.5-8.9h45.3v-8.5h-63.7c-3.7,0-5.6-1.9-5.6-5.6c0-3.7,1.9-5.6,5.6-5.6h63.7v-6.2
		c0-3.9,2-5.9,5.9-5.9s5.9,2,5.9,5.9v6.2H1569z M1452.6,271.1h43.6v-9.5h-40c-2.4,0-3.6,1.4-3.6,4.3V271.1z M1496.2,291.1v-10.8
		h-43.6v6.6c0,2.8,1.2,4.3,3.6,4.3H1496.2z M1470.1,345.9c1,0,2.1,0.7,3.3,2.1c4.4,3.9,8.5,8.4,12.3,13.5c0.9,1.5,1.3,2.8,1.3,3.8
		c0,3.7-2.1,5.6-6.2,5.6c-1,0-2.1-0.4-3.3-1.3c-3.8-4.9-7.9-9.7-12.3-14.3c-1.2-1.5-1.8-2.6-1.8-3.3
		C1463.4,348,1465.6,345.9,1470.1,345.9z M1508,261.6v9.5h41.7v-5.3c0-2.8-1.2-4.3-3.6-4.3H1508z M1546.1,291.1
		c2.4,0,3.6-1.4,3.6-4.3v-6.6H1508v10.8H1546.1z M1543.6,308c-0.5-0.9-0.8-1.5-0.8-2c0-2.5,0.8-4.2,2.3-5.1H1508v8.4
		C1520.6,309,1532.5,308.6,1543.6,308z"/>
	<path fill="#3A3634" d="M1713.9,294.1c3.5,0,5.3,1.8,5.3,5.3c0,3.5-1.8,5.3-5.3,5.3H1688v19h22c3.5,0,5.3,1.8,5.3,5.3
		c0,3.5-1.8,5.3-5.3,5.3h-22v21.2c5.3,1.6,11,3,17.2,4.1c10.7,2.2,39,3.3,85,3.3c3.8,0.4,5.7,2.5,5.7,6.2c-0.2,3.9-2.4,6-6.6,6.2
		c-47.1-0.2-77.6-1.9-91.4-5.1c-10.8-2.3-20-5.6-27.6-9.8c-3.9-2.1-7.6-4.9-11-8.4c-1.8,7.5-4.3,14.3-7.5,20.3
		c-1.3,1.7-2.8,2.6-4.6,2.6c-4.2,0-6.2-2.1-6.2-6.2c0-0.4,0.4-1.5,1.3-3.1c4-7.2,6.8-15.4,8.4-24.6c1-7.3,1.5-15.1,1.5-23.5
		c0-3.3,1.7-4.9,5.3-4.9c3.5,0,5.3,1.8,5.3,5.3c0,7.5-0.3,14.7-1,21.5c4.7,5.1,9.7,9,15.1,11.5v-46.1H1647c-3.5,0-5.3-1.7-5.3-5.3
		c0-3.5,1.7-5.3,5.3-5.3H1713.9z M1660.8,228.8h40.7c6.6,0,9.8,3.2,9.8,9.5v36.8c0,6.3-3.3,9.5-9.8,9.5h-40.7
		c-6.6,0-9.8-3.2-9.8-9.5v-36.8C1650.9,232,1654.2,228.8,1660.8,228.8z M1661.4,251.8h39.4v-8.2c0-3.3-1.5-4.9-4.6-4.9H1666
		c-3.1,0-4.6,1.6-4.6,4.9V251.8z M1696.2,274.7c3.1,0,4.6-1.6,4.6-4.9v-8.2h-39.4v8.2c0,3.3,1.5,4.9,4.6,4.9H1696.2z M1787.4,229.1
		c3.6,0,5.4,1.8,5.4,5.3c0,3.5-1.8,5.3-5.4,5.3h-26.3l-3.9,11.8h19c6.3,0,9.5,3.1,9.5,9.2v61.7c0,6.2-3.2,9.4-9.5,9.4h-3.8
		c6.1,6,12.1,10.7,17.9,13.9c2.8,1,4.3,2.6,4.3,4.9c0,4.4-2.2,6.6-6.7,6.6c-1,0-4.8-2.5-11.5-7.4c-3.6-2.7-7.1-5.9-10.3-9.5
		c-2-2.1-3-3.8-3-5.1c0-1.5,0.3-2.7,0.8-3.4h-17.4c0.5,1,0.8,2.1,0.8,3.4c0,1.8-0.9,3.2-2.6,4.4c-5,6-12,11.5-21,16.4
		c-1.1,0.4-1.8,0.7-2.1,0.7c-3.8,0-5.7-2-5.7-6.1c0-1.9,1-3.3,3-4.3c7.7-4,14-8.9,19-14.6h-5.6c-6.3,0-9.5-3.1-9.5-9.4v-61.7
		c0-6.1,3.2-9.2,9.5-9.2h13.8l3.8-11.8h-27.4c-3.5,0-5.3-1.7-5.3-5.3c0-3.5,1.7-5.3,5.3-5.3H1787.4z M1734,274.7h40.7v-8.9
		c0-2.6-1.2-3.9-3.6-3.9h-33.5c-2.4,0-3.6,1.3-3.6,3.9V274.7z M1734,297.7h40.7v-13.1H1734V297.7z M1771,321c2.4,0,3.6-1.3,3.6-3.9
		v-9.5H1734v9.5c0,2.6,1.2,3.9,3.6,3.9H1771z"/>
</g>
</svg>
