<?xml version="1.0" encoding="utf-8"?>
<!-- Generator: Adobe Illustrator 18.0.0, SVG Export Plug-In . SVG Version: 6.00 Build 0)  -->
<!DOCTYPE svg PUBLIC "-//W3C//DTD SVG 1.1//EN" "http://www.w3.org/Graphics/SVG/1.1/DTD/svg11.dtd">
<svg version="1.1" id="Layer_1" xmlns="http://www.w3.org/2000/svg" xmlns:xlink="http://www.w3.org/1999/xlink" x="0px" y="0px"
	 viewBox="-308.1 26.4 2536.2 547.2" enable-background="new -308.1 26.4 2536.2 547.2" xml:space="preserve">
<rect x="-717.3" y="-213.5" display="none" fill="#333333" width="3755.2" height="1001.8"/>
<g>
	<path fill="#FFFFFF" d="M1937.8,495H-17.8c-107.2,0-195-87.7-195-195v0c0-107.2,87.7-195,195-195h1955.6c107.2,0,195,87.7,195,195
		v0C2132.8,407.2,2045,495,1937.8,495z"/>
</g>
<g id="title_x5F_3">
	<path fill="#3A3634" d="M237.6,228.1h30.8c6.1,0,9.2,3,9.2,8.9v41.3c0,5.9-3.1,8.9-9.2,8.9h-4.9v24.3h11.8c3.7,0,5.6,1.9,5.6,5.6
		c0,3.7-1.9,5.6-5.6,5.6h-11.8v28.9c4.8-1.7,10.1-3.9,15.9-6.6l2.3-1c4.3,0,6.4,2.3,6.4,6.9c0,1.3-1.1,2.7-3.3,4.1
		c-5.4,3.2-12.6,6.5-21.7,10c-11.2,4.2-21.6,7.4-31.3,9.8c-1.6,0.4-3.1,0.7-4.3,0.7c-4.3,0-6.4-2.2-6.4-6.7c0-3.3,1.6-5.4,4.9-6.4
		c1.5-0.3,2.8-0.6,3.9-0.8v-52c0-3.7,1.9-5.6,5.6-5.6c3.7,0,5.6,1.9,5.6,5.6v49.2c3.9-1,7.4-2,10.5-3c0.3-0.1,0.5-0.2,0.7-0.2v-68.4
		h-14.8c-6.1,0-9.2-3-9.2-8.9V237C228.4,231.1,231.5,228.1,237.6,228.1z M262.5,276c2.2,0,3.3-1.2,3.3-3.6v-29.5
		c0-2.4-1.1-3.6-3.3-3.6h-19c-2.2,0-3.3,1.2-3.3,3.6v29.5c0,2.4,1.1,3.6,3.3,3.6H262.5z M367.5,238.6c3.7,0,5.6,1.9,5.6,5.6
		c0,3.7-1.9,5.6-5.6,5.6h-21.2c2.7,4.3,5.5,7.9,8.4,10.8c5,5.1,11,9.9,17.9,14.3c2.3,1.2,3.4,2.7,3.4,4.4c0,4.6-2.1,6.9-6.2,6.9
		c-2.1,0-4.2-0.7-6.4-2c-9.1-6.5-16.1-13.1-21.2-20c-3.5-4.8-6.3-9.6-8.5-14.4h-10.7c-1.1,2.1-2.1,3.9-3.1,5.6
		c-4,6.9-8.7,13.2-13.9,19c-4.6,4.9-9.8,9.2-15.8,13c-1.3,1-2.7,1.5-4.1,1.5c-1.5,0-2.9-0.7-4.1-2c-1.2-1.4-1.8-3-1.8-4.8
		c0-1.6,0.7-3,2.1-4.1c5.6-3.7,10.4-7.7,14.6-12c4.6-5.1,8.7-10.6,12.3-16.2h-17.2c-3.7,0-5.6-1.9-5.6-5.6c0-3.7,1.9-5.6,5.6-5.6h23
		c1.4-3.3,2.7-6.8,3.9-10.7c0.9-2.7,2.8-4.1,5.9-4.1c1.4,0,2.7,0.4,3.9,1.3c1.1,0.8,1.6,2,1.6,3.8c0,1-0.2,2.2-0.7,3.6
		c-0.7,2.2-1.3,4.2-2,6.1H367.5z M368.9,300c3.9,0,5.9,2,5.9,5.9s-2,5.9-5.9,5.9h-50.5l-4.4,13.5c0,1.3,0.7,2,2.1,2h42.8
		c7.1,0,10.7,4,10.7,12c0,7.2-0.8,13.9-2.3,20c-1.3,5.9-4,10.1-8.2,12.6c-4,2.4-11.5,3.6-22.3,3.6c-6.8,0-15.8-0.9-26.9-2.6
		c-4.2-0.8-6.2-2.8-6.2-6.2c0-4.2,2-6.2,5.9-6.2c0.3,0,0.7,0.1,1.1,0.3c10.1,2.3,18.5,3.4,25.3,3.4c10.9,0,17-1.6,18-4.9
		c2-3.6,3-9.3,3-17.1c0-2.5-1.3-3.8-3.9-3.8h-43.5c-6.5,0-9.7-2.7-9.7-8c0-0.9,0.4-2.6,1.1-5.1l4.8-13.5h-14.9c-3.9,0-5.9-2-5.9-5.9
		s2-5.9,5.9-5.9H368.9z M350.5,277.4c3.7,0,5.6,1.9,5.6,5.6c0,3.7-1.9,5.6-5.6,5.6h-41.3c-3.7,0-5.6-1.9-5.6-5.6
		c0-3.7,1.9-5.6,5.6-5.6H350.5z"/>
	<path fill="#3A3634" d="M482.3,222.6c2.3,0,4.8,1.4,7.5,4.3l23.5,22.8c1.6,1.8,2.5,3.4,2.5,5.1c-0.2,3.7-2.2,5.7-5.9,5.9
		c-1,0-2.2-0.4-3.8-1.3L486,237c-1-1.2-1.9-1.8-2.8-1.8c-0.8,0-1.5,0.7-2.3,2c-8.3,11.5-17.7,22.1-28.2,32c-1.9,1.8-3.6,2.6-5.1,2.6
		c-3.8-0.2-5.9-2.4-6.1-6.4c0-1.7,1-3.4,3-4.9c12.9-11,22.8-21.5,29.7-31.3C476.9,224.8,479.6,222.6,482.3,222.6z M454.7,298.4h44.1
		c7.3,0,11,3.9,11,11.6c0,3.5-1.1,7.8-3.4,13c-4,8.6-10,18.1-17.7,28.4c-0.7,0.9-1.4,1.5-2.1,2c3.5,3.1,6.8,6.3,10,9.8
		c1.4,1.7,2.1,3,2.1,3.8c0,3.9-1.9,5.9-5.7,5.9c-2.1,0-3.9-0.7-5.6-2.1c-6.9-7.1-12.7-12.6-17.6-16.6c-4.2-3.5-8.8-7.1-13.8-10.7
		c-1.3-1.3-2-2.6-2-3.9c0-3.6,1.7-5.4,5.3-5.4c1.1,0,2.4,0.4,3.9,1.1c5.4,3.7,10.1,7.2,14.3,10.5c7.8-9.1,13.7-17.6,17.7-25.4
		c1.9-3.2,2.8-5.7,2.8-7.5c0-2.2-1.2-3.3-3.6-3.3h-39.7c-3.9,0-5.9-1.9-5.9-5.6C448.8,300.2,450.8,298.4,454.7,298.4z M499.3,268.8
		c3.7,0,5.6,1.9,5.6,5.6c0,3.7-1.9,5.6-5.6,5.6h-39.4c-3.7,0-5.6-1.9-5.6-5.6c0-3.7,1.9-5.6,5.6-5.6H499.3z M587.9,228.5
		c3.5,0,5.3,1.8,5.3,5.3c0,3.5-1.8,5.3-5.3,5.3h-27.2l-3.4,13.8h20.8c6.8,0,10.2,3.3,10.2,9.8v72.8c0,6.6-3.4,9.8-10.2,9.8h-3.4
		c0.1,0.2,0.2,0.4,0.2,0.5c3,7.7,8.4,14.3,16.4,19.9c1.7,1.3,2.6,2.7,2.6,4.3c0,2.1-0.4,3.4-1.1,3.9c-0.9,1.5-2.4,2.3-4.4,2.3
		c-2,0-3.9-0.9-5.7-2.8c-4.9-3.3-9.9-9-14.9-17.2c-2.6-5-3.9-8.3-3.9-9.7c0-0.3,0.1-0.7,0.2-1.1h-17.2c0.4,0.9,0.7,1.9,0.7,3.1
		c0,2.1-0.9,4.3-2.8,6.7c-6.9,7.7-13.6,13.7-20.2,18c-1.3,1.1-2.6,1.6-3.9,1.6c-3.9,0-5.9-1.8-5.9-5.4c0-1.3,0.5-2.6,1.5-3.9
		c8.3-6,15.4-12.6,21.2-19.7c0.1-0.1,0.2-0.3,0.2-0.5h-5.7c-6.8,0-10.2-3.3-10.2-9.8v-72.8c0-6.6,3.4-9.8,10.2-9.8h14.6l3.3-13.8
		h-26.4c-3.5,0-5.3-1.7-5.3-5.3c0-3.5,1.7-5.3,5.3-5.3H587.9z M532.5,279.7h44.6v-11.8c0-3.1-1.4-4.6-4.3-4.6h-36.1
		c-2.8,0-4.3,1.5-4.3,4.6V279.7z M532.5,306.6h44.6v-16.4h-44.6V306.6z M572.8,334.8c2.8,0,4.3-1.5,4.3-4.6v-13.1h-44.6v13.1
		c0,3.1,1.4,4.6,4.3,4.6H572.8z"/>
	<path fill="#3A3634" d="M703.9,260.6c3.9,0,5.9,2,5.9,5.9s-2,5.9-5.9,5.9h-10.5v59.7c2.8-2.2,6.1-4.7,9.7-7.5l2.3-1
		c4.3,0,6.4,2.3,6.4,6.9c0,1.5-0.8,3.1-2.3,4.8c-3.8,3.6-8.9,7.4-15.3,11.5c-7.9,4.9-15.3,8.7-22.3,11.5c-1.1,0.5-2.1,0.8-3,0.8
		c-4.3,0-6.4-2.2-6.4-6.7c0-3.3,1.6-5.4,4.9-6.4c5.6-2.2,10.3-4.3,14.1-6.2v-67.3h-12.5c-3.9,0-5.9-2-5.9-5.9s2-5.9,5.9-5.9h12.5
		v-30.2c0-3.9,2-5.9,5.9-5.9s5.9,2,5.9,5.9v30.2H703.9z M807.6,243.6c3.9,0,5.9,2,5.9,5.9s-2,5.9-5.9,5.9h-29.9
		c1.2,27.6,2.7,46.4,4.4,56.6c0.1,1,0.3,2,0.5,3c1.5-3.1,3-6.2,4.3-9.5c3.7-9.3,7-21.3,9.8-35.9c1.1-2.4,3-3.6,5.6-3.6
		c1.6,0,3.1,0.5,4.3,1.5c1.2,1.1,1.8,2.3,1.8,3.6s-0.3,2.7-0.8,4.3c-3.1,15.3-6.6,27.8-10.5,37.6c-3.2,8-6.6,15-10.3,21
		c1.5,6.2,3.4,12.4,5.6,18.5c1.6,3.4,3.1,5.1,4.4,5.1c1.1,0,1.9-1,2.5-3c1.1-3.2,2.2-12,3.3-26.6c0.4-4.2,2.4-6.2,5.7-6.2
		c3.8,0,5.7,2,5.7,5.9c-1,16.5-2.9,28.7-5.7,36.4c-2.5,7.7-6.2,11.5-11.2,11.5c-4.2,0-7.8-2.5-10.8-7.5c-3.4-5.5-6.3-12.4-8.9-20.8
		c-2.7,3.1-5.5,6.1-8.4,9c-6.2,6.1-14.2,11.9-24,17.2c-2.3,1-3.8,1.5-4.6,1.5c-1.6,0-3.2-0.5-4.6-1.6c-1.2-1.3-1.8-2.7-1.8-4.3
		c0-2.8,1.2-4.7,3.6-5.6c9.2-5.1,16.7-10.6,22.6-16.4c4.9-4.9,9.3-10,13.1-15.3c-2.7-13.6-4.7-28.6-5.9-45.1
		c-1-10.7-1.7-21.1-2.1-31.2h-51.7c-3.9,0-5.9-2-5.9-5.9s2-5.9,5.9-5.9h51.4c-0.1-5.1-0.2-10.2-0.2-15.1c0-3.9,2-5.9,5.9-5.9
		c3.8,0,5.8,2,5.9,5.9c0.2,5.3,0.4,10.3,0.5,15.1H807.6z M757.7,328.5c3.7,0.2,5.7,2.1,5.9,5.6c0,2.7-1.3,4.9-3.9,6.4
		c-5.1,3.4-12,6.5-20.5,9.4c-6.6,2.3-14.5,4.4-23.8,6.4c-4.4-0.2-6.7-2.6-6.9-7.1c0-4,1.9-6.4,5.6-7.1c8.3-1.4,14.8-3,19.4-4.6
		c8.3-2.4,15.3-5.2,21-8.4C755.7,328.8,756.8,328.5,757.7,328.5z M724.3,265.2h23.5c6.5,0,9.7,3.1,9.7,9.2v40.7
		c0,6.1-3.2,9.2-9.7,9.2h-23.5c-6.3,0-9.5-3.1-9.5-9.2v-40.7C714.8,268.3,717.9,265.2,724.3,265.2z M741.3,313.8
		c3.3,0,4.9-1.7,4.9-5.3V281c0-3.5-1.6-5.3-4.9-5.3h-10.5c-3.3,0-4.9,1.8-4.9,5.3v27.6c0,3.5,1.6,5.3,4.9,5.3H741.3z M786.1,224
		c1.3,0,2.8,0.5,4.4,1.5c4.6,2,8.7,3.9,12.3,5.9c1.9,1.3,2.8,3,2.8,4.9c0,3.6-1.8,5.4-5.3,5.4c-1.6,0-3-0.5-4.1-1.5
		c-3.7-1.9-7.9-3.7-12.6-5.6c-2.4-1.6-3.6-3.3-3.6-4.9C780.1,226,782.1,224,786.1,224z"/>
	<path fill="#3A3634" d="M1024,232.1c3.7,0,5.6,1.9,5.6,5.6c0,3.7-1.9,5.6-5.6,5.6h-61v8.5h43.3c6.3,0,9.5,3,9.5,8.9v31.5
		c0,5.9-3.1,8.9-9.2,8.9c0.4,0.4,0.8,0.8,1.1,1.1c4.8,4.9,9.4,10.5,13.6,16.7c0.9,1.5,1.3,2.8,1.3,3.8c0,3.7-2.1,5.6-6.2,5.6
		c-1,0-2.1-0.4-3.3-1.3c-2.2-3.3-4.5-6.3-6.9-9.2c-0.2,0.1-0.4,0.2-0.5,0.2c-1.8,0.1-3.6,0.2-5.4,0.3v13h27.6c3.7,0,5.6,1.9,5.6,5.6
		c0,3.7-1.9,5.6-5.6,5.6h-27.6v19.2c0,9.7-5.3,14.6-15.8,14.6c-6.6,0-15.3-1.5-26.2-4.6c-3.2-1-4.8-3-4.8-6.1c0.2-4,2-6.1,5.4-6.2
		c1,0,2.3,0.2,3.9,0.7c10.1,2.7,16.6,4.1,19.7,4.1c3.9,0,5.9-2.3,5.9-6.9v-14.8h-105c-3.7,0-5.6-1.9-5.6-5.6c0-3.7,1.9-5.6,5.6-5.6
		h105v-12.5c-32.9,1.6-64.6,2.8-95,3.6c-3.6,0-5.4-2.2-5.4-6.6c0-3.4,1.7-5.2,5.3-5.4c20.5,0,39.7-0.2,57.8-0.7V301h-45.3
		c-6.3,0-9.5-3-9.5-8.9v-31.5c0-5.9,3.2-8.9,9.5-8.9h45.3v-8.5h-63.7c-3.7,0-5.6-1.9-5.6-5.6c0-3.7,1.9-5.6,5.6-5.6h63.7v-6.2
		c0-3.9,2-5.9,5.9-5.9s5.9,2,5.9,5.9v6.2H1024z M907.6,271.1h43.6v-9.5h-40c-2.4,0-3.6,1.4-3.6,4.3V271.1z M951.2,291.1v-10.8h-43.6
		v6.6c0,2.8,1.2,4.3,3.6,4.3H951.2z M925.1,345.9c1,0,2.1,0.7,3.3,2.1c4.4,3.9,8.5,8.4,12.3,13.5c0.9,1.5,1.3,2.8,1.3,3.8
		c0,3.7-2.1,5.6-6.2,5.6c-1,0-2.1-0.4-3.3-1.3c-3.8-4.9-7.9-9.7-12.3-14.3c-1.2-1.5-1.8-2.6-1.8-3.3
		C918.4,348,920.6,345.9,925.1,345.9z M963,261.6v9.5h41.7v-5.3c0-2.8-1.2-4.3-3.6-4.3H963z M1001.1,291.1c2.4,0,3.6-1.4,3.6-4.3
		v-6.6H963v10.8H1001.1z M998.6,308c-0.5-0.9-0.8-1.5-0.8-2c0-2.5,0.8-4.2,2.3-5.1H963v8.4C975.6,309,987.5,308.6,998.6,308z"/>
	<path fill="#3A3634" d="M1157.1,223.2c3.9,0,5.9,2,5.9,5.9v21.7h20.3v-21.7c0-3.9,2-5.9,5.9-5.9s5.9,2,5.9,5.9v21.7h14.4
		c0.1-1.2,0.5-2,1.1-2.5c3.9-4.8,7.9-11,12-18.5c0.8-2.3,2.3-3.4,4.6-3.4c1.7,0,3.3,0.5,4.8,1.5c1.3,1.1,2,2.3,2,3.6
		c0,1-0.2,2-0.7,3.1c-3.3,6.1-6.9,11.5-10.8,16.2h21.8c3.5,0,5.3,1.8,5.3,5.3c0,3.5-1.8,5.3-5.3,5.3h-34.3l-8.2,17.7h35.9
		c3.5,0,5.3,1.8,5.3,5.3c0,3.6-1.8,5.4-5.3,5.4h-59.1v11h54.5c3.5,0,5.3,1.8,5.3,5.3c0,3.5-1.8,5.3-5.3,5.3h-54.5V322h65
		c3.7,0,5.6,1.9,5.6,5.6c0,3.7-1.9,5.6-5.6,5.6H1186c9.1,5.4,17.3,9.8,24.8,13.3c11.7,5,23.8,9,36.3,11.8c3.5,0.7,5.3,2.7,5.3,6.1
		c0,4.3-2.2,6.4-6.6,6.4c-2.6,0-6.2-0.5-10.8-1.6c-7.2-1.9-14.7-4.4-22.3-7.7c-9.1-3.8-20.3-10.2-33.8-19.2v30c0,3.9-2,5.9-5.9,5.9
		s-5.9-2-5.9-5.9v-29.4c-7.4,5.7-14.1,10.1-20,13.3c-7.3,4.2-16.2,7.8-26.6,11c-6.9,2.5-12,3.8-15.3,3.8c-5.1,0-7.7-2.4-7.7-7.2
		c0-3.4,2-5.5,6.1-6.4c12.5-2.7,25.4-7.2,38.9-13.3c5.7-2.5,11.8-6.1,18.2-10.8h-54.6c-3.7,0-5.6-1.9-5.6-5.6c0-3.7,1.9-5.6,5.6-5.6
		h61v-10.8h-49.9c-3.5,0-5.3-1.7-5.3-5.3c0-3.5,1.7-5.3,5.3-5.3h49.9v-11h-55.8c-3.5,0-5.3-1.8-5.3-5.4c0-3.5,1.7-5.3,5.3-5.3h32
		l-8.7-17.7H1104c-3.5,0-5.3-1.7-5.3-5.3c0-3.5,1.7-5.3,5.3-5.3h23.5c-3.7-4.9-7.7-9.7-11.8-14.3c-1.2-1.5-1.8-2.6-1.8-3.3
		c0-4,2.2-6.1,6.7-6.1c1,0,2.1,0.7,3.3,2.1c4.4,4.5,8.5,9.6,12.3,15.3c0.9,1.4,1.3,2.6,1.3,3.6c0,1.1-0.2,2-0.5,2.6h14.3v-21.7
		C1151.2,225.2,1153.2,223.2,1157.1,223.2z M1155.5,279h33.8l8.2-17.7H1147L1155.5,279z"/>
	<path fill="#3A3634" d="M1369,251.1c3.7,0,5.6,1.9,5.6,5.6c0,3.7-1.9,5.6-5.6,5.6h-46.6c-3.7,0-5.6-1.9-5.6-5.6
		c0-3.7,1.9-5.6,5.6-5.6H1369z M1332.2,320.3h27.6c6.8,0,10.2,3.3,10.2,9.8V363c0,6.6-3.4,9.8-10.2,9.8h-27.6
		c-6.8,0-10.2-3.3-10.2-9.8v-32.8C1322.1,323.6,1325.4,320.3,1332.2,320.3z M1364.4,273.8c3.5,0,5.3,1.8,5.3,5.3
		c0,3.5-1.8,5.3-5.3,5.3h-36.8c-3.5,0-5.3-1.7-5.3-5.3c0-3.5,1.7-5.3,5.3-5.3H1364.4z M1364.4,298c3.5,0,5.3,1.8,5.3,5.3
		c0,3.5-1.8,5.3-5.3,5.3h-36.8c-3.5,0-5.3-1.7-5.3-5.3c0-3.5,1.7-5.3,5.3-5.3H1364.4z M1363.1,228.5c3.5,0,5.3,1.8,5.3,5.3
		c0,3.5-1.8,5.3-5.3,5.3h-34.8c-3.5,0-5.3-1.7-5.3-5.3c0-3.5,1.7-5.3,5.3-5.3H1363.1z M1355.2,362.3c2.4,0,3.6-1.3,3.6-3.9v-23.6
		c0-2.6-1.2-3.9-3.6-3.9h-18.4c-2.4,0-3.6,1.3-3.6,3.9v23.6c0,2.6,1.2,3.9,3.6,3.9H1355.2z M1391.9,228.1h60.4
		c7.4,0,11.2,3.6,11.2,10.8v40c0,7.2-3.7,10.8-11.2,10.8h-24.6V302h37.7c3.9,0,5.9,2,5.9,5.9s-2,5.9-5.9,5.9h-35.6
		c6.8,10.3,13.3,18.9,19.5,25.8c4.8,5.6,11.3,11.3,19.5,17.1c2.1,1.4,3.1,3.3,3.1,5.6c-0.2,4.3-2.5,6.5-6.7,6.7
		c-1.3,0-2.8-0.5-4.4-1.6c-5.5-4.3-10.8-9.2-15.9-14.9c-5.5-6.1-11.2-13.7-17.2-22.8v40.4c0,3.7-1.9,5.6-5.6,5.6
		c-3.7,0-5.6-1.9-5.6-5.6v-39.5c-8.4,14-18.5,26.5-30.4,37.4c-1.6,1.2-3.4,1.8-5.3,1.8c-4.3-0.2-6.5-2.7-6.7-7.4
		c0-1.3,0.9-2.8,2.8-4.4c8-6.5,14.3-12.3,18.9-17.6c5.5-6.2,11.5-15,18.2-26.4h-35.9c-3.9,0-5.9-2-5.9-5.9s2-5.9,5.9-5.9h38.4v-12.1
		h-24.6c-7.4,0-11.2-3.6-11.2-10.8v-40C1380.8,231.8,1384.5,228.1,1391.9,228.1z M1392.6,253.4h24v-14.1h-20.7
		c-2.2,0-3.3,1.2-3.3,3.6V253.4z M1416.6,278.7v-14.8h-24v11.2c0,2.4,1.1,3.6,3.3,3.6H1416.6z M1427.7,239.3v14.1h24v-10.5
		c0-2.4-1.1-3.6-3.3-3.6H1427.7z M1448.4,278.7c2.2,0,3.3-1.2,3.3-3.6v-11.2h-24v14.8H1448.4z"/>
	<path fill="#3A3634" d="M1582.8,224.2c3.9,0,5.9,2.3,5.9,6.9c0,3.2-2.5,5.1-7.5,5.7c-3.1,1.1-6.9,2-11.5,2.8v26.9h13.1
		c3.9,0,5.9,2,5.9,5.9s-2,5.9-5.9,5.9h-13.1v2.6l17.6,29.4c1,1.9,1.5,3.5,1.5,4.9c0,3.8-2,5.7-6.1,5.7c-1.8,0-3.1-1.1-3.9-3.3l-9-19
		v72.2c0,3.9-2,5.9-5.9,5.9s-5.9-2-5.9-5.9v-66.9c-2.5,8.1-4.9,14.5-7.1,19.2c-2.8,7-5.3,12-7.4,15.1c-1.3,2.5-3.1,3.8-5.3,3.8
		c-3.9,0-5.9-1.9-5.9-5.7c0-1.4,0.5-3,1.6-4.6c7.3-13.3,12.5-24.4,15.6-33.1c2.3-5.8,4.3-12.5,5.9-20.2h-13.3c-3.9,0-5.9-2-5.9-5.9
		s2-5.9,5.9-5.9h15.8v-24.8c-5.9,0.9-10.1,1.3-12.6,1.3c-4.7,0-7.1-2.2-7.1-6.7c0-3.7,2-5.6,5.9-5.6c6.8-0.2,13-0.7,18.7-1.5
		C1570,228.3,1576.7,226.6,1582.8,224.2z M1670.4,281.5c4.2,0,6.2,2.5,6.2,7.4c0,3.3-2.6,5.3-7.9,6.1c-7.4,2-17.2,3.7-29.2,5.1v24
		h35.1c3.7,0,5.6,1.9,5.6,5.6c0,3.7-1.9,5.6-5.6,5.6h-35.1v24.6h41.7c3.9,0,5.9,2,5.9,5.9s-2,5.9-5.9,5.9h-90.6
		c-3.9,0-5.9-2-5.9-5.9s2-5.9,5.9-5.9h36.4v-24.6h-30.5c-3.7,0-5.6-1.9-5.6-5.6c0-3.7,1.9-5.6,5.6-5.6h30.5v-22.5
		c-13.3,1.5-22.8,2.3-28.2,2.3c-5,0-7.5-2.4-7.5-7.1c0-3.9,2.1-5.9,6.2-5.9c12.7-0.2,24.4-0.9,35.3-2.1
		C1646.3,287.3,1658.8,284.9,1670.4,281.5z M1604.4,228.8h63c6.1,0,9.2,3,9.2,8.9v26.3c0,5.9-3.1,8.9-9.2,8.9h-63
		c-6.1,0-9.2-3-9.2-8.9v-26.3C1595.3,231.8,1598.3,228.8,1604.4,228.8z M1660.9,261.6c2.6,0,3.9-1.4,3.9-4.3v-13.1
		c0-2.8-1.3-4.3-3.9-4.3H1611c-2.6,0-3.9,1.4-3.9,4.3v13.1c0,2.8,1.3,4.3,3.9,4.3H1660.9z"/>
</g>
</svg>
