<?xml version="1.0" encoding="utf-8"?>
<!-- Generator: Adobe Illustrator 18.0.0, SVG Export Plug-In . SVG Version: 6.00 Build 0)  -->
<!DOCTYPE svg PUBLIC "-//W3C//DTD SVG 1.1//EN" "http://www.w3.org/Graphics/SVG/1.1/DTD/svg11.dtd">
<svg version="1.1" id="Layer_1" xmlns="http://www.w3.org/2000/svg" xmlns:xlink="http://www.w3.org/1999/xlink" x="0px" y="0px"
	 viewBox="-308.1 26.4 2536.2 547.2" enable-background="new -308.1 26.4 2536.2 547.2" xml:space="preserve">
<rect x="-717.3" y="-213.5" display="none" fill="#333333" width="3755.2" height="1001.8"/>
<g>
	<path fill="#FFFFFF" d="M1937.8,495H-17.8c-107.2,0-195-87.7-195-195v0c0-107.2,87.7-195,195-195h1955.6c107.2,0,195,87.7,195,195
		v0C2132.8,407.2,2045,495,1937.8,495z"/>
</g>
<g id="title_x5F_1">
	<path fill="#3A3634" d="M239.6,228.1h30.8c6.1,0,9.2,3,9.2,8.9v41.3c0,5.9-3.1,8.9-9.2,8.9h-4.9v24.3h11.8c3.7,0,5.6,1.9,5.6,5.6
		c0,3.7-1.9,5.6-5.6,5.6h-11.8v28.9c4.8-1.7,10.1-3.9,15.9-6.6l2.3-1c4.3,0,6.4,2.3,6.4,6.9c0,1.3-1.1,2.7-3.3,4.1
		c-5.4,3.2-12.6,6.5-21.7,10c-11.2,4.2-21.6,7.4-31.3,9.8c-1.6,0.4-3.1,0.7-4.3,0.7c-4.3,0-6.4-2.2-6.4-6.7c0-3.3,1.6-5.4,4.9-6.4
		c1.5-0.3,2.8-0.6,3.9-0.8v-52c0-3.7,1.9-5.6,5.6-5.6c3.7,0,5.6,1.9,5.6,5.6v49.2c3.9-1,7.4-2,10.5-3c0.3-0.1,0.5-0.2,0.7-0.2v-68.4
		h-14.8c-6.1,0-9.2-3-9.2-8.9V237C230.4,231.1,233.5,228.1,239.6,228.1z M264.5,276c2.2,0,3.3-1.2,3.3-3.6v-29.5
		c0-2.4-1.1-3.6-3.3-3.6h-19c-2.2,0-3.3,1.2-3.3,3.6v29.5c0,2.4,1.1,3.6,3.3,3.6H264.5z M369.5,238.6c3.7,0,5.6,1.9,5.6,5.6
		c0,3.7-1.9,5.6-5.6,5.6h-21.2c2.7,4.3,5.5,7.9,8.4,10.8c5,5.1,11,9.9,17.9,14.3c2.3,1.2,3.4,2.7,3.4,4.4c0,4.6-2.1,6.9-6.2,6.9
		c-2.1,0-4.2-0.7-6.4-2c-9.1-6.5-16.1-13.1-21.2-20c-3.5-4.8-6.3-9.6-8.5-14.4h-10.7c-1.1,2.1-2.1,3.9-3.1,5.6
		c-4,6.9-8.7,13.2-13.9,19c-4.6,4.9-9.8,9.2-15.8,13c-1.3,1-2.7,1.5-4.1,1.5c-1.5,0-2.9-0.7-4.1-2c-1.2-1.4-1.8-3-1.8-4.8
		c0-1.6,0.7-3,2.1-4.1c5.6-3.7,10.4-7.7,14.6-12c4.6-5.1,8.7-10.6,12.3-16.2h-17.2c-3.7,0-5.6-1.9-5.6-5.6c0-3.7,1.9-5.6,5.6-5.6h23
		c1.4-3.3,2.7-6.8,3.9-10.7c0.9-2.7,2.8-4.1,5.9-4.1c1.4,0,2.7,0.4,3.9,1.3c1.1,0.8,1.6,2,1.6,3.8c0,1-0.2,2.2-0.7,3.6
		c-0.7,2.2-1.3,4.2-2,6.1H369.5z M370.9,300c3.9,0,5.9,2,5.9,5.9s-2,5.9-5.9,5.9h-50.5l-4.4,13.5c0,1.3,0.7,2,2.1,2h42.8
		c7.1,0,10.7,4,10.7,12c0,7.2-0.8,13.9-2.3,20c-1.3,5.9-4,10.1-8.2,12.6c-4,2.4-11.5,3.6-22.3,3.6c-6.8,0-15.8-0.9-26.9-2.6
		c-4.2-0.8-6.2-2.8-6.2-6.2c0-4.2,2-6.2,5.9-6.2c0.3,0,0.7,0.1,1.1,0.3c10.1,2.3,18.5,3.4,25.3,3.4c10.9,0,17-1.6,18-4.9
		c2-3.6,3-9.3,3-17.1c0-2.5-1.3-3.8-3.9-3.8h-43.5c-6.5,0-9.7-2.7-9.7-8c0-0.9,0.4-2.6,1.1-5.1l4.8-13.5h-14.9c-3.9,0-5.9-2-5.9-5.9
		s2-5.9,5.9-5.9H370.9z M352.5,277.4c3.7,0,5.6,1.9,5.6,5.6c0,3.7-1.9,5.6-5.6,5.6h-41.3c-3.7,0-5.6-1.9-5.6-5.6
		c0-3.7,1.9-5.6,5.6-5.6H352.5z"/>
	<path fill="#3A3634" d="M484.3,222.6c2.3,0,4.8,1.4,7.5,4.3l23.5,22.8c1.6,1.8,2.5,3.4,2.5,5.1c-0.2,3.7-2.2,5.7-5.9,5.9
		c-1,0-2.2-0.4-3.8-1.3L488,237c-1-1.2-1.9-1.8-2.8-1.8c-0.8,0-1.5,0.7-2.3,2c-8.3,11.5-17.7,22.1-28.2,32c-1.9,1.8-3.6,2.6-5.1,2.6
		c-3.8-0.2-5.9-2.4-6.1-6.4c0-1.7,1-3.4,3-4.9c12.9-11,22.8-21.5,29.7-31.3C478.9,224.8,481.6,222.6,484.3,222.6z M456.7,298.4h44.1
		c7.3,0,11,3.9,11,11.6c0,3.5-1.1,7.8-3.4,13c-4,8.6-10,18.1-17.7,28.4c-0.7,0.9-1.4,1.5-2.1,2c3.5,3.1,6.8,6.3,10,9.8
		c1.4,1.7,2.1,3,2.1,3.8c0,3.9-1.9,5.9-5.7,5.9c-2.1,0-3.9-0.7-5.6-2.1c-6.9-7.1-12.7-12.6-17.6-16.6c-4.2-3.5-8.8-7.1-13.8-10.7
		c-1.3-1.3-2-2.6-2-3.9c0-3.6,1.7-5.4,5.3-5.4c1.1,0,2.4,0.4,3.9,1.1c5.4,3.7,10.1,7.2,14.3,10.5c7.8-9.1,13.7-17.6,17.7-25.4
		c1.9-3.2,2.8-5.7,2.8-7.5c0-2.2-1.2-3.3-3.6-3.3h-39.7c-3.9,0-5.9-1.9-5.9-5.6C450.8,300.2,452.8,298.4,456.7,298.4z M501.3,268.8
		c3.7,0,5.6,1.9,5.6,5.6c0,3.7-1.9,5.6-5.6,5.6h-39.4c-3.7,0-5.6-1.9-5.6-5.6c0-3.7,1.9-5.6,5.6-5.6H501.3z M589.9,228.5
		c3.5,0,5.3,1.8,5.3,5.3c0,3.5-1.8,5.3-5.3,5.3h-27.2l-3.4,13.8h20.8c6.8,0,10.2,3.3,10.2,9.8v72.8c0,6.6-3.4,9.8-10.2,9.8h-3.4
		c0.1,0.2,0.2,0.4,0.2,0.5c3,7.7,8.4,14.3,16.4,19.9c1.7,1.3,2.6,2.7,2.6,4.3c0,2.1-0.4,3.4-1.1,3.9c-0.9,1.5-2.4,2.3-4.4,2.3
		c-2,0-3.9-0.9-5.7-2.8c-4.9-3.3-9.9-9-14.9-17.2c-2.6-5-3.9-8.3-3.9-9.7c0-0.3,0.1-0.7,0.2-1.1h-17.2c0.4,0.9,0.7,1.9,0.7,3.1
		c0,2.1-0.9,4.3-2.8,6.7c-6.9,7.7-13.6,13.7-20.2,18c-1.3,1.1-2.6,1.6-3.9,1.6c-3.9,0-5.9-1.8-5.9-5.4c0-1.3,0.5-2.6,1.5-3.9
		c8.3-6,15.4-12.6,21.2-19.7c0.1-0.1,0.2-0.3,0.2-0.5h-5.7c-6.8,0-10.2-3.3-10.2-9.8v-72.8c0-6.6,3.4-9.8,10.2-9.8h14.6l3.3-13.8
		h-26.4c-3.5,0-5.3-1.7-5.3-5.3c0-3.5,1.7-5.3,5.3-5.3H589.9z M534.5,279.7h44.6v-11.8c0-3.1-1.4-4.6-4.3-4.6h-36.1
		c-2.8,0-4.3,1.5-4.3,4.6V279.7z M534.5,306.6h44.6v-16.4h-44.6V306.6z M574.8,334.8c2.8,0,4.3-1.5,4.3-4.6v-13.1h-44.6v13.1
		c0,3.1,1.4,4.6,4.3,4.6H574.8z"/>
	<path fill="#3A3634" d="M705.9,260.6c3.9,0,5.9,2,5.9,5.9s-2,5.9-5.9,5.9h-10.5v59.7c2.8-2.2,6.1-4.7,9.7-7.5l2.3-1
		c4.3,0,6.4,2.3,6.4,6.9c0,1.5-0.8,3.1-2.3,4.8c-3.8,3.6-8.9,7.4-15.3,11.5c-7.9,4.9-15.3,8.7-22.3,11.5c-1.1,0.5-2.1,0.8-3,0.8
		c-4.3,0-6.4-2.2-6.4-6.7c0-3.3,1.6-5.4,4.9-6.4c5.6-2.2,10.3-4.3,14.1-6.2v-67.3h-12.5c-3.9,0-5.9-2-5.9-5.9s2-5.9,5.9-5.9h12.5
		v-30.2c0-3.9,2-5.9,5.9-5.9s5.9,2,5.9,5.9v30.2H705.9z M809.6,243.6c3.9,0,5.9,2,5.9,5.9s-2,5.9-5.9,5.9h-29.9
		c1.2,27.6,2.7,46.4,4.4,56.6c0.1,1,0.3,2,0.5,3c1.5-3.1,3-6.2,4.3-9.5c3.7-9.3,7-21.3,9.8-35.9c1.1-2.4,3-3.6,5.6-3.6
		c1.6,0,3.1,0.5,4.3,1.5c1.2,1.1,1.8,2.3,1.8,3.6s-0.3,2.7-0.8,4.3c-3.1,15.3-6.6,27.8-10.5,37.6c-3.2,8-6.6,15-10.3,21
		c1.5,6.2,3.4,12.4,5.6,18.5c1.6,3.4,3.1,5.1,4.4,5.1c1.1,0,1.9-1,2.5-3c1.1-3.2,2.2-12,3.3-26.6c0.4-4.2,2.4-6.2,5.7-6.2
		c3.8,0,5.7,2,5.7,5.9c-1,16.5-2.9,28.7-5.7,36.4c-2.5,7.7-6.2,11.5-11.2,11.5c-4.2,0-7.8-2.5-10.8-7.5c-3.4-5.5-6.3-12.4-8.9-20.8
		c-2.7,3.1-5.5,6.1-8.4,9c-6.2,6.1-14.2,11.9-24,17.2c-2.3,1-3.8,1.5-4.6,1.5c-1.6,0-3.2-0.5-4.6-1.6c-1.2-1.3-1.8-2.7-1.8-4.3
		c0-2.8,1.2-4.7,3.6-5.6c9.2-5.1,16.7-10.6,22.6-16.4c4.9-4.9,9.3-10,13.1-15.3c-2.7-13.6-4.7-28.6-5.9-45.1
		c-1-10.7-1.7-21.1-2.1-31.2h-51.7c-3.9,0-5.9-2-5.9-5.9s2-5.9,5.9-5.9h51.4c-0.1-5.1-0.2-10.2-0.2-15.1c0-3.9,2-5.9,5.9-5.9
		c3.8,0,5.8,2,5.9,5.9c0.2,5.3,0.4,10.3,0.5,15.1H809.6z M759.7,328.5c3.7,0.2,5.7,2.1,5.9,5.6c0,2.7-1.3,4.9-3.9,6.4
		c-5.1,3.4-12,6.5-20.5,9.4c-6.6,2.3-14.5,4.4-23.8,6.4c-4.4-0.2-6.7-2.6-6.9-7.1c0-4,1.9-6.4,5.6-7.1c8.3-1.4,14.8-3,19.4-4.6
		c8.3-2.4,15.3-5.2,21-8.4C757.7,328.8,758.8,328.5,759.7,328.5z M726.3,265.2h23.5c6.5,0,9.7,3.1,9.7,9.2v40.7
		c0,6.1-3.2,9.2-9.7,9.2h-23.5c-6.3,0-9.5-3.1-9.5-9.2v-40.7C716.8,268.3,719.9,265.2,726.3,265.2z M743.3,313.8
		c3.3,0,4.9-1.7,4.9-5.3V281c0-3.5-1.6-5.3-4.9-5.3h-10.5c-3.3,0-4.9,1.8-4.9,5.3v27.6c0,3.5,1.6,5.3,4.9,5.3H743.3z M788.1,224
		c1.3,0,2.8,0.5,4.4,1.5c4.6,2,8.7,3.9,12.3,5.9c1.9,1.3,2.8,3,2.8,4.9c0,3.6-1.8,5.4-5.3,5.4c-1.6,0-3-0.5-4.1-1.5
		c-3.7-1.9-7.9-3.7-12.6-5.6c-2.4-1.6-3.6-3.3-3.6-4.9C782.1,226,784.1,224,788.1,224z"/>
	<path fill="#3A3634" d="M1020.8,234.7c3.7,0,5.6,1.9,5.6,5.6c0,3.7-1.9,5.6-5.6,5.6h-19v54.5h23c3.7,0,5.6,1.9,5.6,5.6
		c0,3.7-1.9,5.6-5.6,5.6H996c5.7,4.9,10.7,8.4,15.1,10.5c3.6,2,9.3,4,17.1,6.2c3,1.1,4.4,3,4.4,5.6c0,4.5-2.6,6.7-7.9,6.7
		c-0.5,0-1.8-0.3-3.6-0.8c-9.1-3.2-16.2-6.6-21.5-10.2c-5.4-3.5-9.7-7.2-13.1-11c-2.2-2.6-3.3-5-3.3-7.1h-54
		c-1.6,3.9-3.4,7.2-5.4,9.7c-2.8,3.7-6.6,7.2-11.3,10.5c-7.3,4.3-14.4,7.5-21.3,9.7c-1.6,0.3-3.1,0.5-4.3,0.5
		c-1.4,0-2.7-0.5-3.8-1.6c-1-1.2-1.5-2.6-1.5-4.1c0-3,1.5-4.8,4.4-5.4c6.8-2.1,13.3-4.9,19.7-8.5c3.7-2.3,6.9-5,9.5-8.2
		c0.8-0.9,1.4-1.7,1.8-2.5h-25.6c-3.7,0-5.6-1.9-5.6-5.6c0-3.7,1.9-5.6,5.6-5.6h23.6v-54.5h-19.7c-3.7,0-5.6-1.9-5.6-5.6
		c0-3.7,1.9-5.6,5.6-5.6h19.7v-6.2c0-3.9,2-5.9,5.9-5.9s5.9,2,5.9,5.9v6.2h63v-6.2c0-3.9,2-5.9,5.9-5.9s5.9,2,5.9,5.9v6.2H1020.8z
		 M990,334.5c3.7,0,5.6,1.9,5.6,5.6c0,3.7-1.9,5.6-5.6,5.6H964v15.8h56.1c3.7,0,5.6,1.9,5.6,5.6c0,3.7-1.9,5.6-5.6,5.6h-124
		c-3.7,0-5.6-1.9-5.6-5.6c0-3.7,1.9-5.6,5.6-5.6h55.5v-15.8h-27.9c-3.7,0-5.6-1.9-5.6-5.6c0-3.7,1.9-5.6,5.6-5.6h27.9V324
		c0-4.2,2.1-6.2,6.2-6.2c4.2,0,6.2,2.1,6.2,6.2v10.5H990z M927,257.3h63v-11.5h-63V257.3z M927,279h63v-11.2h-63V279z M927,300.3h63
		v-10.7h-63V300.3z"/>
	<path fill="#3A3634" d="M1144,230.8c3.7,0,5.6,1.9,5.6,5.6c0,3.7-1.9,5.6-5.6,5.6h-13.8c0,1-0.2,2.1-0.7,3.4
		c-1.9,12-4.2,22.6-7.1,31.7h15.6c6.3,0,9.5,3.1,9.5,9.2v72.8c0,6.1-3.2,9.2-9.5,9.2h-16.4c-6.3,0-9.5-3.1-9.5-9.2v-54.1
		c-0.9,2-1.8,3.8-2.8,5.4c-1.8,1.9-3.1,2.8-4.1,2.8c-4.4,0-6.6-1.9-6.6-5.7c0-1.2,0.5-2.4,1.6-3.4c4-8.2,7.6-17.2,10.7-27.1
		c3.2-10,5.8-21.6,8-34.9h-11.8c-3.7,0-5.6-1.9-5.6-5.6c0-3.7,1.9-5.6,5.6-5.6H1144z M1132.9,357.8c2.4,0,3.6-1.3,3.6-3.9v-62.3
		c0-2.6-1.2-3.9-3.6-3.9h-5.9c-2.4,0-3.6,1.3-3.6,3.9v62.3c0,2.6,1.2,3.9,3.6,3.9H1132.9z M1158.8,295.4h77.9c7.3,0,11,3.7,11,11
		c0,1.2-0.3,2.7-1,4.6c-1,3.2-2.5,6.6-4.6,10.3c-1.5,2-3.2,3-5.1,3c-4.3,0-6.4-1.7-6.4-5.3c0-0.7,0.2-1.4,0.7-2.3
		c1.7-2.1,3.1-4.1,3.9-6.1c0.4-0.7,0.7-1.2,0.7-1.6c0-2.1-1.1-3.1-3.4-3.1h-24.1v21h26.3c3.5,0,5.3,1.8,5.3,5.3
		c0,3.5-1.8,5.3-5.3,5.3h-26.3v23.1c8.4,1,21.4,1.5,38.9,1.5c3.8,0.4,5.7,2.5,5.7,6.2c-0.2,3.9-2.4,6-6.6,6.2
		c-26.8-0.2-44.1-1.9-51.8-5.1c-6.2-2.5-11.5-5.9-15.8-10.2c-2.2-2.1-4.3-4.9-6.2-8.4c-2.7,8-7.1,15.3-13.1,21.8
		c-1.4,1.9-3.1,2.8-4.9,2.8c-4.4,0-6.6-2.2-6.6-6.6c0-0.4,0.5-1.6,1.5-3.4c6.8-6.8,11.4-14.5,13.9-23.1c1.7-6.8,2.6-14.1,2.6-21.8
		c0-3.6,1.9-5.4,5.6-5.4c3.7,0,5.6,1.9,5.6,5.6c0,6.5-0.5,12.6-1.5,18.4c2.5,4.7,5.1,8.2,7.9,10.5c3.5,3.4,7.8,6,13,7.9v-51.5h-37.7
		c-3.7,0-5.6-1.7-5.6-5.3C1153.2,297.2,1155.1,295.4,1158.8,295.4z M1193.3,236.7c3.3,0,4.9,1.6,4.9,4.9s-1.6,4.9-4.9,4.9h-10.5v3.3
		l14.6,13.9c0.8,0.9,1.1,1.6,1.1,2.3c0,3.8-2,5.7-6.1,5.7c-1.4,0-2.5-0.4-3.1-1.3l-6.6-7.5v21.3c0,3.6-1.8,5.4-5.3,5.4
		c-3.5,0-5.3-1.8-5.3-5.4v-21.5c-1.9,4.2-3.6,7.5-5.3,10c-2.2,3.6-4.1,6.2-5.7,7.9c-1.4,1.5-3.1,2.3-5.1,2.3c-3.7,0-5.6-1.7-5.6-5.1
		c0-1.3,0.6-2.6,1.8-3.9c6.1-6.9,10.4-12.6,13-17.2c1.9-3,3.5-6.3,4.9-10.2h-12.5c-3.3,0-4.9-1.6-4.9-4.9s1.6-4.9,4.9-4.9h14.4v-7.5
		c0-3.5,1.7-5.3,5.3-5.3c3.5,0,5.3,1.8,5.3,5.3v7.5H1193.3z M1244.5,236.7c3.3,0,4.9,1.6,4.9,4.9s-1.6,4.9-4.9,4.9h-14.3
		c3.4,5.3,6.3,9.3,8.7,12.1c3,4,7.5,9.1,13.8,15.3c1.1,1.2,1.6,3,1.6,5.3c-0.9,3.2-2.7,4.9-5.6,5.3c-1.4,0-2.8-0.6-4.3-1.8
		c-2.6-3.1-5.5-6.9-8.5-11.6c-2.1-3-4.3-6.6-6.6-10.8v24.8c0,3.5-1.8,5.3-5.3,5.3c-3.5,0-5.3-1.7-5.3-5.3V259
		c-0.3,0.8-0.7,1.5-1,2.1c-2.4,4.8-4.5,8.7-6.4,11.6c-2.4,3.9-4.5,6.8-6.2,8.5c-1.4,1.5-3.1,2.3-5.1,2.3c-3.7,0-5.6-1.7-5.6-5.1
		c0-1.3,0.6-2.6,1.8-3.9c6.7-7.2,11.4-13.2,14.1-17.9c1.9-3,3.6-6.3,5.3-10.2h-10.7c-3.3,0-4.9-1.6-4.9-4.9s1.6-4.9,4.9-4.9h13.8
		v-7.5c0-3.5,1.7-5.3,5.3-5.3c3.5,0,5.3,1.8,5.3,5.3v7.5H1244.5z"/>
	<path fill="#3A3634" d="M1371,251.1c3.7,0,5.6,1.9,5.6,5.6c0,3.7-1.9,5.6-5.6,5.6h-46.6c-3.7,0-5.6-1.9-5.6-5.6
		c0-3.7,1.9-5.6,5.6-5.6H1371z M1334.2,320.3h27.6c6.8,0,10.2,3.3,10.2,9.8V363c0,6.6-3.4,9.8-10.2,9.8h-27.6
		c-6.8,0-10.2-3.3-10.2-9.8v-32.8C1324.1,323.6,1327.4,320.3,1334.2,320.3z M1366.4,273.8c3.5,0,5.3,1.8,5.3,5.3
		c0,3.5-1.8,5.3-5.3,5.3h-36.8c-3.5,0-5.3-1.7-5.3-5.3c0-3.5,1.7-5.3,5.3-5.3H1366.4z M1366.4,298c3.5,0,5.3,1.8,5.3,5.3
		c0,3.5-1.8,5.3-5.3,5.3h-36.8c-3.5,0-5.3-1.7-5.3-5.3c0-3.5,1.7-5.3,5.3-5.3H1366.4z M1365.1,228.5c3.5,0,5.3,1.8,5.3,5.3
		c0,3.5-1.8,5.3-5.3,5.3h-34.8c-3.5,0-5.3-1.7-5.3-5.3c0-3.5,1.7-5.3,5.3-5.3H1365.1z M1357.2,362.3c2.4,0,3.6-1.3,3.6-3.9v-23.6
		c0-2.6-1.2-3.9-3.6-3.9h-18.4c-2.4,0-3.6,1.3-3.6,3.9v23.6c0,2.6,1.2,3.9,3.6,3.9H1357.2z M1393.9,228.1h60.4
		c7.4,0,11.2,3.6,11.2,10.8v40c0,7.2-3.7,10.8-11.2,10.8h-24.6V302h37.7c3.9,0,5.9,2,5.9,5.9s-2,5.9-5.9,5.9h-35.6
		c6.8,10.3,13.3,18.9,19.5,25.8c4.8,5.6,11.3,11.3,19.5,17.1c2.1,1.4,3.1,3.3,3.1,5.6c-0.2,4.3-2.5,6.5-6.7,6.7
		c-1.3,0-2.8-0.5-4.4-1.6c-5.5-4.3-10.8-9.2-15.9-14.9c-5.5-6.1-11.2-13.7-17.2-22.8v40.4c0,3.7-1.9,5.6-5.6,5.6
		c-3.7,0-5.6-1.9-5.6-5.6v-39.5c-8.4,14-18.5,26.5-30.4,37.4c-1.6,1.2-3.4,1.8-5.3,1.8c-4.3-0.2-6.5-2.7-6.7-7.4
		c0-1.3,0.9-2.8,2.8-4.4c8-6.5,14.3-12.3,18.9-17.6c5.5-6.2,11.5-15,18.2-26.4h-35.9c-3.9,0-5.9-2-5.9-5.9s2-5.9,5.9-5.9h38.4v-12.1
		h-24.6c-7.4,0-11.2-3.6-11.2-10.8v-40C1382.8,231.8,1386.5,228.1,1393.9,228.1z M1394.6,253.4h24v-14.1h-20.7
		c-2.2,0-3.3,1.2-3.3,3.6V253.4z M1418.6,278.7v-14.8h-24v11.2c0,2.4,1.1,3.6,3.3,3.6H1418.6z M1429.7,239.3v14.1h24v-10.5
		c0-2.4-1.1-3.6-3.3-3.6H1429.7z M1450.4,278.7c2.2,0,3.3-1.2,3.3-3.6v-11.2h-24v14.8H1450.4z"/>
	<path fill="#3A3634" d="M1584.8,224.2c3.9,0,5.9,2.3,5.9,6.9c0,3.2-2.5,5.1-7.5,5.7c-3.1,1.1-6.9,2-11.5,2.8v26.9h13.1
		c3.9,0,5.9,2,5.9,5.9s-2,5.9-5.9,5.9h-13.1v2.6l17.6,29.4c1,1.9,1.5,3.5,1.5,4.9c0,3.8-2,5.7-6.1,5.7c-1.8,0-3.1-1.1-3.9-3.3l-9-19
		v72.2c0,3.9-2,5.9-5.9,5.9s-5.9-2-5.9-5.9v-66.9c-2.5,8.1-4.9,14.5-7.1,19.2c-2.8,7-5.3,12-7.4,15.1c-1.3,2.5-3.1,3.8-5.3,3.8
		c-3.9,0-5.9-1.9-5.9-5.7c0-1.4,0.5-3,1.6-4.6c7.3-13.3,12.5-24.4,15.6-33.1c2.3-5.8,4.3-12.5,5.9-20.2h-13.3c-3.9,0-5.9-2-5.9-5.9
		s2-5.9,5.9-5.9h15.8v-24.8c-5.9,0.9-10.1,1.3-12.6,1.3c-4.7,0-7.1-2.2-7.1-6.7c0-3.7,2-5.6,5.9-5.6c6.8-0.2,13-0.7,18.7-1.5
		C1572,228.3,1578.7,226.6,1584.8,224.2z M1672.4,281.5c4.2,0,6.2,2.5,6.2,7.4c0,3.3-2.6,5.3-7.9,6.1c-7.4,2-17.2,3.7-29.2,5.1v24
		h35.1c3.7,0,5.6,1.9,5.6,5.6c0,3.7-1.9,5.6-5.6,5.6h-35.1v24.6h41.7c3.9,0,5.9,2,5.9,5.9s-2,5.9-5.9,5.9h-90.6
		c-3.9,0-5.9-2-5.9-5.9s2-5.9,5.9-5.9h36.4v-24.6h-30.5c-3.7,0-5.6-1.9-5.6-5.6c0-3.7,1.9-5.6,5.6-5.6h30.5v-22.5
		c-13.3,1.5-22.8,2.3-28.2,2.3c-5,0-7.5-2.4-7.5-7.1c0-3.9,2.1-5.9,6.2-5.9c12.7-0.2,24.4-0.9,35.3-2.1
		C1648.3,287.3,1660.8,284.9,1672.4,281.5z M1606.4,228.8h63c6.1,0,9.2,3,9.2,8.9v26.3c0,5.9-3.1,8.9-9.2,8.9h-63
		c-6.1,0-9.2-3-9.2-8.9v-26.3C1597.3,231.8,1600.3,228.8,1606.4,228.8z M1662.9,261.6c2.6,0,3.9-1.4,3.9-4.3v-13.1
		c0-2.8-1.3-4.3-3.9-4.3H1613c-2.6,0-3.9,1.4-3.9,4.3v13.1c0,2.8,1.3,4.3,3.9,4.3H1662.9z"/>
</g>
</svg>
