<?xml version="1.0" encoding="utf-8"?>
<!-- Generator: Adobe Illustrator 18.0.0, SVG Export Plug-In . SVG Version: 6.00 Build 0)  -->
<!DOCTYPE svg PUBLIC "-//W3C//DTD SVG 1.1//EN" "http://www.w3.org/Graphics/SVG/1.1/DTD/svg11.dtd">
<svg version="1.1" id="Layer_1" xmlns="http://www.w3.org/2000/svg" xmlns:xlink="http://www.w3.org/1999/xlink" x="0px" y="0px"
	 viewBox="0 0 1920 1080" enable-background="new 0 0 1920 1080" xml:space="preserve">
<g id="Rounded_Rectangle_1_2_">
	<path fill-rule="evenodd" clip-rule="evenodd" fill="#FFFFFF" d="M1428.4,271.4h-938c-148.3,0-268.5,120.2-268.5,268.5v0.2
		c0,148.3,120.2,268.5,268.5,268.5h938c148.3,0,268.5-120.2,268.5-268.5v-0.2C1696.9,391.6,1576.7,271.4,1428.4,271.4z"/>
</g>
<g>
	<path fill="#303238" d="M679.4,588.4c0,20.2-8.4,36.3-25.3,48.4c-16,11-36.3,16.5-60.9,16.5c-32.6,0-58-12.6-76.3-37.8
		c-6.6-9.2-9.9-19.1-9.9-29.9c0-3.4,1.3-6.5,3.8-9.3c2.5-2.5,5.8-3.8,9.9-3.8c5.7,0,10,4.7,13,14.1c3.6,13.3,11.2,23.7,22.6,31.3
		c10.5,6.9,22.5,10.3,35.9,10.3c16.9,0,30.9-3.3,42.1-10c12.3-7.1,18.5-17.1,18.5-29.9c0-11-6.4-19.9-19.2-26.8
		c-15.5-6.2-31-12.5-46.5-18.9c-22.8-9.6-38.4-17.5-46.9-23.7c-15.7-11.4-23.6-25.3-23.6-41.6c0-36.9,27-55.3,81.1-55.3
		c34.4,0,58.6,10.2,72.5,30.6c6.2,8.9,9.2,16.7,9.2,23.4c0,10.1-5,15.1-15.1,15.1c-4.6,0-8-2.7-10.3-8.2
		c-10.3-24-29.1-36.1-56.4-36.1c-13.2,0-24.5,1.7-33.9,5.2c-13,4.8-19.5,12.8-19.5,24c0,9.4,5.5,17.4,16.4,24
		c5,3.2,18.5,9.1,40.4,17.5c25.8,10.3,43,18.4,51.7,24.4C670.5,554.4,679.4,569.9,679.4,588.4z"/>
	<path fill="#303238" d="M847.1,635.8c0,8.2-4.8,12.4-14.4,12.4c-3,0-7.5,0-13.7,0c-5.9-0.2-10.5-0.3-13.7-0.3
		c-16.6,0-25-12.4-25-37.1v-87.9h-18.5c-9.6,0-14.4-4.2-14.4-12.7c0-8.5,4.8-12.7,14.4-12.7h18.5v-27.1c0-9.8,3.9-14.8,11.6-14.8
		c8.4,0,12.7,4.9,12.7,14.8v27.1h26c9.6,0,14.4,4.2,14.4,12.7c0,8.5-4.8,12.7-14.4,12.7h-26v86.9c0,9.2,1.7,13.7,5.1,13.7h22.9
		C842.3,623.5,847.1,627.6,847.1,635.8z"/>
	<path fill="#303238" d="M1051.1,639.6c0,9.8-4.1,14.8-12.3,14.8c-8.2,0-12.3-4.9-12.3-14.8v-12.7c-8,7.6-17.8,13.7-29.4,18.6
		c-11.4,5.3-22.2,7.9-32.5,7.9c-13.9,0-25.4-3.4-34.6-10.3c-10.7-8-16.1-19.5-16.1-34.4c0-19,9-33.5,27-43.6c14.4-8,31.9-12,52.7-12
		h32.8c-1.4-23.4-14.6-35-39.7-35c-8.7,0-17.1,1.7-25.3,5.2c-9.1,3.4-15.7,8.4-19.8,14.8c-3,4.4-5.7,6.5-8.2,6.5
		c-9.4,0-14-4.8-14-14.4c0-3.4,2.4-7.8,7.2-13.1c14.4-15.8,34.4-23.7,60.2-23.7c23,0,39.7,6.1,49.9,18.2
		c9.6,11.7,14.4,25.2,14.4,40.5V639.6z M1026.5,596v-18.6h-21.2c-43.3,0-65,10.4-65,31.3c0,6,2.4,10.8,7.2,14.4
		c5,3.4,10.7,5.2,17.1,5.2c11.2,0,22.9-3.2,35.2-9.6C1011.9,612.7,1020.8,605.2,1026.5,596z"/>
	<path fill="#303238" d="M1220.9,512.2c0,5.5-3,8.7-8.9,9.6c-13,1.8-23.6,6-31.8,12.4c-5.2,3.9-10.4,9.5-15.4,16.8
		c-5.9,9.2-8.9,17.3-8.9,24.4v63.2c0,9.8-3.7,14.8-10.9,14.8c-8.9,0-13.3-4.9-13.3-14.8V508c0-9.8,4.3-14.8,13-14.8
		c7.5,0,11.3,4.9,11.3,14.8V528c13-19.9,30.1-29.9,51.3-29.9C1216.3,498.1,1220.9,502.8,1220.9,512.2z"/>
	<path fill="#303238" d="M1381.8,635.8c0,8.2-4.8,12.4-14.4,12.4c-3,0-7.5,0-13.7,0c-5.9-0.2-10.5-0.3-13.7-0.3
		c-16.6,0-25-12.4-25-37.1v-87.9h-18.5c-9.6,0-14.4-4.2-14.4-12.7c0-8.5,4.8-12.7,14.4-12.7h18.5v-27.1c0-9.8,3.9-14.8,11.6-14.8
		c8.4,0,12.7,4.9,12.7,14.8v27.1h26c9.6,0,14.4,4.2,14.4,12.7c0,8.5-4.8,12.7-14.4,12.7h-26v86.9c0,9.2,1.7,13.7,5.1,13.7h22.9
		C1377,623.5,1381.8,627.6,1381.8,635.8z"/>
</g>
</svg>
