<?xml version="1.0" encoding="utf-8"?>
<!-- Generator: Adobe Illustrator 18.0.0, SVG Export Plug-In . SVG Version: 6.00 Build 0)  -->
<!DOCTYPE svg PUBLIC "-//W3C//DTD SVG 1.1//EN" "http://www.w3.org/Graphics/SVG/1.1/DTD/svg11.dtd">
<svg version="1.1" id="Layer_1" xmlns="http://www.w3.org/2000/svg" xmlns:xlink="http://www.w3.org/1999/xlink" x="0px" y="0px"
	 viewBox="0 0 1139.8 354" enable-background="new 0 0 1139.8 354" xml:space="preserve">
<g>
	<g>
		<path fill="#FFFFFF" d="M21.9,123.2L21.9,123.2C33,138.3,39.6,156.9,39.6,177s-6.6,38.7-17.7,53.8v0.1l93.3-53.9L21.9,123.2z"/>
	</g>
	<g>
		<path fill="#FFFFFF" d="M562.2,230c0,6.1-2.4,9.2-7.3,9.2c-5,0-7.5-3.1-7.5-9.2v-75.7c0-6.2-2.8-9.4-8.5-9.4
			c-4.3,0-8.2,1.9-11.6,5.8c-3.3,3.7-5,7.8-5,12.1V230c0,6.1-2.5,9.2-7.5,9.2c-5.1,0-7.7-3.1-7.7-9.2v-73.2c0-8.6-2.4-12.9-7.1-12.9
			c-3.3,0-7,2.2-11,6.7c-4.4,4.7-6.7,9.8-6.7,15.4v64c0,6.1-2.4,9.2-7.3,9.2c-5.1,0-7.7-3.1-7.7-9.2v-92.1c0-6.1,2.6-9.2,7.7-9.2
			c4.9,0,7.3,3.6,7.3,10.8c5.7-7.2,11.8-10.8,18.5-10.8c7.9,0,13.9,3.9,17.9,11.9c7.1-7.9,14.5-11.9,22.3-11.9
			c5.8,0,10.9,2.4,15.2,7.3c4,5,6,10.5,6,16.4V230z"/>
		<path fill="#FFFFFF" d="M686.6,184.2c0,15.3-3.3,27.8-9.8,37.6c-7.6,11.5-18.8,17.3-33.5,17.3s-26.1-5.8-34.3-17.3
			c-7.1-10.1-10.6-22.7-10.6-37.6c0-15,3.5-27.6,10.6-37.8c8.2-11.8,19.6-17.7,34.3-17.7s25.9,5.9,33.5,17.7
			C683.3,156.5,686.6,169.1,686.6,184.2z M670.2,184.2c0-10.3-2.1-19.1-6.2-26.6c-4.9-9.1-12-13.7-21.4-13.7
			c-9.6,0-16.8,4.6-21.6,13.7c-4,7.5-6,16.4-6,26.6c0,10.3,2.1,19,6.2,26.2c4.9,9,12,13.5,21.4,13.5c9.6,0,16.8-4.5,21.6-13.5
			C668.2,203.2,670.2,194.5,670.2,184.2z"/>
		<path fill="#FFFFFF" d="M797.7,140.8c0,2.8-2.6,5-7.9,6.7c-12.6,4-23.2,11.6-31.6,22.9V230c0,6.1-2.6,9.2-7.7,9.2
			c-5,0-7.5-3.1-7.5-9.2v-92.1c0-6.1,2.5-9.2,7.5-9.2c5.1,0,7.7,3.1,7.7,9.2v11c4-4,8.7-7.7,14.1-11c6.5-3.7,12.1-5.6,16.8-5.6
			C794.9,132.2,797.7,135.1,797.7,140.8z"/>
		<path fill="#FFFFFF" d="M941.3,204c0,5.4-3.3,11.9-9.8,19.5c-9,10.4-19.7,15.6-32,15.6c-14.3,0-25.6-5.9-33.9-17.7
			c-7.2-10.4-10.8-23.1-10.8-38.1c0-14.8,3.8-27.4,11.4-37.6c8.5-11.4,19.8-17.1,34.1-17.1c13,0,23.2,5,30.4,15
			c6.4,8.7,9.6,19.9,9.6,33.5c0,6.1-3.1,9.2-9.2,9.2h-59.9c0.1,9.1,2.4,17.3,6.9,24.5c5.3,8.7,12.2,13.1,20.8,13.1
			c12.1,0,21.1-6.9,27-20.6c1.9-4.4,4.2-6.7,6.9-6.7C938.4,196.7,941.3,199.1,941.3,204z M924.2,167.4c0-6.1-2.5-11.6-7.5-16.4
			c-4.9-4.7-10.3-7.1-16.4-7.1c-7.1,0-13.3,2.8-18.7,8.5c-5,5.1-8.1,11.4-9.4,18.7H919C922.5,171.1,924.2,169.9,924.2,167.4z"/>
	</g>
	<g>
		<path fill="#FFFFFF" d="M964.8,330.1H442.1c-84.4,0-153-68.7-153-153s68.7-153,153-153h522.7c84.4,0,153,68.7,153,153
			S1049.2,330.1,964.8,330.1z M442.1,44.5c-73.1,0-132.5,59.4-132.5,132.5s59.4,132.5,132.5,132.5h522.7
			c73.1,0,132.5-59.4,132.5-132.5S1037.9,44.5,964.8,44.5H442.1z"/>
	</g>
</g>
</svg>
