<?xml version="1.0" encoding="utf-8"?>
<!-- Generator: Adobe Illustrator 18.0.0, SVG Export Plug-In . SVG Version: 6.00 Build 0)  -->
<!DOCTYPE svg PUBLIC "-//W3C//DTD SVG 1.1//EN" "http://www.w3.org/Graphics/SVG/1.1/DTD/svg11.dtd">
<svg version="1.1" id="Layer_1" xmlns="http://www.w3.org/2000/svg" xmlns:xlink="http://www.w3.org/1999/xlink" x="0px" y="0px"
	 viewBox="0 0 1920 1080" enable-background="new 0 0 1920 1080" xml:space="preserve">
<g id="bottom_1_">
	<g id="Rounded_Rectangle_2_2_">
		<g>
			<path fill-rule="evenodd" clip-rule="evenodd" fill="#FFFFFF" d="M1443.2,179.8H476.8c-29.1,0-52.7,23.6-52.7,52.7
				c0,29.1,23.6,52.7,52.7,52.7h966.3c29.1,0,52.7-23.6,52.7-52.7C1495.9,203.4,1472.3,179.8,1443.2,179.8z"/>
		</g>
	</g>
	<g id="Rounded_Rectangle_2_copy_2_">
		<g>
			<path fill-rule="evenodd" clip-rule="evenodd" fill="#FFFFFF" d="M1443.2,496.1H476.8c-29.1,0-52.7,23.6-52.7,52.7
				c0,29.1,23.6,52.7,52.7,52.7h966.3c29.1,0,52.7-23.6,52.7-52.7C1495.9,519.7,1472.3,496.1,1443.2,496.1z"/>
		</g>
	</g>
	<g id="Rounded_Rectangle_2_copy_2_2_">
		<g>
			<path fill-rule="evenodd" clip-rule="evenodd" fill="#FFFFFF" d="M1443.2,794.8H476.8c-29.1,0-52.7,23.6-52.7,52.7
				c0,29.1,23.6,52.7,52.7,52.7h966.3c29.1,0,52.7-23.6,52.7-52.7C1495.9,818.4,1472.3,794.8,1443.2,794.8z"/>
		</g>
	</g>
</g>
</svg>
