<?xml version="1.0" encoding="utf-8"?>
<!-- Generator: Adobe Illustrator 18.0.0, SVG Export Plug-In . SVG Version: 6.00 Build 0)  -->
<!DOCTYPE svg PUBLIC "-//W3C//DTD SVG 1.1//EN" "http://www.w3.org/Graphics/SVG/1.1/DTD/svg11.dtd">
<svg version="1.1" id="Layer_1" xmlns="http://www.w3.org/2000/svg" xmlns:xlink="http://www.w3.org/1999/xlink" x="0px" y="0px"
	 viewBox="0 326 480 148" enable-background="new 0 326 480 148" xml:space="preserve">
<g>
	<g>
		<path fill="#FFFFFF" d="M9.2,377.3L9.2,377.3c4.7,6.4,7.4,14.2,7.4,22.7c0,8.5-2.8,16.3-7.4,22.7v0.1L48.5,400L9.2,377.3z"/>
	</g>
	<g>
		<path fill="#FFFFFF" d="M406.3,464.5H186.2c-35.5,0-64.4-28.9-64.4-64.4s28.9-64.4,64.4-64.4h220.1c35.5,0,64.4,28.9,64.4,64.4
			S441.8,464.5,406.3,464.5z M186.2,344.2c-30.8,0-55.8,25-55.8,55.8s25,55.8,55.8,55.8h220.1c30.8,0,55.8-25,55.8-55.8
			s-25-55.8-55.8-55.8H186.2z"/>
	</g>
</g>
<g>
	<path fill="#FFFFFF" d="M223.4,418.4c0,3.2-1.4,6.3-4.3,9.5c-3.3,3.7-7.5,5.5-12.5,5.5c-6,0-10.9-2.4-14.5-7.1
		c-3.3-4.3-4.9-9.5-4.9-15.7c0-6.7,1.5-12.2,4.6-16.4c3.6-4.9,8.5-7.4,14.9-7.4c5,0,9.3,1.9,12.9,5.8c2.6,2.8,3.9,5.2,3.9,7.5
		c0,0.9-0.4,1.7-1.1,2.2c-0.8,0.6-1.7,0.9-2.6,0.9c-0.6,0-1.3-0.8-2.1-2.3c-2.5-5.1-6.1-7.6-10.9-7.6c-4.3,0-7.5,1.9-9.8,5.7
		c-1.9,3.2-2.8,7.1-2.8,11.7c0,4.3,1,8.1,3.1,11.2c2.4,3.5,5.7,5.3,9.8,5.3c2.6,0,4.9-0.8,6.9-2.5c1.8-1.6,3-3.7,3.6-6.3
		c0.5-1.9,1.2-2.8,2.3-2.8C222.2,415.3,223.4,416.3,223.4,418.4z"/>
	<path fill="#FFFFFF" d="M252.6,429.5c0,2.6-1.1,3.9-3.2,3.9c-2.2,0-3.3-1.3-3.3-3.9v-59.6c0-2.5,1.1-3.8,3.3-3.8
		c2.1,0,3.2,1.3,3.2,3.8V429.5z"/>
	<path fill="#FFFFFF" d="M311.9,410.2c0,6.4-1.4,11.7-4.1,15.9c-3.2,4.9-7.9,7.3-14.2,7.3c-6.2,0-11-2.4-14.5-7.3
		c-3-4.3-4.5-9.6-4.5-15.9s1.5-11.7,4.5-16c3.5-5,8.3-7.5,14.5-7.5c6.2,0,10.9,2.5,14.2,7.5C310.6,398.5,311.9,403.8,311.9,410.2z
		 M305,410.2c0-4.3-0.9-8.1-2.6-11.3c-2.1-3.9-5.1-5.8-9.1-5.8c-4,0-7.1,1.9-9.1,5.8c-1.7,3.2-2.5,6.9-2.5,11.3
		c0,4.3,0.9,8,2.6,11.1c2.1,3.8,5.1,5.7,9.1,5.7c4,0,7.1-1.9,9.1-5.7C304.1,418.2,305,414.5,305,410.2z"/>
	<path fill="#FFFFFF" d="M362.9,421c0,3.5-1.7,6.5-5.2,9.1c-3,2.2-6.9,3.3-11.9,3.3c-5.9,0-10.6-1.7-14-5c-2.8-2.7-4.1-4.8-4.1-6.4
		c0-2.3,1.3-3.5,3.8-3.5c0.8,0,1.6,0.5,2.3,1.6c0.9,1.5,1.6,2.4,2,2.9c0.8,0.8,1.8,1.5,2.9,2.1c2.5,1.3,4.8,1.9,6.9,1.9
		c2.3,0,4.5-0.4,6.4-1.1c2.6-1.1,4-2.6,4-4.6c0-1.6-1-3.2-3-4.6c-0.9-0.6-2.6-1.5-5.2-2.6c-0.3-0.2-4-1.8-11.1-4.8
		c-5.4-2.3-8.2-5.8-8.2-10.4c0-3.9,1.8-6.9,5.3-9.2c3-2,6.6-3,10.8-3c5.4,0,9.9,1.6,13.3,4.9c2.8,2.6,4.1,5.2,4.1,7.6
		c0,2.1-1.1,3.1-3.4,3.1c-1.1,0-2-0.7-2.7-2.1c-1.3-2.5-2.6-4.2-4-5.1c-2.1-1.3-4.5-2-7.3-2c-2.2,0-4.2,0.4-6,1.3
		c-2.2,1.1-3.3,2.6-3.3,4.5c0,2.5,1.9,4.5,5.6,6c2.2,0.8,5.8,2.3,10.6,4.3c3.6,1.5,6.2,2.9,7.6,4.1
		C361.7,415.4,362.9,417.9,362.9,421z"/>
	<path fill="#FFFFFF" d="M414.6,418.5c0,2.3-1.4,5-4.1,8.3c-3.8,4.4-8.3,6.6-13.5,6.6c-6,0-10.8-2.5-14.3-7.5
		c-3-4.4-4.6-9.8-4.6-16.1c0-6.3,1.6-11.6,4.8-15.9c3.6-4.8,8.4-7.2,14.4-7.2c5.5,0,9.8,2.1,12.8,6.3c2.7,3.7,4,8.4,4,14.2
		c0,2.6-1.3,3.9-3.9,3.9H385c0.1,3.9,1,7.3,2.9,10.4c2.2,3.7,5.2,5.5,8.8,5.5c5.1,0,8.9-2.9,11.4-8.7c0.8-1.9,1.8-2.8,2.9-2.8
		C413.4,415.5,414.6,416.5,414.6,418.5z M407.4,403.1c0-2.6-1.1-4.9-3.2-6.9c-2.1-2-4.4-3-6.9-3c-3,0-5.6,1.2-7.9,3.6
		c-2.1,2.2-3.4,4.8-4,7.9h19.8C406.7,404.6,407.4,404.1,407.4,403.1z"/>
</g>
</svg>
