<?xml version="1.0" encoding="utf-8"?>
<!-- Generator: Adobe Illustrator 18.0.0, SVG Export Plug-In . SVG Version: 6.00 Build 0)  -->
<!DOCTYPE svg PUBLIC "-//W3C//DTD SVG 1.1//EN" "http://www.w3.org/Graphics/SVG/1.1/DTD/svg11.dtd">
<svg version="1.1" id="Layer_1" xmlns="http://www.w3.org/2000/svg" xmlns:xlink="http://www.w3.org/1999/xlink" x="0px" y="0px"
	 viewBox="0 0 1920 1080" enable-background="new 0 0 1920 1080" xml:space="preserve">
<g id="Ellipse_1_2_">
	<g>
		<circle fill-rule="evenodd" clip-rule="evenodd" fill="#FFFFFF" cx="960" cy="522.3" r="23.7"/>
	</g>
</g>
<g id="Ellipse_1_copy_2_">
	<g>
		<ellipse fill-rule="evenodd" clip-rule="evenodd" fill="#FFFFFF" cx="960" cy="710.2" rx="29.5" ry="29.7"/>
	</g>
</g>
<g id="Rounded_Rectangle_1_2_">
	<g>
		<path fill-rule="evenodd" clip-rule="evenodd" fill="#FFFFFF" d="M1160.4,126.7H759.6c-63.4,0-114.7,51.4-114.7,114.7v0.1
			c0,63.4,51.4,114.7,114.7,114.7h400.8c63.4,0,114.7-51.4,114.7-114.7v-0.1C1275.1,178,1223.8,126.7,1160.4,126.7z"/>
	</g>
</g>
<text transform="matrix(0.9957 0 0 1 758.0618 280.9422)" fill="#303238" font-family="'DFYuan-Md-HKP-BF'" font-size="150.3325" letter-spacing="20.1">Start</text>
<path fill-rule="evenodd" clip-rule="evenodd" fill="#FFFFFF" d="M1054.1,865.3l-3-3c-8.5-8.5-22.3-8.5-30.8,0l-60.9,60.9L899,862.8
	c-8.4-8.4-22.1-8.4-30.5,0l-2.7,2.7c-8.4,8.4-8.4,22.1,0,30.5l75.8,75.8l3,3l0.1,0.1c8.4,8.4,22.1,8.4,30.5,0l0.1-0.1l78.6-78.6
	C1062.5,887.6,1062.5,873.8,1054.1,865.3z"/>
</svg>
