<?xml version="1.0" encoding="utf-8"?>
<!-- Generator: Adobe Illustrator 18.0.0, SVG Export Plug-In . SVG Version: 6.00 Build 0)  -->
<!DOCTYPE svg PUBLIC "-//W3C//DTD SVG 1.1//EN" "http://www.w3.org/Graphics/SVG/1.1/DTD/svg11.dtd">
<svg version="1.1" id="Layer_1" xmlns="http://www.w3.org/2000/svg" xmlns:xlink="http://www.w3.org/1999/xlink" x="0px" y="0px"
	 viewBox="0 0 800 600" enable-background="new 0 0 800 600" xml:space="preserve">
<g>
	<g>
		<path fill="#FFFFFF" d="M15.4,262.2L15.4,262.2c7.8,10.6,12.4,23.7,12.4,37.8c0,14.1-4.6,27.2-12.4,37.8v0.1L80.9,300L15.4,262.2z
			"/>
	</g>
	<g>
		<path fill="#FFFFFF" d="M394.6,337.2c0,4.3-1.7,6.5-5.1,6.5c-3.5,0-5.3-2.2-5.3-6.5v-53.1c0-4.4-2-6.6-6-6.6c-3,0-5.8,1.3-8.1,4.1
			c-2.3,2.6-3.5,5.5-3.5,8.5v47.2c0,4.3-1.8,6.5-5.3,6.5c-3.6,0-5.4-2.2-5.4-6.5v-51.4c0-6-1.7-9.1-5-9.1c-2.3,0-4.9,1.5-7.7,4.7
			c-3.1,3.3-4.7,6.9-4.7,10.8v44.9c0,4.3-1.7,6.5-5.1,6.5c-3.6,0-5.4-2.2-5.4-6.5v-64.6c0-4.3,1.8-6.5,5.4-6.5
			c3.4,0,5.1,2.5,5.1,7.6c4-5.1,8.3-7.6,13-7.6c5.5,0,9.8,2.7,12.6,8.4c5-5.5,10.2-8.4,15.7-8.4c4.1,0,7.7,1.7,10.7,5.1
			c2.8,3.5,4.2,7.4,4.2,11.5V337.2z"/>
		<path fill="#FFFFFF" d="M487.9,305.1c0,10.7-2.3,19.5-6.9,26.4c-5.3,8.1-13.2,12.1-23.5,12.1c-10.3,0-18.3-4.1-24.1-12.1
			c-5-7.1-7.4-15.9-7.4-26.4c0-10.5,2.5-19.4,7.4-26.5c5.8-8.3,13.8-12.4,24.1-12.4c10.3,0,18.2,4.1,23.5,12.4
			C485.6,285.6,487.9,294.5,487.9,305.1z M476.4,305.1c0-7.2-1.5-13.4-4.4-18.7c-3.4-6.4-8.4-9.6-15-9.6c-6.7,0-11.8,3.2-15.2,9.6
			c-2.8,5.3-4.2,11.5-4.2,18.7c0,7.2,1.5,13.3,4.4,18.4c3.4,6.3,8.4,9.5,15,9.5c6.7,0,11.8-3.2,15.2-9.5
			C475,318.4,476.4,312.3,476.4,305.1z"/>
		<path fill="#FFFFFF" d="M562.9,274.6c0,2-1.8,3.5-5.5,4.7c-8.8,2.8-16.3,8.1-22.2,16.1v41.8c0,4.3-1.8,6.5-5.4,6.5
			c-3.5,0-5.3-2.2-5.3-6.5v-64.6c0-4.3,1.8-6.5,5.3-6.5c3.6,0,5.4,2.2,5.4,6.5v7.7c2.8-2.8,6.1-5.4,9.9-7.7
			c4.6-2.6,8.5-3.9,11.8-3.9C560.9,268.6,562.9,270.6,562.9,274.6z"/>
		<path fill="#FFFFFF" d="M648.7,319c0,3.8-2.3,8.4-6.9,13.7c-6.3,7.3-13.8,10.9-22.5,10.9c-10,0-18-4.1-23.8-12.4
			c-5.1-7.3-7.6-16.2-7.6-26.7c0-10.4,2.7-19.2,8-26.4c6-8,13.9-12,23.9-12c9.1,0,16.3,3.5,21.3,10.5c4.5,6.1,6.7,14,6.7,23.5
			c0,4.3-2.2,6.5-6.5,6.5h-42c0.1,6.4,1.7,12.1,4.8,17.2c3.7,6.1,8.6,9.2,14.6,9.2c8.5,0,14.8-4.8,19-14.5c1.3-3.1,2.9-4.7,4.8-4.7
			C646.6,313.8,648.7,315.5,648.7,319z M636.7,293.3c0-4.3-1.8-8.1-5.3-11.5c-3.4-3.3-7.2-5-11.5-5c-5,0-9.3,2-13.1,6
			c-3.5,3.6-5.7,8-6.6,13.1H633C635.5,295.9,636.7,295,636.7,293.3z"/>
	</g>
	<g>
		<path fill="#FFFFFF" d="M677.2,407.5H310.3c-59.2,0-107.4-48.2-107.4-107.4s48.2-107.4,107.4-107.4h366.9
			c59.2,0,107.4,48.2,107.4,107.4S736.4,407.5,677.2,407.5z M310.3,207c-51.3,0-93,41.7-93,93s41.7,93,93,93h366.9
			c51.3,0,93-41.7,93-93s-41.7-93-93-93H310.3z"/>
	</g>
</g>
</svg>
