<?xml version="1.0" encoding="utf-8"?>
<!-- Generator: Adobe Illustrator 18.0.0, SVG Export Plug-In . SVG Version: 6.00 Build 0)  -->
<!DOCTYPE svg PUBLIC "-//W3C//DTD SVG 1.1//EN" "http://www.w3.org/Graphics/SVG/1.1/DTD/svg11.dtd">
<svg version="1.1" id="Layer_1" xmlns="http://www.w3.org/2000/svg" xmlns:xlink="http://www.w3.org/1999/xlink" x="0px" y="0px"
	 viewBox="0 0 595.3 536.1" enable-background="new 0 0 595.3 536.1" xml:space="preserve">
<rect x="-647.3" y="-148.5" display="none" fill="#160C08" width="1920" height="800"/>
<g>
	<path fill="#374F4B" d="M166.6,128.5c-0.1,0-0.1,0-0.1-0.1C166.5,128.4,166.5,128.4,166.6,128.5z"/>
	<path fill="#374F4B" d="M381.2,152.3c0,0-0.1,1.4-0.2,1.4C381,153.7,381.1,152.3,381.2,152.3z"/>
	<path fill="#374F4B" d="M363.1,155C363.1,155,363.1,155,363.1,155c0.1,0,0.1,0,0.2,0C363.1,155,363.1,155,363.1,155z"/>
	<path fill="#374F4B" d="M360.9,155.1c0.1,0,0.1-0.1,0.1-0.1C361,155,361,155.1,360.9,155.1z"/>
	<path fill="#374F4B" d="M371.5,151.3c0.5-0.4,1.6-0.6,3-0.6C373.1,150.7,372,150.9,371.5,151.3z"/>
	<path fill="#374F4B" d="M398.7,133.5C398.6,133.5,398.6,133.5,398.7,133.5l-0.1,0C398.6,133.5,398.6,133.5,398.7,133.5z"/>
	<path fill="#374F4B" d="M396.5,132.9C396.5,132.9,396.4,132.9,396.5,132.9c0,0,0.1,0,0.2,0C396.6,132.9,396.5,132.9,396.5,132.9z"
		/>
	<path fill="#374F4B" d="M394.9,132.5c0.1,0,0.3,0.1,0.4,0.1C395.1,132.5,395,132.5,394.9,132.5z"/>
	<path fill="#374F4B" d="M394.6,132.4C394.6,132.4,394.6,132.4,394.6,132.4c0.1,0,0.1,0,0.2,0.1
		C394.8,132.4,394.7,132.4,394.6,132.4z"/>
	<path fill="#374F4B" d="M146.8,109.9c0-0.1,0.1-0.2,0.1-0.2C146.9,109.7,146.9,109.8,146.8,109.9z"/>
	<path fill="#374F4B" d="M147,109.6C147,109.6,147,109.6,147,109.6C147,109.6,147,109.6,147,109.6z"/>
	<path fill="#374F4B" d="M148.4,108.7c-0.3,0.2-1,0.4-1.4,0.9C147.4,109.1,148.2,108.9,148.4,108.7z"/>
	<path fill="#374F4B" d="M166.4,128.4c0.1,0.1,0.1,0.1,0.2,0.1C166.5,128.5,166.5,128.4,166.4,128.4z"/>
	<path fill="#374F4B" d="M386.4,137.6C386.4,137.6,386.4,137.6,386.4,137.6C386.4,137.6,386.4,137.6,386.4,137.6z"/>
	<path fill="#374F4B" d="M386.4,137.5C386.4,137.5,386.4,137.6,386.4,137.5C386.4,137.6,386.4,137.5,386.4,137.5z"/>
	<path fill="#374F4B" d="M386.4,137.5c0.3-0.2,0.6-0.3,0.9-0.3c-0.5,0-0.9,0.2-1.3,0.5c0.1-0.1,0.3-0.2,0.5-0.3
		C386.5,137.5,386.5,137.5,386.4,137.5z"/>
	<path fill="#374F4B" d="M201.7,406.8c-1.9-1.1-6-1.5-7.6-4.4c-1.6-2.9-6.2-5.8-7.8-5.1c-1.6,0.7-4.3,1.5-6.5-0.4
		c-2.2-1.8-5.7-4-7-5.5c-1.3-1.4-4.9-2.5-6.5-2.5c-1.6,0-1.4-1.5-3.8,2.9c-2.4,4.4,0,5.8-4.3,5.1c-4.3-0.7,0.5-1.1,3-5.5
		c2.4-4.4-0.3-6.9-3-5.8c-2.7,1.1-0.8,3.3-5.2,4.4c-4.3,1.1-4.3-2.6-1.6-3.3c2.7-0.7,7.6-4,7.6-5.5c0-1.5-0.5-5.5-2.7-5.5
		c-2.2,0-1.6-3.6-4.9-8.4c-3.3-4.8-7.3-7.7-10.6-6.9c-3.3,0.7-5.7,1.8-7.3-2.2c-1.6-4-3.5-4.8-4.6-6.9c-1.1-2.2-3.8,0-4.6-1.1
		c-0.8-1.1-0.8-1.1-0.8-1.1s-3.5,1.1-1.6-2.2c1.9-3.3,2.7-9.5,1.9-9.1c-0.8,0.4-2.2,5.5-3.5,5.1c-1.3-0.4-0.3-1.1-3-3.3
		c-2.7-2.2-7-0.4-7,1.5c0,1.8-1.4,3.3-1.4,3.3s-0.8-1.1-1.6-3.3c-0.8-2.2-4.6-2.5-6.5-0.4c-1.9,2.2-3-5.5-4.3-5.5
		c-1.4,0-4.1,1.8-5.4,5.1c-1.4,3.3-0.8,8-1.9,7.7c-1.1-0.4-1.4-6.6-1.1-8.8c0.3-2.2,3.3-5.8,1.1-6.6c-2.2-0.7-5.4,3.7-6.8,4
		c-1.4,0.4-4,2.9-5.7,5.8c-1.6,2.9-2.4,4.8-4.1,5.8c-1.6,1.1-4,0-3.5-1.1c0.5-1.1-4.6-5.1-5.4-3.7c-0.8,1.5-3.3,2.5-5.7,4
		c-2.4,1.5-4.6-1.8-5.1-3.3c-0.5-1.5-1.6-1.8-1.9-6.6c-0.3-4.8,0.6-9.9,1.4-12.8c0.8-2.9-4.1-8.8-6-8.4c-1.9,0.4-3.8,2.9-5.7,2.5
		c-1.9-0.4-1.1-1.1-4.1-1.1s-0.6-0.7,0-4s-1.1-7.7,1.9-10.6c3-2.9,1.9-9.9,0-10.2c-1.9-0.4-5.4,1.1-7.9,0.7
		c-2.4-0.4-4.3,2.6-3.5,5.8c0.8,3.3-1.4,5.5-2.2,5.1c-0.8-0.4-1.9-2.2-4.8,0.7c-3,2.9-4,1.8-7-1.5c-3-3.3-6.2-6.6-6.8-11.7
		c-0.5-5.1-0.8-10.2,0.3-13.2c1.1-2.9,1.1-8-0.6-8.8c-1.6-0.7,1.9-4.4,3.8-5.1c1.9-0.7,4.9-4,5.4-5.5c0.5-1.5,3.3-1.1,6.2-1.1
		c3,0,3.5,0,6.5,2.2c3,2.2,3.5-1.1,3.5-2.2c0-1.1,1.1-3.3,4.3-2.9c3.3,0.4,7.9-1.5,8.7-0.4c0.8,1.1,2.4,5.5,4,4
		c1.6-1.5,2.2-4,2.7,0.4c0.6,4.4,1.9,11,4.3,12.1c2.4,1.1,1.1,5.5,3.5,5.8c2.4,0.4,3.5-6.9,2.7-9.5c-0.8-2.5-2.4-10.2-3.8-12
		c-1.4-1.8-1.4-6.6,1.4-8c2.7-1.5,9.2-8.8,11.1-10.9c1.9-2.2,7-4,5.4-6.9c-1.6-2.9-2.2-4.8-2.2-6.9c0-2.2,1.6-1.5,2.4,0
		c0.8,1.5,4.1-2.2,3.2-4c-0.8-1.8-0.5-4.4,1.4-4c1.9,0.4,2.4-1.8,1.6-3.3c-0.8-1.5,1.9-3.3,3.8-2.6c1.9,0.7,6.8-0.4,7.6-1.8
		c0.8-1.5-1.6-2.9-1.6-5.8s3.3-5.5,5.1-5.8c1.9-0.4,4.3,0,4.6-1.1c0.3-1.1,3-4,3.2-1.5c0.3,2.6,0,6.9,2.2,6.9c2.2,0,4.9-3.3,5.7-3.6
		c0.8-0.4,6-1.8,7-2.2c1.1-0.4,7.6-1.1,6.8-3.7c-0.8-2.6-1.6-5.1-2.4-6.2c-0.8-1.1-1.6,0.4-2.7,2.2c-1.1,1.8-3,1.8-3.5,0.4
		c-0.5-1.5,0.3-5.8-1.6-4.4c-1.9,1.5-2.2,2.9-3.3,2.2c-1.1-0.7-2.2-3.3-2.2-3.3s2.7-1.8,0.8-5.1c-1.9-3.3-4.6-2.6-7.3-0.7
		c-2.7,1.8-2.4,1.4-5.7,2.5c-3.3,1.1-4.9,2.2-4.9,2.2s4.3-3.6,6.2-5.8c1.9-2.2,4.3-3.3,6-5.5c1.6-2.2,6,1.1,6,1.1s2.1-2.9,2.1-1.1
		c0,1.8-0.5,6.6,1.1,6.6c1.6,0,6.2-2.9,4.3-3.7c-1.9-0.7,2.7,0,4.6-1.8c1.9-1.8,4.1-1.8,5.1-2.6c1.1-0.7,1.9-4,3.8-4
		c1.9,0,2.7,3.3,0,5.5c-2.7,2.2-3,7.7-4.3,9.1c-1.4,1.5-0.5,3.3,1.6,2.9c2.2-0.4,4.1,0.4,6-0.4c1.9-0.7,3,0.7,3.5,1.8
		c0.5,1.1,2.2-1.1,2.2-1.1s3.5-1.1,4.6,0.7c1.1,1.8,1.9-1.1,1.1-2.9c-0.8-1.8-1.9-3.6-2.7-5.8c-0.8-2.2-1.9-2.9-4.1-2.2
		c-2.2,0.7-2.7-0.7-4.1-1.8c-1.4-1.1-2.4,1.5-1.4-1.1c1.1-2.6,1.6-3.3,2.4-5.5c0.8-2.2,4.3-6.2,0.8-7.3c-3.5-1.1-4.6-1.8-5.1-4
		c-0.5-2.2-4.6-6.2-5.7-6.2c-1.1,0-4.9,0-5.1-1.8c-0.3-1.8-3-5.8-4.4-7.7c-1.3-1.8-6.5-9.9-7.3-10.6c-0.8-0.7-1.9-0.4-4.3,4
		c-2.4,4.4-4.6,5.1-6.5,4c-1.9-1.1-2.2-0.7-4-3.7c-1.9-2.9,1.9-3.3,1.1-5.1c-0.8-1.8-5.1-2.6-7.8-2.9c-2.7-0.4-4.6-4.4-8.7-4.8
		c-4.1-0.4-8.9,0.7-10.3,0.7c-1.4,0-1.4,2.6-1.9,6.6c-0.6,4,1.9,5.1-0.6,5.8c-2.4,0.7-3.5,1.1-1.1,2.6c2.4,1.5,5.7,7.3,5.7,7.3
		s0,3.3-1.9,5.1c-1.9,1.8-3.8,3.7-4.9,1.5c-1.1-2.2-4.1-1.8-3.3,0.4c0.8,2.2,2.4,3.3,2.4,5.5c0,2.2,2.4,7.7,0.8,9.5
		c-1.6,1.8-3.5,0.4-4.9,0.7c-1.4,0.4-2.7-2.9-1.6-3.7c1.1-0.7-0.3-6.2-0.3-6.2s-3.3,6.2-3,2.9c0.3-3.3-1.3-3.7-1.3-6.2
		c0-2.6-1.6-3.6-4.1-2.9c-2.4,0.7-5.4-1.1-10-2.2c-4.6-1.1-6.5-1.8-10.3-4.4c-3.4-2.3-4.8-1.1-6.5-0.5C8.6,175.8,0,215.5,0,257.3
		c0,20.7,2.1,40.8,6.1,60.3c0,0,0,0,0,0c12.6,61,43.9,115.2,87.5,156.3c0,0,0-0.1,0-0.1c0,0,0,0.1,0,0.1c18.1,17,38.2,31.8,60,43.9
		c0.2-0.3,0.4-0.6,0.6-0.7c1.4-1.1,2.2,2.9,3.8-1.8c1.6-4.8,3.2-4.4,4.9-8.4c1.6-4-2.7-9.1,0.5-12c3.3-2.9,8.9-6.6,8.9-6.6
		s1.6-1.1,4.9-2.2c3.3-1.1,6.8-0.4,7.8-2.6c1.1-2.2,2.2-6.9,3.8-9.5c1.6-2.6,3.5-6.6,2.7-8.4c-0.8-1.8,2.1-9.8,1.9-12
		c-0.3-2.2-2.7-7.3,1.4-11.7c4.1-4.4,8.4-11,8.7-12.8c0.3-1.8,3.5-9.5,3.2-13.1C206.6,412.3,203.6,407.9,201.7,406.8z M62.4,203.9
		c0.6-0.4,1.3-0.8,1.9-1.2C63.7,203.1,63.1,203.4,62.4,203.9z M69.6,198.6c-0.5,0.2-0.9,0.4-1.2,0.6C68.7,199,69.1,198.8,69.6,198.6
		z M73.6,196.7c0.5-0.2,0.9-0.4,1.2-0.6C74.4,196.3,74,196.5,73.6,196.7z M72.9,193.1c-1.4,0-3,0.3-4,0.3
		C69.9,193.4,71.5,193.1,72.9,193.1z M67.8,193.2c-1.3,0.4-6.3,8.1-6.3,8.1s-4.9,2.5-5.2,3.6c-0.3,1.1-1.3,0-0.5,2.2
		c0.1,0.3,0.3,0.5,0.6,0.6c-0.3-0.1-0.5-0.3-0.6-0.6c-0.8-2.2,0.3-1.1,0.5-2.2c0.3-1.1,5.2-3.6,5.2-3.6S66.5,193.5,67.8,193.2z
		 M53.4,184.8c0.8-0.4,4.6-0.4,6.5,0c1.9,0.4,4.6,6.9,3.2,7.3c-1.3,0.4-3.5-1.4-3.5-4c0-2.6-1.9,4.7-0.8,6.9
		c1.1,2.2-2.1,4.7-3.2,4.7s-1.9-3.3-1.6-6.6c0.3-3.3-1.6-6.2-4.6-5.8c-3,0.4-4.3,3.6-5.4,4.7c-1.1,1.1-1.1,7.3-0.8,8.8
		c0.3,1.5,0.3,6.6-2.4,6.2c-2.4-0.4-1.9-6.6-1.6-8.8c0.3-2.2-0.8-7.7,0.3-10.6c1.1-2.9,4.3-4,6.5-4.4C48,183,52.5,185.2,53.4,184.8z
		 M32.2,175c3.5-1.8,7.3-6.9,8.9-4.8c1.6,2.2,4.6,4.8,6.5,5.1c0.5,0.1,0.7,0.4,0.7,0.9c0-0.5-0.2-0.8-0.7-0.9
		c-1.9-0.4-4.9-2.9-6.5-5.1C39.5,168,35.8,173.2,32.2,175c-3.5,1.8-4.6,1.1-4.6,4c0,0,0,0,0,0C27.7,176.1,28.7,176.8,32.2,175z
		 M64.2,381.6c1.6-1.1,3-5.8,4.1-5.8c0.2,0,0.4-0.1,0.5-0.4c-0.1,0.3-0.3,0.4-0.5,0.4C67.2,375.8,65.8,380.5,64.2,381.6
		c-1.3,0.9-4.4,4.4-5.4,6.7C59.8,386.1,62.9,382.5,64.2,381.6z M60.3,400.5c-0.6,1.3-1.7,2.8-2.4,4.4
		C58.7,403.3,59.8,401.8,60.3,400.5z M61.8,349.9c0,0.2,0.2,1.6-0.4,3.1C62,351.4,61.7,349.9,61.8,349.9
		C61.7,349.9,61.8,349.9,61.8,349.9z M42,338.2c0,0.3,0,0.5,0,0.8C42,338.7,42,338.4,42,338.2c0-0.3,0-0.5,0-0.8
		C42,337.7,42,337.9,42,338.2z"/>
	<path fill="#374F4B" d="M51.2,101.2c0,0,3.3-1.5,4.1-1.8c0.8-0.4,5.1-1.1,4.3-4.4c-0.8-3.3-3.5-3.3-4.3-4.4c-0.8-1.1,1.6-2.6,3-3.3
		c1.4-0.7,5.1,0,5.1,0s2.4,0.4,2.4-1.1c0-1.5-0.5-3.3,1.1-2.2c1.6,1.1,0,4.4,2.4,3.6c2.4-0.7,3,0,4.3,1.1c1.4,1.1-0.3,5.5-1.6,6.2
		c-1.4,0.7-3.5,2.2-0.5,2.6c3,0.4,5.1,0.4,5.1,0.4s1.9-2.6,2.7-4.8c0.8-2.2,2.2-0.7,3.3,0c1.1,0.7,5.1,1.8,1.4,3.3
		c-3.8,1.5-4.6,3.3-5.4,5.1c-0.8,1.8-1.1,2.9-4.6,1.8c-3.5-1.1-5.4-0.7-6.3,1.1c-0.8,1.8-0.3,7.7,1.1,6.9c1.3-0.7,2.7-0.7,4.3-1.5
		c1.6-0.7,8.1,0.7,9.7,0.4c1.6-0.4,4.3,3.6,5.1,2.9c0.8-0.7,2.5,1.5,4.1,2.9c1.6,1.5,1.1-3.3,4.1-0.4c3,2.9,1.4,2.9,3,2.9
		c1.6,0,5.2,0.4,5.2,0.4s0.3-3.6,3-2.9c2.7,0.7,5.1,4.8,4.9,1.8c-0.3-2.9,0.3-5.1-1.9-7.3c-2.2-2.2-5.7-3.7-6.2-4.7
		c-0.5-1.1-1.1-2.6-0.3-3.3c0.8-0.7,4.6,0.4,6.8,2.2c2.2,1.8,4.1,3.6,5.7,2.2c1.6-1.5,3.5-2.2,4.3-3.3c0.8-1.1,2.7-4.4,2.7-4.4
		s-8.1-1.4-9.2-3.3c-1.1-1.8-4.9-4.4-6-4.4c-1.1,0-4,2.5-5.1-1.1c-1.1-3.6-1.1-8-2.2-8.4c-1.1-0.4-12.4-2.6-14.1-3.6
		c-1.6-1.1-8.1-3.6-10.5-5.5c-2.4-1.8-6-4.4-8.1-4.4c-0.2,0-0.4,0-0.7,0c-8.2,9.9-15.6,20.4-22.5,31.4c0.1,0,0.2,0,0.4,0
		C48,100.1,51.2,101.2,51.2,101.2z"/>
	<path fill="#374F4B" d="M43.1,111.1c-2.4,2.5-1.1,2.9,0.8,2.9c1.9,0,5.4-2.6,5.4-2.6s4.3-2.6,5.4-0.4c1.1,2.2,1.1,4.4,3,4.4
		c1.9,0,6-2.9,2.4-5.5c-3.5-2.6-5.7-2.2-7.8-5.1c-2.2-2.9-1.6-1.8-4.1-1.1c-2.4,0.7-2.4-1.1-3.2-1.1c-0.5,0-1.2,0.2-1.8,0.1
		c-0.8,1.3-1.5,2.6-2.3,3.9C42.3,108.5,44.9,109.2,43.1,111.1z"/>
	<path fill="#374F4B" d="M50.4,116.8c-0.8,1.1,3.2,2.7,4,1.2C55.1,116.6,52.2,114.1,50.4,116.8z"/>
	<path fill="#374F4B" d="M60.9,119c-2.9,1.1-0.2,3.9,1.6,2.9C64.3,120.9,63.4,118,60.9,119z"/>
	<path fill="#374F4B" d="M267.9,103.9c-1.5-1.7-4.9-2.9-6.5-3.2c-1.6-0.2-3.2,1.7-6.8,1.7c-3.6,0-6,1.9-7.4,0
		c-1.4-2-7.4-2.9-7.9-1.7c-0.7,1.6-2.2,1.7-0.7,5.1c1.4,3.4,2.5,5.3,3.8,5.1c1.3-0.2,5.6-0.5,6.1,1.5c0.5,1.9,2,3.6,5.1,2.4
		c3.1-1.2,5.6-1.9,6.3-3.4c0.7-1.5,5.6-1.7,5.6-1.7S269.4,105.6,267.9,103.9z"/>
	<path fill="#374F4B" d="M162.4,121.1c0-0.1,0.1-0.2,0.1-0.3c0,0,0,0,0,0C162.5,121,162.5,121.1,162.4,121.1z"/>
	<path fill="#374F4B" d="M241.7,68.6c-0.2-3.9,0-8,1-10.2c1-2.2,3.1-3.7,2-4.4c-1.2-0.7-2.6,1-3.8-2.7c-1.2-3.7,1-6.3,2.3-7.8
		c1.3-1.4,8.3-10.9,12-12.4c3.8-1.5,6.5-7,3.8-8.3c-2.6-1.2-7.9-3.4-11.4,0.5c-3.5,3.9-5.4,7.6-9.4,6.3c-3.9-1.2-4.6-7.7-6.8-11
		c-3.3-4.8-1.3-14.3-4.7-13.6c-3.5,0.7-3.5,0.7-3.5,0.7s-4.1-1-6.6-0.3c-3.3,1-5.4,3.6-7.3,3c-3.7-1.1-7,1.5-7.9,1.8
		c-8.1,2.4-14.6-0.9-15.8-1.1c-0.9-0.2,5.7,1,10.8,0c3.9-0.8,10.5-2.6,13.8-3.3c3.2-0.7,0.6-2.5-0.5-2.6c-4.2-0.6-10.5-2.9-15.5-3.3
		c-3.9-0.3-6.5,1.3-10.4,1.5c-5,0.2-11-0.2-15,3c-3.5,2.9-7.9,3.2-8.3,3.7c-2,2.9-3.8,10.2-5.6,8.3c-1.8-1.9-2.1-6.8-4.5-4.9
		c-2.3,1.9-0.2,6.8-2.2,10.2c-2,3.4-7.6,2.9-9.2,1.7c-1.6-1.2-3.3-2.2-9.9-1.7c-6.6,0.5-13.9,3.4-12.4,6.3c1.5,2.9-3,4.6-4.1,3.2
		c-1.1-1.5-6.4,1.7-6.1,4.6c0.3,2.9-0.8,6.3-3.6,5.6c-2.8-0.7-4.8,1.7-5,4.1c-0.2,2.4-6.4,4.1-6.9,4.1c-0.5,0-8.6-0.2-5.6,2.7
		c2,2,3.1,0.7,5.6,1.5c2.5,0.7,4.5,6.1,5.8,6.8c1.3,0.7,3.1,0,4-1.5c0.8-1.4,1.8-5.9,2-6.5c0,0.6,0.1,4.9,2,5.8c2,1,6.9-0.7,8.2-0.5
		c1.3,0.2,9.1,1.7,11.2,3.2c2.1,1.5,7.4,2.5,8.9,5.6c1.5,3.2,1.6,14.1,2.5,15.4c0.8,1.2,3.6-3.8,4.3-5c0.7-1.2,4.1-0.4,5.3,1.3
		c1.1,1.7,3.6,5.8,3.6,7.6c0-0.1,0-0.2,0-0.3c0.2-1.7-2.5-5.8-3.6-7.5c-0.8-1.2-2.6-1.9-4-1.8c1.3-0.1,3.2,0.6,4,1.8
		c1.2,1.7,3.8,5.9,3.6,7.5c0,0.1,0,0.2,0,0.3c0,0,0,0.1,0,0.2c-0.1,1.5-0.5,4.1-1.3,4c0.8,0,1.1-2.5,1.3-4c0,0,0-0.1,0-0.2
		c-0.2,1.7-0.7,4.1-1.6,3.1c-0.7-0.7-1.8,0.1-2.1-0.1c0,0,0,0,0,0c0-0.2-0.1-0.6,0.1-1c0.7-2,1-4.6-0.3-4.6c-1.3,0-2.5,0-2.5,0
		s0,0,0,0c0,0-0.3,0-0.7-0.2c0,0,0,0.1,0,0.1c0,0,0,0,0,0c-0.1-0.1-0.3-0.1-0.5-0.1c0.1,0.1,0.2,0.2,0.3,0.2
		c-0.1-0.1-0.2-0.1-0.3-0.2c0.2,0,0.3,0.1,0.5,0.1c-0.2-0.1-0.5-0.2-0.8-0.3c-0.1,0-0.1,0-0.2-0.1c0.1,0,0.1,0.1,0.1,0.2
		c0,0,0,0,0,0c0-0.1-0.1-0.2-0.1-0.2c-0.1,0-0.3,0-0.4,0c0,0-0.1,0-0.1,0c0,0,0.1,0,0.1,0c-0.1,0-0.3-0.1-0.4,0
		c-0.7,0.1-1.9,0.5-2.5,1.9c-0.4,1-1.6,1.8-1.7,2.5c0,0.3-2,0.5-2,0.7c0,0,0,0,0,0c0,2.3,4.6,4.6,5.4,4.6c-0.2,0-0.4-0.3-0.6-0.6
		c0.2,0.3,0.4,0.2,0.6,0.2c0,0,0,0,0,0c0.5,0,1.4-0.7,2.1-0.7c0.7,0,1.2-0.4,1.5-0.3c-0.2-0.3-0.8-0.3-1.5-0.3c0.4,0,0.7,0,1,0.1
		c0.3,0.1,0.5,0.2,0.5,0.4c0,0,0,0,0,0c0,0,0-0.1-0.1-0.1c0,0,0.1,0.1,0.1,0.1c-0.3,1.2-2.7,3.7-2.6,5.3c0,0,0,0.1,0,0.1
		c0,0-0.1,0.1-0.1,0.1c0.2,1.7,2,7.4,2.7,8.7c0.6,1.2,3.6,2.4,4.6,2.6c0.2,0-0.9,0.1-1,0.2c-0.5,0.3-3.7,0.7-3.7,2
		c5.5,1.1,5.9,3.1,5.7,4.7c0,0.3-0.1,0.6-0.1,0.9c0,0.1,0,0.3,0,0.4c0,0.4,0.1,0.7,0.5,0.8c1.8,1,8,5.5,8.7,7.5
		c0.2,0.6,0.9,0.5,1.7,0.5c0,0,0,0,0,0c0,0,0,0,0,0c0,0,0,0,0,0c0,0,0-0.2,0-0.2c0.8,0.2,2-0.5,3-1.1c-0.9,0.5-1.9,1-2.7,1
		c0.8,0,1.8-0.6,2.7-1.1c0,0,0,0,0,0c0,0,0,0,0,0c0,0,0,0,0,0l0,0l0.1,0l0,0c0,0,0,0,0,0c0,0,0,0,0,0c0.3,0.2,0.4,0.3,0.5,0.5
		c0,0,0.1,0,0.1,0.1c0.1,0.2,0.3,0.4,0.6,0.6c-0.3-0.2-0.5-0.4-0.6-0.6c0,0,0,0-0.1-0.1c0,0,0,0,0.1,0.1c0.1,0.4,1.2,0.9,1.3,1.4
		c0-0.1-0.1-0.2-0.2-0.3c0.1,0.1,0.2,0.2,0.2,0.3c0.1,0.5,0.8,0.9,1,1.3c0,0.1,0.1,0.1,0.2,0.2c0,0,0,0,0,0c-0.1,0-0.2-0.1-0.2-0.1
		c-0.2-0.4-0.9-0.8-1-1.3c0.1,0.5,0.8,0.9,1,1.3c0,0,0,0,0,0c0,0,0,0,0,0c0,0,0,0,0,0c0,0,0,0,0,0c0.1,0,0.1,0.1,0.2,0.1
		c0,0,0,0,0,0c0,0,0,0,0,0c-0.1,0-0.1-0.1-0.2-0.1c0,0,0.1,0.1,0.2,0.1c0,0,0,0,0,0c0,0,0,0,0,0c0,0,0,0,0,0l0,0c0,0,0,0,0,0
		c0,0,0,0,0,0c0,0,0,0,0,0c0,0,0,0,0,0c0,0,0,0,0,0c0.3,0.5,0.7,0.8,1.2,0.9c0,0,0,0,0,0c0,0,0,0,0,0c0,0,0,0,0,0c0,0,0,0-0.1,0
		c0,0,0,0,0,0c-0.1,0-0.1-0.1-0.2-0.2c0,0,0,0,0,0c0,0,0,0,0,0c0,0,0,0,0,0c0,0,0,0,0,0c0,0,0,0,0,0c0,0,0,0,0,0c0,0,0,0,0,0
		c0.1,0,0.1,0.1,0.2,0.1c0,0-0.1-0.1-0.1-0.1c0.1,0,0.1,0.1,0.1,0.1c0,0-0.1-0.1-0.1-0.1c0,0,0.1,0,0.1,0.1c0,0,0,0,0,0c0,0,0,0,0,0
		l0,0c0,0,0.1,0,0.1,0.1c0,0,0.1,0.1,0.1,0.1c0,0,0.1,0,0.1,0l0,0l0.1,0.1c0.3,0,0.5,0,0.8,0c0,0,0,0,0,0c-0.2,0-0.5,0-0.8,0
		c0,0,0,0,0,0c0,0,0,0-0.1,0c2.3,0.2,3.1-0.5,5.1-2.7c0.1-0.1,0.2-0.3,0.3-0.4c1.5-1.9,1.2-2.7,1.3-4.7c0.1-1.6,0.1-1.2,1-1.2h0
		c0.3,0,0.7-2.2,1.2-2c0.5,0.2,1-0.8,1.4-0.9c0.3,0,0.6-0.2,0.8-0.4c0.7-0.6,1-1.9,0.9-3.3c0-0.1,0-0.2-0.1-0.2c0,0.2,0,0.3,0,0.4
		c0,0,0,0,0,0c0-0.1,0-0.3,0-0.4v0c0-0.1,0.1-0.2,0.1-0.3c-0.1-1.1-0.5-2.4-0.6-3.4c0,1.1,0.4,2.5,0.5,3.7c0,0.2,0,0.3,0,0.4
		c-0.1-1.2-0.5-2.7-0.5-3.8c0-0.2,0-0.3,0-0.5c0,0.1,0,0.1,0,0.2c0.1,1.1,0.5,2.3,0.6,3.5c-0.1-1.1-0.5-2.4-0.6-3.5
		c0-1.1,0.4-2,2-2.4c2-0.4,3.4-1.7,4.6-2.7c0.3-0.2,0.5-0.4,0.7-0.6c0.2-0.1,0.3-0.2,0.5-0.3c0.1,0,0.1-0.1,0.2-0.1
		c0.5-0.3,0.9-0.4,1.4-0.4c2.1,0,8.1,1.2,8.8,0c0.7-1.2,3.5-6.8,5.3-7.1c1.8-0.2,6.6-0.7,10.9-1.7c1.7-0.4,3.4-1.2,5-2
		c-1.6,0.8-3.3,1.6-5,2c-3.8,0.8-7.9,1.3-10.1,1.6c2.2-0.3,6.3-0.8,10.1-1.6c4.3-1,8.9-4.6,10.4-4.4c1.1,0.2,3.4,0.2,4-0.4
		c0,0,0.1-0.1,0.1-0.2c0,0.1-0.1,0.1-0.1,0.2c0.1-0.1,0.2-0.2,0.1-0.4c0-0.1-0.1-0.3-0.2-0.5c-1.1-1.5-2.8-4.9-5.3-4.9
		c-2.5,0-0.2-5.4,0.5-5.4c0.7,0,4,0.7,3.8,3.2c-0.2,2.4,1,5.6,4.3,4.6c3.3-1,2.8-4.6,2.1-5.6c-0.7-1-1.2-3.4-1.8-5.1
		c-0.7-1.7-0.5-3.9,3-4.4C237.1,70.1,241.9,72.5,241.7,68.6z M104.8,58.6c-1.8-0.9-2-5.2-2-5.8c0,0,0-0.1,0-0.1
		S102.9,57.7,104.8,58.6c0.5,0.2,1.2,0.3,1.9,0.3C106,59,105.3,58.9,104.8,58.6z M135.7,82.2c-0.8-1.2-1-12.2-2.5-15.3
		c-1.5-3.1-6.8-4.1-8.9-5.6c-2.1-1.5-9.9-2.9-11.2-3.2c-0.1,0-0.2,0-0.3,0c0.1,0,0.2,0,0.3,0c1.3,0.2,9.1,1.7,11.2,3.2
		c2.1,1.5,7.4,2.4,8.9,5.6C134.7,70.1,134.8,81,135.7,82.2c0.1,0.1,0.2,0.2,0.4,0.2C135.9,82.4,135.8,82.4,135.7,82.2z M169.9,127.6
		C169.9,127.6,169.9,127.6,169.9,127.6C169.9,127.6,170,127.6,169.9,127.6C170,127.6,169.9,127.6,169.9,127.6
		C169.9,127.6,169.9,127.6,169.9,127.6C170,127.6,170,127.6,169.9,127.6c0.1,0,0.1-0.1,0.1-0.1c0,0,0,0,0,0
		C170,127.5,170,127.6,169.9,127.6c0.4-0.3,0.7-0.6,1.1-0.9c-0.1,0.1-0.1,0.1-0.2,0.2c0,0,0,0,0,0c0.1,0,0.1-0.1,0.2-0.2
		c0,0,0,0,0,0c0,0,0,0,0,0C170.7,127.1,170.3,127.4,169.9,127.6C170,127.6,169.9,127.6,169.9,127.6z M172,125.7
		C172,125.7,172,125.7,172,125.7C171.9,125.7,171.9,125.8,172,125.7C171.9,125.8,171.9,125.7,172,125.7z M165.5,127.7
		C165.5,127.7,165.5,127.7,165.5,127.7C165.5,127.7,165.5,127.7,165.5,127.7z M166,128c0.1,0.1,0.1,0.1,0.2,0.1
		C166.1,128.1,166,128.1,166,128C166,128,166,128,166,128z M165.6,127.6c0,0,0.1,0.1,0.1,0.1c0,0,0,0,0,0c0,0,0,0,0.1,0v0l-0.1,0
		c0,0,0,0,0,0h0l0,0l0,0c0,0,0,0,0,0c-0.1-0.1-0.1-0.1-0.2-0.2c-0.1-0.2-0.2-0.4-0.3-0.6c0.1,0.2,0.2,0.4,0.3,0.6
		c0.1,0.1,0.1,0.1,0.2,0.2C165.6,127.6,165.6,127.6,165.6,127.6c0,0,0-0.1,0-0.1c0,0,0-0.1-0.1-0.1c-0.1-0.2-0.2-0.5-0.3-0.7
		c0.1,0.3,0.2,0.6,0.4,0.8C165.6,127.5,165.6,127.5,165.6,127.6z M164.4,124.8c-0.1-0.6-0.5-1-0.7-1.3l0,0c0,0,0,0,0,0h0
		C163.9,123.5,164.2,124.2,164.4,124.8c0.1,0.4,0.3,0.9,0.5,1.4c0,0.2,0.1,0.3,0.2,0.4c-0.1-0.1-0.1-0.3-0.2-0.4
		C164.7,125.7,164.5,125.2,164.4,124.8z M163.4,123.4L163.4,123.4C163.4,123.4,163.4,123.4,163.4,123.4c0,0,0,0.1,0,0.1
		c-0.1,0-0.3,0-0.3,0c0,0-0.1,0-0.1,0c-0.3,0-0.7,0-1.3,0c0,0,0,0,0,0c0,0,0,0.2,0,0.2c-0.1,0-0.2,0-0.3,0c0,0,0,0.1,0,0.1
		c-0.1,0-0.1,0-0.1,0c-0.4-0.2-0.8-0.3-1-0.4c0.2,0.1,0.5,0.3,0.9,0.4c0.1,0,0.1,0,0.1,0.1c0.1,0,0.2,0.2,0.3,0.3
		c0.6-0.3,1-0.6,1.3-0.6c0,0,0.1,0,0.1,0c0,0,0.2-0.1,0.3,0C163.4,123.5,163.4,123.4,163.4,123.4z M160.3,123.3
		C160.3,123.3,160.3,123.3,160.3,123.3C160.3,123.3,160.3,123.3,160.3,123.3L160.3,123.3z M160.7,123.3c0,0,0,0.3,0,0.3h-0.3
		c0,0,0-0.1,0-0.1c0,0,0-0.1,0-0.1l1.9,0c0,0,0.5,0,0.7,0c-0.2,0-0.7,0-0.7,0l-1.7,0L160.7,123.3z M162.2,119.5h0.9c0,0,0,0,0,0.1
		c-0.2,0.2-0.4,0.8-0.6,1.2c0,0,0,0,0,0c0,0,0,0,0,0.1c0,0,0,0,0,0c0,0,0.2,0,0.2,0c0.2-0.2-0.1-0.5,0.9-0.7c0,0,0,0,0,0
		c0-0.3,0.4-0.6,0.4-0.6c0,0-0.4,0.3-0.7,0.6c0.1,0.6,0.3,1.3,0.3,1.3c0,0,0.3,1.1,0.3,1.2c0,0.1,0.2,0.8,0.2,0.9
		c0,0.1,0.1,0.4,0.1,0.4c0.1,0.2,0.2,0.5,0.2,0.8c0,0.1,0,0.2,0.1,0.3c0-0.1,0-0.1-0.1-0.2c-0.1-0.3-0.1-0.4-0.2-0.7c0,0,0,0,0,0
		c0,0,0,0,0-0.1c0,0,0,0,0,0.1c0-0.1-0.1-0.2-0.1-0.2c0,0,0,0,0,0.1c0,0,0-0.1,0-0.1c-0.1-0.2-0.1-0.4-0.2-0.5c0,0,0,0,0,0
		c0,0,0,0.1,0.1,0.1c0,0,0-0.1,0-0.1c0,0,0-0.1,0-0.1c0-0.1,0-0.1-0.1-0.1l-0.2,0l-0.2,0v0l0.2,0c0,0,0.1,0,0.1,0c0,0,0.1,0,0,0
		c0,0,0,0,0,0c0,0,0,0,0,0c0,0,0,0,0,0c0,0,0,0-0.1,0c0,0,0,0,0,0c0,0-0.2,0.1-0.3,0.2c0,0,0,0,0,0c0,0,0,0,0,0
		c-0.1-0.1-0.2,0-0.3,0c0,0-0.1,0.2-0.2,0.2c0,0,0,0,0,0c0,0,0,0,0,0c0,0,0,0,0,0c0.1,0,0.1-0.2,0.2-0.2c0.1,0,0.2,0.1,0.3,0.3
		c0.1,0,0.2,0,0.3,0c0,0-0.2,0-0.5,0c0,0,0-0.2,0-0.2c-0.4,0-0.8-0.1-1.1-0.1c-0.1,0-0.2-0.1-0.2-0.1c0-0.1,0.1-1.6,0.2-1.6
		c-0.1,0-0.2,2-0.2,2c0,0,0,0,0,0c0.1,0-1.4-0.2-1.6-0.1c0,0,0-0.1,0-0.1c0.2-0.1,1.7-0.2,1.7-0.1c0,0,0.1-1.8,0.2-1.8
		c0.1,0,0.2-0.2,0.3-0.4c0,0,0,0,0,0c0,0,0,0,0,0c0,0,0,0,0,0c0,0,0,0,0-0.1c-0.3,0.3-0.3,0.5-0.3,0.5c0.1,0-1.6,1.8-1.6,1.9
		c0-0.3,0-3.7,0-3.7H162.2z M158.7,125.1c0,0-0.1,0-0.1-0.1c0,0-0.1,0-0.1-0.1c0,0,0,0,0,0c0,0,0,0,0,0c0,0,0,0,0,0c0,0,0,0,0,0
		c0,0-0.1-0.1-0.1-0.2c0,0,0-0.1-0.1-0.1c0,0,0-0.1-0.1-0.1c0,0,0,0,0,0c0,0,0,0,0-0.1c0,0,0,0,0,0c0,0,0,0,0-0.1c0,0,0,0,0,0
		c0,0,0,0,0,0l0,0c0,0,0,0,0,0c0,0,0,0,0,0c-0.1-0.2-0.2-0.4-0.4-0.6c0,0,0,0,0,0c-1.4-2.2-5.4-5.6-7-6.4c-1.8-1-3.1-5.1-4-6.8
		c-0.2-0.3-0.2-0.6-0.1-0.8c0,0,0,0,0,0c0.3-0.6,1.2-0.9,1.6-1.1c0,0,0,0,0,0c0.1-0.1,0.2-0.1-0.1-0.2c-1-0.2-4.5-1.5-5.1-2.7
		c-0.7-1.2-2.7-6.8-2.9-8.6c0,0,0,0,0,0c0,0,0,0,0,0c0-1.7,2.6-4.3,2.6-5.3c0-0.1-0.1-0.1-0.1-0.1c0,0,0,0,0,0c0,0,0,0,0,0
		c0-0.1,0.1-0.2,0.1-0.3c0-1-2.6-1-3.8-1c-0.8,0-1.5-1-1.5-2.7c0,0.1-0.1,0.2-0.1,0.3c0,1.9,0.8,3.3,1.5,3.3c-0.8,0-1.6-1.3-1.6-3.3
		c0-0.1,0-0.2,0.1-0.3c0-0.1,0-0.2,0-0.3c0,0.3,0,0.5,0,0.7c0,0,0,0,0,0c0-0.2-0.1-0.5,0-0.7c0-0.3,0.1-0.6,0.2-0.9
		c-0.1,0.3-0.2,0.6-0.2,0.9c0,0.1,0.1,0.2,0.1,0.3c0.1-0.7,0.3-1.7,0.7-2.5c0.5-1.2,1.2-1.9,1.8-2.1c-0.6,0.2-1.2,0.9-1.8,2.1
		c-0.4,0.8-0.6,1.8-0.7,2.5c0,1.7,0.7,2.7,1.5,2.7c1.2,0,3.8,0,3.8,1c0,0.1-0.1,0.2-0.1,0.3c0,0.1,0.1,0.1,0.1,0.1
		c0,1-2.7,3.6-2.6,5.3c0.2,1.8,2.3,7.4,3,8.7c0.6,1.2,4.1,2.4,5.1,2.7c0.3,0.1,0.2,0.1,0.1,0.2c-0.2,0.2-1.3,0.4-1.6,1.1
		c0,0,0,0,0,0c-0.1,0.2-0.1,0.5,0.1,0.8c0.8,1.7,2.2,5.8,4,6.8c1.6,0.9,5.6,4.3,7,6.4c0,0,0,0,0,0c0.1,0.2,0.3,0.4,0.4,0.6
		c0,0.1,0.1,0.2,0.2,0.3c0.1,0.3,0.3,0.3,0.5,0.3C158.9,125.2,158.8,125.1,158.7,125.1z M161.8,124C161.8,124,161.8,124,161.8,124
		C161.7,124,161.7,124,161.8,124C161.7,124,161.7,124,161.8,124c0,0,0.1,0,0.1,0.1C161.8,124,161.8,124,161.8,124z M162.4,124
		c0.1-0.1,0.2-0.1,0.4-0.2c0,0,0.1,0,0.1-0.1c0.1,0,0.1-0.1,0.2-0.1C162.9,123.7,162.6,123.8,162.4,124z M163.7,125.7
		C163.7,125.8,163.8,125.8,163.7,125.7C163.8,125.8,163.7,125.8,163.7,125.7z M166,128.1c-0.1,0-0.1-0.1-0.2-0.1
		C165.9,128,166,128,166,128.1L166,128.1L166,128.1z M166.5,128.3L166.5,128.3C166.5,128.3,166.5,128.3,166.5,128.3
		C166.5,128.3,166.5,128.3,166.5,128.3C166.5,128.3,166.4,128.3,166.5,128.3c-0.1,0-0.1-0.1-0.1-0.1c0,0,0,0,0,0
		C166.4,128.3,166.5,128.3,166.5,128.3L166.5,128.3z M166.5,128.3c0.1,0.1,0.2,0.1,0.3,0.1C166.7,128.5,166.6,128.4,166.5,128.3z
		 M168.8,128.2c-0.4,0.2-0.9,0.3-1.4,0.3C168,128.5,168.4,128.3,168.8,128.2c0.2-0.1,0.5-0.2,0.7-0.3c-0.1,0-0.2,0.1-0.3,0.1
		c0,0,0,0,0,0c0.1,0,0.2,0,0.2-0.1c0.1,0,0.1-0.1,0.2-0.1c0,0,0,0,0,0c-0.1,0.1-0.1,0.1-0.2,0.2C169.3,128,169,128.1,168.8,128.2z
		 M172,125.8c-0.3,0.3-0.5,0.5-0.7,0.7c0.1-0.1,0.2-0.2,0.3-0.3c-0.1,0.1-0.2,0.2-0.3,0.3c-0.1,0.1-0.2,0.2-0.3,0.3
		c0.1-0.1,0.2-0.2,0.3-0.3c0,0,0,0,0,0c0,0,0,0,0,0c0,0,0,0,0,0c0,0,0,0,0,0c-0.1,0.1-0.1,0.1-0.2,0.2c0.1-0.1,0.1-0.1,0.2-0.2
		C171.5,126.2,171.7,126,172,125.8c0-0.1,0.1-0.1,0.1-0.2c0,0,0,0,0,0C172.1,125.6,172,125.7,172,125.8z M178.3,108.8
		c0,0.1,0,0.1,0,0.2C178.3,108.9,178.3,108.8,178.3,108.8C178.3,108.8,178.3,108.8,178.3,108.8z M200.7,96
		C200.7,96,200.7,96,200.7,96C200.7,96,200.7,96,200.7,96z M197.6,100.5c0.8-1.4,1.8-3,2.7-4.1C199.4,97.5,198.3,99.1,197.6,100.5z"
		/>
	<path fill="#374F4B" d="M162.4,121.2C162.4,121.3,162.4,121.3,162.4,121.2C162.4,121.3,162.4,121.3,162.4,121.2z"/>
	<path fill="#374F4B" d="M162.4,121.1c0,0,0,0.1-0.1,0.1C162.4,121.2,162.4,121.2,162.4,121.1z"/>
	<path fill="#374F4B" d="M162.3,121.3C162.3,121.3,162.3,121.4,162.3,121.3C162.3,121.4,162.3,121.3,162.3,121.3z"/>
	<path fill="#374F4B" d="M222.6,89.3c-0.1,0-0.1,0-0.2,0C222.5,89.4,222.5,89.4,222.6,89.3z"/>
	<path fill="#374F4B" d="M222.4,89.4c-1.1,0.3-2.8,1.3-4.7,2.3C219.7,90.7,221.3,89.7,222.4,89.4z"/>
	<path fill="#374F4B" d="M222.6,89.3c0.1,0,0.1,0,0.2,0C222.7,89.3,222.7,89.3,222.6,89.3z"/>
	<path fill="#374F4B" d="M222.8,89.3c0.1,0,0.2,0,0.3,0C223,89.3,222.9,89.3,222.8,89.3z"/>
	<path fill="#374F4B" d="M223.1,89.3c1.1,0.2,3.4,0.2,4-0.4C226.5,89.5,224.2,89.5,223.1,89.3z"/>
	<path fill="#374F4B" d="M164.3,123.9c0-0.1-0.1-0.2-0.1-0.3C164.2,123.7,164.3,123.8,164.3,123.9z"/>
	<path fill="#374F4B" d="M140.3,83c0,0-0.1,0-0.1,0c0.1,0,0.3,0,0.4,0C140.5,83.1,140.4,83,140.3,83z"/>
	<polygon fill="#374F4B" points="141.7,83.5 141.6,83.5 141.6,83.5 	"/>
	<path fill="#374F4B" d="M140.8,83.2c0.3,0.1,0.6,0.2,0.8,0.3C141.4,83.4,141.2,83.2,140.8,83.2z"/>
	<path fill="#374F4B" d="M142.7,110.7C142.7,110.7,142.7,110.7,142.7,110.7c5,1.1,5.8,3.1,5.7,4.7
		C148.5,113.8,147.7,111.8,142.7,110.7z"/>
	<path fill="#374F4B" d="M164,123.2C164,123.2,164.1,123.2,164,123.2C164.1,123.2,164.1,123.2,164,123.2
		C164.1,123.2,164,123.2,164,123.2z"/>
	<path fill="#374F4B" d="M77.5,299.1c0.3-1.5-3-5.5-4.9-5.1c-1.9,0.4-5.9-2.6-8.1-5.1c-2.2-2.6-6.2-2.6-7.9-2.6
		c-1.6,0-8.1,2.6-8.1,2.6c-0.3,3.6,2.4,2.5,5.7,2.5c3.3,0,8.9-0.7,10,1.1c1.1,1.8,6,4.7,7.3,6.2C72.9,300.2,77.2,300.6,77.5,299.1z"
		/>
	<path fill="#374F4B" d="M69.3,282.3c3-0.7,1.4-4-1.1-3.7C65.8,279,66.4,283,69.3,282.3z"/>
	<path fill="#374F4B" d="M69.6,308.9c-2.5,0.6-1.9,7.1,1.1,5.9C73.7,313.6,72,308.3,69.6,308.9z"/>
	<path fill="#374F4B" d="M105.3,304.9c-2.5,0.6-1.9,7.1,1.1,5.9C109.4,309.6,107.8,304.3,105.3,304.9z"/>
	<path fill="#374F4B" d="M93.1,300.2c-2.2-0.7-4.6,0-6.2,0.4c-1.6,0.4-6.2,5.9-6.2,5.9s3,0.7,4.9,0.7c1.9,0,3,1.5,4.6,2.6
		c1.6,1.1,4.6-1.4,5.7-1.4c1.1,0,2.4,4.4,2.7-0.4C98.8,303.1,95.3,300.9,93.1,300.2z"/>
	<path fill="#374F4B" d="M467.2,339.3c-1.3,0.7-5.1,3.6-9.5,3.3c-4.3-0.4-2.4-5.1-2.7-7.3c-0.3-2.2-4.8-10.6-5.9-10.9
		c-1.1-0.4-4.3-4.8-5.7-9.1c-1.4-4.4-3.3-9.9-5.4-13.1c-2.1-3.3-3.5-10.9-5.7-16.1c-2.2-5.1-4.1-11.7-6-16.4c-0.5-1.2-1-2.3-1.5-3.3
		c0,0,0,0,0,0c-1.5-3.3-3-6-3.4-7.6c-0.3-1.1-0.8-3.4-1.7-5.2c-1.1,0.7-1.8,2.1-2.1,5.2c-0.5,5,2.5,7.6,4.7,8c-2.2-0.4-5.2-3-4.7-8
		c0.3-3.1,1.1-4.6,2.1-5.2c-0.9-1.9-2.1-3.3-3.7-2.8c-3.2,1.1-7.3,1.1-10,5.5c-2.7,4.4-3.8,4.7-4.3,3.3c-0.5-1.5,7.9-7.7,6.8-9.5
		c-1.1-1.8-7.6-1.1-11.1-1.1c-3.5,0-6.5-2.9-9.2-3.6c-2.7-0.7-6.2,3.6-8.9,7.3c-2.7,3.6-4.6,1.1-7,1.1s-7-4.7-7-4.7
		s-4.6-2.6-6.5-2.6c-1.9,0-5.7-4.8-6.8-4.8c-1.1,0-4.1-3.3-1.9-4.7c2.2-1.5,4.3,1.5,2.2-6.6c-2.2-8-7-6.2-8.9-5.1
		c-1.9,1.1-15.4,0.7-16.5,0.7c-1.1,0-8.9,3.7-11.3,5.1c-2.5,1.5-6.8,3.3-7.9,4c-1.1,0.7-6.8-1.5-9.2,0.4c-3.2,2.4-6.2,6.2-7,6.2
		c-0.8,0-3.2,2.6-4.9,8c-1.6,5.5,0.3,10.2-2.7,12c-3,1.8-8.4,5.8-10.6,8.8c-2.1,2.9-4.9,13.1-7.6,17.9c-2.7,4.8,0,9.1,0.5,12
		c0.5,2.9,2.4,8.4-0.5,13.5c-3,5.1-2.7,7.7-4.1,8c-1.3,0.4,1.4,1.8,1.9,5.5c0.5,3.7-2.4,7.3,2.7,10.6c5.1,3.3,7.6,6.2,8.9,10.6
		c1.4,4.4,8.1,11.7,8.1,11.7s4.9,5.8,7.3,8.4c2.4,2.6,3.2,1.1,3.8-1.4c0.5-2.6,3.8-2.9,7.6-2.9c3.8,0,6.5,1.1,10.3,0.4
		c3.8-0.7,7.6-4,9-4.8c1.3-0.7,6-4.7,9.5-1.8c3.5,2.9,3,6.9,4.9,9.5c1.9,2.6,5.2,1.1,7.6-1.5c2.4-2.5,1.4-1.4,4.3,0.7
		c3,2.2,4.3,4.4,1.6,7.7c-2.7,3.3-1.1,8.4-2.7,13.5c-1.6,5.1-1.4,5.8,1.6,8c3,2.2,8.4,15.7,10,18.3c1.6,2.5-0.5,9.8,1.4,14.2
		c1.9,4.4,3.8,7.3,1.6,9.5c-2.2,2.2-6,6.2-6.2,13.5c-0.3,7.3,1.1,12.4,2.1,15c1.1,2.6,3.8,9.5,5.1,12c1.4,2.6,3,8.8,3.3,12.8
		c0.3,4-0.5,8.8,0.8,11c1.4,2.2,2.2,5.5,4.6,8.4c2.4,2.9,3.3,9.1,3.3,9.1s0.8,2.6,1.1,6.6c0.3,4,0.6,6.6,3.3,8.4
		c2.7,1.8,4.6,2.2,5.9,0.4c1.4-1.8,8.1-2.2,11.7-1.8c3.5,0.4,7.6-2.2,11.1-5.5c3.5-3.3,8.7-12,10.5-14.6c1.9-2.6,6.2-7.3,5.7-10.2
		c-0.5-2.9-1.6-5.8,0.5-7.3c2.2-1.5,7.3-4.4,7.6-6.6c0.3-2.2-1.9-11.3-2.4-13.2c-0.5-1.8,1.4-5.1,3.5-8.8c2.2-3.6,8.9-6.2,10-7.7
		c1.1-1.5,4.1-7.7,4.6-12.4c0.6-4.7-1.1-10.6,0-13.1c1.1-2.6,0.3-4.8-2.2-7.7c-2.4-2.9-1.9-11.7-2.7-13.1c-0.8-1.5-0.3-9.1,1.4-9.8
		c1.6-0.8,5.1-8,7.3-11.3c2.2-3.3,8.4-13.5,11.4-14.2c3-0.7,7.6-6.6,7.8-9.9c0.3-3.3,8.1-15.7,8.4-18.2c0.3-2.6,3.5-12.1,2.1-14.3
		C479.1,333,468.6,338.5,467.2,339.3z"/>
	<path fill="#374F4B" d="M475.1,438.9c-3.4-1.3-3.8,4.8-6.5,8.8c-2.7,4-5.7,7.3-6.8,6.9c-1.1-0.4-7,2.5-5.1,8
		c1.9,5.5,1.6,11-0.3,13.5c-1.9,2.6,1.6,9.9,1.1,13.9c-0.5,4,0.8,6.6,4.6,6.6s5.1-1.8,6.8-6.6c1.6-4.8,1.9-9.5,3.5-13.5
		c1.6-4,3-12.4,3.8-14.6c0.8-2.2,2.5-9.1,2.2-13.1C478,444.8,477,439.7,475.1,438.9z"/>
	<path fill="#374F4B" d="M573.3,345.1c-1.8,1-3.3,13.5,0,15c3.3,1.5,5.1-5.8,4.1-7.7C576.3,350.6,575.8,343.6,573.3,345.1z"/>
	<path fill="#374F4B" d="M347.9,215.1c1.3-2.6-1.1-6.2-2.4-6.2c-2.6,0-3.8,5.5-2.2,7.3C344.9,218,346.5,217.7,347.9,215.1z"/>
	<path fill="#374F4B" d="M327.5,215.1c0.5-1.5-0.8-4.4-2.7-0.4C324.2,216.2,327,216.6,327.5,215.1z"/>
	<path fill="#374F4B" d="M363.6,228.3c1.1,0.4,4.6,0,3.5-3.7c-1.1-3.6-3.5-3.6-4.3-3.6c-0.8,0-4.3-1.1-5.7,0c-1,0.8,1.6,3.3,3,4
		C361.4,225.7,362.5,227.9,363.6,228.3z"/>
	<path fill="#374F4B" d="M287.5,165.8c2.2,0.4,4.6-1.8,6.5-2.9c1.9-1.1,4.6-3.3,4.6-6.6c0-3.3-0.5-6.2-1.6-7.7
		c-1.1-1.5-3-1.8-4.6-1.5c-2.5,0.6-2.7,4-4.3,4s-3.5,0.7-3,3.3c0.5,2.6,1.6,4.4,0,5.5C283.4,161.1,285.3,165.5,287.5,165.8z"/>
	<path fill="#374F4B" d="M300.8,150.1c2.7,1.5,8.4,2.9,6.2,4.4c-2.2,1.5-6,5.5-6.5,7.7c-0.5,2.2,4.6,4.4,4.6,4.4s-1.6,2.6-0.3,3.3
		c1.4,0.7,2.2-2.5,4.3-2.5c2.2,0,6.5,1.8,8.7,1.8c2.2,0,5.7-4,5.4-6.6c-0.3-2.6-3-6.6-5.4-8c-2.4-1.5-5.2-8-6.8-9.5
		c-1.6-1.5,1.6-5.1-0.3-7.7c-1.9-2.6-3.2-2.2-5.4-4c-2.2-1.8-4.1,0.4-5.4,2.6c-1.4,2.2-3-0.4-4.6,0.4c-2.2,1-1.4,4.7-0.3,6.6
		C296.2,144.7,298,148.7,300.8,150.1z"/>
	<path fill="#374F4B" d="M550.2,99.8c-0.4,0.2-5.7,3.5-7,3.3C544.5,103.3,549.9,100,550.2,99.8c-0.8-1.3-1.6-2.6-2.5-3.8
		c-0.1,0.2-0.3,0.4-0.4,0.5c-1.9,1.6-4.4,4.9-4.5,6.2c0,0.2,0,0.3,0.1,0.4c-0.1-0.1-0.1-0.2-0.1-0.4c0.1-1.3,2.6-4.6,4.5-6.2
		c0.2-0.1,0.3-0.3,0.4-0.5c-4.3-6.7-8.9-13.2-13.7-19.5c-0.5,0.7-1,1.2-2.2,1.4c-2.4,0.4-4.1,4.8,0,7.3c4.1,2.6,5.4,4.4,4.3,5.9
		c-1.1,1.5-5.7-0.7-5.7-0.7s-3.5-2.2-5.7-2.2c-2.2,0-4.9-1.8-7-2.2c-2.2-0.4-6.5-0.4-7.6,1.1c-1.1,1.5-3.8,5.8-6,4.4
		c-2.2-1.5-2.2-2.9-5.2-1.5c-3,1.5-5.9-1.1-7.6,1.1c-1.6,2.2-0.3,2.2-5.4,0c-5.1-2.2-4.1,1.5-8.9,2.6c-4.9,1.1-7.8-1.1-9.2,1.1
		c-1.4,2.2-3.2,6.2-4.1,3.6c-0.8-2.5,2.7-6.9,1.4-8.4c-1.4-1.5-7-0.7-7.9,0.4c-0.8,1.1-0.3,5.1,0.3,6.6c0.6,1.5,1.4,7.3-0.3,6.2
		c-1.6-1.1-1.3-4.8-3-4.4c-1.6,0.4-3.5,1.5-4.3,2.2c-0.8,0.7-4.1,0.7-4.9,2.2c-0.8,1.5,0.3,5.5-1.1,5.8c-1.3,0.4-2.4,1.8-5.4-0.7
		c-3-2.5-3-1.1-3.8-0.4c-0.8,0.7-4.6,3.7-4.9,0.4c-0.3-3.3,0.5-4.4-1.9-6.6c-2.4-2.2-0.5-2.2,2.7-0.7c3.2,1.5,7.3,2.2,13.3-0.4
		c6-2.5,8.4-3.6,6-5.1c-2.5-1.5-4.9-2.9-8.7-3.6c-3.8-0.7-8.9-0.7-14.9-3.6c-6-2.9-7.3-4-9.7-4.8s-17.3-4-24.1-2.6
		c-6.8,1.5-25.5,8-26.5,9.1c-1.1,1.1-2.7,5.5-6.2,9.1c-3.5,3.6-10,12-15.2,13.5c-5.1,1.5-11.1,7.3-11.1,8.8c0,1.5,2.2,6.9,1.6,8
		c-0.5,1.1,1.1,6.6,4.1,8c3,1.5,8.1,1.1,8.4-1.1c0.3-2.2,4.3-6.9,4.6-3.6c0.3,3.3,3,8.4,2.4,10.6c-0.5,2.2,0,4.4,1.9,4
		c1.9-0.4,11.9-3.3,11.9-3.3s3.3-1.8,2.7-4.7c-0.6-2.9,3.5-6.9,4.3-8c0.8-1.1,3.8-5.5,0.3-6.9c-3.5-1.5-6.2-1.8-2.4-6.2
		c3.8-4.4,6.2,0,11.1-6.6c4.9-6.6-1.1-8.4,4.1-8.8c5.1-0.4,10.5-0.7,9.5,1.5s-7.3,6.9-10.8,9.1c-0.9,0.6-1.5,1.2-1.9,1.9
		c0,0,0,0,0,0c0,0,0,0,0,0c0,0,0,0,0,0c0,0,0,0,0,0c0,0,0,0,0,0c-0.1,0.1-1.1,0.3-1.2,0.5c-0.2,0.5-1.6,1-1.6,1.6c0,0,0,0,0,0
		c0,0,0,0,0,0c0,0,0,0,0,0c0,0.2,1,0.4,1,0.6c0,0.2,0.6,0.3,0.6,0.5c0,0.1,0.1,0.2,0.1,0.3c0,0,0-0.1,0-0.1c0,0,0,0,0,0
		c0,0,0,0.1-0.1,0.1l0,0c-0.1,0.2-0.1,0.4-0.1,0.6c0,0.1-0.5,0.1-0.5,0.2c0,0.1-1.1,0.3-1.1,0.4c0,0,0,0,0,0c0,0.5,1.5,0.9,1.7,1.3
		c0.1,0.1,1.3,0.3,1.4,0.4c0,0,0,0,0,0c0,0-0.1-0.1-0.1-0.1c0,0,0.1,0.1,0.1,0.1c0,0,0,0,0,0c0,0,0,0,0,0c0,0.1,0.1,0.2,0.1,0.2
		c0-0.1-0.1-0.2-0.1-0.3c0,0,0,0,0,0c0.1,0.1,0.1,0.2,0.1,0.3c0,0,0,0,0,0.1c0,0.1,0.1,0.2,0.1,0.2c0,0,0,0,0,0
		c-0.1-0.2-0.2-0.4-0.3-0.6c0,0,0,0,0,0c0,0,0,0,0,0c0,0.1,0.2,0.4,0.3,0.5c0,0,0,0,0,0c0,0,0,0,0,0c0.5,1.1,1,2.4,1.5,3.6
		c0.1,0.2,0.2,0.3,0.2,0.5c0,0,0,0.1,0,0.1c0,0,0,0,0,0c0,0.1,0.1,0.1,0.1,0.2c0,0,0,0.1,0,0.1c0,0,0,0,0,0c0.1,0.1,0.1,0.2,0.2,0.3
		c0.1,0.1,0.1,0.2,0.2,0.3c0,0,0,0,0,0c-0.1-0.2-0.3-0.4-0.4-0.6c0.1,0.1,0.1,0.2,0.2,0.3c-0.1-0.1-0.1-0.2-0.2-0.3
		c0.1,0.1,0.2,0.3,0.3,0.4c0.1,0.1,0.1,0.2,0.2,0.2c0,0,0,0,0,0c0,0,0,0,0,0c0,0,0,0,0,0c0,0,0,0,0,0c0,0,0,0,0,0c0,0,0,0,0,0
		c0,0.1,0.1,0.1,0.2,0.2c0.1,0.1,0.1,0.2,0.2,0.2c0,0-0.1,0-0.1,0c0,0,0,0.1,0,0.1v-0.4l0,0v0.4l0,0v0c0,0,0,0,0,0c0,0,0,0,0,0v-0.4
		l0,0l0,0h0.2c0,0,0,0.3,0.1,0.4c0,0,0,0.1,0,0.1c0,0.1,0,0.2,0.1,0.3c0,0,0,0.1,0,0.1c0,0,0-0.1,0-0.1c0,0,0,0,0,0c0,0,0,0.1,0,0.1
		c0,0,0,0,0,0c0,0,0,0,0,0c0,0,0,0,0,0c0,0,0,0,0,0.1c0.1,0.2,0.2,0.5,0.2,0.6c0,0,0,0.1,0,0.1c0.2,0,0.3,0.4,0.5,0.6c0,0,0,0,0,0
		c0,0,0,0,0.1,0.1c0,0,0,0,0.1,0c0,0,0,0,0.1,0c0,0,0.1,0,0.1,0c0,0,0,0.1,0,0.1c2.4-0.7,5.4-1.3,8.1-1.3c0,0,0.5,0,0.5,0l0,0
		c0,0-0.4,0-0.4,0c0.2,0,2.4,0,2.4,0l0,0v-1.7c0,0.1,2.1-0.5,3.1-0.6c-0.1,0-0.2,0-0.3,0c0.1,0,0.1,0.2,0.1,0.2c0,0,0,0.1,0,0.1
		c0,0,0,0,0,0c0,0,0-0.1-0.1-0.1c0.3,0,0.6,0.1,0.9,0.1c0,0,0.1,0.1,0.1,0.1c0,0,0,0,0,0c0.1,0,0.2-0.1,0.3-0.1c0.1,0,0.2,0,0.2,0
		c0.1,0,0.3,0,0.4,0.1c0.1,0,0.2,0,0.2,0c0,0,0.1,0,0.1,0c0,0,0.1,0,0.1,0c-0.1,0-0.1,0-0.2-0.1c0.1,0,0.2,0,0.3,0.1
		c0.1,0,0.1,0,0.2,0c0.1,0,0.2,0.1,0.3,0.1c0.1,0,0.2,0,0.3,0.1c0.1,0,0.2,0.1,0.3,0.1l0,1.6c0,0,0,0,0,0c0,0,0,0,0-0.1
		c0,0.1,0,0.1,0,0.1c0,0,0,0,0,0c0,0,0,0,0,0c0.1,0,0.3,0,0.4,0l0,0l0,0c-0.6,0.3-1.1,1.5-1.8,1.5c-0.6,0-1.3,1.5-2.1,1.5
		c0,0,0,0,0,0c-0.3,0-0.6-0.1-0.9-0.1c-0.8,0-1.6,0-2.6,0.1c-3.4,0.3-7.2,0.3-8.9,0.8c0,0,0,0,0,0c-0.1,0-0.2,0.1-0.3,0.1
		c-0.3,0.1-0.5,0.3-0.5,0.5l0,0l0,0c0,0.3,0.7,0.8,1.4,1.3c-0.1,0.2-0.1,0.5-0.1,0.8c0,0,0,0,0,0c0,0,0,0,0,0c0,0,0,0,0,0
		c0,0,0,0,0,0s0,0,0,0.1c0,0.3-0.2,0.3-0.3,1.3h0c0,0,0.3-0.3,0.3-0.3v0.3l0,0v-0.3v0l-0.1,0l-0.1,0l0,0l0,0l0,0c0,0,0,0,0,0
		c0,0,0,0,0.1-0.1c0,0,0,0,0,0.1l0,0c0,0,0,0,0,0c0,0,0,0,0,0c0,0,0,0,0,0c0,0,0,0,0,0c0,0-0.1,0.1-0.1,0.1c0,0,0.1-0.1,0.1-0.1
		c0,0,0,0,0,0c-0.1,0.1-0.1,0.1-0.2,0.2c0,0,0,0,0,0c0,0.1-0.1,0.1-0.1,0.2c0-0.1,0.1-0.1,0.1-0.2c0,0,0,0.1-0.1,0.1c0,0,0,0,0,0
		c0,0,0,0,0,0c0,0,0,0,0,0c0,0,0,0,0,0c0,0-0.1,0.1-0.1,0.1c0,0,0,0,0,0c0,0,0,0,0,0.1c0,0,0,0,0,0c0,0,0-0.1,0-0.1c0,0,0,0,0,0
		c0,0,0,0,0,0c0,0,0,0.1,0,0.1c0,0,0-0.1,0-0.1c0,0,0,0.1-0.1,0.1c0,0,0,0,0,0c0,0,0,0,0,0c-0.1,0.2-0.3,0.4-0.3,0.4l-0.1,0
		c0,0,0,0,0,0l0.2,0c0,0,0.1,0,0.1,0c0,0,0,0.1,0,0.1c0,0,0.1,0.2,0.2,0.2h0.3c0-1,0-0.6,0-0.8c0-0.1,0.1-0.3,0.2-0.4l0.1-0.1v0
		c0,0.1-0.1,0.2-0.2,0.4c0,0,0,0,0-0.1c0-0.1,0-0.2,0-0.3l0,0l0,0.2l0,0.1h0.2l0,0h-0.2c0,0,0-0.1,0-0.1c0,0,0,0.1,0,0.1
		c0,0,0.2,0,0.2,0v-0.3c0,0-0.1,0-0.1,0c0,0.1-0.1,0.2-0.1,0.3c0-0.1,0-0.1,0.1-0.1c0,0,0,0.1-0.1,0.1c0,0,0.2,0,0.2,0v-0.3v0
		c0,0,0.1-0.1,0.2,0c0.2-0.6,0.4-1,0.7-1.3l-0.1,0c-0.3,0.3-0.8,0.7-0.8,1.3c0,0,0,0,0,0c0-0.1-0.2-0.1-0.2,0c0,0,0,0,0,0
		c0.1,0,0.2-0.1,0.3,0c0.1-0.2,0.1-0.4,0.2-0.5c0,0,0-0.1,0.1-0.1c-0.1,0.2-0.2,0.4-0.3,0.7c-0.1-0.1-0.2-0.1-0.3,0c0,0,0,0,0,0
		c-0.1,0.1-0.1,0.2-0.1,0.3c0,0.2,0,0.3,0,0.5c0-0.2,0-0.3,0-0.5c0,0,0.1,0,0.1,0.1c0,0.2,0.1,0.4,0.1,0.7c0,0,0,0.3,0,0.3h-0.6
		c0.1,0,0.2-0.1,0.3-0.1c0,0,0-0.1,0-0.1c-0.1,0-0.2-0.1-0.3-0.1c-0.1,0-0.1-0.1-0.2-0.1l0,0l-0.1,0l-0.1,0v0c0,0,0,0.1,1,0.1
		c0,0,0,0,0,0c-1-0.1-0.6-0.1-0.6-0.1l0.1,0c0,0-0.4,0,0.6,0.1c0,0.2,0,0.7,0,1.2c-1-0.4-2.7-1.1-4.2-1.1c0,0-0.1,0-0.1,0
		c0,0,0,0,0,0c-0.5,0-0.9,0.1-1.3,0.4c-0.3,0.2-0.5,0.4-0.8,0.8c0,0,0,0,0,0c0.2-0.3,0.5-0.6,0.8-0.8c0.1-0.1,0.2-0.1,0.3-0.2
		c-0.1,0.1-0.2,0.1-0.3,0.2c-0.3,0.2-0.6,0.5-0.9,0.9c-1.1,0.7-1.8,2.5-2.5,4.3c0,0,0.2,0.1,0.2,0.1c-0.3,0.8-0.5,1.7-0.7,2.4
		c-0.2,0.7-0.2,1.6-0.2,2.5c0-0.8-0.1-1.6,0-2.3c0.2-0.7,0.6-1.5,0.6-2.4c0,0,0,0,0,0c0,0.8-0.6,1.6-0.8,2.3
		c-0.2,0.7-0.2,1.5-0.2,2.3c0,0,0,0.1,0,0.1c0,0,0,0,0,0c0,0.8,0,1.6,0,2.3v0c0,0.2,0,0.3-0.1,0.5c0-0.1,0.1-0.3,0.1-0.5v0
		c0,0.5,0.1,0.8-0.1,1.1c0,0,0.1,0.1,0.1,0.1l0.1,0c-0.1,0.1-0.2,0.2-0.3,0.3c0.1-0.1,0.2-0.1,0.3-0.2c0,0,0,0,0,0
		c-0.1,0.1-0.2,0.2-0.3,0.2c0,0,0,0,0,0c0,0,0,0,0,0c0,0,0,0,0,0c-0.1,0-0.1,0-0.2,0.1c0,0,0-0.2,0-0.2c0,0-0.1-0.2-0.1-0.2
		c0,0,0,0,0,0c-0.1,0-0.2,0-0.3,0c0,0,0,0,0,0c0.1,0,0.2,0.2,0.3,0.2c-0.1,0-0.2,0.1-0.3,0.1c-0.4,0-0.8-0.1-1.3-0.3
		c-3-1.4-5.4-1.7-6.9-1.5c0,0,0,0,0.1,0c1.5-0.2,3.9,0.2,6.9,1.5c0.5,0.2,0.9,0.3,1.3,0.4c-0.4,0-0.8-0.2-1.3-0.4
		c-0.5-0.2-1-0.4-1.5-0.6c0.5,0.2,1,0.4,1.5,0.6c0.5,0.2,0.9,0.3,1.3,0.4c-0.4,0-0.7-0.1-1.2-0.4c-2.5-1.2-4.6-1.6-6.1-1.6
		c-0.9,0-1.7,0.2-2.1,0.4c-1.1,0.7-3.7,3.4-6.7,4.6v0.4c0,0-0.7,0-1.4,0c0.2,0,0.5-0.2,0.8-0.1c-0.5,0-1.2-0.2-1.8-0.2
		c0,0,0,0.1,0,0.1c0.2,0,0.9,0.2,0.9,0.2c-0.5,0-0.9,0-0.9,0c0,0,0,0,0,0c0,0,0,0,0,0c-0.2,0-0.5-0.2-0.8-0.3c0,0,0-0.1,0-0.1
		c-0.1,0-0.2-0.1-0.2-0.1c0,0,0.1,0,0.1,0c0,0,0-0.1-0.1-0.1c0.1,0,0.1,0.1,0.1,0.1c0,0,0-0.1-0.1-0.1c0,0,0,0.1,0.1,0.1
		c0,0,0,0,0,0l0,0c0.4,0.1,0.7,0.3,0.9,0.4c0.1,0,0.2,0.1,0.3,0.1c-0.1,0-0.2,0-0.3-0.1c0,0,0,0-0.1,0c-0.1,0-0.2-0.1-0.4-0.1
		c0,0-0.1,0-0.1,0c-0.2-0.1-0.4-0.1-0.6-0.2c0,0-0.1,0-0.1,0c-0.3-0.1-0.7-0.1-1.2-0.2c0.5,0,0.8,0,1.1,0.1
		c-0.3-0.1-0.7-0.3-1.1-0.3c-0.2,0-0.4-0.3-0.6-0.3c-3.5,0-3.5,0-3.5,0l-2.2-0.9c0,0,0,0.1,0,0.1c-0.2-0.4-2.1-3.4-2.4-6.1
		c0-2,0.5-4.2,0.3-5.5c0-0.6-0.1-1.2-0.6-1.4c-0.8-0.4-2.6-0.2-4.3,0.4c0.8-0.2,1.5-0.3,2.1-0.2c0,0,0,0,0,0c-0.6,0-1.3,0-2.1,0.2
		c-1.1,0.4-2.1,1-2.6,1.8c0.5-0.8,1.5-1.4,2.6-1.8c-1.4,0.4-2.9,1.2-3.3,2.3c-0.6,1.6-0.9,4.2-0.8,6.1c0.1,0.7,0.3,1.3,0.6,1.7
		c0.8,1.4,2.9,3.8,2.6,4.4c0,0.1-0.1,0.1-0.1,0.1c0,0,0,0,0,0c-0.2,0.1-0.5,0.1-1-0.1c-3-1.1-6.8-1.5-9,0.7
		c-0.9,0.9-2.2,2.4-3.3,3.7c-1.4,1.7-2.7,3.2-2.7,3.2s-6.8,0.7-6.8,2.9c0,2.2,0,5.1-2.4,5.5c-2.4,0.4-5.7,1.5-8.9,2.2
		c-3.2,0.7-3,2.6-6.8,2.9c-3.8,0.4-4.3,2.6-0.8,3.3c3.5,0.7,8.9,3.7,9.2,6.9c0.3,3.3-0.3,6.9-1.6,10.2c-0.9,2.3-6.5,0.7-9.8,0.7
		c-3.2,0-9.7-1.5-12.4,0c-2.7,1.5-2.2,8.8-1.4,12c0.8,3.3-0.3,5.1-1.3,6.2c-1.1,1.1-1.4,4.4,0,5.8c1.3,1.5,2.4,4.7,3.5,5.1
		c1.1,0.4,4.6-1.1,6,0.7c1.3,1.8,2.7,6.2,3.5,5.1c0.8-1.1,1.9-5.8,3.3-4.7c1.3,1.1,4.6-0.4,7-0.7c2.4-0.4,3.8-4,6.2-5.8
		c2.4-1.8,1.1-1.8,0.3-4c-0.8-2.2,2.4-4.7,4.3-7.3c1.9-2.6,5.4-0.4,6.2-3.3c0.8-2.9,1.1-8,3.2-7.7c2.2,0.4,5.1,2.2,7,2.2
		s6-4,7.1-4.7c1.1-0.7,5.1-0.4,5.7,2.9c0.5,3.3,5.1,7.3,6.2,8c1.1,0.7,8.1,3.7,9.2,4.7c1.1,1.1,2.7,4.4,3.2,7.3
		c0.5,2.9,2.4,2.9,2.7,0.4c0.2-2.6-1.4-7.3,0.5-6.9c1.9,0.4,4.1-0.7,4.1-0.7s-5.2-4.7-7.1-5.8c-1.9-1.1-5.4-3.3-7-6.9
		c-1.6-3.6-5.7-4.4-5.4-8c0.3-3.7,4.1-1.5,6.2,1.5c2.2,2.9,7.6,6.9,9.5,9.5c1.9,2.6,4.9,3.7,5.7,6.9c0.8,3.3,3.2,6.9,4.1,8.4
		c0.8,1.5,3.5,9.5,4.3,11.3c0.8,1.8,3.5-0.4,4.9-1.8c1.4-1.5,3.8-2.2,4.1-5.1c0.3-2.9-3.3-5.1-4.3-6.2c-1.1-1.1,2.7-2.2,4.1-3.7
		c1.3-1.5,3.8-4,4.8-1.8c1.1,2.2,0.6,11,1.1,12.4c0.6,1.5,6,3.6,7,5.5c1.1,1.8,5.7,2.6,6.5,1.5c0.8-1.1,5.1,0.7,6.2,1.1
		c1.1,0.4,4.3-0.7,6.5-1.5c2.2-0.7,4.3-2.9,4.1,1.8c-0.3,4.8-1.1,12-3.8,15.7c-2.7,3.7-1.6,5.5-4.3,5.5c-1.3,0-2.4,0-3.3,0.6
		c0.9,1.9,1.4,4.1,1.7,5.2c0.4,1.6,1.9,4.3,3.4,7.6c2.5-0.8,6.2-2.4,6.6-0.3c0.5,2.5,3.5,8,4.1,12c0.5,4,3.5,2.6,3.8,6.2
		c0.3,3.7,3,12.4,4.1,13.5c1.1,1.1,5.9,6.9,6.8,9.1c0.8,2.2,1.9,5.1,2.7,10.6c0.8,5.5,1.6,12.8,3.8,13.9c2.2,1.1,9.5-1.8,10.8-2.9
		c1.4-1.1,10.3-6.9,13.5-7.3c3.3-0.3,3.8-3.3,7.8-4.4c4.1-1.1,7-5.1,9.8-8c2.7-2.9,6-10.2,7-12.8c1.1-2.6,3.8-4.4,2.4-7.3
		c-1.4-2.9-7-7.3-9.2-7.7c-2.2-0.4-1.9-5.1-3.2-5.1c-1.4,0-1.1,2.6-3.8,4.4c-2.7,1.8-5.4,5.5-7.3,4.7c-1.9-0.7,0.5-2.5-2.4-5.8
		c-3-3.3-4.1-4-4.1-6.6c0-2.5-5.9-7.3-6.5-11c-0.6-3.7,4.1-8.8,5.4-5.5c1.4,3.3,2.4,8.4,5.9,10.6c3.5,2.2,6.8,5.8,8.4,6.6
		c1.6,0.7,5.6-4,7-3.3c1.4,0.7,4.1,7.3,6.5,8.4c2.4,1.1,10.5,1.5,11.9,1.5s7,0.4,8.1-1.8c1.1-2.2,1.9-2.2,3.2-2.2
		c1.3,0,3.8,6.6,5.7,7.3c1.9,0.7,5.4,0.4,5.1,5.1c-0.3,4.8,1.6,8.8,3.5,9.1c1.9,0.4,6.2-5.5,6.2-5.5s0,9.1-0.3,12.4
		c-0.3,3.3,3,15.3,3,15.3s4,11.3,5.1,13.9c1.1,2.6,5.7,10.2,5.7,13.5c0,3.3,0.5,8.4,2.2,8.4c1.6,0,3.2-5.8,5.1-9.5
		c1.9-3.6,2.4-8.8,3.3-12.4c0.8-3.7,0.8-10.2,0.8-12.8c0-2.6,1.6-4.8,5.4-6.9c3.8-2.2,6.5-8.4,9.7-11.7c1.8-1.9,2.6-4.3,4-6.2
		c1.6-12.6,2.6-25.5,2.6-38.6C595.3,199.4,578.8,145.5,550.2,99.8z M391.1,136.7C391.1,136.7,391.1,136.7,391.1,136.7
		C391.1,136.7,391.1,136.7,391.1,136.7C391.1,136.7,391.1,136.7,391.1,136.7C391.1,136.7,391.1,136.7,391.1,136.7z M349.4,140.8
		c-0.2,0-0.3,0-0.5,0c0,0,0,0,0,0C349.1,140.8,349.2,140.8,349.4,140.8z M342.8,149.5c-0.2-2,0.4-4.7,1-6.3
		C343.2,144.9,342.6,147.5,342.8,149.5c0-0.2,0-0.5,0-0.8C342.7,149,342.7,149.3,342.8,149.5c0.1,0.6,0.2,1.2,0.5,1.7
		c0.7,1.2,2.4,3.2,2.6,4.1c-0.2-0.9-1.8-2.9-2.6-4.1C343,150.8,342.8,150.2,342.8,149.5c0.1,0.7,0.2,1.3,0.5,1.8
		c0.6,1,1.9,2.5,2.4,3.5c-0.5-1-1.8-2.5-2.4-3.5C343,150.9,342.8,150.2,342.8,149.5z M346.7,147.6c0-2,2.6-4.1,2.5-5.5
		c-0.1-0.4,0.6-0.7,0.6-0.9c0.1,0.2-0.7,0.5-0.6,1C349.2,143.5,346.7,145.6,346.7,147.6C346.7,147.6,346.7,147.6,346.7,147.6
		C346.7,147.6,346.7,147.6,346.7,147.6C346.7,147.6,346.7,147.6,346.7,147.6z M391.7,134.3c0,0.1,0,0.1,0,0.2
		C391.6,134.5,391.6,134.4,391.7,134.3C391.6,134.4,391.7,134.4,391.7,134.3C391.7,134.3,391.7,134.3,391.7,134.3
		C391.7,134.3,391.7,134.3,391.7,134.3L391.7,134.3L391.7,134.3L391.7,134.3C391.7,134.3,391.7,134.3,391.7,134.3
		C391.7,134.3,391.7,134.3,391.7,134.3z M391.5,135.6C391.5,135.6,391.5,135.6,391.5,135.6C391.5,135.6,391.5,135.6,391.5,135.6
		C391.5,135.6,391.5,135.6,391.5,135.6C391.5,135.6,391.5,135.6,391.5,135.6z M391.5,135.4C391.5,135.4,391.5,135.4,391.5,135.4
		C391.5,135.4,391.5,135.4,391.5,135.4C391.5,135.4,391.5,135.4,391.5,135.4C391.5,135.4,391.5,135.4,391.5,135.4z M391.6,134.7
		c0-0.1,0-0.1,0-0.2C391.6,134.5,391.6,134.5,391.6,134.7C391.6,134.6,391.6,134.6,391.6,134.7z M391.5,135c0,0,0,0.1,0,0.1
		c0-0.1,0-0.2,0-0.2C391.6,134.9,391.5,134.9,391.5,135z M404.2,126.2C404.2,126.2,404.2,126.2,404.2,126.2L404.2,126.2
		c-0.1,0-0.1,0-0.1,0c-0.1,0-0.1,0-0.2,0c0,0-0.1,0-0.1,0c0.1,0,0.1,0,0.2,0c0,0,0,0,0.1,0c0,0,0,0,0,0L404.2,126.2l-0.1,0
		C404.1,126.2,404.1,126.2,404.2,126.2C404.2,126.2,404.2,126.2,404.2,126.2C404.2,126.2,404.2,126.2,404.2,126.2c0.5,0,1,0,1.3,0.1
		C405.2,126.2,404.7,126.2,404.2,126.2z M403.8,126.2c-0.7-0.1-1.3-0.3-2-0.3c0,0,0,0,0,0C402.5,125.9,403.2,126.1,403.8,126.2
		C403.8,126.2,403.8,126.2,403.8,126.2z M389,128.6C389,128.5,389,128.5,389,128.6c0-0.1-0.1-0.1-0.1-0.2c0,0,0-0.1,0-0.1
		c0-0.1-0.1-0.2-0.1-0.3c0,0,0,0,0,0c0,0,0,0,0,0h0c0,0,0,0,0,0c0,0,0,0,0,0h0c0,0,0,0,0,0c0,0,0,0,0,0c0,0,0,0,0,0
		c0,0,0,0.1,0.1,0.2C389,128.3,389,128.4,389,128.6C389.1,128.6,389.1,128.6,389,128.6C389,128.6,389,128.5,389,128.6
		C389,128.5,389,128.5,389,128.6z M391.7,134.1L391.7,134.1c0,0.1-0.1,0.1-0.1,0.2c0,0,0,0,0,0c0,0,0,0,0,0c0,0,0,0,0,0c0,0,0,0,0,0
		c0,0,0,0,0,0v0v0h0l0,0l0,0h0c0,0,0,0,0,0C391.7,134.2,391.7,134.2,391.7,134.1z M406.2,132.9C406.2,132.9,406.2,132.9,406.2,132.9
		c0.3-0.1,0.6-0.1,0.8-0.2c0.2-0.1,0.3-0.1,0.5-0.2c0,0,0,0,0,0c0.6-0.2,1.1-0.4,1.6-0.6c0,0,0,0,0,0c-0.5,0.2-1,0.4-1.6,0.6
		c-0.2,0.1-0.3,0.1-0.5,0.1c0,0,0-0.1,0-0.1c0,0,0,0,0,0c0,0,0,0,0,0C406.8,132.5,406.6,132.7,406.2,132.9
		C406.3,132.8,406.3,132.8,406.2,132.9C406.2,132.8,406.2,132.9,406.2,132.9z M389.2,129C389.2,128.9,389.2,128.9,389.2,129
		L389.2,129C389.2,128.9,389.2,128.9,389.2,129C389.2,128.9,389.2,128.9,389.2,129L389.2,129z M389.2,128.2
		C389.2,128.3,389.2,128.3,389.2,128.2L389.2,128.2L389.2,128.2C389.3,128.3,389.3,128.3,389.2,128.2
		C389.3,128.3,389.3,128.3,389.2,128.2C389.3,128.3,389.3,128.3,389.2,128.2C389.3,128.3,389.3,128.3,389.2,128.2
		C389.3,128.3,389.3,128.3,389.2,128.2C389.3,128.3,389.3,128.3,389.2,128.2C389.2,128.3,389.2,128.3,389.2,128.2L389.2,128.2
		L389.2,128.2L389.2,128.2C389.2,128.2,389.2,128.2,389.2,128.2C389.2,128.2,389.2,128.2,389.2,128.2c-0.1,0-0.1-0.1-0.1-0.1
		c0,0,0,0,0,0C389.1,128.2,389.2,128.2,389.2,128.2z M389.6,128.4C389.7,128.4,389.7,128.4,389.6,128.4
		C389.7,128.4,389.7,128.4,389.6,128.4z M389.6,128.4c-0.1,0-0.1,0-0.2,0c0,0-0.1,0-0.1,0c0,0,0.1,0,0.1,0c0,0-0.1,0-0.1,0
		c0,0,0,0,0,0c0,0,0,0,0,0c0,0,0,0,0,0c0,0,0,0,0,0c0.2,0,0.3,0.1,0.5,0.1c0,0,0,0-0.1,0C389.7,128.4,389.6,128.4,389.6,128.4z
		 M398.7,134.6C398.7,134.6,398.7,134.6,398.7,134.6C398.7,134.6,398.7,134.6,398.7,134.6c-2.2-0.4-4.1-1-5.5-0.2
		C394.5,133.6,396.5,134.1,398.7,134.6z M398.9,134.1c0.2,0,0.4,0,0.5-0.1c0.4,0,0.7,0.1,1.1,0c2.6-0.2,4.5-0.9,6.1-1.4
		c0,0,0-0.1,0.1-0.1c0,0,0,0,0,0c0,0,0,0,0,0c0.5,0,0.9-0.1,1.3-0.2c-0.2,0.1-0.4,0.2-0.6,0.2c0.2-0.1,0.4-0.1,0.6-0.1
		c-0.4,0.1-0.8,0.3-1.3,0.4c-1.6,0.6-3.5,1.1-6.2,1.3c-0.4,0-0.7,0-1.1,0C399.3,134.1,399.1,134.1,398.9,134.1
		C398.9,134.1,398.9,134.1,398.9,134.1C398.9,134.1,398.9,134.1,398.9,134.1z M409.7,130.2c0,0.1,0,0.1,0,0.1c0-0.1,0.1-0.1,0.1-0.2
		l0,0c0,0.1-0.1,0.1-0.1,0.2c0,0,0,0,0,0c0,0,0,0,0,0C409.7,130.3,409.7,130.2,409.7,130.2C409.7,130.2,409.7,130.2,409.7,130.2z
		 M409.9,130.2L409.9,130.2L409.9,130.2C409.9,130.2,409.9,130.2,409.9,130.2C409.9,130.2,409.9,130.2,409.9,130.2
		c-0.1,0-0.1,0-0.1,0c0,0,0,0,0,0C409.8,130.1,409.8,130.2,409.9,130.2C409.9,130.2,409.9,130.2,409.9,130.2
		C409.9,130.2,409.9,130.2,409.9,130.2z M409.8,130.1C409.8,130.1,409.8,130.1,409.8,130.1C409.8,130.1,409.8,130.1,409.8,130.1
		C409.8,130.1,409.8,130.1,409.8,130.1c0,0,0.1-0.1,0.1-0.1c0-0.1-0.1-0.3-0.1-0.7c0,0,0,0,0,0c0,0.3,0.1,0.6,0.1,0.7
		C409.9,130,409.9,130,409.8,130.1z M409.9,129.7C409.9,129.7,409.9,129.7,409.9,129.7C409.9,129.7,409.9,129.7,409.9,129.7
		C409.9,129.7,409.9,129.7,409.9,129.7z M409.8,128.4C409.8,128.4,409.8,128.4,409.8,128.4L409.8,128.4
		C409.8,128.4,409.8,128.4,409.8,128.4C409.8,128.4,409.8,128.4,409.8,128.4L409.8,128.4C409.8,128.4,409.8,128.4,409.8,128.4z
		 M409.7,128.4L409.7,128.4C409.7,128.4,409.7,128.4,409.7,128.4L409.7,128.4C409.7,128.4,409.7,128.4,409.7,128.4z M409.6,130.1
		C409.6,130.1,409.6,130.1,409.6,130.1C409.6,130.1,409.6,130.1,409.6,130.1C409.6,130.2,409.6,130.2,409.6,130.1
		C409.6,130.2,409.6,130.2,409.6,130.1C409.6,130.2,409.6,130.2,409.6,130.1C409.6,130.1,409.6,130.1,409.6,130.1
		C409.6,130.1,409.6,130.1,409.6,130.1C409.6,130.1,409.6,130.1,409.6,130.1z M409.5,130.6C409.5,130.6,409.5,130.6,409.5,130.6
		C409.5,130.6,409.5,130.6,409.5,130.6C409.5,130.6,409.5,130.6,409.5,130.6z M409.9,130.2L409.9,130.2
		C409.9,130.2,409.9,130.2,409.9,130.2C409.9,130.2,409.9,130.2,409.9,130.2z M410,128.7C410,128.7,410,128.7,410,128.7
		c0.1,0.2,0.2,0.5,0.2,0.7c0,0,0,0,0,0C410.1,129.2,410.1,129,410,128.7z M409.7,128c-0.2-0.3-0.4-0.7-0.6-1v0
		C409.4,127.4,409.6,127.7,409.7,128C409.7,128.1,409.7,128.1,409.7,128z M408.3,126.3C408.3,126.3,408.3,126.3,408.3,126.3
		c0,0-0.1-0.1-0.1-0.2c0,0,0,0,0,0C408.2,126.2,408.3,126.2,408.3,126.3z M409.4,130.8C409.4,130.8,409.4,130.8,409.4,130.8
		C409.4,130.8,409.4,130.8,409.4,130.8C409.4,130.8,409.4,130.8,409.4,130.8L409.4,130.8L409.4,130.8
		C409.4,130.8,409.4,130.8,409.4,130.8C409.4,130.8,409.4,130.8,409.4,130.8z M409.3,130.9C409.3,130.9,409.3,130.9,409.3,130.9
		C409.3,130.9,409.3,130.9,409.3,130.9C409.3,130.9,409.3,130.9,409.3,130.9L409.3,130.9z M409.2,131.1c0,0.1,0,0.1,0,0.2l0,0
		c0,0,0,0,0,0C409.1,131.2,409.2,131.2,409.2,131.1z M408.4,132.3c0.3-0.1,0.6-0.2,0.9-0.2c0,0,0,0,0,0
		C408.9,132.2,408.6,132.3,408.4,132.3C408.3,132.4,408.3,132.3,408.4,132.3z M410,130.1C410,130.1,410,130.1,410,130.1
		C410,130.1,410,130.1,410,130.1C410,130.1,410,130.1,410,130.1C410,130.1,410,130.1,410,130.1z M408.5,126.6
		C408.5,126.6,408.5,126.6,408.5,126.6c0,0-0.1-0.1-0.1-0.1C408.4,126.6,408.4,126.6,408.5,126.6
		C408.4,126.6,408.4,126.6,408.5,126.6c-0.3-0.2-0.6-0.3-0.8-0.5l0,0C407.9,126.3,408.2,126.4,408.5,126.6c-0.1,0-0.1-0.1-0.1-0.1
		c-0.3-0.2-0.5-0.3-0.7-0.4c0,0,0,0,0,0c0.2,0.2,0.5,0.3,0.7,0.4C408.4,126.6,408.4,126.6,408.5,126.6z M407.6,126.3
		C407.6,126.3,407.6,126.3,407.6,126.3c0,0.1,0,0.1,0,0.2c0,0,0,0,0,0C407.6,126.4,407.6,126.3,407.6,126.3z M407.6,132.5
		c-0.4,0.1-0.9,0.2-1.3,0.4C406.7,132.7,407.2,132.6,407.6,132.5z M404.2,133.4c0.3-0.1,0.7-0.1,1-0.2
		C404.9,133.2,404.6,133.3,404.2,133.4z M398.7,133.5C398.7,133.5,398.7,133.5,398.7,133.5c-0.1,0-0.1,0-0.1,0
		c-0.7-0.1-1.3-0.3-1.9-0.5c-0.5-0.1-0.9-0.3-1.3-0.4c-0.2-0.1-0.5-0.1-0.7-0.2c-0.1,0-0.2,0-0.3,0c-0.5-0.1-0.9,0-1.3,0.1
		c0,0-0.1,0-0.1,0c0,0,0.1,0,0.1,0c-0.1,0-0.1,0-0.2,0c0,0,0,0,0,0c0,0,0.1,0,0.1,0c0,0,0,0,0,0c0.1,0,0.1,0,0.2-0.1
		c0.1,0,0.2-0.1,0.4-0.1c0.1,0,0.2,0,0.3,0c0.1,0,0.3,0.1,0.4,0.1c0,0-0.1,0.1-0.1,0.1c0,0,0,0,0,0c0,0,0.1,0,0.1,0c0,0,0,0,0,0
		c0.1,0,0.2,0,0.3,0c0,0,0,0,0,0c0,0,0,0,0,0c0,0,0,0,0,0c0.2,0,0.4,0.1,0.6,0.1c0.2,0.1,0.4,0.1,0.6,0.1c-0.2-0.1-0.4-0.1-0.6-0.2
		c0.4,0.1,0.7,0.2,1.1,0.3c-0.1,0-0.3-0.1-0.4-0.1c0.1,0,0.3,0.1,0.4,0.1c0.3,0.1,0.7,0.2,1.1,0.3c0.2,0.1,0.4,0.1,0.6,0.1
		c0.2,0,0.3,0.1,0.5,0.1C398.6,133.5,398.6,133.5,398.7,133.5C398.6,133.5,398.6,133.5,398.7,133.5
		C398.7,133.5,398.7,133.5,398.7,133.5C398.7,133.5,398.7,133.5,398.7,133.5C398.7,133.5,398.7,133.5,398.7,133.5c0.1,0,0.2,0,0.3,0
		c0.2,0,0.3,0,0.5,0.1c0.1,0,0.1,0,0.2,0c-0.2,0-0.4,0-0.6-0.1C398.9,133.6,398.8,133.5,398.7,133.5z M392.7,132.7
		C392.7,132.7,392.7,132.7,392.7,132.7C392.7,132.6,392.8,132.6,392.7,132.7C392.8,132.6,392.7,132.7,392.7,132.7
		C392.7,132.7,392.7,132.7,392.7,132.7C392.7,132.7,392.7,132.7,392.7,132.7C392.7,132.7,392.7,132.7,392.7,132.7z M408.2,126.1
		c-0.1-0.1-0.2-0.3-0.3-0.4c0,0,0,0,0,0C407.9,125.8,408,125.9,408.2,126.1C408.2,126.1,408.2,126.1,408.2,126.1z M389.1,128.1
		C389.1,128.1,389.1,128.1,389.1,128.1C389.1,128.1,389.1,128.1,389.1,128.1C389.1,128.1,389.1,128.1,389.1,128.1z M388.9,127.9
		L388.9,127.9L388.9,127.9C388.8,127.9,388.8,127.9,388.9,127.9L388.9,127.9c0.1,0,0.1,0.1,0.2,0.2C389,128,388.9,128,388.9,127.9z
		 M390.1,128.3C390.1,128.3,390.1,128.3,390.1,128.3C390.1,128.3,390.1,128.3,390.1,128.3C390.1,128.3,390.1,128.3,390.1,128.3
		C390.1,128.3,390.1,128.3,390.1,128.3c-0.1,0-0.1,0-0.1,0C390,128.3,390.1,128.3,390.1,128.3c2.4-0.7,5.4-3.2,8.1-2.8
		c0.7,0.1,1.5,0.3,2.4,0.3c2.7,0,5.8,0,6.5,0c0.1,0,0.1,0.8,0.2,0.8c0,0,0,0,0,0c-0.1,0-0.1-0.6-0.2-0.7c0,0,0-0.1,0-0.1
		c0,0,0-0.2,0-0.2c0,0,0,0,0,0v0.1c-0.6,0-3.7,0.1-6.3,0.1c0,0-0.1,0-0.1,0c0,0,0.1,0,0.1,0c0,0-0.1,0-0.1,0c-0.9,0-1.7-0.2-2.4-0.3
		c-0.2,0-0.3,0-0.5,0C395.2,125.4,392.4,127.7,390.1,128.3z M400.3,126.8C400.3,126.8,400.3,126.8,400.3,126.8
		C400.3,126.9,400.2,126.9,400.3,126.8C400.2,126.9,400.2,126.9,400.3,126.8L400.3,126.8C400.2,126.9,400.3,126.9,400.3,126.8z
		 M400.3,126.5c0.3,0,1.6,0,2.3,0c0,0,0,0,0,0C401.9,126.5,400.6,126.5,400.3,126.5C400.3,126.5,400.3,126.5,400.3,126.5z
		 M407.4,126.7C407.4,126.7,407.4,126.7,407.4,126.7C407.3,126.7,407.3,126.7,407.4,126.7C407.3,126.7,407.3,126.7,407.4,126.7z
		 M408.7,129.3C408.7,129.3,408.7,129.3,408.7,129.3C408.7,129.3,408.8,129.3,408.7,129.3c-0.1-0.2-0.2-0.4-0.4-0.5c0,0,0,0,0,0
		c0.2,0.1,0.3,0.3,0.5,0.4c0.1-0.1,0.2-0.3,0.3-0.4C409,129,408.9,129.1,408.7,129.3c0.2,0,0.3,0.1,0.4,0.2c0,0,0,0,0,0c0,0,0,0,0,0
		C409,129.4,408.9,129.3,408.7,129.3C408.8,129.3,408.7,129.3,408.7,129.3C408.7,129.3,408.7,129.3,408.7,129.3
		c-0.2,0.2-0.4,0.5-0.5,0.7C408.3,129.8,408.5,129.6,408.7,129.3z M408.6,131c0.2,0,0.4,0,0.6-0.1c0,0,0,0,0,0
		C408.9,131,408.7,131,408.6,131C408.5,131,408.5,131,408.6,131c-0.1,0-0.1,0-0.1,0c-0.4,0.1-0.8,0.1-1.2,0.2c0,0,0,0,0,0
		C407.7,131.2,408.1,131.1,408.6,131z M407.2,131.2C407.1,131.2,407.1,131.2,407.2,131.2C407.1,131.2,407.1,131.2,407.2,131.2
		C407.2,131.2,407.2,131.2,407.2,131.2C407.2,131.2,407.2,131.2,407.2,131.2z M407.1,131.2C407.1,131.2,407.1,131.2,407.1,131.2
		c0,0-0.1,0-0.1,0C407,131.2,407.1,131.2,407.1,131.2z M406.9,131.2C406.9,131.2,406.9,131.2,406.9,131.2
		C406.9,131.2,406.9,131.2,406.9,131.2C406.9,131.2,406.9,131.2,406.9,131.2z M406.5,133l0.2-0.1c0,0,0,0,0,0
		c-1,0.2-1.8,0.4-2.8,0.5c0,0,0,0,0,0c0.7-0.1,1.2-0.2,1.8-0.3c0.2,0,0.4-0.1,0.5-0.1c0,0,0,0,0,0l0,0l0,0c-0.2,0-0.4,0.1-0.5,0.1
		c-0.6,0.1-1.2,0.2-1.9,0.3c0,0-0.1,0-0.1,0c-0.9,0.1-1.9,0.3-3.1,0.3c-0.3,0-0.6,0-0.9,0c0,0,0-0.1,0.1-0.1c0.3,0,0.6-0.1,0.9-0.1
		c0,0,0,0,0,0c0,0,0,0,0,0c0,0,0,0,0,0c0,0,0,0,0,0c1.2,0,2.2-0.1,3.1-0.3c1-0.1,1.8-0.1,2.6-0.3c0.2-0.2,0.4-1.4,0.7-1.4
		c0,0,0,0,0,0C406.7,131.5,406.7,132.7,406.5,133z M392.5,134.9c0,0,0.1-0.1,0.1-0.1c-0.3-0.2-0.6-0.5-0.8-0.7c0,0,0,0,0,0l0,0
		c0,0,0-0.1,0.1-0.1c0,0,0,0-0.1,0.1c0,0,0,0,0,0c0-0.1,0.1-0.3,0.2-0.4c-0.1,0.1-0.1,0.2-0.1,0.4c0,0,0.1,0,0.1-0.1
		c0.2-0.5,0.5-0.9,0.8-1.1c0,0,0,0,0-0.1c0,0,0,0,0,0.1c0,0,0,0,0,0c-0.3,0.2-0.6,0.6-0.8,1.1c0,0,0,0.1-0.1,0.1
		c0.2,0.2,0.5,0.5,0.8,0.7l0,0l0,0C392.5,134.8,392.5,134.9,392.5,134.9L392.5,134.9z M410.1,128.5
		C410.1,128.5,410,128.5,410.1,128.5c0.1,0.4,0.3,0.8,0.3,1.1c0,0,0,0,0,0.1c0,0,0-0.1,0-0.1c0,0,0,0,0,0c0,0,0,0,0,0
		c0,0.1,0,0.2-0.1,0.3c0,0,0,0,0,0c0.1-0.1,0.1-0.2,0.1-0.3C410.3,129.3,410.2,128.9,410.1,128.5C410,128.5,410,128.6,410.1,128.5
		C410,128.5,410,128.5,410.1,128.5L410.1,128.5c-0.3-1-0.4-1.1-1.4-1.6v0C409.7,127.4,409.8,127.5,410.1,128.5L410.1,128.5z
		 M398.2,125.3C398.2,125.3,398.2,125.3,398.2,125.3C398.2,125.3,398.2,125.4,398.2,125.3c0.7,0.1,1.5,0.2,2.4,0.2c0,0,0,0,0,0
		c-0.2,0-0.4-0.1-0.6-0.1c0.2,0,0.4,0,0.6,0c2.7-0.1,5.8-0.5,6.5-0.5c0.1,0,0.1,0.1,0.2,0.2c-0.1-0.1-0.1-0.1-0.2-0.1c0,0,0,0,0,0
		c0.1,0,0.2,0.1,0.3,0.2c0,0,0,0,0,0c0,0,0,0,0,0c0,0,0,0,0,0c0.1,0.1,0.2,0.3,0.3,0.4c0,0,0,0,0,0c0,0,0,0,0,0
		c-0.1-0.2-0.2-0.3-0.3-0.4c0,0,0,0,0,0c-0.1-0.1-0.3-0.1-0.3-0.1c-0.7,0-3.8,0.5-6.5,0.5c0,0,0,0,0,0
		C399.7,125.5,398.9,125.5,398.2,125.3c-0.7,0-1.4,0-2.1,0.2c0.5-0.2,1-0.1,1.6-0.1c0.2,0,0.3,0.1,0.5,0.1c0,0,0,0,0,0
		c-0.2,0-0.3-0.1-0.5-0.1C397.9,125.4,398.1,125.3,398.2,125.3z M384.5,119c0,0.1,0.1,0.2,0.1,0.3c0,0.2,0.2,0.3,0.2,0.5
		c0-0.2-0.2-0.3-0.2-0.5C384.6,119.2,384.5,119.1,384.5,119z M385.4,121c-0.2-0.3-0.3-0.7-0.4-1.1
		C385.1,120.4,385.2,120.7,385.4,121z M387,124.6c0.1,0.1,0.1,0.3,0.2,0.4c-0.1-0.2-0.2-0.5-0.3-0.7
		C386.9,124.4,387,124.5,387,124.6z M386,122.3C386,122.3,386,122.3,386,122.3c0.5,0.9,0.9,2.1,1.3,3.2
		C386.9,124.4,386.5,123.2,386,122.3c0.5,1,0.9,2.2,1.4,3.3c0,0,0,0,0,0.1c0-0.1-0.1-0.1-0.1-0.2c0,0.1,0.1,0.1,0.1,0.2
		c0,0,0,0,0,0.1C386.9,124.6,386.5,123.3,386,122.3z M388.8,127.9C388.8,127.9,388.8,127.9,388.8,127.9
		C388.8,127.9,388.8,127.9,388.8,127.9C388.8,127.9,388.8,127.9,388.8,127.9L388.8,127.9C388.8,127.9,388.8,127.9,388.8,127.9
		L388.8,127.9C388.8,127.9,388.8,127.9,388.8,127.9C388.8,127.9,388.8,127.9,388.8,127.9C388.8,127.9,388.8,127.9,388.8,127.9
		C388.8,127.9,388.8,127.9,388.8,127.9c0.1,0,0.1,0.1,0.2,0.2C388.9,128,388.9,128,388.8,127.9L388.8,127.9L388.8,127.9
		C388.8,127.9,388.8,127.9,388.8,127.9C388.8,127.9,388.8,127.9,388.8,127.9L388.8,127.9L388.8,127.9L388.8,127.9z M388.9,128.1
		C388.9,128.1,388.9,128.1,388.9,128.1c0,0,0-0.1,0-0.1c0,0,0,0,0,0C388.9,128.1,388.9,128.1,388.9,128.1
		C388.9,128.2,388.9,128.2,388.9,128.1C388.9,128.2,388.9,128.2,388.9,128.1z M403.5,126.2c0,0-0.1,0-0.1,0h0
		c-1,0.1-3.1,0.7-3.1,0.6c0,0,0.1,0,0.1,0c0.5-0.1,2.2-0.5,3-0.6c-0.1,0-0.3,0-0.4,0c0,0,0,0,0,0c-0.1,0-0.2,0-0.3,0
		c0.1,0,0.2,0.2,0.4,0.2c0,0,0.1,0.2,0.1,0.2c0,0,0,0,0,0c0,0,0,0,0,0c0,0-0.1-0.2-0.1-0.2c0.1,0,0.3-0.1,0.4-0.1
		C403.4,126.3,403.5,126.2,403.5,126.2c0.1,0,0.2,0,0.4,0c0,0,0,0,0.1,0C403.8,126.2,403.6,126.2,403.5,126.2z M404.3,126.2
		C404.3,126.2,404.3,126.2,404.3,126.2c-0.1,0-0.2,0-0.2,0c0,0,0,0,0,0C404.1,126.2,404.2,126.2,404.3,126.2c0.1,0,0.1,0,0.1,0l0,0
		C404.3,126.2,404.3,126.2,404.3,126.2c0.1,0,0.1,0,0.2,0c0,0,0,0,0,0C404.4,126.3,404.3,126.3,404.3,126.2z M404.5,126.3
		L404.5,126.3C404.6,126.3,404.6,126.3,404.5,126.3C404.6,126.3,404.5,126.3,404.5,126.3C404.5,126.3,404.5,126.3,404.5,126.3
		C404.5,126.3,404.5,126.3,404.5,126.3z M405.5,126.5c0.1,0,0.1,0,0.2,0c0,0,0.1,0,0.1,0C405.7,126.6,405.6,126.5,405.5,126.5z
		 M404.6,126.4c0,0,0,0.1-0.1,0.1h0c0,0,0,0,0,0c0,0,0,0,0,0C404.6,126.5,404.6,126.4,404.6,126.4
		C404.6,126.4,404.6,126.3,404.6,126.4l-0.1-0.1c0,0,0,0,0,0c0,0,0,0,0,0c0,0,0,0,0,0c0,0,0,0,0,0c0,0,0,0.1,0,0.1
		c0,0-0.1,0.1-0.1,0.1c0,0,0,0,0,0c0,0,0-0.1,0.1-0.1C404.5,126.4,404.6,126.3,404.6,126.4c0.5,0,1,0,1.5,0.1
		c-0.4-0.1-0.8-0.1-1.1-0.2c0.4,0.1,1,0.2,1.5,0.3c-0.1,0-0.3-0.1-0.4-0.1c0.4,0.1,0.8,0.2,1,0.2
		C406.4,126.6,405.6,126.5,404.6,126.4z M407.3,127.6C407.3,127.6,407.3,127.6,407.3,127.6C407.3,127.6,407.3,127.6,407.3,127.6z
		 M407.4,126.9c0,0,0,0.1,0,0.2C407.4,127,407.4,126.9,407.4,126.9z M406.5,131.2c0.1,0,0.3,0,0.4,0l0,0c0-0.1,0.1-0.2,0.1-0.2
		c0.2-0.1,0.3-0.2,0.5-0.3c-0.2,0.1-0.3,0.2-0.5,0.3c0,0-0.1,0.3-0.1,0.3c0,0,0,0.1,0.1,0.1c0,0,0,0,0,0c0,0,0,0-0.1,0l0,0
		c0,0,0,0,0,0c0,0,0-0.1,0-0.1c-0.1,0-0.3,0.1-0.4,0.1c-0.1,0-0.2,0.1-0.3,0.1c0,0,0,0,0,0s0-0.1,0-0.1c-0.3,0-0.5,0-0.8,0
		c0,0,0,0-0.1,0C405.7,131.3,406.1,131.3,406.5,131.2z M390.3,133L390.3,133c0,0.3,0.6,0.8,1.3,1.3c0,0,0,0,0,0
		C390.9,133.8,390.3,133.3,390.3,133z M391.5,135.2C391.5,135.2,391.5,135.2,391.5,135.2L391.5,135.2
		C391.5,135.2,391.5,135.2,391.5,135.2L391.5,135.2L391.5,135.2z M391.5,135.3L391.5,135.3c0,0.2-0.1,0.5-0.1,0.8c0,0,0,0,0,0
		C391.4,135.8,391.5,135.5,391.5,135.3z M392.5,135C392.5,135,392.5,135,392.5,135L392.5,135L392.5,135
		C392.5,134.9,392.5,134.9,392.5,135C392.5,134.9,392.5,134.9,392.5,135C392.5,134.9,392.5,134.9,392.5,135c0.1,0,0.1-0.1,0.1-0.1
		c0,0,0,0,0,0c0.4-0.3,0.9-0.5,1.5-0.5c1.7-0.1,4.1,1,6.4,0.8c4.3-0.3,6.7-2,8.8-2.8c0,0,0,0.2,0,0.2c-2.1,0.8-4.5,2-8.7,3
		c0,0,0,0,0,0h0c-2.3,0-4.7-1-6.4-1c1.5,0,3.5,0.7,5.5,0.7c-2-0.1-4-0.9-5.5-0.9c-0.3,0-0.6,0-0.8,0.1c-0.3,0.1-0.5,0.2-0.7,0.4
		c0.1,0.1,0.1,0.1,0.2,0.2c0,0,0,0,0,0c-0.1-0.1-0.1-0.1-0.2-0.2c0,0,0,0,0,0v-0.3h0c0.2,0,0.4-0.1,0.7-0.2s0.5-0.2,0.8-0.2
		c-0.6,0-1.1,0.4-1.5,0.4h0v0.3C392.7,134.9,392.6,134.9,392.5,135c0.1,0,0.1,0.1,0.2,0.1c0,0,0,0,0,0
		C392.7,135,392.6,135,392.5,135C392.5,135,392.5,135,392.5,135c0.1,0,0.1,0.1,0.2,0.1c0.1,0.1,0.2,0.2,0.3,0.3c0,0,0,0,0,0
		c-0.1-0.1-0.2-0.2-0.3-0.3c0,0,0,0,0,0C392.6,135.1,392.6,135,392.5,135C392.5,135,392.5,135,392.5,135
		C392.5,135,392.5,135,392.5,135z M382.4,151.1c-0.1,0.2-0.1,0.4-0.2,0.6c0,0,0,0,0,0c0,0,0,0.1,0,0.1c-0.2,0.3-0.5,0.4-0.9,0.5
		c0,0,0,0-0.1,0c0,0,0,0,0,0c0,0-0.1,0-0.1,0c0,0,0,0,0,0c0.5,0,0.8-0.1,1.1-0.5c0,0,0,0,0-0.1C382.2,151.6,382.3,151.4,382.4,151.1
		C382.4,151.1,382.4,151.1,382.4,151.1z M382.3,150.5C382.3,150.5,382.3,150.5,382.3,150.5C382.3,150.5,382.3,150.5,382.3,150.5
		c0,0.3-0.2,0.6-0.3,0.8c0,0,0,0.1,0,0.1l0-0.1C382.1,151.1,382.2,150.9,382.3,150.5z M382.2,150.8
		C382.2,150.7,382.2,150.7,382.2,150.8C382.2,150.7,382.2,150.7,382.2,150.8z M392.7,135.1c0.1,0.1,0.2,0.2,0.4,0.3c0,0,0,0,0,0
		C392.9,135.3,392.8,135.2,392.7,135.1C392.7,135.1,392.7,135.1,392.7,135.1z M392.7,135C392.7,135,392.7,135,392.7,135
		C392.7,135,392.7,135,392.7,135z M393.6,138.3c0.1,0.1,0.1,0.1,0,0.2C393.5,138.6,393.6,138.5,393.6,138.3z M385.7,138.3
		C385.7,138.3,385.7,138.3,385.7,138.3C385.7,138.3,385.7,138.3,385.7,138.3C385.7,138.3,385.7,138.3,385.7,138.3z M382.3,150.5
		C382.3,150.5,382.3,150.5,382.3,150.5C382.3,150.5,382.3,150.5,382.3,150.5C382.3,150.5,382.3,150.5,382.3,150.5
		C382.3,150.5,382.3,150.5,382.3,150.5z M386.6,138.4c0.1,0,0.2,0,0.4,0C386.9,138.3,386.8,138.4,386.6,138.4
		C386.6,138.4,386.6,138.4,386.6,138.4z M393.4,134.9c0.2,0,0.5,0,0.7,0c0.1,0,0.1,0,0.2,0c-0.1,0-0.2,0-0.3,0
		C393.8,134.9,393.6,134.9,393.4,134.9z M387.4,137.7c0,0,0.2,0,0.2,0c1.4,0.2,3,0.8,4,1.2c0,0,0,0,0,0c-1-0.3-2.6-1-4-1.2
		C387.6,137.7,387.5,137.7,387.4,137.7C387.5,137.7,387.4,137.7,387.4,137.7c-0.4-0.1-0.9,0.1-1.2,0.3c0,0,0,0-0.1,0
		C386.5,137.8,386.9,137.7,387.4,137.7C387.4,137.7,387.4,137.7,387.4,137.7z M385.6,138.4L385.6,138.4L385.6,138.4
		C385.6,138.4,385.6,138.4,385.6,138.4C385.6,138.4,385.6,138.4,385.6,138.4z M382.5,145C382.5,145,382.5,145,382.5,145
		c0,0.1-0.1,0.2-0.1,0.2c0,0,0,0.1,0,0.1c0,0,0,0,0,0c0,0,0-0.1,0-0.1c0,0,0,0,0,0c0,0,0,0,0,0C382.5,145.1,382.5,145.1,382.5,145z
		 M382.2,150.7C382.2,150.7,382.2,150.7,382.2,150.7c0,0.1-0.1,0.1-0.1,0.1c0,0.1-0.1,0.1-0.1,0.2c0,0,0,0,0,0c0,0,0,0,0,0
		c0,0,0,0,0,0c0,0,0,0,0,0C382.1,150.9,382.1,150.8,382.2,150.7z M381.9,151.5c0,0-0.1,0.1-0.1,0.1
		C381.8,151.5,381.9,151.5,381.9,151.5z M380.9,152.3C380.9,152.3,380.9,152.3,380.9,152.3C381,152.3,381,152.3,380.9,152.3
		C380.9,152.3,380.9,152.3,380.9,152.3C380.9,152.3,380.9,152.3,380.9,152.3c-0.1,0-0.2,0-0.3,0
		C380.7,152.3,380.8,152.3,380.9,152.3C380.9,152.3,380.9,152.3,380.9,152.3c-0.1,0-0.3,0-0.4-0.1c0,0,0,0-0.1,0
		C380.6,152.3,380.8,152.3,380.9,152.3z M378.9,151.7c0.1,0,0.1,0,0.2,0.1c-0.3-0.1-0.5-0.2-0.7-0.2c0,0,0,0-0.1,0
		C378.5,151.5,378.7,151.6,378.9,151.7z M380.1,152.1c0,0,0.1,0,0.1,0C380.2,152.2,380.2,152.2,380.1,152.1c0.1,0,0.1,0,0.1,0
		c0,0,0,0,0,0c0,0,0,0,0,0c0,0,0,0,0,0c0,0,0,0,0,0c-0.2,0-0.4-0.1-0.7-0.2C379.8,152.1,379.9,152.1,380.1,152.1z M379.7,151.9
		c0.2,0.1,0.3,0.2,0.5,0.2c0,0,0,0-0.1,0C380,152.1,379.9,152.1,379.7,151.9c-1.9-0.8-3.6-1.2-4.9-1.3c-0.1,0-0.3-0.1-0.4-0.1
		c0,0,0,0,0,0C375.8,150.5,377.6,151,379.7,151.9z M374.5,150.7C374.5,150.7,374.5,150.7,374.5,150.7
		C374.5,150.7,374.5,150.7,374.5,150.7C374.5,150.7,374.5,150.7,374.5,150.7z M376.5,151C376.5,151,376.5,151,376.5,151
		C376.5,151,376.5,151,376.5,151C376.5,151,376.4,151,376.5,151C376.4,151,376.5,151,376.5,151z M374.4,150.7c-0.2,0-0.4,0-0.6,0
		c-1.1,0-1.9,0.3-2.4,0.6c-0.8,0.6-2.9,2-5,3.1c0,0,0.1-0.1,0.1-0.1c2.1-1.1,4.1-2.5,4.9-3C372,150.9,373,150.6,374.4,150.7z
		 M363.6,155.7C363.6,155.7,363.6,155.7,363.6,155.7c-0.2,0.1-0.4,0.1-0.6,0.1c0,0-0.1,0-0.1,0c0,0,0,0,0.1,0c0,0,0,0,0,0
		c0,0,0,0,0,0c0,0,0,0,0,0h0c0,0,0,0,0,0c0,0,0.1,0,0.2,0C363.2,155.7,363.3,155.7,363.6,155.7C363.5,155.7,363.5,155.7,363.6,155.7
		z M362.9,155.8C362.9,155.8,362.9,155.8,362.9,155.8C362.9,155.8,362.9,155.8,362.9,155.8L362.9,155.8
		C362.9,155.8,362.9,155.8,362.9,155.8z M364.6,155.2C364.6,155.2,364.6,155.2,364.6,155.2c-0.1,0-0.2,0.1-0.2,0.1
		c-0.1,0-0.1,0-0.2,0.1c0,0-0.1,0-0.1,0c0.1,0,0.2-0.1,0.2-0.1C364.4,155.3,364.5,155.3,364.6,155.2
		C364.6,155.2,364.6,155.2,364.6,155.2c-0.1,0-0.2,0.1-0.2,0.1C364.4,155.3,364.5,155.3,364.6,155.2z M364.7,155.2L364.7,155.2
		C364.7,155.2,364.7,155.2,364.7,155.2C364.7,155.2,364.7,155.2,364.7,155.2L364.7,155.2C364.7,155.2,364.7,155.2,364.7,155.2z
		 M364.7,155.2C364.7,155.2,364.6,155.2,364.7,155.2C364.7,155.2,364.7,155.2,364.7,155.2L364.7,155.2
		C364.7,155.2,364.7,155.2,364.7,155.2z M363.6,155.6C363.5,155.6,363.5,155.6,363.6,155.6C363.5,155.6,363.5,155.6,363.6,155.6
		c-0.3,0.1-0.4,0.1-0.6,0.2c0,0,0,0,0,0h0c0,0,0,0,0,0c0,0,0,0,0,0c0,0,0,0,0.1,0c0,0,0.1,0,0.1,0c0,0-0.1,0-0.1,0c0,0,0,0,0,0
		c-0.1,0-0.1,0-0.1,0c0,0,0,0,0,0c0,0,0,0,0,0c0,0,0,0,0,0c0,0,0,0,0,0c0,0,0,0,0,0c0,0,0,0,0,0c-0.1,0-0.1,0-0.2,0
		c0.1,0,0.2,0,0.4,0C363.1,155.7,363.3,155.7,363.6,155.6z M364.4,155.4c0,0-0.1,0-0.2,0C364.3,155.4,364.3,155.4,364.4,155.4
		c0.1-0.1,0.1-0.1,0.2-0.1c0,0,0,0,0,0C364.5,155.3,364.5,155.3,364.4,155.4c0.1-0.1,0.1-0.1,0.2-0.1c0,0,0.1,0,0.1,0v0c0,0,0,0,0,0
		v0C364.6,155.3,364.5,155.3,364.4,155.4z M364.7,155.2L364.7,155.2C364.7,155.2,364.7,155.2,364.7,155.2L364.7,155.2
		C364.7,155.2,364.7,155.2,364.7,155.2z M371.4,150.5c-0.7,0.5-2.2,1.8-3.9,3C369.2,152.3,370.7,151,371.4,150.5
		C371.4,150.5,371.4,150.5,371.4,150.5z M363.7,155.5c0,0-0.1,0-0.1,0c0,0,0,0,0,0C363.6,155.5,363.6,155.5,363.7,155.5z
		 M380.9,155.5C380.9,155.5,380.9,155.5,380.9,155.5C380.9,155.5,380.9,155.5,380.9,155.5c-0.4,0-0.8-1.7-1.4-2
		c-0.4-0.2-0.8-0.6-1.1-0.8c-0.3-0.2-0.7-0.6-1-0.7c0,0,0,0-0.1-0.1c-0.1,0-0.1-0.1-0.2-0.1c-0.1-0.1-0.2-0.1-0.3-0.1
		c-0.1-0.1-0.1-0.4-0.2-0.4c-0.8-0.2-1.6-0.5-2.3-0.5c-1.4,0-2.4,0.1-3,0.5c-0.9,0.6-3.4,2.2-5.8,3.4c0.1-0.1,0.3-0.2,0.4-0.3
		c0.4-0.2,0.7-0.4,1.1-0.6c-0.3,0.2-0.7,0.4-1,0.6c0,0,0,0,0,0c2.2-1.1,4.4-2.6,5.3-3.2c-0.7,0.5-2.4,1.6-4.2,2.6
		c1.8-1,3.5-2.2,4.3-2.7c0.5-0.4,1.6-0.6,3-0.6c-0.5,0-1,0-1.4,0.1c0,0,0,0,0,0c0.4-0.1,0.9-0.1,1.4-0.1c0.2,0,0.4,0,0.6,0.1
		c0.1,0,0.2,0,0.2,0c0,0-0.1-0.2-0.1-0.2c0,0,0.1-0.1,0.1-0.1c0,0,0,0,0,0c0,0,0,0,0,0c0,0,0,0,0,0c0,0,0,0,0,0c0,0,0-0.1,0-0.1
		c0.4,0.1,0.9,0.1,1.4,0.1c0,0,0,0,0,0c0,0,0,0,0,0h0c0,1,0,0.3,0.1,0.3c0,0,0.1,0.1,0.1,0.2c0,0,0.1,0.1,0.1,0.1
		c-0.1,0-0.1,0-0.2,0c0,0,0,0,0,0c0.1,0,0.1,0,0.2,0.1c0,0,0,0,0,0c0.1,0,0.2,0.1,0.3,0.1c0.6,0.2,1.3,0.4,2,0.7
		c0.1,0,0.1,0.1,0.2,0.1c0.6,0.2,1,0.4,1.3,0.4c0,0,0,0.1,0,0.1c0,0,0,0,0,0c0,0,0,0,0,0c0,0,0,0,0,0c0,0,0.1,0,0.1,0
		c0,0,0.1,0,0.2,0c0,0,0,0,0,0c0,0-0.1,1.5-0.2,1.5C381,154,380.9,155.5,380.9,155.5z M365.4,155c0.1,0,0.1-0.1,0.2-0.1
		C365.5,154.9,365.4,154.9,365.4,155z M382.7,148C382.7,148,382.7,148,382.7,148c0,0.5-0.1,1-0.1,1.4c0,0.3,0.1,0.6,0.1,0.9
		c0,0,0,0,0,0c0,0,0,0,0,0c0,0.6,0,1,0,1.4c0,0,0,0.1,0,0.1c0,0.1,0,0.2-0.1,0.2c0.1-0.1,0.1-0.1,0.1-0.2c0,0,0,0,0-0.1
		c0-0.4,0-0.8,0-1.4c0,0.1,0,0.1,0,0.2c0-0.1,0-0.1,0-0.2c0,0,0,0,0,0c0,0.2-0.1,0.3-0.1,0.5c0,0,0,0,0,0c0-0.2,0.1-0.3,0.1-0.5
		c0,0,0,0,0,0c0-0.3-0.1-0.6-0.2-0.9c0,0,0,0,0,0c0,0,0,0,0,0c0-0.4,0.2-0.8,0.2-1.2C382.6,148.1,382.7,148.1,382.7,148
		C382.7,148,382.7,148,382.7,148c0,0,0-0.1,0-0.1c0-0.3,0-0.5,0-0.8c0,0.3,0,0.5,0,0.8C382.7,147.9,382.7,148,382.7,148z
		 M386.7,138.4c0.1,0,0.2,0,0.4-0.1c0.1,0,0.4,0,0.5,0c1.5,0.2,2.1,1.1,4.1,1.5c0,0,0,0,0,0c0,0-0.1,0,0,0c0.1,0,0.2,0.1,0.3,0.1
		C390.3,140.7,388.9,138.8,386.7,138.4z M394.4,134.9c0.2,0,0.4,0,0.7,0.1C394.8,135,394.6,134.9,394.4,134.9z M400.6,137.5
		C400.6,137.5,400.7,137.5,400.6,137.5l0-1.3c0,0-0.3,0-0.4,0c0.2,0,0.2,0.1,0.4,0.1L400.6,137.5
		C400.6,137.5,400.6,137.5,400.6,137.5c0.7,0,1.5-0.1,2.1-0.3C402.1,137.4,401.4,137.5,400.6,137.5z"/>
	<path fill="#374F4B" d="M398.2,104.1c-1.1,2.2-7.3,6.9-10.8,9.1C390.9,111.1,397.1,106.3,398.2,104.1z"/>
	<path fill="#374F4B" d="M387.4,113.3c-0.9,0.5-1.5,1.2-1.9,1.9v0C385.9,114.5,386.5,113.8,387.4,113.3z"/>
	<path fill="#374F4B" d="M381.7,150.3c0-0.7,0-1.5,0-2.3c0,0,0,0,0,0C381.7,148.9,381.7,149.6,381.7,150.3
		C381.7,150.3,381.7,150.3,381.7,150.3z"/>
	<path fill="#374F4B" d="M407.1,124.9c-0.6,0-3.8,0.4-6.5,0.5C403.3,125.4,406.5,125,407.1,124.9L407.1,124.9z"/>
	<polygon fill="#374F4B" points="392.5,134.9 392.5,135 392.5,134.9 	"/>
	<path fill="#374F4B" d="M407.1,125c0.1,0,0.2,0.1,0.3,0.2C407.3,125,407.2,125,407.1,125z"/>
	<path fill="#374F4B" d="M381.2,151.9c0,0,0.1,0,0.1,0C381.3,151.9,381.3,151.9,381.2,151.9z"/>
	<path fill="#374F4B" d="M481.9,78.6c1.6,0.7,5.1,1.1,8.1,3.3c3,2.2,7.2,3.1,9.2,0.4c1.6-2.2,0.3-5.8-1.1-6.2
		c-1.4-0.4-2.2-3.3,1.4-5.8c3.5-2.6,7.3-5.8,11.4-6.6c2.9-0.5,8.2-0.8,12.3-0.6c-1.9-2.2-3.8-4.5-5.8-6.6
		c-4.3,0.6-12.8,2.8-14.9,2.8c-2.7,0-3.8,4.4-7.6,6.6c-3.8,2.2-8.9,5.5-10.8,6.6C482.1,73.5,480.2,77.9,481.9,78.6z"/>
</g>
</svg>
