<?xml version="1.0" encoding="utf-8"?>
<!-- Generator: Adobe Illustrator 18.0.0, SVG Export Plug-In . SVG Version: 6.00 Build 0)  -->
<!DOCTYPE svg PUBLIC "-//W3C//DTD SVG 1.1//EN" "http://www.w3.org/Graphics/SVG/1.1/DTD/svg11.dtd">
<svg version="1.1" id="Layer_1" xmlns="http://www.w3.org/2000/svg" xmlns:xlink="http://www.w3.org/1999/xlink" x="0px" y="0px"
	 viewBox="0 0 314.5 93.1" enable-background="new 0 0 314.5 93.1" xml:space="preserve">
<rect x="-787.8" y="-370" display="none" fill="#160C08" width="1920" height="800"/>
<g id="more_2_">
	<g>
		<path fill="#FFFFFF" d="M0,30.9L0,30.9c3.2,4.4,5.1,9.8,5.1,15.6S3.2,57.8,0,62.1v0l27-15.6L0,30.9z"/>
	</g>
	<g>
		<path fill="#2D2C39" d="M273.1,87.9H121.7c-22.7,0-41.4-18.6-41.4-41.4v0c0-22.7,18.6-41.4,41.4-41.4h151.4
			c22.7,0,41.4,18.6,41.4,41.4v0C314.5,69.3,295.9,87.9,273.1,87.9z"/>
		<path fill="#FFFFFF" d="M273.1,89.4H121.7c-23.6,0-42.9-19.2-42.9-42.9S98.1,3.7,121.7,3.7h151.4c23.6,0,42.9,19.2,42.9,42.9
			S296.7,89.4,273.1,89.4z M121.7,6.7c-22,0-39.9,17.9-39.9,39.9s17.9,39.9,39.9,39.9h151.4c22,0,39.9-17.9,39.9-39.9
			S295.1,6.7,273.1,6.7H121.7z"/>
	</g>
	<g>
		<path fill="#FFFFFF" d="M156.5,61.9c0,1.8-0.7,2.7-2.1,2.7c-1.4,0-2.2-0.9-2.2-2.7V40c0-1.8-0.8-2.7-2.5-2.7
			c-1.2,0-2.4,0.6-3.4,1.7c-1,1.1-1.4,2.3-1.4,3.5v19.5c0,1.8-0.7,2.7-2.2,2.7c-1.5,0-2.2-0.9-2.2-2.7V40.7c0-2.5-0.7-3.7-2-3.7
			c-1,0-2,0.6-3.2,1.9c-1.3,1.4-1.9,2.9-1.9,4.5v18.6c0,1.8-0.7,2.7-2.1,2.7c-1.5,0-2.2-0.9-2.2-2.7V35.2c0-1.8,0.7-2.6,2.2-2.6
			c1.4,0,2.1,1,2.1,3.1c1.6-2.1,3.4-3.1,5.4-3.1c2.3,0,4,1.1,5.2,3.4c2-2.3,4.2-3.4,6.4-3.4c1.7,0,3.2,0.7,4.4,2.1
			c1.2,1.4,1.7,3,1.7,4.8V61.9z"/>
		<path fill="#FFFFFF" d="M192.5,48.6c0,4.4-0.9,8.1-2.8,10.9c-2.2,3.3-5.4,5-9.7,5c-4.3,0-7.6-1.7-9.9-5c-2-2.9-3.1-6.6-3.1-10.9
			c0-4.3,1-8,3.1-11c2.4-3.4,5.7-5.1,9.9-5.1c4.3,0,7.5,1.7,9.7,5.1C191.6,40.6,192.5,44.2,192.5,48.6z M187.8,48.6
			c0-3-0.6-5.5-1.8-7.7c-1.4-2.7-3.5-4-6.2-4c-2.8,0-4.9,1.3-6.3,4c-1.2,2.2-1.7,4.7-1.7,7.7c0,3,0.6,5.5,1.8,7.6
			c1.4,2.6,3.5,3.9,6.2,3.9c2.8,0,4.9-1.3,6.3-3.9C187.2,54.1,187.8,51.6,187.8,48.6z"/>
		<path fill="#FFFFFF" d="M224.7,36c0,0.8-0.8,1.4-2.3,1.9c-3.7,1.2-6.7,3.4-9.2,6.6v17.3c0,1.8-0.7,2.7-2.2,2.7
			c-1.4,0-2.2-0.9-2.2-2.7V35.2c0-1.8,0.7-2.6,2.2-2.6c1.5,0,2.2,0.9,2.2,2.6v3.2c1.2-1.2,2.5-2.2,4.1-3.2c1.9-1.1,3.5-1.6,4.9-1.6
			C223.9,33.6,224.7,34.4,224.7,36z"/>
		<path fill="#FFFFFF" d="M266.3,54.3c0,1.6-0.9,3.5-2.8,5.7c-2.6,3-5.7,4.5-9.3,4.5c-4.1,0-7.4-1.7-9.8-5.1c-2.1-3-3.1-6.7-3.1-11
			c0-4.3,1.1-7.9,3.3-10.9c2.4-3.3,5.7-4.9,9.9-4.9c3.8,0,6.7,1.4,8.8,4.3c1.8,2.5,2.8,5.8,2.8,9.7c0,1.8-0.9,2.7-2.7,2.7H246
			c0,2.7,0.7,5,2,7.1c1.5,2.5,3.5,3.8,6,3.8c3.5,0,6.1-2,7.8-6c0.6-1.3,1.2-1.9,2-1.9C265.5,52.2,266.3,52.9,266.3,54.3z
			 M261.4,43.7c0-1.8-0.7-3.4-2.2-4.8c-1.4-1.4-3-2-4.8-2c-2,0-3.9,0.8-5.4,2.5c-1.4,1.5-2.3,3.3-2.7,5.4h13.6
			C260.9,44.8,261.4,44.5,261.4,43.7z"/>
	</g>
</g>
</svg>
