<?xml version="1.0" encoding="utf-8"?>
<!-- Generator: Adobe Illustrator 18.0.0, SVG Export Plug-In . SVG Version: 6.00 Build 0)  -->
<!DOCTYPE svg PUBLIC "-//W3C//DTD SVG 1.1//EN" "http://www.w3.org/Graphics/SVG/1.1/DTD/svg11.dtd">
<svg version="1.1" id="Layer_1" xmlns="http://www.w3.org/2000/svg" xmlns:xlink="http://www.w3.org/1999/xlink" x="0px" y="0px"
	 viewBox="0 0 1146.2 468.4" enable-background="new 0 0 1146.2 468.4" xml:space="preserve">
<g>
	<g>
		<path fill="#72DDA2" d="M189.8,346.3c1.2,0,1.8,0.6,1.8,1.8v1.5h17c1.1,0,1.7,0.5,1.7,1.6s-0.6,1.6-1.7,1.6h-7.4v5.2h6.8
			c1,0,1.5,0.5,1.5,1.5c0,1-0.5,1.5-1.5,1.5h-6.8v27.4c0,1.1-0.5,1.6-1.6,1.6c-1.1,0-1.6-0.5-1.6-1.6v-27.4h-5.5
			c-1,0-1.5-0.5-1.5-1.5c0-1,0.5-1.5,1.5-1.5h5.5v-5.2h-14.1v5.3h4.4c1,0,1.5,0.5,1.5,1.5s-0.5,1.5-1.5,1.5h-4.4v27
			c0,1.1-0.5,1.6-1.6,1.6c-1.1,0-1.6-0.5-1.6-1.6v-27h-4.6c-1,0-1.5-0.5-1.5-1.5s0.5-1.5,1.5-1.5h4.6v-5.3h-6.5
			c-0.6,0-0.9,0.3-0.9,1v14.1c0,5.2-0.3,9.5-0.8,12.9c-0.4,3.2-1,5.8-1.6,7.9c-0.3,0.8-0.9,1.2-1.5,1.2c-1.3-0.1-1.9-0.6-2-1.7
			c0-0.3,0.2-0.9,0.5-1.9c0.2-0.8,0.4-1.6,0.6-2.5c0.3-1.5,0.6-3.1,0.8-4.6c0.5-3.5,0.7-7.2,0.7-11.2v-15.4c0-1.9,1-2.9,3-2.9H188
			v-1.5C188,346.9,188.6,346.3,189.8,346.3z M177,363.5c1.1,0,1.6,0.5,1.6,1.6c0,7.3-0.6,14.1-1.7,20.4c-0.2,1-0.9,1.5-1.9,1.5
			c-0.9,0-1.4-0.5-1.4-1.4c0-0.4,0.1-0.8,0.3-1.2c1-5.3,1.6-11.8,1.8-19.7C175.7,364,176.1,363.5,177,363.5z M187.7,363.7
			c0.9,0,1.4,0.5,1.4,1.5v18.1c0,1.1-0.5,1.6-1.4,1.6s-1.4-0.5-1.4-1.6v-18.1C186.3,364.2,186.8,363.7,187.7,363.7z M194.3,363.5
			c1,0,1.5,0.5,1.5,1.6c0,7.3-0.8,14.2-2.4,20.6c-0.2,1-0.8,1.5-1.9,1.5c-0.9,0-1.4-0.5-1.4-1.4c0-0.4,0.1-0.8,0.3-1.2
			c1.4-5.3,2.3-12,2.5-19.9C192.9,364,193.4,363.5,194.3,363.5z M205,363.9c1,0,1.5,0.6,1.5,1.7v16.5c0,1,0.3,1.5,0.9,1.5
			c0.6,0,0.9-1,0.9-3l0.1-5.5c0.1-0.9,0.6-1.4,1.5-1.5c0.9,0.1,1.4,0.6,1.5,1.6c0,5.7-0.3,9-0.9,9.8c-0.5,1-1.5,1.5-3,1.5
			c-1.6,0-2.6-0.3-3.1-0.8c-0.5-0.5-0.8-1.3-0.8-2.3v-17.9C203.5,364.5,204,363.9,205,363.9z"/>
		<path fill="#72DDA2" d="M247.4,355.8c1.4,0,2.2,0.6,2.2,1.7c0,0.3-0.3,0.8-0.8,1.3c-1.3,1.4-2.9,2.7-4.7,3.7
			c-2.7,1.5-5.7,2.7-9.2,3.6c-0.4,0.1-0.8,0.2-1.1,0.2h17.3c2.1,0,3.2,1,3.2,3v17.1c0,2-1.1,3-3.2,3h-23.6c-2.1,0-3.2-1-3.2-3v-17.1
			c0-0.7,0.1-1.2,0.4-1.6c-2.6,0.3-4.9,0.4-6.8,0.4c-1.4,0-2.1-0.7-2.1-2c0-1,0.5-1.6,1.6-1.7c5.9-0.2,10.6-0.6,14.2-1.2
			c3.4-0.6,6.3-1.4,8.9-2.5c2.1-1,4-2.3,5.8-4C246.8,356.1,247.2,355.8,247.4,355.8z M228.3,348c1.2,0,1.8,0.6,1.8,1.7
			c0,0.6-0.3,1.3-0.8,2c-3,3.8-5.9,6.8-8.8,9c-0.4,0.3-0.8,0.5-1.2,0.5c-1.2,0-1.8-0.5-1.8-1.6c0-0.4,0.2-0.8,0.5-1.2
			c3.6-2.9,6.6-6.1,9-9.6C227.3,348.3,227.7,348,228.3,348z M227.6,373.2h23.3v-2.3c0-1-0.4-1.5-1.3-1.5H229c-0.9,0-1.3,0.5-1.3,1.5
			V373.2z M227.6,379.6h23.3V376h-23.3V379.6z M249.6,386.4c0.9,0,1.3-0.5,1.3-1.5v-2.5h-23.3v2.5c0,1,0.4,1.5,1.3,1.5H249.6z
			 M238.3,346.5c1.1,0,1.7,0.6,1.7,1.7v8.2c0,2.6-1.7,3.8-5.1,3.8c-1.3,0-3-0.4-5.1-1.1c-0.9-0.3-1.4-0.9-1.4-1.7
			c0.1-1.1,0.6-1.7,1.5-1.8c0.2,0,0.5,0,0.8,0.1c2.1,0.7,3.5,1,4.1,1c1.1,0,1.7-0.3,1.7-1v-7.5C236.6,347,237.2,346.5,238.3,346.5z
			 M250.1,348.3c0.5,0,0.9,0.3,1.3,0.9c2.4,3.3,4.4,7.1,6,11.2c0.2,0.5,0.2,0.9,0.2,1.3c0,1.1-0.7,1.6-2.1,1.6
			c-0.6,0-1.1-0.5-1.5-1.4c-1.7-4.7-3.5-8.4-5.5-11.1c-0.3-0.4-0.4-0.7-0.4-1C248.2,348.9,248.9,348.3,250.1,348.3z"/>
		<path fill="#72DDA2" d="M276.4,348.4c1.1,0,1.6,0.5,1.6,1.6s-0.5,1.6-1.6,1.6h-3.9v12.8h3.8c1.1,0,1.6,0.5,1.6,1.6
			s-0.5,1.6-1.6,1.6h-3.8v13.8c1.3-0.7,2.8-1.5,4.5-2.5l0.7-0.3c1.2,0,1.8,0.7,1.8,2c0,0.4-0.3,0.8-0.8,1.3c-1.3,1-3.1,2.1-5.3,3.2
			c-2.8,1.4-5.3,2.4-7.7,3.2c-0.4,0.2-0.7,0.2-1,0.2c-1.2,0-1.8-0.6-1.8-1.9c0-0.9,0.5-1.5,1.4-1.8c1.9-0.6,3.6-1.1,5-1.7v-15.4
			h-3.8c-1.1,0-1.6-0.5-1.6-1.6s0.5-1.6,1.6-1.6h3.8v-12.8h-4.5c-1,0-1.5-0.5-1.5-1.6s0.5-1.6,1.5-1.6H276.4z M282.4,347.9h20.3
			c1.9,0,2.8,0.9,2.8,2.7v16.7c0,1.8-0.9,2.7-2.8,2.7h-8.4v5.8h10.1c1.1,0,1.6,0.5,1.6,1.6c0,1-0.5,1.5-1.6,1.5h-10.1v6.8h12.6
			c1.1,0,1.6,0.5,1.6,1.6s-0.5,1.6-1.6,1.6h-28.1c-1.1,0-1.6-0.5-1.6-1.6s0.5-1.6,1.6-1.6h12.2V379h-9.8c-1.1,0-1.6-0.5-1.6-1.5
			c0-1.1,0.5-1.6,1.6-1.6h9.8V370h-8.4c-1.9,0-2.8-0.9-2.8-2.7v-16.7C279.6,348.8,280.5,347.9,282.4,347.9z M283,357.3h7.9v-6.3
			h-6.6c-0.9,0-1.3,0.5-1.3,1.4V357.3z M290.8,366.8v-6.5H283v5.1c0,0.9,0.4,1.4,1.3,1.4H290.8z M294.2,351.1v6.3h7.9v-4.9
			c0-0.9-0.4-1.4-1.3-1.4H294.2z M300.8,366.8c0.9,0,1.3-0.5,1.3-1.4v-5.1h-7.9v6.5H300.8z"/>
		<path fill="#72DDA2" d="M351.4,350.4c1.1,0,1.7,0.6,1.7,1.7s-0.6,1.7-1.7,1.7h-15.9v30.8h18.2c1.1,0,1.7,0.6,1.7,1.7
			s-0.6,1.7-1.7,1.7h-40.1c-1.1,0-1.7-0.6-1.7-1.7s0.6-1.7,1.7-1.7h18.2v-30.8H316c-1.1,0-1.7-0.6-1.7-1.7s0.6-1.7,1.7-1.7H351.4z"
			/>
	</g>
	<g>
		<path fill="#A8E5BD" d="M120.8,257.3h15.8v-4c0-1.4,0.7-2.1,2.1-2.1c1.4,0,2.1,0.7,2.1,2.1v4h14.7c2.6,0,3.9,1.2,3.9,3.7v13.7
			c0,2.5-1.3,3.7-3.9,3.7h-14.7v1.7c0,5.7-1,10.1-3.1,13.1c2.4,1,5.2,1.8,8.4,2.5c2.4,0.5,7.5,1,15.3,1.3c1.3,0.1,1.9,0.8,2,2.1
			c0,1.6-0.9,2.5-2.5,2.5c-2.3-0.1-5.3-0.4-8.9-0.9c-3.7-0.4-7.3-1.1-10.7-2.1c-2.3-0.6-4.4-1.4-6.3-2.2c-3.6,2.9-10.1,4.8-19.5,5.8
			c-1.7,0-2.5-0.8-2.5-2.3c0-1.1,0.6-1.9,1.8-2.2c7.3-0.8,12.5-2.1,15.6-3.8c-0.4-0.3-0.9-0.6-1.3-0.9c-3.6-2.5-6.7-5.7-9.1-9.5
			c-0.4-0.5-0.5-1-0.5-1.5c0-1.4,0.7-2.1,2.1-2.1c0.4,0,0.9,0.3,1.4,1c2.9,4.6,6.2,7.9,9.9,10c0.3,0.2,0.5,0.3,0.7,0.4
			c2.1-2.7,3.1-6.4,3.1-11.1v-1.7h-15.8c-2.5,0-3.8-1.2-3.8-3.7V261C116.9,258.5,118.2,257.3,120.8,257.3z M136.6,274.5v-13.3h-14.1
			c-0.9,0-1.4,0.5-1.4,1.5V273c0,1,0.5,1.5,1.4,1.5H136.6z M153.7,274.5c0.9,0,1.4-0.5,1.4-1.5v-10.3c0-1-0.5-1.5-1.4-1.5h-13v13.3
			H153.7z"/>
		<path fill="#A8E5BD" d="M191.1,253.6h18.4c2.7,0,4,1.3,4,3.9v20.7h3.6c1.3,0,2,0.7,2,2s-0.7,2-2,2h-3.6v13.5
			c0,4.4-2.6,6.5-7.7,6.5c-2.6,0-5.5-0.4-8.6-1.3c-1.4-0.3-2.1-1-2.1-2.2c0-1.5,0.7-2.2,2.1-2.2c3.6,0.9,6.5,1.3,8.6,1.3
			c2.4,0,3.5-1.2,3.5-3.5v-12.2h-30.9c-0.1,2-0.3,4-0.5,5.8c-0.4,2.6-1,5.4-2,8.3c-0.7,2-1.4,3.6-2.1,4.9c-0.5,1-1.2,1.5-2.1,1.5
			c-1.4-0.1-2.2-0.9-2.2-2.3c0-0.2,0.1-0.6,0.3-1.1c0.8-1.6,1.5-3.2,2-4.8c0.8-2.3,1.5-4.8,1.9-7.5c0.3-1.5,0.4-3.1,0.5-4.7h-3.7
			c-1.3,0-2-0.7-2-2s0.7-2,2-2h3.9c0-0.6,0.1-1.2,0.1-1.7v-19c0-2.6,1.3-3.9,3.9-3.9H191.1z M178.7,278.2h30.8v-18.8
			c0-1.3-0.5-2-1.6-2h-27c-1.3,0-2,0.7-2,2.2v16.7C178.8,277.1,178.7,277.7,178.7,278.2z M190.4,261.4c0.3,0,0.7,0.2,1.1,0.7
			c3,2.9,5.9,6.1,8.6,9.8c0.3,0.5,0.5,1,0.5,1.4c0,1.3-0.8,2-2.3,2c-0.4,0-0.8-0.2-1.2-0.5c-2.7-3.5-5.5-6.9-8.6-10.2
			c-0.4-0.5-0.6-0.9-0.6-1.1C187.9,262.1,188.8,261.4,190.4,261.4z"/>
		<path fill="#A8E5BD" d="M235.9,252.1c0.7,0,1.2,0.2,1.6,0.5c0.5,0.4,0.8,0.9,0.8,1.5c0,0.3-0.1,0.7-0.3,1.2
			c-0.8,3.6-1.8,6.9-2.9,9.8v35.7c0,1.3-0.7,2-2,2s-2-0.7-2-2v-27.6c-1,1.8-2.1,3.5-3.2,5c-0.6,0.7-1.1,1-1.5,1
			c-1.5,0-2.3-0.7-2.3-2c0-0.4,0.2-0.8,0.6-1.2c2.1-2.9,3.9-6.1,5.5-9.5c1.7-3.7,3.1-8,4.2-12.9
			C234.6,252.5,235.1,252.1,235.9,252.1z M240.7,258.7h7.9v-4.9c0-1.3,0.7-2,2-2s2,0.7,2,2v4.9h5.5v-4.9c0-1.3,0.7-2,2-2s2,0.7,2,2
			v4.9h6.8c2.2,0,3.3,1.1,3.3,3.2v7.2c0,2.1-1.1,3.2-3.3,3.2h-6.8v6.3h10c1.7,0,2.6,1.3,2.6,3.8c0,1.1-0.2,2.5-0.5,4.3
			c-0.5,2.3-1,3.9-1.7,4.7c-0.7,1.1-2.2,1.7-4.6,1.7c-0.7,0-1.9-0.1-3.5-0.4c-1.1-0.2-1.6-0.8-1.6-1.9c0-1.3,0.7-2,2.2-2
			c1.1,0.4,2.1,0.5,2.9,0.5c1.1,0,1.8-0.6,2-1.7c0.4-1.5,0.6-2.8,0.6-3.9c0-1-0.3-1.5-0.9-1.5h-7.4v18.2c0,1.3-0.7,2-2,2s-2-0.7-2-2
			v-18.2h-5.5c-0.2,3.6-1,7.1-2.5,10.3c-1.5,3.2-3.6,6-6.2,8.4c-0.5,0.9-1.1,1.3-1.7,1.3c-1.6-0.1-2.5-0.8-2.6-2.3
			c0-0.4,0.3-0.8,0.7-1.2c3.5-3.2,5.8-6.6,7-10c0.8-2.1,1.2-4.3,1.4-6.4h-6.7c-1.9,0-2.8-1.1-2.8-3.3c0-2.2,0.2-4.5,0.5-6.8
			c0.4-2.4,1.2-3.6,2.5-3.6h6.7v-6.1h-7.9c-1.2,0-1.9-0.6-1.9-1.9S239.5,258.7,240.7,258.7z M248.6,278.6v-6.3h-4.4
			c-0.9,0-1.3,1.8-1.3,5.5c0,0.5,0.3,0.8,0.8,0.8H248.6z M252.5,262.4v6.1h5.5v-6.1H252.5z M257.9,278.6v-6.3h-5.5v6.3H257.9z
			 M261.9,262.4v6.1h4.8c0.9,0,1.3-0.5,1.3-1.4v-3.3c0-0.9-0.4-1.4-1.3-1.4H261.9z"/>
	</g>
	<g>
		<path fill="#CCFBFF" d="M807,40.4c1.3,0,1.9,0.6,1.9,1.9v1.6h14.5c1.3,0,2.4,0.5,3,1.4c0.5,0.7,0.8,1.8,0.8,3.3
			c0,1.1-0.1,2.4-0.3,3.9c-0.3,0.9-1,1.4-2.1,1.4c-1.2,0-1.8-0.6-1.8-1.8c0.3-1.8,0.5-2.9,0.5-3.4c0-1.1-0.4-1.7-1.3-1.7h-31.5
			c-1,0-1.5,0.5-1.5,1.5v3.3c0,1.1-0.6,1.7-1.7,1.7s-1.7-0.6-1.7-1.7v-4.6c0-2.3,1.1-3.4,3.4-3.4h15.9v-1.6
			C805.1,41,805.8,40.4,807,40.4z M799.9,49.4c1.1,0,1.7,0.6,1.7,1.7v11.3c1.1-0.5,2.2-0.9,3.1-1.4c2.1-1.2,4-2.5,5.8-4.1
			c1.8-1.5,3.3-3.5,4.7-6c0.3-0.7,0.7-1,1.5-1c0.4,0,0.8,0.1,1.2,0.4c0.3,0.3,0.5,0.6,0.5,1c0,0.4-0.1,0.8-0.2,1.2
			c-1.4,2.7-3,4.9-4.8,6.6c-1.8,1.7-3.7,3.2-5.9,4.5c-1.6,0.9-3.3,1.7-5.2,2.4c0.1,0.1,0.2,0.2,0.3,0.2c0.8,0.3,2.4,0.5,4.5,0.5
			c2.9,0,5-0.1,6.2-0.3c0.8-0.1,1.3-0.3,1.5-0.8c0.3-0.4,0.5-1.8,0.5-4.3c0.1-1.1,0.6-1.6,1.7-1.7c1.1,0.1,1.6,0.8,1.7,2.2
			c0,1.2-0.1,2.4-0.3,3.6c-0.3,1.7-1,2.8-2.2,3.5c-1,0.6-3.7,0.9-8,0.9c-4.1,0-6.7-0.3-8-0.8c-0.7-0.4-1.1-0.9-1.5-1.5
			c-2.5,0.9-5.6,1.7-9.2,2.4c-0.7,0.3-1.2,0.4-1.4,0.4c-0.5,0-1-0.2-1.4-0.5c-0.4-0.4-0.6-0.8-0.6-1.3c0-0.8,0.4-1.4,1.1-1.7
			c4.3-0.8,7.9-1.8,10.7-2.8c0.1,0,0.2-0.1,0.2-0.1V51.1C798.2,49.9,798.8,49.4,799.9,49.4z M793.5,51.6c1.2,0,1.7,0.5,1.7,1.6
			c0,0.6-0.3,1.2-0.8,1.9c-1.8,3.5-3.6,6.3-5.4,8.3c-0.4,0.3-0.8,0.5-1.1,0.5c-1.1,0-1.7-0.5-1.7-1.6c0-0.3,0.1-0.7,0.4-1.1
			c2.3-2.7,4.2-5.6,5.7-8.8C792.6,51.9,793,51.6,793.5,51.6z M806.1,70.4c1.1,0,1.7,0.6,1.7,1.7v8.7h12c0.5,0,0.8-0.3,0.8-0.8v-6.8
			c0-1.1,0.6-1.7,1.7-1.7s1.7,0.6,1.7,1.7v7.7c0,2.1-1.1,3.1-3.2,3.1h-28.3c-2.1,0-3.2-1-3.2-3.1v-7.5c0-1.1,0.6-1.7,1.7-1.7
			s1.7,0.6,1.7,1.7v6.6c0,0.6,0.3,0.8,0.8,0.8h11.1v-8.7C804.4,70.9,805,70.4,806.1,70.4z M805.3,48.9c0.3,0,0.7,0.1,1.2,0.4
			c1.4,0.9,2.6,1.8,3.7,2.7c0.6,0.4,0.8,0.9,0.8,1.5c0,1.1-0.5,1.6-1.6,1.6c-0.5,0-0.9-0.2-1.2-0.5c-1-1-2.2-1.9-3.5-2.9
			c-0.7-0.4-1-0.9-1-1.3C803.6,49.5,804.2,48.9,805.3,48.9z M820.7,54.4c0.4,0,0.8,0.3,1.2,0.9c2.1,2.8,3.9,6,5.3,9.6
			c0.2,0.5,0.2,0.9,0.2,1.3c0,1.1-0.7,1.6-2.1,1.6c-0.6,0-1.1-0.5-1.5-1.4c-1.4-4-3-7.2-4.7-9.5c-0.3-0.4-0.4-0.7-0.4-0.9
			C818.9,54.9,819.5,54.4,820.7,54.4z"/>
		<path fill="#CCFBFF" d="M876.2,43.5c1.2,0,1.8,0.6,1.8,1.8s-0.6,1.8-1.8,1.8h-13.5v7.2h9.2c2.6,0,3.8,1.3,3.8,3.8v21.9
			c0,2.5-1.3,3.8-3.8,3.8h-33.6c-2.6,0-3.8-1.3-3.8-3.8V58c0-2.5,1.3-3.8,3.8-3.8h10.2V47h-14.7c-1.2,0-1.8-0.6-1.8-1.8
			s0.6-1.8,1.8-1.8H876.2z M870.6,80.3c1.1,0,1.6-0.6,1.6-1.7v-6.3h-8.3c-3,0-4.5-1.5-4.5-4.4V57.6h-7.4c-0.1,1.7-0.4,3.3-0.8,4.9
			c-0.7,2.5-1.9,4.8-3.6,6.9c-1.6,2.1-3.8,4-6.8,5.7c-0.6,0.3-1,0.5-1.1,0.5c-1,0-1.6-0.4-1.7-1.3v4.4c0,1.1,0.5,1.7,1.6,1.7H870.6z
			 M838.1,73.3c0.1-0.6,0.4-1,0.9-1.2c2.7-1.7,4.7-3.5,6-5.3c1.3-1.7,2.2-3.5,2.8-5.7c0.3-1.2,0.5-2.4,0.6-3.6h-8.8
			c-1.1,0-1.6,0.6-1.6,1.7V73.3z M852.1,47v7.2h7.2V47H852.1z M862.7,57.6v9.6c0,1.3,0.6,2,1.9,2h7.6v-9.8c0-1.1-0.5-1.7-1.6-1.7
			H862.7z"/>
		<path fill="#CCFBFF" d="M896.8,50.1c1.1,0,1.7,0.6,1.7,1.7s-0.6,1.7-1.7,1.7h-5.1v1.2l5.5,10.2c0.3,0.6,0.5,1.2,0.5,1.6
			c0,1.2-0.6,1.8-1.9,1.8c-0.5,0-0.9-0.4-1.2-1.1l-2.9-6.8v23.2c0,1.1-0.6,1.7-1.7,1.7s-1.7-0.6-1.7-1.7V61.6c0,0.1,0,0.1,0,0.1
			c-0.8,2.8-1.5,5-2.2,6.7c-0.8,2.3-1.5,3.9-2.1,4.8c-0.4,0.8-0.9,1.1-1.6,1.1c-1.2,0-1.8-0.6-1.8-1.7c0-0.4,0.2-0.9,0.5-1.4
			c2.2-4.2,3.7-7.7,4.6-10.5c0.7-2.1,1.3-4.5,1.9-7.2h-5.1c-1.1,0-1.7-0.6-1.7-1.7s0.6-1.7,1.7-1.7h5.8v-6.9c0-1.1,0.6-1.7,1.7-1.7
			s1.7,0.6,1.7,1.7v6.9H896.8z M902.8,63.5v15.9c2.4-0.8,4.4-1.7,6.1-2.7c0.3-0.1,0.6-0.2,0.8-0.2c0.9,0.1,1.4,0.5,1.5,1.5
			c0,0.7-0.3,1.2-1,1.6c-1.6,1.1-3.8,2.1-6.5,3c-2,0.8-4.5,1.5-7.5,2.2c-1.1-0.1-1.7-0.7-1.8-1.8c0-1.1,0.5-1.7,1.4-1.8
			c1.3-0.3,2.5-0.5,3.5-0.8V45.8c0-1.9,1-2.9,3-2.9h15.9c2.1,0,3.2,1,3.2,3.1v14.5c0,2-1.1,3-3.2,3h-8c0.8,2.6,1.8,4.9,2.8,6.7
			c0.3,0.5,0.5,0.9,0.8,1.4c2.3-2.3,4.1-4.4,5.6-6.3c0.5-0.6,0.9-0.9,1.2-0.9c1.3,0,1.9,0.6,1.9,1.8c0,0.6-0.3,1.1-0.9,1.6
			c-1.6,2.2-3.6,4.3-5.9,6.4c0.5,0.6,0.9,1.1,1.4,1.6c1.6,1.9,3.7,3.7,6.3,5.4c0.8,0.5,1.2,1,1.2,1.5c-0.1,1.5-0.8,2.2-2.1,2.3
			c-0.6,0-1.3-0.3-2.1-0.8c-3-2.2-5.5-4.6-7.5-7.3c-1.5-1.8-2.7-3.8-3.6-5.9c-1-2.2-1.8-4.7-2.4-7.5H902.8z M916.5,46.1h-12.4
			c-0.9,0-1.3,0.5-1.3,1.4v4.3h15.4v-4.3c0-0.9-0.4-1.4-1.3-1.4H916.5z M902.8,54.8v5.5h14.1c0.9,0,1.3-0.5,1.3-1.4v-4.1H902.8z"/>
	</g>
	<g>
		<path fill="#D7F9EA" d="M13.7,169.1H19c0-1.3,0-2.6,0-3.9c0-1.2,0.6-1.7,1.8-1.7c1.2,0,1.8,0.6,1.8,1.8c0,1.3,0,2.6-0.1,3.8h6.8
			c2.4,0,3.6,1.1,3.6,3.4c0,10.3-0.3,18.3-0.9,24.2c-0.4,3.9-1.2,6.5-2.3,7.9c-1.2,1.4-2.8,2.2-5,2.2c-1.1,0-2.7-0.3-4.7-0.9
			c-0.9-0.3-1.4-0.9-1.4-1.9c0-1.3,0.7-2,2-2c2.1,0.7,3.5,1,4.1,1c1.2,0,2.2-0.5,2.7-1.6c0.6-1.4,1-3.3,1.2-5.9
			c0.4-3.9,0.7-11.2,0.7-21.7c0-0.9-0.4-1.3-1.2-1.3h-5.8c-0.2,4.4-0.5,8.5-1.1,12.5c-1.3,7.8-3.7,14.8-7.1,21
			c-0.4,0.6-0.9,0.8-1.5,0.8c-1.3,0-2-0.7-2-2c0-0.1,0.2-0.5,0.5-1.1c3.2-5.8,5.4-12.4,6.7-19.9c0.5-3.6,0.9-7.4,1-11.4h-5.2
			c-1.1,0-1.7-0.6-1.7-1.7S12.6,169.1,13.7,169.1z M39.6,166.8h11.6c2.1,0,3.2,1.1,3.2,3.2v32.8c0,2.1-1.1,3.2-3.2,3.2H39.6
			c-2.1,0-3.2-1.1-3.2-3.2V170C36.4,167.9,37.5,166.8,39.6,166.8z M49.9,202.6c0.8,0,1.1-0.4,1.1-1.1v-30.2c0-0.7-0.4-1.1-1.1-1.1
			h-9c-0.8,0-1.1,0.4-1.1,1.1v30.2c0,0.8,0.4,1.1,1.1,1.1H49.9z"/>
		<path fill="#D7F9EA" d="M65.3,173.2c1.1,0,1.7,0.6,1.7,1.7c0,3.2-0.2,6.2-0.5,9c-0.5,3.6-1.4,6.7-2.8,9.5
			c-0.4,0.6-0.9,0.9-1.5,0.9c-1.3,0-2-0.7-2-2c0-0.1,0.2-0.5,0.5-1.1c1.2-2.5,2-5.3,2.4-8.4c0.3-2.5,0.5-5.1,0.5-7.9
			C63.6,173.7,64.2,173.2,65.3,173.2z M71.7,163.4c1.1,0,1.7,0.6,1.7,1.7v19.3c0,4.4-0.8,8.6-2.4,12.5c-1.4,3.3-3.3,6.3-5.7,8.9
			c-0.5,0.8-1,1.1-1.5,1.1c-1.4-0.1-2.1-0.7-2.2-2c0-0.3,0.2-0.7,0.6-1c3.2-3.5,5.3-7.1,6.5-10.8c0.9-2.9,1.4-5.8,1.4-8.7v-19.3
			C70,164,70.5,163.4,71.7,163.4z M77.3,173.2c0.7,0,1.2,0.3,1.6,1c0.6,3.1,1.3,8.2,2,15.3c0.2,1.3,0.2,2.3,0.2,2.9
			c0,1.1-0.6,1.6-1.8,1.6c-1,0-1.5-0.5-1.6-1.6c-0.4-6.5-1.1-11.9-1.9-16.4l-0.1-1.4C75.7,173.6,76.2,173.2,77.3,173.2z M85.2,165.3
			c1.1,0,1.7,0.6,1.7,1.7v36c0,1.1-0.6,1.7-1.7,1.7s-1.7-0.6-1.7-1.7v-36C83.5,165.9,84,165.3,85.2,165.3z M91.5,173.2
			c0.7,0,1.2,0.3,1.6,1c0.8,3.1,1.5,8.2,2.3,15.3c0.2,1.3,0.3,2.3,0.3,2.9c0,1.1-0.6,1.6-1.8,1.6c-1,0-1.5-0.5-1.6-1.6
			c-0.5-6.5-1.3-11.9-2.3-16.4l-0.1-1.4C89.9,173.6,90.5,173.2,91.5,173.2z M100,163.5c1.2,0,1.8,0.6,1.8,1.8v39.9
			c0,1.2-0.6,1.8-1.8,1.8c-1.2,0-1.8-0.6-1.8-1.8v-39.9C98.2,164.1,98.8,163.5,100,163.5z"/>
		<path fill="#D7F9EA" d="M123.2,172.2c1.1,0,1.7,0.6,1.7,1.7s-0.6,1.7-1.7,1.7h-3.8v1.1l6,10.5c0.3,0.6,0.5,1.2,0.5,1.6
			c0,1.2-0.6,1.8-1.9,1.8c-0.6,0-1-0.4-1.4-1.1l-3.2-7.2v22.9c0,1.2-0.6,1.8-1.8,1.8c-1.2,0-1.8-0.6-1.8-1.8v-21.7
			c-0.1,0.2-0.1,0.4-0.2,0.7c-0.9,2.9-1.8,5.2-2.5,6.8c-0.9,2.3-1.8,4-2.4,5c-0.4,0.8-0.9,1.1-1.6,1.1c-1.2,0-1.8-0.6-1.8-1.7
			c0-0.4,0.2-0.9,0.5-1.4c2.4-4.4,4.1-8,5.1-10.9c0.8-2.1,1.5-4.6,2.2-7.5h-5.5c-1.1,0-1.7-0.6-1.7-1.7s0.6-1.7,1.7-1.7h6.3v-7.5
			c0-1.2,0.6-1.8,1.8-1.8c1.2,0,1.8,0.6,1.8,1.8v7.5H123.2z M137.9,163.1c0.5,0,1,0.2,1.4,0.6c0.4,0.4,0.6,0.9,0.6,1.4
			c0,0.5-0.2,0.9-0.5,1.3c-0.4,0.8-0.9,1.6-1.5,2.3h9c2.2,0,3.3,1.1,3.3,3.2v30.9c0,2.1-1.1,3.2-3.3,3.2h-17.3
			c-2.2,0-3.3-1.1-3.3-3.2v-30.9c0-2.1,1.1-3.2,3.3-3.2h3.9c0.3-0.3,0.5-0.6,0.7-1c0.7-1.2,1.3-2.4,1.8-3.7
			C136.6,163.4,137.2,163.1,137.9,163.1z M130.1,184.6h16.7v-11.3c0-0.9-0.4-1.3-1.2-1.3h-14.3c-0.8,0-1.2,0.4-1.2,1.3V184.6z
			 M145.5,202.6c0.8,0,1.2-0.4,1.2-1.3V188h-16.7v13.3c0,0.9,0.4,1.3,1.2,1.3H145.5z"/>
		<path fill="#D7F9EA" d="M197.5,166.8c1.1,0,1.7,0.6,1.7,1.7c0,1.2-0.6,1.7-1.7,1.7h-18.2v4.5h12.4c2.2,0,3.3,1.1,3.3,3.2v8.4
			c0,2.1-1.1,3.2-3.3,3.2h-7v10.8c0,0.9,0.3,1.5,1,1.9c0.8,0.4,2.5,0.6,5.3,0.6c2.2,0,3.5-0.2,4-0.7c0.5-0.4,0.8-0.9,0.8-1.6v-3.9
			c0.1-1.3,0.7-2,1.8-2.1c1.1,0.1,1.7,0.9,1.8,2.6c0,3.8-0.2,5.9-0.6,6.6c-0.3,0.8-0.9,1.4-1.9,1.9c-0.9,0.4-2.9,0.7-5.8,0.7
			c-4.2,0-6.8-0.4-8.1-1.2c-1.2-0.7-1.8-2-1.8-3.9v-11.6h-8.6v1.5c0,2.2-0.4,4.1-1.1,6c-0.8,1.9-2.3,3.6-4.4,5.2
			c-1.9,1.6-4.7,3.1-8.2,4.4c-0.8,0.3-1.2,0.4-1.4,0.4c-1.4,0-2.1-0.7-2.1-2.1c0-1,0.4-1.6,1.2-1.9c3.5-1.2,6.1-2.4,7.8-3.7
			c1.7-1.2,2.9-2.5,3.6-3.9c0.7-1.4,1-2.9,1-4.4v-1.5h-5.7c-2.2,0-3.3-1.1-3.3-3.2v-8.4c0-2.1,1.1-3.2,3.3-3.2h12.4v-4.5h-18.2
			c-1.1,0-1.7-0.6-1.7-1.7c0-1.1,0.6-1.7,1.7-1.7h18.2v-2.1c0-1.3,0.6-1.9,1.9-1.9c1.2,0,1.9,0.6,1.9,1.9v2.1H197.5z M190,186.1
			c0.9,0,1.4-0.5,1.4-1.5v-5.1c0-1-0.5-1.5-1.4-1.5h-25.1c-0.9,0-1.4,0.5-1.4,1.5v5.1c0,1,0.5,1.5,1.4,1.5H190z"/>
		<path fill="#D7F9EA" d="M213.8,180.5c0.4,0,0.8,0.1,1.1,0.4c0.3,0.3,0.5,0.6,0.5,1.1c0,0.3-0.1,0.6-0.2,1c-0.3,1-0.6,1.8-1,2.5
			c0.9,0.8,1.7,1.5,2.3,1.9c0.7,0.5,1.6,1,2.7,1.6c0.6,0.3,0.9,0.8,0.9,1.5c-0.1,1.2-0.6,1.8-1.6,1.8c-0.3,0-0.8-0.1-1.5-0.4
			c-0.7-0.4-1.5-0.9-2.2-1.5c-0.7-0.6-1.5-1.3-2.3-2.3c-0.9,1.3-1.9,2.5-3,3.5c-1.1,1.1-2.4,2-3.8,2.7c-0.3,0.3-0.7,0.4-1.2,0.4
			c-0.4,0-0.8-0.2-1.1-0.5c-0.3-0.4-0.5-0.9-0.5-1.4c0-0.5,0.2-0.9,0.6-1.2c1.3-0.8,2.5-1.5,3.4-2.4c1.2-1.1,2.2-2.2,3-3.4
			c0.8-1.2,1.5-2.5,2.1-4.2C212.3,180.9,212.9,180.5,213.8,180.5z M244.5,175.2c1.1,0,1.7,0.6,1.7,1.7s-0.6,1.7-1.7,1.7h-17.2v10
			c3.4,3.9,6.7,6.9,9.8,8.9c2,1.5,5,3.1,9,4.7c0.9,0.2,1.4,0.8,1.5,1.7c-0.1,1.3-0.7,2-2,2c-0.4,0-1.2-0.3-2.5-0.8
			c-5.7-2.4-10.9-6.3-15.8-11.5v11.6c0,1.2-0.6,1.8-1.8,1.8c-1.2,0-1.8-0.6-1.8-1.8v-11.8c-3,3.2-5.8,5.6-8.3,7.2
			c-3,1.9-5.8,3.4-8.3,4.5c-0.9,0.5-1.5,0.8-2,0.8c-1.3-0.1-1.9-0.8-2-2.1c0-0.8,0.5-1.4,1.5-1.6c4.8-2.2,8.4-4.2,10.7-6
			c2.8-2.1,5.6-4.7,8.3-7.8v-9.9H207c-1.1,0-1.7-0.6-1.7-1.7s0.6-1.7,1.7-1.7h16.8V173c0-1.2,0.6-1.8,1.8-1.8c1.2,0,1.8,0.6,1.8,1.8
			v2.3H244.5z M246.2,166.5c1.1,0,1.6,0.5,1.6,1.6s-0.5,1.6-1.6,1.6h-9.8v1.6c0,1.1-0.6,1.7-1.7,1.7s-1.7-0.6-1.7-1.7v-1.6H216v1.6
			c0,1.1-0.6,1.7-1.7,1.7s-1.7-0.6-1.7-1.7v-1.6H205c-1.1,0-1.6-0.5-1.6-1.6s0.5-1.6,1.6-1.6h7.7v-1.4c0-1.1,0.6-1.7,1.7-1.7
			s1.7,0.6,1.7,1.7v1.4h17.1v-1.4c0-1.1,0.6-1.7,1.7-1.7s1.7,0.6,1.7,1.7v1.4H246.2z M238,180.3c0.4,0,0.8,0.1,1.1,0.4
			c0.3,0.3,0.5,0.6,0.5,1.1c0,0.3-0.1,0.7-0.2,1c-0.1,0.4-0.3,0.8-0.4,1.1c1.2,1.3,2.3,2.3,3.1,3c0.9,0.7,2,1.4,3.3,2.2
			c0.6,0.3,0.9,0.8,0.9,1.5c-0.1,1.2-0.6,1.8-1.6,1.8c-0.3,0-0.8-0.1-1.5-0.4c-0.9-0.5-1.8-1.1-2.7-1.9c-0.9-0.8-1.9-1.9-3-3.1
			c-0.5,1-1.2,1.9-2,2.6c-0.7,0.8-1.5,1.5-2.5,2.1c-0.3,0.3-0.7,0.4-1.1,0.4c-0.4,0-0.8-0.2-1.2-0.6c-0.3-0.4-0.5-0.9-0.5-1.4
			c0-0.5,0.2-0.9,0.6-1.2c0.8-0.5,1.5-1.1,2.2-1.8c0.7-0.8,1.3-1.6,1.9-2.5c0.5-0.9,1-1.9,1.4-3.1
			C236.5,180.7,237.1,180.3,238,180.3z"/>
	</g>
	<g>
		<path fill="#8ECDE8" d="M847.8,132.2h5.3c0-1.3,0-2.6,0-3.9c0-1.2,0.6-1.7,1.8-1.7c1.2,0,1.8,0.6,1.8,1.8c0,1.3,0,2.6-0.1,3.8h6.8
			c2.4,0,3.6,1.1,3.6,3.4c0,10.3-0.3,18.3-0.9,24.2c-0.4,3.9-1.2,6.5-2.3,7.9c-1.2,1.4-2.8,2.2-5,2.2c-1.1,0-2.7-0.3-4.7-0.9
			c-0.9-0.3-1.4-0.9-1.4-1.9c0-1.3,0.7-2,2-2c2.1,0.7,3.5,1,4.1,1c1.2,0,2.2-0.5,2.7-1.6c0.6-1.4,1-3.3,1.2-5.9
			c0.4-3.9,0.7-11.2,0.7-21.7c0-0.9-0.4-1.3-1.2-1.3h-5.8c-0.2,4.4-0.5,8.5-1.1,12.5c-1.3,7.8-3.7,14.8-7.1,21
			c-0.4,0.6-0.9,0.8-1.5,0.8c-1.3,0-2-0.7-2-2c0-0.1,0.2-0.5,0.5-1.1c3.2-5.8,5.4-12.4,6.7-19.9c0.5-3.6,0.9-7.4,1-11.4h-5.2
			c-1.1,0-1.7-0.6-1.7-1.7S846.7,132.2,847.8,132.2z M873.7,129.9h11.6c2.1,0,3.2,1.1,3.2,3.2v32.8c0,2.1-1.1,3.2-3.2,3.2h-11.6
			c-2.1,0-3.2-1.1-3.2-3.2v-32.8C870.5,131,871.6,129.9,873.7,129.9z M884,165.7c0.8,0,1.1-0.4,1.1-1.1v-30.2c0-0.7-0.4-1.1-1.1-1.1
			h-9c-0.8,0-1.1,0.4-1.1,1.1v30.2c0,0.8,0.4,1.1,1.1,1.1H884z"/>
		<path fill="#8ECDE8" d="M899.4,136.3c1.1,0,1.7,0.6,1.7,1.7c0,3.2-0.2,6.2-0.5,9c-0.5,3.6-1.4,6.7-2.8,9.5
			c-0.4,0.6-0.9,0.9-1.5,0.9c-1.3,0-2-0.7-2-2c0-0.1,0.2-0.5,0.5-1.1c1.2-2.5,2-5.3,2.4-8.4c0.3-2.5,0.5-5.1,0.5-7.9
			C897.7,136.8,898.2,136.3,899.4,136.3z M905.7,126.5c1.1,0,1.7,0.6,1.7,1.7v19.3c0,4.4-0.8,8.6-2.4,12.5c-1.4,3.3-3.3,6.3-5.7,8.9
			c-0.5,0.8-1,1.1-1.5,1.1c-1.4-0.1-2.1-0.7-2.2-2c0-0.3,0.2-0.7,0.6-1c3.2-3.5,5.3-7.1,6.5-10.8c0.9-2.9,1.4-5.8,1.4-8.7v-19.3
			C904.1,127.1,904.6,126.5,905.7,126.5z M911.4,136.3c0.7,0,1.2,0.3,1.6,1c0.6,3.1,1.3,8.2,2,15.3c0.2,1.3,0.2,2.3,0.2,2.9
			c0,1.1-0.6,1.6-1.8,1.6c-1,0-1.5-0.5-1.6-1.6c-0.4-6.5-1.1-11.9-1.9-16.4l-0.1-1.4C909.8,136.8,910.3,136.3,911.4,136.3z
			 M919.2,128.4c1.1,0,1.7,0.6,1.7,1.7v36c0,1.1-0.6,1.7-1.7,1.7s-1.7-0.6-1.7-1.7v-36C917.6,129,918.1,128.4,919.2,128.4z
			 M925.6,136.3c0.7,0,1.2,0.3,1.6,1c0.8,3.1,1.5,8.2,2.3,15.3c0.2,1.3,0.3,2.3,0.3,2.9c0,1.1-0.6,1.6-1.8,1.6c-1,0-1.5-0.5-1.6-1.6
			c-0.5-6.5-1.3-11.9-2.3-16.4l-0.1-1.4C924,136.8,924.6,136.3,925.6,136.3z M934.1,126.6c1.2,0,1.8,0.6,1.8,1.8v39.9
			c0,1.2-0.6,1.8-1.8,1.8c-1.2,0-1.8-0.6-1.8-1.8v-39.9C932.3,127.2,932.9,126.6,934.1,126.6z"/>
		<path fill="#8ECDE8" d="M983,137.9c1.2,0,1.8,0.6,1.8,1.8s-0.6,1.8-1.8,1.8h-17.2c0.2,1.2,0.5,2.4,0.8,3.8c0.8,2.7,2.2,5.3,4,7.9
			c1.7,2.5,3.9,4.9,6.7,7.3c1.8,1.8,4.4,3.7,7.6,6c0.6,0.5,0.8,1,0.8,1.5c-0.1,1.3-0.7,1.9-1.9,2c-0.5,0-1.1-0.3-1.8-0.8
			c-3.5-2.4-6.6-4.9-9.1-7.5c-2.4-2.5-4.3-4.9-5.6-7c-1.6-2.5-2.8-4.9-3.7-7.4c-0.9,2.5-2.1,4.8-3.6,7.1c-1.4,2.3-3.4,4.7-5.8,7.1
			c-2.7,2.9-5.7,5.5-9,7.8c-0.6,0.4-1,0.7-1.5,0.7c-1.3-0.1-2-0.8-2.1-2.3c0-0.4,0.4-0.9,1.1-1.5c3-2,5.7-4.2,8.2-6.7
			c2.7-2.6,4.9-5.1,6.6-7.7c1.5-2.4,2.6-4.8,3.3-7c0.3-1.2,0.6-2.3,0.7-3.4h-17c-1.2,0-1.8-0.6-1.8-1.8s0.6-1.8,1.8-1.8h17.3v-9.3
			c0-1.2,0.6-1.9,1.9-1.9c1.2,0,1.9,0.6,1.9,1.9v9.3H983z"/>
		<path fill="#8ECDE8" d="M1031.7,158.5c1.1,0,1.6,0.5,1.6,1.6s-0.5,1.6-1.6,1.6h-14.6c0.2,0.7,0.2,1.4,0.2,2.2
			c0,1.2-0.4,2.4-1.2,3.5c-0.7,1-1.5,1.7-2.7,2.2c-1,0.4-2.3,0.7-3.7,0.7c-2.1,0-4.5-0.4-7.2-1.3c-1-0.4-1.5-1-1.5-1.9
			c0.1-1.3,0.6-2,1.7-2c3.6,1.1,5.8,1.6,6.7,1.6c0.7,0,1.3-0.1,1.9-0.3c0.7-0.2,1.3-0.6,1.7-1c0.5-0.4,0.7-0.9,0.7-1.5
			c0-0.8-0.1-1.6-0.2-2.2h-22c-1.1,0-1.6-0.5-1.6-1.6s0.5-1.6,1.6-1.6h19.9c-0.7-0.6-1.4-1-2.3-1.4c-0.3-0.1-0.4-0.3-0.4-0.4
			c0.1-1.2,0.7-1.8,2-1.9c0.3,0,0.7,0.1,1.1,0.3c0.4,0.3,0.9,0.5,1.3,0.8c1.1-0.3,1.8-0.5,2.3-0.8c0.9-0.4,1.7-0.8,2.3-1.2
			c0.5-0.3,0.8-0.5,0.8-0.6c0-0.3-0.2-0.4-0.7-0.4h-17.8c-1,0-1.5-0.5-1.5-1.5s0.5-1.5,1.5-1.5h21.3c2,0,3,0.7,3,2.1
			c0,0.4-0.3,0.8-0.8,1.3c-0.9,0.8-2.1,1.6-3.8,2.6c-1.5,0.8-3,1.4-4.5,2c0.2,0.2,0.3,0.4,0.5,0.6H1031.7z M996.9,136.2l0.2,3h5.4
			c0.9,0,1.4,0.5,1.4,1.4s-0.5,1.4-1.4,1.4h-5.2l0.2,2.5h27.8c0.1-1,0.2-1.9,0.3-2.7h-5c-0.9,0-1.4-0.5-1.4-1.4s0.5-1.4,1.4-1.4h5.3
			c0.2-1.1,0.3-2.1,0.4-3h-6.1c-0.9,0-1.4-0.5-1.4-1.4s0.5-1.4,1.4-1.4h6.5c0.2-1.6,0.3-2.4,0.3-2.5c0-0.5-0.3-0.7-0.9-0.7h-5.9
			c-0.9,0-1.4-0.5-1.4-1.4c0-0.9,0.5-1.4,1.4-1.4h7.6c1.8,0,2.8,0.8,2.8,2.3c0,0.4-0.7,5.4-2.1,15h1.3c1.3,0,2.4,0.5,3,1.4
			c0.5,0.7,0.8,1.8,0.8,3.2c0,1-0.1,2.1-0.3,3.3c-0.3,1-1,1.5-2.1,1.5c-1.2,0-1.8-0.6-1.8-1.8c0.3-1.5,0.5-2.4,0.5-2.8
			c0-1.2-0.4-1.8-1.3-1.8h-34c-0.8,0-1.1,0.4-1.1,1.1v3.9c0,1.1-0.6,1.7-1.7,1.7s-1.7-0.6-1.7-1.7V147c0-1.6,0.8-2.4,2.4-2.4h1.8
			l-1.1-14.1c0-1.2,0.3-2.1,0.8-2.6c0.4-0.5,1.2-0.7,2.4-0.8c2-0.1,4.1-0.3,6.2-0.7c1.1,0,1.6,0.5,1.6,1.6c0,1-0.6,1.6-1.7,1.7
			c-2,0.2-3.7,0.3-5.3,0.3c-0.7,0-1.1,0.4-1.1,1.2l0.1,2.1h5.4c0.9,0,1.4,0.5,1.4,1.4s-0.5,1.4-1.4,1.4H996.9z M1015.3,126.5
			c1.1,0,1.6,0.5,1.6,1.6c0,0.5-0.3,0.9-0.8,1.3c-0.6,0.5-1.3,1-2,1.5c0.8,0.5,1.5,0.9,2.2,1.4c0.3,0.4,0.5,0.7,0.5,0.9
			c0,1-0.5,1.5-1.5,1.5c-0.6,0-1-0.2-1.4-0.5c-0.9-0.6-1.8-1.1-2.5-1.5c-1.4,0.9-3,1.7-4.8,2.4c-0.5,0.2-0.8,0.2-0.9,0.2
			c-1,0-1.5-0.5-1.5-1.5c0-0.5,0.3-0.8,0.8-1.1c1.2-0.5,2.3-1.1,3.4-1.7c-0.7-0.3-1.5-0.7-2.3-1c-0.3-0.3-0.5-0.7-0.5-1
			c0-0.9,0.5-1.4,1.4-1.4c0.3,0,0.6,0.1,0.9,0.3c1.2,0.5,2.3,1,3.3,1.5c1.2-0.8,2.2-1.6,3.1-2.5
			C1014.8,126.7,1015.2,126.5,1015.3,126.5z M1016.5,135.3c1.1,0,1.6,0.5,1.6,1.6c0,0.5-0.3,0.9-0.8,1.3c-0.6,0.5-1.2,1-1.9,1.5
			c0.8,0.4,1.5,0.9,2.2,1.3c0.3,0.4,0.5,0.7,0.5,0.9c0,1-0.5,1.5-1.5,1.5c-0.5,0-1-0.2-1.4-0.5c-1-0.6-1.9-1.1-2.7-1.5
			c-1.5,0.8-3.1,1.5-4.8,2.2c-0.5,0.2-0.8,0.2-0.9,0.2c-1,0-1.5-0.5-1.5-1.5c0-0.5,0.3-0.8,0.8-1.1c1.2-0.4,2.3-0.9,3.3-1.5
			c-0.8-0.4-1.6-0.7-2.4-1.1c-0.3-0.3-0.5-0.7-0.5-1c0-0.9,0.5-1.4,1.4-1.4c0.3,0,0.6,0.1,0.9,0.3c1.3,0.6,2.5,1.1,3.5,1.5
			c1.2-0.8,2.3-1.5,3.2-2.3C1015.9,135.5,1016.3,135.3,1016.5,135.3z"/>
	</g>
	<g>
		<path fill="#AEFFF3" d="M205.9,101.8c1,0,1.5,0.5,1.5,1.5s-0.5,1.5-1.5,1.5h-14.8c0.1,0.1,0.1,0.2,0.2,0.2c1.2,1.6,3,3.2,5.3,4.7
			c2.1,1.4,5.2,2.8,9.1,4.3c0.6,0.4,0.9,0.9,0.9,1.4c-0.1,1.1-0.6,1.7-1.7,1.7c-0.5,0-1.1-0.2-1.8-0.5c-4-1.4-6.9-2.9-8.8-4.2
			c-2.6-1.7-4.9-4-6.8-6.9c-1.2,2-2.7,3.8-4.6,5.3c-2.3,1.9-6,3.9-11.2,5.9c-0.6,0.5-1.2,0.7-1.8,0.7c-1.2-0.1-1.9-0.7-1.9-1.9
			c0-0.4,0.3-0.7,0.8-1.1c3.2-1.2,5.7-2.4,7.7-3.5c3.2-1.8,5.5-3.5,6.7-5.1c0.3-0.3,0.5-0.6,0.7-0.9h-15.3c-1,0-1.5-0.5-1.5-1.5
			s0.5-1.5,1.5-1.5h3v-8.3c0-1.8,0.9-2.7,2.8-2.7h11.4v-3.2c0-1.1,0.6-1.7,1.7-1.7s1.7,0.6,1.7,1.7v3.2h11.5c1.9,0,2.8,0.9,2.8,2.7
			v8.3H205.9z M205.7,81.3c1,0,1.5,0.5,1.5,1.5s-0.5,1.5-1.5,1.5h-8.1v2c0,1-0.5,1.5-1.5,1.5s-1.5-0.5-1.5-1.5v-2H179v2
			c0,1-0.5,1.5-1.5,1.5s-1.5-0.5-1.5-1.5v-2h-7.3c-1,0-1.5-0.5-1.5-1.5s0.5-1.5,1.5-1.5h7.3v-2.2c0-1,0.5-1.5,1.5-1.5
			s1.5,0.5,1.5,1.5v2.2h15.6v-2.2c0-1,0.5-1.5,1.5-1.5s1.5,0.5,1.5,1.5v2.2H205.7z M185.4,101.8c0.1-0.6,0.2-1.1,0.2-1.7v-6.3h-10
			c-0.6,0-0.9,0.4-0.9,1.1v6.9H185.4z M200.1,101.8v-6.9c0-0.7-0.3-1.1-0.9-1.1H189v6.3c0,0.5,0.1,1.1,0.3,1.7H200.1z"/>
		<path fill="#AEFFF3" d="M215.4,78.9h30.7c1.9,0,2.9,0.9,2.9,2.8v31.9c0,1.9-1,2.8-2.9,2.8h-30.7c-1.9,0-2.9-0.9-2.9-2.8V81.7
			C212.5,79.8,213.5,78.9,215.4,78.9z M244.7,113.4c0.8,0,1.2-0.4,1.2-1.3V83c0-0.8-0.4-1.3-1.2-1.3h-28c-0.8,0-1.2,0.4-1.2,1.3
			v29.1c0,0.8,0.4,1.3,1.2,1.3H244.7z M243.2,86.4c0.9,0,1.4,0.5,1.4,1.4c0,0.9-0.5,1.4-1.4,1.4h-8.4c0.1,3,0.4,5.6,0.8,7.8
			c0.3,1.8,0.7,3.5,1.1,5c0.2-0.3,0.3-0.6,0.5-0.9c0.9-2.6,1.4-5.3,1.4-8.3c0-0.9,0.5-1.4,1.4-1.4c1,0,1.4,0.5,1.4,1.4
			c0,3.2-0.5,6.3-1.5,9.1c-0.5,1.2-1.1,2.4-1.9,3.6c0.5,1,1,1.9,1.5,2.7c0.4,0.7,0.8,1.1,1,1.1c0.2,0,0.3-0.3,0.4-1
			c0.2-1.5,0.3-3,0.3-4.4c0.1-1,0.6-1.4,1.4-1.4c0.9,0.2,1.4,0.9,1.4,1.9c0,2.2-0.3,4.3-0.8,6.4c-0.5,1.5-1.2,2.2-2.2,2.2
			c-1,0-2-0.6-3-1.8c-0.7-0.9-1.3-1.9-1.9-3c-1.1,1.3-2.5,2.5-4,3.6c-0.3,0.5-0.8,0.7-1.3,0.7c-1.1,0-1.7-0.6-1.7-1.7
			c0-0.1,0.1-0.4,0.4-0.9c2.1-1.5,3.9-3.1,5.3-4.8c-1-2.6-1.8-5.7-2.3-9.4c-0.3-2-0.4-4.1-0.6-6.4h-13.6c-0.9,0-1.4-0.5-1.4-1.4
			c0-0.9,0.5-1.4,1.4-1.4h13.5c0-0.8,0-1.6,0-2.3c0-1,0.5-1.5,1.4-1.5s1.4,0.5,1.4,1.5c0,0.8,0,1.6,0,2.3h4.4
			c-0.5-0.7-1-1.3-1.5-1.9c-0.3-0.3-0.4-0.6-0.4-0.8c0-0.9,0.5-1.4,1.6-1.4c0.3,0,0.5,0.2,0.8,0.5c0.6,0.9,1.3,1.9,1.9,3
			c0.1,0.3,0.2,0.5,0.3,0.6H243.2z M230.5,104.7c0.8,0.1,1.3,0.5,1.4,1.3c0,0.6-0.3,1.1-0.9,1.4c-1.4,0.8-3.3,1.5-5.7,2.1
			c-1.8,0.5-4,1-6.6,1.4c-1-0.1-1.5-0.6-1.6-1.6c0-1,0.4-1.5,1.3-1.7c2.3-0.3,4.2-0.6,5.4-1c2.3-0.5,4.3-1.2,5.9-1.9
			C230,104.8,230.2,104.7,230.5,104.7z M220.6,91.8h8c1.5,0,2.2,0.7,2.2,2.2v7.3c0,1.5-0.7,2.2-2.2,2.2h-8c-1.5,0-2.2-0.7-2.2-2.2
			V94C218.4,92.6,219.2,91.8,220.6,91.8z M227.1,100.8c0.7,0,1-0.3,1-1v-4.2c0-0.7-0.3-1-1-1h-4.9c-0.7,0-1,0.3-1,1v4.2
			c0,0.7,0.3,1,1,1H227.1z"/>
		<path fill="#AEFFF3" d="M266.6,77.3c0.6,0,1.2,0.2,1.5,0.5c1.9,1.6,3.8,2.9,5.6,4c1.3,0.8,3,1.5,5.1,2.3c0.5,0.4,0.8,0.8,0.8,1.4
			c-0.1,1.1-0.6,1.7-1.7,1.7c-0.3,0-0.7-0.1-1.2-0.4c-1.4-0.6-2.8-1.3-4.1-2c-1.8-1-3.7-2.4-5.6-4.1c-0.1-0.1-0.2-0.2-0.4-0.2
			c-0.1,0-0.3,0.1-0.5,0.3c-2.6,2.4-5.9,4.5-9.8,6.3c-0.4,0.3-0.9,0.5-1.4,0.5c-1.1-0.1-1.7-0.7-1.7-1.9c0-0.3,0.2-0.7,0.7-1.1
			c2.3-0.9,4.1-1.8,5.3-2.5c1.6-0.9,3.5-2.3,5.5-4.1C265.1,77.5,265.8,77.3,266.6,77.3z M260.6,104c0.4,0,0.7,0.1,1,0.3
			c0.3,0.2,0.4,0.5,0.4,1c0,0.3-0.1,0.6-0.2,0.9c-0.2,0.8-0.4,1.5-0.6,2.1c0.6,0.6,1.1,1.1,1.6,1.7c0.8,0.8,1.6,1.8,2.3,2.8
			c0.3,0.4,0.5,0.6,0.5,0.8c0,0.9-0.4,1.4-1.3,1.4c-0.5,0-0.9-0.2-1.3-0.5c-0.8-1.1-1.5-2-2.1-2.7c-0.3-0.3-0.5-0.6-0.8-0.8
			c-0.5,1.1-1.1,2.1-1.8,3c-0.6,1-1.4,1.8-2.3,2.5c-0.3,0.3-0.7,0.4-1.1,0.4c-0.4,0-0.7-0.2-1-0.5c-0.3-0.4-0.5-0.8-0.5-1.2
			c0-0.4,0.2-0.8,0.6-1.1c0.8-0.7,1.4-1.4,2-2.2c0.6-1,1.2-2,1.7-3.1c0.5-1,0.9-2.3,1.3-3.8C259.3,104.4,259.8,104,260.6,104z
			 M257.8,91.3h5.8c1.4,0,2.1,0.7,2.1,2v8c0,1.4-0.7,2-2.1,2h-5.8c-1.4,0-2.1-0.7-2.1-2v-8C255.6,92,256.3,91.3,257.8,91.3z
			 M273.7,86.5c1,0,1.4,0.5,1.4,1.4c0,1-0.5,1.4-1.4,1.4h-14.4c-1,0-1.4-0.5-1.4-1.4c0-1,0.5-1.4,1.4-1.4H273.7z M261.8,100.6
			c0.6,0,0.9-0.3,0.9-1V95c0-0.7-0.3-1-0.9-1h-2.4c-0.6,0-0.9,0.3-0.9,1v4.6c0,0.7,0.3,1,0.9,1H261.8z M272.7,104.2
			c0.4,0,0.7,0.1,1,0.3c0.3,0.2,0.4,0.6,0.4,1c0,0.3-0.1,0.6-0.2,0.9c-0.1,0.5-0.2,0.9-0.4,1.4c0.2,0.2,0.3,0.4,0.4,0.6
			c0.8,2.1,2.4,3.9,4.6,5.4c0.5,0.4,0.8,0.8,0.8,1.2c0,0.6-0.1,0.9-0.3,1.1c-0.3,0.4-0.7,0.6-1.2,0.6c-0.5,0-1.1-0.3-1.6-0.8
			c-1.3-0.9-2.6-2.5-3.9-4.7c0-0.1-0.1-0.2-0.1-0.2c-0.6,1.3-1.4,2.4-2.2,3.4c-0.7,1-1.6,1.8-2.6,2.5c-0.3,0.2-0.6,0.3-1,0.3
			c-0.4,0-0.7-0.2-1-0.5c-0.3-0.4-0.4-0.8-0.4-1.2c0-0.4,0.2-0.7,0.5-1c0.8-0.7,1.6-1.5,2.2-2.3c0.7-1,1.4-2.1,1.9-3.3
			c0.5-1.1,1-2.4,1.4-4C271.4,104.5,271.9,104.2,272.7,104.2z M269.4,91.3h5.8c1.4,0,2.1,0.7,2.1,2v7.8c0,1.4-0.7,2-2.1,2h-5.8
			c-1.4,0-2.1-0.7-2.1-2v-7.8C267.3,92,268,91.3,269.4,91.3z M273.5,100.5c0.6,0,0.9-0.3,0.9-1V95c0-0.7-0.3-1-0.9-1h-2.4
			c-0.6,0-0.9,0.3-0.9,1v4.4c0,0.7,0.3,1,0.9,1H273.5z M291.1,78.2c1.1,0,1.6,0.5,1.6,1.6v33.1c0,2.8-1.6,4.2-4.7,4.2
			c-1.6,0-3.8-0.4-6.4-1.2c-0.8-0.3-1.3-0.8-1.3-1.7c0-1.1,0.5-1.6,1.4-1.7c0.3,0,0.6,0.1,1,0.2c2.6,0.7,4.3,1.1,5.1,1.1
			c1.1,0,1.6-0.6,1.6-1.8V79.8C289.5,78.7,290.1,78.2,291.1,78.2z M283,80.5c1,0,1.5,0.5,1.5,1.5v25.1c0,1-0.5,1.5-1.5,1.5
			s-1.5-0.5-1.5-1.5V82C281.5,81,282,80.5,283,80.5z"/>
		<path fill="#AEFFF3" d="M308.1,86.4c1,0,1.5,0.5,1.5,1.5c0,1-0.5,1.5-1.5,1.5h-2.2v1.3l4.4,7.1c0.3,0.5,0.4,0.8,0.4,1.1
			c0,1-0.5,1.5-1.6,1.5c-0.4,0-0.7-0.2-1-0.7l-2.2-4.4v20.4c0,1-0.5,1.5-1.5,1.5s-1.5-0.5-1.5-1.5V97.9c-0.4,2-0.8,3.6-1.2,4.9
			c-0.6,2.1-1.1,3.6-1.5,4.5c-0.3,0.7-0.8,1-1.4,1c-1,0-1.5-0.5-1.5-1.5c0-0.4,0.1-0.8,0.4-1.2c1.5-4,2.6-7.3,3.2-9.9
			c0.5-1.8,0.9-3.9,1.3-6.3h-3.4c-1,0-1.5-0.5-1.5-1.5c0-1,0.5-1.5,1.5-1.5h4.1v-7.3c0-1,0.5-1.5,1.5-1.5s1.5,0.5,1.5,1.5v7.3H308.1
			z M333.8,78.2c0.9,0,1.4,0.5,1.4,1.6c0,0.7-0.6,1.1-1.7,1.3c-2.3,0.2-5.4,0.4-9.2,0.6c0,0.3-0.1,0.6-0.3,0.8
			c-0.4,0.7-0.7,1.4-1.1,2h13.2c0.9,0,1.4,0.5,1.4,1.4c0,0.9-0.5,1.4-1.4,1.4h-6.9c0.9,0.8,1.8,1.6,2.7,2.2c1.6,1.1,3.6,2.1,5.9,3
			c0.6,0.3,0.8,0.6,0.8,1.1c0,1.1-0.5,1.7-1.5,1.7c-0.5,0-1-0.2-1.6-0.5c-1.6-0.7-2.9-1.4-4-2.2v2.8c0,1.1-0.7,1.7-2,1.7h-12.2
			c-1.4,0-2-0.6-2-1.7V93c-1,0.8-2.2,1.5-3.3,2.1c-0.4,0.2-0.7,0.3-0.9,0.3c-1,0-1.5-0.5-1.5-1.6c0-0.5,0.3-0.9,0.9-1.2
			c3.2-1.7,5.5-3.5,7.1-5.3h-5.8c-0.9,0-1.4-0.5-1.4-1.4c0-0.9,0.5-1.4,1.4-1.4h7.8c0.5-0.8,1.1-1.7,1.6-2.7
			c-3.7,0.1-6.3,0.2-7.9,0.2c-1.1,0-1.7-0.5-1.7-1.6c0-0.8,0.5-1.3,1.4-1.3c3.6,0,7-0.1,10.1-0.3C326.9,78.8,330.5,78.5,333.8,78.2z
			 M314.3,99.4h19.2c2.1,0,3.1,1,3.1,3V113c0,2.7-1.6,4.1-4.7,4.1c-1.1,0-2.5-0.2-4.1-0.5c-0.7-0.3-1-0.7-1-1.4
			c0-1.1,0.4-1.6,1.3-1.6c0.3,0,0.5,0,0.8,0.1c1.1,0.3,2,0.4,2.6,0.4c1.4,0,2-0.6,2-1.7v-9.2c0-0.9-0.4-1.4-1.2-1.4h-17.1
			c-0.8,0-1.2,0.5-1.2,1.4v12.3c0,1-0.5,1.5-1.5,1.5c-1,0-1.5-0.5-1.5-1.5v-13.1C311,100.4,312.1,99.4,314.3,99.4z M318.4,104.2
			h10.5c1.3,0,1.9,0.6,1.9,1.7v4.4c0,1.1-0.7,1.7-1.9,1.7h-10.5c-1.3,0-1.9-0.6-1.9-1.7v-4.4C316.5,104.8,317.1,104.2,318.4,104.2z
			 M328.6,95c0.2,0,0.3-0.2,0.3-0.7v-1.5c0-0.5-0.1-0.7-0.3-0.7h-10.2c-0.2,0-0.3,0.2-0.3,0.7v1.5c0,0.5,0.1,0.7,0.3,0.7H328.6z
			 M318.8,90.1h9.7c-1.1-1-1.9-1.9-2.6-2.9h-4.6c-0.7,0.9-1.3,1.8-2.1,2.5C319,89.9,318.9,90,318.8,90.1z M327.7,110
			c0.4,0,0.6-0.3,0.6-0.8v-2c0-0.6-0.2-0.8-0.6-0.8h-8.1c-0.4,0-0.6,0.3-0.6,0.8v2c0,0.6,0.2,0.8,0.6,0.8H327.7z"/>
	</g>
	<g>
		<path fill="#6FBFE2" d="M856.5,338c1.2,0,1.9,0.6,1.9,1.8v1.5h16.1c1.1,0,1.7,0.5,1.7,1.6s-0.6,1.6-1.7,1.6h-16.1v3.3h10.9
			c2.1,0,3.2,1,3.2,3v3.2h2.4c1,0,1.5,0.5,1.5,1.5s-0.5,1.5-1.5,1.5h-2.4v3.4c0,2-1.1,3-3.2,3h-10.3c0.6,1.7,1.3,3,1.9,3.9
			c0.8,1.3,1.9,2.6,3.5,3.9c2.1-1.9,3.8-3.6,5.1-5.3c0.4-0.6,0.8-0.8,1.2-0.8c1.2,0,1.8,0.6,1.8,1.7c0,0.6-0.3,1.1-0.8,1.5
			c-1.3,1.7-2.9,3.4-4.7,4.9c0.8,0.6,1.7,1.1,2.5,1.6c1.6,0.9,3.2,1.6,4.9,2.2c1.2,0.3,2,0.8,2.4,1.3c0.4,0.3,0.6,0.7,0.6,1.3
			c0,1.3-0.7,2-2,2c-0.6,0-1.8-0.4-3.6-1.3c-2.1-0.9-4-2-5.7-3.2c-1.8-1.3-3.2-2.5-4.2-3.4c-1.3-1.4-2.4-2.8-3.3-4.3
			c-0.1-0.1-0.1-0.2-0.2-0.3v9.7c0,2.8-1.6,4.2-4.7,4.2c-1.2,0-2.8-0.3-4.9-0.8c-0.9-0.3-1.4-0.9-1.4-1.7c0.1-1.1,0.6-1.7,1.5-1.8
			c0.2,0,0.4,0,0.7,0.1c1.8,0.5,3,0.7,3.6,0.7c1.1,0,1.7-0.6,1.7-1.8v-14.3h-12.8c-0.9,0-1.4-0.5-1.4-1.5s0.5-1.5,1.4-1.5H855v-3.4
			h-14.6c-1,0-1.5-0.5-1.5-1.5s0.5-1.5,1.5-1.5H855v-3.2H842c-0.9,0-1.4-0.5-1.4-1.5s0.5-1.5,1.4-1.5H855v-3.3h-15.8
			c-0.8,0-1.1,0.4-1.1,1.2v14.4c0,5.2-0.3,9.5-1,12.8c-0.5,3.2-1.2,5.8-2,7.8c-0.3,0.8-0.9,1.2-1.5,1.2c-1.3-0.1-1.9-0.7-2-1.8
			c0-0.3,0.2-0.9,0.6-1.9c0.3-0.7,0.5-1.5,0.8-2.5c0.4-1.5,0.7-3.1,1-4.6c0.6-3.4,0.8-7.1,0.8-11v-16.5c0-1.6,0.8-2.3,2.4-2.3h17.4
			v-1.5C854.6,338.6,855.2,338,856.5,338z M852.2,370.6c1,0.1,1.5,0.6,1.6,1.5c0,0.7-0.3,1.3-1,1.8c-1.5,1-3.4,2-5.8,2.9
			c-1.8,0.8-4.1,1.4-6.7,2.1c-1.2-0.1-1.8-0.7-1.9-1.9c0-1.1,0.5-1.8,1.5-1.9c2.3-0.5,4.2-1,5.4-1.5c2.3-0.8,4.3-1.7,5.9-2.8
			C851.7,370.7,852,370.6,852.2,370.6z M843.4,364.6c0.3,0,0.7,0.1,1.2,0.4c0.8,0.4,1.4,0.8,2.1,1.1c0.9,0.5,1.8,1.1,2.6,1.8
			c0.4,0.5,0.6,0.8,0.6,1c0,1.1-0.5,1.7-1.6,1.7c-0.6,0-1.1-0.2-1.5-0.6c-0.9-0.7-1.7-1.2-2.4-1.5c-0.6-0.3-1.2-0.6-1.9-1
			c-0.4-0.4-0.6-0.8-0.6-1.2C841.8,365.2,842.4,364.6,843.4,364.6z M858.3,350.8v3.2H869v-1.9c0-0.9-0.4-1.3-1.1-1.3H858.3z
			 M858.3,356.9v3.4h9.6c0.8,0,1.1-0.4,1.1-1.3v-2.1H858.3z"/>
		<path fill="#6FBFE2" d="M885.2,340.6h28.5c2,0,3,1,3,2.9l-3,12.2c0,0.4,0.2,0.6,0.7,0.6h4.2c2.4,0,3.6,1.3,3.6,3.9
			c0,6.5-0.2,11.3-0.6,14.3c-0.3,2.4-1,4.3-2.3,5.6c-1.4,1.5-3.4,2.3-6,2.3c-3.2,0-8-0.8-14.4-2.4c-0.7-0.4-1.1-1-1.2-1.8
			c0.1-1.2,0.8-1.9,2.1-1.9c6.6,1.6,11,2.4,13.4,2.4c1.4,0,2.4-0.5,3.2-1.4c0.9-1.1,1.4-2.6,1.5-4.3c0.3-2.8,0.5-6.7,0.5-11.9
			c0-0.9-0.5-1.4-1.4-1.4h-4.9c-1.4,0-2.2-0.8-2.2-2.3l3-12.6c0-0.6-0.4-0.8-1.2-0.8h-16.2c0,0.1,0,0.2,0,0.2c0,2.2-0.2,5.1-0.5,8.7
			c-0.3,4-0.8,7.8-1.5,11.3c-1,4.3-2.3,7.8-3.7,10.5c-1.6,3-3.5,5.4-5.5,7.3c-0.3,0.3-0.6,0.5-0.8,0.5c-1.5,0-2.3-0.7-2.3-2.2
			c0-0.7,0.3-1.2,1-1.5c2.2-2.3,3.9-4.9,5.1-7.6c1.2-2.6,2.2-5.8,3-9.6c0.8-4.3,1.4-10.1,1.6-17.6h-6.7c-1.1,0-1.7-0.6-1.7-1.7
			S884,340.6,885.2,340.6z"/>
		<path fill="#6FBFE2" d="M970.1,340.7c1.1,0,1.6,0.5,1.6,1.6s-0.5,1.6-1.6,1.6h-7.7c3.1,2.1,6.2,3.8,9.2,4.9
			c0.8,0.3,1.3,0.9,1.3,1.5c0,1.3-0.7,2-2.1,2c-0.2,0-0.7-0.1-1.4-0.4c0,0.2,0,0.3,0,0.5v25.3c0,3.3-1.8,4.9-5.4,4.9
			c-1.5,0-3.2-0.2-5.3-0.7c-0.8-0.3-1.2-0.9-1.2-1.6c0-1.3,0.5-1.9,1.5-1.9c0.3,0,0.7,0.1,1.1,0.2c1.5,0.4,2.6,0.6,3.4,0.6
			c1.7,0,2.5-0.7,2.5-2v-23.7c0-0.8-0.2-1.1-0.6-1.1h-14v28.3c0,1.1-0.6,1.7-1.7,1.7s-1.7-0.6-1.7-1.7v-28.3H935
			c-0.4,0-0.6,0.4-0.6,1.1v27.6c0,1.1-0.6,1.7-1.7,1.7s-1.7-0.6-1.7-1.7v-28.7c0-0.3,0-0.5,0-0.7c-0.5,0.2-0.9,0.2-1,0.2
			c-1.2,0-1.8-0.7-1.8-2c0-0.6,0.3-1,0.9-1.4c3.9-1.3,7.2-2.9,9.8-4.7h-8.3c-1.1,0-1.6-0.5-1.6-1.6s0.5-1.6,1.6-1.6H970.1z
			 M937.6,366.9c0.3,0,0.6,0.2,0.9,0.6c1,0.8,2,1.6,3,2.5c0.8-1,1.6-1.9,2.3-2.9c0.3-0.6,0.7-0.9,1.2-0.9c1.2,0,1.7,0.5,1.7,1.6
			c0,0.6-0.3,1.2-0.8,1.9c-0.7,0.9-1.4,1.7-2,2.4c0.7,0.7,1.4,1.4,2.1,2.1c0.3,0.4,0.4,0.7,0.4,1c0,0.9-0.5,1.4-1.6,1.4
			c-0.3,0-0.6-0.1-0.8-0.4c-0.7-0.7-1.4-1.4-2.1-2c-1.3,1.3-2.5,2.4-3.7,3.2c-0.3,0.3-0.7,0.4-1.1,0.4c-1.1,0-1.6-0.5-1.6-1.5
			c0-0.3,0.1-0.7,0.4-1.1c1.3-1.1,2.5-2.2,3.6-3.3c-1-0.9-2.1-1.8-3.1-2.7c-0.3-0.4-0.5-0.7-0.5-0.9
			C935.8,367.4,936.4,366.9,937.6,366.9z M938,354.9c0.3,0,0.6,0.2,0.9,0.6c0.9,0.7,1.8,1.3,2.5,2c0.8-0.9,1.6-1.8,2.3-2.7
			c0.3-0.5,0.6-0.8,1-0.8c1,0,1.5,0.5,1.5,1.5c0,0.5-0.2,1.1-0.7,1.7c-0.7,0.9-1.3,1.6-1.9,2.3c0.8,0.7,1.5,1.4,2.2,2.1
			c0.3,0.4,0.4,0.7,0.4,1c0,0.9-0.5,1.4-1.6,1.4c-0.3,0-0.6-0.1-0.8-0.3c-0.8-0.7-1.5-1.3-2.2-2c-1,1-2,1.9-3,2.7
			c-0.3,0.3-0.7,0.4-1.1,0.4c-1.1,0-1.6-0.5-1.6-1.5c0-0.3,0.1-0.7,0.4-1.1c1.1-0.8,2.1-1.7,3-2.6c-0.9-0.7-1.8-1.4-2.7-2.1
			c-0.3-0.4-0.5-0.7-0.5-0.9C936.2,355.4,936.8,354.9,938,354.9z M936.3,349.4h11.8v-5.5h-6.8c0.3,0.3,0.5,0.8,0.5,1.2
			c0,0.5-0.3,1-0.8,1.3C939.7,347.5,938.2,348.5,936.3,349.4z M951.5,343.9v5.5h13c-1.5-0.8-2.9-1.7-4.2-2.8
			c-0.6-0.7-0.9-1.2-0.9-1.6c0-0.5,0.1-0.9,0.3-1.1H951.5z M955.6,354.3c0.3,0,0.6,0.2,0.9,0.6c1,0.7,2,1.4,2.9,2.2
			c0.7-0.7,1.4-1.5,2-2.2c0.3-0.6,0.7-0.9,1.2-0.9c1.2,0,1.7,0.5,1.7,1.6c0,0.6-0.3,1.2-0.8,1.9c-0.5,0.6-1,1.2-1.5,1.6
			c0.8,0.8,1.6,1.5,2.3,2.2c0.3,0.4,0.4,0.7,0.4,1c0,0.9-0.5,1.4-1.6,1.4c-0.3,0-0.6-0.1-0.8-0.4c-0.8-0.8-1.7-1.5-2.5-2.2
			c-1.4,1.2-2.7,2.2-4,3c-0.3,0.3-0.7,0.4-1.1,0.4c-1.1,0-1.6-0.5-1.6-1.5c0-0.3,0.1-0.7,0.4-1.1c1.4-1,2.6-2,3.8-3
			c-1-0.8-2-1.5-3-2.3c-0.3-0.4-0.5-0.7-0.5-0.9C953.8,354.9,954.4,354.3,955.6,354.3z M955.2,366.7c0.3,0,0.6,0.2,0.9,0.6
			c1.1,0.7,2.1,1.4,3,2.2c0.9-0.9,1.8-1.8,2.5-2.8c0.3-0.6,0.7-0.8,1.1-0.8c1.1,0,1.6,0.5,1.6,1.5c0,0.6-0.3,1.2-0.8,1.8
			c-0.7,0.9-1.4,1.6-2.1,2.3c1,0.8,1.9,1.7,2.8,2.5c0.3,0.3,0.4,0.7,0.4,0.9c0,0.9-0.5,1.4-1.6,1.4c-0.3,0-0.6-0.1-0.8-0.4
			c-1-0.8-1.9-1.6-2.9-2.4c-1.3,1.3-2.6,2.3-3.8,3.1c-0.3,0.3-0.7,0.4-1.1,0.4c-1.1,0-1.6-0.5-1.6-1.5c0-0.3,0.1-0.7,0.4-1.1
			c1.3-0.9,2.5-1.9,3.6-3c-1-0.8-2.1-1.5-3.1-2.3c-0.3-0.4-0.5-0.7-0.5-0.9C953.4,367.2,954,366.7,955.2,366.7z"/>
	</g>
	<g>
		<path fill="#91CCDB" d="M890.7,242.7c1.2,0,1.8,0.6,1.8,1.8v4.3h17.6c1.2,0,1.8,0.6,1.8,1.8s-0.6,1.8-1.8,1.8h-17.6v8.3h20.7
			c1.2,0,1.8,0.6,1.8,1.8s-0.6,1.8-1.8,1.8h-20.7v3.6c0.3,0.1,0.5,0.2,0.8,0.3c2.5,1.3,4.8,2.6,6.9,3.9c3.2,1.8,6.1,3.8,8.9,6.2
			c0.4,0.5,0.7,0.9,0.7,1.1c0,1.3-0.6,1.9-1.8,1.9c-0.7,0-1.2-0.2-1.7-0.7c-3.3-2.6-6.2-4.6-8.6-6c-1.6-1-3.3-2-5.1-3v12.6
			c0,1.2-0.6,1.8-1.8,1.8c-1.2,0-1.8-0.6-1.8-1.8v-19.9h-17c-1.2,0-1.8-0.6-1.8-1.8s0.6-1.8,1.8-1.8h17v-16.1
			C888.9,243.3,889.5,242.7,890.7,242.7z"/>
		<path fill="#91CCDB" d="M924.9,251.3h14.5c-0.1-1.2-0.1-2.3-0.1-3.5c0-1-0.5-1.5-1.4-1.5h-8.5c-1.1,0-1.6-0.5-1.6-1.6
			s0.5-1.6,1.6-1.6h10.1c2.1,0,3.1,1.1,3.1,3.2c0,1.8,0.1,3.4,0.2,4.9h13.8c2.3,0,3.5,1.1,3.5,3.4v26.6c0,3-1.8,4.5-5.3,4.5
			c-2.1,0-4.5-0.4-7.3-1.3c-0.9-0.3-1.3-0.9-1.3-1.7c0-1.4,0.5-2.1,1.6-2.1c0.4,0,1,0.1,1.6,0.3c2.1,0.7,3.7,1,4.9,1
			c1.5,0,2.3-0.8,2.3-2.3V256c0-0.9-0.3-1.3-0.8-1.3h-12.5c0.3,1.5,0.7,3,1.1,4.3c1.2,3.3,2.9,6.1,5.1,8.5c0.9,1.1,2.4,2.4,4.3,3.9
			c0.6,0.5,0.9,0.9,0.9,1.2c-0.1,1.1-0.6,1.6-1.7,1.7c-0.6,0-1.1-0.2-1.7-0.7c-1.2-0.7-2.5-1.8-3.9-3.4c-2.3-2.4-4.2-5.4-5.7-9
			c-0.3-0.7-0.6-1.5-0.8-2.3c-0.4,1.1-0.9,2.1-1.4,2.9c-0.9,1.8-1.9,3.5-3.1,5c-1.6,2.2-3.7,4.4-6.4,6.8c-0.5,0.5-0.9,0.8-1.3,0.8
			c-0.5,0-0.9-0.2-1.3-0.6c-0.4-0.3-0.6-0.8-0.6-1.3c0-0.4,0.2-0.8,0.6-1.2c2.6-2.2,4.7-4.2,6.2-6.1c1.2-1.5,2.2-3.1,3-4.7
			c0.9-1.7,1.7-3.6,2.4-5.8h-13.3c-0.6,0-0.9,0.4-0.9,1.3v28.4c0,1.2-0.6,1.8-1.8,1.8c-1.2,0-1.8-0.6-1.8-1.8v-29.7
			C921.2,252.5,922.4,251.3,924.9,251.3z"/>
		<path fill="#91CCDB" d="M1006.6,245.6c1.1,0,1.6,0.5,1.6,1.6s-0.5,1.6-1.6,1.6h-5.4v15.6h6.6c1.1,0,1.6,0.5,1.6,1.6
			s-0.5,1.6-1.6,1.6h-8.2c1.6,1.4,3.1,2.4,4.3,3c1,0.6,2.7,1.2,4.9,1.8c0.8,0.3,1.3,0.8,1.3,1.6c0,1.3-0.8,1.9-2.3,1.9
			c-0.2,0-0.5-0.1-1-0.2c-2.6-0.9-4.6-1.9-6.1-2.9c-1.5-1-2.8-2-3.8-3.1c-0.6-0.8-0.9-1.4-0.9-2h-15.4c-0.5,1.1-1,2-1.5,2.8
			c-0.8,1.1-1.9,2.1-3.2,3c-2.1,1.2-4.1,2.1-6.1,2.8c-0.5,0.1-0.9,0.1-1.2,0.1c-0.4,0-0.8-0.2-1.1-0.5c-0.3-0.3-0.4-0.7-0.4-1.2
			c0-0.8,0.4-1.4,1.3-1.5c1.9-0.6,3.8-1.4,5.6-2.4c1.1-0.7,2-1.4,2.7-2.3c0.2-0.3,0.4-0.5,0.5-0.7h-7.3c-1.1,0-1.6-0.5-1.6-1.6
			s0.5-1.6,1.6-1.6h6.8v-15.6h-5.6c-1.1,0-1.6-0.5-1.6-1.6s0.5-1.6,1.6-1.6h5.6v-1.8c0-1.1,0.6-1.7,1.7-1.7s1.7,0.6,1.7,1.7v1.8h18
			v-1.8c0-1.1,0.6-1.7,1.7-1.7s1.7,0.6,1.7,1.7v1.8H1006.6z M997.8,274.1c1.1,0,1.6,0.5,1.6,1.6s-0.5,1.6-1.6,1.6h-7.4v4.5h16
			c1.1,0,1.6,0.5,1.6,1.6s-0.5,1.6-1.6,1.6H971c-1.1,0-1.6-0.5-1.6-1.6s0.5-1.6,1.6-1.6h15.8v-4.5h-8c-1.1,0-1.6-0.5-1.6-1.6
			s0.5-1.6,1.6-1.6h8v-3c0-1.2,0.6-1.8,1.8-1.8c1.2,0,1.8,0.6,1.8,1.8v3H997.8z M979.8,252.1h18v-3.3h-18V252.1z M979.8,258.3h18
			v-3.2h-18V258.3z M979.8,264.4h18v-3h-18V264.4z"/>
		<path fill="#91CCDB" d="M1056.7,271c1.1,0,1.7,0.6,1.7,1.7s-0.6,1.7-1.7,1.7h-17.3c0.5,0.7,1,1.2,1.5,1.5c0.9,0.8,2.3,1.7,4.1,2.6
			c1.4,0.7,3.1,1.3,5,2c1.7,0.5,3.4,0.9,5.2,1.3c1.3,0.2,2.2,0.4,2.6,0.8c0.3,0.3,0.5,0.7,0.5,1.3c0,1.3-0.7,2-2,2
			c-0.6,0-1.9-0.3-4-0.8c-2.3-0.6-4.4-1.3-6.2-2.2c-2-0.9-3.6-1.6-4.6-2.3c-1.4-0.9-2.6-1.9-3.6-2.9c-0.3-0.3-0.6-0.7-0.9-1.1
			c-1.2,1.8-3.2,3.4-6.1,5c-2.8,1.5-6.7,2.8-11.7,4c-1,0.3-1.7,0.4-2,0.4c-1.3,0-2-0.7-2-2c0-0.9,0.4-1.5,1.1-1.8
			c5.3-1.1,9.1-2.2,11.6-3.4c2.5-1.1,4.3-2.3,5.5-3.6c0.3-0.3,0.4-0.5,0.5-0.8h-17.1c-1.1,0-1.7-0.6-1.7-1.7s0.6-1.7,1.7-1.7h18
			v-2.6c0-1.3,0.6-1.9,1.9-1.9c1.2,0,1.9,0.6,1.9,1.9v2.6H1056.7z M1026.9,241.8c0.3,0,0.7,0.1,1.2,0.4c0.5,0.5,1,0.9,1.5,1.4
			c0.7,0.6,1.3,1.4,1.8,2.2c0.3,0.4,0.5,0.7,0.5,0.9c0,0.4-0.1,0.7-0.2,0.9h10.1c0.3-0.4,0.6-0.8,0.8-1.1c0.8-1.2,1.5-2.5,2.2-3.8
			c0.4-0.5,0.9-0.8,1.5-0.8c0.4,0,0.8,0.2,1.2,0.5c0.3,0.3,0.5,0.7,0.5,1.2c0,0.4-0.2,0.8-0.5,1.1c-0.5,0.9-1,1.8-1.6,2.6
			c-0.1,0.2-0.2,0.3-0.2,0.3h10c1.1,0,1.6,0.5,1.6,1.6s-0.5,1.6-1.6,1.6h-17.3v4.4h15.5c1,0,1.5,0.5,1.5,1.5s-0.5,1.5-1.5,1.5h-15.5
			v4.4h17.7c1.1,0,1.6,0.5,1.6,1.6s-0.5,1.6-1.6,1.6h-39c-1.1,0-1.6-0.5-1.6-1.6s0.5-1.6,1.6-1.6h17.7v-4.4h-15.3
			c-1,0-1.5-0.5-1.5-1.5s0.5-1.5,1.5-1.5h15.3v-4.4h-17.2c-1.1,0-1.6-0.5-1.6-1.6s0.5-1.6,1.6-1.6h11.3c-0.7-0.8-1.2-1.3-1.6-1.7
			c-0.4-0.4-0.9-0.8-1.4-1.2c-0.4-0.4-0.6-0.8-0.6-1.2C1025.3,242.3,1025.9,241.8,1026.9,241.8z"/>
		<path fill="#91CCDB" d="M1065.1,256c0.3,0,0.6,0.2,1,0.6c1.5,1.4,2.9,2.9,4.2,4.7c0.3,0.4,0.4,0.8,0.4,1.1c0,1.1-0.6,1.7-1.9,1.7
			c-0.3,0-0.6-0.1-1-0.4c-1.3-1.7-2.8-3.3-4.3-4.8c-0.3-0.4-0.5-0.8-0.5-1C1063,256.6,1063.7,256,1065.1,256z M1069.4,267.5
			c1.1,0,1.7,0.6,1.7,1.9c-0.3,2.6-0.8,5.1-1.4,7.5c-0.7,2.5-1.6,5-2.7,7.3c-0.4,0.8-1,1.1-1.7,1.1c-1.2,0-1.8-0.6-1.8-1.7
			c0-0.2,0.1-0.4,0.2-0.8c1.4-2.9,2.2-5.1,2.6-6.6c0.6-2.2,1.2-4.7,1.6-7.6C1068.1,267.8,1068.6,267.5,1069.4,267.5z M1067.3,243.8
			c0.3,0,0.6,0.2,1,0.6c1.3,1.3,2.6,2.8,3.8,4.5c0.3,0.4,0.4,0.8,0.4,1.1c0,1.1-0.6,1.7-1.9,1.7c-0.3,0-0.6-0.2-1-0.5
			c-1.2-1.6-2.5-3.1-3.9-4.6c-0.3-0.4-0.5-0.8-0.5-1C1065.3,244.5,1066,243.8,1067.3,243.8z M1102.8,259.6c1.1,0,1.6,0.4,1.6,1.3
			s-0.5,1.3-1.6,1.3h-24.6c-0.6,0-0.9,0.4-0.9,1.2v6.2h26.3c0.9,0,1.4,0.5,1.4,1.4s-0.5,1.4-1.4,1.4h-12.8c0.8,1.8,1.8,3.2,2.8,4.4
			c0.2,0.2,0.4,0.3,0.5,0.5c0.1-0.1,0.1-0.2,0.2-0.2c2-0.8,3.7-1.8,5.1-2.9c0.5-0.3,0.8-0.4,1-0.4c1.1,0,1.6,0.5,1.6,1.6
			c0,0.5-0.3,0.9-0.8,1.3c-1.1,1-2.6,1.9-4.4,2.7c0.7,0.4,1.4,0.8,2.1,1.1c1.8,0.8,3.7,1.5,5.6,1.8c1.2,0.2,1.8,0.8,1.8,1.7
			c0,1.1-0.6,1.7-1.9,1.7c-2.6-0.6-5-1.5-7.1-2.5c-2.7-1.4-4.9-3.1-6.6-5.2c-1.3-1.5-2.2-3.3-2.9-5.5h-4.1v8.4
			c1.6-0.4,2.9-0.9,4.1-1.5c0.3-0.1,0.5-0.1,0.8-0.1c0.9,0.1,1.3,0.5,1.4,1.4c0,0.7-0.3,1.2-0.9,1.5c-1.3,0.7-2.9,1.3-5,2
			c-1.6,0.5-3.5,1-5.7,1.4c-1.1-0.1-1.6-0.6-1.7-1.7c0-1,0.5-1.6,1.4-1.7c0.9-0.1,1.8-0.3,2.5-0.4v-9.2h-3.4c-0.2,2.5-0.5,4.7-1,6.5
			c-0.6,2.4-1.3,4.4-2.1,6c-0.3,0.8-0.8,1.1-1.5,1.1c-1.2-0.1-1.8-0.6-1.9-1.6c0-0.2,0.2-0.7,0.6-1.4c0.3-0.6,0.5-1.2,0.8-1.9
			c0.4-1.2,0.8-2.3,1.1-3.5c0.6-2.6,0.9-5.4,0.9-8.4v-7c0-1.7,0.9-2.5,2.8-2.5H1102.8z M1077.3,245.1h6.2v-1.6c0-1,0.5-1.5,1.5-1.5
			c1,0,1.5,0.5,1.5,1.5v1.6h5.1v-1.6c0-1,0.5-1.5,1.5-1.5c1,0,1.5,0.5,1.5,1.5v1.6h6.2c1.5,0,2.3,0.7,2.3,2v8.1c0,1.3-0.8,2-2.3,2
			h-23.4c-1.5,0-2.3-0.7-2.3-2V247C1075,245.7,1075.8,245.1,1077.3,245.1z M1078,250h5.4v-2.5h-4.7c-0.5,0-0.8,0.3-0.8,1V250z
			 M1083.5,254.6v-2.3h-5.4v1.3c0,0.7,0.3,1,0.8,1H1083.5z M1100.7,264.8c0.8,0,1.2,0.4,1.2,1.2s-0.4,1.2-1.2,1.2h-20.4
			c-0.8,0-1.2-0.4-1.2-1.2s0.4-1.2,1.2-1.2H1100.7z M1086.5,247.5v2.5h5.1v-2.5H1086.5z M1091.5,254.6v-2.3h-5.1v2.3H1091.5z
			 M1094.5,247.5v2.5h5.4v-1.5c0-0.7-0.3-1-0.8-1H1094.5z M1099.2,254.6c0.5,0,0.8-0.3,0.8-1v-1.3h-5.4v2.3H1099.2z"/>
	</g>
	<g>
		<g>
			<g>
				<circle fill="#B7E26D" cx="572.5" cy="234" r="141.3"/>
			</g>
		</g>
		<g>
			<g>
				<path fill="#35D38B" d="M587.1,23.9c-81,0-151.4,42.1-191.5,105.6l191.5,116.1V23.9z"/>
			</g>
		</g>
		<g>
			<g>
				<path fill="#A2D8F4" d="M757.6,330.8c-34.9,66.8-104.5,112.4-185.5,112.4v-209L757.6,330.8z"/>
			</g>
		</g>
		<g>
			<g>
				<path fill="#FFFFFF" d="M572.5,445.5c-116.6,0-211.5-94.9-211.5-211.5c0-116.6,94.9-211.5,211.5-211.5
					C689.2,22.5,784,117.4,784,234C784,350.6,689.2,445.5,572.5,445.5z M572.5,24.5c-115.5,0-209.5,94-209.5,209.5
					c0,115.5,94,209.5,209.5,209.5S782,349.5,782,234C782,118.5,688,24.5,572.5,24.5z"/>
			</g>
		</g>
		<g>
			<g>
				<path fill="#2A79A0" d="M572.5,50.9c66.4,0,124.5,35.3,156.6,88.1l-156.9,89.9L572.5,50.9z"/>
			</g>
		</g>
		<g>
			<g>
				<path fill="#80E88A" d="M420,318.6c-13.9-25.1-21.9-53.9-21.9-84.6c0-35.4,10.6-68.4,28.7-95.9l145.4,90.7L420,318.6z"/>
			</g>
		</g>
		<g>
			<g>
				<path fill="#1D6896" d="M710.6,149.4c13.9,24,21.9,51.8,21.9,81.6c0,30.7-8.5,59.3-23.2,83.8l-140-89L710.6,149.4z"/>
			</g>
		</g>
		<g>
			<g>
				<circle fill="#FFFFFF" cx="572.5" cy="234" r="123.1"/>
			</g>
			<g>
				<path fill="#FFFFFF" d="M572.5,358.1c-68.4,0-124.1-55.7-124.1-124.1s55.7-124.1,124.1-124.1c68.4,0,124.1,55.7,124.1,124.1
					S641,358.1,572.5,358.1z M572.5,111.9c-67.3,0-122.1,54.8-122.1,122.1s54.8,122.1,122.1,122.1c67.3,0,122.1-54.8,122.1-122.1
					S639.9,111.9,572.5,111.9z"/>
			</g>
		</g>
		<g>
			<g>
				<path fill="#FFFFFF" d="M572.5,397.9c-90.4,0-163.9-73.5-163.9-163.9S482.1,70.1,572.5,70.1c90.4,0,163.9,73.5,163.9,163.9
					S662.9,397.9,572.5,397.9z M572.5,72.1c-89.3,0-161.9,72.6-161.9,161.9c0,89.3,72.6,161.9,161.9,161.9S734.5,323.3,734.5,234
					C734.5,144.7,661.8,72.1,572.5,72.1z"/>
			</g>
		</g>
		<g>
			<g>
				<g>
					<path fill="#2A2F4F" d="M598.6,235.2v-10.5h-5.9v-22.3h3.2v-6.8h-3.6c0,0,0-6.8-4.5-12.7s-10-8.6-10-8.6v-11.8H575v-10h-2.3
						H570v10h-2.7v11.8c0,0-5.5,2.7-10,8.6c-4.5,5.9-4.5,12.7-4.5,12.7h-3.6v6.8h3.2v22.3h-5.9v10.5h-43.7v53.5h7.4v-23.5h4.3v23.5
						h4.3v-23.5h4.3v23.5h4.3v-23.5h4.3v23.5h13v-23.5h4.3v23.5h4.3v-23.5h4.3v23.5h4.3v-23.5h4.3v23.5h4.3v-23.5h4.3v23.5h4.3
						v-23.5h4.3v23.5h4.3v-23.5h4.3v23.5h4.3v-23.5h4.3v23.5h13v-23.5h4.3v23.5h4.3v-23.5h4.3v23.5h4.3v-23.5h4.3v23.5h7v-53.5
						H598.6z M514.4,260.9h-4.3V254h4.3V260.9z M523,260.9h-4.3V254h4.3V260.9z M584.1,202.5h3.3v22h-3.3V202.5z M577.5,202.5h3.3
						v22h-3.3V202.5z M570.9,202.5h3.3v22h-3.3V202.5z M564.3,202.5h3.3v22h-3.3V202.5z M557.7,202.5h3.3v22h-3.3V202.5z
						 M531.7,260.9h-4.3V254h4.3V260.9z M549,260.9h-4.3V254h4.3V260.9z M557.6,260.9h-4.3V254h4.3V260.9z M566.3,260.9h-4.3V254
						h4.3V260.9z M574.9,260.9h-4.3V254h4.3V260.9z M583.5,260.9h-4.3V254h4.3V260.9z M592.2,260.9h-4.3V254h4.3V260.9z
						 M600.8,260.9h-4.3V254h4.3V260.9z M544.3,249.1l28.1-8.2l28.8,8.2H544.3z M618.1,260.9h-4.3V254h4.3V260.9z M626.8,260.9h-4.3
						V254h4.3V260.9z M635.4,260.9h-4.3V254h4.3V260.9z"/>
				</g>
			</g>
		</g>
	</g>
</g>
</svg>
