<?xml version="1.0" encoding="utf-8"?>
<!-- Generator: Adobe Illustrator 18.0.0, SVG Export Plug-In . SVG Version: 6.00 Build 0)  -->
<!DOCTYPE svg PUBLIC "-//W3C//DTD SVG 1.1//EN" "http://www.w3.org/Graphics/SVG/1.1/DTD/svg11.dtd">
<svg version="1.1" id="Layer_1" xmlns="http://www.w3.org/2000/svg" xmlns:xlink="http://www.w3.org/1999/xlink" x="0px" y="0px"
	 viewBox="0 0 959.7 480" enable-background="new 0 0 959.7 480" xml:space="preserve">
<rect x="-465.1" y="-156.8" display="none" fill="#160C08" width="1920" height="800"/>
<g>
	<g>
		<path fill="#FFFFFF" d="M235.4,123.9c1.2,0,1.8,0.6,1.8,1.8v1.5h17c1.1,0,1.7,0.5,1.7,1.6c0,1.1-0.6,1.6-1.7,1.6h-7.4v5.2h6.8
			c1,0,1.5,0.5,1.5,1.5c0,1-0.5,1.5-1.5,1.5h-6.8v27.4c0,1.1-0.5,1.6-1.6,1.6c-1.1,0-1.6-0.5-1.6-1.6v-27.4H238
			c-1,0-1.5-0.5-1.5-1.5c0-1,0.5-1.5,1.5-1.5h5.5v-5.2h-14.1v5.3h4.4c1,0,1.5,0.5,1.5,1.5s-0.5,1.5-1.5,1.5h-4.4v27
			c0,1.1-0.5,1.6-1.6,1.6c-1.1,0-1.6-0.5-1.6-1.6v-27h-4.6c-1,0-1.5-0.5-1.5-1.5s0.5-1.5,1.5-1.5h4.6v-5.3h-6.5
			c-0.6,0-0.9,0.3-0.9,1v14.1c0,5.2-0.3,9.5-0.8,12.9c-0.4,3.2-1,5.8-1.6,7.9c-0.3,0.8-0.9,1.2-1.5,1.2c-1.3-0.1-1.9-0.6-2-1.7
			c0-0.3,0.2-0.9,0.5-1.9c0.2-0.8,0.4-1.6,0.6-2.5c0.3-1.5,0.6-3.1,0.8-4.6c0.5-3.5,0.7-7.2,0.7-11.2v-15.4c0-1.9,1-2.9,3-2.9h15.1
			v-1.5C233.6,124.5,234.2,123.9,235.4,123.9z M222.6,141.1c1.1,0,1.6,0.5,1.6,1.6c0,7.3-0.6,14.1-1.7,20.4c-0.2,1-0.9,1.5-1.9,1.5
			c-0.9,0-1.4-0.5-1.4-1.4c0-0.4,0.1-0.8,0.3-1.2c1-5.3,1.6-11.8,1.8-19.7C221.3,141.6,221.8,141.1,222.6,141.1z M233.3,141.3
			c0.9,0,1.4,0.5,1.4,1.5V161c0,1.1-0.5,1.6-1.4,1.6s-1.4-0.5-1.4-1.6v-18.1C231.9,141.8,232.4,141.3,233.3,141.3z M239.9,141.1
			c1,0,1.5,0.5,1.5,1.6c0,7.3-0.8,14.2-2.4,20.6c-0.2,1-0.8,1.5-1.9,1.5c-0.9,0-1.4-0.5-1.4-1.4c0-0.4,0.1-0.8,0.3-1.2
			c1.4-5.3,2.3-12,2.5-19.9C238.6,141.6,239,141.1,239.9,141.1z M250.6,141.5c1,0,1.5,0.6,1.5,1.7v16.5c0,1,0.3,1.5,0.9,1.5
			c0.6,0,0.9-1,0.9-3l0.1-5.5c0.1-0.9,0.6-1.4,1.5-1.5c0.9,0.1,1.4,0.6,1.5,1.6c0,5.7-0.3,9-0.9,9.8c-0.5,1-1.5,1.5-3,1.5
			c-1.6,0-2.6-0.3-3.1-0.8c-0.5-0.5-0.8-1.3-0.8-2.3v-17.9C249.1,142.1,249.6,141.5,250.6,141.5z"/>
		<path fill="#FFFFFF" d="M293,133.5c1.4,0,2.2,0.6,2.2,1.7c0,0.3-0.3,0.8-0.8,1.3c-1.3,1.4-2.9,2.7-4.7,3.7
			c-2.7,1.5-5.7,2.7-9.2,3.6c-0.4,0.1-0.8,0.2-1.1,0.2h17.3c2.1,0,3.2,1,3.2,3V164c0,2-1.1,3-3.2,3h-23.6c-2.1,0-3.2-1-3.2-3V147
			c0-0.7,0.1-1.2,0.4-1.6c-2.6,0.3-4.9,0.4-6.8,0.4c-1.4,0-2.1-0.7-2.1-2c0-1,0.5-1.6,1.6-1.7c5.9-0.2,10.6-0.6,14.2-1.2
			c3.4-0.6,6.3-1.4,8.9-2.5c2.1-1,4-2.3,5.8-4C292.4,133.7,292.8,133.5,293,133.5z M273.9,125.6c1.2,0,1.8,0.6,1.8,1.7
			c0,0.6-0.3,1.3-0.8,2c-3,3.8-5.9,6.8-8.8,9c-0.4,0.3-0.8,0.5-1.2,0.5c-1.2,0-1.8-0.5-1.8-1.6c0-0.4,0.2-0.8,0.5-1.2
			c3.6-2.9,6.6-6.1,9-9.6C272.9,125.9,273.3,125.6,273.9,125.6z M273.3,150.8h23.3v-2.3c0-1-0.4-1.5-1.3-1.5h-20.6
			c-0.9,0-1.3,0.5-1.3,1.5V150.8z M273.3,157.2h23.3v-3.6h-23.3V157.2z M295.2,164c0.9,0,1.3-0.5,1.3-1.5V160h-23.3v2.5
			c0,1,0.4,1.5,1.3,1.5H295.2z M283.9,124.1c1.1,0,1.7,0.6,1.7,1.7v8.2c0,2.6-1.7,3.8-5.1,3.8c-1.3,0-3-0.4-5.1-1.1
			c-0.9-0.3-1.4-0.9-1.4-1.7c0.1-1.1,0.6-1.7,1.5-1.8c0.2,0,0.5,0,0.8,0.1c2.1,0.7,3.5,1,4.1,1c1.1,0,1.7-0.3,1.7-1v-7.5
			C282.3,124.6,282.8,124.1,283.9,124.1z M295.8,126c0.5,0,0.9,0.3,1.3,0.9c2.4,3.3,4.4,7.1,6,11.2c0.2,0.5,0.2,0.9,0.2,1.3
			c0,1.1-0.7,1.6-2.1,1.6c-0.6,0-1.1-0.5-1.5-1.4c-1.7-4.7-3.5-8.4-5.5-11.1c-0.3-0.4-0.4-0.7-0.4-1
			C293.8,126.5,294.5,126,295.8,126z"/>
		<path fill="#FFFFFF" d="M322,126.1c1.1,0,1.6,0.5,1.6,1.6c0,1.1-0.5,1.6-1.6,1.6h-3.9V142h3.8c1.1,0,1.6,0.5,1.6,1.6
			s-0.5,1.6-1.6,1.6h-3.8V159c1.3-0.7,2.8-1.5,4.5-2.5l0.7-0.3c1.2,0,1.8,0.7,1.8,2c0,0.4-0.3,0.8-0.8,1.3c-1.3,1-3.1,2.1-5.3,3.2
			c-2.8,1.4-5.3,2.4-7.7,3.2c-0.4,0.2-0.7,0.2-1,0.2c-1.2,0-1.8-0.6-1.8-1.9c0-0.9,0.5-1.5,1.4-1.8c1.9-0.6,3.6-1.1,5-1.7v-15.4
			h-3.8c-1.1,0-1.6-0.5-1.6-1.6s0.5-1.6,1.6-1.6h3.8v-12.8h-4.5c-1,0-1.5-0.5-1.5-1.6c0-1.1,0.5-1.6,1.5-1.6H322z M328,125.5h20.3
			c1.9,0,2.8,0.9,2.8,2.7v16.7c0,1.8-0.9,2.7-2.8,2.7h-8.4v5.8h10.1c1.1,0,1.6,0.5,1.6,1.6c0,1-0.5,1.5-1.6,1.5h-10.1v6.8h12.6
			c1.1,0,1.6,0.5,1.6,1.6s-0.5,1.6-1.6,1.6h-28.1c-1.1,0-1.6-0.5-1.6-1.6s0.5-1.6,1.6-1.6h12.2v-6.8h-9.8c-1.1,0-1.6-0.5-1.6-1.5
			c0-1.1,0.5-1.6,1.6-1.6h9.8v-5.8H328c-1.9,0-2.8-0.9-2.8-2.7v-16.7C325.2,126.4,326.1,125.5,328,125.5z M328.6,135h7.9v-6.3h-6.6
			c-0.9,0-1.3,0.5-1.3,1.4V135z M336.4,144.4V138h-7.9v5.1c0,0.9,0.4,1.4,1.3,1.4H336.4z M339.8,128.7v6.3h7.9v-4.9
			c0-0.9-0.4-1.4-1.3-1.4H339.8z M346.4,144.4c0.9,0,1.3-0.5,1.3-1.4V138h-7.9v6.5H346.4z"/>
		<path fill="#FFFFFF" d="M397,128c1.1,0,1.7,0.6,1.7,1.7s-0.6,1.7-1.7,1.7h-15.9v30.8h18.2c1.1,0,1.7,0.6,1.7,1.7s-0.6,1.7-1.7,1.7
			h-40.1c-1.1,0-1.7-0.6-1.7-1.7s0.6-1.7,1.7-1.7h18.2v-30.8h-15.8c-1.1,0-1.7-0.6-1.7-1.7s0.6-1.7,1.7-1.7H397z"/>
	</g>
	<g>
		<path fill="#FFFFFF" d="M513.8,317.8h19.4v-5c0-1.7,0.8-2.5,2.5-2.5c1.7,0,2.5,0.8,2.5,2.5v5h18c3.2,0,4.8,1.5,4.8,4.5v16.9
			c0,3-1.6,4.5-4.8,4.5h-18v2.1c0,7-1.2,12.4-3.7,16.1c3,1.2,6.4,2.3,10.3,3c2.9,0.7,9.1,1.2,18.7,1.5c1.6,0.1,2.4,1,2.4,2.6
			c0,2-1,3-3,3c-2.9-0.1-6.5-0.5-11-1.1c-4.5-0.4-8.9-1.3-13.1-2.5c-2.8-0.8-5.4-1.7-7.7-2.7c-4.4,3.5-12.4,5.9-23.9,7.1
			c-2.1,0-3.1-1-3.1-2.9c0-1.4,0.7-2.3,2.2-2.7c9-1,15.4-2.5,19.2-4.7c-0.5-0.4-1-0.7-1.5-1.1c-4.5-3-8.2-6.9-11.2-11.7
			c-0.4-0.6-0.7-1.2-0.7-1.8c0-1.7,0.9-2.6,2.6-2.6c0.5,0,1,0.4,1.7,1.2c3.5,5.6,7.6,9.7,12.1,12.3c0.3,0.2,0.6,0.4,0.8,0.5
			c2.5-3.3,3.8-7.8,3.8-13.6v-2.1h-19.4c-3.1,0-4.7-1.5-4.7-4.5v-16.9C509.1,319.3,510.7,317.8,513.8,317.8z M533.2,338.9v-16.3
			h-17.3c-1.2,0-1.7,0.6-1.7,1.9V337c0,1.2,0.6,1.9,1.7,1.9H533.2z M554.2,338.9c1.2,0,1.7-0.6,1.7-1.9v-12.6c0-1.2-0.6-1.9-1.7-1.9
			h-15.9v16.3H554.2z"/>
		<path fill="#FFFFFF" d="M600.1,313.2h22.6c3.3,0,5,1.6,5,4.8v25.4h4.4c1.6,0,2.4,0.8,2.4,2.4s-0.8,2.4-2.4,2.4h-4.4v16.6
			c0,5.4-3.2,8-9.5,8c-3.2,0-6.7-0.5-10.5-1.6c-1.7-0.4-2.5-1.2-2.5-2.7c0-1.8,0.8-2.7,2.5-2.7c4.5,1.1,8,1.6,10.6,1.6
			c2.9,0,4.3-1.4,4.3-4.3v-15h-37.9c-0.1,2.5-0.4,4.9-0.7,7.2c-0.4,3.2-1.2,6.6-2.4,10.2c-0.9,2.5-1.7,4.5-2.5,6
			c-0.7,1.2-1.5,1.8-2.5,1.8c-1.7-0.1-2.7-1-2.7-2.9c0-0.2,0.1-0.7,0.4-1.4c1-2,1.8-4,2.5-5.9c1-2.9,1.8-5.9,2.3-9.2
			c0.3-1.9,0.5-3.8,0.7-5.8h-4.5c-1.6,0-2.4-0.8-2.4-2.4s0.8-2.4,2.4-2.4h4.7c0-0.8,0.1-1.5,0.1-2.1V318c0-3.2,1.6-4.8,4.8-4.8
			H600.1z M584.8,343.4h37.7v-23c0-1.6-0.7-2.4-2-2.4h-33.2c-1.6,0-2.4,0.9-2.4,2.7v20.5C585,342.1,584.9,342.8,584.8,343.4z
			 M599.2,322.8c0.4,0,0.8,0.3,1.3,0.9c3.7,3.5,7.2,7.5,10.6,12c0.4,0.7,0.6,1.2,0.6,1.7c0,1.7-0.9,2.5-2.8,2.5
			c-0.4,0-0.9-0.2-1.5-0.6c-3.3-4.3-6.8-8.5-10.5-12.5c-0.5-0.6-0.7-1.1-0.7-1.4C596.2,323.7,597.2,322.8,599.2,322.8z"/>
		<path fill="#FFFFFF" d="M655.1,311.3c0.8,0,1.4,0.2,1.9,0.6c0.6,0.5,0.9,1.1,0.9,1.8c0,0.4-0.1,0.9-0.3,1.5c-1,4.4-2.2,8.4-3.6,12
			V371c0,1.6-0.8,2.4-2.4,2.4s-2.4-0.8-2.4-2.4v-33.8c-1.2,2.2-2.6,4.2-3.9,6.2c-0.8,0.8-1.4,1.2-1.8,1.2c-1.9,0-2.8-0.8-2.8-2.5
			c0-0.5,0.2-1,0.7-1.5c2.5-3.5,4.8-7.4,6.7-11.7c2.1-4.5,3.8-9.8,5.2-15.9C653.5,311.9,654.1,311.3,655.1,311.3z M661,319.5h9.6v-6
			c0-1.6,0.8-2.4,2.4-2.4s2.4,0.8,2.4,2.4v6h6.7v-6c0-1.6,0.8-2.4,2.4-2.4s2.4,0.8,2.4,2.4v6h8.3c2.7,0,4,1.3,4,3.9v8.8
			c0,2.6-1.3,3.9-4,3.9h-8.3v7.8h12.2c2.1,0,3.1,1.5,3.1,4.6c0,1.3-0.2,3.1-0.7,5.3c-0.6,2.9-1.3,4.8-2.1,5.8
			c-0.8,1.4-2.7,2.1-5.7,2.1c-0.9,0-2.3-0.2-4.3-0.5c-1.3-0.2-2-1-2-2.3c0-1.6,0.9-2.4,2.7-2.4c1.4,0.4,2.6,0.7,3.5,0.7
			c1.3,0,2.2-0.7,2.5-2.1c0.5-1.9,0.7-3.5,0.7-4.8c0-1.2-0.4-1.9-1.1-1.9h-9v22.3c0,1.6-0.8,2.4-2.4,2.4s-2.4-0.8-2.4-2.4v-22.3
			h-6.8c-0.2,4.5-1.2,8.7-3.1,12.6c-1.8,3.9-4.4,7.3-7.6,10.3c-0.7,1.1-1.4,1.6-2.1,1.6c-2-0.1-3.1-1-3.1-2.8c0-0.4,0.3-0.9,0.8-1.5
			c4.2-4,7.1-8.1,8.6-12.3c0.9-2.6,1.5-5.2,1.7-7.9h-8.2c-2.3,0-3.5-1.4-3.5-4.1c0-2.7,0.2-5.5,0.7-8.4c0.4-2.9,1.4-4.4,3-4.4h8.2
			V324H661c-1.5,0-2.3-0.8-2.3-2.3C658.7,320.2,659.4,319.5,661,319.5z M670.6,343.8v-7.8h-5.4c-1.1,0-1.6,2.3-1.6,6.8
			c0,0.7,0.3,1,1,1H670.6z M675.4,324v7.5h6.7V324H675.4z M682.1,343.8v-7.8h-6.7v7.8H682.1z M686.9,324v7.5h5.9
			c1.1,0,1.6-0.6,1.6-1.7v-4c0-1.2-0.5-1.7-1.6-1.7H686.9z"/>
	</g>
	<g>
		<path fill="#81E2A8" d="M274.2,315.8c1.2,0,1.9,0.6,1.9,1.9v1.6h14.5c1.3,0,2.4,0.5,3,1.4c0.5,0.7,0.8,1.8,0.8,3.3
			c0,1.1-0.1,2.4-0.3,3.9c-0.3,0.9-1,1.4-2.1,1.4c-1.2,0-1.8-0.6-1.8-1.8c0.3-1.8,0.5-2.9,0.5-3.4c0-1.1-0.4-1.7-1.3-1.7h-31.5
			c-1,0-1.5,0.5-1.5,1.5v3.3c0,1.1-0.6,1.7-1.7,1.7s-1.7-0.6-1.7-1.7v-4.6c0-2.3,1.1-3.4,3.4-3.4h15.9v-1.6
			C272.3,316.4,272.9,315.8,274.2,315.8z M267.1,324.8c1.1,0,1.7,0.6,1.7,1.7v11.3c1.1-0.5,2.2-0.9,3.1-1.4c2.1-1.2,4-2.5,5.8-4.1
			c1.8-1.5,3.3-3.5,4.7-6c0.3-0.7,0.7-1,1.5-1c0.4,0,0.8,0.1,1.2,0.4c0.3,0.3,0.5,0.6,0.5,1c0,0.4-0.1,0.8-0.2,1.2
			c-1.4,2.7-3,4.9-4.8,6.6c-1.8,1.7-3.7,3.2-5.9,4.5c-1.6,0.9-3.3,1.7-5.2,2.4c0.1,0.1,0.2,0.2,0.3,0.2c0.8,0.3,2.4,0.5,4.5,0.5
			c2.9,0,5-0.1,6.2-0.3c0.8-0.1,1.3-0.3,1.5-0.8c0.3-0.4,0.5-1.8,0.5-4.3c0.1-1.1,0.6-1.6,1.7-1.7c1.1,0.1,1.6,0.8,1.7,2.2
			c0,1.2-0.1,2.4-0.3,3.6c-0.3,1.7-1,2.8-2.2,3.5c-1,0.6-3.7,0.9-8,0.9c-4.1,0-6.7-0.3-8-0.8c-0.7-0.4-1.1-0.9-1.5-1.5
			c-2.5,0.9-5.6,1.7-9.2,2.4c-0.7,0.3-1.2,0.4-1.4,0.4c-0.5,0-1-0.2-1.4-0.5c-0.4-0.4-0.6-0.8-0.6-1.3c0-0.8,0.4-1.4,1.1-1.7
			c4.3-0.8,7.9-1.8,10.7-2.8c0.1,0,0.2-0.1,0.2-0.1v-12.7C265.4,325.3,265.9,324.8,267.1,324.8z M260.6,327c1.2,0,1.7,0.5,1.7,1.6
			c0,0.6-0.3,1.2-0.8,1.9c-1.8,3.5-3.6,6.3-5.4,8.3c-0.4,0.3-0.8,0.5-1.1,0.5c-1.1,0-1.7-0.5-1.7-1.6c0-0.3,0.1-0.7,0.4-1.1
			c2.3-2.7,4.2-5.6,5.7-8.8C259.8,327.3,260.1,327,260.6,327z M273.3,345.8c1.1,0,1.7,0.6,1.7,1.7v8.7h12c0.5,0,0.8-0.3,0.8-0.8
			v-6.8c0-1.1,0.6-1.7,1.7-1.7s1.7,0.6,1.7,1.7v7.7c0,2.1-1.1,3.1-3.2,3.1h-28.3c-2.1,0-3.2-1-3.2-3.1v-7.5c0-1.1,0.6-1.7,1.7-1.7
			s1.7,0.6,1.7,1.7v6.6c0,0.6,0.3,0.8,0.8,0.8h11.1v-8.7C271.6,346.3,272.1,345.8,273.3,345.8z M272.5,324.4c0.3,0,0.7,0.1,1.2,0.4
			c1.4,0.9,2.6,1.8,3.7,2.7c0.6,0.4,0.8,0.9,0.8,1.5c0,1.1-0.5,1.6-1.6,1.6c-0.5,0-0.9-0.2-1.2-0.5c-1-1-2.2-1.9-3.5-2.9
			c-0.7-0.4-1-0.9-1-1.3C270.8,324.9,271.4,324.4,272.5,324.4z M287.9,329.8c0.4,0,0.8,0.3,1.2,0.9c2.1,2.8,3.9,6,5.3,9.6
			c0.2,0.5,0.2,0.9,0.2,1.3c0,1.1-0.7,1.6-2.1,1.6c-0.6,0-1.1-0.5-1.5-1.4c-1.4-4-3-7.2-4.7-9.5c-0.3-0.4-0.4-0.7-0.4-0.9
			C286.1,330.3,286.7,329.8,287.9,329.8z"/>
		<path fill="#81E2A8" d="M343.4,318.9c1.2,0,1.8,0.6,1.8,1.8s-0.6,1.8-1.8,1.8h-13.5v7.2h9.2c2.6,0,3.8,1.3,3.8,3.8v21.9
			c0,2.5-1.3,3.8-3.8,3.8h-33.6c-2.6,0-3.8-1.3-3.8-3.8v-21.9c0-2.5,1.3-3.8,3.8-3.8h10.2v-7.2H301c-1.2,0-1.8-0.6-1.8-1.8
			s0.6-1.8,1.8-1.8H343.4z M337.8,355.7c1.1,0,1.6-0.6,1.6-1.7v-6.3H331c-3,0-4.5-1.5-4.5-4.4V333h-7.4c-0.1,1.7-0.4,3.3-0.8,4.9
			c-0.7,2.5-1.9,4.8-3.6,6.9c-1.6,2.1-3.8,4-6.8,5.7c-0.6,0.3-1,0.5-1.1,0.5c-1,0-1.6-0.4-1.7-1.3v4.4c0,1.1,0.5,1.7,1.6,1.7H337.8z
			 M305.2,348.7c0.1-0.6,0.4-1,0.9-1.2c2.7-1.7,4.7-3.5,6-5.3c1.3-1.7,2.2-3.5,2.8-5.7c0.3-1.2,0.5-2.4,0.6-3.6h-8.8
			c-1.1,0-1.6,0.6-1.6,1.7V348.7z M319.3,322.4v7.2h7.2v-7.2H319.3z M329.9,333v9.6c0,1.3,0.6,2,1.9,2h7.6v-9.8
			c0-1.1-0.5-1.7-1.6-1.7H329.9z"/>
		<path fill="#81E2A8" d="M364,325.5c1.1,0,1.7,0.6,1.7,1.7s-0.6,1.7-1.7,1.7h-5.1v1.2l5.5,10.2c0.3,0.6,0.5,1.2,0.5,1.6
			c0,1.2-0.6,1.8-1.9,1.8c-0.5,0-0.9-0.4-1.2-1.1l-2.9-6.8v23.2c0,1.1-0.6,1.7-1.7,1.7s-1.7-0.6-1.7-1.7V337c0,0.1,0,0.1,0,0.1
			c-0.8,2.8-1.5,5-2.2,6.7c-0.8,2.3-1.5,3.9-2.1,4.8c-0.4,0.8-0.9,1.1-1.6,1.1c-1.2,0-1.8-0.6-1.8-1.7c0-0.4,0.2-0.9,0.5-1.4
			c2.2-4.2,3.7-7.7,4.6-10.5c0.7-2.1,1.3-4.5,1.9-7.2h-5.1c-1.1,0-1.7-0.6-1.7-1.7s0.6-1.7,1.7-1.7h5.8v-6.9c0-1.1,0.6-1.7,1.7-1.7
			s1.7,0.6,1.7,1.7v6.9H364z M370,338.9v15.9c2.4-0.8,4.4-1.7,6.1-2.7c0.3-0.1,0.6-0.2,0.8-0.2c0.9,0.1,1.4,0.5,1.5,1.5
			c0,0.7-0.3,1.2-1,1.6c-1.6,1.1-3.8,2.1-6.5,3c-2,0.8-4.5,1.5-7.5,2.2c-1.1-0.1-1.7-0.7-1.8-1.8c0-1.1,0.5-1.7,1.4-1.8
			c1.3-0.3,2.5-0.5,3.5-0.8v-34.7c0-1.9,1-2.9,3-2.9h15.9c2.1,0,3.2,1,3.2,3.1v14.5c0,2-1.1,3-3.2,3h-8c0.8,2.6,1.8,4.9,2.8,6.7
			c0.3,0.5,0.5,0.9,0.8,1.4c2.3-2.3,4.1-4.4,5.6-6.3c0.5-0.6,0.9-0.9,1.2-0.9c1.3,0,1.9,0.6,1.9,1.8c0,0.6-0.3,1.1-0.9,1.6
			c-1.6,2.2-3.6,4.3-5.9,6.4c0.5,0.6,0.9,1.1,1.4,1.6c1.6,1.9,3.7,3.7,6.3,5.4c0.8,0.5,1.2,1,1.2,1.5c-0.1,1.5-0.8,2.2-2.1,2.3
			c-0.6,0-1.3-0.3-2.1-0.8c-3-2.2-5.5-4.6-7.5-7.3c-1.5-1.8-2.7-3.8-3.6-5.9c-1-2.2-1.8-4.7-2.4-7.5H370z M383.7,321.5h-12.4
			c-0.9,0-1.3,0.5-1.3,1.4v4.3h15.4v-4.3c0-0.9-0.4-1.4-1.3-1.4H383.7z M370,330.2v5.5h14.1c0.9,0,1.3-0.5,1.3-1.4v-4.1H370z"/>
	</g>
	<g>
		<path fill="#D7F9EA" d="M634.7,249.9h5.3c0-1.3,0-2.6,0-3.9c0-1.2,0.6-1.7,1.8-1.7s1.8,0.6,1.8,1.8c0,1.3,0,2.6-0.1,3.8h6.8
			c2.4,0,3.6,1.1,3.6,3.4c0,10.3-0.3,18.3-0.9,24.2c-0.4,3.9-1.2,6.5-2.3,7.9c-1.2,1.4-2.8,2.2-5,2.2c-1.1,0-2.7-0.3-4.7-0.9
			c-0.9-0.3-1.4-0.9-1.4-1.9c0-1.3,0.7-2,2-2c2.1,0.7,3.5,1,4.1,1c1.3,0,2.2-0.5,2.7-1.6c0.6-1.4,1-3.3,1.2-5.9
			c0.4-3.9,0.7-11.2,0.7-21.7c0-0.9-0.4-1.3-1.2-1.3h-5.8c-0.2,4.4-0.5,8.5-1.1,12.5c-1.3,7.8-3.7,14.8-7.1,21
			c-0.4,0.6-0.9,0.8-1.5,0.8c-1.3,0-2-0.7-2-2c0-0.1,0.2-0.5,0.5-1.1c3.2-5.8,5.4-12.4,6.7-19.9c0.5-3.6,0.9-7.4,1-11.4h-5.2
			c-1.1,0-1.7-0.6-1.7-1.7S633.6,249.9,634.7,249.9z M660.6,247.6h11.6c2.1,0,3.2,1.1,3.2,3.2v32.8c0,2.1-1.1,3.2-3.2,3.2h-11.6
			c-2.1,0-3.2-1.1-3.2-3.2v-32.8C657.4,248.7,658.5,247.6,660.6,247.6z M670.9,283.5c0.8,0,1.1-0.4,1.1-1.1v-30.2
			c0-0.7-0.4-1.1-1.1-1.1h-9c-0.8,0-1.1,0.4-1.1,1.1v30.2c0,0.8,0.4,1.1,1.1,1.1H670.9z"/>
		<path fill="#D7F9EA" d="M686.3,254c1.1,0,1.7,0.6,1.7,1.7c0,3.2-0.2,6.2-0.5,9c-0.5,3.6-1.4,6.7-2.8,9.5c-0.4,0.6-0.9,0.9-1.5,0.9
			c-1.3,0-2-0.7-2-2c0-0.1,0.2-0.5,0.5-1.1c1.2-2.5,2-5.3,2.4-8.4c0.3-2.5,0.5-5.1,0.5-7.9C684.6,254.6,685.2,254,686.3,254z
			 M692.7,244.3c1.1,0,1.7,0.6,1.7,1.7v19.3c0,4.4-0.8,8.6-2.4,12.5c-1.4,3.3-3.3,6.3-5.7,8.9c-0.5,0.8-1,1.1-1.5,1.1
			c-1.4-0.1-2.1-0.7-2.2-2c0-0.3,0.2-0.7,0.6-1c3.2-3.5,5.3-7.1,6.5-10.8c0.9-2.9,1.4-5.8,1.4-8.7V246
			C691,244.8,691.6,244.3,692.7,244.3z M698.3,254c0.7,0,1.3,0.3,1.6,1c0.6,3.1,1.3,8.2,2,15.3c0.2,1.3,0.2,2.3,0.2,2.9
			c0,1.1-0.6,1.6-1.8,1.6c-1,0-1.5-0.5-1.6-1.6c-0.4-6.5-1.1-11.9-1.9-16.4l-0.1-1.4C696.7,254.5,697.2,254,698.3,254z M706.2,246.1
			c1.1,0,1.7,0.6,1.7,1.7v36c0,1.1-0.6,1.7-1.7,1.7s-1.7-0.6-1.7-1.7v-36C704.5,246.7,705.1,246.1,706.2,246.1z M712.6,254
			c0.7,0,1.2,0.3,1.6,1c0.8,3.1,1.5,8.2,2.3,15.3c0.2,1.3,0.3,2.3,0.3,2.9c0,1.1-0.6,1.6-1.8,1.6c-1,0-1.5-0.5-1.6-1.6
			c-0.5-6.5-1.3-11.9-2.3-16.4l-0.1-1.4C711,254.5,711.5,254,712.6,254z M721,244.4c1.2,0,1.8,0.6,1.8,1.8v39.9
			c0,1.2-0.6,1.8-1.8,1.8s-1.8-0.6-1.8-1.8v-39.9C719.2,245,719.8,244.4,721,244.4z"/>
		<path fill="#D7F9EA" d="M744.2,253.1c1.1,0,1.7,0.6,1.7,1.7s-0.6,1.7-1.7,1.7h-3.8v1.1l6,10.5c0.3,0.6,0.5,1.2,0.5,1.6
			c0,1.2-0.6,1.8-1.9,1.8c-0.6,0-1-0.4-1.4-1.1l-3.2-7.2v22.9c0,1.2-0.6,1.8-1.8,1.8s-1.8-0.6-1.8-1.8v-21.7
			c-0.1,0.2-0.1,0.4-0.2,0.7c-0.9,2.9-1.8,5.2-2.5,6.8c-0.9,2.3-1.8,4-2.4,5c-0.4,0.8-0.9,1.1-1.6,1.1c-1.2,0-1.8-0.6-1.8-1.7
			c0-0.4,0.2-0.9,0.5-1.4c2.4-4.4,4.1-8,5.1-10.9c0.8-2.1,1.5-4.6,2.2-7.5h-5.5c-1.1,0-1.7-0.6-1.7-1.7s0.6-1.7,1.7-1.7h6.3v-7.5
			c0-1.2,0.6-1.8,1.8-1.8s1.8,0.6,1.8,1.8v7.5H744.2z M759,243.9c0.5,0,1,0.2,1.4,0.6c0.4,0.4,0.6,0.9,0.6,1.4
			c0,0.5-0.2,0.9-0.5,1.3c-0.4,0.8-0.9,1.6-1.5,2.3h9c2.2,0,3.3,1.1,3.3,3.2v30.9c0,2.1-1.1,3.2-3.3,3.2h-17.3
			c-2.2,0-3.3-1.1-3.3-3.2v-30.9c0-2.1,1.1-3.2,3.3-3.2h3.9c0.3-0.3,0.5-0.6,0.7-1c0.7-1.2,1.3-2.4,1.8-3.7
			C757.7,244.2,758.2,243.9,759,243.9z M751.1,265.5h16.7v-11.3c0-0.9-0.4-1.3-1.2-1.3h-14.3c-0.8,0-1.2,0.4-1.2,1.3V265.5z
			 M766.6,283.5c0.8,0,1.2-0.4,1.2-1.3v-13.3h-16.7v13.3c0,0.9,0.4,1.3,1.2,1.3H766.6z"/>
		<path fill="#D7F9EA" d="M818.5,247.6c1.1,0,1.7,0.6,1.7,1.7c0,1.2-0.6,1.7-1.7,1.7h-18.2v4.5h12.4c2.2,0,3.3,1.1,3.3,3.2v8.4
			c0,2.1-1.1,3.2-3.3,3.2h-7v10.8c0,0.9,0.3,1.5,1,1.9c0.8,0.4,2.5,0.6,5.3,0.6c2.2,0,3.5-0.2,4-0.7c0.5-0.4,0.8-0.9,0.8-1.6v-3.9
			c0.1-1.3,0.7-2,1.8-2.1c1.1,0.1,1.7,0.9,1.8,2.6c0,3.8-0.2,5.9-0.6,6.6c-0.3,0.8-0.9,1.4-1.9,1.9c-0.9,0.4-2.9,0.7-5.8,0.7
			c-4.2,0-6.8-0.4-8.1-1.2c-1.2-0.7-1.8-2-1.8-3.9v-11.6h-8.6v1.5c0,2.2-0.4,4.1-1.1,6c-0.8,1.9-2.3,3.6-4.4,5.2
			c-1.9,1.6-4.7,3.1-8.2,4.4c-0.8,0.3-1.2,0.4-1.4,0.4c-1.4,0-2.1-0.7-2.1-2.1c0-1,0.4-1.6,1.2-1.9c3.5-1.2,6.1-2.4,7.8-3.7
			c1.7-1.2,2.9-2.5,3.6-3.9c0.7-1.4,1-2.9,1-4.4v-1.5h-5.7c-2.2,0-3.3-1.1-3.3-3.2v-8.4c0-2.1,1.1-3.2,3.3-3.2h12.4v-4.5h-18.2
			c-1.1,0-1.7-0.6-1.7-1.7c0-1.1,0.6-1.7,1.7-1.7h18.2v-2.1c0-1.3,0.6-1.9,1.9-1.9s1.9,0.6,1.9,1.9v2.1H818.5z M811,267
			c0.9,0,1.4-0.5,1.4-1.5v-5.1c0-1-0.5-1.5-1.4-1.5h-25.1c-0.9,0-1.4,0.5-1.4,1.5v5.1c0,1,0.5,1.5,1.4,1.5H811z"/>
		<path fill="#D7F9EA" d="M834.8,261.3c0.4,0,0.8,0.1,1.1,0.4c0.3,0.3,0.5,0.6,0.5,1.1c0,0.3-0.1,0.6-0.2,1c-0.3,1-0.6,1.8-1,2.5
			c0.9,0.8,1.7,1.5,2.3,1.9c0.7,0.5,1.6,1,2.7,1.6c0.6,0.3,0.9,0.8,0.9,1.5c-0.1,1.2-0.6,1.8-1.6,1.8c-0.3,0-0.8-0.1-1.5-0.4
			c-0.7-0.4-1.5-0.9-2.2-1.5c-0.7-0.6-1.5-1.3-2.3-2.3c-0.9,1.3-1.9,2.5-3,3.5c-1.1,1.1-2.4,2-3.8,2.7c-0.3,0.3-0.7,0.4-1.2,0.4
			c-0.4,0-0.8-0.2-1.1-0.5c-0.3-0.4-0.5-0.9-0.5-1.4c0-0.5,0.2-0.9,0.6-1.2c1.3-0.8,2.5-1.5,3.4-2.4c1.2-1.1,2.2-2.2,3-3.4
			c0.8-1.2,1.5-2.5,2.1-4.2C833.4,261.7,833.9,261.3,834.8,261.3z M865.6,256.1c1.1,0,1.7,0.6,1.7,1.7s-0.6,1.7-1.7,1.7h-17.2v10
			c3.4,3.9,6.7,6.9,9.8,8.9c2,1.5,5,3.1,9,4.7c0.9,0.2,1.4,0.8,1.5,1.7c-0.1,1.3-0.7,2-2,2c-0.4,0-1.2-0.3-2.5-0.8
			c-5.7-2.4-10.9-6.3-15.8-11.5v11.6c0,1.2-0.6,1.8-1.8,1.8s-1.8-0.6-1.8-1.8v-11.8c-3,3.2-5.8,5.6-8.3,7.2c-3,1.9-5.8,3.4-8.3,4.5
			c-0.9,0.5-1.5,0.8-2,0.8c-1.3-0.1-1.9-0.8-2-2.1c0-0.8,0.5-1.4,1.5-1.6c4.8-2.2,8.4-4.2,10.7-6c2.8-2.1,5.6-4.7,8.3-7.8v-9.9
			h-16.8c-1.1,0-1.7-0.6-1.7-1.7s0.6-1.7,1.7-1.7h16.8v-2.3c0-1.2,0.6-1.8,1.8-1.8s1.8,0.6,1.8,1.8v2.3H865.6z M867.2,247.4
			c1.1,0,1.6,0.5,1.6,1.6s-0.5,1.6-1.6,1.6h-9.8v1.6c0,1.1-0.6,1.7-1.7,1.7s-1.7-0.6-1.7-1.7v-1.6h-17.1v1.6c0,1.1-0.6,1.7-1.7,1.7
			s-1.7-0.6-1.7-1.7v-1.6H826c-1.1,0-1.6-0.5-1.6-1.6s0.5-1.6,1.6-1.6h7.7V246c0-1.1,0.6-1.7,1.7-1.7s1.7,0.6,1.7,1.7v1.4h17.1V246
			c0-1.1,0.6-1.7,1.7-1.7s1.7,0.6,1.7,1.7v1.4H867.2z M859,261.1c0.4,0,0.8,0.1,1.1,0.4s0.5,0.6,0.5,1.1c0,0.3-0.1,0.7-0.2,1
			c-0.1,0.4-0.3,0.8-0.4,1.1c1.2,1.3,2.3,2.3,3.1,3c0.9,0.7,2,1.4,3.3,2.2c0.6,0.3,0.9,0.8,0.9,1.5c-0.1,1.2-0.6,1.8-1.6,1.8
			c-0.3,0-0.8-0.1-1.5-0.4c-0.9-0.5-1.8-1.1-2.7-1.9s-1.9-1.9-3-3.1c-0.5,1-1.2,1.9-2,2.6c-0.7,0.8-1.5,1.5-2.5,2.1
			c-0.3,0.3-0.7,0.4-1.1,0.4s-0.8-0.2-1.2-0.6c-0.3-0.4-0.5-0.9-0.5-1.4c0-0.5,0.2-0.9,0.6-1.2c0.8-0.5,1.5-1.1,2.2-1.8
			c0.7-0.8,1.3-1.6,1.9-2.5s1-1.9,1.4-3.1C857.6,261.5,858.1,261.1,859,261.1z"/>
	</g>
	<g>
		<path fill="#FFFFFF" d="M585.2,68.4h5.3c0-1.3,0-2.6,0-3.9c0-1.2,0.6-1.7,1.8-1.7c1.2,0,1.8,0.6,1.8,1.8c0,1.3,0,2.6-0.1,3.8h6.8
			c2.4,0,3.6,1.1,3.6,3.4c0,10.3-0.3,18.3-0.9,24.2c-0.4,3.9-1.2,6.5-2.3,7.9c-1.2,1.4-2.8,2.2-5,2.2c-1.1,0-2.7-0.3-4.7-0.9
			c-0.9-0.3-1.4-0.9-1.4-1.9c0-1.3,0.7-2,2-2c2.1,0.7,3.5,1,4.1,1c1.2,0,2.2-0.5,2.7-1.6c0.6-1.4,1-3.3,1.2-5.9
			c0.4-3.9,0.7-11.2,0.7-21.7c0-0.9-0.4-1.3-1.2-1.3h-5.8c-0.2,4.4-0.5,8.5-1.1,12.5c-1.3,7.8-3.7,14.8-7.1,21
			c-0.4,0.6-0.9,0.8-1.5,0.8c-1.3,0-2-0.7-2-2c0-0.1,0.2-0.5,0.5-1.1c3.2-5.8,5.4-12.4,6.7-19.9c0.5-3.6,0.9-7.4,1-11.4h-5.2
			c-1.1,0-1.7-0.6-1.7-1.7S584.1,68.4,585.2,68.4z M611.1,66.2h11.6c2.1,0,3.2,1.1,3.2,3.2v32.8c0,2.1-1.1,3.2-3.2,3.2h-11.6
			c-2.1,0-3.2-1.1-3.2-3.2V69.3C607.9,67.2,609,66.2,611.1,66.2z M621.4,102c0.8,0,1.1-0.4,1.1-1.1V70.7c0-0.7-0.4-1.1-1.1-1.1h-9
			c-0.8,0-1.1,0.4-1.1,1.1v30.2c0,0.8,0.4,1.1,1.1,1.1H621.4z"/>
		<path fill="#FFFFFF" d="M636.8,72.5c1.1,0,1.7,0.6,1.7,1.7c0,3.2-0.2,6.2-0.5,9c-0.5,3.6-1.4,6.7-2.8,9.5
			c-0.4,0.6-0.9,0.9-1.5,0.9c-1.3,0-2-0.7-2-2c0-0.1,0.2-0.5,0.5-1.1c1.2-2.5,2-5.3,2.4-8.4c0.3-2.5,0.5-5.1,0.5-7.9
			C635.1,73.1,635.7,72.5,636.8,72.5z M643.2,62.8c1.1,0,1.7,0.6,1.7,1.7v19.3c0,4.4-0.8,8.6-2.4,12.5c-1.4,3.3-3.3,6.3-5.7,8.9
			c-0.5,0.8-1,1.1-1.5,1.1c-1.4-0.1-2.1-0.7-2.2-2c0-0.3,0.2-0.7,0.6-1c3.2-3.5,5.3-7.1,6.5-10.8c0.9-2.9,1.4-5.8,1.4-8.7V64.5
			C641.5,63.3,642.1,62.8,643.2,62.8z M648.8,72.5c0.7,0,1.2,0.3,1.6,1c0.6,3.1,1.3,8.2,2,15.3c0.2,1.3,0.2,2.3,0.2,2.9
			c0,1.1-0.6,1.6-1.8,1.6c-1,0-1.5-0.5-1.6-1.6c-0.4-6.5-1.1-11.9-1.9-16.4l-0.1-1.4C647.2,73,647.7,72.5,648.8,72.5z M656.7,64.7
			c1.1,0,1.7,0.6,1.7,1.7v36c0,1.1-0.6,1.7-1.7,1.7s-1.7-0.6-1.7-1.7v-36C655,65.2,655.6,64.7,656.7,64.7z M663.1,72.5
			c0.7,0,1.2,0.3,1.6,1c0.8,3.1,1.5,8.2,2.3,15.3c0.2,1.3,0.3,2.3,0.3,2.9c0,1.1-0.6,1.6-1.8,1.6c-1,0-1.5-0.5-1.6-1.6
			c-0.5-6.5-1.3-11.9-2.3-16.4l-0.1-1.4C661.5,73,662,72.5,663.1,72.5z M671.5,62.9c1.2,0,1.8,0.6,1.8,1.8v39.9
			c0,1.2-0.6,1.8-1.8,1.8c-1.2,0-1.8-0.6-1.8-1.8V64.7C669.7,63.5,670.3,62.9,671.5,62.9z"/>
		<path fill="#FFFFFF" d="M720.4,74.1c1.2,0,1.8,0.6,1.8,1.8s-0.6,1.8-1.8,1.8h-17.2c0.2,1.2,0.5,2.4,0.8,3.8c0.8,2.7,2.2,5.3,4,7.9
			c1.7,2.5,3.9,4.9,6.7,7.3c1.8,1.8,4.4,3.7,7.6,6c0.6,0.5,0.8,1,0.8,1.5c-0.1,1.3-0.7,1.9-1.9,2c-0.5,0-1.1-0.3-1.8-0.8
			c-3.5-2.4-6.6-4.9-9.1-7.5c-2.4-2.5-4.3-4.9-5.6-7c-1.6-2.5-2.8-4.9-3.7-7.4c-0.9,2.5-2.1,4.8-3.6,7.1c-1.4,2.3-3.4,4.7-5.8,7.1
			c-2.7,2.9-5.7,5.5-9,7.8c-0.6,0.4-1,0.7-1.5,0.7c-1.3-0.1-2-0.8-2.1-2.3c0-0.4,0.4-0.9,1.1-1.5c3-2,5.7-4.2,8.2-6.7
			c2.7-2.6,4.9-5.1,6.6-7.7c1.5-2.4,2.6-4.8,3.3-7c0.3-1.2,0.6-2.3,0.7-3.4h-17c-1.2,0-1.8-0.6-1.8-1.8s0.6-1.8,1.8-1.8h17.3v-9.3
			c0-1.3,0.6-1.9,1.9-1.9c1.2,0,1.9,0.6,1.9,1.9v9.3H720.4z"/>
		<path fill="#FFFFFF" d="M769.2,94.7c1.1,0,1.6,0.5,1.6,1.6s-0.5,1.6-1.6,1.6h-14.6c0.2,0.7,0.2,1.4,0.2,2.2c0,1.2-0.4,2.4-1.2,3.5
			c-0.7,1-1.5,1.7-2.7,2.2c-1,0.4-2.3,0.7-3.7,0.7c-2.1,0-4.5-0.4-7.2-1.3c-1-0.4-1.5-1-1.5-1.9c0.1-1.3,0.6-2,1.7-2
			c3.6,1.1,5.8,1.6,6.7,1.6c0.7,0,1.3-0.1,1.9-0.3c0.7-0.2,1.3-0.6,1.7-1c0.5-0.4,0.7-0.9,0.7-1.5c0-0.8-0.1-1.6-0.2-2.2h-22
			c-1.1,0-1.6-0.5-1.6-1.6s0.5-1.6,1.6-1.6H749c-0.7-0.6-1.4-1-2.3-1.4c-0.3-0.1-0.4-0.3-0.4-0.4c0.1-1.2,0.7-1.8,2-1.9
			c0.3,0,0.7,0.1,1.1,0.3c0.4,0.3,0.9,0.5,1.3,0.8c1.1-0.3,1.8-0.5,2.3-0.8c0.9-0.4,1.7-0.8,2.3-1.2c0.5-0.3,0.8-0.5,0.8-0.6
			c0-0.3-0.2-0.4-0.7-0.4h-17.8c-1,0-1.5-0.5-1.5-1.5s0.5-1.5,1.5-1.5H759c2,0,3,0.7,3,2.1c0,0.4-0.3,0.8-0.8,1.3
			c-0.9,0.8-2.1,1.6-3.8,2.6c-1.5,0.8-3,1.4-4.5,2c0.2,0.2,0.3,0.4,0.5,0.6H769.2z M734.4,72.4l0.2,3h5.4c0.9,0,1.4,0.5,1.4,1.4
			s-0.5,1.4-1.4,1.4h-5.2l0.2,2.5h27.8c0.1-1,0.2-1.9,0.3-2.7h-5c-0.9,0-1.4-0.5-1.4-1.4s0.5-1.4,1.4-1.4h5.3c0.2-1.1,0.3-2.1,0.4-3
			h-6.1c-0.9,0-1.4-0.5-1.4-1.4s0.5-1.4,1.4-1.4h6.5c0.2-1.6,0.3-2.4,0.3-2.5c0-0.5-0.3-0.7-0.9-0.7h-5.9c-0.9,0-1.4-0.5-1.4-1.4
			c0-0.9,0.5-1.4,1.4-1.4h7.6c1.8,0,2.8,0.8,2.8,2.3c0,0.4-0.7,5.4-2.1,15h1.3c1.3,0,2.4,0.5,3,1.4c0.5,0.7,0.8,1.8,0.8,3.2
			c0,1-0.1,2.1-0.3,3.3c-0.3,1-1,1.5-2.1,1.5c-1.2,0-1.8-0.6-1.8-1.8c0.3-1.5,0.5-2.4,0.5-2.8c0-1.2-0.4-1.8-1.3-1.8h-34
			c-0.8,0-1.1,0.4-1.1,1.1v3.9c0,1.1-0.6,1.7-1.7,1.7s-1.7-0.6-1.7-1.7v-5.6c0-1.6,0.8-2.4,2.4-2.4h1.8l-1.1-14.1
			c0-1.2,0.3-2.1,0.8-2.6c0.4-0.5,1.2-0.7,2.4-0.8c2-0.1,4.1-0.3,6.2-0.7c1.1,0,1.6,0.5,1.6,1.6c0,1-0.6,1.6-1.7,1.7
			c-2,0.2-3.7,0.3-5.3,0.3c-0.7,0-1.1,0.4-1.1,1.2l0.1,2.1h5.4c0.9,0,1.4,0.5,1.4,1.4s-0.5,1.4-1.4,1.4H734.4z M752.8,62.8
			c1.1,0,1.6,0.5,1.6,1.6c0,0.5-0.3,0.9-0.8,1.3c-0.6,0.5-1.3,1-2,1.5c0.8,0.5,1.5,0.9,2.2,1.4c0.3,0.4,0.5,0.7,0.5,0.9
			c0,1-0.5,1.5-1.5,1.5c-0.6,0-1-0.2-1.4-0.5c-0.9-0.6-1.8-1.1-2.5-1.5c-1.4,0.9-3,1.7-4.8,2.4c-0.5,0.2-0.8,0.2-0.9,0.2
			c-1,0-1.5-0.5-1.5-1.5c0-0.5,0.3-0.8,0.8-1.1c1.2-0.5,2.3-1.1,3.4-1.7c-0.7-0.3-1.5-0.7-2.3-1c-0.3-0.3-0.5-0.7-0.5-1
			c0-0.9,0.5-1.4,1.4-1.4c0.3,0,0.6,0.1,0.9,0.3c1.2,0.5,2.3,1,3.3,1.5c1.2-0.8,2.2-1.6,3.1-2.5C752.3,62.9,752.6,62.8,752.8,62.8z
			 M753.9,71.6c1.1,0,1.6,0.5,1.6,1.6c0,0.5-0.3,0.9-0.8,1.3c-0.6,0.5-1.2,1-1.9,1.5c0.8,0.4,1.5,0.9,2.2,1.3
			c0.3,0.4,0.5,0.7,0.5,0.9c0,1-0.5,1.5-1.5,1.5c-0.5,0-1-0.2-1.4-0.5c-1-0.6-1.9-1.1-2.7-1.5c-1.5,0.8-3.1,1.5-4.8,2.2
			c-0.5,0.2-0.8,0.2-0.9,0.2c-1,0-1.5-0.5-1.5-1.5c0-0.5,0.3-0.8,0.8-1.1c1.2-0.4,2.3-0.9,3.3-1.5c-0.8-0.4-1.6-0.7-2.4-1.1
			c-0.3-0.3-0.5-0.7-0.5-1c0-0.9,0.5-1.4,1.4-1.4c0.3,0,0.6,0.1,0.9,0.3c1.3,0.6,2.5,1.1,3.5,1.5c1.2-0.8,2.3-1.5,3.2-2.3
			C753.4,71.7,753.7,71.6,753.9,71.6z"/>
	</g>
	<g>
		<path fill="#FFFFFF" d="M393.5,449.3c1.3,0,2,0.7,2,2s-0.7,2-2,2h-19.6c0.1,0.1,0.1,0.2,0.2,0.3c1.6,2.1,4,4.2,7,6.2
			c2.8,1.8,6.8,3.7,12.1,5.7c0.8,0.5,1.2,1.1,1.2,1.8c-0.1,1.5-0.8,2.2-2.2,2.3c-0.7,0-1.5-0.2-2.4-0.7c-5.2-1.9-9.1-3.8-11.7-5.6
			c-3.5-2.2-6.5-5.2-9-9.1c-1.6,2.7-3.6,5-6.1,6.9c-3,2.5-8,5.2-14.8,7.8c-0.8,0.6-1.6,0.9-2.4,0.9c-1.6-0.1-2.5-0.9-2.6-2.5
			c0-0.5,0.4-1,1.1-1.5c4.2-1.6,7.6-3.1,10.2-4.7c4.3-2.4,7.2-4.7,8.8-6.8c0.3-0.4,0.6-0.8,0.9-1.2H344c-1.3,0-2-0.7-2-2s0.7-2,2-2
			h3.9v-11c0-2.4,1.2-3.6,3.7-3.6h15v-4.3c0-1.5,0.7-2.2,2.2-2.2c1.5,0,2.2,0.7,2.2,2.2v4.3h15.2c2.5,0,3.7,1.2,3.7,3.6v11H393.5z
			 M393.3,422.1c1.3,0,2,0.7,2,2s-0.7,2-2,2h-10.8v2.7c0,1.3-0.7,2-2,2s-2-0.7-2-2v-2.7h-20.6v2.7c0,1.3-0.7,2-2,2s-2-0.7-2-2v-2.7
			h-9.6c-1.3,0-2-0.7-2-2s0.7-2,2-2h9.6v-2.9c0-1.3,0.7-2,2-2s2,0.7,2,2v2.9h20.6v-2.9c0-1.3,0.7-2,2-2s2,0.7,2,2v2.9H393.3z
			 M366.4,449.3c0.2-0.7,0.3-1.5,0.3-2.2v-8.3h-13.2c-0.8,0-1.2,0.5-1.2,1.4v9.1H366.4z M385.8,449.3v-9.1c0-0.9-0.4-1.4-1.2-1.4
			h-13.4v8.3c0,0.7,0.1,1.5,0.4,2.2H385.8z"/>
		<path fill="#FFFFFF" d="M406.1,418.9h40.6c2.5,0,3.8,1.2,3.8,3.7v42.1c0,2.5-1.3,3.7-3.8,3.7h-40.6c-2.5,0-3.8-1.2-3.8-3.7v-42.1
			C402.3,420.1,403.5,418.9,406.1,418.9z M444.9,464.6c1,0,1.6-0.6,1.6-1.7v-38.5c0-1.1-0.5-1.7-1.6-1.7h-37c-1,0-1.6,0.6-1.6,1.7
			v38.5c0,1.1,0.5,1.7,1.6,1.7H444.9z M442.8,428.9c1.2,0,1.8,0.6,1.8,1.8s-0.6,1.8-1.8,1.8h-11.2c0.1,4,0.5,7.4,1,10.4
			c0.4,2.4,0.9,4.6,1.5,6.6c0.2-0.4,0.4-0.8,0.6-1.2c1.2-3.4,1.8-7,1.8-10.9c0-1.2,0.6-1.8,1.9-1.8c1.3,0,1.9,0.6,1.9,1.9
			c0,4.3-0.7,8.3-2,12.1c-0.6,1.6-1.5,3.2-2.5,4.7c0.6,1.3,1.3,2.4,2,3.5c0.6,1,1,1.5,1.3,1.5c0.3,0,0.4-0.4,0.6-1.3
			c0.3-1.9,0.4-3.9,0.4-5.9c0.1-1.3,0.7-1.9,1.8-1.9c1.2,0.3,1.8,1.1,1.8,2.5c0,2.9-0.4,5.7-1.1,8.4c-0.7,2-1.6,3-2.9,3
			c-1.3,0-2.6-0.8-4-2.4c-0.9-1.2-1.8-2.5-2.5-4c-1.5,1.7-3.3,3.3-5.3,4.8c-0.4,0.6-1,1-1.7,1c-1.5,0-2.2-0.7-2.2-2.2
			c0-0.1,0.2-0.5,0.5-1.2c2.8-2,5.2-4.1,6.9-6.4c-1.3-3.4-2.3-7.6-3.1-12.4c-0.3-2.7-0.6-5.5-0.7-8.5h-18c-1.2,0-1.8-0.6-1.8-1.8
			s0.6-1.8,1.8-1.8h17.9c0-1-0.1-2.1-0.1-3.1c0-1.3,0.6-2,1.9-2c1.3,0,1.9,0.7,1.9,2c0,1,0,2.1,0.1,3.1h5.9c-0.7-0.9-1.3-1.7-2-2.5
			c-0.3-0.4-0.5-0.8-0.5-1c0-1.2,0.7-1.8,2.1-1.8c0.3,0,0.7,0.2,1,0.6c0.9,1.2,1.7,2.5,2.6,4c0.2,0.3,0.3,0.6,0.3,0.8H442.8z
			 M426,453.1c1.1,0.1,1.7,0.7,1.8,1.7c0,0.8-0.4,1.5-1.2,1.9c-1.9,1-4.4,1.9-7.5,2.8c-2.4,0.7-5.3,1.3-8.7,1.9
			c-1.3-0.1-2-0.8-2.1-2.1c0-1.3,0.6-2,1.7-2.2c3.1-0.4,5.5-0.9,7.2-1.3c3.1-0.7,5.7-1.5,7.8-2.5C425.4,453.2,425.7,453.1,426,453.1
			z M413,436h10.5c1.9,0,2.9,1,2.9,2.9v9.6c0,1.9-1,2.9-2.9,2.9H413c-1.9,0-2.9-1-2.9-2.9V439C410.1,437,411.1,436,413,436z
			 M421.5,447.9c0.9,0,1.3-0.4,1.3-1.3V441c0-0.9-0.4-1.3-1.3-1.3H415c-0.9,0-1.3,0.4-1.3,1.3v5.6c0,0.9,0.4,1.3,1.3,1.3H421.5z"/>
		<path fill="#FFFFFF" d="M473.8,416.8c0.9,0,1.5,0.2,2,0.7c2.5,2.1,5,3.9,7.4,5.3c1.7,1,3.9,2,6.8,3.1c0.7,0.5,1.1,1.1,1.1,1.9
			c-0.1,1.5-0.8,2.2-2.3,2.3c-0.4,0-1-0.2-1.6-0.6c-1.8-0.8-3.6-1.7-5.4-2.7c-2.4-1.4-4.8-3.2-7.5-5.4c-0.1-0.1-0.3-0.2-0.5-0.2
			c-0.1,0-0.4,0.1-0.6,0.3c-3.5,3.2-7.8,6-13,8.3c-0.6,0.4-1.2,0.6-1.8,0.6c-1.5-0.1-2.2-0.9-2.3-2.5c0-0.4,0.3-1,1-1.5
			c3-1.2,5.4-2.4,7-3.4c2.2-1.2,4.6-3,7.2-5.4C471.9,417,472.7,416.8,473.8,416.8z M465.9,452.2c0.5,0,0.9,0.1,1.3,0.4
			c0.4,0.3,0.6,0.7,0.6,1.3c0,0.4-0.1,0.8-0.2,1.2c-0.2,1-0.5,1.9-0.7,2.7c0.8,0.8,1.5,1.5,2.1,2.2c1.1,1.1,2.1,2.3,3,3.8
			c0.4,0.5,0.6,0.8,0.6,1.1c0,1.2-0.6,1.8-1.7,1.8c-0.6,0-1.2-0.2-1.7-0.6c-1.1-1.5-2-2.7-2.8-3.5c-0.3-0.4-0.7-0.7-1.1-1.1
			c-0.7,1.5-1.5,2.8-2.4,4c-0.9,1.3-1.9,2.4-3.1,3.3c-0.4,0.3-0.9,0.5-1.4,0.5c-0.5,0-0.9-0.2-1.3-0.7c-0.4-0.5-0.6-1-0.6-1.6
			c0-0.6,0.2-1,0.7-1.4c1-0.9,1.9-1.8,2.7-2.9c0.9-1.3,1.6-2.6,2.3-4.1c0.7-1.4,1.2-3,1.7-5C464.2,452.6,464.9,452.2,465.9,452.2z
			 M462.1,435.4h7.6c1.9,0,2.8,0.9,2.8,2.7v10.5c0,1.8-0.9,2.7-2.8,2.7h-7.6c-1.9,0-2.8-0.9-2.8-2.7v-10.5
			C459.3,436.3,460.2,435.4,462.1,435.4z M483.2,429c1.3,0,1.9,0.6,1.9,1.9c0,1.3-0.6,1.9-1.9,1.9h-19.1c-1.3,0-1.9-0.6-1.9-1.9
			c0-1.3,0.6-1.9,1.9-1.9H483.2z M467.5,447.7c0.8,0,1.2-0.4,1.2-1.3v-6.1c0-0.9-0.4-1.3-1.2-1.3h-3.1c-0.8,0-1.2,0.4-1.2,1.3v6.1
			c0,0.9,0.4,1.3,1.2,1.3H467.5z M481.8,452.4c0.5,0,0.9,0.1,1.3,0.4c0.4,0.3,0.6,0.7,0.6,1.3c0,0.3-0.1,0.7-0.2,1.2
			c-0.1,0.6-0.3,1.3-0.5,1.8c0.2,0.2,0.4,0.5,0.5,0.8c1.1,2.7,3.1,5.1,6.1,7.1c0.7,0.5,1,1,1,1.6c0,0.7-0.1,1.2-0.4,1.4
			c-0.3,0.6-0.9,0.8-1.6,0.8c-0.7,0-1.4-0.3-2.1-1c-1.7-1.2-3.4-3.3-5.2-6.2c0-0.2-0.1-0.2-0.1-0.2c-0.9,1.7-1.8,3.2-2.9,4.5
			c-1,1.3-2.1,2.4-3.4,3.4c-0.4,0.3-0.8,0.4-1.3,0.4c-0.5,0-0.9-0.2-1.3-0.6c-0.4-0.5-0.6-1-0.6-1.6c0-0.5,0.2-1,0.7-1.3
			c1.1-0.9,2.1-1.9,3-3c1-1.3,1.8-2.8,2.6-4.3c0.7-1.5,1.3-3.2,1.8-5.3C480.1,452.9,480.8,452.4,481.8,452.4z M477.6,435.4h7.6
			c1.9,0,2.8,0.9,2.8,2.7v10.3c0,1.8-0.9,2.7-2.8,2.7h-7.6c-1.9,0-2.8-0.9-2.8-2.7v-10.3C474.8,436.3,475.7,435.4,477.6,435.4z
			 M483,447.5c0.8,0,1.2-0.4,1.2-1.3v-5.8c0-0.9-0.4-1.3-1.2-1.3h-3.1c-0.8,0-1.2,0.4-1.2,1.3v5.8c0,0.9,0.4,1.3,1.2,1.3H483z
			 M506.3,418c1.4,0,2.1,0.7,2.1,2.1v43.8c0,3.7-2.1,5.5-6.2,5.5c-2.1,0-5-0.5-8.5-1.6c-1.1-0.4-1.7-1.1-1.7-2.2
			c0-1.4,0.7-2.2,1.9-2.2c0.3,0,0.8,0.1,1.3,0.2c3.4,0.9,5.7,1.4,6.7,1.4c1.4,0,2.1-0.8,2.1-2.4v-42.6
			C504.1,418.7,504.8,418,506.3,418z M495.5,421c1.3,0,2,0.7,2,2v33.2c0,1.3-0.7,2-2,2c-1.3,0-2-0.7-2-2V423
			C493.5,421.7,494.2,421,495.5,421z"/>
		<path fill="#FFFFFF" d="M528.7,428.9c1.3,0,2,0.7,2,2c0,1.3-0.7,2-2,2h-2.9v1.7l5.8,9.4c0.3,0.6,0.5,1.1,0.5,1.5
			c0,1.3-0.7,2-2.1,2c-0.6,0-1-0.3-1.3-1l-2.9-5.9v27c0,1.3-0.7,2-2,2s-2-0.7-2-2V444c-0.6,2.6-1.1,4.8-1.6,6.4
			c-0.7,2.8-1.4,4.8-2,6c-0.4,0.9-1,1.3-1.8,1.3c-1.3,0-2-0.7-2-2c0-0.5,0.2-1,0.6-1.6c2-5.3,3.4-9.6,4.3-13.1
			c0.6-2.4,1.2-5.1,1.7-8.3h-4.5c-1.3,0-2-0.7-2-2c0-1.3,0.7-2,2-2h5.4v-9.6c0-1.3,0.7-2,2-2s2,0.7,2,2v9.6H528.7z M562.7,418
			c1.2,0,1.8,0.7,1.8,2.1c0,0.9-0.7,1.5-2.2,1.7c-3.1,0.3-7.1,0.5-12.2,0.8c0,0.4-0.1,0.7-0.3,1.1c-0.5,0.9-1,1.8-1.4,2.7h17.5
			c1.2,0,1.8,0.6,1.8,1.8c0,1.2-0.6,1.8-1.8,1.8h-9.2c1.2,1.1,2.4,2.1,3.6,3c2.2,1.4,4.8,2.7,7.8,3.9c0.7,0.4,1.1,0.8,1.1,1.4
			c0,1.5-0.7,2.2-2,2.2c-0.7,0-1.4-0.2-2.1-0.7c-2.1-0.9-3.8-1.9-5.3-2.9v3.8c0,1.5-0.9,2.2-2.7,2.2H541c-1.8,0-2.7-0.7-2.7-2.2
			v-3.1c-1.4,1-2.9,1.9-4.4,2.8c-0.5,0.2-0.9,0.3-1.2,0.3c-1.3,0-2-0.7-2-2.1c0-0.6,0.4-1.1,1.2-1.6c4.2-2.3,7.3-4.6,9.4-7h-7.7
			c-1.2,0-1.8-0.6-1.8-1.8c0-1.2,0.6-1.8,1.8-1.8H544c0.7-1.1,1.4-2.3,2.1-3.6c-4.9,0.2-8.4,0.3-10.5,0.3c-1.5,0-2.2-0.7-2.2-2.1
			c0-1.1,0.6-1.7,1.8-1.7c4.8,0,9.3-0.1,13.3-0.3C553.6,418.8,558.4,418.5,562.7,418z M536.9,446h25.4c2.7,0,4.1,1.3,4.1,4v14
			c0,3.6-2.1,5.4-6.3,5.4c-1.5,0-3.3-0.2-5.4-0.6c-0.9-0.4-1.3-1-1.3-1.8c0-1.4,0.6-2.1,1.7-2.1c0.3,0,0.7,0.1,1.1,0.2
			c1.5,0.4,2.7,0.6,3.5,0.6c1.8,0,2.7-0.8,2.7-2.3v-12.2c0-1.2-0.5-1.8-1.6-1.8h-22.6c-1,0-1.6,0.6-1.6,1.8v16.2c0,1.3-0.7,2-2,2
			s-2-0.7-2-2V450C532.5,447.4,533.9,446,536.9,446z M542.3,452.4h13.9c1.7,0,2.6,0.7,2.6,2.2v5.8c0,1.5-0.9,2.2-2.6,2.2h-13.9
			c-1.7,0-2.6-0.7-2.6-2.2v-5.8C539.8,453.1,540.6,452.4,542.3,452.4z M555.8,440.3c0.3,0,0.4-0.3,0.4-0.9v-2c0-0.6-0.2-0.9-0.4-0.9
			h-13.4c-0.3,0-0.4,0.3-0.4,0.9v2c0,0.6,0.1,0.9,0.4,0.9H555.8z M542.9,433.8h12.8c-1.4-1.3-2.6-2.5-3.5-3.8h-6.1
			c-0.9,1.2-1.8,2.3-2.7,3.3C543.2,433.5,543,433.6,542.9,433.8z M554.7,460c0.5,0,0.8-0.4,0.8-1.1v-2.7c0-0.7-0.3-1.1-0.8-1.1
			h-10.8c-0.5,0-0.8,0.4-0.8,1.1v2.7c0,0.7,0.3,1.1,0.8,1.1H554.7z"/>
	</g>
	<g>
		<path fill="#6FBFE2" d="M501.1,134.6c1.3,0,1.9,0.6,1.9,1.8v1.5h16.1c1.1,0,1.7,0.5,1.7,1.6s-0.6,1.6-1.7,1.6h-16.1v3.3h10.9
			c2.1,0,3.2,1,3.2,3v3.2h2.4c1,0,1.5,0.5,1.5,1.5s-0.5,1.5-1.5,1.5H517v3.4c0,2-1.1,3-3.2,3h-10.3c0.6,1.7,1.3,3,1.9,3.9
			c0.8,1.3,1.9,2.6,3.5,3.9c2.1-1.9,3.8-3.6,5.1-5.3c0.4-0.6,0.8-0.8,1.2-0.8c1.2,0,1.8,0.6,1.8,1.7c0,0.6-0.3,1.1-0.8,1.5
			c-1.3,1.7-2.9,3.4-4.7,4.9c0.8,0.6,1.7,1.1,2.5,1.6c1.6,0.9,3.2,1.6,4.9,2.2c1.3,0.3,2,0.8,2.4,1.3c0.4,0.3,0.6,0.7,0.6,1.3
			c0,1.3-0.7,2-2,2c-0.6,0-1.8-0.4-3.6-1.3c-2.1-0.9-4-2-5.7-3.2c-1.8-1.3-3.2-2.5-4.2-3.4c-1.3-1.4-2.4-2.8-3.3-4.3
			c-0.1-0.1-0.1-0.2-0.2-0.3v9.7c0,2.8-1.6,4.2-4.7,4.2c-1.2,0-2.8-0.3-4.9-0.8c-0.9-0.3-1.4-0.9-1.4-1.7c0.1-1.1,0.6-1.7,1.5-1.8
			c0.2,0,0.4,0,0.7,0.1c1.8,0.5,3,0.7,3.6,0.7c1.1,0,1.7-0.6,1.7-1.8v-14.3h-12.7c-0.9,0-1.4-0.5-1.4-1.5s0.5-1.5,1.4-1.5h12.7v-3.4
			h-14.6c-1,0-1.5-0.5-1.5-1.5s0.5-1.5,1.5-1.5h14.6v-3.2h-12.9c-0.9,0-1.4-0.5-1.4-1.5s0.5-1.5,1.4-1.5h12.9v-3.3h-15.7
			c-0.8,0-1.1,0.4-1.1,1.2v14.4c0,5.2-0.3,9.5-1,12.8c-0.5,3.2-1.2,5.8-2,7.8c-0.3,0.8-0.9,1.2-1.5,1.2c-1.3-0.1-1.9-0.7-2-1.8
			c0-0.3,0.2-0.9,0.6-1.9c0.3-0.7,0.5-1.5,0.8-2.5c0.4-1.5,0.7-3.1,1-4.6c0.6-3.4,0.8-7.1,0.8-11v-16.5c0-1.6,0.8-2.3,2.4-2.3h17.4
			v-1.5C499.2,135.2,499.8,134.6,501.1,134.6z M496.8,167.2c1,0.1,1.5,0.6,1.6,1.5c0,0.7-0.3,1.3-1,1.8c-1.5,1-3.4,2-5.8,2.9
			c-1.8,0.8-4.1,1.4-6.7,2.1c-1.2-0.1-1.8-0.7-1.9-1.9c0-1.1,0.5-1.8,1.5-1.9c2.3-0.5,4.2-1,5.4-1.5c2.3-0.8,4.3-1.7,5.9-2.8
			C496.3,167.3,496.6,167.2,496.8,167.2z M488,161.2c0.3,0,0.7,0.1,1.2,0.4c0.8,0.4,1.4,0.8,2.1,1.1c0.9,0.5,1.8,1.1,2.6,1.8
			c0.4,0.5,0.6,0.8,0.6,1c0,1.1-0.5,1.7-1.6,1.7c-0.6,0-1.1-0.2-1.5-0.6c-0.9-0.7-1.7-1.2-2.4-1.5c-0.6-0.3-1.2-0.6-1.9-1
			c-0.4-0.4-0.6-0.8-0.6-1.2C486.4,161.8,487,161.2,488,161.2z M502.9,147.4v3.2h10.7v-1.9c0-0.9-0.4-1.3-1.1-1.3H502.9z
			 M502.9,153.6v3.4h9.6c0.8,0,1.1-0.4,1.1-1.3v-2.1H502.9z"/>
		<path fill="#6FBFE2" d="M529.7,137.2h28.5c2,0,3,1,3,2.9l-3,12.2c0,0.4,0.2,0.6,0.7,0.6h4.2c2.4,0,3.6,1.3,3.6,3.9
			c0,6.5-0.2,11.3-0.6,14.3c-0.3,2.4-1,4.3-2.3,5.6c-1.4,1.5-3.4,2.3-6,2.3c-3.2,0-8-0.8-14.4-2.4c-0.7-0.4-1.1-1-1.2-1.8
			c0.1-1.2,0.8-1.9,2.1-1.9c6.6,1.6,11,2.4,13.4,2.4c1.4,0,2.4-0.5,3.2-1.4c0.9-1.1,1.4-2.6,1.5-4.3c0.3-2.8,0.5-6.7,0.5-11.9
			c0-0.9-0.5-1.4-1.4-1.4h-4.9c-1.4,0-2.2-0.8-2.2-2.3l3-12.6c0-0.6-0.4-0.8-1.2-0.8h-16.2c0,0.1,0,0.2,0,0.2c0,2.2-0.2,5.1-0.5,8.7
			c-0.3,4-0.8,7.8-1.5,11.3c-1,4.3-2.3,7.8-3.7,10.5c-1.6,3-3.5,5.4-5.5,7.3c-0.3,0.3-0.6,0.5-0.8,0.5c-1.5,0-2.3-0.7-2.3-2.2
			c0-0.7,0.3-1.2,1-1.5c2.2-2.3,3.9-4.9,5.1-7.6c1.2-2.6,2.2-5.8,3-9.6c0.8-4.3,1.4-10.1,1.6-17.6h-6.7c-1.1,0-1.7-0.6-1.7-1.7
			S528.6,137.2,529.7,137.2z"/>
		<path fill="#6FBFE2" d="M614.7,137.3c1.1,0,1.6,0.5,1.6,1.6s-0.5,1.6-1.6,1.6H607c3.1,2.1,6.2,3.8,9.2,4.9
			c0.8,0.3,1.3,0.9,1.3,1.5c0,1.3-0.7,2-2.1,2c-0.2,0-0.7-0.1-1.4-0.4c0,0.2,0,0.3,0,0.5v25.3c0,3.3-1.8,4.9-5.4,4.9
			c-1.5,0-3.2-0.2-5.3-0.7c-0.8-0.3-1.2-0.9-1.2-1.6c0-1.3,0.5-1.9,1.5-1.9c0.3,0,0.7,0.1,1.1,0.2c1.5,0.4,2.6,0.6,3.4,0.6
			c1.7,0,2.5-0.7,2.5-2v-23.7c0-0.8-0.2-1.1-0.6-1.1h-14v28.3c0,1.1-0.6,1.7-1.7,1.7s-1.7-0.6-1.7-1.7v-28.3h-13.1
			c-0.4,0-0.6,0.4-0.6,1.1v27.6c0,1.1-0.6,1.7-1.7,1.7s-1.7-0.6-1.7-1.7v-28.7c0-0.3,0-0.5,0-0.7c-0.5,0.2-0.9,0.2-1,0.2
			c-1.2,0-1.8-0.7-1.8-2c0-0.6,0.3-1,0.9-1.4c3.9-1.3,7.2-2.9,9.8-4.7h-8.3c-1.1,0-1.6-0.5-1.6-1.6s0.5-1.6,1.6-1.6H614.7z
			 M582.2,163.5c0.3,0,0.6,0.2,0.9,0.6c1,0.8,2,1.6,3,2.5c0.8-1,1.6-1.9,2.3-2.9c0.3-0.6,0.7-0.9,1.2-0.9c1.2,0,1.7,0.5,1.7,1.6
			c0,0.6-0.3,1.2-0.8,1.9c-0.7,0.9-1.4,1.7-2,2.4c0.7,0.7,1.4,1.4,2.1,2.1c0.3,0.4,0.4,0.7,0.4,1c0,0.9-0.5,1.4-1.6,1.4
			c-0.3,0-0.6-0.1-0.8-0.4c-0.7-0.7-1.4-1.4-2.1-2c-1.3,1.3-2.5,2.4-3.7,3.2c-0.3,0.3-0.7,0.4-1.1,0.4c-1.1,0-1.6-0.5-1.6-1.5
			c0-0.3,0.1-0.7,0.4-1.1c1.3-1.1,2.5-2.2,3.6-3.3c-1-0.9-2.1-1.8-3.1-2.7c-0.3-0.4-0.5-0.7-0.5-0.9
			C580.4,164,581,163.5,582.2,163.5z M582.6,151.5c0.3,0,0.6,0.2,0.9,0.6c0.9,0.7,1.8,1.3,2.5,2c0.8-0.9,1.6-1.8,2.3-2.7
			c0.3-0.5,0.6-0.8,1-0.8c1,0,1.5,0.5,1.5,1.5c0,0.5-0.2,1.1-0.7,1.7c-0.7,0.9-1.3,1.6-1.9,2.3c0.8,0.7,1.5,1.4,2.2,2.1
			c0.3,0.4,0.4,0.7,0.4,1c0,0.9-0.5,1.4-1.6,1.4c-0.3,0-0.6-0.1-0.8-0.3c-0.8-0.7-1.5-1.3-2.2-2c-1,1-2,1.9-3,2.7
			c-0.3,0.3-0.7,0.4-1.1,0.4c-1.1,0-1.6-0.5-1.6-1.5c0-0.3,0.1-0.7,0.4-1.1c1.1-0.8,2.1-1.7,3-2.6c-0.9-0.7-1.8-1.4-2.7-2.1
			c-0.3-0.4-0.5-0.7-0.5-0.9C580.7,152,581.4,151.5,582.6,151.5z M580.9,146.1h11.8v-5.5h-6.8c0.3,0.3,0.5,0.8,0.5,1.2
			c0,0.5-0.3,1-0.8,1.3C584.3,144.1,582.7,145.1,580.9,146.1z M596.1,140.5v5.5h13c-1.5-0.8-2.9-1.7-4.2-2.8
			c-0.6-0.7-0.9-1.2-0.9-1.6c0-0.5,0.1-0.9,0.3-1.1H596.1z M600.2,150.9c0.3,0,0.6,0.2,0.9,0.6c1,0.7,2,1.4,2.9,2.2
			c0.7-0.7,1.4-1.5,2-2.2c0.3-0.6,0.7-0.9,1.2-0.9c1.2,0,1.7,0.5,1.7,1.6c0,0.6-0.3,1.2-0.8,1.9c-0.5,0.6-1,1.2-1.5,1.6
			c0.8,0.8,1.6,1.5,2.3,2.2c0.3,0.4,0.4,0.7,0.4,1c0,0.9-0.5,1.4-1.6,1.4c-0.3,0-0.6-0.1-0.8-0.4c-0.8-0.8-1.7-1.5-2.5-2.2
			c-1.4,1.2-2.7,2.2-4,3c-0.3,0.3-0.7,0.4-1.1,0.4c-1.1,0-1.6-0.5-1.6-1.5c0-0.3,0.1-0.7,0.4-1.1c1.4-1,2.6-2,3.8-3
			c-1-0.8-2-1.5-3-2.3c-0.3-0.4-0.5-0.7-0.5-0.9C598.4,151.5,599,150.9,600.2,150.9z M599.8,163.3c0.3,0,0.6,0.2,0.9,0.6
			c1.1,0.7,2.1,1.4,3,2.2c0.9-0.9,1.8-1.8,2.5-2.8c0.3-0.6,0.7-0.8,1.1-0.8c1.1,0,1.6,0.5,1.6,1.5c0,0.6-0.3,1.2-0.8,1.8
			c-0.7,0.9-1.4,1.6-2.1,2.3c1,0.8,1.9,1.7,2.8,2.5c0.3,0.3,0.4,0.7,0.4,0.9c0,0.9-0.5,1.4-1.6,1.4c-0.3,0-0.6-0.1-0.8-0.4
			c-1-0.8-1.9-1.6-2.9-2.4c-1.3,1.3-2.6,2.3-3.8,3.1c-0.3,0.3-0.7,0.4-1.1,0.4c-1.1,0-1.6-0.5-1.6-1.5c0-0.3,0.1-0.7,0.4-1.1
			c1.3-0.9,2.5-1.9,3.6-3c-1-0.8-2.1-1.5-3.1-2.3c-0.3-0.4-0.5-0.7-0.5-0.9C598,163.9,598.6,163.3,599.8,163.3z"/>
	</g>
	<g>
		<path fill="#FFFFFF" d="M111.6,221.5c1.2,0,1.8,0.6,1.8,1.8v4.3H131c1.2,0,1.8,0.6,1.8,1.8s-0.6,1.8-1.8,1.8h-17.6v8.3h20.7
			c1.2,0,1.8,0.6,1.8,1.8s-0.6,1.8-1.8,1.8h-20.7v3.6c0.3,0.1,0.5,0.2,0.8,0.3c2.5,1.3,4.8,2.6,6.9,3.9c3.2,1.8,6.1,3.8,8.9,6.2
			c0.4,0.5,0.7,0.9,0.7,1.1c0,1.3-0.6,1.9-1.8,1.9c-0.7,0-1.2-0.2-1.7-0.7c-3.3-2.6-6.2-4.6-8.6-6c-1.6-1-3.3-2-5.1-3v12.6
			c0,1.2-0.6,1.8-1.8,1.8c-1.2,0-1.8-0.6-1.8-1.8v-19.9h-17c-1.2,0-1.8-0.6-1.8-1.8s0.6-1.8,1.8-1.8h17v-16.1
			C109.8,222.1,110.4,221.5,111.6,221.5z"/>
		<path fill="#FFFFFF" d="M145.8,230.1h14.5c-0.1-1.2-0.1-2.3-0.1-3.5c0-1-0.5-1.5-1.4-1.5h-8.5c-1.1,0-1.6-0.5-1.6-1.6
			s0.5-1.6,1.6-1.6h10.1c2.1,0,3.1,1.1,3.1,3.2c0,1.8,0.1,3.4,0.2,4.9h13.8c2.3,0,3.5,1.1,3.5,3.4v26.6c0,3-1.8,4.5-5.3,4.5
			c-2.1,0-4.5-0.4-7.3-1.3c-0.9-0.3-1.3-0.9-1.3-1.7c0-1.4,0.5-2.1,1.6-2.1c0.4,0,1,0.1,1.6,0.3c2.1,0.7,3.7,1,4.9,1
			c1.5,0,2.3-0.8,2.3-2.3v-23.8c0-0.9-0.3-1.3-0.8-1.3h-12.5c0.3,1.5,0.7,3,1.1,4.3c1.2,3.3,2.9,6.1,5.1,8.5
			c0.9,1.1,2.4,2.4,4.3,3.9c0.6,0.5,0.9,0.9,0.9,1.2c-0.1,1.1-0.6,1.6-1.7,1.7c-0.6,0-1.1-0.2-1.7-0.7c-1.2-0.7-2.5-1.8-3.9-3.4
			c-2.3-2.4-4.2-5.4-5.7-9c-0.3-0.7-0.6-1.5-0.8-2.3c-0.4,1.1-0.9,2.1-1.4,2.9c-0.9,1.8-1.9,3.5-3.1,5c-1.6,2.2-3.7,4.4-6.4,6.8
			c-0.5,0.5-0.9,0.8-1.3,0.8c-0.5,0-0.9-0.2-1.3-0.6c-0.4-0.3-0.6-0.8-0.6-1.3c0-0.4,0.2-0.8,0.6-1.2c2.6-2.2,4.7-4.2,6.2-6.1
			c1.2-1.5,2.2-3.1,3-4.7c0.9-1.7,1.7-3.6,2.4-5.8h-13.3c-0.6,0-0.9,0.4-0.9,1.3v28.4c0,1.2-0.6,1.8-1.8,1.8c-1.2,0-1.8-0.6-1.8-1.8
			v-29.7C142,231.2,143.3,230.1,145.8,230.1z"/>
		<path fill="#FFFFFF" d="M227.4,224.4c1.1,0,1.6,0.5,1.6,1.6s-0.5,1.6-1.6,1.6H222v15.6h6.6c1.1,0,1.6,0.5,1.6,1.6
			s-0.5,1.6-1.6,1.6h-8.2c1.6,1.4,3.1,2.4,4.3,3c1,0.6,2.7,1.2,4.9,1.8c0.8,0.3,1.3,0.8,1.3,1.6c0,1.3-0.8,1.9-2.3,1.9
			c-0.2,0-0.5-0.1-1-0.2c-2.6-0.9-4.6-1.9-6.1-2.9c-1.5-1-2.8-2-3.8-3.1c-0.6-0.8-0.9-1.4-0.9-2h-15.4c-0.5,1.1-1,2-1.5,2.8
			c-0.8,1.1-1.9,2.1-3.2,3c-2.1,1.2-4.1,2.1-6.1,2.8c-0.5,0.1-0.9,0.1-1.2,0.1c-0.4,0-0.8-0.2-1.1-0.5c-0.3-0.3-0.4-0.7-0.4-1.2
			c0-0.8,0.4-1.4,1.3-1.5c1.9-0.6,3.8-1.4,5.6-2.4c1.1-0.7,2-1.4,2.7-2.3c0.2-0.3,0.4-0.5,0.5-0.7h-7.3c-1.1,0-1.6-0.5-1.6-1.6
			s0.5-1.6,1.6-1.6h6.8v-15.6h-5.6c-1.1,0-1.6-0.5-1.6-1.6s0.5-1.6,1.6-1.6h5.6v-1.8c0-1.1,0.6-1.7,1.7-1.7s1.7,0.6,1.7,1.7v1.8h18
			v-1.8c0-1.1,0.6-1.7,1.7-1.7s1.7,0.6,1.7,1.7v1.8H227.4z M218.6,252.9c1.1,0,1.6,0.5,1.6,1.6s-0.5,1.6-1.6,1.6h-7.4v4.5h16
			c1.1,0,1.6,0.5,1.6,1.6s-0.5,1.6-1.6,1.6h-35.4c-1.1,0-1.6-0.5-1.6-1.6s0.5-1.6,1.6-1.6h15.8v-4.5h-8c-1.1,0-1.6-0.5-1.6-1.6
			s0.5-1.6,1.6-1.6h8v-3c0-1.2,0.6-1.8,1.8-1.8c1.2,0,1.8,0.6,1.8,1.8v3H218.6z M200.6,230.8h18v-3.3h-18V230.8z M200.6,237h18v-3.2
			h-18V237z M200.6,243.1h18v-3h-18V243.1z"/>
		<path fill="#FFFFFF" d="M277.5,249.8c1.1,0,1.7,0.6,1.7,1.7s-0.6,1.7-1.7,1.7h-17.3c0.5,0.7,1,1.2,1.5,1.5
			c0.9,0.8,2.3,1.7,4.1,2.6c1.4,0.7,3.1,1.3,5,2c1.7,0.5,3.4,0.9,5.2,1.3c1.3,0.2,2.2,0.4,2.6,0.8c0.3,0.3,0.5,0.7,0.5,1.3
			c0,1.3-0.7,2-2,2c-0.6,0-1.9-0.3-4-0.8c-2.3-0.6-4.4-1.3-6.2-2.2c-2-0.9-3.6-1.6-4.6-2.3c-1.4-0.9-2.6-1.9-3.6-2.9
			c-0.3-0.3-0.6-0.7-0.9-1.1c-1.2,1.8-3.2,3.4-6.1,5c-2.8,1.5-6.7,2.8-11.7,4c-1,0.3-1.7,0.4-2,0.4c-1.3,0-2-0.7-2-2
			c0-0.9,0.4-1.5,1.1-1.8c5.3-1.1,9.1-2.2,11.6-3.4c2.5-1.1,4.3-2.3,5.5-3.6c0.3-0.3,0.4-0.5,0.5-0.8h-17.1c-1.1,0-1.7-0.6-1.7-1.7
			s0.6-1.7,1.7-1.7h18v-2.6c0-1.3,0.6-1.9,1.9-1.9c1.2,0,1.9,0.6,1.9,1.9v2.6H277.5z M247.8,220.5c0.3,0,0.7,0.1,1.2,0.4
			c0.5,0.5,1,0.9,1.5,1.4c0.7,0.6,1.3,1.4,1.8,2.2c0.3,0.4,0.5,0.7,0.5,0.9c0,0.4-0.1,0.7-0.2,0.9h10.1c0.3-0.4,0.6-0.8,0.8-1.1
			c0.8-1.2,1.5-2.5,2.2-3.8c0.4-0.5,0.9-0.8,1.5-0.8c0.4,0,0.8,0.2,1.2,0.5c0.3,0.3,0.5,0.7,0.5,1.2c0,0.4-0.2,0.8-0.5,1.1
			c-0.5,0.9-1,1.8-1.6,2.6c-0.1,0.2-0.2,0.3-0.2,0.3h10c1.1,0,1.6,0.5,1.6,1.6s-0.5,1.6-1.6,1.6h-17.3v4.4h15.5c1,0,1.5,0.5,1.5,1.5
			s-0.5,1.5-1.5,1.5h-15.5v4.4h17.7c1.1,0,1.6,0.5,1.6,1.6s-0.5,1.6-1.6,1.6h-39c-1.1,0-1.6-0.5-1.6-1.6s0.5-1.6,1.6-1.6h17.7v-4.4
			h-15.3c-1,0-1.5-0.5-1.5-1.5s0.5-1.5,1.5-1.5h15.3v-4.4h-17.2c-1.1,0-1.6-0.5-1.6-1.6s0.5-1.6,1.6-1.6h11.3
			c-0.7-0.8-1.2-1.3-1.6-1.7c-0.4-0.4-0.9-0.8-1.4-1.2c-0.4-0.4-0.6-0.8-0.6-1.2C246.2,221.1,246.7,220.5,247.8,220.5z"/>
		<path fill="#FFFFFF" d="M285.9,234.8c0.3,0,0.6,0.2,1,0.6c1.5,1.4,2.9,2.9,4.2,4.7c0.3,0.4,0.4,0.8,0.4,1.1c0,1.1-0.6,1.7-1.9,1.7
			c-0.3,0-0.6-0.1-1-0.4c-1.3-1.7-2.8-3.3-4.3-4.8c-0.3-0.4-0.5-0.8-0.5-1C283.9,235.4,284.6,234.8,285.9,234.8z M290.3,246.2
			c1.1,0,1.7,0.6,1.7,1.9c-0.3,2.6-0.8,5.1-1.4,7.5c-0.7,2.5-1.6,5-2.7,7.3c-0.4,0.8-1,1.1-1.7,1.1c-1.2,0-1.8-0.6-1.8-1.7
			c0-0.2,0.1-0.4,0.2-0.8c1.4-2.9,2.2-5.1,2.6-6.6c0.6-2.2,1.2-4.7,1.6-7.6C289,246.6,289.4,246.2,290.3,246.2z M288.2,222.6
			c0.3,0,0.6,0.2,1,0.6c1.3,1.3,2.6,2.8,3.8,4.5c0.3,0.4,0.4,0.8,0.4,1.1c0,1.1-0.6,1.7-1.9,1.7c-0.3,0-0.6-0.2-1-0.5
			c-1.2-1.6-2.5-3.1-3.9-4.6c-0.3-0.4-0.5-0.8-0.5-1C286.1,223.2,286.8,222.6,288.2,222.6z M323.6,238.3c1.1,0,1.6,0.4,1.6,1.3
			s-0.5,1.3-1.6,1.3h-24.6c-0.6,0-0.9,0.4-0.9,1.2v6.2h26.3c0.9,0,1.4,0.5,1.4,1.4s-0.5,1.4-1.4,1.4h-12.8c0.8,1.8,1.8,3.2,2.8,4.4
			c0.2,0.2,0.4,0.3,0.5,0.5c0.1-0.1,0.1-0.2,0.2-0.2c2-0.8,3.7-1.8,5.1-2.9c0.5-0.3,0.8-0.4,1-0.4c1.1,0,1.6,0.5,1.6,1.6
			c0,0.5-0.3,0.9-0.8,1.3c-1.1,1-2.6,1.9-4.4,2.7c0.7,0.4,1.4,0.8,2.1,1.1c1.8,0.8,3.7,1.5,5.6,1.8c1.2,0.2,1.8,0.8,1.8,1.7
			c0,1.1-0.6,1.7-1.9,1.7c-2.6-0.6-5-1.5-7.1-2.5c-2.7-1.4-4.9-3.1-6.6-5.2c-1.3-1.5-2.2-3.3-2.9-5.5h-4.1v8.4
			c1.6-0.4,2.9-0.9,4.1-1.5c0.3-0.1,0.5-0.1,0.8-0.1c0.9,0.1,1.3,0.5,1.4,1.4c0,0.7-0.3,1.2-0.9,1.5c-1.3,0.7-2.9,1.3-5,2
			c-1.6,0.5-3.5,1-5.7,1.4c-1.1-0.1-1.6-0.6-1.7-1.7c0-1,0.5-1.6,1.4-1.7c0.9-0.1,1.8-0.3,2.5-0.4v-9.2H298c-0.2,2.5-0.5,4.7-1,6.5
			c-0.6,2.4-1.3,4.4-2.1,6c-0.3,0.8-0.8,1.1-1.5,1.1c-1.2-0.1-1.8-0.6-1.9-1.6c0-0.2,0.2-0.7,0.6-1.4c0.3-0.6,0.5-1.2,0.8-1.9
			c0.4-1.2,0.8-2.3,1.1-3.5c0.6-2.6,0.9-5.4,0.9-8.4v-7c0-1.7,0.9-2.5,2.8-2.5H323.6z M298.1,223.8h6.2v-1.6c0-1,0.5-1.5,1.5-1.5
			c1,0,1.5,0.5,1.5,1.5v1.6h5.1v-1.6c0-1,0.5-1.5,1.5-1.5c1,0,1.5,0.5,1.5,1.5v1.6h6.2c1.5,0,2.3,0.7,2.3,2v8.1c0,1.3-0.8,2-2.3,2
			h-23.4c-1.5,0-2.3-0.7-2.3-2v-8.1C295.9,224.5,296.6,223.8,298.1,223.8z M298.9,228.8h5.4v-2.5h-4.7c-0.5,0-0.8,0.3-0.8,1V228.8z
			 M304.3,233.4V231h-5.4v1.3c0,0.7,0.3,1,0.8,1H304.3z M321.6,243.5c0.8,0,1.2,0.4,1.2,1.2s-0.4,1.2-1.2,1.2h-20.4
			c-0.8,0-1.2-0.4-1.2-1.2s0.4-1.2,1.2-1.2H321.6z M307.3,226.2v2.5h5.1v-2.5H307.3z M312.4,233.4V231h-5.1v2.3H312.4z M315.4,226.2
			v2.5h5.4v-1.5c0-0.7-0.3-1-0.8-1H315.4z M320.1,233.4c0.5,0,0.8-0.3,0.8-1V231h-5.4v2.3H320.1z"/>
	</g>
	<g>
		<path fill="#5BF4B2" d="M450.9,280c0,2.9-1.2,4.3-3.5,4.3c-2.4,0-3.7-1.5-3.7-4.3v-44.9L432,280c-0.3,0.9-0.8,1.8-1.6,2.8
			c-0.9,1.1-1.7,1.6-2.5,1.6c-2,0-3.4-1.5-4.2-4.3L412,235.1V280c0,2.9-1.2,4.3-3.7,4.3c-2.3,0-3.5-1.5-3.5-4.3v-67
			c0-2.8,1.2-4.3,3.5-4.3c1.4,0,2.5,1.2,3.3,3.7l16.3,57.5l16.2-57.5c0.7-2.4,1.7-3.7,3.3-3.7c2.3,0,3.5,1.4,3.5,4.3V280z"/>
		<path fill="#5BF4B2" d="M482.1,280c0,2.9-1.2,4.3-3.6,4.3c-2.4,0-3.7-1.5-3.7-4.3v-67c0-2.8,1.2-4.3,3.7-4.3
			c2.4,0,3.6,1.4,3.6,4.3V280z"/>
		<path fill="#5BF4B2" d="M552,213.9c0,2.4-1.5,3.6-4.3,3.6h-15V280c0,2.9-1.2,4.3-3.6,4.3c-2.4,0-3.7-1.5-3.7-4.3v-62.6h-15
			c-2.9,0-4.3-1.2-4.3-3.6c0-2.4,1.4-3.7,4.3-3.7h37.3C550.6,210.2,552,211.4,552,213.9z"/>
	</g>
	<g>
		<path fill="#97D6F2" d="M667.5,415.4c0,3-1.3,5.5-3.8,7.6c-2.4,2.1-5.1,3.1-8.2,3.1c-3,0-5.7-1-8-3c-2.3-2-3.4-4.5-3.4-7.5
			c0-1.5,0.7-2.2,2.2-2.2c0.6,0,1,0.7,1.4,2.1c0.5,2,1.4,3.6,2.8,4.9c1.5,1.4,3.2,2.1,5.3,2.1c1.9,0,3.6-0.7,5.2-2
			c1.6-1.3,2.4-2.9,2.4-4.8c0-2.1-0.8-3.9-2.5-5.4c-1.1-0.9-2.9-1.9-5.5-3c-3.9-1.7-6.3-2.9-7.4-3.7c-2.3-1.7-3.5-4-3.5-6.9
			c0-2.9,1-5.3,2.9-7c2.2-2,4.8-3,7.8-3c3.8,0,6.7,1.3,8.8,4c1.7,2.1,2.5,3.9,2.5,5.3s-0.7,2.1-2.1,2.1c-0.6,0-1.1-0.6-1.6-1.8
			c-1.5-3.9-4.1-5.9-7.6-5.9c-1.9,0-3.5,0.6-4.8,1.8c-1.3,1.2-1.9,2.7-1.9,4.6c0,2.6,2.5,4.9,7.6,7
			C663.7,406.8,667.5,410.7,667.5,415.4z"/>
		<path fill="#97D6F2" d="M690.7,423c0,1.5-0.8,2.3-2.3,2.3h-3.6c-3.2,0-4.8-1.8-4.8-5.3v-17.1h-4c-1.5,0-2.3-0.6-2.3-1.9
			c0-1.3,0.8-1.9,2.3-1.9h4v-4c0-1.5,0.6-2.3,1.9-2.3c1.2,0,1.9,0.8,1.9,2.3v4h4.2c1.5,0,2.3,0.6,2.3,1.9c0,1.2-0.8,1.9-2.3,1.9
			h-4.2v16.7c0,1.3,0.5,2,1.5,2h3.2C690,421.5,690.7,422,690.7,423z"/>
		<path fill="#97D6F2" d="M718.8,423.9c0,1.5-0.6,2.3-1.9,2.3s-1.9-0.7-1.9-2V422c-2.3,2.8-5.1,4.1-8.6,4.1c-2.1,0-4-0.7-5.5-2.2
			c-1.5-1.5-2.3-3.3-2.3-5.4c0-3.2,1.4-5.7,4.2-7.3c2.3-1.4,5.2-2,8.7-2h3.6c-0.2-4.4-2.2-6.7-6-6.7c-1.5,0-2.8,0.4-3.9,1.2
			c-0.6,0.5-1.3,1.2-2.1,2.2c-0.6,0.8-1,1.2-1.2,1.2c-1.5,0-2.3-0.6-2.3-1.8c0-0.8,0.6-1.9,1.9-3.3c2-2.2,4.5-3.3,7.6-3.3
			c6.5,0,9.7,3.6,9.7,10.7V423.9z M715.1,417.1v-4.2h-3.3c-2.2,0-4.2,0.4-5.9,1.1c-2.2,1-3.3,2.5-3.3,4.5c0,1,0.4,1.9,1.2,2.6
			c0.7,0.8,1.6,1.2,2.6,1.2C709.6,422.4,712.5,420.6,715.1,417.1z"/>
		<path fill="#97D6F2" d="M745.3,423.9c0,1.5-0.6,2.3-1.9,2.3s-1.9-0.8-1.9-2.3v-15.6c0-1.7-0.5-3.1-1.6-4.1
			c-1.1-1.1-2.5-1.6-4.2-1.6c-1.4,0-2.9,0.6-4.4,1.9c-1.8,1.5-2.7,2.9-2.7,4.4v15.1c0,1.5-0.6,2.3-1.9,2.3c-1.3,0-1.9-0.8-1.9-2.3
			V401c0-1.5,0.6-2.3,1.9-2.3c0.9,0,1.4,0.4,1.7,1.1c0.1,0.4,0.2,1.1,0.2,2.2c2.1-2.2,4.5-3.3,7.1-3.3c2.7,0,4.9,0.9,6.7,2.7
			c1.9,1.9,2.8,4.1,2.8,6.8V423.9z"/>
		<path fill="#97D6F2" d="M770.6,400.8c0,1.3-0.8,1.9-2.3,1.9h-5v21.2c0,1.5-0.6,2.3-1.9,2.3c-1.3,0-1.9-0.8-1.9-2.3v-21.2h-4.6
			c-1.5,0-2.3-0.6-2.3-1.9c0-1.2,0.8-1.9,2.3-1.9h4.6v-5.1c0-2.2,0.6-3.8,1.8-4.9c1-1,2.4-1.5,4-1.5h3c1.5,0,2.3,0.6,2.3,1.9
			c0,1-0.5,1.6-1.6,1.8c-0.2,0-1.1,0.1-2.7,0.1c-1.1,0-1.9,0.2-2.3,0.7c-0.4,0.5-0.6,1.3-0.6,2.4v4.6h5
			C769.8,398.9,770.6,399.5,770.6,400.8z"/>
		<path fill="#97D6F2" d="M799,412.5c0,3.8-0.8,6.9-2.4,9.3c-1.9,2.9-4.7,4.3-8.3,4.3s-6.5-1.4-8.5-4.3c-1.8-2.5-2.6-5.6-2.6-9.3
			s0.9-6.8,2.6-9.4c2-2.9,4.9-4.4,8.5-4.4s6.4,1.5,8.3,4.4C798.2,405.6,799,408.8,799,412.5z M794.9,412.5c0-2.5-0.5-4.8-1.5-6.6
			c-1.2-2.3-3-3.4-5.3-3.4c-2.4,0-4.2,1.1-5.4,3.4c-1,1.9-1.5,4.1-1.5,6.6c0,2.5,0.5,4.7,1.5,6.5c1.2,2.2,3,3.4,5.3,3.4
			c2.4,0,4.2-1.1,5.4-3.4C794.4,417.2,794.9,415.1,794.9,412.5z"/>
		<path fill="#97D6F2" d="M821.3,401.7c0,0.7-0.7,1.2-2,1.7c-3.1,1-5.7,2.9-7.8,5.7v14.8c0,1.5-0.6,2.3-1.9,2.3
			c-1.2,0-1.9-0.8-1.9-2.3V401c0-1.5,0.6-2.3,1.9-2.3c1.3,0,1.9,0.8,1.9,2.3v2.7c1-1,2.2-1.9,3.5-2.7c1.6-0.9,3-1.4,4.2-1.4
			C820.6,399.6,821.3,400.3,821.3,401.7z"/>
		<path fill="#97D6F2" d="M851.9,423.9c0,1.5-0.6,2.3-1.9,2.3c-1.3,0-1.9-0.9-1.9-2.6v-1.7c-2.5,2.9-4.9,4.3-7.4,4.3
			c-3.5,0-6.2-1.3-8.1-3.9c-1.8-2.5-2.7-5.8-2.7-10c0-3.6,0.9-6.7,2.6-9.2c2-2.9,4.8-4.3,8.2-4.3c2.9,0,5.4,1.4,7.4,4.3v-14.2
			c0-1.5,0.6-2.2,1.9-2.2c1.2,0,1.9,0.7,1.9,2.2V423.9z M848.1,412.3c0-2.4-0.6-4.6-1.9-6.5c-1.4-2.2-3.3-3.3-5.5-3.3
			c-2.3,0-4.1,1.1-5.3,3.4c-1,1.9-1.4,4-1.4,6.5c0,2.7,0.5,4.9,1.5,6.7c1.2,2.2,2.9,3.4,5.2,3.4c2.2,0,4-1.2,5.5-3.5
			C847.5,416.8,848.1,414.6,848.1,412.3z"/>
	</g>
	<g>
		<path fill="#BDCCD4" d="M160.7,84.9c0,1.1-0.7,2.8-2,5c-1.3,2.3-3,4-5.1,5.2c-2,1.1-3.9,1.7-5.7,1.7c-3.6,0-6.9-1.9-9.7-5.7
			c-2.7-3.7-4-9-4-16c0-7.8,1.3-13.6,4-17.4c2.7-3.8,5.9-5.7,9.7-5.7c3.4,0,6.4,1.3,8.8,3.8c2.4,2.5,3.6,5.1,3.6,7.8
			c0,1.5-0.8,2.3-2.5,2.3c-0.8,0-1.4-0.8-1.8-2.3c-1.3-4.9-4-7.3-8.1-7.3c-2.4,0-4.5,1.4-6.3,4.3c-1.9,3.1-2.9,8-2.9,14.6
			c0,6,1,10.4,2.9,13.2c1.9,2.9,4,4.3,6.3,4.3c2.3,0,4.2-0.8,5.7-2.4c1.4-1.4,2.4-3.3,3.1-5.6c0.3-1.3,0.8-1.9,1.6-1.9
			C159.9,82.6,160.7,83.3,160.7,84.9z"/>
		<path fill="#BDCCD4" d="M203.1,94.2c0,1.7-0.7,2.6-2.1,2.6c-1.4,0-2.2-0.9-2.2-2.6V67.6l-7,26.6c-0.2,0.5-0.5,1.1-0.9,1.6
			c-0.5,0.6-1,0.9-1.5,0.9c-1.2,0-2-0.9-2.5-2.6l-7-26.6v26.6c0,1.7-0.7,2.6-2.2,2.6c-1.4,0-2.1-0.9-2.1-2.6V54.5
			c0-1.7,0.7-2.5,2.1-2.5c0.9,0,1.5,0.7,1.9,2.2l9.7,34.1l9.6-34.1c0.4-1.4,1-2.2,1.9-2.2c1.4,0,2.1,0.8,2.1,2.5V94.2z"/>
		<path fill="#BDCCD4" d="M244.2,83.4c0,3.9-1.2,7.1-3.5,9.5c-2.4,2.6-5.5,3.9-9.3,3.9c-8.5,0-12.8-4.5-12.8-13.4V54.5
			c0-1.7,0.7-2.5,2.2-2.5c1.4,0,2.1,0.8,2.1,2.5v28.9c0,6.1,2.8,9.1,8.5,9.1c2.6,0,4.6-0.9,6.2-2.6c1.5-1.7,2.3-3.9,2.3-6.5V54.5
			c0-1.7,0.7-2.5,2.1-2.5c1.4,0,2.2,0.8,2.2,2.5V83.4z"/>
	</g>
	<g>
		<path fill="#D9DBDD" d="M39.2,406.3c0,3.1-0.9,5.7-2.8,7.6c-1.9,2.1-4.4,3.1-7.4,3.1c-6.8,0-10.2-3.6-10.2-10.7v-23.2
			c0-1.3,0.6-2,1.7-2c1.1,0,1.7,0.7,1.7,2v23.2c0,4.8,2.3,7.3,6.8,7.3c2.1,0,3.7-0.7,4.9-2.1s1.8-3.1,1.8-5.2v-23.2
			c0-1.3,0.6-2,1.7-2c1.2,0,1.7,0.7,1.7,2V406.3z"/>
		<path fill="#D9DBDD" d="M63.6,407.4c0,0.9-0.5,2.2-1.6,4c-1.1,1.8-2.4,3.2-4.1,4.1c-1.6,0.9-3.1,1.4-4.6,1.4
			c-2.9,0-5.5-1.5-7.7-4.6c-2.2-2.9-3.2-7.2-3.2-12.8c0-6.3,1.1-10.9,3.2-13.9c2.2-3,4.8-4.5,7.8-4.5c2.8,0,5.1,1,7,3
			c1.9,2,2.9,4.1,2.9,6.2c0,1.2-0.7,1.8-2,1.8c-0.6,0-1.1-0.6-1.5-1.9c-1-3.9-3.2-5.9-6.5-5.9c-1.9,0-3.6,1.1-5,3.4
			c-1.5,2.5-2.3,6.4-2.3,11.7c0,4.8,0.8,8.3,2.3,10.5c1.5,2.3,3.2,3.4,5,3.4s3.3-0.6,4.5-1.9c1.1-1.1,2-2.6,2.5-4.5
			c0.3-1,0.7-1.5,1.3-1.5C62.9,405.6,63.6,406.2,63.6,407.4z"/>
		<path fill="#D9DBDD" d="M111.5,406.7c0,2.8-1.1,5.1-3.2,7c-2.1,1.7-4.5,2.6-7.4,2.6h-8.5c-1.3,0-2-0.7-2-2.1v-30.3
			c0-1.4,0.7-2.1,2.1-2.1h7.8c2.9,0,5.2,0.7,7,2c2.3,1.7,3.4,3.9,3.4,6.6c0,1.9-0.6,3.6-1.9,5.1c-1,1.2-2.4,2.2-4.3,3
			c2.1,0.6,3.7,1.6,5,3C110.8,402.8,111.5,404.6,111.5,406.7z M106.9,390.5c0-1.7-0.7-3-2-4c-1.2-0.8-2.7-1.3-4.5-1.3h-5.3
			c-0.9,0-1.4,0.4-1.4,1.3v10.3c0.5,0,1.3,0,2.3,0c1,0,1.7,0,2.3,0c2.5,0,4.5-0.6,6-1.7C106,393.6,106.9,392.1,106.9,390.5z
			 M107.8,406.5c0-2.2-1.3-3.9-3.9-5c-1.9-0.8-4.2-1.2-6.8-1.2h-3.4v11.2c0,0.9,0.5,1.4,1.4,1.4h5.3c2,0,3.8-0.5,5.2-1.6
			C107.1,410.1,107.8,408.5,107.8,406.5z"/>
		<path fill="#D9DBDD" d="M134.7,409c0,1.2-0.7,2.7-2.2,4.4c-2,2.3-4.4,3.5-7.2,3.5c-3.2,0-5.8-1.3-7.6-4c-1.6-2.3-2.4-5.2-2.4-8.6
			c0-3.3,0.9-6.2,2.6-8.5c1.9-2.6,4.5-3.8,7.7-3.8c2.9,0,5.2,1.1,6.8,3.4c1.4,2,2.2,4.5,2.2,7.5c0,1.4-0.7,2.1-2.1,2.1h-13.5
			c0,2.1,0.5,3.9,1.5,5.5c1.2,2,2.8,3,4.7,3c2.7,0,4.8-1.5,6.1-4.6c0.4-1,1-1.5,1.5-1.5C134.1,407.4,134.7,407.9,134.7,409z
			 M130.9,400.8c0-1.4-0.6-2.6-1.7-3.7c-1.1-1.1-2.3-1.6-3.7-1.6c-1.6,0-3,0.6-4.2,1.9c-1.1,1.2-1.8,2.6-2.1,4.2h10.5
			C130.5,401.6,130.9,401.3,130.9,400.8z"/>
		<path fill="#D9DBDD" d="M155.1,394.8c0,0.6-0.6,1.1-1.8,1.5c-2.8,0.9-5.2,2.6-7.1,5.2v13.5c0,1.4-0.6,2.1-1.7,2.1
			c-1.1,0-1.7-0.7-1.7-2.1v-20.8c0-1.4,0.6-2.1,1.7-2.1c1.2,0,1.7,0.7,1.7,2.1v2.5c0.9-0.9,2-1.7,3.2-2.5c1.5-0.8,2.7-1.3,3.8-1.3
			C154.5,392.9,155.1,393.5,155.1,394.8z"/>
		<path fill="#D9DBDD" d="M182.1,415.5c0,0.4-0.2,0.7-0.6,1c-0.3,0.3-0.7,0.5-1.1,0.5c-0.5,0-1-0.3-1.6-1l-11.6-12.5v11.4
			c0,1.4-0.6,2.1-1.7,2.1c-1.2,0-1.7-0.7-1.7-2.1v-31.8c0-1.3,0.6-2,1.7-2c1.1,0,1.7,0.7,1.7,2v17.1l8.6-7.3
			c0.7-0.6,1.2-0.8,1.6-0.8c1.1,0,1.6,0.5,1.6,1.5c0,0.7-0.4,1.3-1.1,1.9l-7.3,5.7c-0.4,0.3-0.7,0.6-0.7,0.7c0,0.2,0.2,0.6,0.7,1.1
			l10.3,10.7C181.8,414.4,182.1,415,182.1,415.5z"/>
		<path fill="#D9DBDD" d="M206.7,409c0,1.2-0.7,2.7-2.2,4.4c-2,2.3-4.4,3.5-7.2,3.5c-3.2,0-5.8-1.3-7.6-4c-1.6-2.3-2.4-5.2-2.4-8.6
			c0-3.3,0.9-6.2,2.6-8.5c1.9-2.6,4.5-3.8,7.7-3.8c2.9,0,5.2,1.1,6.8,3.4c1.4,2,2.2,4.5,2.2,7.5c0,1.4-0.7,2.1-2.1,2.1h-13.5
			c0,2.1,0.5,3.9,1.5,5.5c1.2,2,2.8,3,4.7,3c2.7,0,4.8-1.5,6.1-4.6c0.4-1,1-1.5,1.5-1.5C206.1,407.4,206.7,407.9,206.7,409z
			 M202.9,400.8c0-1.4-0.6-2.6-1.7-3.7c-1.1-1.1-2.3-1.6-3.7-1.6c-1.6,0-3,0.6-4.2,1.9c-1.1,1.2-1.8,2.6-2.1,4.2h10.5
			C202.5,401.6,202.9,401.3,202.9,400.8z"/>
		<path fill="#D9DBDD" d="M222.7,414.9c0,1.4-0.6,2.1-1.7,2.1c-1.2,0-1.7-0.7-1.7-2.1v-31.8c0-1.3,0.6-2,1.7-2c1.1,0,1.7,0.7,1.7,2
			V414.9z"/>
		<path fill="#D9DBDD" d="M254.7,409c0,1.2-0.7,2.7-2.2,4.4c-2,2.3-4.4,3.5-7.2,3.5c-3.2,0-5.8-1.3-7.6-4c-1.6-2.3-2.4-5.2-2.4-8.6
			c0-3.3,0.9-6.2,2.6-8.5c1.9-2.6,4.5-3.8,7.7-3.8c2.9,0,5.2,1.1,6.8,3.4c1.4,2,2.2,4.5,2.2,7.5c0,1.4-0.7,2.1-2.1,2.1h-13.5
			c0,2.1,0.5,3.9,1.5,5.5c1.2,2,2.8,3,4.7,3c2.7,0,4.8-1.5,6.1-4.6c0.4-1,1-1.5,1.5-1.5C254.1,407.4,254.7,407.9,254.7,409z
			 M250.9,400.8c0-1.4-0.6-2.6-1.7-3.7c-1.1-1.1-2.3-1.6-3.7-1.6c-1.6,0-3,0.6-4.2,1.9c-1.1,1.2-1.8,2.6-2.1,4.2h10.5
			C250.5,401.6,250.9,401.3,250.9,400.8z"/>
		<path fill="#D9DBDD" d="M278.5,394.2c0,0.4-0.2,1.2-0.7,2.2l-9.9,24.9c-0.2,0.4-0.4,0.8-0.8,1.2c-0.5,0.5-0.9,0.8-1.3,0.8
			c-1.3,0-2-0.7-2-2c0-0.1,0.3-0.8,0.8-2l2.4-6.2l-6.8-17c-0.5-1.1-0.7-1.7-0.7-1.9c0-1.4,0.7-2.2,2.2-2.2c0.9,0,1.6,0.7,2.2,2.2
			l5.4,13l5-13c0.5-1.4,1.2-2.2,2.1-2.2C277.8,392.1,278.5,392.8,278.5,394.2z"/>
	</g>
	<g>
		<path fill="#FFFFFF" d="M423.9,53.1c0,4-1.2,7.3-3.6,9.8c-2.5,2.7-5.6,4-9.6,4c-8.8,0-13.2-4.6-13.2-13.8V23.2
			c0-1.7,0.7-2.6,2.2-2.6c1.5,0,2.2,0.9,2.2,2.6v29.9c0,6.3,2.9,9.4,8.8,9.4c2.7,0,4.8-0.9,6.4-2.7c1.6-1.8,2.4-4,2.4-6.7V23.2
			c0-1.7,0.7-2.6,2.2-2.6c1.5,0,2.2,0.9,2.2,2.6V53.1z"/>
		<path fill="#FFFFFF" d="M455.4,54.6c0,1.1-0.7,2.9-2.1,5.2c-1.4,2.4-3.1,4.2-5.3,5.3c-2.1,1.2-4,1.8-5.9,1.8c-3.8,0-7.1-2-10-5.9
			c-2.8-3.8-4.2-9.3-4.2-16.5c0-8.1,1.4-14.1,4.1-18c2.8-3.9,6.1-5.9,10-5.9c3.5,0,6.6,1.3,9.1,3.9c2.5,2.6,3.7,5.3,3.7,8
			c0,1.6-0.8,2.4-2.5,2.4c-0.8,0-1.4-0.8-1.9-2.4c-1.3-5-4.1-7.6-8.3-7.6c-2.5,0-4.7,1.5-6.5,4.4c-2,3.2-3,8.2-3,15.1
			c0,6.2,1,10.7,3,13.6c2,2.9,4.1,4.4,6.5,4.4c2.3,0,4.3-0.8,5.9-2.5c1.5-1.5,2.5-3.4,3.2-5.7c0.3-1.3,0.9-2,1.6-2
			C454.5,52.2,455.4,53,455.4,54.6z"/>
		<path fill="#FFFFFF" d="M485.7,63.7c0,1.5-0.9,2.2-2.7,2.2h-20.7c-1.8,0-2.7-0.9-2.7-2.7v-40c0-1.7,0.7-2.6,2.2-2.6
			c1.5,0,2.2,0.9,2.2,2.6v36.5c0,1.2,0.6,1.8,1.7,1.8H483C484.8,61.5,485.7,62.2,485.7,63.7z"/>
		<path fill="#FFFFFF" d="M517.1,65.1c0,1.2-0.7,1.9-2.2,1.9c-1.1,0-1.8-0.6-2.1-1.9l-3-11.1h-12.3l-3,11.1
			c-0.1,0.4-0.4,0.8-0.9,1.2c-0.5,0.4-1,0.7-1.4,0.7c-1.3,0-2-0.6-2-1.9c0-0.2,0.2-1,0.5-2.2l10.8-40.3c0.3-1.2,1.1-1.9,2.2-1.9
			c1.1,0,1.8,0.6,2.2,1.9l10.6,40C516.9,64.2,517.1,65,517.1,65.1z M508.7,49.5l-5-19.4l-5.1,19.4H508.7z"/>
	</g>
	<g>
		<path fill="#95E5B5" d="M752.2,193.8c0,0.9-0.5,2.2-1.6,4c-1.1,1.8-2.4,3.2-4.1,4.1c-1.6,0.9-3.1,1.4-4.6,1.4
			c-2.9,0-5.5-1.5-7.7-4.6c-2.2-2.9-3.2-7.2-3.2-12.8c0-6.3,1.1-10.9,3.2-13.9c2.2-3,4.8-4.5,7.8-4.5c2.8,0,5.1,1,7,3
			c1.9,2,2.9,4.1,2.9,6.2c0,1.2-0.7,1.8-2,1.8c-0.6,0-1.1-0.6-1.5-1.9c-1-3.9-3.2-5.9-6.5-5.9c-1.9,0-3.6,1.1-5,3.4
			c-1.5,2.5-2.3,6.4-2.3,11.7c0,4.8,0.8,8.3,2.3,10.5c1.5,2.3,3.2,3.4,5,3.4s3.3-0.6,4.5-1.9c1.1-1.1,2-2.6,2.5-4.5
			c0.3-1,0.7-1.5,1.3-1.5C751.6,192,752.2,192.6,752.2,193.8z"/>
		<path fill="#95E5B5" d="M774.8,201.3c0,1.4-0.6,2.1-1.7,2.1s-1.7-0.6-1.7-1.8v-1.9c-2.1,2.5-4.7,3.8-7.8,3.8c-1.9,0-3.6-0.7-5-2
			s-2.1-3-2.1-4.9c0-2.9,1.3-5.2,3.8-6.7c2.1-1.2,4.8-1.9,7.9-1.8h3.3c-0.2-4-2-6-5.4-6c-1.3,0-2.5,0.4-3.6,1.1
			c-0.6,0.4-1.2,1.1-1.9,2c-0.5,0.8-0.9,1.1-1.1,1.1c-1.4,0-2.1-0.5-2.1-1.6c0-0.8,0.6-1.7,1.7-3c1.8-2,4.1-3,6.9-3
			c5.9,0,8.8,3.2,8.8,9.7V201.3z M771.4,195.1v-3.8h-3c-2,0-3.8,0.3-5.3,1c-2,0.9-3,2.3-3,4.1c0,0.9,0.4,1.7,1.1,2.4
			c0.7,0.8,1.5,1.1,2.4,1.1C766.4,199.9,769,198.3,771.4,195.1z"/>
		<path fill="#95E5B5" d="M800.3,201.3c0,1.4-0.5,2.1-1.6,2.1c-1.1,0-1.7-0.7-1.7-2.1v-17.1c0-1.4-0.6-2.1-1.9-2.1
			c-1,0-1.8,0.4-2.6,1.3c-0.8,0.8-1.1,1.8-1.1,2.7v15.1c0,1.4-0.6,2.1-1.7,2.1c-1.2,0-1.7-0.7-1.7-2.1v-16.5c0-1.9-0.5-2.9-1.6-2.9
			c-0.8,0-1.6,0.5-2.5,1.5c-1,1.1-1.5,2.2-1.5,3.5v14.4c0,1.4-0.5,2.1-1.6,2.1c-1.2,0-1.7-0.7-1.7-2.1v-20.8c0-1.4,0.6-2.1,1.7-2.1
			c1.1,0,1.6,0.8,1.6,2.4c1.3-1.6,2.7-2.4,4.2-2.4c1.8,0,3.1,0.9,4,2.7c1.6-1.8,3.3-2.7,5-2.7c1.3,0,2.5,0.5,3.4,1.6
			c0.9,1.1,1.4,2.4,1.4,3.7V201.3z"/>
		<path fill="#95E5B5" d="M823.5,190.8c0,3.1-0.8,5.8-2.3,8.2c-1.8,2.9-4.2,4.4-7.2,4.4c-2.6,0-4.8-1.3-6.7-4c0,1.5,0,2.4-0.1,2.5
			c-0.2,1-0.7,1.5-1.6,1.5c-1.1,0-1.7-0.7-1.7-2.1v-31.8c0-1.3,0.6-2,1.7-2c1.2,0,1.7,0.7,1.7,2v13c1.9-2.7,4.1-4,6.7-4
			c3,0,5.4,1.4,7.2,4.1C822.7,184.9,823.5,187.6,823.5,190.8z M819.7,190.8c0-2.1-0.5-4-1.4-5.8c-1.1-2.1-2.6-3.1-4.5-3.1
			c-2.1,0-3.8,1-5.1,3c-1.1,1.7-1.6,3.7-1.6,6c0,2.3,0.5,4.3,1.5,6c1.2,2.1,2.9,3.1,5.1,3.1c2,0,3.5-1.1,4.5-3.4
			C819.3,194.8,819.7,192.8,819.7,190.8z"/>
		<path fill="#95E5B5" d="M843.8,181.1c0,0.6-0.6,1.1-1.8,1.5c-2.8,0.9-5.2,2.6-7.1,5.2v13.5c0,1.4-0.6,2.1-1.7,2.1
			c-1.1,0-1.7-0.7-1.7-2.1v-20.8c0-1.4,0.6-2.1,1.7-2.1c1.2,0,1.7,0.7,1.7,2.1v2.5c0.9-0.9,2-1.7,3.2-2.5c1.5-0.8,2.7-1.3,3.8-1.3
			C843.2,179.2,843.8,179.9,843.8,181.1z"/>
		<path fill="#95E5B5" d="M864.1,168.7c0,0.7-0.3,1.3-0.8,1.7c-0.5,0.5-1,0.8-1.7,0.8c-0.7,0-1.3-0.3-1.8-0.8
			c-0.5-0.4-0.7-1-0.7-1.7c0-0.7,0.2-1.3,0.7-1.8c0.4-0.5,1-0.7,1.8-0.7c0.7,0,1.2,0.3,1.7,0.8C863.8,167.5,864.1,168.1,864.1,168.7
			z M863.3,201.3c0,1.4-0.6,2.1-1.7,2.1c-1.2,0-1.7-0.7-1.7-2.1v-20.8c0-1.4,0.6-2.1,1.7-2.1c1.1,0,1.7,0.7,1.7,2.1V201.3z"/>
		<path fill="#95E5B5" d="M895.6,201.3c0,1.4-0.6,2.1-1.7,2.1c-1.2,0-1.7-0.8-1.7-2.4v-1.5c-2.3,2.6-4.5,3.9-6.7,3.9
			c-3.2,0-5.6-1.2-7.4-3.5c-1.6-2.3-2.4-5.3-2.4-9c0-3.3,0.8-6,2.3-8.4c1.8-2.6,4.3-3.9,7.5-3.9c2.6,0,4.9,1.3,6.7,3.9v-12.9
			c0-1.3,0.6-2,1.7-2c1.1,0,1.7,0.7,1.7,2V201.3z M892.2,190.8c0-2.2-0.6-4.2-1.7-5.9c-1.3-2-3-3-5-3c-2.1,0-3.7,1-4.8,3
			c-0.9,1.7-1.3,3.6-1.3,5.9c0,2.4,0.5,4.4,1.4,6.1c1.1,2,2.7,3,4.7,3c2,0,3.6-1.1,5-3.2C891.6,194.9,892.2,192.9,892.2,190.8z"/>
		<path fill="#95E5B5" d="M920.5,180.1c0,0.8-0.3,1.2-1,1.5c-0.8,0.2-1.5,0.6-2.3,1.3c0.7,1.3,1,2.5,1,3.7c0,2.2-1,4-3,5.5
			c-1.8,1.3-3.8,2-6,2c-0.9,0-1.9-0.2-3-0.5c-0.5,0.6-0.7,1-0.7,1.4c0,0.6,1.8,1.3,5.3,2.2c3.9,0.9,6.3,1.8,7.1,2.7
			c1.1,1.2,1.7,2.5,1.7,3.9c0,1.3-0.8,2.6-2.5,3.8c-1.8,1.3-4.4,2-7.7,2c-3.7,0-6.5-0.7-8.4-2.2c-1.6-1.2-2.4-2.5-2.4-3.9
			c0-2.5,2.2-4.3,6.5-5.4c-2.1-0.7-3.1-1.7-3.1-3.1c0-0.9,0.4-1.9,1.3-2.8c-2.1-1.6-3.1-3.5-3.1-5.6c0-2.5,0.9-4.5,2.8-6
			c1.7-1.4,3.8-2.1,6.4-2.1c2.3,0,4.2,0.6,5.8,1.9c1.4-1.2,2.7-1.9,3.8-1.9C920,178.4,920.5,179,920.5,180.1z M916.1,203.5
			c0-1.5-0.7-2.5-2-3.1c0,0-1.3-0.4-3.9-1.1c-2.2,0.4-3.8,0.7-4.7,1c-2.1,0.8-3.2,1.8-3.2,3.1c0,1,1,1.8,2.9,2.3
			c1.3,0.3,2.7,0.5,4.3,0.5c1.4,0,2.7-0.2,4-0.5C915.2,205.2,916.1,204.5,916.1,203.5z M914.6,186.4c0-1.4-0.5-2.5-1.6-3.4
			c-1-0.8-2.3-1.2-3.7-1.2c-1.5,0-2.8,0.4-3.8,1.1c-1.1,0.8-1.7,2-1.7,3.5c0,1.3,0.7,2.3,2,3.1c1.1,0.7,2.4,1,3.8,1
			c1.2,0,2.3-0.4,3.4-1.2C914,188.5,914.6,187.6,914.6,186.4z"/>
		<path fill="#95E5B5" d="M943.4,195.4c0,1.2-0.7,2.7-2.2,4.4c-2,2.3-4.4,3.5-7.2,3.5c-3.2,0-5.8-1.3-7.6-4
			c-1.6-2.3-2.4-5.2-2.4-8.6c0-3.3,0.9-6.2,2.6-8.5c1.9-2.6,4.5-3.8,7.7-3.8c2.9,0,5.2,1.1,6.8,3.4c1.4,2,2.2,4.5,2.2,7.5
			c0,1.4-0.7,2.1-2.1,2.1h-13.5c0,2.1,0.5,3.9,1.5,5.5c1.2,2,2.8,3,4.7,3c2.7,0,4.8-1.5,6.1-4.6c0.4-1,1-1.5,1.5-1.5
			C942.7,193.8,943.4,194.3,943.4,195.4z M939.5,187.1c0-1.4-0.6-2.6-1.7-3.7c-1.1-1.1-2.3-1.6-3.7-1.6c-1.6,0-3,0.6-4.2,1.9
			c-1.1,1.2-1.8,2.6-2.1,4.2h10.5C939.1,188,939.5,187.7,939.5,187.1z"/>
	</g>
</g>
</svg>
