<?xml version="1.0" encoding="utf-8"?>
<!-- Generator: Adobe Illustrator 18.0.0, SVG Export Plug-In . SVG Version: 6.00 Build 0)  -->
<!DOCTYPE svg PUBLIC "-//W3C//DTD SVG 1.1//EN" "http://www.w3.org/Graphics/SVG/1.1/DTD/svg11.dtd">
<svg version="1.1" id="Layer_1" xmlns="http://www.w3.org/2000/svg" xmlns:xlink="http://www.w3.org/1999/xlink" x="0px" y="0px"
	 viewBox="0 0 1920 800" enable-background="new 0 0 1920 800" xml:space="preserve">
<rect x="-5580.7" y="-2444.7" display="none" fill="#160C08" width="13289.1" height="5537.1"/>
<g>
	<path fill="#FFFFFF" d="M221.5,613.2C99.7,613.2,0,513.5,0,391.7l0,0c0-121.8,99.7-221.5,221.5-221.5h1477.7
		c121.8,0,221.5,99.7,221.5,221.5l0,0c0,121.8-99.7,221.5-221.5,221.5"/>
</g>
<g>
	<path fill="#2D3039" d="M202.8,298.9h168.9c11.1,0,16.6,5,16.6,15.1v46.9c0,10.1-5.5,15.1-16.6,15.1h-16.6V399h39.1
		c5.2,0,7.8,2.6,7.8,7.8c0,5.2-2.6,7.8-7.8,7.8h-39.1V440h31.3c5.2,0,7.8,2.6,7.8,7.8c0,5.2-2.6,7.8-7.8,7.8h-89.8v21.5h84
		c5.2,0,7.8,2.6,7.8,7.8s-2.6,7.8-7.8,7.8h-84v20.5c0,5.9-2.9,8.8-8.8,8.8s-8.8-2.9-8.8-8.8v-20.5h-84c-5.2,0-7.8-2.6-7.8-7.8
		s2.6-7.8,7.8-7.8h84v-21.5h-89.8c-5.2,0-7.8-2.6-7.8-7.8c0-5.2,2.6-7.8,7.8-7.8h34.2v-25.4h-42c-5.2,0-7.8-2.6-7.8-7.8
		c0-5.2,2.6-7.8,7.8-7.8h42V376h-20.5c-11.1,0-16.6-5-16.6-15.1V314C186.2,303.9,191.7,298.9,202.8,298.9z M203.7,330.6h75.2v-17.1
		h-70.3c-3.3,0-4.9,2.1-4.9,6.3V330.6z M278.9,361.4v-17.1h-75.2V355c0,4.2,1.6,6.3,4.9,6.3H278.9z M240.6,376V399h38.3V376H240.6z
		 M240.6,414.6V440h38.3v-25.4H240.6z M296.5,313.5v17.1h74.2v-10.7c0-4.2-1.7-6.3-5.1-6.3H296.5z M365.6,361.4
		c3.4,0,5.1-2.1,5.1-6.3v-10.7h-74.2v17.1H365.6z M337.5,399V376h-41V399H337.5z M337.5,440v-25.4h-41V440H337.5z"/>
	<path fill="#2D3039" d="M662.3,291.5c5.9,0,8.8,2.9,8.8,8.8v32.2h30.3v-32.2c0-5.9,2.9-8.8,8.8-8.8s8.8,2.9,8.8,8.8v32.2h21.5
		c0.2-1.8,0.7-3,1.7-3.7c5.9-7.2,11.8-16.4,17.8-27.6c1.1-3.4,3.4-5.1,6.8-5.1c2.6,0,5,0.7,7.1,2.2c2,1.6,2.9,3.4,2.9,5.4
		c0,1.5-0.3,3-1,4.6c-4.9,9.1-10.3,17.2-16.1,24.2h32.5c5.2,0,7.8,2.6,7.8,7.8c0,5.2-2.6,7.8-7.8,7.8h-51L729,374.6h53.5
		c5.2,0,7.8,2.6,7.8,7.8c0,5.4-2.6,8.1-7.8,8.1h-87.9v16.4h81.1c5.2,0,7.8,2.6,7.8,7.8c0,5.2-2.6,7.8-7.8,7.8h-81.1v16.1h96.7
		c5.5,0,8.3,2.8,8.3,8.3c0,5.5-2.8,8.3-8.3,8.3h-85.9c13.5,8,25.8,14.6,36.9,19.8c17.4,7.5,35.4,13.3,54,17.6c5.2,1,7.8,4,7.8,9
		c0,6.3-3.3,9.5-9.8,9.5c-3.9,0-9.3-0.8-16.1-2.4c-10.7-2.8-21.8-6.6-33.2-11.5c-13.5-5.7-30.3-15.2-50.3-28.6v44.7
		c0,5.9-2.9,8.8-8.8,8.8s-8.8-2.9-8.8-8.8v-43.7c-11.1,8.5-21,15.1-29.8,19.8c-10.9,6.2-24.1,11.6-39.6,16.4
		c-10.3,3.7-17.8,5.6-22.7,5.6c-7.7,0-11.5-3.6-11.5-10.7c0-5,3-8.2,9-9.5c18.6-4.1,37.8-10.7,57.9-19.8c8.5-3.7,17.5-9.1,27.1-16.1
		h-81.3c-5.5,0-8.3-2.8-8.3-8.3c0-5.5,2.8-8.3,8.3-8.3H677v-16.1h-74.2c-5.2,0-7.8-2.6-7.8-7.8c0-5.2,2.6-7.8,7.8-7.8H677v-16.4h-83
		c-5.2,0-7.8-2.7-7.8-8.1c0-5.2,2.6-7.8,7.8-7.8h47.6l-12.9-26.4h-45.4c-5.2,0-7.8-2.6-7.8-7.8c0-5.2,2.6-7.8,7.8-7.8h34.9
		c-5.5-7.3-11.4-14.4-17.6-21.2c-1.8-2.3-2.7-3.9-2.7-4.9c0-6,3.3-9,10-9c1.5,0,3.1,1.1,4.9,3.2c6.5,6.7,12.6,14.2,18.3,22.7
		c1.3,2.1,2,3.9,2,5.4c0,1.6-0.2,2.9-0.7,3.9h21.2v-32.2C653.5,294.5,656.5,291.5,662.3,291.5z M659.9,374.6h50.3l12.2-26.4h-75.2
		L659.9,374.6z"/>
	<path fill="#2D3039" d="M1087.2,292c6.8,0,10.3,3.7,10.3,11.2c0,3.4-2.4,6-7.1,7.8c-12.9,8-26.9,14.7-42,20.3
		c-1.1,0.3-2,0.6-2.7,0.7v56.2h79.6v-82c0-6.2,3.2-9.3,9.5-9.3c6,0,9,3.1,9,9.3v82h49.3c5.9,0,8.8,2.9,8.8,8.8s-2.9,8.8-8.8,8.8
		h-49.3v105.5c0,6.2-3,9.3-9,9.3c-6.3,0-9.5-3.1-9.5-9.3V405.8h-79.8c-1,20.5-4.7,39.8-11.2,57.9c-6.7,18.2-16,34.4-27.8,48.6
		c-2.4,3.9-5,5.9-7.8,5.9c-7.3-0.3-11.2-3.7-11.5-10.3c0.2-1.6,1.1-3.4,2.9-5.4c15.5-19.2,26-39.1,31.5-59.6
		c3.4-12.4,5.5-24.7,6.1-37.1h-44.4c-5.9,0-8.8-2.9-8.8-8.8s2.9-8.8,8.8-8.8h44.9v-51.8c-11.1,2.6-21.7,4.4-32,5.4
		c-8,0-12-3.7-12-11.2c0.3-5.7,3.5-8.5,9.5-8.5c13.2-2,26.6-4.6,40.3-8.1C1051.3,309.8,1069,302.5,1087.2,292z"/>
	<path fill="#2D3039" d="M1592.2,459c5.5,0,8.3,2.8,8.3,8.3c0,5.5-2.8,8.3-8.3,8.3h-75.9c0.8,3.7,1.2,7.5,1.2,11.2
		c0,6.2-2.1,12.3-6.3,18.3c-3.4,5.2-8.1,9-13.9,11.5c-5.4,2.3-11.8,3.4-19.3,3.4c-10.7,0-23.2-2.3-37.4-6.8c-5.2-2-7.9-5.2-8.1-9.8
		c0.3-6.7,3.3-10.2,8.8-10.5c18.6,5.7,30.2,8.5,34.9,8.5c3.6,0,6.9-0.5,10-1.5c3.7-1.1,6.8-2.9,9-5.4c2.4-2.3,3.7-4.9,3.7-7.8
		c0-4.4-0.4-8.1-1.2-11.2h-114.5c-5.5,0-8.3-2.8-8.3-8.3c0-5.5,2.8-8.3,8.3-8.3H1487c-3.6-2.9-7.5-5.4-11.7-7.3
		c-1.5-0.6-2.2-1.3-2.2-2c0.3-6.2,3.7-9.4,10.3-9.8c1.5,0,3.4,0.6,5.9,1.7c2.3,1.5,4.5,2.8,6.6,4.2c5.5-1.5,9.6-2.8,12.2-4.2
		c4.7-2,8.8-4,12.2-6.1c2.8-1.6,4.2-2.7,4.2-3.2c0-1.5-1.2-2.2-3.7-2.2h-92.5c-5.2,0-7.8-2.6-7.8-7.8c0-5.2,2.6-7.8,7.8-7.8h111.1
		c10.3,0,15.4,3.6,15.4,10.7c0,2-1.5,4.2-4.4,6.8c-4.6,4.1-11.2,8.5-19.8,13.4c-7.7,3.9-15.5,7.3-23.7,10.3c1,1,1.8,2,2.4,3.2
		H1592.2z M1410.8,342.8l1.2,15.6h28.3c4.9,0,7.3,2.4,7.3,7.3s-2.4,7.3-7.3,7.3h-27.1l1.2,13.2h145c0.6-5.2,1.2-9.9,1.7-14.2h-26.1
		c-4.9,0-7.3-2.4-7.3-7.3s2.4-7.3,7.3-7.3h27.8c0.8-5.9,1.5-11.1,2-15.6h-31.7c-4.9,0-7.3-2.4-7.3-7.3s2.4-7.3,7.3-7.3h33.7
		c1-8.1,1.5-12.5,1.5-12.9c0-2.4-1.6-3.7-4.9-3.7h-30.8c-4.9,0-7.3-2.4-7.3-7.3s2.4-7.3,7.3-7.3h39.8c9.6,0,14.4,4.1,14.4,12.2
		c0,2.3-3.6,28.3-10.7,78.1h6.6c7,0,12.3,2.4,15.9,7.1c2.8,3.7,4.2,9.4,4.2,16.8c0,5-0.6,10.8-1.7,17.3c-1.5,5-5,7.6-10.7,7.6
		c-6.2,0-9.3-3.1-9.3-9.3c1.8-7.8,2.7-12.7,2.7-14.6c0-6.2-2.3-9.3-6.8-9.3h-177c-3.9,0-5.9,2-5.9,5.9v20.5c0,5.9-2.9,8.8-8.8,8.8
		s-8.8-2.9-8.8-8.8V399c0-8.5,4.2-12.7,12.7-12.7h9.5L1393,313c0-6.2,1.4-10.7,4.2-13.7c2.3-2.4,6.5-3.7,12.7-3.9
		c10.6-0.3,21.4-1.5,32.5-3.7c5.5,0,8.3,2.8,8.3,8.5c0,5.2-2.9,8.2-8.8,9c-10.3,1.1-19.5,1.7-27.6,1.7c-3.7,0-5.6,2.1-5.6,6.3
		l0.7,10.7h28.1c4.9,0,7.3,2.4,7.3,7.3s-2.4,7.3-7.3,7.3H1410.8z M1506.8,292.5c5.5,0,8.3,2.8,8.3,8.3c0,2.6-1.3,4.8-3.9,6.6
		c-3.1,2.8-6.5,5.5-10.3,8.1c4.1,2.4,7.9,4.9,11.5,7.3c1.8,2.1,2.7,3.7,2.7,4.6c0,5.4-2.5,8.1-7.6,8.1c-2.9,0-5.4-0.9-7.3-2.7
		c-4.7-2.9-9.1-5.6-13.2-8.1c-7.5,4.6-15.8,8.8-24.9,12.7c-2.4,0.8-4.1,1.2-4.9,1.2c-5,0-7.6-2.7-7.6-8.1c0-2.4,1.3-4.3,3.9-5.6
		c6.3-2.6,12.2-5.5,17.6-8.8c-3.7-1.8-7.7-3.6-12-5.4c-1.8-1.8-2.7-3.6-2.7-5.4c0-4.7,2.4-7.1,7.1-7.1c1.3,0,2.9,0.5,4.9,1.5
		c6.3,2.8,12,5.4,17.1,7.8c6-4.1,11.4-8.4,16.1-12.9C1504.1,293.3,1505.8,292.5,1506.8,292.5z M1512.6,338.4c5.5,0,8.3,2.8,8.3,8.3
		c0,2.6-1.3,4.8-3.9,6.6c-3.1,2.6-6.4,5.1-10,7.6c3.9,2.3,7.6,4.6,11.2,6.8c1.8,2.1,2.7,3.7,2.7,4.6c0,5.4-2.5,8.1-7.6,8.1
		c-2.8,0-5.2-0.9-7.3-2.7c-5-2.9-9.7-5.5-13.9-7.8c-7.7,4.1-16,7.9-25.1,11.5c-2.4,0.8-4.1,1.2-4.9,1.2c-5,0-7.6-2.7-7.6-8.1
		c0-2.4,1.3-4.3,3.9-5.6c6-2.3,11.8-4.8,17.3-7.6c-4.2-2-8.5-3.8-12.7-5.6c-1.8-1.8-2.7-3.6-2.7-5.4c0-4.7,2.4-7.1,7.1-7.1
		c1.3,0,2.9,0.5,4.9,1.5c6.7,2.9,12.8,5.6,18.3,8.1c6.2-3.9,11.8-8,16.8-12.2C1509.9,339.2,1511.7,338.4,1512.6,338.4z"/>
</g>
</svg>
